M48
; DRILL file KiCad 10.0.3 date 2026-06-20T23:40:11
; FORMAT={-:-/ absolute / metric / decimal}
; #@! TF.CreationDate,2026-06-20T23:40:11-07:00
; #@! TF.GenerationSoftware,Kicad,Pcbnew,10.0.3
; #@! TF.FileFunction,MixedPlating,1,2
FMAT,2
METRIC
; #@! TA.AperFunction,Plated,PTH,ViaDrill
T1C0.300
; #@! TA.AperFunction,NonPlated,NPTH,ComponentDrill
T2C2.200
%
G90
G05
T1
X7.549Y-10.65
X8.186Y-12.249
X9.783Y-17.78
X10.236Y-3.062
X11.505Y-4.301
X13.111Y-16.378
X13.12Y-5.778
X13.532Y-10.71
X14.617Y-11.896
X14.827Y-17.158
X15.224Y-15.146
X15.704Y-17.473
X17.893Y-13.233
X18.89Y-1.428
X19.676Y-12.354
X19.824Y-10.082
X21.625Y-14.96
X23.896Y-18.093
X28.047Y-13.788
X30.748Y-14.508
X30.778Y-8.188
T2
X4.0Y-4.0
X32.0Y-16.0
M30
