%TF.GenerationSoftware,KiCad,Pcbnew,10.0.3*%
%TF.CreationDate,2026-06-20T23:40:10-07:00*%
%TF.ProjectId,brickdup_psu,62726963-6b64-4757-905f-7073752e6b69,rev?*%
%TF.SameCoordinates,Original*%
%TF.FileFunction,Paste,Top*%
%TF.FilePolarity,Positive*%
%FSLAX46Y46*%
G04 Gerber Fmt 4.6, Leading zero omitted, Abs format (unit mm)*
G04 Created by KiCad (PCBNEW 10.0.3) date 2026-06-20 23:40:10*
%MOMM*%
%LPD*%
G01*
G04 APERTURE LIST*
G04 Aperture macros list*
%AMRoundRect*
0 Rectangle with rounded corners*
0 $1 Rounding radius*
0 $2 $3 $4 $5 $6 $7 $8 $9 X,Y pos of 4 corners*
0 Add a 4 corners polygon primitive as box body*
4,1,4,$2,$3,$4,$5,$6,$7,$8,$9,$2,$3,0*
0 Add four circle primitives for the rounded corners*
1,1,$1+$1,$2,$3*
1,1,$1+$1,$4,$5*
1,1,$1+$1,$6,$7*
1,1,$1+$1,$8,$9*
0 Add four rect primitives between the rounded corners*
20,1,$1+$1,$2,$3,$4,$5,0*
20,1,$1+$1,$4,$5,$6,$7,0*
20,1,$1+$1,$6,$7,$8,$9,0*
20,1,$1+$1,$8,$9,$2,$3,0*%
G04 Aperture macros list end*
%ADD10RoundRect,0.250000X0.450000X-0.262500X0.450000X0.262500X-0.450000X0.262500X-0.450000X-0.262500X0*%
%ADD11R,1.500000X2.200000*%
%ADD12RoundRect,0.140000X-0.140000X-0.170000X0.140000X-0.170000X0.140000X0.170000X-0.140000X0.170000X0*%
%ADD13RoundRect,0.250000X-1.000000X-0.900000X1.000000X-0.900000X1.000000X0.900000X-1.000000X0.900000X0*%
%ADD14RoundRect,0.135000X0.185000X-0.135000X0.185000X0.135000X-0.185000X0.135000X-0.185000X-0.135000X0*%
%ADD15RoundRect,0.225000X0.250000X-0.225000X0.250000X0.225000X-0.250000X0.225000X-0.250000X-0.225000X0*%
%ADD16RoundRect,0.250000X-0.325000X-0.650000X0.325000X-0.650000X0.325000X0.650000X-0.325000X0.650000X0*%
%ADD17RoundRect,0.250000X1.100000X-0.325000X1.100000X0.325000X-1.100000X0.325000X-1.100000X-0.325000X0*%
%ADD18RoundRect,0.242500X-0.242500X-0.422500X0.242500X-0.422500X0.242500X0.422500X-0.242500X0.422500X0*%
%ADD19RoundRect,0.150000X-0.825000X-0.150000X0.825000X-0.150000X0.825000X0.150000X-0.825000X0.150000X0*%
%ADD20RoundRect,0.140000X0.170000X-0.140000X0.170000X0.140000X-0.170000X0.140000X-0.170000X-0.140000X0*%
%ADD21RoundRect,0.135000X-0.135000X-0.185000X0.135000X-0.185000X0.135000X0.185000X-0.135000X0.185000X0*%
%ADD22RoundRect,0.250000X-1.500000X0.250000X-1.500000X-0.250000X1.500000X-0.250000X1.500000X0.250000X0*%
%ADD23RoundRect,0.250001X-1.449999X0.499999X-1.449999X-0.499999X1.449999X-0.499999X1.449999X0.499999X0*%
%ADD24RoundRect,0.250000X-0.250000X-1.500000X0.250000X-1.500000X0.250000X1.500000X-0.250000X1.500000X0*%
%ADD25RoundRect,0.250001X-0.499999X-1.449999X0.499999X-1.449999X0.499999X1.449999X-0.499999X1.449999X0*%
%ADD26RoundRect,0.250000X-1.000000X-0.650000X1.000000X-0.650000X1.000000X0.650000X-1.000000X0.650000X0*%
G04 APERTURE END LIST*
D10*
%TO.C,R2*%
X25952600Y-17936100D03*
X25952600Y-16111100D03*
%TD*%
D11*
%TO.C,L1*%
X3681900Y-7900000D03*
X10081900Y-7900000D03*
%TD*%
D12*
%TO.C,Cout3*%
X23262600Y-16773800D03*
X24222600Y-16773800D03*
%TD*%
D13*
%TO.C,D2*%
X28998000Y-8188500D03*
X33298000Y-8188500D03*
%TD*%
D14*
%TO.C,RFB1*%
X28880000Y-13329500D03*
X28880000Y-12309500D03*
%TD*%
D15*
%TO.C,Cin3*%
X28582100Y-4423500D03*
X28582100Y-2873500D03*
%TD*%
D16*
%TO.C,Cout2*%
X35873000Y-6975200D03*
X38823000Y-6975200D03*
%TD*%
D10*
%TO.C,R1*%
X4256400Y-14637500D03*
X4256400Y-12812500D03*
%TD*%
D17*
%TO.C,Cin2*%
X9540000Y-4301300D03*
X9540000Y-1351300D03*
%TD*%
D18*
%TO.C,U1*%
X8556400Y-13680000D03*
X8556400Y-15330000D03*
X9756400Y-13680000D03*
X9756400Y-15330000D03*
D19*
X6681400Y-12600000D03*
X6681400Y-13870000D03*
X6681400Y-15140000D03*
X6681400Y-16410000D03*
X11631400Y-16410000D03*
X11631400Y-15140000D03*
X11631400Y-13870000D03*
X11631400Y-12600000D03*
%TD*%
D15*
%TO.C,C1*%
X12115000Y-6781900D03*
X12115000Y-5231900D03*
%TD*%
D17*
%TO.C,Cin1*%
X23792900Y-14075000D03*
X23792900Y-11125000D03*
%TD*%
D14*
%TO.C,REN2*%
X35319800Y-5055200D03*
X35319800Y-4035200D03*
%TD*%
D20*
%TO.C,Cbst*%
X21382900Y-13313900D03*
X21382900Y-12353900D03*
%TD*%
D21*
%TO.C,RDIM*%
X10567400Y-17780000D03*
X11587400Y-17780000D03*
%TD*%
D14*
%TO.C,RFB2*%
X13676400Y-13686200D03*
X13676400Y-12666200D03*
%TD*%
D22*
%TO.C,J1*%
X37650000Y-14275200D03*
X37650000Y-16275200D03*
D23*
X31900000Y-11925200D03*
X31900000Y-18625200D03*
%TD*%
D20*
%TO.C,Cff*%
X16055000Y-15275500D03*
X16055000Y-14315500D03*
%TD*%
D14*
%TO.C,REN1*%
X7120000Y-4249000D03*
X7120000Y-3229000D03*
%TD*%
D24*
%TO.C,J2*%
X19898000Y-2350000D03*
X21898000Y-2350000D03*
X23898000Y-2350000D03*
D25*
X17548000Y-8100000D03*
X26248000Y-8100000D03*
%TD*%
D16*
%TO.C,Cout1*%
X35875000Y-9525200D03*
X38825000Y-9525200D03*
%TD*%
D26*
%TO.C,D1*%
X5342700Y-10650000D03*
X9342700Y-10650000D03*
%TD*%
M02*
