%TF.GenerationSoftware,KiCad,Pcbnew,10.0.3*%
%TF.CreationDate,2026-06-21T23:39:41-07:00*%
%TF.ProjectId,brickdup_psu,62726963-6b64-4757-905f-7073752e6b69,rev?*%
%TF.SameCoordinates,Original*%
%TF.FileFunction,Other,User*%
%FSLAX46Y46*%
G04 Gerber Fmt 4.6, Leading zero omitted, Abs format (unit mm)*
G04 Created by KiCad (PCBNEW 10.0.3) date 2026-06-21 23:39:41*
%MOMM*%
%LPD*%
G01*
G04 APERTURE LIST*
%ADD10C,0.050000*%
G04 APERTURE END LIST*
%TO.C,L1*%
D10*
X17784400Y-7768500D02*
X31504400Y-7768500D01*
X17784400Y-20968500D02*
X17784400Y-7768500D01*
X31504400Y-7768500D02*
X31504400Y-20968500D01*
X31504400Y-20968500D02*
X17784400Y-20968500D01*
%TO.C,H2*%
X37450000Y-16000000D02*
G75*
G02*
X32550000Y-16000000I-2450000J0D01*
G01*
X32550000Y-16000000D02*
G75*
G02*
X37450000Y-16000000I2450000J0D01*
G01*
%TO.C,J2*%
X16612500Y-5890000D02*
X16762500Y-5890000D01*
X16612500Y-10300000D02*
X16612500Y-5890000D01*
X16762500Y-1500000D02*
X19212500Y-1500000D01*
X16762500Y-5890000D02*
X16762500Y-1500000D01*
X19122500Y-10100000D02*
X19122500Y-10300000D01*
X19122500Y-10300000D02*
X16612500Y-10300000D01*
X19212500Y-100000D02*
X25212500Y-100000D01*
X19212500Y-1500000D02*
X19212500Y-100000D01*
X25212500Y-100000D02*
X25212500Y-1500000D01*
X25212500Y-1500000D02*
X27662500Y-1500000D01*
X25302500Y-10100000D02*
X19122500Y-10100000D01*
X25302500Y-10300000D02*
X25302500Y-10100000D01*
X27662500Y-1500000D02*
X27662500Y-5890000D01*
X27662500Y-5890000D02*
X27812500Y-5890000D01*
X27812500Y-5890000D02*
X27812500Y-10300000D01*
X27812500Y-10300000D02*
X25302500Y-10300000D01*
%TO.C,U1*%
X7550000Y-9235800D02*
X9050000Y-9235800D01*
X7550000Y-14155800D02*
X7550000Y-9235800D01*
X9050000Y-8995800D02*
X13450000Y-8995800D01*
X9050000Y-9235800D02*
X9050000Y-8995800D01*
X9050000Y-14155800D02*
X7550000Y-14155800D01*
X9050000Y-14395800D02*
X9050000Y-14155800D01*
X13450000Y-8995800D02*
X13450000Y-9235800D01*
X13450000Y-9235800D02*
X14950000Y-9235800D01*
X13450000Y-14155800D02*
X13450000Y-14395800D01*
X13450000Y-14395800D02*
X9050000Y-14395800D01*
X14950000Y-9235800D02*
X14950000Y-14155800D01*
X14950000Y-14155800D02*
X13450000Y-14155800D01*
%TO.C,RFB1*%
X30567500Y-17668500D02*
X31507500Y-17668500D01*
X31507500Y-19528500D01*
X30567500Y-19528500D01*
X30567500Y-17668500D01*
%TO.C,D2*%
X350000Y-2400000D02*
X7650000Y-2400000D01*
X350000Y-6900000D02*
X350000Y-2400000D01*
X7650000Y-2400000D02*
X7650000Y-6900000D01*
X7650000Y-6900000D02*
X350000Y-6900000D01*
%TO.C,Cin3*%
X15170000Y-7857800D02*
X16630000Y-7857800D01*
X16630000Y-10817800D01*
X15170000Y-10817800D01*
X15170000Y-7857800D01*
%TO.C,REN1*%
X11631700Y-1208700D02*
X12571700Y-1208700D01*
X12571700Y-3068700D01*
X11631700Y-3068700D01*
X11631700Y-1208700D01*
%TO.C,H1*%
X7450000Y-16000000D02*
G75*
G02*
X2550000Y-16000000I-2450000J0D01*
G01*
X2550000Y-16000000D02*
G75*
G02*
X7450000Y-16000000I2450000J0D01*
G01*
%TO.C,Cin1*%
X14758800Y-11221200D02*
X17958800Y-11221200D01*
X17958800Y-15821200D01*
X14758800Y-15821200D01*
X14758800Y-11221200D01*
%TO.C,Cff*%
X31430000Y-12335100D02*
X32350000Y-12335100D01*
X32350000Y-14155100D01*
X31430000Y-14155100D01*
X31430000Y-12335100D01*
%TO.C,Cin2*%
X3873100Y-8850000D02*
X7073100Y-8850000D01*
X7073100Y-13450000D01*
X3873100Y-13450000D01*
X3873100Y-8850000D01*
%TO.C,Cout1*%
X7900000Y-4776500D02*
X12500000Y-4776500D01*
X12500000Y-7076500D01*
X7900000Y-7076500D01*
X7900000Y-4776500D01*
%TO.C,R1*%
X27812500Y-7657400D02*
X29712500Y-7657400D01*
X29712500Y-11017400D01*
X27812500Y-11017400D01*
X27812500Y-7657400D01*
%TO.C,Cbst*%
X13242700Y-2902900D02*
X14162700Y-2902900D01*
X14162700Y-4722900D01*
X13242700Y-4722900D01*
X13242700Y-2902900D01*
%TO.C,Cout2*%
X9489600Y-14400800D02*
X14089600Y-14400800D01*
X14089600Y-16700800D01*
X9489600Y-16700800D01*
X9489600Y-14400800D01*
%TO.C,REN2*%
X37650000Y-14803500D02*
X38590000Y-14803500D01*
X38590000Y-16663500D01*
X37650000Y-16663500D01*
X37650000Y-14803500D01*
%TO.C,D1*%
X605400Y-5700000D02*
X7605400Y-5700000D01*
X605400Y-9200000D02*
X605400Y-5700000D01*
X7605400Y-5700000D02*
X7605400Y-9200000D01*
X7605400Y-9200000D02*
X605400Y-9200000D01*
%TO.C,Cout3*%
X14550000Y-6592800D02*
X16370000Y-6592800D01*
X16370000Y-7512800D01*
X14550000Y-7512800D01*
X14550000Y-6592800D01*
%TO.C,RFB2*%
X10123800Y-17050800D02*
X11063800Y-17050800D01*
X11063800Y-18910800D01*
X10123800Y-18910800D01*
X10123800Y-17050800D01*
%TO.C,J1*%
X29700000Y-2218500D02*
X34110000Y-2218500D01*
X29700000Y-4718500D02*
X29700000Y-2218500D01*
X29700000Y-8918500D02*
X29900000Y-8918500D01*
X29700000Y-11418500D02*
X29700000Y-8918500D01*
X29900000Y-4718500D02*
X29700000Y-4718500D01*
X29900000Y-8918500D02*
X29900000Y-4718500D01*
X34110000Y-2218500D02*
X34110000Y-2368500D01*
X34110000Y-2368500D02*
X38500000Y-2368500D01*
X34110000Y-11268500D02*
X34110000Y-11418500D01*
X34110000Y-11418500D02*
X29700000Y-11418500D01*
X38500000Y-2368500D02*
X38500000Y-4818500D01*
X38500000Y-4818500D02*
X39900000Y-4818500D01*
X38500000Y-8818500D02*
X38500000Y-11268500D01*
X38500000Y-11268500D02*
X34110000Y-11268500D01*
X39900000Y-4818500D02*
X39900000Y-8818500D01*
X39900000Y-8818500D02*
X38500000Y-8818500D01*
%TO.C,R2*%
X9131500Y-1171500D02*
X11031500Y-1171500D01*
X11031500Y-4531500D01*
X9131500Y-4531500D01*
X9131500Y-1171500D01*
%TO.C,C1*%
X12745000Y-6035100D02*
X14205000Y-6035100D01*
X14205000Y-8995100D01*
X12745000Y-8995100D01*
X12745000Y-6035100D01*
%TD*%
M02*
