%TF.GenerationSoftware,KiCad,Pcbnew,10.0.3*%
%TF.CreationDate,2026-06-21T23:39:41-07:00*%
%TF.ProjectId,brickdup_psu,62726963-6b64-4757-905f-7073752e6b69,rev?*%
%TF.SameCoordinates,Original*%
%TF.FileFunction,AssemblyDrawing,Top*%
%FSLAX46Y46*%
G04 Gerber Fmt 4.6, Leading zero omitted, Abs format (unit mm)*
G04 Created by KiCad (PCBNEW 10.0.3) date 2026-06-21 23:39:41*
%MOMM*%
%LPD*%
G01*
G04 APERTURE LIST*
%ADD10C,0.150000*%
%ADD11C,0.040000*%
%ADD12C,0.060000*%
%ADD13C,0.120000*%
%ADD14C,0.080000*%
%ADD15C,0.100000*%
G04 APERTURE END LIST*
D10*
X24477733Y-14823319D02*
X24001543Y-14823319D01*
X24001543Y-14823319D02*
X24001543Y-13823319D01*
X25334876Y-14823319D02*
X24763448Y-14823319D01*
X25049162Y-14823319D02*
X25049162Y-13823319D01*
X25049162Y-13823319D02*
X24953924Y-13966176D01*
X24953924Y-13966176D02*
X24858686Y-14061414D01*
X24858686Y-14061414D02*
X24763448Y-14109033D01*
X25880952Y-19604819D02*
X25880952Y-18604819D01*
X25880952Y-18604819D02*
X26214285Y-19319104D01*
X26214285Y-19319104D02*
X26547618Y-18604819D01*
X26547618Y-18604819D02*
X26547618Y-19604819D01*
X27166666Y-19604819D02*
X27071428Y-19557200D01*
X27071428Y-19557200D02*
X27023809Y-19509580D01*
X27023809Y-19509580D02*
X26976190Y-19414342D01*
X26976190Y-19414342D02*
X26976190Y-19128628D01*
X26976190Y-19128628D02*
X27023809Y-19033390D01*
X27023809Y-19033390D02*
X27071428Y-18985771D01*
X27071428Y-18985771D02*
X27166666Y-18938152D01*
X27166666Y-18938152D02*
X27309523Y-18938152D01*
X27309523Y-18938152D02*
X27404761Y-18985771D01*
X27404761Y-18985771D02*
X27452380Y-19033390D01*
X27452380Y-19033390D02*
X27499999Y-19128628D01*
X27499999Y-19128628D02*
X27499999Y-19414342D01*
X27499999Y-19414342D02*
X27452380Y-19509580D01*
X27452380Y-19509580D02*
X27404761Y-19557200D01*
X27404761Y-19557200D02*
X27309523Y-19604819D01*
X27309523Y-19604819D02*
X27166666Y-19604819D01*
X28357142Y-18938152D02*
X28357142Y-19604819D01*
X27928571Y-18938152D02*
X27928571Y-19461961D01*
X27928571Y-19461961D02*
X27976190Y-19557200D01*
X27976190Y-19557200D02*
X28071428Y-19604819D01*
X28071428Y-19604819D02*
X28214285Y-19604819D01*
X28214285Y-19604819D02*
X28309523Y-19557200D01*
X28309523Y-19557200D02*
X28357142Y-19509580D01*
X28833333Y-18938152D02*
X28833333Y-19604819D01*
X28833333Y-19033390D02*
X28880952Y-18985771D01*
X28880952Y-18985771D02*
X28976190Y-18938152D01*
X28976190Y-18938152D02*
X29119047Y-18938152D01*
X29119047Y-18938152D02*
X29214285Y-18985771D01*
X29214285Y-18985771D02*
X29261904Y-19081009D01*
X29261904Y-19081009D02*
X29261904Y-19604819D01*
X29595238Y-18938152D02*
X29976190Y-18938152D01*
X29738095Y-18604819D02*
X29738095Y-19461961D01*
X29738095Y-19461961D02*
X29785714Y-19557200D01*
X29785714Y-19557200D02*
X29880952Y-19604819D01*
X29880952Y-19604819D02*
X29976190Y-19604819D01*
X30309524Y-19604819D02*
X30309524Y-18938152D01*
X30309524Y-18604819D02*
X30261905Y-18652438D01*
X30261905Y-18652438D02*
X30309524Y-18700057D01*
X30309524Y-18700057D02*
X30357143Y-18652438D01*
X30357143Y-18652438D02*
X30309524Y-18604819D01*
X30309524Y-18604819D02*
X30309524Y-18700057D01*
X30785714Y-18938152D02*
X30785714Y-19604819D01*
X30785714Y-19033390D02*
X30833333Y-18985771D01*
X30833333Y-18985771D02*
X30928571Y-18938152D01*
X30928571Y-18938152D02*
X31071428Y-18938152D01*
X31071428Y-18938152D02*
X31166666Y-18985771D01*
X31166666Y-18985771D02*
X31214285Y-19081009D01*
X31214285Y-19081009D02*
X31214285Y-19604819D01*
X32119047Y-18938152D02*
X32119047Y-19747676D01*
X32119047Y-19747676D02*
X32071428Y-19842914D01*
X32071428Y-19842914D02*
X32023809Y-19890533D01*
X32023809Y-19890533D02*
X31928571Y-19938152D01*
X31928571Y-19938152D02*
X31785714Y-19938152D01*
X31785714Y-19938152D02*
X31690476Y-19890533D01*
X32119047Y-19557200D02*
X32023809Y-19604819D01*
X32023809Y-19604819D02*
X31833333Y-19604819D01*
X31833333Y-19604819D02*
X31738095Y-19557200D01*
X31738095Y-19557200D02*
X31690476Y-19509580D01*
X31690476Y-19509580D02*
X31642857Y-19414342D01*
X31642857Y-19414342D02*
X31642857Y-19128628D01*
X31642857Y-19128628D02*
X31690476Y-19033390D01*
X31690476Y-19033390D02*
X31738095Y-18985771D01*
X31738095Y-18985771D02*
X31833333Y-18938152D01*
X31833333Y-18938152D02*
X32023809Y-18938152D01*
X32023809Y-18938152D02*
X32119047Y-18985771D01*
X32595238Y-19604819D02*
X32595238Y-18604819D01*
X32595238Y-19081009D02*
X33166666Y-19081009D01*
X33166666Y-19604819D02*
X33166666Y-18604819D01*
X33785714Y-19604819D02*
X33690476Y-19557200D01*
X33690476Y-19557200D02*
X33642857Y-19509580D01*
X33642857Y-19509580D02*
X33595238Y-19414342D01*
X33595238Y-19414342D02*
X33595238Y-19128628D01*
X33595238Y-19128628D02*
X33642857Y-19033390D01*
X33642857Y-19033390D02*
X33690476Y-18985771D01*
X33690476Y-18985771D02*
X33785714Y-18938152D01*
X33785714Y-18938152D02*
X33928571Y-18938152D01*
X33928571Y-18938152D02*
X34023809Y-18985771D01*
X34023809Y-18985771D02*
X34071428Y-19033390D01*
X34071428Y-19033390D02*
X34119047Y-19128628D01*
X34119047Y-19128628D02*
X34119047Y-19414342D01*
X34119047Y-19414342D02*
X34071428Y-19509580D01*
X34071428Y-19509580D02*
X34023809Y-19557200D01*
X34023809Y-19557200D02*
X33928571Y-19604819D01*
X33928571Y-19604819D02*
X33785714Y-19604819D01*
X34690476Y-19604819D02*
X34595238Y-19557200D01*
X34595238Y-19557200D02*
X34547619Y-19461961D01*
X34547619Y-19461961D02*
X34547619Y-18604819D01*
X35452381Y-19557200D02*
X35357143Y-19604819D01*
X35357143Y-19604819D02*
X35166667Y-19604819D01*
X35166667Y-19604819D02*
X35071429Y-19557200D01*
X35071429Y-19557200D02*
X35023810Y-19461961D01*
X35023810Y-19461961D02*
X35023810Y-19081009D01*
X35023810Y-19081009D02*
X35071429Y-18985771D01*
X35071429Y-18985771D02*
X35166667Y-18938152D01*
X35166667Y-18938152D02*
X35357143Y-18938152D01*
X35357143Y-18938152D02*
X35452381Y-18985771D01*
X35452381Y-18985771D02*
X35500000Y-19081009D01*
X35500000Y-19081009D02*
X35500000Y-19176247D01*
X35500000Y-19176247D02*
X35023810Y-19271485D01*
X35690477Y-19700057D02*
X36452381Y-19700057D01*
X36642858Y-18700057D02*
X36690477Y-18652438D01*
X36690477Y-18652438D02*
X36785715Y-18604819D01*
X36785715Y-18604819D02*
X37023810Y-18604819D01*
X37023810Y-18604819D02*
X37119048Y-18652438D01*
X37119048Y-18652438D02*
X37166667Y-18700057D01*
X37166667Y-18700057D02*
X37214286Y-18795295D01*
X37214286Y-18795295D02*
X37214286Y-18890533D01*
X37214286Y-18890533D02*
X37166667Y-19033390D01*
X37166667Y-19033390D02*
X36595239Y-19604819D01*
X36595239Y-19604819D02*
X37214286Y-19604819D01*
X37642858Y-19509580D02*
X37690477Y-19557200D01*
X37690477Y-19557200D02*
X37642858Y-19604819D01*
X37642858Y-19604819D02*
X37595239Y-19557200D01*
X37595239Y-19557200D02*
X37642858Y-19509580D01*
X37642858Y-19509580D02*
X37642858Y-19604819D01*
X38071429Y-18700057D02*
X38119048Y-18652438D01*
X38119048Y-18652438D02*
X38214286Y-18604819D01*
X38214286Y-18604819D02*
X38452381Y-18604819D01*
X38452381Y-18604819D02*
X38547619Y-18652438D01*
X38547619Y-18652438D02*
X38595238Y-18700057D01*
X38595238Y-18700057D02*
X38642857Y-18795295D01*
X38642857Y-18795295D02*
X38642857Y-18890533D01*
X38642857Y-18890533D02*
X38595238Y-19033390D01*
X38595238Y-19033390D02*
X38023810Y-19604819D01*
X38023810Y-19604819D02*
X38642857Y-19604819D01*
X39071429Y-19604819D02*
X39071429Y-18938152D01*
X39071429Y-19033390D02*
X39119048Y-18985771D01*
X39119048Y-18985771D02*
X39214286Y-18938152D01*
X39214286Y-18938152D02*
X39357143Y-18938152D01*
X39357143Y-18938152D02*
X39452381Y-18985771D01*
X39452381Y-18985771D02*
X39500000Y-19081009D01*
X39500000Y-19081009D02*
X39500000Y-19604819D01*
X39500000Y-19081009D02*
X39547619Y-18985771D01*
X39547619Y-18985771D02*
X39642857Y-18938152D01*
X39642857Y-18938152D02*
X39785714Y-18938152D01*
X39785714Y-18938152D02*
X39880953Y-18985771D01*
X39880953Y-18985771D02*
X39928572Y-19081009D01*
X39928572Y-19081009D02*
X39928572Y-19604819D01*
X40404762Y-19604819D02*
X40404762Y-18938152D01*
X40404762Y-19033390D02*
X40452381Y-18985771D01*
X40452381Y-18985771D02*
X40547619Y-18938152D01*
X40547619Y-18938152D02*
X40690476Y-18938152D01*
X40690476Y-18938152D02*
X40785714Y-18985771D01*
X40785714Y-18985771D02*
X40833333Y-19081009D01*
X40833333Y-19081009D02*
X40833333Y-19604819D01*
X40833333Y-19081009D02*
X40880952Y-18985771D01*
X40880952Y-18985771D02*
X40976190Y-18938152D01*
X40976190Y-18938152D02*
X41119047Y-18938152D01*
X41119047Y-18938152D02*
X41214286Y-18985771D01*
X41214286Y-18985771D02*
X41261905Y-19081009D01*
X41261905Y-19081009D02*
X41261905Y-19604819D01*
X41500000Y-19700057D02*
X42261904Y-19700057D01*
X42500000Y-19604819D02*
X42500000Y-18604819D01*
X42500000Y-18604819D02*
X42833333Y-19319104D01*
X42833333Y-19319104D02*
X43166666Y-18604819D01*
X43166666Y-18604819D02*
X43166666Y-19604819D01*
X43595238Y-18700057D02*
X43642857Y-18652438D01*
X43642857Y-18652438D02*
X43738095Y-18604819D01*
X43738095Y-18604819D02*
X43976190Y-18604819D01*
X43976190Y-18604819D02*
X44071428Y-18652438D01*
X44071428Y-18652438D02*
X44119047Y-18700057D01*
X44119047Y-18700057D02*
X44166666Y-18795295D01*
X44166666Y-18795295D02*
X44166666Y-18890533D01*
X44166666Y-18890533D02*
X44119047Y-19033390D01*
X44119047Y-19033390D02*
X43547619Y-19604819D01*
X43547619Y-19604819D02*
X44166666Y-19604819D01*
X34238095Y-16454819D02*
X34238095Y-15454819D01*
X34238095Y-15931009D02*
X34809523Y-15931009D01*
X34809523Y-16454819D02*
X34809523Y-15454819D01*
X35238095Y-15550057D02*
X35285714Y-15502438D01*
X35285714Y-15502438D02*
X35380952Y-15454819D01*
X35380952Y-15454819D02*
X35619047Y-15454819D01*
X35619047Y-15454819D02*
X35714285Y-15502438D01*
X35714285Y-15502438D02*
X35761904Y-15550057D01*
X35761904Y-15550057D02*
X35809523Y-15645295D01*
X35809523Y-15645295D02*
X35809523Y-15740533D01*
X35809523Y-15740533D02*
X35761904Y-15883390D01*
X35761904Y-15883390D02*
X35190476Y-16454819D01*
X35190476Y-16454819D02*
X35809523Y-16454819D01*
X21879166Y-6154819D02*
X21879166Y-6869104D01*
X21879166Y-6869104D02*
X21831547Y-7011961D01*
X21831547Y-7011961D02*
X21736309Y-7107200D01*
X21736309Y-7107200D02*
X21593452Y-7154819D01*
X21593452Y-7154819D02*
X21498214Y-7154819D01*
X22307738Y-6250057D02*
X22355357Y-6202438D01*
X22355357Y-6202438D02*
X22450595Y-6154819D01*
X22450595Y-6154819D02*
X22688690Y-6154819D01*
X22688690Y-6154819D02*
X22783928Y-6202438D01*
X22783928Y-6202438D02*
X22831547Y-6250057D01*
X22831547Y-6250057D02*
X22879166Y-6345295D01*
X22879166Y-6345295D02*
X22879166Y-6440533D01*
X22879166Y-6440533D02*
X22831547Y-6583390D01*
X22831547Y-6583390D02*
X22260119Y-7154819D01*
X22260119Y-7154819D02*
X22879166Y-7154819D01*
X10704819Y-12457704D02*
X11514342Y-12457704D01*
X11514342Y-12457704D02*
X11609580Y-12410085D01*
X11609580Y-12410085D02*
X11657200Y-12362466D01*
X11657200Y-12362466D02*
X11704819Y-12267228D01*
X11704819Y-12267228D02*
X11704819Y-12076752D01*
X11704819Y-12076752D02*
X11657200Y-11981514D01*
X11657200Y-11981514D02*
X11609580Y-11933895D01*
X11609580Y-11933895D02*
X11514342Y-11886276D01*
X11514342Y-11886276D02*
X10704819Y-11886276D01*
X11704819Y-10886276D02*
X11704819Y-11457704D01*
X11704819Y-11171990D02*
X10704819Y-11171990D01*
X10704819Y-11171990D02*
X10847676Y-11267228D01*
X10847676Y-11267228D02*
X10942914Y-11362466D01*
X10942914Y-11362466D02*
X10990533Y-11457704D01*
D11*
X31155700Y-18883261D02*
X31031891Y-18969928D01*
X31155700Y-19031833D02*
X30895700Y-19031833D01*
X30895700Y-19031833D02*
X30895700Y-18932785D01*
X30895700Y-18932785D02*
X30908081Y-18908023D01*
X30908081Y-18908023D02*
X30920462Y-18895642D01*
X30920462Y-18895642D02*
X30945224Y-18883261D01*
X30945224Y-18883261D02*
X30982367Y-18883261D01*
X30982367Y-18883261D02*
X31007129Y-18895642D01*
X31007129Y-18895642D02*
X31019510Y-18908023D01*
X31019510Y-18908023D02*
X31031891Y-18932785D01*
X31031891Y-18932785D02*
X31031891Y-19031833D01*
X31019510Y-18685166D02*
X31019510Y-18771833D01*
X31155700Y-18771833D02*
X30895700Y-18771833D01*
X30895700Y-18771833D02*
X30895700Y-18648023D01*
X31019510Y-18462309D02*
X31031891Y-18425166D01*
X31031891Y-18425166D02*
X31044272Y-18412785D01*
X31044272Y-18412785D02*
X31069034Y-18400404D01*
X31069034Y-18400404D02*
X31106177Y-18400404D01*
X31106177Y-18400404D02*
X31130939Y-18412785D01*
X31130939Y-18412785D02*
X31143320Y-18425166D01*
X31143320Y-18425166D02*
X31155700Y-18449928D01*
X31155700Y-18449928D02*
X31155700Y-18548976D01*
X31155700Y-18548976D02*
X30895700Y-18548976D01*
X30895700Y-18548976D02*
X30895700Y-18462309D01*
X30895700Y-18462309D02*
X30908081Y-18437547D01*
X30908081Y-18437547D02*
X30920462Y-18425166D01*
X30920462Y-18425166D02*
X30945224Y-18412785D01*
X30945224Y-18412785D02*
X30969986Y-18412785D01*
X30969986Y-18412785D02*
X30994748Y-18425166D01*
X30994748Y-18425166D02*
X31007129Y-18437547D01*
X31007129Y-18437547D02*
X31019510Y-18462309D01*
X31019510Y-18462309D02*
X31019510Y-18548976D01*
X31155700Y-18152785D02*
X31155700Y-18301357D01*
X31155700Y-18227071D02*
X30895700Y-18227071D01*
X30895700Y-18227071D02*
X30932843Y-18251833D01*
X30932843Y-18251833D02*
X30957605Y-18276595D01*
X30957605Y-18276595D02*
X30969986Y-18301357D01*
D10*
X3261905Y-2104819D02*
X3261905Y-1104819D01*
X3261905Y-1104819D02*
X3500000Y-1104819D01*
X3500000Y-1104819D02*
X3642857Y-1152438D01*
X3642857Y-1152438D02*
X3738095Y-1247676D01*
X3738095Y-1247676D02*
X3785714Y-1342914D01*
X3785714Y-1342914D02*
X3833333Y-1533390D01*
X3833333Y-1533390D02*
X3833333Y-1676247D01*
X3833333Y-1676247D02*
X3785714Y-1866723D01*
X3785714Y-1866723D02*
X3738095Y-1961961D01*
X3738095Y-1961961D02*
X3642857Y-2057200D01*
X3642857Y-2057200D02*
X3500000Y-2104819D01*
X3500000Y-2104819D02*
X3261905Y-2104819D01*
X4214286Y-1200057D02*
X4261905Y-1152438D01*
X4261905Y-1152438D02*
X4357143Y-1104819D01*
X4357143Y-1104819D02*
X4595238Y-1104819D01*
X4595238Y-1104819D02*
X4690476Y-1152438D01*
X4690476Y-1152438D02*
X4738095Y-1200057D01*
X4738095Y-1200057D02*
X4785714Y-1295295D01*
X4785714Y-1295295D02*
X4785714Y-1390533D01*
X4785714Y-1390533D02*
X4738095Y-1533390D01*
X4738095Y-1533390D02*
X4166667Y-2104819D01*
X4166667Y-2104819D02*
X4785714Y-2104819D01*
D12*
X16043832Y-9680656D02*
X16062880Y-9699704D01*
X16062880Y-9699704D02*
X16081927Y-9756846D01*
X16081927Y-9756846D02*
X16081927Y-9794942D01*
X16081927Y-9794942D02*
X16062880Y-9852085D01*
X16062880Y-9852085D02*
X16024784Y-9890180D01*
X16024784Y-9890180D02*
X15986689Y-9909227D01*
X15986689Y-9909227D02*
X15910499Y-9928275D01*
X15910499Y-9928275D02*
X15853356Y-9928275D01*
X15853356Y-9928275D02*
X15777165Y-9909227D01*
X15777165Y-9909227D02*
X15739070Y-9890180D01*
X15739070Y-9890180D02*
X15700975Y-9852085D01*
X15700975Y-9852085D02*
X15681927Y-9794942D01*
X15681927Y-9794942D02*
X15681927Y-9756846D01*
X15681927Y-9756846D02*
X15700975Y-9699704D01*
X15700975Y-9699704D02*
X15720022Y-9680656D01*
X16081927Y-9509227D02*
X15815260Y-9509227D01*
X15681927Y-9509227D02*
X15700975Y-9528275D01*
X15700975Y-9528275D02*
X15720022Y-9509227D01*
X15720022Y-9509227D02*
X15700975Y-9490180D01*
X15700975Y-9490180D02*
X15681927Y-9509227D01*
X15681927Y-9509227D02*
X15720022Y-9509227D01*
X15815260Y-9318751D02*
X16081927Y-9318751D01*
X15853356Y-9318751D02*
X15834308Y-9299704D01*
X15834308Y-9299704D02*
X15815260Y-9261609D01*
X15815260Y-9261609D02*
X15815260Y-9204466D01*
X15815260Y-9204466D02*
X15834308Y-9166370D01*
X15834308Y-9166370D02*
X15872403Y-9147323D01*
X15872403Y-9147323D02*
X16081927Y-9147323D01*
X15681927Y-8994942D02*
X15681927Y-8747323D01*
X15681927Y-8747323D02*
X15834308Y-8880656D01*
X15834308Y-8880656D02*
X15834308Y-8823513D01*
X15834308Y-8823513D02*
X15853356Y-8785418D01*
X15853356Y-8785418D02*
X15872403Y-8766370D01*
X15872403Y-8766370D02*
X15910499Y-8747323D01*
X15910499Y-8747323D02*
X16005737Y-8747323D01*
X16005737Y-8747323D02*
X16043832Y-8766370D01*
X16043832Y-8766370D02*
X16062880Y-8785418D01*
X16062880Y-8785418D02*
X16081927Y-8823513D01*
X16081927Y-8823513D02*
X16081927Y-8937799D01*
X16081927Y-8937799D02*
X16062880Y-8975894D01*
X16062880Y-8975894D02*
X16043832Y-8994942D01*
D11*
X12219900Y-2435842D02*
X12096091Y-2522509D01*
X12219900Y-2584414D02*
X11959900Y-2584414D01*
X11959900Y-2584414D02*
X11959900Y-2485366D01*
X11959900Y-2485366D02*
X11972281Y-2460604D01*
X11972281Y-2460604D02*
X11984662Y-2448223D01*
X11984662Y-2448223D02*
X12009424Y-2435842D01*
X12009424Y-2435842D02*
X12046567Y-2435842D01*
X12046567Y-2435842D02*
X12071329Y-2448223D01*
X12071329Y-2448223D02*
X12083710Y-2460604D01*
X12083710Y-2460604D02*
X12096091Y-2485366D01*
X12096091Y-2485366D02*
X12096091Y-2584414D01*
X12083710Y-2324414D02*
X12083710Y-2237747D01*
X12219900Y-2200604D02*
X12219900Y-2324414D01*
X12219900Y-2324414D02*
X11959900Y-2324414D01*
X11959900Y-2324414D02*
X11959900Y-2200604D01*
X12219900Y-2089176D02*
X11959900Y-2089176D01*
X11959900Y-2089176D02*
X12219900Y-1940604D01*
X12219900Y-1940604D02*
X11959900Y-1940604D01*
X12219900Y-1680604D02*
X12219900Y-1829176D01*
X12219900Y-1754890D02*
X11959900Y-1754890D01*
X11959900Y-1754890D02*
X11997043Y-1779652D01*
X11997043Y-1779652D02*
X12021805Y-1804414D01*
X12021805Y-1804414D02*
X12034186Y-1829176D01*
D10*
X-4119047Y-19604819D02*
X-4119047Y-18604819D01*
X-4119047Y-18604819D02*
X-3785714Y-19319104D01*
X-3785714Y-19319104D02*
X-3452381Y-18604819D01*
X-3452381Y-18604819D02*
X-3452381Y-19604819D01*
X-2833333Y-19604819D02*
X-2928571Y-19557200D01*
X-2928571Y-19557200D02*
X-2976190Y-19509580D01*
X-2976190Y-19509580D02*
X-3023809Y-19414342D01*
X-3023809Y-19414342D02*
X-3023809Y-19128628D01*
X-3023809Y-19128628D02*
X-2976190Y-19033390D01*
X-2976190Y-19033390D02*
X-2928571Y-18985771D01*
X-2928571Y-18985771D02*
X-2833333Y-18938152D01*
X-2833333Y-18938152D02*
X-2690476Y-18938152D01*
X-2690476Y-18938152D02*
X-2595238Y-18985771D01*
X-2595238Y-18985771D02*
X-2547619Y-19033390D01*
X-2547619Y-19033390D02*
X-2500000Y-19128628D01*
X-2500000Y-19128628D02*
X-2500000Y-19414342D01*
X-2500000Y-19414342D02*
X-2547619Y-19509580D01*
X-2547619Y-19509580D02*
X-2595238Y-19557200D01*
X-2595238Y-19557200D02*
X-2690476Y-19604819D01*
X-2690476Y-19604819D02*
X-2833333Y-19604819D01*
X-1642857Y-18938152D02*
X-1642857Y-19604819D01*
X-2071428Y-18938152D02*
X-2071428Y-19461961D01*
X-2071428Y-19461961D02*
X-2023809Y-19557200D01*
X-2023809Y-19557200D02*
X-1928571Y-19604819D01*
X-1928571Y-19604819D02*
X-1785714Y-19604819D01*
X-1785714Y-19604819D02*
X-1690476Y-19557200D01*
X-1690476Y-19557200D02*
X-1642857Y-19509580D01*
X-1166666Y-18938152D02*
X-1166666Y-19604819D01*
X-1166666Y-19033390D02*
X-1119047Y-18985771D01*
X-1119047Y-18985771D02*
X-1023809Y-18938152D01*
X-1023809Y-18938152D02*
X-880952Y-18938152D01*
X-880952Y-18938152D02*
X-785714Y-18985771D01*
X-785714Y-18985771D02*
X-738095Y-19081009D01*
X-738095Y-19081009D02*
X-738095Y-19604819D01*
X-404761Y-18938152D02*
X-23809Y-18938152D01*
X-261904Y-18604819D02*
X-261904Y-19461961D01*
X-261904Y-19461961D02*
X-214285Y-19557200D01*
X-214285Y-19557200D02*
X-119047Y-19604819D01*
X-119047Y-19604819D02*
X-23809Y-19604819D01*
X309524Y-19604819D02*
X309524Y-18938152D01*
X309524Y-18604819D02*
X261905Y-18652438D01*
X261905Y-18652438D02*
X309524Y-18700057D01*
X309524Y-18700057D02*
X357143Y-18652438D01*
X357143Y-18652438D02*
X309524Y-18604819D01*
X309524Y-18604819D02*
X309524Y-18700057D01*
X785714Y-18938152D02*
X785714Y-19604819D01*
X785714Y-19033390D02*
X833333Y-18985771D01*
X833333Y-18985771D02*
X928571Y-18938152D01*
X928571Y-18938152D02*
X1071428Y-18938152D01*
X1071428Y-18938152D02*
X1166666Y-18985771D01*
X1166666Y-18985771D02*
X1214285Y-19081009D01*
X1214285Y-19081009D02*
X1214285Y-19604819D01*
X2119047Y-18938152D02*
X2119047Y-19747676D01*
X2119047Y-19747676D02*
X2071428Y-19842914D01*
X2071428Y-19842914D02*
X2023809Y-19890533D01*
X2023809Y-19890533D02*
X1928571Y-19938152D01*
X1928571Y-19938152D02*
X1785714Y-19938152D01*
X1785714Y-19938152D02*
X1690476Y-19890533D01*
X2119047Y-19557200D02*
X2023809Y-19604819D01*
X2023809Y-19604819D02*
X1833333Y-19604819D01*
X1833333Y-19604819D02*
X1738095Y-19557200D01*
X1738095Y-19557200D02*
X1690476Y-19509580D01*
X1690476Y-19509580D02*
X1642857Y-19414342D01*
X1642857Y-19414342D02*
X1642857Y-19128628D01*
X1642857Y-19128628D02*
X1690476Y-19033390D01*
X1690476Y-19033390D02*
X1738095Y-18985771D01*
X1738095Y-18985771D02*
X1833333Y-18938152D01*
X1833333Y-18938152D02*
X2023809Y-18938152D01*
X2023809Y-18938152D02*
X2119047Y-18985771D01*
X2595238Y-19604819D02*
X2595238Y-18604819D01*
X2595238Y-19081009D02*
X3166666Y-19081009D01*
X3166666Y-19604819D02*
X3166666Y-18604819D01*
X3785714Y-19604819D02*
X3690476Y-19557200D01*
X3690476Y-19557200D02*
X3642857Y-19509580D01*
X3642857Y-19509580D02*
X3595238Y-19414342D01*
X3595238Y-19414342D02*
X3595238Y-19128628D01*
X3595238Y-19128628D02*
X3642857Y-19033390D01*
X3642857Y-19033390D02*
X3690476Y-18985771D01*
X3690476Y-18985771D02*
X3785714Y-18938152D01*
X3785714Y-18938152D02*
X3928571Y-18938152D01*
X3928571Y-18938152D02*
X4023809Y-18985771D01*
X4023809Y-18985771D02*
X4071428Y-19033390D01*
X4071428Y-19033390D02*
X4119047Y-19128628D01*
X4119047Y-19128628D02*
X4119047Y-19414342D01*
X4119047Y-19414342D02*
X4071428Y-19509580D01*
X4071428Y-19509580D02*
X4023809Y-19557200D01*
X4023809Y-19557200D02*
X3928571Y-19604819D01*
X3928571Y-19604819D02*
X3785714Y-19604819D01*
X4690476Y-19604819D02*
X4595238Y-19557200D01*
X4595238Y-19557200D02*
X4547619Y-19461961D01*
X4547619Y-19461961D02*
X4547619Y-18604819D01*
X5452381Y-19557200D02*
X5357143Y-19604819D01*
X5357143Y-19604819D02*
X5166667Y-19604819D01*
X5166667Y-19604819D02*
X5071429Y-19557200D01*
X5071429Y-19557200D02*
X5023810Y-19461961D01*
X5023810Y-19461961D02*
X5023810Y-19081009D01*
X5023810Y-19081009D02*
X5071429Y-18985771D01*
X5071429Y-18985771D02*
X5166667Y-18938152D01*
X5166667Y-18938152D02*
X5357143Y-18938152D01*
X5357143Y-18938152D02*
X5452381Y-18985771D01*
X5452381Y-18985771D02*
X5500000Y-19081009D01*
X5500000Y-19081009D02*
X5500000Y-19176247D01*
X5500000Y-19176247D02*
X5023810Y-19271485D01*
X5690477Y-19700057D02*
X6452381Y-19700057D01*
X6642858Y-18700057D02*
X6690477Y-18652438D01*
X6690477Y-18652438D02*
X6785715Y-18604819D01*
X6785715Y-18604819D02*
X7023810Y-18604819D01*
X7023810Y-18604819D02*
X7119048Y-18652438D01*
X7119048Y-18652438D02*
X7166667Y-18700057D01*
X7166667Y-18700057D02*
X7214286Y-18795295D01*
X7214286Y-18795295D02*
X7214286Y-18890533D01*
X7214286Y-18890533D02*
X7166667Y-19033390D01*
X7166667Y-19033390D02*
X6595239Y-19604819D01*
X6595239Y-19604819D02*
X7214286Y-19604819D01*
X7642858Y-19509580D02*
X7690477Y-19557200D01*
X7690477Y-19557200D02*
X7642858Y-19604819D01*
X7642858Y-19604819D02*
X7595239Y-19557200D01*
X7595239Y-19557200D02*
X7642858Y-19509580D01*
X7642858Y-19509580D02*
X7642858Y-19604819D01*
X8071429Y-18700057D02*
X8119048Y-18652438D01*
X8119048Y-18652438D02*
X8214286Y-18604819D01*
X8214286Y-18604819D02*
X8452381Y-18604819D01*
X8452381Y-18604819D02*
X8547619Y-18652438D01*
X8547619Y-18652438D02*
X8595238Y-18700057D01*
X8595238Y-18700057D02*
X8642857Y-18795295D01*
X8642857Y-18795295D02*
X8642857Y-18890533D01*
X8642857Y-18890533D02*
X8595238Y-19033390D01*
X8595238Y-19033390D02*
X8023810Y-19604819D01*
X8023810Y-19604819D02*
X8642857Y-19604819D01*
X9071429Y-19604819D02*
X9071429Y-18938152D01*
X9071429Y-19033390D02*
X9119048Y-18985771D01*
X9119048Y-18985771D02*
X9214286Y-18938152D01*
X9214286Y-18938152D02*
X9357143Y-18938152D01*
X9357143Y-18938152D02*
X9452381Y-18985771D01*
X9452381Y-18985771D02*
X9500000Y-19081009D01*
X9500000Y-19081009D02*
X9500000Y-19604819D01*
X9500000Y-19081009D02*
X9547619Y-18985771D01*
X9547619Y-18985771D02*
X9642857Y-18938152D01*
X9642857Y-18938152D02*
X9785714Y-18938152D01*
X9785714Y-18938152D02*
X9880953Y-18985771D01*
X9880953Y-18985771D02*
X9928572Y-19081009D01*
X9928572Y-19081009D02*
X9928572Y-19604819D01*
X10404762Y-19604819D02*
X10404762Y-18938152D01*
X10404762Y-19033390D02*
X10452381Y-18985771D01*
X10452381Y-18985771D02*
X10547619Y-18938152D01*
X10547619Y-18938152D02*
X10690476Y-18938152D01*
X10690476Y-18938152D02*
X10785714Y-18985771D01*
X10785714Y-18985771D02*
X10833333Y-19081009D01*
X10833333Y-19081009D02*
X10833333Y-19604819D01*
X10833333Y-19081009D02*
X10880952Y-18985771D01*
X10880952Y-18985771D02*
X10976190Y-18938152D01*
X10976190Y-18938152D02*
X11119047Y-18938152D01*
X11119047Y-18938152D02*
X11214286Y-18985771D01*
X11214286Y-18985771D02*
X11261905Y-19081009D01*
X11261905Y-19081009D02*
X11261905Y-19604819D01*
X11500000Y-19700057D02*
X12261904Y-19700057D01*
X12500000Y-19604819D02*
X12500000Y-18604819D01*
X12500000Y-18604819D02*
X12833333Y-19319104D01*
X12833333Y-19319104D02*
X13166666Y-18604819D01*
X13166666Y-18604819D02*
X13166666Y-19604819D01*
X13595238Y-18700057D02*
X13642857Y-18652438D01*
X13642857Y-18652438D02*
X13738095Y-18604819D01*
X13738095Y-18604819D02*
X13976190Y-18604819D01*
X13976190Y-18604819D02*
X14071428Y-18652438D01*
X14071428Y-18652438D02*
X14119047Y-18700057D01*
X14119047Y-18700057D02*
X14166666Y-18795295D01*
X14166666Y-18795295D02*
X14166666Y-18890533D01*
X14166666Y-18890533D02*
X14119047Y-19033390D01*
X14119047Y-19033390D02*
X13547619Y-19604819D01*
X13547619Y-19604819D02*
X14166666Y-19604819D01*
X4238095Y-16454819D02*
X4238095Y-15454819D01*
X4238095Y-15931009D02*
X4809523Y-15931009D01*
X4809523Y-16454819D02*
X4809523Y-15454819D01*
X5809523Y-16454819D02*
X5238095Y-16454819D01*
X5523809Y-16454819D02*
X5523809Y-15454819D01*
X5523809Y-15454819D02*
X5428571Y-15597676D01*
X5428571Y-15597676D02*
X5333333Y-15692914D01*
X5333333Y-15692914D02*
X5238095Y-15740533D01*
D13*
X16646464Y-14206913D02*
X16684560Y-14245009D01*
X16684560Y-14245009D02*
X16722655Y-14359294D01*
X16722655Y-14359294D02*
X16722655Y-14435485D01*
X16722655Y-14435485D02*
X16684560Y-14549771D01*
X16684560Y-14549771D02*
X16608369Y-14625961D01*
X16608369Y-14625961D02*
X16532179Y-14664056D01*
X16532179Y-14664056D02*
X16379798Y-14702152D01*
X16379798Y-14702152D02*
X16265512Y-14702152D01*
X16265512Y-14702152D02*
X16113131Y-14664056D01*
X16113131Y-14664056D02*
X16036940Y-14625961D01*
X16036940Y-14625961D02*
X15960750Y-14549771D01*
X15960750Y-14549771D02*
X15922655Y-14435485D01*
X15922655Y-14435485D02*
X15922655Y-14359294D01*
X15922655Y-14359294D02*
X15960750Y-14245009D01*
X15960750Y-14245009D02*
X15998845Y-14206913D01*
X16722655Y-13864056D02*
X16189321Y-13864056D01*
X15922655Y-13864056D02*
X15960750Y-13902152D01*
X15960750Y-13902152D02*
X15998845Y-13864056D01*
X15998845Y-13864056D02*
X15960750Y-13825961D01*
X15960750Y-13825961D02*
X15922655Y-13864056D01*
X15922655Y-13864056D02*
X15998845Y-13864056D01*
X16189321Y-13483104D02*
X16722655Y-13483104D01*
X16265512Y-13483104D02*
X16227417Y-13445009D01*
X16227417Y-13445009D02*
X16189321Y-13368819D01*
X16189321Y-13368819D02*
X16189321Y-13254533D01*
X16189321Y-13254533D02*
X16227417Y-13178342D01*
X16227417Y-13178342D02*
X16303607Y-13140247D01*
X16303607Y-13140247D02*
X16722655Y-13140247D01*
X16722655Y-12340247D02*
X16722655Y-12797390D01*
X16722655Y-12568818D02*
X15922655Y-12568818D01*
X15922655Y-12568818D02*
X16036940Y-12645009D01*
X16036940Y-12645009D02*
X16113131Y-12721199D01*
X16113131Y-12721199D02*
X16151226Y-12797390D01*
D11*
X31979765Y-13310576D02*
X31991670Y-13322480D01*
X31991670Y-13322480D02*
X32003574Y-13358195D01*
X32003574Y-13358195D02*
X32003574Y-13382004D01*
X32003574Y-13382004D02*
X31991670Y-13417718D01*
X31991670Y-13417718D02*
X31967860Y-13441528D01*
X31967860Y-13441528D02*
X31944050Y-13453433D01*
X31944050Y-13453433D02*
X31896431Y-13465337D01*
X31896431Y-13465337D02*
X31860717Y-13465337D01*
X31860717Y-13465337D02*
X31813098Y-13453433D01*
X31813098Y-13453433D02*
X31789289Y-13441528D01*
X31789289Y-13441528D02*
X31765479Y-13417718D01*
X31765479Y-13417718D02*
X31753574Y-13382004D01*
X31753574Y-13382004D02*
X31753574Y-13358195D01*
X31753574Y-13358195D02*
X31765479Y-13322480D01*
X31765479Y-13322480D02*
X31777384Y-13310576D01*
X31836908Y-13239147D02*
X31836908Y-13143909D01*
X32003574Y-13203433D02*
X31789289Y-13203433D01*
X31789289Y-13203433D02*
X31765479Y-13191528D01*
X31765479Y-13191528D02*
X31753574Y-13167718D01*
X31753574Y-13167718D02*
X31753574Y-13143909D01*
X31836908Y-13096290D02*
X31836908Y-13001052D01*
X32003574Y-13060576D02*
X31789289Y-13060576D01*
X31789289Y-13060576D02*
X31765479Y-13048671D01*
X31765479Y-13048671D02*
X31753574Y-13024861D01*
X31753574Y-13024861D02*
X31753574Y-13001052D01*
D13*
X5760764Y-11835713D02*
X5798860Y-11873809D01*
X5798860Y-11873809D02*
X5836955Y-11988094D01*
X5836955Y-11988094D02*
X5836955Y-12064285D01*
X5836955Y-12064285D02*
X5798860Y-12178571D01*
X5798860Y-12178571D02*
X5722669Y-12254761D01*
X5722669Y-12254761D02*
X5646479Y-12292856D01*
X5646479Y-12292856D02*
X5494098Y-12330952D01*
X5494098Y-12330952D02*
X5379812Y-12330952D01*
X5379812Y-12330952D02*
X5227431Y-12292856D01*
X5227431Y-12292856D02*
X5151240Y-12254761D01*
X5151240Y-12254761D02*
X5075050Y-12178571D01*
X5075050Y-12178571D02*
X5036955Y-12064285D01*
X5036955Y-12064285D02*
X5036955Y-11988094D01*
X5036955Y-11988094D02*
X5075050Y-11873809D01*
X5075050Y-11873809D02*
X5113145Y-11835713D01*
X5836955Y-11492856D02*
X5303621Y-11492856D01*
X5036955Y-11492856D02*
X5075050Y-11530952D01*
X5075050Y-11530952D02*
X5113145Y-11492856D01*
X5113145Y-11492856D02*
X5075050Y-11454761D01*
X5075050Y-11454761D02*
X5036955Y-11492856D01*
X5036955Y-11492856D02*
X5113145Y-11492856D01*
X5303621Y-11111904D02*
X5836955Y-11111904D01*
X5379812Y-11111904D02*
X5341717Y-11073809D01*
X5341717Y-11073809D02*
X5303621Y-10997619D01*
X5303621Y-10997619D02*
X5303621Y-10883333D01*
X5303621Y-10883333D02*
X5341717Y-10807142D01*
X5341717Y-10807142D02*
X5417907Y-10769047D01*
X5417907Y-10769047D02*
X5836955Y-10769047D01*
X5113145Y-10426190D02*
X5075050Y-10388094D01*
X5075050Y-10388094D02*
X5036955Y-10311904D01*
X5036955Y-10311904D02*
X5036955Y-10121428D01*
X5036955Y-10121428D02*
X5075050Y-10045237D01*
X5075050Y-10045237D02*
X5113145Y-10007142D01*
X5113145Y-10007142D02*
X5189336Y-9969047D01*
X5189336Y-9969047D02*
X5265526Y-9969047D01*
X5265526Y-9969047D02*
X5379812Y-10007142D01*
X5379812Y-10007142D02*
X5836955Y-10464285D01*
X5836955Y-10464285D02*
X5836955Y-9969047D01*
X9114285Y-6214164D02*
X9076189Y-6252260D01*
X9076189Y-6252260D02*
X8961904Y-6290355D01*
X8961904Y-6290355D02*
X8885713Y-6290355D01*
X8885713Y-6290355D02*
X8771427Y-6252260D01*
X8771427Y-6252260D02*
X8695237Y-6176069D01*
X8695237Y-6176069D02*
X8657142Y-6099879D01*
X8657142Y-6099879D02*
X8619046Y-5947498D01*
X8619046Y-5947498D02*
X8619046Y-5833212D01*
X8619046Y-5833212D02*
X8657142Y-5680831D01*
X8657142Y-5680831D02*
X8695237Y-5604640D01*
X8695237Y-5604640D02*
X8771427Y-5528450D01*
X8771427Y-5528450D02*
X8885713Y-5490355D01*
X8885713Y-5490355D02*
X8961904Y-5490355D01*
X8961904Y-5490355D02*
X9076189Y-5528450D01*
X9076189Y-5528450D02*
X9114285Y-5566545D01*
X9571427Y-6290355D02*
X9495237Y-6252260D01*
X9495237Y-6252260D02*
X9457142Y-6214164D01*
X9457142Y-6214164D02*
X9419046Y-6137974D01*
X9419046Y-6137974D02*
X9419046Y-5909402D01*
X9419046Y-5909402D02*
X9457142Y-5833212D01*
X9457142Y-5833212D02*
X9495237Y-5795117D01*
X9495237Y-5795117D02*
X9571427Y-5757021D01*
X9571427Y-5757021D02*
X9685713Y-5757021D01*
X9685713Y-5757021D02*
X9761904Y-5795117D01*
X9761904Y-5795117D02*
X9799999Y-5833212D01*
X9799999Y-5833212D02*
X9838094Y-5909402D01*
X9838094Y-5909402D02*
X9838094Y-6137974D01*
X9838094Y-6137974D02*
X9799999Y-6214164D01*
X9799999Y-6214164D02*
X9761904Y-6252260D01*
X9761904Y-6252260D02*
X9685713Y-6290355D01*
X9685713Y-6290355D02*
X9571427Y-6290355D01*
X10523809Y-5757021D02*
X10523809Y-6290355D01*
X10180952Y-5757021D02*
X10180952Y-6176069D01*
X10180952Y-6176069D02*
X10219047Y-6252260D01*
X10219047Y-6252260D02*
X10295237Y-6290355D01*
X10295237Y-6290355D02*
X10409523Y-6290355D01*
X10409523Y-6290355D02*
X10485714Y-6252260D01*
X10485714Y-6252260D02*
X10523809Y-6214164D01*
X10790476Y-5757021D02*
X11095238Y-5757021D01*
X10904762Y-5490355D02*
X10904762Y-6176069D01*
X10904762Y-6176069D02*
X10942857Y-6252260D01*
X10942857Y-6252260D02*
X11019047Y-6290355D01*
X11019047Y-6290355D02*
X11095238Y-6290355D01*
X11780952Y-6290355D02*
X11323809Y-6290355D01*
X11552381Y-6290355D02*
X11552381Y-5490355D01*
X11552381Y-5490355D02*
X11476190Y-5604640D01*
X11476190Y-5604640D02*
X11400000Y-5680831D01*
X11400000Y-5680831D02*
X11323809Y-5718926D01*
D14*
X28989649Y-9420733D02*
X28751554Y-9587399D01*
X28989649Y-9706447D02*
X28489649Y-9706447D01*
X28489649Y-9706447D02*
X28489649Y-9515971D01*
X28489649Y-9515971D02*
X28513459Y-9468352D01*
X28513459Y-9468352D02*
X28537268Y-9444542D01*
X28537268Y-9444542D02*
X28584887Y-9420733D01*
X28584887Y-9420733D02*
X28656316Y-9420733D01*
X28656316Y-9420733D02*
X28703935Y-9444542D01*
X28703935Y-9444542D02*
X28727744Y-9468352D01*
X28727744Y-9468352D02*
X28751554Y-9515971D01*
X28751554Y-9515971D02*
X28751554Y-9706447D01*
X28989649Y-8944542D02*
X28989649Y-9230256D01*
X28989649Y-9087399D02*
X28489649Y-9087399D01*
X28489649Y-9087399D02*
X28561078Y-9135018D01*
X28561078Y-9135018D02*
X28608697Y-9182637D01*
X28608697Y-9182637D02*
X28632506Y-9230256D01*
D11*
X13792465Y-4021233D02*
X13804370Y-4033137D01*
X13804370Y-4033137D02*
X13816274Y-4068852D01*
X13816274Y-4068852D02*
X13816274Y-4092661D01*
X13816274Y-4092661D02*
X13804370Y-4128375D01*
X13804370Y-4128375D02*
X13780560Y-4152185D01*
X13780560Y-4152185D02*
X13756750Y-4164090D01*
X13756750Y-4164090D02*
X13709131Y-4175994D01*
X13709131Y-4175994D02*
X13673417Y-4175994D01*
X13673417Y-4175994D02*
X13625798Y-4164090D01*
X13625798Y-4164090D02*
X13601989Y-4152185D01*
X13601989Y-4152185D02*
X13578179Y-4128375D01*
X13578179Y-4128375D02*
X13566274Y-4092661D01*
X13566274Y-4092661D02*
X13566274Y-4068852D01*
X13566274Y-4068852D02*
X13578179Y-4033137D01*
X13578179Y-4033137D02*
X13590084Y-4021233D01*
X13816274Y-3914090D02*
X13566274Y-3914090D01*
X13661512Y-3914090D02*
X13649608Y-3890280D01*
X13649608Y-3890280D02*
X13649608Y-3842661D01*
X13649608Y-3842661D02*
X13661512Y-3818852D01*
X13661512Y-3818852D02*
X13673417Y-3806947D01*
X13673417Y-3806947D02*
X13697227Y-3795042D01*
X13697227Y-3795042D02*
X13768655Y-3795042D01*
X13768655Y-3795042D02*
X13792465Y-3806947D01*
X13792465Y-3806947D02*
X13804370Y-3818852D01*
X13804370Y-3818852D02*
X13816274Y-3842661D01*
X13816274Y-3842661D02*
X13816274Y-3890280D01*
X13816274Y-3890280D02*
X13804370Y-3914090D01*
X13804370Y-3699804D02*
X13816274Y-3675995D01*
X13816274Y-3675995D02*
X13816274Y-3628376D01*
X13816274Y-3628376D02*
X13804370Y-3604566D01*
X13804370Y-3604566D02*
X13780560Y-3592662D01*
X13780560Y-3592662D02*
X13768655Y-3592662D01*
X13768655Y-3592662D02*
X13744846Y-3604566D01*
X13744846Y-3604566D02*
X13732941Y-3628376D01*
X13732941Y-3628376D02*
X13732941Y-3664090D01*
X13732941Y-3664090D02*
X13721036Y-3687900D01*
X13721036Y-3687900D02*
X13697227Y-3699804D01*
X13697227Y-3699804D02*
X13685322Y-3699804D01*
X13685322Y-3699804D02*
X13661512Y-3687900D01*
X13661512Y-3687900D02*
X13649608Y-3664090D01*
X13649608Y-3664090D02*
X13649608Y-3628376D01*
X13649608Y-3628376D02*
X13661512Y-3604566D01*
X13649608Y-3521233D02*
X13649608Y-3425995D01*
X13566274Y-3485519D02*
X13780560Y-3485519D01*
X13780560Y-3485519D02*
X13804370Y-3473614D01*
X13804370Y-3473614D02*
X13816274Y-3449804D01*
X13816274Y-3449804D02*
X13816274Y-3425995D01*
D13*
X10703885Y-15838464D02*
X10665789Y-15876560D01*
X10665789Y-15876560D02*
X10551504Y-15914655D01*
X10551504Y-15914655D02*
X10475313Y-15914655D01*
X10475313Y-15914655D02*
X10361027Y-15876560D01*
X10361027Y-15876560D02*
X10284837Y-15800369D01*
X10284837Y-15800369D02*
X10246742Y-15724179D01*
X10246742Y-15724179D02*
X10208646Y-15571798D01*
X10208646Y-15571798D02*
X10208646Y-15457512D01*
X10208646Y-15457512D02*
X10246742Y-15305131D01*
X10246742Y-15305131D02*
X10284837Y-15228940D01*
X10284837Y-15228940D02*
X10361027Y-15152750D01*
X10361027Y-15152750D02*
X10475313Y-15114655D01*
X10475313Y-15114655D02*
X10551504Y-15114655D01*
X10551504Y-15114655D02*
X10665789Y-15152750D01*
X10665789Y-15152750D02*
X10703885Y-15190845D01*
X11161027Y-15914655D02*
X11084837Y-15876560D01*
X11084837Y-15876560D02*
X11046742Y-15838464D01*
X11046742Y-15838464D02*
X11008646Y-15762274D01*
X11008646Y-15762274D02*
X11008646Y-15533702D01*
X11008646Y-15533702D02*
X11046742Y-15457512D01*
X11046742Y-15457512D02*
X11084837Y-15419417D01*
X11084837Y-15419417D02*
X11161027Y-15381321D01*
X11161027Y-15381321D02*
X11275313Y-15381321D01*
X11275313Y-15381321D02*
X11351504Y-15419417D01*
X11351504Y-15419417D02*
X11389599Y-15457512D01*
X11389599Y-15457512D02*
X11427694Y-15533702D01*
X11427694Y-15533702D02*
X11427694Y-15762274D01*
X11427694Y-15762274D02*
X11389599Y-15838464D01*
X11389599Y-15838464D02*
X11351504Y-15876560D01*
X11351504Y-15876560D02*
X11275313Y-15914655D01*
X11275313Y-15914655D02*
X11161027Y-15914655D01*
X12113409Y-15381321D02*
X12113409Y-15914655D01*
X11770552Y-15381321D02*
X11770552Y-15800369D01*
X11770552Y-15800369D02*
X11808647Y-15876560D01*
X11808647Y-15876560D02*
X11884837Y-15914655D01*
X11884837Y-15914655D02*
X11999123Y-15914655D01*
X11999123Y-15914655D02*
X12075314Y-15876560D01*
X12075314Y-15876560D02*
X12113409Y-15838464D01*
X12380076Y-15381321D02*
X12684838Y-15381321D01*
X12494362Y-15114655D02*
X12494362Y-15800369D01*
X12494362Y-15800369D02*
X12532457Y-15876560D01*
X12532457Y-15876560D02*
X12608647Y-15914655D01*
X12608647Y-15914655D02*
X12684838Y-15914655D01*
X12913409Y-15190845D02*
X12951505Y-15152750D01*
X12951505Y-15152750D02*
X13027695Y-15114655D01*
X13027695Y-15114655D02*
X13218171Y-15114655D01*
X13218171Y-15114655D02*
X13294362Y-15152750D01*
X13294362Y-15152750D02*
X13332457Y-15190845D01*
X13332457Y-15190845D02*
X13370552Y-15267036D01*
X13370552Y-15267036D02*
X13370552Y-15343226D01*
X13370552Y-15343226D02*
X13332457Y-15457512D01*
X13332457Y-15457512D02*
X12875314Y-15914655D01*
X12875314Y-15914655D02*
X13370552Y-15914655D01*
D11*
X38238200Y-16030642D02*
X38114391Y-16117309D01*
X38238200Y-16179214D02*
X37978200Y-16179214D01*
X37978200Y-16179214D02*
X37978200Y-16080166D01*
X37978200Y-16080166D02*
X37990581Y-16055404D01*
X37990581Y-16055404D02*
X38002962Y-16043023D01*
X38002962Y-16043023D02*
X38027724Y-16030642D01*
X38027724Y-16030642D02*
X38064867Y-16030642D01*
X38064867Y-16030642D02*
X38089629Y-16043023D01*
X38089629Y-16043023D02*
X38102010Y-16055404D01*
X38102010Y-16055404D02*
X38114391Y-16080166D01*
X38114391Y-16080166D02*
X38114391Y-16179214D01*
X38102010Y-15919214D02*
X38102010Y-15832547D01*
X38238200Y-15795404D02*
X38238200Y-15919214D01*
X38238200Y-15919214D02*
X37978200Y-15919214D01*
X37978200Y-15919214D02*
X37978200Y-15795404D01*
X38238200Y-15683976D02*
X37978200Y-15683976D01*
X37978200Y-15683976D02*
X38238200Y-15535404D01*
X38238200Y-15535404D02*
X37978200Y-15535404D01*
X38002962Y-15423976D02*
X37990581Y-15411595D01*
X37990581Y-15411595D02*
X37978200Y-15386833D01*
X37978200Y-15386833D02*
X37978200Y-15324928D01*
X37978200Y-15324928D02*
X37990581Y-15300166D01*
X37990581Y-15300166D02*
X38002962Y-15287785D01*
X38002962Y-15287785D02*
X38027724Y-15275404D01*
X38027724Y-15275404D02*
X38052486Y-15275404D01*
X38052486Y-15275404D02*
X38089629Y-15287785D01*
X38089629Y-15287785D02*
X38238200Y-15436357D01*
X38238200Y-15436357D02*
X38238200Y-15275404D01*
D10*
X3367305Y-5404819D02*
X3367305Y-4404819D01*
X3367305Y-4404819D02*
X3605400Y-4404819D01*
X3605400Y-4404819D02*
X3748257Y-4452438D01*
X3748257Y-4452438D02*
X3843495Y-4547676D01*
X3843495Y-4547676D02*
X3891114Y-4642914D01*
X3891114Y-4642914D02*
X3938733Y-4833390D01*
X3938733Y-4833390D02*
X3938733Y-4976247D01*
X3938733Y-4976247D02*
X3891114Y-5166723D01*
X3891114Y-5166723D02*
X3843495Y-5261961D01*
X3843495Y-5261961D02*
X3748257Y-5357200D01*
X3748257Y-5357200D02*
X3605400Y-5404819D01*
X3605400Y-5404819D02*
X3367305Y-5404819D01*
X4891114Y-5404819D02*
X4319686Y-5404819D01*
X4605400Y-5404819D02*
X4605400Y-4404819D01*
X4605400Y-4404819D02*
X4510162Y-4547676D01*
X4510162Y-4547676D02*
X4414924Y-4642914D01*
X4414924Y-4642914D02*
X4319686Y-4690533D01*
D11*
X15120714Y-7142565D02*
X15108810Y-7154470D01*
X15108810Y-7154470D02*
X15073095Y-7166374D01*
X15073095Y-7166374D02*
X15049286Y-7166374D01*
X15049286Y-7166374D02*
X15013572Y-7154470D01*
X15013572Y-7154470D02*
X14989762Y-7130660D01*
X14989762Y-7130660D02*
X14977857Y-7106850D01*
X14977857Y-7106850D02*
X14965953Y-7059231D01*
X14965953Y-7059231D02*
X14965953Y-7023517D01*
X14965953Y-7023517D02*
X14977857Y-6975898D01*
X14977857Y-6975898D02*
X14989762Y-6952089D01*
X14989762Y-6952089D02*
X15013572Y-6928279D01*
X15013572Y-6928279D02*
X15049286Y-6916374D01*
X15049286Y-6916374D02*
X15073095Y-6916374D01*
X15073095Y-6916374D02*
X15108810Y-6928279D01*
X15108810Y-6928279D02*
X15120714Y-6940184D01*
X15263572Y-7166374D02*
X15239762Y-7154470D01*
X15239762Y-7154470D02*
X15227857Y-7142565D01*
X15227857Y-7142565D02*
X15215953Y-7118755D01*
X15215953Y-7118755D02*
X15215953Y-7047327D01*
X15215953Y-7047327D02*
X15227857Y-7023517D01*
X15227857Y-7023517D02*
X15239762Y-7011612D01*
X15239762Y-7011612D02*
X15263572Y-6999708D01*
X15263572Y-6999708D02*
X15299286Y-6999708D01*
X15299286Y-6999708D02*
X15323095Y-7011612D01*
X15323095Y-7011612D02*
X15335000Y-7023517D01*
X15335000Y-7023517D02*
X15346905Y-7047327D01*
X15346905Y-7047327D02*
X15346905Y-7118755D01*
X15346905Y-7118755D02*
X15335000Y-7142565D01*
X15335000Y-7142565D02*
X15323095Y-7154470D01*
X15323095Y-7154470D02*
X15299286Y-7166374D01*
X15299286Y-7166374D02*
X15263572Y-7166374D01*
X15561190Y-6999708D02*
X15561190Y-7166374D01*
X15454047Y-6999708D02*
X15454047Y-7130660D01*
X15454047Y-7130660D02*
X15465952Y-7154470D01*
X15465952Y-7154470D02*
X15489762Y-7166374D01*
X15489762Y-7166374D02*
X15525476Y-7166374D01*
X15525476Y-7166374D02*
X15549285Y-7154470D01*
X15549285Y-7154470D02*
X15561190Y-7142565D01*
X15644523Y-6999708D02*
X15739761Y-6999708D01*
X15680237Y-6916374D02*
X15680237Y-7130660D01*
X15680237Y-7130660D02*
X15692142Y-7154470D01*
X15692142Y-7154470D02*
X15715952Y-7166374D01*
X15715952Y-7166374D02*
X15739761Y-7166374D01*
X15799285Y-6916374D02*
X15954047Y-6916374D01*
X15954047Y-6916374D02*
X15870713Y-7011612D01*
X15870713Y-7011612D02*
X15906428Y-7011612D01*
X15906428Y-7011612D02*
X15930237Y-7023517D01*
X15930237Y-7023517D02*
X15942142Y-7035422D01*
X15942142Y-7035422D02*
X15954047Y-7059231D01*
X15954047Y-7059231D02*
X15954047Y-7118755D01*
X15954047Y-7118755D02*
X15942142Y-7142565D01*
X15942142Y-7142565D02*
X15930237Y-7154470D01*
X15930237Y-7154470D02*
X15906428Y-7166374D01*
X15906428Y-7166374D02*
X15834999Y-7166374D01*
X15834999Y-7166374D02*
X15811190Y-7154470D01*
X15811190Y-7154470D02*
X15799285Y-7142565D01*
X10712000Y-18265561D02*
X10588191Y-18352228D01*
X10712000Y-18414133D02*
X10452000Y-18414133D01*
X10452000Y-18414133D02*
X10452000Y-18315085D01*
X10452000Y-18315085D02*
X10464381Y-18290323D01*
X10464381Y-18290323D02*
X10476762Y-18277942D01*
X10476762Y-18277942D02*
X10501524Y-18265561D01*
X10501524Y-18265561D02*
X10538667Y-18265561D01*
X10538667Y-18265561D02*
X10563429Y-18277942D01*
X10563429Y-18277942D02*
X10575810Y-18290323D01*
X10575810Y-18290323D02*
X10588191Y-18315085D01*
X10588191Y-18315085D02*
X10588191Y-18414133D01*
X10575810Y-18067466D02*
X10575810Y-18154133D01*
X10712000Y-18154133D02*
X10452000Y-18154133D01*
X10452000Y-18154133D02*
X10452000Y-18030323D01*
X10575810Y-17844609D02*
X10588191Y-17807466D01*
X10588191Y-17807466D02*
X10600572Y-17795085D01*
X10600572Y-17795085D02*
X10625334Y-17782704D01*
X10625334Y-17782704D02*
X10662477Y-17782704D01*
X10662477Y-17782704D02*
X10687239Y-17795085D01*
X10687239Y-17795085D02*
X10699620Y-17807466D01*
X10699620Y-17807466D02*
X10712000Y-17832228D01*
X10712000Y-17832228D02*
X10712000Y-17931276D01*
X10712000Y-17931276D02*
X10452000Y-17931276D01*
X10452000Y-17931276D02*
X10452000Y-17844609D01*
X10452000Y-17844609D02*
X10464381Y-17819847D01*
X10464381Y-17819847D02*
X10476762Y-17807466D01*
X10476762Y-17807466D02*
X10501524Y-17795085D01*
X10501524Y-17795085D02*
X10526286Y-17795085D01*
X10526286Y-17795085D02*
X10551048Y-17807466D01*
X10551048Y-17807466D02*
X10563429Y-17819847D01*
X10563429Y-17819847D02*
X10575810Y-17844609D01*
X10575810Y-17844609D02*
X10575810Y-17931276D01*
X10476762Y-17683657D02*
X10464381Y-17671276D01*
X10464381Y-17671276D02*
X10452000Y-17646514D01*
X10452000Y-17646514D02*
X10452000Y-17584609D01*
X10452000Y-17584609D02*
X10464381Y-17559847D01*
X10464381Y-17559847D02*
X10476762Y-17547466D01*
X10476762Y-17547466D02*
X10501524Y-17535085D01*
X10501524Y-17535085D02*
X10526286Y-17535085D01*
X10526286Y-17535085D02*
X10563429Y-17547466D01*
X10563429Y-17547466D02*
X10712000Y-17696038D01*
X10712000Y-17696038D02*
X10712000Y-17535085D01*
D10*
X32754819Y-7151833D02*
X33469104Y-7151833D01*
X33469104Y-7151833D02*
X33611961Y-7199452D01*
X33611961Y-7199452D02*
X33707200Y-7294690D01*
X33707200Y-7294690D02*
X33754819Y-7437547D01*
X33754819Y-7437547D02*
X33754819Y-7532785D01*
X33754819Y-6151833D02*
X33754819Y-6723261D01*
X33754819Y-6437547D02*
X32754819Y-6437547D01*
X32754819Y-6437547D02*
X32897676Y-6532785D01*
X32897676Y-6532785D02*
X32992914Y-6628023D01*
X32992914Y-6628023D02*
X33040533Y-6723261D01*
D14*
X10308649Y-2934833D02*
X10070554Y-3101499D01*
X10308649Y-3220547D02*
X9808649Y-3220547D01*
X9808649Y-3220547D02*
X9808649Y-3030071D01*
X9808649Y-3030071D02*
X9832459Y-2982452D01*
X9832459Y-2982452D02*
X9856268Y-2958642D01*
X9856268Y-2958642D02*
X9903887Y-2934833D01*
X9903887Y-2934833D02*
X9975316Y-2934833D01*
X9975316Y-2934833D02*
X10022935Y-2958642D01*
X10022935Y-2958642D02*
X10046744Y-2982452D01*
X10046744Y-2982452D02*
X10070554Y-3030071D01*
X10070554Y-3030071D02*
X10070554Y-3220547D01*
X9856268Y-2744356D02*
X9832459Y-2720547D01*
X9832459Y-2720547D02*
X9808649Y-2672928D01*
X9808649Y-2672928D02*
X9808649Y-2553880D01*
X9808649Y-2553880D02*
X9832459Y-2506261D01*
X9832459Y-2506261D02*
X9856268Y-2482452D01*
X9856268Y-2482452D02*
X9903887Y-2458642D01*
X9903887Y-2458642D02*
X9951506Y-2458642D01*
X9951506Y-2458642D02*
X10022935Y-2482452D01*
X10022935Y-2482452D02*
X10308649Y-2768166D01*
X10308649Y-2768166D02*
X10308649Y-2458642D01*
D12*
X13618832Y-7581766D02*
X13637880Y-7600814D01*
X13637880Y-7600814D02*
X13656927Y-7657956D01*
X13656927Y-7657956D02*
X13656927Y-7696052D01*
X13656927Y-7696052D02*
X13637880Y-7753195D01*
X13637880Y-7753195D02*
X13599784Y-7791290D01*
X13599784Y-7791290D02*
X13561689Y-7810337D01*
X13561689Y-7810337D02*
X13485499Y-7829385D01*
X13485499Y-7829385D02*
X13428356Y-7829385D01*
X13428356Y-7829385D02*
X13352165Y-7810337D01*
X13352165Y-7810337D02*
X13314070Y-7791290D01*
X13314070Y-7791290D02*
X13275975Y-7753195D01*
X13275975Y-7753195D02*
X13256927Y-7696052D01*
X13256927Y-7696052D02*
X13256927Y-7657956D01*
X13256927Y-7657956D02*
X13275975Y-7600814D01*
X13275975Y-7600814D02*
X13295022Y-7581766D01*
X13656927Y-7200814D02*
X13656927Y-7429385D01*
X13656927Y-7315099D02*
X13256927Y-7315099D01*
X13256927Y-7315099D02*
X13314070Y-7353195D01*
X13314070Y-7353195D02*
X13352165Y-7391290D01*
X13352165Y-7391290D02*
X13371213Y-7429385D01*
%TO.C,L1*%
D15*
X18444400Y-8168500D02*
X18444400Y-11068500D01*
X18444400Y-17668500D02*
X18444400Y-20568500D01*
X18444400Y-20568500D02*
X30844400Y-20568500D01*
X19544400Y-10368500D02*
X19644400Y-10868500D01*
X19544400Y-18468500D02*
X19644400Y-17968500D01*
X19644400Y-10868500D02*
X19844400Y-11168500D01*
X19644400Y-17968500D02*
X19844400Y-17568500D01*
X19744400Y-9868500D02*
X19544400Y-10368500D01*
X19744400Y-18968500D02*
X19544400Y-18468500D01*
X20044400Y-9568500D02*
X19744400Y-9868500D01*
X20044400Y-19168500D02*
X19744400Y-18968500D01*
X20344400Y-19368500D02*
X20044400Y-19168500D01*
X20444400Y-9368500D02*
X20044400Y-9568500D01*
X20744400Y-19468500D02*
X20344400Y-19368500D01*
X20944400Y-9268500D02*
X20444400Y-9368500D01*
X21344400Y-9468500D02*
X20944400Y-9268500D01*
X21344400Y-19268500D02*
X20744400Y-19468500D01*
X21644400Y-9668500D02*
X21344400Y-9468500D01*
X21644400Y-19068500D02*
X21344400Y-19268500D01*
X22044400Y-9468500D02*
X21644400Y-9668500D01*
X22044400Y-19268500D02*
X21644400Y-19068500D01*
X22544400Y-19468500D02*
X22044400Y-19268500D01*
X22944400Y-9068500D02*
X22044400Y-9468500D01*
X23144400Y-19668500D02*
X22544400Y-19468500D01*
X23844400Y-8868500D02*
X22944400Y-9068500D01*
X24044400Y-19868500D02*
X23144400Y-19668500D01*
X24644400Y-8768500D02*
X23844400Y-8868500D01*
X25244400Y-19868500D02*
X24044400Y-19868500D01*
X25544400Y-8868500D02*
X24644400Y-8768500D01*
X26244400Y-19668500D02*
X25244400Y-19868500D01*
X26344400Y-9068500D02*
X25544400Y-8868500D01*
X26844400Y-9268500D02*
X26344400Y-9068500D01*
X27044400Y-19368500D02*
X26244400Y-19668500D01*
X27244400Y-9468500D02*
X26844400Y-9268500D01*
X27644400Y-9768500D02*
X27244400Y-9468500D01*
X27644400Y-18968500D02*
X27044400Y-19368500D01*
X27744400Y-19068500D02*
X27644400Y-18968500D01*
X27944400Y-9468500D02*
X27644400Y-9768500D01*
X28144400Y-19368500D02*
X27744400Y-19068500D01*
X28244400Y-9368500D02*
X27944400Y-9468500D01*
X28544400Y-9268500D02*
X28244400Y-9368500D01*
X28644400Y-19468500D02*
X28144400Y-19368500D01*
X28844400Y-9268500D02*
X28544400Y-9268500D01*
X29144400Y-9468500D02*
X28844400Y-9268500D01*
X29144400Y-19368500D02*
X28644400Y-19468500D01*
X29444400Y-9668500D02*
X29144400Y-9468500D01*
X29444400Y-18968500D02*
X29144400Y-19368500D01*
X29544400Y-11068500D02*
X29644400Y-10768500D01*
X29544400Y-17668500D02*
X29644400Y-17768500D01*
X29644400Y-10068500D02*
X29444400Y-9668500D01*
X29644400Y-10768500D02*
X29744400Y-10368500D01*
X29644400Y-17768500D02*
X29744400Y-18168500D01*
X29644400Y-18668500D02*
X29444400Y-18968500D01*
X29744400Y-10368500D02*
X29644400Y-10068500D01*
X29744400Y-18168500D02*
X29644400Y-18668500D01*
X30844400Y-8168500D02*
X18444400Y-8168500D01*
X30844400Y-8168500D02*
X30844400Y-11068500D01*
X30844400Y-20568500D02*
X30844400Y-17668500D01*
X22934912Y-17368500D02*
G75*
G02*
X22153888Y-17368500I-390512J0D01*
G01*
X22153888Y-17368500D02*
G75*
G02*
X22934912Y-17368500I390512J0D01*
G01*
%TO.C,J2*%
X17262500Y-2000000D02*
X17262500Y-9600000D01*
X17262500Y-2000000D02*
X18062500Y-2000000D01*
X17262500Y-9600000D02*
X27162500Y-9600000D01*
X18062500Y-2000000D02*
X18062500Y-3600000D01*
X18062500Y-3600000D02*
X26362500Y-3600000D01*
X19712500Y-3600000D02*
X20212500Y-4307107D01*
X20212500Y-4307107D02*
X20712500Y-3600000D01*
X26362500Y-2000000D02*
X27162500Y-2000000D01*
X26362500Y-3600000D02*
X26362500Y-2000000D01*
X27162500Y-2000000D02*
X27162500Y-9600000D01*
%TO.C,U1*%
X12225000Y-14145800D02*
X9300000Y-14145800D01*
X9300000Y-9245800D01*
X13200000Y-9245800D01*
X13200000Y-13170800D01*
X12225000Y-14145800D01*
%TO.C,RFB1*%
X30767500Y-18073500D02*
X31307500Y-18073500D01*
X31307500Y-19123500D01*
X30767500Y-19123500D01*
X30767500Y-18073500D01*
%TO.C,D2*%
X1700000Y-6650000D02*
X1700000Y-2650000D01*
X3350560Y-3850920D02*
X3350560Y-5451120D01*
X3350560Y-4651020D02*
X2448860Y-4651020D01*
X3350560Y-4651020D02*
X4501180Y-3850920D01*
X3350560Y-4651020D02*
X4501180Y-5400320D01*
X4501180Y-4651020D02*
X5499400Y-4651020D01*
X4501180Y-5400320D02*
X4501180Y-3850920D01*
X6300000Y-2650000D02*
X1700000Y-2650000D01*
X6300000Y-2650000D02*
X6300000Y-6650000D01*
X6300000Y-6650000D02*
X1700000Y-6650000D01*
%TO.C,Cin3*%
X15500000Y-8537800D02*
X16300000Y-8537800D01*
X16300000Y-10137800D01*
X15500000Y-10137800D01*
X15500000Y-8537800D01*
%TO.C,REN1*%
X11831700Y-1613700D02*
X12371700Y-1613700D01*
X12371700Y-2663700D01*
X11831700Y-2663700D01*
X11831700Y-1613700D01*
%TO.C,Cin1*%
X15108800Y-11921200D02*
X17608800Y-11921200D01*
X17608800Y-15121200D01*
X15108800Y-15121200D01*
X15108800Y-11921200D01*
%TO.C,Cff*%
X31640000Y-12745100D02*
X32140000Y-12745100D01*
X32140000Y-13745100D01*
X31640000Y-13745100D01*
X31640000Y-12745100D01*
%TO.C,Cin2*%
X4223100Y-9550000D02*
X6723100Y-9550000D01*
X6723100Y-12750000D01*
X4223100Y-12750000D01*
X4223100Y-9550000D01*
%TO.C,Cout1*%
X8600000Y-5126500D02*
X11800000Y-5126500D01*
X11800000Y-6726500D01*
X8600000Y-6726500D01*
X8600000Y-5126500D01*
%TO.C,R1*%
X28137500Y-8337400D02*
X29387500Y-8337400D01*
X29387500Y-10337400D01*
X28137500Y-10337400D01*
X28137500Y-8337400D01*
%TO.C,Cbst*%
X13452700Y-3312900D02*
X13952700Y-3312900D01*
X13952700Y-4312900D01*
X13452700Y-4312900D01*
X13452700Y-3312900D01*
%TO.C,Cout2*%
X10189600Y-14750800D02*
X13389600Y-14750800D01*
X13389600Y-16350800D01*
X10189600Y-16350800D01*
X10189600Y-14750800D01*
%TO.C,REN2*%
X37850000Y-15208500D02*
X38390000Y-15208500D01*
X38390000Y-16258500D01*
X37850000Y-16258500D01*
X37850000Y-15208500D01*
%TO.C,D1*%
X1805400Y-8950000D02*
X1805400Y-5950000D01*
X3455960Y-6650920D02*
X3455960Y-8251120D01*
X3455960Y-7451020D02*
X2554260Y-7451020D01*
X3455960Y-7451020D02*
X4606580Y-6650920D01*
X3455960Y-7451020D02*
X4606580Y-8200320D01*
X4606580Y-7451020D02*
X5604800Y-7451020D01*
X4606580Y-8200320D02*
X4606580Y-6650920D01*
X6405400Y-5950000D02*
X1805400Y-5950000D01*
X6405400Y-5950000D02*
X6405400Y-8950000D01*
X6405400Y-8950000D02*
X1805400Y-8950000D01*
%TO.C,Cout3*%
X14960000Y-6802800D02*
X15960000Y-6802800D01*
X15960000Y-7302800D01*
X14960000Y-7302800D01*
X14960000Y-6802800D01*
%TO.C,RFB2*%
X10323800Y-17455800D02*
X10863800Y-17455800D01*
X10863800Y-18505800D01*
X10323800Y-18505800D01*
X10323800Y-17455800D01*
%TO.C,J1*%
X30400000Y-2868500D02*
X30400000Y-10768500D01*
X35692893Y-5818500D02*
X36400000Y-6318500D01*
X36400000Y-3668500D02*
X36400000Y-9968500D01*
X36400000Y-5318500D02*
X35692893Y-5818500D01*
X36400000Y-9968500D02*
X38000000Y-9968500D01*
X38000000Y-2868500D02*
X30400000Y-2868500D01*
X38000000Y-2868500D02*
X38000000Y-3668500D01*
X38000000Y-3668500D02*
X36400000Y-3668500D01*
X38000000Y-9968500D02*
X38000000Y-10768500D01*
X38000000Y-10768500D02*
X30400000Y-10768500D01*
%TO.C,R2*%
X9456500Y-1851500D02*
X10706500Y-1851500D01*
X10706500Y-3851500D01*
X9456500Y-3851500D01*
X9456500Y-1851500D01*
%TO.C,C1*%
X13075000Y-6715100D02*
X13875000Y-6715100D01*
X13875000Y-8315100D01*
X13075000Y-8315100D01*
X13075000Y-6715100D01*
%TD*%
M02*
