%TF.GenerationSoftware,KiCad,Pcbnew,10.0.3*%
%TF.CreationDate,2026-06-21T07:04:33-07:00*%
%TF.ProjectId,brickdup_psu,62726963-6b64-4757-905f-7073752e6b69,rev?*%
%TF.SameCoordinates,Original*%
%TF.FileFunction,Copper,L2,Bot*%
%TF.FilePolarity,Positive*%
%FSLAX46Y46*%
G04 Gerber Fmt 4.6, Leading zero omitted, Abs format (unit mm)*
G04 Created by KiCad (PCBNEW 10.0.3) date 2026-06-21 07:04:33*
%MOMM*%
%LPD*%
G01*
G04 APERTURE LIST*
%TA.AperFunction,ViaPad*%
%ADD10C,0.600000*%
%TD*%
%TA.AperFunction,Conductor*%
%ADD11C,0.200000*%
%TD*%
G04 APERTURE END LIST*
D10*
%TO.N,GND*%
X10988500Y-12595400D03*
X5937000Y-15896200D03*
%TO.N,VBAT*%
X9454700Y-15970500D03*
X16921700Y-13098000D03*
%TO.N,SENSE*%
X18270900Y-10245700D03*
X7617600Y-4227600D03*
X8910700Y-14160700D03*
%TO.N,SW*%
X21755900Y-6533200D03*
X22155800Y-10826700D03*
X24265000Y-1189200D03*
%TO.N,DIM*%
X20705100Y-2248100D03*
X12737800Y-14776400D03*
%TO.N,+5V*%
X24307800Y-18313100D03*
X8889200Y-1397600D03*
X20659800Y-4489400D03*
%TD*%
%TO.N,GND*%
D11*
X8034100Y-15896200D02*
X5937000Y-15896200D01*
X10988500Y-12941800D02*
X8034100Y-15896200D01*
X10988500Y-12595400D02*
X10988500Y-12941800D01*
%TO.N,VBAT*%
X14049200Y-15970500D02*
X9454700Y-15970500D01*
X16921700Y-13098000D02*
X14049200Y-15970500D01*
%TO.N,SENSE*%
X8910700Y-10245700D02*
X8910700Y-14160700D01*
X7617600Y-4227600D02*
X8910700Y-5520700D01*
X8910700Y-5520700D02*
X8910700Y-10245700D01*
X18270900Y-10245700D02*
X8910700Y-10245700D01*
%TO.N,SW*%
X24265000Y-1189200D02*
X24265000Y-4024100D01*
X24265000Y-4024100D02*
X21755900Y-6533200D01*
X21755900Y-6533200D02*
X21755900Y-10426800D01*
X21755900Y-10426800D02*
X22155800Y-10826700D01*
%TO.N,DIM*%
X15817400Y-11696800D02*
X12737800Y-14776400D01*
X19682800Y-3270400D02*
X19682800Y-9767100D01*
X17753100Y-11696800D02*
X15817400Y-11696800D01*
X19682800Y-9767100D02*
X17753100Y-11696800D01*
X20705100Y-2248100D02*
X19682800Y-3270400D01*
%TO.N,+5V*%
X21341900Y-1942600D02*
X20796900Y-1397600D01*
X20659800Y-4489400D02*
X21341900Y-3807300D01*
X20796900Y-1397600D02*
X8889200Y-1397600D01*
X21341900Y-3807300D02*
X21341900Y-1942600D01*
X20659800Y-14665100D02*
X24307800Y-18313100D01*
X20659800Y-4489400D02*
X20659800Y-14665100D01*
%TD*%
%TA.AperFunction,Conductor*%
%TO.N,GND*%
G36*
X23812437Y-320185D02*
G01*
X23858192Y-372989D01*
X23868136Y-442147D01*
X23839111Y-505703D01*
X23814289Y-527602D01*
X23754710Y-567410D01*
X23643213Y-678907D01*
X23643210Y-678911D01*
X23555609Y-810014D01*
X23555602Y-810027D01*
X23495264Y-955698D01*
X23495261Y-955710D01*
X23464500Y-1110353D01*
X23464500Y-1268046D01*
X23495261Y-1422689D01*
X23495264Y-1422701D01*
X23555602Y-1568372D01*
X23555609Y-1568385D01*
X23643602Y-1700074D01*
X23664480Y-1766751D01*
X23664500Y-1768965D01*
X23664500Y-3724003D01*
X23644815Y-3791042D01*
X23628181Y-3811684D01*
X21741239Y-5698625D01*
X21679916Y-5732110D01*
X21677750Y-5732561D01*
X21522408Y-5763461D01*
X21522398Y-5763464D01*
X21431752Y-5801011D01*
X21362283Y-5808480D01*
X21299804Y-5777204D01*
X21264152Y-5717115D01*
X21260300Y-5686450D01*
X21260300Y-5069165D01*
X21279985Y-5002126D01*
X21281198Y-5000274D01*
X21283161Y-4997337D01*
X21369194Y-4868579D01*
X21429537Y-4722897D01*
X21452633Y-4606785D01*
X21460438Y-4567550D01*
X21492823Y-4505639D01*
X21494326Y-4504108D01*
X21710613Y-4287821D01*
X21710616Y-4287820D01*
X21822420Y-4176016D01*
X21872539Y-4089204D01*
X21901477Y-4039085D01*
X21942400Y-3886357D01*
X21942400Y-3728243D01*
X21942400Y-1863543D01*
X21901477Y-1710816D01*
X21855447Y-1631089D01*
X21822424Y-1573890D01*
X21822421Y-1573886D01*
X21822420Y-1573884D01*
X21710616Y-1462080D01*
X21710615Y-1462079D01*
X21706285Y-1457749D01*
X21706274Y-1457739D01*
X21284490Y-1035955D01*
X21284488Y-1035952D01*
X21165617Y-917081D01*
X21165616Y-917080D01*
X21078804Y-866960D01*
X21078804Y-866959D01*
X21078800Y-866958D01*
X21028685Y-838023D01*
X20875957Y-797099D01*
X20717843Y-797099D01*
X20710247Y-797099D01*
X20710231Y-797100D01*
X9468966Y-797100D01*
X9401927Y-777415D01*
X9400075Y-776202D01*
X9268385Y-688209D01*
X9268372Y-688202D01*
X9122701Y-627864D01*
X9122689Y-627861D01*
X8968045Y-597100D01*
X8968042Y-597100D01*
X8810358Y-597100D01*
X8810355Y-597100D01*
X8655710Y-627861D01*
X8655698Y-627864D01*
X8510027Y-688202D01*
X8510014Y-688209D01*
X8378911Y-775810D01*
X8378907Y-775813D01*
X8267413Y-887307D01*
X8267410Y-887311D01*
X8179809Y-1018414D01*
X8179802Y-1018427D01*
X8119464Y-1164098D01*
X8119461Y-1164110D01*
X8088700Y-1318753D01*
X8088700Y-1476446D01*
X8119461Y-1631089D01*
X8119464Y-1631101D01*
X8179802Y-1776772D01*
X8179809Y-1776785D01*
X8267410Y-1907888D01*
X8267413Y-1907892D01*
X8378907Y-2019386D01*
X8378911Y-2019389D01*
X8510014Y-2106990D01*
X8510027Y-2106997D01*
X8589094Y-2139747D01*
X8655703Y-2167337D01*
X8810353Y-2198099D01*
X8810356Y-2198100D01*
X8810358Y-2198100D01*
X8968044Y-2198100D01*
X8968045Y-2198099D01*
X9122697Y-2167337D01*
X9268379Y-2106994D01*
X9339332Y-2059585D01*
X9400075Y-2018998D01*
X9466753Y-1998120D01*
X9468966Y-1998100D01*
X19787551Y-1998100D01*
X19807766Y-2004035D01*
X19828806Y-2005164D01*
X19840618Y-2013682D01*
X19854590Y-2017785D01*
X19868386Y-2033706D01*
X19885478Y-2046032D01*
X19890810Y-2059585D01*
X19900345Y-2070589D01*
X19903343Y-2091440D01*
X19911058Y-2111050D01*
X19909728Y-2135847D01*
X19910289Y-2139747D01*
X19909168Y-2146294D01*
X19904462Y-2169950D01*
X19872075Y-2231860D01*
X19870526Y-2233437D01*
X19314086Y-2789878D01*
X19202281Y-2901682D01*
X19202280Y-2901684D01*
X19162898Y-2969896D01*
X19123223Y-3038615D01*
X19082299Y-3191343D01*
X19082299Y-3191345D01*
X19082299Y-3359446D01*
X19082300Y-3359459D01*
X19082300Y-9467002D01*
X19073655Y-9496439D01*
X19067132Y-9526430D01*
X19063376Y-9531446D01*
X19062615Y-9534041D01*
X19045981Y-9554684D01*
X18966652Y-9634012D01*
X18905328Y-9667496D01*
X18835637Y-9662511D01*
X18791290Y-9634011D01*
X18781192Y-9623913D01*
X18781188Y-9623910D01*
X18650085Y-9536309D01*
X18650072Y-9536302D01*
X18504401Y-9475964D01*
X18504389Y-9475961D01*
X18349745Y-9445200D01*
X18349742Y-9445200D01*
X18192058Y-9445200D01*
X18192055Y-9445200D01*
X18037410Y-9475961D01*
X18037398Y-9475964D01*
X17891727Y-9536302D01*
X17891714Y-9536309D01*
X17760025Y-9624302D01*
X17693347Y-9645180D01*
X17691134Y-9645200D01*
X9635200Y-9645200D01*
X9568161Y-9625515D01*
X9522406Y-9572711D01*
X9511200Y-9521200D01*
X9511200Y-5609760D01*
X9511201Y-5609747D01*
X9511201Y-5441644D01*
X9511201Y-5441643D01*
X9470277Y-5288916D01*
X9392991Y-5155051D01*
X9391224Y-5151990D01*
X9391218Y-5151982D01*
X8452173Y-4212937D01*
X8418688Y-4151614D01*
X8418237Y-4149447D01*
X8409652Y-4106286D01*
X8387337Y-3994103D01*
X8367016Y-3945043D01*
X8326997Y-3848427D01*
X8326990Y-3848414D01*
X8239389Y-3717311D01*
X8239386Y-3717307D01*
X8127892Y-3605813D01*
X8127888Y-3605810D01*
X7996785Y-3518209D01*
X7996772Y-3518202D01*
X7851101Y-3457864D01*
X7851089Y-3457861D01*
X7696445Y-3427100D01*
X7696442Y-3427100D01*
X7538758Y-3427100D01*
X7538755Y-3427100D01*
X7384110Y-3457861D01*
X7384098Y-3457864D01*
X7238427Y-3518202D01*
X7238414Y-3518209D01*
X7107311Y-3605810D01*
X7107307Y-3605813D01*
X6995813Y-3717307D01*
X6995810Y-3717311D01*
X6908209Y-3848414D01*
X6908202Y-3848427D01*
X6847864Y-3994098D01*
X6847861Y-3994110D01*
X6817100Y-4148753D01*
X6817100Y-4306446D01*
X6847861Y-4461089D01*
X6847864Y-4461101D01*
X6908202Y-4606772D01*
X6908209Y-4606785D01*
X6995810Y-4737888D01*
X6995813Y-4737892D01*
X7107307Y-4849386D01*
X7107311Y-4849389D01*
X7238414Y-4936990D01*
X7238427Y-4936997D01*
X7384098Y-4997335D01*
X7384103Y-4997337D01*
X7448747Y-5010195D01*
X7539449Y-5028238D01*
X7601360Y-5060623D01*
X7602939Y-5062174D01*
X8273881Y-5733116D01*
X8307366Y-5794439D01*
X8310200Y-5820797D01*
X8310200Y-13580934D01*
X8290515Y-13647973D01*
X8289302Y-13649825D01*
X8201309Y-13781514D01*
X8201302Y-13781527D01*
X8140964Y-13927198D01*
X8140961Y-13927210D01*
X8110200Y-14081853D01*
X8110200Y-14239546D01*
X8140961Y-14394189D01*
X8140964Y-14394201D01*
X8201302Y-14539872D01*
X8201309Y-14539885D01*
X8288910Y-14670988D01*
X8288913Y-14670992D01*
X8400407Y-14782486D01*
X8400411Y-14782489D01*
X8531514Y-14870090D01*
X8531527Y-14870097D01*
X8677198Y-14930435D01*
X8677203Y-14930437D01*
X8831853Y-14961199D01*
X8831856Y-14961200D01*
X8831858Y-14961200D01*
X8989544Y-14961200D01*
X8989545Y-14961199D01*
X9144197Y-14930437D01*
X9289879Y-14870094D01*
X9420989Y-14782489D01*
X9532489Y-14670989D01*
X9620094Y-14539879D01*
X9680437Y-14394197D01*
X9711200Y-14239542D01*
X9711200Y-14081858D01*
X9711200Y-14081855D01*
X9711199Y-14081853D01*
X9696243Y-14006664D01*
X9680437Y-13927203D01*
X9655805Y-13867735D01*
X9620097Y-13781527D01*
X9620090Y-13781514D01*
X9532098Y-13649825D01*
X9511220Y-13583147D01*
X9511200Y-13580934D01*
X9511200Y-10970200D01*
X9530885Y-10903161D01*
X9583689Y-10857406D01*
X9635200Y-10846200D01*
X17455103Y-10846200D01*
X17476348Y-10852438D01*
X17498437Y-10854018D01*
X17509220Y-10862090D01*
X17522142Y-10865885D01*
X17536641Y-10882618D01*
X17554370Y-10895890D01*
X17559077Y-10908510D01*
X17567897Y-10918689D01*
X17571048Y-10940606D01*
X17578787Y-10961354D01*
X17575924Y-10974514D01*
X17577841Y-10987847D01*
X17568641Y-11007990D01*
X17563935Y-11029627D01*
X17550666Y-11047352D01*
X17548816Y-11051403D01*
X17542784Y-11057881D01*
X17540684Y-11059981D01*
X17479361Y-11093466D01*
X17453003Y-11096300D01*
X15896457Y-11096300D01*
X15738343Y-11096300D01*
X15585615Y-11137223D01*
X15585614Y-11137223D01*
X15585612Y-11137224D01*
X15585609Y-11137225D01*
X15535496Y-11166159D01*
X15535495Y-11166160D01*
X15492089Y-11191220D01*
X15448685Y-11216279D01*
X15448682Y-11216281D01*
X12723139Y-13941825D01*
X12661816Y-13975310D01*
X12659650Y-13975761D01*
X12504308Y-14006661D01*
X12504298Y-14006664D01*
X12358627Y-14067002D01*
X12358614Y-14067009D01*
X12227511Y-14154610D01*
X12227507Y-14154613D01*
X12116013Y-14266107D01*
X12116010Y-14266111D01*
X12028409Y-14397214D01*
X12028402Y-14397227D01*
X11968064Y-14542898D01*
X11968061Y-14542910D01*
X11937300Y-14697553D01*
X11937300Y-14855246D01*
X11968061Y-15009889D01*
X11968064Y-15009901D01*
X12028402Y-15155572D01*
X12028408Y-15155583D01*
X12042792Y-15177110D01*
X12063669Y-15243787D01*
X12045184Y-15311167D01*
X11993205Y-15357857D01*
X11939689Y-15370000D01*
X10034466Y-15370000D01*
X9967427Y-15350315D01*
X9965575Y-15349102D01*
X9833885Y-15261109D01*
X9833872Y-15261102D01*
X9688201Y-15200764D01*
X9688189Y-15200761D01*
X9533545Y-15170000D01*
X9533542Y-15170000D01*
X9375858Y-15170000D01*
X9375855Y-15170000D01*
X9221210Y-15200761D01*
X9221198Y-15200764D01*
X9075527Y-15261102D01*
X9075514Y-15261109D01*
X8944411Y-15348710D01*
X8944407Y-15348713D01*
X8832913Y-15460207D01*
X8832910Y-15460211D01*
X8745309Y-15591314D01*
X8745302Y-15591327D01*
X8684964Y-15736998D01*
X8684961Y-15737010D01*
X8654200Y-15891653D01*
X8654200Y-16049346D01*
X8684961Y-16203989D01*
X8684964Y-16204001D01*
X8745302Y-16349672D01*
X8745309Y-16349685D01*
X8832910Y-16480788D01*
X8832913Y-16480792D01*
X8944407Y-16592286D01*
X8944411Y-16592289D01*
X9075514Y-16679890D01*
X9075527Y-16679897D01*
X9221198Y-16740235D01*
X9221203Y-16740237D01*
X9375853Y-16770999D01*
X9375856Y-16771000D01*
X9375858Y-16771000D01*
X9533544Y-16771000D01*
X9533545Y-16770999D01*
X9688197Y-16740237D01*
X9833879Y-16679894D01*
X9833885Y-16679890D01*
X9965575Y-16591898D01*
X10032253Y-16571020D01*
X10034466Y-16571000D01*
X13962531Y-16571000D01*
X13962547Y-16571001D01*
X13970143Y-16571001D01*
X14128254Y-16571001D01*
X14128257Y-16571001D01*
X14280985Y-16530077D01*
X14331104Y-16501139D01*
X14417916Y-16451020D01*
X14529720Y-16339216D01*
X14529720Y-16339214D01*
X14539928Y-16329007D01*
X14539929Y-16329004D01*
X16936362Y-13932572D01*
X16997683Y-13899089D01*
X16999850Y-13898638D01*
X17057785Y-13887113D01*
X17155197Y-13867737D01*
X17300879Y-13807394D01*
X17431989Y-13719789D01*
X17543489Y-13608289D01*
X17631094Y-13477179D01*
X17691437Y-13331497D01*
X17722200Y-13176842D01*
X17722200Y-13019158D01*
X17722200Y-13019155D01*
X17722199Y-13019153D01*
X17691438Y-12864510D01*
X17691438Y-12864508D01*
X17691437Y-12864503D01*
X17691435Y-12864498D01*
X17631097Y-12718827D01*
X17631090Y-12718814D01*
X17543489Y-12587711D01*
X17543486Y-12587707D01*
X17464760Y-12508981D01*
X17454147Y-12489544D01*
X17439647Y-12472811D01*
X17437730Y-12459479D01*
X17431275Y-12447658D01*
X17432854Y-12425571D01*
X17429703Y-12403653D01*
X17435298Y-12391401D01*
X17436259Y-12377966D01*
X17449529Y-12360239D01*
X17458728Y-12340097D01*
X17470059Y-12332814D01*
X17478131Y-12322033D01*
X17498876Y-12314295D01*
X17517506Y-12302323D01*
X17539424Y-12299171D01*
X17543595Y-12297616D01*
X17552441Y-12297300D01*
X17666431Y-12297300D01*
X17666447Y-12297301D01*
X17674043Y-12297301D01*
X17832154Y-12297301D01*
X17832157Y-12297301D01*
X17984885Y-12256377D01*
X18035004Y-12227439D01*
X18121816Y-12177320D01*
X18233620Y-12065516D01*
X18233620Y-12065514D01*
X18243828Y-12055307D01*
X18243830Y-12055304D01*
X19847619Y-10451515D01*
X19908942Y-10418030D01*
X19978634Y-10423014D01*
X20034567Y-10464886D01*
X20058984Y-10530350D01*
X20059300Y-10539196D01*
X20059300Y-14578430D01*
X20059299Y-14578448D01*
X20059299Y-14744154D01*
X20059298Y-14744154D01*
X20059299Y-14744157D01*
X20100223Y-14896885D01*
X20119595Y-14930438D01*
X20129158Y-14947000D01*
X20129159Y-14947004D01*
X20129160Y-14947004D01*
X20179279Y-15033814D01*
X20179281Y-15033817D01*
X20298149Y-15152685D01*
X20298155Y-15152690D01*
X23473225Y-18327760D01*
X23506710Y-18389083D01*
X23507161Y-18391249D01*
X23538061Y-18546591D01*
X23538064Y-18546601D01*
X23598402Y-18692272D01*
X23598409Y-18692285D01*
X23686010Y-18823388D01*
X23686013Y-18823392D01*
X23797507Y-18934886D01*
X23797511Y-18934889D01*
X23928614Y-19022490D01*
X23928627Y-19022497D01*
X24074298Y-19082835D01*
X24074303Y-19082837D01*
X24228953Y-19113599D01*
X24228956Y-19113600D01*
X24228958Y-19113600D01*
X24386644Y-19113600D01*
X24386645Y-19113599D01*
X24541297Y-19082837D01*
X24686979Y-19022494D01*
X24818089Y-18934889D01*
X24929589Y-18823389D01*
X25017194Y-18692279D01*
X25077537Y-18546597D01*
X25108300Y-18391942D01*
X25108300Y-18234258D01*
X25108300Y-18234255D01*
X25108299Y-18234253D01*
X25077538Y-18079610D01*
X25077537Y-18079603D01*
X25077535Y-18079598D01*
X25017197Y-17933927D01*
X25017190Y-17933914D01*
X24929589Y-17802811D01*
X24929586Y-17802807D01*
X24818092Y-17691313D01*
X24818088Y-17691310D01*
X24686985Y-17603709D01*
X24686972Y-17603702D01*
X24541301Y-17543364D01*
X24541291Y-17543361D01*
X24385949Y-17512461D01*
X24324038Y-17480076D01*
X24322460Y-17478525D01*
X22737648Y-15893713D01*
X30649500Y-15893713D01*
X30649500Y-16106287D01*
X30682754Y-16316243D01*
X30736219Y-16480792D01*
X30748444Y-16518414D01*
X30844951Y-16707820D01*
X30969890Y-16879786D01*
X31120213Y-17030109D01*
X31292179Y-17155048D01*
X31292181Y-17155049D01*
X31292184Y-17155051D01*
X31481588Y-17251557D01*
X31683757Y-17317246D01*
X31893713Y-17350500D01*
X31893714Y-17350500D01*
X32106286Y-17350500D01*
X32106287Y-17350500D01*
X32316243Y-17317246D01*
X32518412Y-17251557D01*
X32707816Y-17155051D01*
X32729789Y-17139086D01*
X32879786Y-17030109D01*
X32879788Y-17030106D01*
X32879792Y-17030104D01*
X33030104Y-16879792D01*
X33030106Y-16879788D01*
X33030109Y-16879786D01*
X33155048Y-16707820D01*
X33155047Y-16707820D01*
X33155051Y-16707816D01*
X33251557Y-16518412D01*
X33317246Y-16316243D01*
X33350500Y-16106287D01*
X33350500Y-15893713D01*
X33317246Y-15683757D01*
X33251557Y-15481588D01*
X33155051Y-15292184D01*
X33155049Y-15292181D01*
X33155048Y-15292179D01*
X33030109Y-15120213D01*
X32879786Y-14969890D01*
X32707820Y-14844951D01*
X32518414Y-14748444D01*
X32518413Y-14748443D01*
X32518412Y-14748443D01*
X32316243Y-14682754D01*
X32316241Y-14682753D01*
X32316240Y-14682753D01*
X32154957Y-14657208D01*
X32106287Y-14649500D01*
X31893713Y-14649500D01*
X31845042Y-14657208D01*
X31683760Y-14682753D01*
X31481585Y-14748444D01*
X31292179Y-14844951D01*
X31120213Y-14969890D01*
X30969890Y-15120213D01*
X30844951Y-15292179D01*
X30748444Y-15481585D01*
X30682753Y-15683760D01*
X30674319Y-15737010D01*
X30649500Y-15893713D01*
X22737648Y-15893713D01*
X21296619Y-14452684D01*
X21263134Y-14391361D01*
X21260300Y-14365003D01*
X21260300Y-11336125D01*
X21279985Y-11269086D01*
X21332789Y-11223331D01*
X21401947Y-11213387D01*
X21465503Y-11242412D01*
X21487402Y-11267234D01*
X21534010Y-11336989D01*
X21645507Y-11448486D01*
X21645511Y-11448489D01*
X21776614Y-11536090D01*
X21776627Y-11536097D01*
X21922298Y-11596435D01*
X21922303Y-11596437D01*
X22076953Y-11627199D01*
X22076956Y-11627200D01*
X22076958Y-11627200D01*
X22234644Y-11627200D01*
X22234645Y-11627199D01*
X22389297Y-11596437D01*
X22534979Y-11536094D01*
X22666089Y-11448489D01*
X22777589Y-11336989D01*
X22865194Y-11205879D01*
X22925537Y-11060197D01*
X22956300Y-10905542D01*
X22956300Y-10747858D01*
X22956300Y-10747855D01*
X22956299Y-10747853D01*
X22925538Y-10593210D01*
X22925537Y-10593203D01*
X22872387Y-10464886D01*
X22865197Y-10447527D01*
X22865190Y-10447514D01*
X22777589Y-10316411D01*
X22777586Y-10316407D01*
X22666092Y-10204913D01*
X22666088Y-10204910D01*
X22534985Y-10117309D01*
X22534976Y-10117304D01*
X22432947Y-10075043D01*
X22378544Y-10031202D01*
X22356479Y-9964908D01*
X22356400Y-9960482D01*
X22356400Y-7112965D01*
X22376085Y-7045926D01*
X22377298Y-7044074D01*
X22465290Y-6912385D01*
X22465290Y-6912384D01*
X22465294Y-6912379D01*
X22525637Y-6766697D01*
X22556400Y-6612042D01*
X22556538Y-6611350D01*
X22588923Y-6549439D01*
X22590419Y-6547915D01*
X24633713Y-4504621D01*
X24633716Y-4504620D01*
X24745520Y-4392816D01*
X24795639Y-4306004D01*
X24824577Y-4255885D01*
X24865500Y-4103158D01*
X24865500Y-3945043D01*
X24865500Y-1768965D01*
X24885185Y-1701926D01*
X24886398Y-1700074D01*
X24974390Y-1568385D01*
X24974390Y-1568384D01*
X24974394Y-1568379D01*
X25034737Y-1422697D01*
X25065500Y-1268042D01*
X25065500Y-1110358D01*
X25065500Y-1110355D01*
X25065499Y-1110353D01*
X25050700Y-1035955D01*
X25034737Y-955703D01*
X25034735Y-955698D01*
X24974397Y-810027D01*
X24974390Y-810014D01*
X24886789Y-678911D01*
X24886786Y-678907D01*
X24775289Y-567410D01*
X24715711Y-527602D01*
X24670906Y-473990D01*
X24662199Y-404665D01*
X24692353Y-341638D01*
X24751796Y-304918D01*
X24784602Y-300500D01*
X39575500Y-300500D01*
X39642539Y-320185D01*
X39688294Y-372989D01*
X39699500Y-424500D01*
X39699500Y-19575500D01*
X39679815Y-19642539D01*
X39627011Y-19688294D01*
X39575500Y-19699500D01*
X424500Y-19699500D01*
X357461Y-19679815D01*
X311706Y-19627011D01*
X300500Y-19575500D01*
X300500Y-3893713D01*
X2649500Y-3893713D01*
X2649500Y-4106286D01*
X2681201Y-4306442D01*
X2682754Y-4316243D01*
X2729821Y-4461101D01*
X2748444Y-4518414D01*
X2844951Y-4707820D01*
X2969890Y-4879786D01*
X3120213Y-5030109D01*
X3292179Y-5155048D01*
X3292181Y-5155049D01*
X3292184Y-5155051D01*
X3481588Y-5251557D01*
X3683757Y-5317246D01*
X3893713Y-5350500D01*
X3893714Y-5350500D01*
X4106286Y-5350500D01*
X4106287Y-5350500D01*
X4316243Y-5317246D01*
X4518412Y-5251557D01*
X4707816Y-5155051D01*
X4826029Y-5069165D01*
X4879786Y-5030109D01*
X4879788Y-5030106D01*
X4879792Y-5030104D01*
X5030104Y-4879792D01*
X5030106Y-4879788D01*
X5030109Y-4879786D01*
X5155048Y-4707820D01*
X5155047Y-4707820D01*
X5155051Y-4707816D01*
X5251557Y-4518412D01*
X5317246Y-4316243D01*
X5350500Y-4106287D01*
X5350500Y-3893713D01*
X5317246Y-3683757D01*
X5251557Y-3481588D01*
X5155051Y-3292184D01*
X5155049Y-3292181D01*
X5155048Y-3292179D01*
X5030109Y-3120213D01*
X4879786Y-2969890D01*
X4707820Y-2844951D01*
X4518414Y-2748444D01*
X4518413Y-2748443D01*
X4518412Y-2748443D01*
X4316243Y-2682754D01*
X4316241Y-2682753D01*
X4316240Y-2682753D01*
X4154957Y-2657208D01*
X4106287Y-2649500D01*
X3893713Y-2649500D01*
X3845042Y-2657208D01*
X3683760Y-2682753D01*
X3481585Y-2748444D01*
X3292179Y-2844951D01*
X3120213Y-2969890D01*
X2969890Y-3120213D01*
X2844951Y-3292179D01*
X2748444Y-3481585D01*
X2682753Y-3683760D01*
X2649500Y-3893713D01*
X300500Y-3893713D01*
X300500Y-424500D01*
X320185Y-357461D01*
X372989Y-311706D01*
X424500Y-300500D01*
X23745398Y-300500D01*
X23812437Y-320185D01*
G37*
%TD.AperFunction*%
%TD*%
M02*
