%TF.GenerationSoftware,KiCad,Pcbnew,10.0.3*%
%TF.CreationDate,2026-06-20T23:40:10-07:00*%
%TF.ProjectId,brickdup_psu,62726963-6b64-4757-905f-7073752e6b69,rev?*%
%TF.SameCoordinates,Original*%
%TF.FileFunction,AssemblyDrawing,Top*%
%FSLAX46Y46*%
G04 Gerber Fmt 4.6, Leading zero omitted, Abs format (unit mm)*
G04 Created by KiCad (PCBNEW 10.0.3) date 2026-06-20 23:40:10*
%MOMM*%
%LPD*%
G01*
G04 APERTURE LIST*
%ADD10C,0.080000*%
%ADD11C,0.150000*%
%ADD12C,0.040000*%
%ADD13C,0.060000*%
%ADD14C,0.120000*%
%ADD15C,0.100000*%
G04 APERTURE END LIST*
D10*
X26179749Y-17106933D02*
X25941654Y-17273599D01*
X26179749Y-17392647D02*
X25679749Y-17392647D01*
X25679749Y-17392647D02*
X25679749Y-17202171D01*
X25679749Y-17202171D02*
X25703559Y-17154552D01*
X25703559Y-17154552D02*
X25727368Y-17130742D01*
X25727368Y-17130742D02*
X25774987Y-17106933D01*
X25774987Y-17106933D02*
X25846416Y-17106933D01*
X25846416Y-17106933D02*
X25894035Y-17130742D01*
X25894035Y-17130742D02*
X25917844Y-17154552D01*
X25917844Y-17154552D02*
X25941654Y-17202171D01*
X25941654Y-17202171D02*
X25941654Y-17392647D01*
X25727368Y-16916456D02*
X25703559Y-16892647D01*
X25703559Y-16892647D02*
X25679749Y-16845028D01*
X25679749Y-16845028D02*
X25679749Y-16725980D01*
X25679749Y-16725980D02*
X25703559Y-16678361D01*
X25703559Y-16678361D02*
X25727368Y-16654552D01*
X25727368Y-16654552D02*
X25774987Y-16630742D01*
X25774987Y-16630742D02*
X25822606Y-16630742D01*
X25822606Y-16630742D02*
X25894035Y-16654552D01*
X25894035Y-16654552D02*
X26179749Y-16940266D01*
X26179749Y-16940266D02*
X26179749Y-16630742D01*
D11*
X6715233Y-8354819D02*
X6239043Y-8354819D01*
X6239043Y-8354819D02*
X6239043Y-7354819D01*
X7572376Y-8354819D02*
X7000948Y-8354819D01*
X7286662Y-8354819D02*
X7286662Y-7354819D01*
X7286662Y-7354819D02*
X7191424Y-7497676D01*
X7191424Y-7497676D02*
X7096186Y-7592914D01*
X7096186Y-7592914D02*
X7000948Y-7640533D01*
D12*
X23403314Y-16863565D02*
X23391410Y-16875470D01*
X23391410Y-16875470D02*
X23355695Y-16887374D01*
X23355695Y-16887374D02*
X23331886Y-16887374D01*
X23331886Y-16887374D02*
X23296172Y-16875470D01*
X23296172Y-16875470D02*
X23272362Y-16851660D01*
X23272362Y-16851660D02*
X23260457Y-16827850D01*
X23260457Y-16827850D02*
X23248553Y-16780231D01*
X23248553Y-16780231D02*
X23248553Y-16744517D01*
X23248553Y-16744517D02*
X23260457Y-16696898D01*
X23260457Y-16696898D02*
X23272362Y-16673089D01*
X23272362Y-16673089D02*
X23296172Y-16649279D01*
X23296172Y-16649279D02*
X23331886Y-16637374D01*
X23331886Y-16637374D02*
X23355695Y-16637374D01*
X23355695Y-16637374D02*
X23391410Y-16649279D01*
X23391410Y-16649279D02*
X23403314Y-16661184D01*
X23546172Y-16887374D02*
X23522362Y-16875470D01*
X23522362Y-16875470D02*
X23510457Y-16863565D01*
X23510457Y-16863565D02*
X23498553Y-16839755D01*
X23498553Y-16839755D02*
X23498553Y-16768327D01*
X23498553Y-16768327D02*
X23510457Y-16744517D01*
X23510457Y-16744517D02*
X23522362Y-16732612D01*
X23522362Y-16732612D02*
X23546172Y-16720708D01*
X23546172Y-16720708D02*
X23581886Y-16720708D01*
X23581886Y-16720708D02*
X23605695Y-16732612D01*
X23605695Y-16732612D02*
X23617600Y-16744517D01*
X23617600Y-16744517D02*
X23629505Y-16768327D01*
X23629505Y-16768327D02*
X23629505Y-16839755D01*
X23629505Y-16839755D02*
X23617600Y-16863565D01*
X23617600Y-16863565D02*
X23605695Y-16875470D01*
X23605695Y-16875470D02*
X23581886Y-16887374D01*
X23581886Y-16887374D02*
X23546172Y-16887374D01*
X23843790Y-16720708D02*
X23843790Y-16887374D01*
X23736647Y-16720708D02*
X23736647Y-16851660D01*
X23736647Y-16851660D02*
X23748552Y-16875470D01*
X23748552Y-16875470D02*
X23772362Y-16887374D01*
X23772362Y-16887374D02*
X23808076Y-16887374D01*
X23808076Y-16887374D02*
X23831885Y-16875470D01*
X23831885Y-16875470D02*
X23843790Y-16863565D01*
X23927123Y-16720708D02*
X24022361Y-16720708D01*
X23962837Y-16637374D02*
X23962837Y-16851660D01*
X23962837Y-16851660D02*
X23974742Y-16875470D01*
X23974742Y-16875470D02*
X23998552Y-16887374D01*
X23998552Y-16887374D02*
X24022361Y-16887374D01*
X24081885Y-16637374D02*
X24236647Y-16637374D01*
X24236647Y-16637374D02*
X24153313Y-16732612D01*
X24153313Y-16732612D02*
X24189028Y-16732612D01*
X24189028Y-16732612D02*
X24212837Y-16744517D01*
X24212837Y-16744517D02*
X24224742Y-16756422D01*
X24224742Y-16756422D02*
X24236647Y-16780231D01*
X24236647Y-16780231D02*
X24236647Y-16839755D01*
X24236647Y-16839755D02*
X24224742Y-16863565D01*
X24224742Y-16863565D02*
X24212837Y-16875470D01*
X24212837Y-16875470D02*
X24189028Y-16887374D01*
X24189028Y-16887374D02*
X24117599Y-16887374D01*
X24117599Y-16887374D02*
X24093790Y-16875470D01*
X24093790Y-16875470D02*
X24081885Y-16863565D01*
D11*
X30409905Y-5643319D02*
X30409905Y-4643319D01*
X30409905Y-4643319D02*
X30648000Y-4643319D01*
X30648000Y-4643319D02*
X30790857Y-4690938D01*
X30790857Y-4690938D02*
X30886095Y-4786176D01*
X30886095Y-4786176D02*
X30933714Y-4881414D01*
X30933714Y-4881414D02*
X30981333Y-5071890D01*
X30981333Y-5071890D02*
X30981333Y-5214747D01*
X30981333Y-5214747D02*
X30933714Y-5405223D01*
X30933714Y-5405223D02*
X30886095Y-5500461D01*
X30886095Y-5500461D02*
X30790857Y-5595700D01*
X30790857Y-5595700D02*
X30648000Y-5643319D01*
X30648000Y-5643319D02*
X30409905Y-5643319D01*
X31362286Y-4738557D02*
X31409905Y-4690938D01*
X31409905Y-4690938D02*
X31505143Y-4643319D01*
X31505143Y-4643319D02*
X31743238Y-4643319D01*
X31743238Y-4643319D02*
X31838476Y-4690938D01*
X31838476Y-4690938D02*
X31886095Y-4738557D01*
X31886095Y-4738557D02*
X31933714Y-4833795D01*
X31933714Y-4833795D02*
X31933714Y-4929033D01*
X31933714Y-4929033D02*
X31886095Y-5071890D01*
X31886095Y-5071890D02*
X31314667Y-5643319D01*
X31314667Y-5643319D02*
X31933714Y-5643319D01*
D12*
X28998200Y-13104261D02*
X28874391Y-13190928D01*
X28998200Y-13252833D02*
X28738200Y-13252833D01*
X28738200Y-13252833D02*
X28738200Y-13153785D01*
X28738200Y-13153785D02*
X28750581Y-13129023D01*
X28750581Y-13129023D02*
X28762962Y-13116642D01*
X28762962Y-13116642D02*
X28787724Y-13104261D01*
X28787724Y-13104261D02*
X28824867Y-13104261D01*
X28824867Y-13104261D02*
X28849629Y-13116642D01*
X28849629Y-13116642D02*
X28862010Y-13129023D01*
X28862010Y-13129023D02*
X28874391Y-13153785D01*
X28874391Y-13153785D02*
X28874391Y-13252833D01*
X28862010Y-12906166D02*
X28862010Y-12992833D01*
X28998200Y-12992833D02*
X28738200Y-12992833D01*
X28738200Y-12992833D02*
X28738200Y-12869023D01*
X28862010Y-12683309D02*
X28874391Y-12646166D01*
X28874391Y-12646166D02*
X28886772Y-12633785D01*
X28886772Y-12633785D02*
X28911534Y-12621404D01*
X28911534Y-12621404D02*
X28948677Y-12621404D01*
X28948677Y-12621404D02*
X28973439Y-12633785D01*
X28973439Y-12633785D02*
X28985820Y-12646166D01*
X28985820Y-12646166D02*
X28998200Y-12670928D01*
X28998200Y-12670928D02*
X28998200Y-12769976D01*
X28998200Y-12769976D02*
X28738200Y-12769976D01*
X28738200Y-12769976D02*
X28738200Y-12683309D01*
X28738200Y-12683309D02*
X28750581Y-12658547D01*
X28750581Y-12658547D02*
X28762962Y-12646166D01*
X28762962Y-12646166D02*
X28787724Y-12633785D01*
X28787724Y-12633785D02*
X28812486Y-12633785D01*
X28812486Y-12633785D02*
X28837248Y-12646166D01*
X28837248Y-12646166D02*
X28849629Y-12658547D01*
X28849629Y-12658547D02*
X28862010Y-12683309D01*
X28862010Y-12683309D02*
X28862010Y-12769976D01*
X28998200Y-12373785D02*
X28998200Y-12522357D01*
X28998200Y-12448071D02*
X28738200Y-12448071D01*
X28738200Y-12448071D02*
X28775343Y-12472833D01*
X28775343Y-12472833D02*
X28800105Y-12497595D01*
X28800105Y-12497595D02*
X28812486Y-12522357D01*
D13*
X28725932Y-3991356D02*
X28744980Y-4010404D01*
X28744980Y-4010404D02*
X28764027Y-4067546D01*
X28764027Y-4067546D02*
X28764027Y-4105642D01*
X28764027Y-4105642D02*
X28744980Y-4162785D01*
X28744980Y-4162785D02*
X28706884Y-4200880D01*
X28706884Y-4200880D02*
X28668789Y-4219927D01*
X28668789Y-4219927D02*
X28592599Y-4238975D01*
X28592599Y-4238975D02*
X28535456Y-4238975D01*
X28535456Y-4238975D02*
X28459265Y-4219927D01*
X28459265Y-4219927D02*
X28421170Y-4200880D01*
X28421170Y-4200880D02*
X28383075Y-4162785D01*
X28383075Y-4162785D02*
X28364027Y-4105642D01*
X28364027Y-4105642D02*
X28364027Y-4067546D01*
X28364027Y-4067546D02*
X28383075Y-4010404D01*
X28383075Y-4010404D02*
X28402122Y-3991356D01*
X28764027Y-3819927D02*
X28497360Y-3819927D01*
X28364027Y-3819927D02*
X28383075Y-3838975D01*
X28383075Y-3838975D02*
X28402122Y-3819927D01*
X28402122Y-3819927D02*
X28383075Y-3800880D01*
X28383075Y-3800880D02*
X28364027Y-3819927D01*
X28364027Y-3819927D02*
X28402122Y-3819927D01*
X28497360Y-3629451D02*
X28764027Y-3629451D01*
X28535456Y-3629451D02*
X28516408Y-3610404D01*
X28516408Y-3610404D02*
X28497360Y-3572309D01*
X28497360Y-3572309D02*
X28497360Y-3515166D01*
X28497360Y-3515166D02*
X28516408Y-3477070D01*
X28516408Y-3477070D02*
X28554503Y-3458023D01*
X28554503Y-3458023D02*
X28764027Y-3458023D01*
X28364027Y-3305642D02*
X28364027Y-3058023D01*
X28364027Y-3058023D02*
X28516408Y-3191356D01*
X28516408Y-3191356D02*
X28516408Y-3134213D01*
X28516408Y-3134213D02*
X28535456Y-3096118D01*
X28535456Y-3096118D02*
X28554503Y-3077070D01*
X28554503Y-3077070D02*
X28592599Y-3058023D01*
X28592599Y-3058023D02*
X28687837Y-3058023D01*
X28687837Y-3058023D02*
X28725932Y-3077070D01*
X28725932Y-3077070D02*
X28744980Y-3096118D01*
X28744980Y-3096118D02*
X28764027Y-3134213D01*
X28764027Y-3134213D02*
X28764027Y-3248499D01*
X28764027Y-3248499D02*
X28744980Y-3286594D01*
X28744980Y-3286594D02*
X28725932Y-3305642D01*
D14*
X36262285Y-7262864D02*
X36224189Y-7300960D01*
X36224189Y-7300960D02*
X36109904Y-7339055D01*
X36109904Y-7339055D02*
X36033713Y-7339055D01*
X36033713Y-7339055D02*
X35919427Y-7300960D01*
X35919427Y-7300960D02*
X35843237Y-7224769D01*
X35843237Y-7224769D02*
X35805142Y-7148579D01*
X35805142Y-7148579D02*
X35767046Y-6996198D01*
X35767046Y-6996198D02*
X35767046Y-6881912D01*
X35767046Y-6881912D02*
X35805142Y-6729531D01*
X35805142Y-6729531D02*
X35843237Y-6653340D01*
X35843237Y-6653340D02*
X35919427Y-6577150D01*
X35919427Y-6577150D02*
X36033713Y-6539055D01*
X36033713Y-6539055D02*
X36109904Y-6539055D01*
X36109904Y-6539055D02*
X36224189Y-6577150D01*
X36224189Y-6577150D02*
X36262285Y-6615245D01*
X36719427Y-7339055D02*
X36643237Y-7300960D01*
X36643237Y-7300960D02*
X36605142Y-7262864D01*
X36605142Y-7262864D02*
X36567046Y-7186674D01*
X36567046Y-7186674D02*
X36567046Y-6958102D01*
X36567046Y-6958102D02*
X36605142Y-6881912D01*
X36605142Y-6881912D02*
X36643237Y-6843817D01*
X36643237Y-6843817D02*
X36719427Y-6805721D01*
X36719427Y-6805721D02*
X36833713Y-6805721D01*
X36833713Y-6805721D02*
X36909904Y-6843817D01*
X36909904Y-6843817D02*
X36947999Y-6881912D01*
X36947999Y-6881912D02*
X36986094Y-6958102D01*
X36986094Y-6958102D02*
X36986094Y-7186674D01*
X36986094Y-7186674D02*
X36947999Y-7262864D01*
X36947999Y-7262864D02*
X36909904Y-7300960D01*
X36909904Y-7300960D02*
X36833713Y-7339055D01*
X36833713Y-7339055D02*
X36719427Y-7339055D01*
X37671809Y-6805721D02*
X37671809Y-7339055D01*
X37328952Y-6805721D02*
X37328952Y-7224769D01*
X37328952Y-7224769D02*
X37367047Y-7300960D01*
X37367047Y-7300960D02*
X37443237Y-7339055D01*
X37443237Y-7339055D02*
X37557523Y-7339055D01*
X37557523Y-7339055D02*
X37633714Y-7300960D01*
X37633714Y-7300960D02*
X37671809Y-7262864D01*
X37938476Y-6805721D02*
X38243238Y-6805721D01*
X38052762Y-6539055D02*
X38052762Y-7224769D01*
X38052762Y-7224769D02*
X38090857Y-7300960D01*
X38090857Y-7300960D02*
X38167047Y-7339055D01*
X38167047Y-7339055D02*
X38243238Y-7339055D01*
X38471809Y-6615245D02*
X38509905Y-6577150D01*
X38509905Y-6577150D02*
X38586095Y-6539055D01*
X38586095Y-6539055D02*
X38776571Y-6539055D01*
X38776571Y-6539055D02*
X38852762Y-6577150D01*
X38852762Y-6577150D02*
X38890857Y-6615245D01*
X38890857Y-6615245D02*
X38928952Y-6691436D01*
X38928952Y-6691436D02*
X38928952Y-6767626D01*
X38928952Y-6767626D02*
X38890857Y-6881912D01*
X38890857Y-6881912D02*
X38433714Y-7339055D01*
X38433714Y-7339055D02*
X38928952Y-7339055D01*
D11*
X22880952Y-19604819D02*
X22880952Y-18604819D01*
X22880952Y-18604819D02*
X23214285Y-19319104D01*
X23214285Y-19319104D02*
X23547618Y-18604819D01*
X23547618Y-18604819D02*
X23547618Y-19604819D01*
X24166666Y-19604819D02*
X24071428Y-19557200D01*
X24071428Y-19557200D02*
X24023809Y-19509580D01*
X24023809Y-19509580D02*
X23976190Y-19414342D01*
X23976190Y-19414342D02*
X23976190Y-19128628D01*
X23976190Y-19128628D02*
X24023809Y-19033390D01*
X24023809Y-19033390D02*
X24071428Y-18985771D01*
X24071428Y-18985771D02*
X24166666Y-18938152D01*
X24166666Y-18938152D02*
X24309523Y-18938152D01*
X24309523Y-18938152D02*
X24404761Y-18985771D01*
X24404761Y-18985771D02*
X24452380Y-19033390D01*
X24452380Y-19033390D02*
X24499999Y-19128628D01*
X24499999Y-19128628D02*
X24499999Y-19414342D01*
X24499999Y-19414342D02*
X24452380Y-19509580D01*
X24452380Y-19509580D02*
X24404761Y-19557200D01*
X24404761Y-19557200D02*
X24309523Y-19604819D01*
X24309523Y-19604819D02*
X24166666Y-19604819D01*
X25357142Y-18938152D02*
X25357142Y-19604819D01*
X24928571Y-18938152D02*
X24928571Y-19461961D01*
X24928571Y-19461961D02*
X24976190Y-19557200D01*
X24976190Y-19557200D02*
X25071428Y-19604819D01*
X25071428Y-19604819D02*
X25214285Y-19604819D01*
X25214285Y-19604819D02*
X25309523Y-19557200D01*
X25309523Y-19557200D02*
X25357142Y-19509580D01*
X25833333Y-18938152D02*
X25833333Y-19604819D01*
X25833333Y-19033390D02*
X25880952Y-18985771D01*
X25880952Y-18985771D02*
X25976190Y-18938152D01*
X25976190Y-18938152D02*
X26119047Y-18938152D01*
X26119047Y-18938152D02*
X26214285Y-18985771D01*
X26214285Y-18985771D02*
X26261904Y-19081009D01*
X26261904Y-19081009D02*
X26261904Y-19604819D01*
X26595238Y-18938152D02*
X26976190Y-18938152D01*
X26738095Y-18604819D02*
X26738095Y-19461961D01*
X26738095Y-19461961D02*
X26785714Y-19557200D01*
X26785714Y-19557200D02*
X26880952Y-19604819D01*
X26880952Y-19604819D02*
X26976190Y-19604819D01*
X27309524Y-19604819D02*
X27309524Y-18938152D01*
X27309524Y-18604819D02*
X27261905Y-18652438D01*
X27261905Y-18652438D02*
X27309524Y-18700057D01*
X27309524Y-18700057D02*
X27357143Y-18652438D01*
X27357143Y-18652438D02*
X27309524Y-18604819D01*
X27309524Y-18604819D02*
X27309524Y-18700057D01*
X27785714Y-18938152D02*
X27785714Y-19604819D01*
X27785714Y-19033390D02*
X27833333Y-18985771D01*
X27833333Y-18985771D02*
X27928571Y-18938152D01*
X27928571Y-18938152D02*
X28071428Y-18938152D01*
X28071428Y-18938152D02*
X28166666Y-18985771D01*
X28166666Y-18985771D02*
X28214285Y-19081009D01*
X28214285Y-19081009D02*
X28214285Y-19604819D01*
X29119047Y-18938152D02*
X29119047Y-19747676D01*
X29119047Y-19747676D02*
X29071428Y-19842914D01*
X29071428Y-19842914D02*
X29023809Y-19890533D01*
X29023809Y-19890533D02*
X28928571Y-19938152D01*
X28928571Y-19938152D02*
X28785714Y-19938152D01*
X28785714Y-19938152D02*
X28690476Y-19890533D01*
X29119047Y-19557200D02*
X29023809Y-19604819D01*
X29023809Y-19604819D02*
X28833333Y-19604819D01*
X28833333Y-19604819D02*
X28738095Y-19557200D01*
X28738095Y-19557200D02*
X28690476Y-19509580D01*
X28690476Y-19509580D02*
X28642857Y-19414342D01*
X28642857Y-19414342D02*
X28642857Y-19128628D01*
X28642857Y-19128628D02*
X28690476Y-19033390D01*
X28690476Y-19033390D02*
X28738095Y-18985771D01*
X28738095Y-18985771D02*
X28833333Y-18938152D01*
X28833333Y-18938152D02*
X29023809Y-18938152D01*
X29023809Y-18938152D02*
X29119047Y-18985771D01*
X29595238Y-19604819D02*
X29595238Y-18604819D01*
X29595238Y-19081009D02*
X30166666Y-19081009D01*
X30166666Y-19604819D02*
X30166666Y-18604819D01*
X30785714Y-19604819D02*
X30690476Y-19557200D01*
X30690476Y-19557200D02*
X30642857Y-19509580D01*
X30642857Y-19509580D02*
X30595238Y-19414342D01*
X30595238Y-19414342D02*
X30595238Y-19128628D01*
X30595238Y-19128628D02*
X30642857Y-19033390D01*
X30642857Y-19033390D02*
X30690476Y-18985771D01*
X30690476Y-18985771D02*
X30785714Y-18938152D01*
X30785714Y-18938152D02*
X30928571Y-18938152D01*
X30928571Y-18938152D02*
X31023809Y-18985771D01*
X31023809Y-18985771D02*
X31071428Y-19033390D01*
X31071428Y-19033390D02*
X31119047Y-19128628D01*
X31119047Y-19128628D02*
X31119047Y-19414342D01*
X31119047Y-19414342D02*
X31071428Y-19509580D01*
X31071428Y-19509580D02*
X31023809Y-19557200D01*
X31023809Y-19557200D02*
X30928571Y-19604819D01*
X30928571Y-19604819D02*
X30785714Y-19604819D01*
X31690476Y-19604819D02*
X31595238Y-19557200D01*
X31595238Y-19557200D02*
X31547619Y-19461961D01*
X31547619Y-19461961D02*
X31547619Y-18604819D01*
X32452381Y-19557200D02*
X32357143Y-19604819D01*
X32357143Y-19604819D02*
X32166667Y-19604819D01*
X32166667Y-19604819D02*
X32071429Y-19557200D01*
X32071429Y-19557200D02*
X32023810Y-19461961D01*
X32023810Y-19461961D02*
X32023810Y-19081009D01*
X32023810Y-19081009D02*
X32071429Y-18985771D01*
X32071429Y-18985771D02*
X32166667Y-18938152D01*
X32166667Y-18938152D02*
X32357143Y-18938152D01*
X32357143Y-18938152D02*
X32452381Y-18985771D01*
X32452381Y-18985771D02*
X32500000Y-19081009D01*
X32500000Y-19081009D02*
X32500000Y-19176247D01*
X32500000Y-19176247D02*
X32023810Y-19271485D01*
X32690477Y-19700057D02*
X33452381Y-19700057D01*
X33642858Y-18700057D02*
X33690477Y-18652438D01*
X33690477Y-18652438D02*
X33785715Y-18604819D01*
X33785715Y-18604819D02*
X34023810Y-18604819D01*
X34023810Y-18604819D02*
X34119048Y-18652438D01*
X34119048Y-18652438D02*
X34166667Y-18700057D01*
X34166667Y-18700057D02*
X34214286Y-18795295D01*
X34214286Y-18795295D02*
X34214286Y-18890533D01*
X34214286Y-18890533D02*
X34166667Y-19033390D01*
X34166667Y-19033390D02*
X33595239Y-19604819D01*
X33595239Y-19604819D02*
X34214286Y-19604819D01*
X34642858Y-19509580D02*
X34690477Y-19557200D01*
X34690477Y-19557200D02*
X34642858Y-19604819D01*
X34642858Y-19604819D02*
X34595239Y-19557200D01*
X34595239Y-19557200D02*
X34642858Y-19509580D01*
X34642858Y-19509580D02*
X34642858Y-19604819D01*
X35071429Y-18700057D02*
X35119048Y-18652438D01*
X35119048Y-18652438D02*
X35214286Y-18604819D01*
X35214286Y-18604819D02*
X35452381Y-18604819D01*
X35452381Y-18604819D02*
X35547619Y-18652438D01*
X35547619Y-18652438D02*
X35595238Y-18700057D01*
X35595238Y-18700057D02*
X35642857Y-18795295D01*
X35642857Y-18795295D02*
X35642857Y-18890533D01*
X35642857Y-18890533D02*
X35595238Y-19033390D01*
X35595238Y-19033390D02*
X35023810Y-19604819D01*
X35023810Y-19604819D02*
X35642857Y-19604819D01*
X36071429Y-19604819D02*
X36071429Y-18938152D01*
X36071429Y-19033390D02*
X36119048Y-18985771D01*
X36119048Y-18985771D02*
X36214286Y-18938152D01*
X36214286Y-18938152D02*
X36357143Y-18938152D01*
X36357143Y-18938152D02*
X36452381Y-18985771D01*
X36452381Y-18985771D02*
X36500000Y-19081009D01*
X36500000Y-19081009D02*
X36500000Y-19604819D01*
X36500000Y-19081009D02*
X36547619Y-18985771D01*
X36547619Y-18985771D02*
X36642857Y-18938152D01*
X36642857Y-18938152D02*
X36785714Y-18938152D01*
X36785714Y-18938152D02*
X36880953Y-18985771D01*
X36880953Y-18985771D02*
X36928572Y-19081009D01*
X36928572Y-19081009D02*
X36928572Y-19604819D01*
X37404762Y-19604819D02*
X37404762Y-18938152D01*
X37404762Y-19033390D02*
X37452381Y-18985771D01*
X37452381Y-18985771D02*
X37547619Y-18938152D01*
X37547619Y-18938152D02*
X37690476Y-18938152D01*
X37690476Y-18938152D02*
X37785714Y-18985771D01*
X37785714Y-18985771D02*
X37833333Y-19081009D01*
X37833333Y-19081009D02*
X37833333Y-19604819D01*
X37833333Y-19081009D02*
X37880952Y-18985771D01*
X37880952Y-18985771D02*
X37976190Y-18938152D01*
X37976190Y-18938152D02*
X38119047Y-18938152D01*
X38119047Y-18938152D02*
X38214286Y-18985771D01*
X38214286Y-18985771D02*
X38261905Y-19081009D01*
X38261905Y-19081009D02*
X38261905Y-19604819D01*
X38500000Y-19700057D02*
X39261904Y-19700057D01*
X39500000Y-19604819D02*
X39500000Y-18604819D01*
X39500000Y-18604819D02*
X39833333Y-19319104D01*
X39833333Y-19319104D02*
X40166666Y-18604819D01*
X40166666Y-18604819D02*
X40166666Y-19604819D01*
X40595238Y-18700057D02*
X40642857Y-18652438D01*
X40642857Y-18652438D02*
X40738095Y-18604819D01*
X40738095Y-18604819D02*
X40976190Y-18604819D01*
X40976190Y-18604819D02*
X41071428Y-18652438D01*
X41071428Y-18652438D02*
X41119047Y-18700057D01*
X41119047Y-18700057D02*
X41166666Y-18795295D01*
X41166666Y-18795295D02*
X41166666Y-18890533D01*
X41166666Y-18890533D02*
X41119047Y-19033390D01*
X41119047Y-19033390D02*
X40547619Y-19604819D01*
X40547619Y-19604819D02*
X41166666Y-19604819D01*
X31238095Y-16454819D02*
X31238095Y-15454819D01*
X31238095Y-15931009D02*
X31809523Y-15931009D01*
X31809523Y-16454819D02*
X31809523Y-15454819D01*
X32238095Y-15550057D02*
X32285714Y-15502438D01*
X32285714Y-15502438D02*
X32380952Y-15454819D01*
X32380952Y-15454819D02*
X32619047Y-15454819D01*
X32619047Y-15454819D02*
X32714285Y-15502438D01*
X32714285Y-15502438D02*
X32761904Y-15550057D01*
X32761904Y-15550057D02*
X32809523Y-15645295D01*
X32809523Y-15645295D02*
X32809523Y-15740533D01*
X32809523Y-15740533D02*
X32761904Y-15883390D01*
X32761904Y-15883390D02*
X32190476Y-16454819D01*
X32190476Y-16454819D02*
X32809523Y-16454819D01*
D10*
X4483549Y-13808333D02*
X4245454Y-13974999D01*
X4483549Y-14094047D02*
X3983549Y-14094047D01*
X3983549Y-14094047D02*
X3983549Y-13903571D01*
X3983549Y-13903571D02*
X4007359Y-13855952D01*
X4007359Y-13855952D02*
X4031168Y-13832142D01*
X4031168Y-13832142D02*
X4078787Y-13808333D01*
X4078787Y-13808333D02*
X4150216Y-13808333D01*
X4150216Y-13808333D02*
X4197835Y-13832142D01*
X4197835Y-13832142D02*
X4221644Y-13855952D01*
X4221644Y-13855952D02*
X4245454Y-13903571D01*
X4245454Y-13903571D02*
X4245454Y-14094047D01*
X4483549Y-13332142D02*
X4483549Y-13617856D01*
X4483549Y-13474999D02*
X3983549Y-13474999D01*
X3983549Y-13474999D02*
X4054978Y-13522618D01*
X4054978Y-13522618D02*
X4102597Y-13570237D01*
X4102597Y-13570237D02*
X4126406Y-13617856D01*
D14*
X9827664Y-3512013D02*
X9865760Y-3550109D01*
X9865760Y-3550109D02*
X9903855Y-3664394D01*
X9903855Y-3664394D02*
X9903855Y-3740585D01*
X9903855Y-3740585D02*
X9865760Y-3854871D01*
X9865760Y-3854871D02*
X9789569Y-3931061D01*
X9789569Y-3931061D02*
X9713379Y-3969156D01*
X9713379Y-3969156D02*
X9560998Y-4007252D01*
X9560998Y-4007252D02*
X9446712Y-4007252D01*
X9446712Y-4007252D02*
X9294331Y-3969156D01*
X9294331Y-3969156D02*
X9218140Y-3931061D01*
X9218140Y-3931061D02*
X9141950Y-3854871D01*
X9141950Y-3854871D02*
X9103855Y-3740585D01*
X9103855Y-3740585D02*
X9103855Y-3664394D01*
X9103855Y-3664394D02*
X9141950Y-3550109D01*
X9141950Y-3550109D02*
X9180045Y-3512013D01*
X9903855Y-3169156D02*
X9370521Y-3169156D01*
X9103855Y-3169156D02*
X9141950Y-3207252D01*
X9141950Y-3207252D02*
X9180045Y-3169156D01*
X9180045Y-3169156D02*
X9141950Y-3131061D01*
X9141950Y-3131061D02*
X9103855Y-3169156D01*
X9103855Y-3169156D02*
X9180045Y-3169156D01*
X9370521Y-2788204D02*
X9903855Y-2788204D01*
X9446712Y-2788204D02*
X9408617Y-2750109D01*
X9408617Y-2750109D02*
X9370521Y-2673919D01*
X9370521Y-2673919D02*
X9370521Y-2559633D01*
X9370521Y-2559633D02*
X9408617Y-2483442D01*
X9408617Y-2483442D02*
X9484807Y-2445347D01*
X9484807Y-2445347D02*
X9903855Y-2445347D01*
X9180045Y-2102490D02*
X9141950Y-2064394D01*
X9141950Y-2064394D02*
X9103855Y-1988204D01*
X9103855Y-1988204D02*
X9103855Y-1797728D01*
X9103855Y-1797728D02*
X9141950Y-1721537D01*
X9141950Y-1721537D02*
X9180045Y-1683442D01*
X9180045Y-1683442D02*
X9256236Y-1645347D01*
X9256236Y-1645347D02*
X9332426Y-1645347D01*
X9332426Y-1645347D02*
X9446712Y-1683442D01*
X9446712Y-1683442D02*
X9903855Y-2140585D01*
X9903855Y-2140585D02*
X9903855Y-1645347D01*
D11*
X-5119047Y-7604819D02*
X-5119047Y-6604819D01*
X-5119047Y-6604819D02*
X-4785714Y-7319104D01*
X-4785714Y-7319104D02*
X-4452381Y-6604819D01*
X-4452381Y-6604819D02*
X-4452381Y-7604819D01*
X-3833333Y-7604819D02*
X-3928571Y-7557200D01*
X-3928571Y-7557200D02*
X-3976190Y-7509580D01*
X-3976190Y-7509580D02*
X-4023809Y-7414342D01*
X-4023809Y-7414342D02*
X-4023809Y-7128628D01*
X-4023809Y-7128628D02*
X-3976190Y-7033390D01*
X-3976190Y-7033390D02*
X-3928571Y-6985771D01*
X-3928571Y-6985771D02*
X-3833333Y-6938152D01*
X-3833333Y-6938152D02*
X-3690476Y-6938152D01*
X-3690476Y-6938152D02*
X-3595238Y-6985771D01*
X-3595238Y-6985771D02*
X-3547619Y-7033390D01*
X-3547619Y-7033390D02*
X-3500000Y-7128628D01*
X-3500000Y-7128628D02*
X-3500000Y-7414342D01*
X-3500000Y-7414342D02*
X-3547619Y-7509580D01*
X-3547619Y-7509580D02*
X-3595238Y-7557200D01*
X-3595238Y-7557200D02*
X-3690476Y-7604819D01*
X-3690476Y-7604819D02*
X-3833333Y-7604819D01*
X-2642857Y-6938152D02*
X-2642857Y-7604819D01*
X-3071428Y-6938152D02*
X-3071428Y-7461961D01*
X-3071428Y-7461961D02*
X-3023809Y-7557200D01*
X-3023809Y-7557200D02*
X-2928571Y-7604819D01*
X-2928571Y-7604819D02*
X-2785714Y-7604819D01*
X-2785714Y-7604819D02*
X-2690476Y-7557200D01*
X-2690476Y-7557200D02*
X-2642857Y-7509580D01*
X-2166666Y-6938152D02*
X-2166666Y-7604819D01*
X-2166666Y-7033390D02*
X-2119047Y-6985771D01*
X-2119047Y-6985771D02*
X-2023809Y-6938152D01*
X-2023809Y-6938152D02*
X-1880952Y-6938152D01*
X-1880952Y-6938152D02*
X-1785714Y-6985771D01*
X-1785714Y-6985771D02*
X-1738095Y-7081009D01*
X-1738095Y-7081009D02*
X-1738095Y-7604819D01*
X-1404761Y-6938152D02*
X-1023809Y-6938152D01*
X-1261904Y-6604819D02*
X-1261904Y-7461961D01*
X-1261904Y-7461961D02*
X-1214285Y-7557200D01*
X-1214285Y-7557200D02*
X-1119047Y-7604819D01*
X-1119047Y-7604819D02*
X-1023809Y-7604819D01*
X-690475Y-7604819D02*
X-690475Y-6938152D01*
X-690475Y-6604819D02*
X-738094Y-6652438D01*
X-738094Y-6652438D02*
X-690475Y-6700057D01*
X-690475Y-6700057D02*
X-642856Y-6652438D01*
X-642856Y-6652438D02*
X-690475Y-6604819D01*
X-690475Y-6604819D02*
X-690475Y-6700057D01*
X-214285Y-6938152D02*
X-214285Y-7604819D01*
X-214285Y-7033390D02*
X-166666Y-6985771D01*
X-166666Y-6985771D02*
X-71428Y-6938152D01*
X-71428Y-6938152D02*
X71428Y-6938152D01*
X71428Y-6938152D02*
X166666Y-6985771D01*
X166666Y-6985771D02*
X214285Y-7081009D01*
X214285Y-7081009D02*
X214285Y-7604819D01*
X1119047Y-6938152D02*
X1119047Y-7747676D01*
X1119047Y-7747676D02*
X1071428Y-7842914D01*
X1071428Y-7842914D02*
X1023809Y-7890533D01*
X1023809Y-7890533D02*
X928571Y-7938152D01*
X928571Y-7938152D02*
X785714Y-7938152D01*
X785714Y-7938152D02*
X690476Y-7890533D01*
X1119047Y-7557200D02*
X1023809Y-7604819D01*
X1023809Y-7604819D02*
X833333Y-7604819D01*
X833333Y-7604819D02*
X738095Y-7557200D01*
X738095Y-7557200D02*
X690476Y-7509580D01*
X690476Y-7509580D02*
X642857Y-7414342D01*
X642857Y-7414342D02*
X642857Y-7128628D01*
X642857Y-7128628D02*
X690476Y-7033390D01*
X690476Y-7033390D02*
X738095Y-6985771D01*
X738095Y-6985771D02*
X833333Y-6938152D01*
X833333Y-6938152D02*
X1023809Y-6938152D01*
X1023809Y-6938152D02*
X1119047Y-6985771D01*
X1595238Y-7604819D02*
X1595238Y-6604819D01*
X1595238Y-7081009D02*
X2166666Y-7081009D01*
X2166666Y-7604819D02*
X2166666Y-6604819D01*
X2785714Y-7604819D02*
X2690476Y-7557200D01*
X2690476Y-7557200D02*
X2642857Y-7509580D01*
X2642857Y-7509580D02*
X2595238Y-7414342D01*
X2595238Y-7414342D02*
X2595238Y-7128628D01*
X2595238Y-7128628D02*
X2642857Y-7033390D01*
X2642857Y-7033390D02*
X2690476Y-6985771D01*
X2690476Y-6985771D02*
X2785714Y-6938152D01*
X2785714Y-6938152D02*
X2928571Y-6938152D01*
X2928571Y-6938152D02*
X3023809Y-6985771D01*
X3023809Y-6985771D02*
X3071428Y-7033390D01*
X3071428Y-7033390D02*
X3119047Y-7128628D01*
X3119047Y-7128628D02*
X3119047Y-7414342D01*
X3119047Y-7414342D02*
X3071428Y-7509580D01*
X3071428Y-7509580D02*
X3023809Y-7557200D01*
X3023809Y-7557200D02*
X2928571Y-7604819D01*
X2928571Y-7604819D02*
X2785714Y-7604819D01*
X3690476Y-7604819D02*
X3595238Y-7557200D01*
X3595238Y-7557200D02*
X3547619Y-7461961D01*
X3547619Y-7461961D02*
X3547619Y-6604819D01*
X4452381Y-7557200D02*
X4357143Y-7604819D01*
X4357143Y-7604819D02*
X4166667Y-7604819D01*
X4166667Y-7604819D02*
X4071429Y-7557200D01*
X4071429Y-7557200D02*
X4023810Y-7461961D01*
X4023810Y-7461961D02*
X4023810Y-7081009D01*
X4023810Y-7081009D02*
X4071429Y-6985771D01*
X4071429Y-6985771D02*
X4166667Y-6938152D01*
X4166667Y-6938152D02*
X4357143Y-6938152D01*
X4357143Y-6938152D02*
X4452381Y-6985771D01*
X4452381Y-6985771D02*
X4500000Y-7081009D01*
X4500000Y-7081009D02*
X4500000Y-7176247D01*
X4500000Y-7176247D02*
X4023810Y-7271485D01*
X4690477Y-7700057D02*
X5452381Y-7700057D01*
X5642858Y-6700057D02*
X5690477Y-6652438D01*
X5690477Y-6652438D02*
X5785715Y-6604819D01*
X5785715Y-6604819D02*
X6023810Y-6604819D01*
X6023810Y-6604819D02*
X6119048Y-6652438D01*
X6119048Y-6652438D02*
X6166667Y-6700057D01*
X6166667Y-6700057D02*
X6214286Y-6795295D01*
X6214286Y-6795295D02*
X6214286Y-6890533D01*
X6214286Y-6890533D02*
X6166667Y-7033390D01*
X6166667Y-7033390D02*
X5595239Y-7604819D01*
X5595239Y-7604819D02*
X6214286Y-7604819D01*
X6642858Y-7509580D02*
X6690477Y-7557200D01*
X6690477Y-7557200D02*
X6642858Y-7604819D01*
X6642858Y-7604819D02*
X6595239Y-7557200D01*
X6595239Y-7557200D02*
X6642858Y-7509580D01*
X6642858Y-7509580D02*
X6642858Y-7604819D01*
X7071429Y-6700057D02*
X7119048Y-6652438D01*
X7119048Y-6652438D02*
X7214286Y-6604819D01*
X7214286Y-6604819D02*
X7452381Y-6604819D01*
X7452381Y-6604819D02*
X7547619Y-6652438D01*
X7547619Y-6652438D02*
X7595238Y-6700057D01*
X7595238Y-6700057D02*
X7642857Y-6795295D01*
X7642857Y-6795295D02*
X7642857Y-6890533D01*
X7642857Y-6890533D02*
X7595238Y-7033390D01*
X7595238Y-7033390D02*
X7023810Y-7604819D01*
X7023810Y-7604819D02*
X7642857Y-7604819D01*
X8071429Y-7604819D02*
X8071429Y-6938152D01*
X8071429Y-7033390D02*
X8119048Y-6985771D01*
X8119048Y-6985771D02*
X8214286Y-6938152D01*
X8214286Y-6938152D02*
X8357143Y-6938152D01*
X8357143Y-6938152D02*
X8452381Y-6985771D01*
X8452381Y-6985771D02*
X8500000Y-7081009D01*
X8500000Y-7081009D02*
X8500000Y-7604819D01*
X8500000Y-7081009D02*
X8547619Y-6985771D01*
X8547619Y-6985771D02*
X8642857Y-6938152D01*
X8642857Y-6938152D02*
X8785714Y-6938152D01*
X8785714Y-6938152D02*
X8880953Y-6985771D01*
X8880953Y-6985771D02*
X8928572Y-7081009D01*
X8928572Y-7081009D02*
X8928572Y-7604819D01*
X9404762Y-7604819D02*
X9404762Y-6938152D01*
X9404762Y-7033390D02*
X9452381Y-6985771D01*
X9452381Y-6985771D02*
X9547619Y-6938152D01*
X9547619Y-6938152D02*
X9690476Y-6938152D01*
X9690476Y-6938152D02*
X9785714Y-6985771D01*
X9785714Y-6985771D02*
X9833333Y-7081009D01*
X9833333Y-7081009D02*
X9833333Y-7604819D01*
X9833333Y-7081009D02*
X9880952Y-6985771D01*
X9880952Y-6985771D02*
X9976190Y-6938152D01*
X9976190Y-6938152D02*
X10119047Y-6938152D01*
X10119047Y-6938152D02*
X10214286Y-6985771D01*
X10214286Y-6985771D02*
X10261905Y-7081009D01*
X10261905Y-7081009D02*
X10261905Y-7604819D01*
X10500000Y-7700057D02*
X11261904Y-7700057D01*
X11500000Y-7604819D02*
X11500000Y-6604819D01*
X11500000Y-6604819D02*
X11833333Y-7319104D01*
X11833333Y-7319104D02*
X12166666Y-6604819D01*
X12166666Y-6604819D02*
X12166666Y-7604819D01*
X12595238Y-6700057D02*
X12642857Y-6652438D01*
X12642857Y-6652438D02*
X12738095Y-6604819D01*
X12738095Y-6604819D02*
X12976190Y-6604819D01*
X12976190Y-6604819D02*
X13071428Y-6652438D01*
X13071428Y-6652438D02*
X13119047Y-6700057D01*
X13119047Y-6700057D02*
X13166666Y-6795295D01*
X13166666Y-6795295D02*
X13166666Y-6890533D01*
X13166666Y-6890533D02*
X13119047Y-7033390D01*
X13119047Y-7033390D02*
X12547619Y-7604819D01*
X12547619Y-7604819D02*
X13166666Y-7604819D01*
X3238095Y-4454819D02*
X3238095Y-3454819D01*
X3238095Y-3931009D02*
X3809523Y-3931009D01*
X3809523Y-4454819D02*
X3809523Y-3454819D01*
X4809523Y-4454819D02*
X4238095Y-4454819D01*
X4523809Y-4454819D02*
X4523809Y-3454819D01*
X4523809Y-3454819D02*
X4428571Y-3597676D01*
X4428571Y-3597676D02*
X4333333Y-3692914D01*
X4333333Y-3692914D02*
X4238095Y-3740533D01*
X8611219Y-15266904D02*
X9420742Y-15266904D01*
X9420742Y-15266904D02*
X9515980Y-15219285D01*
X9515980Y-15219285D02*
X9563600Y-15171666D01*
X9563600Y-15171666D02*
X9611219Y-15076428D01*
X9611219Y-15076428D02*
X9611219Y-14885952D01*
X9611219Y-14885952D02*
X9563600Y-14790714D01*
X9563600Y-14790714D02*
X9515980Y-14743095D01*
X9515980Y-14743095D02*
X9420742Y-14695476D01*
X9420742Y-14695476D02*
X8611219Y-14695476D01*
X9611219Y-13695476D02*
X9611219Y-14266904D01*
X9611219Y-13981190D02*
X8611219Y-13981190D01*
X8611219Y-13981190D02*
X8754076Y-14076428D01*
X8754076Y-14076428D02*
X8849314Y-14171666D01*
X8849314Y-14171666D02*
X8896933Y-14266904D01*
D13*
X12258832Y-6073566D02*
X12277880Y-6092614D01*
X12277880Y-6092614D02*
X12296927Y-6149756D01*
X12296927Y-6149756D02*
X12296927Y-6187852D01*
X12296927Y-6187852D02*
X12277880Y-6244995D01*
X12277880Y-6244995D02*
X12239784Y-6283090D01*
X12239784Y-6283090D02*
X12201689Y-6302137D01*
X12201689Y-6302137D02*
X12125499Y-6321185D01*
X12125499Y-6321185D02*
X12068356Y-6321185D01*
X12068356Y-6321185D02*
X11992165Y-6302137D01*
X11992165Y-6302137D02*
X11954070Y-6283090D01*
X11954070Y-6283090D02*
X11915975Y-6244995D01*
X11915975Y-6244995D02*
X11896927Y-6187852D01*
X11896927Y-6187852D02*
X11896927Y-6149756D01*
X11896927Y-6149756D02*
X11915975Y-6092614D01*
X11915975Y-6092614D02*
X11935022Y-6073566D01*
X12296927Y-5692614D02*
X12296927Y-5921185D01*
X12296927Y-5806899D02*
X11896927Y-5806899D01*
X11896927Y-5806899D02*
X11954070Y-5844995D01*
X11954070Y-5844995D02*
X11992165Y-5883090D01*
X11992165Y-5883090D02*
X12011213Y-5921185D01*
D14*
X24080564Y-13285713D02*
X24118660Y-13323809D01*
X24118660Y-13323809D02*
X24156755Y-13438094D01*
X24156755Y-13438094D02*
X24156755Y-13514285D01*
X24156755Y-13514285D02*
X24118660Y-13628571D01*
X24118660Y-13628571D02*
X24042469Y-13704761D01*
X24042469Y-13704761D02*
X23966279Y-13742856D01*
X23966279Y-13742856D02*
X23813898Y-13780952D01*
X23813898Y-13780952D02*
X23699612Y-13780952D01*
X23699612Y-13780952D02*
X23547231Y-13742856D01*
X23547231Y-13742856D02*
X23471040Y-13704761D01*
X23471040Y-13704761D02*
X23394850Y-13628571D01*
X23394850Y-13628571D02*
X23356755Y-13514285D01*
X23356755Y-13514285D02*
X23356755Y-13438094D01*
X23356755Y-13438094D02*
X23394850Y-13323809D01*
X23394850Y-13323809D02*
X23432945Y-13285713D01*
X24156755Y-12942856D02*
X23623421Y-12942856D01*
X23356755Y-12942856D02*
X23394850Y-12980952D01*
X23394850Y-12980952D02*
X23432945Y-12942856D01*
X23432945Y-12942856D02*
X23394850Y-12904761D01*
X23394850Y-12904761D02*
X23356755Y-12942856D01*
X23356755Y-12942856D02*
X23432945Y-12942856D01*
X23623421Y-12561904D02*
X24156755Y-12561904D01*
X23699612Y-12561904D02*
X23661517Y-12523809D01*
X23661517Y-12523809D02*
X23623421Y-12447619D01*
X23623421Y-12447619D02*
X23623421Y-12333333D01*
X23623421Y-12333333D02*
X23661517Y-12257142D01*
X23661517Y-12257142D02*
X23737707Y-12219047D01*
X23737707Y-12219047D02*
X24156755Y-12219047D01*
X24156755Y-11419047D02*
X24156755Y-11876190D01*
X24156755Y-11647618D02*
X23356755Y-11647618D01*
X23356755Y-11647618D02*
X23471040Y-11723809D01*
X23471040Y-11723809D02*
X23547231Y-11799999D01*
X23547231Y-11799999D02*
X23585326Y-11876190D01*
D12*
X35438000Y-4842342D02*
X35314191Y-4929009D01*
X35438000Y-4990914D02*
X35178000Y-4990914D01*
X35178000Y-4990914D02*
X35178000Y-4891866D01*
X35178000Y-4891866D02*
X35190381Y-4867104D01*
X35190381Y-4867104D02*
X35202762Y-4854723D01*
X35202762Y-4854723D02*
X35227524Y-4842342D01*
X35227524Y-4842342D02*
X35264667Y-4842342D01*
X35264667Y-4842342D02*
X35289429Y-4854723D01*
X35289429Y-4854723D02*
X35301810Y-4867104D01*
X35301810Y-4867104D02*
X35314191Y-4891866D01*
X35314191Y-4891866D02*
X35314191Y-4990914D01*
X35301810Y-4730914D02*
X35301810Y-4644247D01*
X35438000Y-4607104D02*
X35438000Y-4730914D01*
X35438000Y-4730914D02*
X35178000Y-4730914D01*
X35178000Y-4730914D02*
X35178000Y-4607104D01*
X35438000Y-4495676D02*
X35178000Y-4495676D01*
X35178000Y-4495676D02*
X35438000Y-4347104D01*
X35438000Y-4347104D02*
X35178000Y-4347104D01*
X35202762Y-4235676D02*
X35190381Y-4223295D01*
X35190381Y-4223295D02*
X35178000Y-4198533D01*
X35178000Y-4198533D02*
X35178000Y-4136628D01*
X35178000Y-4136628D02*
X35190381Y-4111866D01*
X35190381Y-4111866D02*
X35202762Y-4099485D01*
X35202762Y-4099485D02*
X35227524Y-4087104D01*
X35227524Y-4087104D02*
X35252286Y-4087104D01*
X35252286Y-4087104D02*
X35289429Y-4099485D01*
X35289429Y-4099485D02*
X35438000Y-4248057D01*
X35438000Y-4248057D02*
X35438000Y-4087104D01*
X21472665Y-13042233D02*
X21484570Y-13054137D01*
X21484570Y-13054137D02*
X21496474Y-13089852D01*
X21496474Y-13089852D02*
X21496474Y-13113661D01*
X21496474Y-13113661D02*
X21484570Y-13149375D01*
X21484570Y-13149375D02*
X21460760Y-13173185D01*
X21460760Y-13173185D02*
X21436950Y-13185090D01*
X21436950Y-13185090D02*
X21389331Y-13196994D01*
X21389331Y-13196994D02*
X21353617Y-13196994D01*
X21353617Y-13196994D02*
X21305998Y-13185090D01*
X21305998Y-13185090D02*
X21282189Y-13173185D01*
X21282189Y-13173185D02*
X21258379Y-13149375D01*
X21258379Y-13149375D02*
X21246474Y-13113661D01*
X21246474Y-13113661D02*
X21246474Y-13089852D01*
X21246474Y-13089852D02*
X21258379Y-13054137D01*
X21258379Y-13054137D02*
X21270284Y-13042233D01*
X21496474Y-12935090D02*
X21246474Y-12935090D01*
X21341712Y-12935090D02*
X21329808Y-12911280D01*
X21329808Y-12911280D02*
X21329808Y-12863661D01*
X21329808Y-12863661D02*
X21341712Y-12839852D01*
X21341712Y-12839852D02*
X21353617Y-12827947D01*
X21353617Y-12827947D02*
X21377427Y-12816042D01*
X21377427Y-12816042D02*
X21448855Y-12816042D01*
X21448855Y-12816042D02*
X21472665Y-12827947D01*
X21472665Y-12827947D02*
X21484570Y-12839852D01*
X21484570Y-12839852D02*
X21496474Y-12863661D01*
X21496474Y-12863661D02*
X21496474Y-12911280D01*
X21496474Y-12911280D02*
X21484570Y-12935090D01*
X21484570Y-12720804D02*
X21496474Y-12696995D01*
X21496474Y-12696995D02*
X21496474Y-12649376D01*
X21496474Y-12649376D02*
X21484570Y-12625566D01*
X21484570Y-12625566D02*
X21460760Y-12613662D01*
X21460760Y-12613662D02*
X21448855Y-12613662D01*
X21448855Y-12613662D02*
X21425046Y-12625566D01*
X21425046Y-12625566D02*
X21413141Y-12649376D01*
X21413141Y-12649376D02*
X21413141Y-12685090D01*
X21413141Y-12685090D02*
X21401236Y-12708900D01*
X21401236Y-12708900D02*
X21377427Y-12720804D01*
X21377427Y-12720804D02*
X21365522Y-12720804D01*
X21365522Y-12720804D02*
X21341712Y-12708900D01*
X21341712Y-12708900D02*
X21329808Y-12685090D01*
X21329808Y-12685090D02*
X21329808Y-12649376D01*
X21329808Y-12649376D02*
X21341712Y-12625566D01*
X21329808Y-12542233D02*
X21329808Y-12446995D01*
X21246474Y-12506519D02*
X21460760Y-12506519D01*
X21460760Y-12506519D02*
X21484570Y-12494614D01*
X21484570Y-12494614D02*
X21496474Y-12470804D01*
X21496474Y-12470804D02*
X21496474Y-12446995D01*
X10817400Y-17898200D02*
X10730733Y-17774391D01*
X10668828Y-17898200D02*
X10668828Y-17638200D01*
X10668828Y-17638200D02*
X10767876Y-17638200D01*
X10767876Y-17638200D02*
X10792638Y-17650581D01*
X10792638Y-17650581D02*
X10805019Y-17662962D01*
X10805019Y-17662962D02*
X10817400Y-17687724D01*
X10817400Y-17687724D02*
X10817400Y-17724867D01*
X10817400Y-17724867D02*
X10805019Y-17749629D01*
X10805019Y-17749629D02*
X10792638Y-17762010D01*
X10792638Y-17762010D02*
X10767876Y-17774391D01*
X10767876Y-17774391D02*
X10668828Y-17774391D01*
X10928828Y-17898200D02*
X10928828Y-17638200D01*
X10928828Y-17638200D02*
X10990733Y-17638200D01*
X10990733Y-17638200D02*
X11027876Y-17650581D01*
X11027876Y-17650581D02*
X11052638Y-17675343D01*
X11052638Y-17675343D02*
X11065019Y-17700105D01*
X11065019Y-17700105D02*
X11077400Y-17749629D01*
X11077400Y-17749629D02*
X11077400Y-17786772D01*
X11077400Y-17786772D02*
X11065019Y-17836296D01*
X11065019Y-17836296D02*
X11052638Y-17861058D01*
X11052638Y-17861058D02*
X11027876Y-17885820D01*
X11027876Y-17885820D02*
X10990733Y-17898200D01*
X10990733Y-17898200D02*
X10928828Y-17898200D01*
X11188828Y-17898200D02*
X11188828Y-17638200D01*
X11312638Y-17898200D02*
X11312638Y-17638200D01*
X11312638Y-17638200D02*
X11399305Y-17823915D01*
X11399305Y-17823915D02*
X11485972Y-17638200D01*
X11485972Y-17638200D02*
X11485972Y-17898200D01*
X13794600Y-13460961D02*
X13670791Y-13547628D01*
X13794600Y-13609533D02*
X13534600Y-13609533D01*
X13534600Y-13609533D02*
X13534600Y-13510485D01*
X13534600Y-13510485D02*
X13546981Y-13485723D01*
X13546981Y-13485723D02*
X13559362Y-13473342D01*
X13559362Y-13473342D02*
X13584124Y-13460961D01*
X13584124Y-13460961D02*
X13621267Y-13460961D01*
X13621267Y-13460961D02*
X13646029Y-13473342D01*
X13646029Y-13473342D02*
X13658410Y-13485723D01*
X13658410Y-13485723D02*
X13670791Y-13510485D01*
X13670791Y-13510485D02*
X13670791Y-13609533D01*
X13658410Y-13262866D02*
X13658410Y-13349533D01*
X13794600Y-13349533D02*
X13534600Y-13349533D01*
X13534600Y-13349533D02*
X13534600Y-13225723D01*
X13658410Y-13040009D02*
X13670791Y-13002866D01*
X13670791Y-13002866D02*
X13683172Y-12990485D01*
X13683172Y-12990485D02*
X13707934Y-12978104D01*
X13707934Y-12978104D02*
X13745077Y-12978104D01*
X13745077Y-12978104D02*
X13769839Y-12990485D01*
X13769839Y-12990485D02*
X13782220Y-13002866D01*
X13782220Y-13002866D02*
X13794600Y-13027628D01*
X13794600Y-13027628D02*
X13794600Y-13126676D01*
X13794600Y-13126676D02*
X13534600Y-13126676D01*
X13534600Y-13126676D02*
X13534600Y-13040009D01*
X13534600Y-13040009D02*
X13546981Y-13015247D01*
X13546981Y-13015247D02*
X13559362Y-13002866D01*
X13559362Y-13002866D02*
X13584124Y-12990485D01*
X13584124Y-12990485D02*
X13608886Y-12990485D01*
X13608886Y-12990485D02*
X13633648Y-13002866D01*
X13633648Y-13002866D02*
X13646029Y-13015247D01*
X13646029Y-13015247D02*
X13658410Y-13040009D01*
X13658410Y-13040009D02*
X13658410Y-13126676D01*
X13559362Y-12879057D02*
X13546981Y-12866676D01*
X13546981Y-12866676D02*
X13534600Y-12841914D01*
X13534600Y-12841914D02*
X13534600Y-12780009D01*
X13534600Y-12780009D02*
X13546981Y-12755247D01*
X13546981Y-12755247D02*
X13559362Y-12742866D01*
X13559362Y-12742866D02*
X13584124Y-12730485D01*
X13584124Y-12730485D02*
X13608886Y-12730485D01*
X13608886Y-12730485D02*
X13646029Y-12742866D01*
X13646029Y-12742866D02*
X13794600Y-12891438D01*
X13794600Y-12891438D02*
X13794600Y-12730485D01*
D11*
X32754819Y-15608533D02*
X33469104Y-15608533D01*
X33469104Y-15608533D02*
X33611961Y-15656152D01*
X33611961Y-15656152D02*
X33707200Y-15751390D01*
X33707200Y-15751390D02*
X33754819Y-15894247D01*
X33754819Y-15894247D02*
X33754819Y-15989485D01*
X33754819Y-14608533D02*
X33754819Y-15179961D01*
X33754819Y-14894247D02*
X32754819Y-14894247D01*
X32754819Y-14894247D02*
X32897676Y-14989485D01*
X32897676Y-14989485D02*
X32992914Y-15084723D01*
X32992914Y-15084723D02*
X33040533Y-15179961D01*
D12*
X16144765Y-14860976D02*
X16156670Y-14872880D01*
X16156670Y-14872880D02*
X16168574Y-14908595D01*
X16168574Y-14908595D02*
X16168574Y-14932404D01*
X16168574Y-14932404D02*
X16156670Y-14968118D01*
X16156670Y-14968118D02*
X16132860Y-14991928D01*
X16132860Y-14991928D02*
X16109050Y-15003833D01*
X16109050Y-15003833D02*
X16061431Y-15015737D01*
X16061431Y-15015737D02*
X16025717Y-15015737D01*
X16025717Y-15015737D02*
X15978098Y-15003833D01*
X15978098Y-15003833D02*
X15954289Y-14991928D01*
X15954289Y-14991928D02*
X15930479Y-14968118D01*
X15930479Y-14968118D02*
X15918574Y-14932404D01*
X15918574Y-14932404D02*
X15918574Y-14908595D01*
X15918574Y-14908595D02*
X15930479Y-14872880D01*
X15930479Y-14872880D02*
X15942384Y-14860976D01*
X16001908Y-14789547D02*
X16001908Y-14694309D01*
X16168574Y-14753833D02*
X15954289Y-14753833D01*
X15954289Y-14753833D02*
X15930479Y-14741928D01*
X15930479Y-14741928D02*
X15918574Y-14718118D01*
X15918574Y-14718118D02*
X15918574Y-14694309D01*
X16001908Y-14646690D02*
X16001908Y-14551452D01*
X16168574Y-14610976D02*
X15954289Y-14610976D01*
X15954289Y-14610976D02*
X15930479Y-14599071D01*
X15930479Y-14599071D02*
X15918574Y-14575261D01*
X15918574Y-14575261D02*
X15918574Y-14551452D01*
X7238200Y-4036142D02*
X7114391Y-4122809D01*
X7238200Y-4184714D02*
X6978200Y-4184714D01*
X6978200Y-4184714D02*
X6978200Y-4085666D01*
X6978200Y-4085666D02*
X6990581Y-4060904D01*
X6990581Y-4060904D02*
X7002962Y-4048523D01*
X7002962Y-4048523D02*
X7027724Y-4036142D01*
X7027724Y-4036142D02*
X7064867Y-4036142D01*
X7064867Y-4036142D02*
X7089629Y-4048523D01*
X7089629Y-4048523D02*
X7102010Y-4060904D01*
X7102010Y-4060904D02*
X7114391Y-4085666D01*
X7114391Y-4085666D02*
X7114391Y-4184714D01*
X7102010Y-3924714D02*
X7102010Y-3838047D01*
X7238200Y-3800904D02*
X7238200Y-3924714D01*
X7238200Y-3924714D02*
X6978200Y-3924714D01*
X6978200Y-3924714D02*
X6978200Y-3800904D01*
X7238200Y-3689476D02*
X6978200Y-3689476D01*
X6978200Y-3689476D02*
X7238200Y-3540904D01*
X7238200Y-3540904D02*
X6978200Y-3540904D01*
X7238200Y-3280904D02*
X7238200Y-3429476D01*
X7238200Y-3355190D02*
X6978200Y-3355190D01*
X6978200Y-3355190D02*
X7015343Y-3379952D01*
X7015343Y-3379952D02*
X7040105Y-3404714D01*
X7040105Y-3404714D02*
X7052486Y-3429476D01*
D11*
X21564666Y-6154819D02*
X21564666Y-6869104D01*
X21564666Y-6869104D02*
X21517047Y-7011961D01*
X21517047Y-7011961D02*
X21421809Y-7107200D01*
X21421809Y-7107200D02*
X21278952Y-7154819D01*
X21278952Y-7154819D02*
X21183714Y-7154819D01*
X21993238Y-6250057D02*
X22040857Y-6202438D01*
X22040857Y-6202438D02*
X22136095Y-6154819D01*
X22136095Y-6154819D02*
X22374190Y-6154819D01*
X22374190Y-6154819D02*
X22469428Y-6202438D01*
X22469428Y-6202438D02*
X22517047Y-6250057D01*
X22517047Y-6250057D02*
X22564666Y-6345295D01*
X22564666Y-6345295D02*
X22564666Y-6440533D01*
X22564666Y-6440533D02*
X22517047Y-6583390D01*
X22517047Y-6583390D02*
X21945619Y-7154819D01*
X21945619Y-7154819D02*
X22564666Y-7154819D01*
D14*
X36264285Y-9812864D02*
X36226189Y-9850960D01*
X36226189Y-9850960D02*
X36111904Y-9889055D01*
X36111904Y-9889055D02*
X36035713Y-9889055D01*
X36035713Y-9889055D02*
X35921427Y-9850960D01*
X35921427Y-9850960D02*
X35845237Y-9774769D01*
X35845237Y-9774769D02*
X35807142Y-9698579D01*
X35807142Y-9698579D02*
X35769046Y-9546198D01*
X35769046Y-9546198D02*
X35769046Y-9431912D01*
X35769046Y-9431912D02*
X35807142Y-9279531D01*
X35807142Y-9279531D02*
X35845237Y-9203340D01*
X35845237Y-9203340D02*
X35921427Y-9127150D01*
X35921427Y-9127150D02*
X36035713Y-9089055D01*
X36035713Y-9089055D02*
X36111904Y-9089055D01*
X36111904Y-9089055D02*
X36226189Y-9127150D01*
X36226189Y-9127150D02*
X36264285Y-9165245D01*
X36721427Y-9889055D02*
X36645237Y-9850960D01*
X36645237Y-9850960D02*
X36607142Y-9812864D01*
X36607142Y-9812864D02*
X36569046Y-9736674D01*
X36569046Y-9736674D02*
X36569046Y-9508102D01*
X36569046Y-9508102D02*
X36607142Y-9431912D01*
X36607142Y-9431912D02*
X36645237Y-9393817D01*
X36645237Y-9393817D02*
X36721427Y-9355721D01*
X36721427Y-9355721D02*
X36835713Y-9355721D01*
X36835713Y-9355721D02*
X36911904Y-9393817D01*
X36911904Y-9393817D02*
X36949999Y-9431912D01*
X36949999Y-9431912D02*
X36988094Y-9508102D01*
X36988094Y-9508102D02*
X36988094Y-9736674D01*
X36988094Y-9736674D02*
X36949999Y-9812864D01*
X36949999Y-9812864D02*
X36911904Y-9850960D01*
X36911904Y-9850960D02*
X36835713Y-9889055D01*
X36835713Y-9889055D02*
X36721427Y-9889055D01*
X37673809Y-9355721D02*
X37673809Y-9889055D01*
X37330952Y-9355721D02*
X37330952Y-9774769D01*
X37330952Y-9774769D02*
X37369047Y-9850960D01*
X37369047Y-9850960D02*
X37445237Y-9889055D01*
X37445237Y-9889055D02*
X37559523Y-9889055D01*
X37559523Y-9889055D02*
X37635714Y-9850960D01*
X37635714Y-9850960D02*
X37673809Y-9812864D01*
X37940476Y-9355721D02*
X38245238Y-9355721D01*
X38054762Y-9089055D02*
X38054762Y-9774769D01*
X38054762Y-9774769D02*
X38092857Y-9850960D01*
X38092857Y-9850960D02*
X38169047Y-9889055D01*
X38169047Y-9889055D02*
X38245238Y-9889055D01*
X38930952Y-9889055D02*
X38473809Y-9889055D01*
X38702381Y-9889055D02*
X38702381Y-9089055D01*
X38702381Y-9089055D02*
X38626190Y-9203340D01*
X38626190Y-9203340D02*
X38550000Y-9279531D01*
X38550000Y-9279531D02*
X38473809Y-9317626D01*
D11*
X6604605Y-8604819D02*
X6604605Y-7604819D01*
X6604605Y-7604819D02*
X6842700Y-7604819D01*
X6842700Y-7604819D02*
X6985557Y-7652438D01*
X6985557Y-7652438D02*
X7080795Y-7747676D01*
X7080795Y-7747676D02*
X7128414Y-7842914D01*
X7128414Y-7842914D02*
X7176033Y-8033390D01*
X7176033Y-8033390D02*
X7176033Y-8176247D01*
X7176033Y-8176247D02*
X7128414Y-8366723D01*
X7128414Y-8366723D02*
X7080795Y-8461961D01*
X7080795Y-8461961D02*
X6985557Y-8557200D01*
X6985557Y-8557200D02*
X6842700Y-8604819D01*
X6842700Y-8604819D02*
X6604605Y-8604819D01*
X8128414Y-8604819D02*
X7556986Y-8604819D01*
X7842700Y-8604819D02*
X7842700Y-7604819D01*
X7842700Y-7604819D02*
X7747462Y-7747676D01*
X7747462Y-7747676D02*
X7652224Y-7842914D01*
X7652224Y-7842914D02*
X7556986Y-7890533D01*
%TO.C,R2*%
D15*
X25327600Y-16023600D02*
X26577600Y-16023600D01*
X26577600Y-18023600D01*
X25327600Y-18023600D01*
X25327600Y-16023600D01*
%TO.C,L1*%
X3231900Y-4250000D02*
X3231900Y-6500000D01*
X3231900Y-4250000D02*
X10531900Y-4250000D01*
X3231900Y-11550000D02*
X3231900Y-9300000D01*
X10531900Y-4250000D02*
X10531900Y-6500000D01*
X10531900Y-11550000D02*
X3231900Y-11550000D01*
X10531900Y-11550000D02*
X10531900Y-9300000D01*
X4591900Y-5610000D02*
G75*
G02*
X9171900Y-5610000I2290000J-2290000D01*
G01*
X9171900Y-10190000D02*
G75*
G02*
X4591900Y-10190000I-2290000J2290000D01*
G01*
%TO.C,Cout3*%
X23242600Y-16523800D02*
X24242600Y-16523800D01*
X24242600Y-17023800D01*
X23242600Y-17023800D01*
X23242600Y-16523800D01*
%TO.C,D2*%
X28848000Y-10188500D02*
X28848000Y-6188500D01*
X30498560Y-7389420D02*
X30498560Y-8989620D01*
X30498560Y-8189520D02*
X29596860Y-8189520D01*
X30498560Y-8189520D02*
X31649180Y-7389420D01*
X30498560Y-8189520D02*
X31649180Y-8938820D01*
X31649180Y-8189520D02*
X32647400Y-8189520D01*
X31649180Y-8938820D02*
X31649180Y-7389420D01*
X33448000Y-6188500D02*
X28848000Y-6188500D01*
X33448000Y-6188500D02*
X33448000Y-10188500D01*
X33448000Y-10188500D02*
X28848000Y-10188500D01*
%TO.C,RFB1*%
X28610000Y-12294500D02*
X29150000Y-12294500D01*
X29150000Y-13344500D01*
X28610000Y-13344500D01*
X28610000Y-12294500D01*
%TO.C,Cin3*%
X28182100Y-2848500D02*
X28982100Y-2848500D01*
X28982100Y-4448500D01*
X28182100Y-4448500D01*
X28182100Y-2848500D01*
%TO.C,Cout2*%
X35748000Y-6175200D02*
X38948000Y-6175200D01*
X38948000Y-7775200D01*
X35748000Y-7775200D01*
X35748000Y-6175200D01*
%TO.C,R1*%
X3631400Y-12725000D02*
X4881400Y-12725000D01*
X4881400Y-14725000D01*
X3631400Y-14725000D01*
X3631400Y-12725000D01*
%TO.C,Cin2*%
X8290000Y-1226300D02*
X10790000Y-1226300D01*
X10790000Y-4426300D01*
X8290000Y-4426300D01*
X8290000Y-1226300D01*
%TO.C,U1*%
X8181400Y-12055000D02*
X11106400Y-12055000D01*
X11106400Y-16955000D01*
X7206400Y-16955000D01*
X7206400Y-13030000D01*
X8181400Y-12055000D01*
%TO.C,C1*%
X11715000Y-5206900D02*
X12515000Y-5206900D01*
X12515000Y-6806900D01*
X11715000Y-6806900D01*
X11715000Y-5206900D01*
%TO.C,Cin1*%
X22542900Y-11000000D02*
X25042900Y-11000000D01*
X25042900Y-14200000D01*
X22542900Y-14200000D01*
X22542900Y-11000000D01*
%TO.C,REN2*%
X35049800Y-4020200D02*
X35589800Y-4020200D01*
X35589800Y-5070200D01*
X35049800Y-5070200D01*
X35049800Y-4020200D01*
%TO.C,Cbst*%
X21132900Y-12333900D02*
X21632900Y-12333900D01*
X21632900Y-13333900D01*
X21132900Y-13333900D01*
X21132900Y-12333900D01*
%TO.C,RDIM*%
X10552400Y-17510000D02*
X11602400Y-17510000D01*
X11602400Y-18050000D01*
X10552400Y-18050000D01*
X10552400Y-17510000D01*
%TO.C,RFB2*%
X13406400Y-12651200D02*
X13946400Y-12651200D01*
X13946400Y-13701200D01*
X13406400Y-13701200D01*
X13406400Y-12651200D01*
%TO.C,J1*%
X30400000Y-11325200D02*
X30400000Y-19225200D01*
X35692893Y-14275200D02*
X36400000Y-14775200D01*
X36400000Y-12125200D02*
X36400000Y-18425200D01*
X36400000Y-13775200D02*
X35692893Y-14275200D01*
X36400000Y-18425200D02*
X38000000Y-18425200D01*
X38000000Y-11325200D02*
X30400000Y-11325200D01*
X38000000Y-11325200D02*
X38000000Y-12125200D01*
X38000000Y-12125200D02*
X36400000Y-12125200D01*
X38000000Y-18425200D02*
X38000000Y-19225200D01*
X38000000Y-19225200D02*
X30400000Y-19225200D01*
%TO.C,Cff*%
X15805000Y-14295500D02*
X16305000Y-14295500D01*
X16305000Y-15295500D01*
X15805000Y-15295500D01*
X15805000Y-14295500D01*
%TO.C,REN1*%
X6850000Y-3214000D02*
X7390000Y-3214000D01*
X7390000Y-4264000D01*
X6850000Y-4264000D01*
X6850000Y-3214000D01*
%TO.C,J2*%
X16948000Y-2000000D02*
X16948000Y-9600000D01*
X16948000Y-2000000D02*
X17748000Y-2000000D01*
X16948000Y-9600000D02*
X26848000Y-9600000D01*
X17748000Y-2000000D02*
X17748000Y-3600000D01*
X17748000Y-3600000D02*
X26048000Y-3600000D01*
X19398000Y-3600000D02*
X19898000Y-4307107D01*
X19898000Y-4307107D02*
X20398000Y-3600000D01*
X26048000Y-2000000D02*
X26848000Y-2000000D01*
X26048000Y-3600000D02*
X26048000Y-2000000D01*
X26848000Y-2000000D02*
X26848000Y-9600000D01*
%TO.C,Cout1*%
X35750000Y-8725200D02*
X38950000Y-8725200D01*
X38950000Y-10325200D01*
X35750000Y-10325200D01*
X35750000Y-8725200D01*
%TO.C,D1*%
X5042700Y-12150000D02*
X5042700Y-9150000D01*
X6693260Y-9850920D02*
X6693260Y-11451120D01*
X6693260Y-10651020D02*
X5791560Y-10651020D01*
X6693260Y-10651020D02*
X7843880Y-9850920D01*
X6693260Y-10651020D02*
X7843880Y-11400320D01*
X7843880Y-10651020D02*
X8842100Y-10651020D01*
X7843880Y-11400320D02*
X7843880Y-9850920D01*
X9642700Y-9150000D02*
X5042700Y-9150000D01*
X9642700Y-9150000D02*
X9642700Y-12150000D01*
X9642700Y-12150000D02*
X5042700Y-12150000D01*
%TD*%
M02*
