%TF.GenerationSoftware,KiCad,Pcbnew,10.0.3*%
%TF.CreationDate,2026-06-22T06:45:46-07:00*%
%TF.ProjectId,brickdup_psu,62726963-6b64-4757-905f-7073752e6b69,rev?*%
%TF.SameCoordinates,Original*%
%TF.FileFunction,Paste,Top*%
%TF.FilePolarity,Positive*%
%FSLAX46Y46*%
G04 Gerber Fmt 4.6, Leading zero omitted, Abs format (unit mm)*
G04 Created by KiCad (PCBNEW 10.0.3) date 2026-06-22 06:45:46*
%MOMM*%
%LPD*%
G01*
G04 APERTURE LIST*
G04 Aperture macros list*
%AMRoundRect*
0 Rectangle with rounded corners*
0 $1 Rounding radius*
0 $2 $3 $4 $5 $6 $7 $8 $9 X,Y pos of 4 corners*
0 Add a 4 corners polygon primitive as box body*
4,1,4,$2,$3,$4,$5,$6,$7,$8,$9,$2,$3,0*
0 Add four circle primitives for the rounded corners*
1,1,$1+$1,$2,$3*
1,1,$1+$1,$4,$5*
1,1,$1+$1,$6,$7*
1,1,$1+$1,$8,$9*
0 Add four rect primitives between the rounded corners*
20,1,$1+$1,$2,$3,$4,$5,0*
20,1,$1+$1,$4,$5,$6,$7,0*
20,1,$1+$1,$6,$7,$8,$9,0*
20,1,$1+$1,$8,$9,$2,$3,0*%
G04 Aperture macros list end*
%ADD10RoundRect,0.250000X1.100000X-0.325000X1.100000X0.325000X-1.100000X0.325000X-1.100000X-0.325000X0*%
%ADD11RoundRect,0.250000X0.450000X-0.262500X0.450000X0.262500X-0.450000X0.262500X-0.450000X-0.262500X0*%
%ADD12RoundRect,0.140000X-0.140000X-0.170000X0.140000X-0.170000X0.140000X0.170000X-0.140000X0.170000X0*%
%ADD13RoundRect,0.135000X0.185000X-0.135000X0.185000X0.135000X-0.185000X0.135000X-0.185000X-0.135000X0*%
%ADD14RoundRect,0.225000X0.250000X-0.225000X0.250000X0.225000X-0.250000X0.225000X-0.250000X-0.225000X0*%
%ADD15RoundRect,0.250000X-0.250000X-1.500000X0.250000X-1.500000X0.250000X1.500000X-0.250000X1.500000X0*%
%ADD16RoundRect,0.250001X-0.499999X-1.449999X0.499999X-1.449999X0.499999X1.449999X-0.499999X1.449999X0*%
%ADD17RoundRect,0.140000X0.170000X-0.140000X0.170000X0.140000X-0.170000X0.140000X-0.170000X-0.140000X0*%
%ADD18RoundRect,0.250000X-0.325000X-0.650000X0.325000X-0.650000X0.325000X0.650000X-0.325000X0.650000X0*%
%ADD19RoundRect,0.250000X-1.000000X-0.900000X1.000000X-0.900000X1.000000X0.900000X-1.000000X0.900000X0*%
%ADD20RoundRect,0.250000X-1.500000X0.250000X-1.500000X-0.250000X1.500000X-0.250000X1.500000X0.250000X0*%
%ADD21RoundRect,0.250001X-1.449999X0.499999X-1.449999X-0.499999X1.449999X-0.499999X1.449999X0.499999X0*%
%ADD22R,3.000000X6.800000*%
%ADD23RoundRect,0.242500X0.242500X0.422500X-0.242500X0.422500X-0.242500X-0.422500X0.242500X-0.422500X0*%
%ADD24RoundRect,0.150000X0.825000X0.150000X-0.825000X0.150000X-0.825000X-0.150000X0.825000X-0.150000X0*%
%ADD25RoundRect,0.250000X-1.000000X-0.650000X1.000000X-0.650000X1.000000X0.650000X-1.000000X0.650000X0*%
G04 APERTURE END LIST*
D10*
%TO.C,Cin2*%
X11161800Y-16484200D03*
X11161800Y-13534200D03*
%TD*%
D11*
%TO.C,R2*%
X23761800Y-16577500D03*
X23761800Y-14752500D03*
%TD*%
D12*
%TO.C,Cout3*%
X27425200Y-14060000D03*
X28385200Y-14060000D03*
%TD*%
D13*
%TO.C,RFB1*%
X26071100Y-15040000D03*
X26071100Y-14020000D03*
%TD*%
D14*
%TO.C,Cin3*%
X8586800Y-12550000D03*
X8586800Y-11000000D03*
%TD*%
D15*
%TO.C,J2*%
X7580000Y-2350000D03*
X9580000Y-2350000D03*
X11580000Y-2350000D03*
D16*
X5230000Y-8100000D03*
X13930000Y-8100000D03*
%TD*%
D17*
%TO.C,Cbst*%
X29140000Y-5649100D03*
X29140000Y-4689100D03*
%TD*%
D18*
%TO.C,Cout1*%
X3836800Y-12289800D03*
X6786800Y-12289800D03*
%TD*%
%TO.C,Cout2*%
X25925000Y-2759100D03*
X28875000Y-2759100D03*
%TD*%
D13*
%TO.C,RFB2*%
X24078400Y-19130000D03*
X24078400Y-18110000D03*
%TD*%
%TO.C,REN1*%
X3410000Y-2231600D03*
X3410000Y-1211600D03*
%TD*%
D11*
%TO.C,R1*%
X21611800Y-18376700D03*
X21611800Y-16551700D03*
%TD*%
D10*
%TO.C,Cin1*%
X16780000Y-9725000D03*
X16780000Y-6775000D03*
%TD*%
D19*
%TO.C,D2*%
X17521000Y-4300000D03*
X21821000Y-4300000D03*
%TD*%
D20*
%TO.C,J1*%
X37650000Y-4340300D03*
X37650000Y-6340300D03*
D21*
X31900000Y-1990300D03*
X31900000Y-8690300D03*
%TD*%
D22*
%TO.C,L1*%
X20380000Y-9600000D03*
X26580000Y-9600000D03*
%TD*%
D17*
%TO.C,Cff*%
X29140000Y-7919100D03*
X29140000Y-6959100D03*
%TD*%
D13*
%TO.C,REN2*%
X31553600Y-17420400D03*
X31553600Y-16400400D03*
%TD*%
D23*
%TO.C,U1*%
X17311800Y-17303200D03*
X17311800Y-15653200D03*
X16111800Y-17303200D03*
X16111800Y-15653200D03*
D24*
X19186800Y-18383200D03*
X19186800Y-17113200D03*
X19186800Y-15843200D03*
X19186800Y-14573200D03*
X14236800Y-14573200D03*
X14236800Y-15843200D03*
X14236800Y-17113200D03*
X14236800Y-18383200D03*
%TD*%
D14*
%TO.C,C1*%
X17655000Y-13050000D03*
X17655000Y-11500000D03*
%TD*%
D25*
%TO.C,D1*%
X16832000Y-1500000D03*
X20832000Y-1500000D03*
%TD*%
M02*
