%TF.GenerationSoftware,KiCad,Pcbnew,10.0.3*%
%TF.CreationDate,2026-06-20T23:40:10-07:00*%
%TF.ProjectId,brickdup_psu,62726963-6b64-4757-905f-7073752e6b69,rev?*%
%TF.SameCoordinates,Original*%
%TF.FileFunction,Legend,Top*%
%TF.FilePolarity,Positive*%
%FSLAX46Y46*%
G04 Gerber Fmt 4.6, Leading zero omitted, Abs format (unit mm)*
G04 Created by KiCad (PCBNEW 10.0.3) date 2026-06-20 23:40:10*
%MOMM*%
%LPD*%
G01*
G04 APERTURE LIST*
%ADD10C,0.125000*%
%ADD11C,0.120000*%
G04 APERTURE END LIST*
D10*
X13404761Y-19656119D02*
X13404761Y-18656119D01*
X13404761Y-19037071D02*
X13499999Y-18989452D01*
X13499999Y-18989452D02*
X13690475Y-18989452D01*
X13690475Y-18989452D02*
X13785713Y-19037071D01*
X13785713Y-19037071D02*
X13833332Y-19084690D01*
X13833332Y-19084690D02*
X13880951Y-19179928D01*
X13880951Y-19179928D02*
X13880951Y-19465642D01*
X13880951Y-19465642D02*
X13833332Y-19560880D01*
X13833332Y-19560880D02*
X13785713Y-19608500D01*
X13785713Y-19608500D02*
X13690475Y-19656119D01*
X13690475Y-19656119D02*
X13499999Y-19656119D01*
X13499999Y-19656119D02*
X13404761Y-19608500D01*
X14309523Y-19656119D02*
X14309523Y-18989452D01*
X14309523Y-19179928D02*
X14357142Y-19084690D01*
X14357142Y-19084690D02*
X14404761Y-19037071D01*
X14404761Y-19037071D02*
X14499999Y-18989452D01*
X14499999Y-18989452D02*
X14595237Y-18989452D01*
X14928571Y-19656119D02*
X14928571Y-18989452D01*
X14928571Y-18656119D02*
X14880952Y-18703738D01*
X14880952Y-18703738D02*
X14928571Y-18751357D01*
X14928571Y-18751357D02*
X14976190Y-18703738D01*
X14976190Y-18703738D02*
X14928571Y-18656119D01*
X14928571Y-18656119D02*
X14928571Y-18751357D01*
X15833332Y-19608500D02*
X15738094Y-19656119D01*
X15738094Y-19656119D02*
X15547618Y-19656119D01*
X15547618Y-19656119D02*
X15452380Y-19608500D01*
X15452380Y-19608500D02*
X15404761Y-19560880D01*
X15404761Y-19560880D02*
X15357142Y-19465642D01*
X15357142Y-19465642D02*
X15357142Y-19179928D01*
X15357142Y-19179928D02*
X15404761Y-19084690D01*
X15404761Y-19084690D02*
X15452380Y-19037071D01*
X15452380Y-19037071D02*
X15547618Y-18989452D01*
X15547618Y-18989452D02*
X15738094Y-18989452D01*
X15738094Y-18989452D02*
X15833332Y-19037071D01*
X16261904Y-19656119D02*
X16261904Y-18656119D01*
X16357142Y-19275166D02*
X16642856Y-19656119D01*
X16642856Y-18989452D02*
X16261904Y-19370404D01*
X17499999Y-19656119D02*
X17499999Y-18656119D01*
X17499999Y-19608500D02*
X17404761Y-19656119D01*
X17404761Y-19656119D02*
X17214285Y-19656119D01*
X17214285Y-19656119D02*
X17119047Y-19608500D01*
X17119047Y-19608500D02*
X17071428Y-19560880D01*
X17071428Y-19560880D02*
X17023809Y-19465642D01*
X17023809Y-19465642D02*
X17023809Y-19179928D01*
X17023809Y-19179928D02*
X17071428Y-19084690D01*
X17071428Y-19084690D02*
X17119047Y-19037071D01*
X17119047Y-19037071D02*
X17214285Y-18989452D01*
X17214285Y-18989452D02*
X17404761Y-18989452D01*
X17404761Y-18989452D02*
X17499999Y-19037071D01*
X18404761Y-18989452D02*
X18404761Y-19656119D01*
X17976190Y-18989452D02*
X17976190Y-19513261D01*
X17976190Y-19513261D02*
X18023809Y-19608500D01*
X18023809Y-19608500D02*
X18119047Y-19656119D01*
X18119047Y-19656119D02*
X18261904Y-19656119D01*
X18261904Y-19656119D02*
X18357142Y-19608500D01*
X18357142Y-19608500D02*
X18404761Y-19560880D01*
X18880952Y-18989452D02*
X18880952Y-19989452D01*
X18880952Y-19037071D02*
X18976190Y-18989452D01*
X18976190Y-18989452D02*
X19166666Y-18989452D01*
X19166666Y-18989452D02*
X19261904Y-19037071D01*
X19261904Y-19037071D02*
X19309523Y-19084690D01*
X19309523Y-19084690D02*
X19357142Y-19179928D01*
X19357142Y-19179928D02*
X19357142Y-19465642D01*
X19357142Y-19465642D02*
X19309523Y-19560880D01*
X19309523Y-19560880D02*
X19261904Y-19608500D01*
X19261904Y-19608500D02*
X19166666Y-19656119D01*
X19166666Y-19656119D02*
X18976190Y-19656119D01*
X18976190Y-19656119D02*
X18880952Y-19608500D01*
X19547619Y-19751357D02*
X20309523Y-19751357D01*
X20547619Y-18989452D02*
X20547619Y-19989452D01*
X20547619Y-19037071D02*
X20642857Y-18989452D01*
X20642857Y-18989452D02*
X20833333Y-18989452D01*
X20833333Y-18989452D02*
X20928571Y-19037071D01*
X20928571Y-19037071D02*
X20976190Y-19084690D01*
X20976190Y-19084690D02*
X21023809Y-19179928D01*
X21023809Y-19179928D02*
X21023809Y-19465642D01*
X21023809Y-19465642D02*
X20976190Y-19560880D01*
X20976190Y-19560880D02*
X20928571Y-19608500D01*
X20928571Y-19608500D02*
X20833333Y-19656119D01*
X20833333Y-19656119D02*
X20642857Y-19656119D01*
X20642857Y-19656119D02*
X20547619Y-19608500D01*
X21404762Y-19608500D02*
X21500000Y-19656119D01*
X21500000Y-19656119D02*
X21690476Y-19656119D01*
X21690476Y-19656119D02*
X21785714Y-19608500D01*
X21785714Y-19608500D02*
X21833333Y-19513261D01*
X21833333Y-19513261D02*
X21833333Y-19465642D01*
X21833333Y-19465642D02*
X21785714Y-19370404D01*
X21785714Y-19370404D02*
X21690476Y-19322785D01*
X21690476Y-19322785D02*
X21547619Y-19322785D01*
X21547619Y-19322785D02*
X21452381Y-19275166D01*
X21452381Y-19275166D02*
X21404762Y-19179928D01*
X21404762Y-19179928D02*
X21404762Y-19132309D01*
X21404762Y-19132309D02*
X21452381Y-19037071D01*
X21452381Y-19037071D02*
X21547619Y-18989452D01*
X21547619Y-18989452D02*
X21690476Y-18989452D01*
X21690476Y-18989452D02*
X21785714Y-19037071D01*
X22690476Y-18989452D02*
X22690476Y-19656119D01*
X22261905Y-18989452D02*
X22261905Y-19513261D01*
X22261905Y-19513261D02*
X22309524Y-19608500D01*
X22309524Y-19608500D02*
X22404762Y-19656119D01*
X22404762Y-19656119D02*
X22547619Y-19656119D01*
X22547619Y-19656119D02*
X22642857Y-19608500D01*
X22642857Y-19608500D02*
X22690476Y-19560880D01*
X23833334Y-18989452D02*
X24071429Y-19656119D01*
X24071429Y-19656119D02*
X24309524Y-18989452D01*
X24880953Y-18656119D02*
X24976191Y-18656119D01*
X24976191Y-18656119D02*
X25071429Y-18703738D01*
X25071429Y-18703738D02*
X25119048Y-18751357D01*
X25119048Y-18751357D02*
X25166667Y-18846595D01*
X25166667Y-18846595D02*
X25214286Y-19037071D01*
X25214286Y-19037071D02*
X25214286Y-19275166D01*
X25214286Y-19275166D02*
X25166667Y-19465642D01*
X25166667Y-19465642D02*
X25119048Y-19560880D01*
X25119048Y-19560880D02*
X25071429Y-19608500D01*
X25071429Y-19608500D02*
X24976191Y-19656119D01*
X24976191Y-19656119D02*
X24880953Y-19656119D01*
X24880953Y-19656119D02*
X24785715Y-19608500D01*
X24785715Y-19608500D02*
X24738096Y-19560880D01*
X24738096Y-19560880D02*
X24690477Y-19465642D01*
X24690477Y-19465642D02*
X24642858Y-19275166D01*
X24642858Y-19275166D02*
X24642858Y-19037071D01*
X24642858Y-19037071D02*
X24690477Y-18846595D01*
X24690477Y-18846595D02*
X24738096Y-18751357D01*
X24738096Y-18751357D02*
X24785715Y-18703738D01*
X24785715Y-18703738D02*
X24880953Y-18656119D01*
X25642858Y-19560880D02*
X25690477Y-19608500D01*
X25690477Y-19608500D02*
X25642858Y-19656119D01*
X25642858Y-19656119D02*
X25595239Y-19608500D01*
X25595239Y-19608500D02*
X25642858Y-19560880D01*
X25642858Y-19560880D02*
X25642858Y-19656119D01*
X26642857Y-19656119D02*
X26071429Y-19656119D01*
X26357143Y-19656119D02*
X26357143Y-18656119D01*
X26357143Y-18656119D02*
X26261905Y-18798976D01*
X26261905Y-18798976D02*
X26166667Y-18894214D01*
X26166667Y-18894214D02*
X26071429Y-18941833D01*
%TO.C,R2*%
D11*
X25217600Y-17250664D02*
X25217600Y-16796536D01*
X26687600Y-17250664D02*
X26687600Y-16796536D01*
%TO.C,L1*%
X3181900Y-4200000D02*
X10581900Y-4200000D01*
X3181900Y-6500000D02*
X3181900Y-4200000D01*
X3181900Y-11600000D02*
X3181900Y-9300000D01*
X10581900Y-4200000D02*
X10581900Y-6500000D01*
X10581900Y-9300000D02*
X10581900Y-11600000D01*
X10581900Y-11600000D02*
X3181900Y-11600000D01*
%TO.C,Cout3*%
X23634764Y-16413800D02*
X23850436Y-16413800D01*
X23634764Y-17133800D02*
X23850436Y-17133800D01*
%TO.C,D2*%
X27488000Y-6038500D02*
X27488000Y-10338500D01*
X27488000Y-6038500D02*
X33298000Y-6038500D01*
X27488000Y-10338500D02*
X33298000Y-10338500D01*
%TO.C,RFB1*%
X28500000Y-12973141D02*
X28500000Y-12665859D01*
X29260000Y-12973141D02*
X29260000Y-12665859D01*
%TO.C,Cin3*%
X28072100Y-3789080D02*
X28072100Y-3507920D01*
X29092100Y-3789080D02*
X29092100Y-3507920D01*
%TO.C,Cout2*%
X36636748Y-6065200D02*
X38059252Y-6065200D01*
X36636748Y-7885200D02*
X38059252Y-7885200D01*
%TO.C,R1*%
X3521400Y-13952064D02*
X3521400Y-13497936D01*
X4991400Y-13952064D02*
X4991400Y-13497936D01*
%TO.C,Cin2*%
X8180000Y-3537552D02*
X8180000Y-2115048D01*
X10900000Y-3537552D02*
X10900000Y-2115048D01*
%TO.C,U1*%
X7096400Y-11945000D02*
X11216400Y-11945000D01*
X7096400Y-12040000D02*
X7096400Y-11945000D01*
X7096400Y-17065000D02*
X7096400Y-16970000D01*
X11216400Y-11945000D02*
X11216400Y-12040000D01*
X11216400Y-16970000D02*
X11216400Y-17065000D01*
X11216400Y-17065000D02*
X7096400Y-17065000D01*
X6556400Y-12035000D02*
X6316400Y-11705000D01*
X6796400Y-11705000D01*
X6556400Y-12035000D01*
G36*
X6556400Y-12035000D02*
G01*
X6316400Y-11705000D01*
X6796400Y-11705000D01*
X6556400Y-12035000D01*
G37*
%TO.C,C1*%
X11605000Y-6147480D02*
X11605000Y-5866320D01*
X12625000Y-6147480D02*
X12625000Y-5866320D01*
%TO.C,Cin1*%
X22432900Y-13311252D02*
X22432900Y-11888748D01*
X25152900Y-13311252D02*
X25152900Y-11888748D01*
%TO.C,REN2*%
X34939800Y-4698841D02*
X34939800Y-4391559D01*
X35699800Y-4698841D02*
X35699800Y-4391559D01*
%TO.C,Cbst*%
X21022900Y-12941736D02*
X21022900Y-12726064D01*
X21742900Y-12941736D02*
X21742900Y-12726064D01*
%TO.C,RDIM*%
X10923759Y-17400000D02*
X11231041Y-17400000D01*
X10923759Y-18160000D02*
X11231041Y-18160000D01*
%TO.C,RFB2*%
X13296400Y-13329841D02*
X13296400Y-13022559D01*
X14056400Y-13329841D02*
X14056400Y-13022559D01*
%TO.C,J1*%
X30290000Y-12935200D02*
X30290000Y-17615200D01*
X33860000Y-11215200D02*
X38110000Y-11215200D01*
X33860000Y-19335200D02*
X38110000Y-19335200D01*
X36510000Y-12235200D02*
X36510000Y-13515200D01*
X36510000Y-13515200D02*
X39400000Y-13515200D01*
X36510000Y-18315200D02*
X36510000Y-17035200D01*
X38110000Y-11215200D02*
X38110000Y-12235200D01*
X38110000Y-12235200D02*
X36510000Y-12235200D01*
X38110000Y-18315200D02*
X36510000Y-18315200D01*
X38110000Y-19335200D02*
X38110000Y-18315200D01*
%TO.C,Cff*%
X15695000Y-14903336D02*
X15695000Y-14687664D01*
X16415000Y-14903336D02*
X16415000Y-14687664D01*
%TO.C,REN1*%
X6740000Y-3892641D02*
X6740000Y-3585359D01*
X7500000Y-3892641D02*
X7500000Y-3585359D01*
%TO.C,J2*%
X16838000Y-1890000D02*
X17858000Y-1890000D01*
X16838000Y-6140000D02*
X16838000Y-1890000D01*
X17858000Y-1890000D02*
X17858000Y-3490000D01*
X17858000Y-3490000D02*
X19138000Y-3490000D01*
X18558000Y-9710000D02*
X25238000Y-9710000D01*
X19138000Y-3490000D02*
X19138000Y-600000D01*
X25938000Y-1890000D02*
X25938000Y-3490000D01*
X25938000Y-3490000D02*
X24658000Y-3490000D01*
X26958000Y-1890000D02*
X25938000Y-1890000D01*
X26958000Y-6140000D02*
X26958000Y-1890000D01*
%TO.C,Cout1*%
X36638748Y-8615200D02*
X38061252Y-8615200D01*
X36638748Y-10435200D02*
X38061252Y-10435200D01*
%TO.C,D1*%
X3832700Y-9000000D02*
X3832700Y-12300000D01*
X3832700Y-9000000D02*
X9342700Y-9000000D01*
X3832700Y-12300000D02*
X9342700Y-12300000D01*
%TD*%
M02*
