%TF.GenerationSoftware,KiCad,Pcbnew,10.0.3*%
%TF.CreationDate,2026-06-22T06:45:46-07:00*%
%TF.ProjectId,brickdup_psu,62726963-6b64-4757-905f-7073752e6b69,rev?*%
%TF.SameCoordinates,Original*%
%TF.FileFunction,Copper,L1,Top*%
%TF.FilePolarity,Positive*%
%FSLAX46Y46*%
G04 Gerber Fmt 4.6, Leading zero omitted, Abs format (unit mm)*
G04 Created by KiCad (PCBNEW 10.0.3) date 2026-06-22 06:45:46*
%MOMM*%
%LPD*%
G01*
G04 APERTURE LIST*
G04 Aperture macros list*
%AMRoundRect*
0 Rectangle with rounded corners*
0 $1 Rounding radius*
0 $2 $3 $4 $5 $6 $7 $8 $9 X,Y pos of 4 corners*
0 Add a 4 corners polygon primitive as box body*
4,1,4,$2,$3,$4,$5,$6,$7,$8,$9,$2,$3,0*
0 Add four circle primitives for the rounded corners*
1,1,$1+$1,$2,$3*
1,1,$1+$1,$4,$5*
1,1,$1+$1,$6,$7*
1,1,$1+$1,$8,$9*
0 Add four rect primitives between the rounded corners*
20,1,$1+$1,$2,$3,$4,$5,0*
20,1,$1+$1,$4,$5,$6,$7,0*
20,1,$1+$1,$6,$7,$8,$9,0*
20,1,$1+$1,$8,$9,$2,$3,0*%
G04 Aperture macros list end*
%TA.AperFunction,SMDPad,CuDef*%
%ADD10RoundRect,0.250000X1.100000X-0.325000X1.100000X0.325000X-1.100000X0.325000X-1.100000X-0.325000X0*%
%TD*%
%TA.AperFunction,SMDPad,CuDef*%
%ADD11RoundRect,0.250000X0.450000X-0.262500X0.450000X0.262500X-0.450000X0.262500X-0.450000X-0.262500X0*%
%TD*%
%TA.AperFunction,SMDPad,CuDef*%
%ADD12RoundRect,0.140000X-0.140000X-0.170000X0.140000X-0.170000X0.140000X0.170000X-0.140000X0.170000X0*%
%TD*%
%TA.AperFunction,SMDPad,CuDef*%
%ADD13RoundRect,0.135000X0.185000X-0.135000X0.185000X0.135000X-0.185000X0.135000X-0.185000X-0.135000X0*%
%TD*%
%TA.AperFunction,SMDPad,CuDef*%
%ADD14RoundRect,0.225000X0.250000X-0.225000X0.250000X0.225000X-0.250000X0.225000X-0.250000X-0.225000X0*%
%TD*%
%TA.AperFunction,SMDPad,CuDef*%
%ADD15RoundRect,0.250000X-0.250000X-1.500000X0.250000X-1.500000X0.250000X1.500000X-0.250000X1.500000X0*%
%TD*%
%TA.AperFunction,SMDPad,CuDef*%
%ADD16RoundRect,0.250001X-0.499999X-1.449999X0.499999X-1.449999X0.499999X1.449999X-0.499999X1.449999X0*%
%TD*%
%TA.AperFunction,SMDPad,CuDef*%
%ADD17RoundRect,0.140000X0.170000X-0.140000X0.170000X0.140000X-0.170000X0.140000X-0.170000X-0.140000X0*%
%TD*%
%TA.AperFunction,SMDPad,CuDef*%
%ADD18RoundRect,0.250000X-0.325000X-0.650000X0.325000X-0.650000X0.325000X0.650000X-0.325000X0.650000X0*%
%TD*%
%TA.AperFunction,SMDPad,CuDef*%
%ADD19RoundRect,0.250000X-1.000000X-0.900000X1.000000X-0.900000X1.000000X0.900000X-1.000000X0.900000X0*%
%TD*%
%TA.AperFunction,SMDPad,CuDef*%
%ADD20RoundRect,0.250000X-1.500000X0.250000X-1.500000X-0.250000X1.500000X-0.250000X1.500000X0.250000X0*%
%TD*%
%TA.AperFunction,SMDPad,CuDef*%
%ADD21RoundRect,0.250001X-1.449999X0.499999X-1.449999X-0.499999X1.449999X-0.499999X1.449999X0.499999X0*%
%TD*%
%TA.AperFunction,SMDPad,CuDef*%
%ADD22R,3.000000X6.800000*%
%TD*%
%TA.AperFunction,SMDPad,CuDef*%
%ADD23RoundRect,0.150000X0.825000X0.150000X-0.825000X0.150000X-0.825000X-0.150000X0.825000X-0.150000X0*%
%TD*%
%TA.AperFunction,HeatsinkPad*%
%ADD24R,2.410000X3.300000*%
%TD*%
%TA.AperFunction,SMDPad,CuDef*%
%ADD25RoundRect,0.250000X-1.000000X-0.650000X1.000000X-0.650000X1.000000X0.650000X-1.000000X0.650000X0*%
%TD*%
%TA.AperFunction,ViaPad*%
%ADD26C,0.600000*%
%TD*%
%TA.AperFunction,Conductor*%
%ADD27C,0.200000*%
%TD*%
G04 APERTURE END LIST*
D10*
%TO.P,Cin2,1*%
%TO.N,VBAT*%
X11161800Y-16484200D03*
%TO.P,Cin2,2*%
%TO.N,GND*%
X11161800Y-13534200D03*
%TD*%
D11*
%TO.P,R2,1*%
%TO.N,SENSE*%
X23761800Y-16577500D03*
%TO.P,R2,2*%
%TO.N,GND*%
X23761800Y-14752500D03*
%TD*%
D12*
%TO.P,Cout3,1*%
%TO.N,+5V*%
X27425200Y-14060000D03*
%TO.P,Cout3,2*%
%TO.N,GND*%
X28385200Y-14060000D03*
%TD*%
D13*
%TO.P,RFB1,1*%
%TO.N,+5V*%
X26071100Y-15040000D03*
%TO.P,RFB1,2*%
%TO.N,FB*%
X26071100Y-14020000D03*
%TD*%
D14*
%TO.P,Cin3,1*%
%TO.N,VBAT*%
X8586800Y-12550000D03*
%TO.P,Cin3,2*%
%TO.N,GND*%
X8586800Y-11000000D03*
%TD*%
D15*
%TO.P,J2,1*%
%TO.N,+5V*%
X7580000Y-2350000D03*
%TO.P,J2,2*%
%TO.N,SENSE*%
X9580000Y-2350000D03*
%TO.P,J2,3*%
%TO.N,GND*%
X11580000Y-2350000D03*
D16*
%TO.P,J2,MP*%
%TO.N,N/C*%
X5230000Y-8100000D03*
X13930000Y-8100000D03*
%TD*%
D17*
%TO.P,Cbst,1*%
%TO.N,SW*%
X29140000Y-5649100D03*
%TO.P,Cbst,2*%
%TO.N,BST*%
X29140000Y-4689100D03*
%TD*%
D18*
%TO.P,Cout1,1*%
%TO.N,+5V*%
X3836800Y-12289800D03*
%TO.P,Cout1,2*%
%TO.N,GND*%
X6786800Y-12289800D03*
%TD*%
%TO.P,Cout2,1*%
%TO.N,+5V*%
X25925000Y-2759100D03*
%TO.P,Cout2,2*%
%TO.N,GND*%
X28875000Y-2759100D03*
%TD*%
D13*
%TO.P,RFB2,1*%
%TO.N,FB*%
X24078400Y-19130000D03*
%TO.P,RFB2,2*%
%TO.N,GND*%
X24078400Y-18110000D03*
%TD*%
%TO.P,REN1,1*%
%TO.N,VBAT*%
X3410000Y-2231600D03*
%TO.P,REN1,2*%
%TO.N,EN*%
X3410000Y-1211600D03*
%TD*%
D11*
%TO.P,R1,1*%
%TO.N,VBAT*%
X21611800Y-18376700D03*
%TO.P,R1,2*%
%TO.N,SENSE*%
X21611800Y-16551700D03*
%TD*%
D10*
%TO.P,Cin1,1*%
%TO.N,VBAT*%
X16780000Y-9725000D03*
%TO.P,Cin1,2*%
%TO.N,GND*%
X16780000Y-6775000D03*
%TD*%
D19*
%TO.P,D2,1*%
%TO.N,VBAT*%
X17521000Y-4300000D03*
%TO.P,D2,2*%
%TO.N,GND*%
X21821000Y-4300000D03*
%TD*%
D20*
%TO.P,J1,1*%
%TO.N,VBAT*%
X37650000Y-4340300D03*
%TO.P,J1,2*%
%TO.N,GND*%
X37650000Y-6340300D03*
D21*
%TO.P,J1,MP*%
%TO.N,N/C*%
X31900000Y-1990300D03*
X31900000Y-8690300D03*
%TD*%
D22*
%TO.P,L1,1*%
%TO.N,SW*%
X20380000Y-9600000D03*
%TO.P,L1,2*%
%TO.N,+5V*%
X26580000Y-9600000D03*
%TD*%
D17*
%TO.P,Cff,1*%
%TO.N,+5V*%
X29140000Y-7919100D03*
%TO.P,Cff,2*%
%TO.N,FB*%
X29140000Y-6959100D03*
%TD*%
D13*
%TO.P,REN2,1*%
%TO.N,EN*%
X31553600Y-17420400D03*
%TO.P,REN2,2*%
%TO.N,GND*%
X31553600Y-16400400D03*
%TD*%
D23*
%TO.P,U1,1*%
%TO.N,FB*%
X19186800Y-18383200D03*
%TO.P,U1,2*%
%TO.N,N/C*%
X19186800Y-17113200D03*
%TO.P,U1,3*%
%TO.N,VBAT*%
X19186800Y-15843200D03*
%TO.P,U1,4*%
%TO.N,BST*%
X19186800Y-14573200D03*
%TO.P,U1,5*%
%TO.N,SW*%
X14236800Y-14573200D03*
%TO.P,U1,6*%
%TO.N,EN*%
X14236800Y-15843200D03*
%TO.P,U1,7*%
X14236800Y-17113200D03*
%TO.P,U1,8*%
%TO.N,GND*%
X14236800Y-18383200D03*
D24*
%TO.P,U1,9*%
X16711800Y-16478200D03*
%TD*%
D14*
%TO.P,C1,1*%
%TO.N,SENSE*%
X17655000Y-13050000D03*
%TO.P,C1,2*%
%TO.N,GND*%
X17655000Y-11500000D03*
%TD*%
D25*
%TO.P,D1,1*%
%TO.N,SW*%
X16832000Y-1500000D03*
%TO.P,D1,2*%
%TO.N,GND*%
X20832000Y-1500000D03*
%TD*%
D26*
%TO.N,VBAT*%
X19501700Y-5255200D03*
X23246600Y-18684600D03*
X31310700Y-4340300D03*
%TO.N,GND*%
X22554700Y-14709100D03*
X12347700Y-6535900D03*
X25815400Y-16089400D03*
%TO.N,SENSE*%
X10130000Y-4623500D03*
X16640300Y-13134500D03*
X22989600Y-17607600D03*
%TO.N,+5V*%
X11395900Y-5231000D03*
X22781700Y-9876300D03*
%TO.N,FB*%
X28608000Y-8629700D03*
X25242700Y-14867000D03*
%TO.N,SW*%
X15538400Y-13899000D03*
X15990700Y-11903300D03*
%TO.N,BST*%
X21103300Y-14573200D03*
X27887000Y-4841700D03*
%TO.N,EN*%
X12754000Y-15548700D03*
X6279500Y-1211600D03*
X25528100Y-17749600D03*
%TD*%
%TO.N,VBAT*%
D27*
X2920000Y-13143800D02*
X2920000Y-2721600D01*
X3285500Y-13509300D02*
X2920000Y-13143800D01*
X21919700Y-18684600D02*
X23246600Y-18684600D01*
X7907200Y-13229600D02*
X7627500Y-13509300D01*
X37650000Y-4340300D02*
X31310700Y-4340300D01*
X20600500Y-17365400D02*
X21611800Y-18376700D01*
X19186800Y-15843200D02*
X19582500Y-15843200D01*
X7627500Y-13509300D02*
X3285500Y-13509300D01*
X18476200Y-5255200D02*
X17521000Y-4300000D01*
X2920000Y-2721600D02*
X3410000Y-2231600D01*
X7907200Y-13229600D02*
X11161800Y-16484200D01*
X16780000Y-9725000D02*
X13955000Y-12550000D01*
X7907200Y-13229600D02*
X8586800Y-12550000D01*
X19582500Y-15843200D02*
X20600500Y-16861200D01*
X13955000Y-12550000D02*
X8586800Y-12550000D01*
X20600500Y-16861200D02*
X20600500Y-17365400D01*
X19501700Y-5255200D02*
X18476200Y-5255200D01*
X21611800Y-18376700D02*
X21919700Y-18684600D01*
X18476200Y-5255200D02*
X18476200Y-8028800D01*
X18476200Y-8028800D02*
X16780000Y-9725000D01*
%TO.N,GND*%
X17424000Y-11500000D02*
X16038600Y-12885400D01*
X33917400Y-6340300D02*
X33917400Y-9462600D01*
X6786800Y-12289800D02*
X8076600Y-11000000D01*
X32456200Y-6340300D02*
X33917400Y-6340300D01*
X8586800Y-11000000D02*
X12023500Y-7563300D01*
X33917400Y-6340300D02*
X37650000Y-6340300D01*
X16061200Y-6056200D02*
X16780000Y-6775000D01*
X17895900Y-15294100D02*
X16711800Y-16478200D01*
X17895900Y-15240900D02*
X17895900Y-15294100D01*
X8076600Y-11000000D02*
X8586800Y-11000000D01*
X17655000Y-11500000D02*
X17424000Y-11500000D01*
X16038600Y-13383600D02*
X17895900Y-15240900D01*
X24764500Y-17094400D02*
X24078400Y-17780500D01*
X23701200Y-14973800D02*
X24764500Y-16037100D01*
X25815400Y-16089400D02*
X28385200Y-16089400D01*
X16038600Y-12885400D02*
X16038600Y-13297300D01*
X12023500Y-7563300D02*
X12023500Y-6535900D01*
X33917400Y-9462600D02*
X29320000Y-14060000D01*
X11398700Y-13297300D02*
X11161800Y-13534200D01*
X22554700Y-14709100D02*
X23718400Y-14709100D01*
X28875000Y-2759100D02*
X27615900Y-1500000D01*
X12023500Y-2793500D02*
X11580000Y-2350000D01*
X12023500Y-6535900D02*
X12347700Y-6535900D01*
X16711800Y-16478200D02*
X14806800Y-18383200D01*
X16038600Y-13297300D02*
X11398700Y-13297300D01*
X31242600Y-16089400D02*
X28385200Y-16089400D01*
X21821000Y-4300000D02*
X20832000Y-3311000D01*
X28875000Y-2759100D02*
X32456200Y-6340300D01*
X23718400Y-14709100D02*
X23761800Y-14752500D01*
X12023500Y-6535900D02*
X12023500Y-6056200D01*
X23701200Y-14973800D02*
X23701200Y-14813100D01*
X27615900Y-1500000D02*
X20832000Y-1500000D01*
X23701200Y-14813100D02*
X23761800Y-14752500D01*
X29320000Y-14060000D02*
X28385200Y-14060000D01*
X24078400Y-17780500D02*
X24078400Y-18110000D01*
X31553600Y-16400400D02*
X31242600Y-16089400D01*
X20832000Y-3311000D02*
X20832000Y-1500000D01*
X14806800Y-18383200D02*
X14236800Y-18383200D01*
X12023500Y-6056200D02*
X12023500Y-2793500D01*
X24764500Y-16037100D02*
X24764500Y-17094400D01*
X16038600Y-13297300D02*
X16038600Y-13383600D01*
X12023500Y-6056200D02*
X16061200Y-6056200D01*
X23701200Y-14973800D02*
X23434100Y-15240900D01*
X23434100Y-15240900D02*
X17895900Y-15240900D01*
X28385200Y-16089400D02*
X28385200Y-14060000D01*
%TO.N,SENSE*%
X9580000Y-4073500D02*
X10130000Y-4623500D01*
X23761800Y-16577500D02*
X23736000Y-16551700D01*
X9580000Y-2350000D02*
X9580000Y-4073500D01*
X23736000Y-16551700D02*
X21611800Y-16551700D01*
X16724800Y-13050000D02*
X17655000Y-13050000D01*
X16640300Y-13134500D02*
X16724800Y-13050000D01*
X22989600Y-17607600D02*
X22989600Y-17349700D01*
X22989600Y-17349700D02*
X23761800Y-16577500D01*
%TO.N,+5V*%
X27051100Y-14060000D02*
X27425200Y-14060000D01*
X9822000Y-5231000D02*
X11395900Y-5231000D01*
X26580000Y-13301700D02*
X26666900Y-13301700D01*
X29429000Y-4034400D02*
X27200300Y-4034400D01*
X27200300Y-4034400D02*
X25925000Y-2759100D01*
X29804000Y-7255100D02*
X29140000Y-7919100D01*
X28774200Y-6363500D02*
X26580000Y-8557700D01*
X7580000Y-2350000D02*
X7580000Y-2989000D01*
X26580000Y-9600000D02*
X24778300Y-9600000D01*
X3836800Y-12289800D02*
X3836800Y-6733600D01*
X29804000Y-6363500D02*
X29804000Y-7255100D01*
X29804000Y-6363500D02*
X28774200Y-6363500D01*
X29804000Y-6363500D02*
X29804000Y-4409400D01*
X7580700Y-2989700D02*
X9822000Y-5231000D01*
X26580000Y-8557700D02*
X26580000Y-9600000D01*
X26071100Y-15040000D02*
X27051100Y-14060000D01*
X3836800Y-6733600D02*
X7580700Y-2989700D01*
X26580000Y-9600000D02*
X26580000Y-13301700D01*
X26666900Y-13301700D02*
X27425200Y-14060000D01*
X29804000Y-4409400D02*
X29429000Y-4034400D01*
X24778300Y-9600000D02*
X24502000Y-9876300D01*
X24502000Y-9876300D02*
X22781700Y-9876300D01*
X7580000Y-2989000D02*
X7580700Y-2989700D01*
%TO.N,FB*%
X28523500Y-7575600D02*
X28523500Y-8545200D01*
X25242700Y-14867000D02*
X25212700Y-14897000D01*
X24926400Y-17500500D02*
X24926400Y-18282000D01*
X25212700Y-17214200D02*
X24926400Y-17500500D01*
X24926400Y-18282000D02*
X24078400Y-19130000D01*
X25212700Y-14897000D02*
X25212700Y-17214200D01*
X28523500Y-8545200D02*
X28608000Y-8629700D01*
X20089900Y-19286300D02*
X23922100Y-19286300D01*
X26071100Y-14020000D02*
X25242700Y-14848400D01*
X29140000Y-6959100D02*
X28523500Y-7575600D01*
X19186800Y-18383200D02*
X20089900Y-19286300D01*
X25242700Y-14848400D02*
X25242700Y-14867000D01*
X23922100Y-19286300D02*
X24078400Y-19130000D01*
%TO.N,SW*%
X14911000Y-13899000D02*
X14236800Y-14573200D01*
X22782300Y-7985900D02*
X20103400Y-5307100D01*
X20103400Y-5307100D02*
X20103400Y-5006000D01*
X20103400Y-5006000D02*
X19579700Y-4482300D01*
X25119100Y-5649100D02*
X22782300Y-7985900D01*
X20380000Y-9600000D02*
X22181700Y-9600000D01*
X19579700Y-4482300D02*
X19579700Y-3598300D01*
X18578300Y-9600000D02*
X18578300Y-10137600D01*
X18040900Y-10675000D02*
X17219000Y-10675000D01*
X19579700Y-3598300D02*
X17481400Y-1500000D01*
X22181700Y-8586500D02*
X22181700Y-9600000D01*
X22782300Y-7985900D02*
X22181700Y-8586500D01*
X18578300Y-10137600D02*
X18040900Y-10675000D01*
X29140000Y-5649100D02*
X25119100Y-5649100D01*
X15538400Y-13899000D02*
X14911000Y-13899000D01*
X20380000Y-9600000D02*
X18578300Y-9600000D01*
X17219000Y-10675000D02*
X15990700Y-11903300D01*
X17481400Y-1500000D02*
X16832000Y-1500000D01*
%TO.N,BST*%
X28987400Y-4841700D02*
X29140000Y-4689100D01*
X19186800Y-14573200D02*
X21103300Y-14573200D01*
X27887000Y-4841700D02*
X28987400Y-4841700D01*
%TO.N,EN*%
X3410000Y-1211600D02*
X6279500Y-1211600D01*
X31553600Y-17420400D02*
X31224400Y-17749600D01*
X13048500Y-15843200D02*
X14236800Y-15843200D01*
X12754000Y-15548700D02*
X13048500Y-15843200D01*
X31224400Y-17749600D02*
X25528100Y-17749600D01*
X14236800Y-17113200D02*
X14236800Y-15843200D01*
%TD*%
%TA.AperFunction,Conductor*%
%TO.N,GND*%
G36*
X2902660Y-320185D02*
G01*
X2948415Y-372989D01*
X2958359Y-442147D01*
X2929334Y-505703D01*
X2898741Y-531232D01*
X2832408Y-570460D01*
X2832396Y-570469D01*
X2718869Y-683996D01*
X2718863Y-684004D01*
X2637131Y-822206D01*
X2637129Y-822211D01*
X2592335Y-976391D01*
X2592334Y-976397D01*
X2589500Y-1012411D01*
X2589500Y-1410769D01*
X2589501Y-1410791D01*
X2592335Y-1446805D01*
X2637129Y-1600988D01*
X2637132Y-1600995D01*
X2671128Y-1658481D01*
X2688309Y-1726205D01*
X2671128Y-1784719D01*
X2637132Y-1842204D01*
X2637129Y-1842211D01*
X2592335Y-1996391D01*
X2592334Y-1996397D01*
X2589500Y-2032411D01*
X2589500Y-2151500D01*
X2580858Y-2180929D01*
X2574336Y-2210921D01*
X2570577Y-2215941D01*
X2569815Y-2218539D01*
X2553186Y-2239176D01*
X2544224Y-2248138D01*
X2544212Y-2248152D01*
X2439478Y-2352886D01*
X2409498Y-2404814D01*
X2394507Y-2430780D01*
X2360423Y-2489815D01*
X2319499Y-2642543D01*
X2319499Y-2642545D01*
X2319499Y-2810646D01*
X2319500Y-2810659D01*
X2319500Y-13057130D01*
X2319499Y-13057148D01*
X2319499Y-13222854D01*
X2319498Y-13222854D01*
X2360423Y-13375585D01*
X2370896Y-13393724D01*
X2370897Y-13393727D01*
X2439475Y-13512509D01*
X2439481Y-13512517D01*
X2558349Y-13631385D01*
X2558355Y-13631390D01*
X2800639Y-13873674D01*
X2800649Y-13873685D01*
X2804979Y-13878015D01*
X2804980Y-13878016D01*
X2916784Y-13989820D01*
X2946438Y-14006940D01*
X3003595Y-14039939D01*
X3003597Y-14039941D01*
X3037760Y-14059665D01*
X3053715Y-14068877D01*
X3206443Y-14109800D01*
X7540831Y-14109800D01*
X7540847Y-14109801D01*
X7548443Y-14109801D01*
X7706553Y-14109801D01*
X7706557Y-14109801D01*
X7820072Y-14079384D01*
X7889917Y-14081047D01*
X7939843Y-14111478D01*
X9418765Y-15590400D01*
X9452250Y-15651723D01*
X9447266Y-15721415D01*
X9436623Y-15743177D01*
X9376989Y-15839859D01*
X9376985Y-15839868D01*
X9361768Y-15885791D01*
X9321801Y-16006403D01*
X9321801Y-16006404D01*
X9321800Y-16006404D01*
X9311300Y-16109183D01*
X9311300Y-16859201D01*
X9311301Y-16859219D01*
X9321800Y-16961996D01*
X9321801Y-16961999D01*
X9366636Y-17097301D01*
X9376986Y-17128534D01*
X9469088Y-17277856D01*
X9593144Y-17401912D01*
X9742466Y-17494014D01*
X9909003Y-17549199D01*
X10011791Y-17559700D01*
X12311808Y-17559699D01*
X12414597Y-17549199D01*
X12581134Y-17494014D01*
X12629741Y-17464032D01*
X12639301Y-17461416D01*
X12647002Y-17455169D01*
X12672445Y-17452347D01*
X12697133Y-17445592D01*
X12706592Y-17448560D01*
X12716446Y-17447468D01*
X12739373Y-17458848D01*
X12763797Y-17466514D01*
X12771818Y-17474954D01*
X12779030Y-17478534D01*
X12790190Y-17494285D01*
X12801268Y-17505941D01*
X12808384Y-17517843D01*
X12810056Y-17523598D01*
X12893719Y-17665065D01*
X12900390Y-17671736D01*
X12908274Y-17684923D01*
X12913333Y-17704474D01*
X12923010Y-17722195D01*
X12921907Y-17737605D01*
X12925779Y-17752564D01*
X12919466Y-17771743D01*
X12918026Y-17791887D01*
X12907377Y-17808476D01*
X12903936Y-17818932D01*
X12897345Y-17824279D01*
X12898897Y-17825483D01*
X12894113Y-17831649D01*
X12810518Y-17973001D01*
X12764699Y-18130713D01*
X12764504Y-18133198D01*
X12764505Y-18133200D01*
X15709095Y-18133200D01*
X15709095Y-18133198D01*
X15708900Y-18130713D01*
X15663081Y-17973001D01*
X15579485Y-17831647D01*
X15574700Y-17825478D01*
X15577166Y-17823564D01*
X15550602Y-17774976D01*
X15555549Y-17705282D01*
X15576656Y-17672432D01*
X15575101Y-17671226D01*
X15579877Y-17665068D01*
X15579881Y-17665065D01*
X15663544Y-17523598D01*
X15698898Y-17401910D01*
X15709397Y-17365773D01*
X15709398Y-17365767D01*
X15712300Y-17328894D01*
X15712300Y-16897506D01*
X15709398Y-16860631D01*
X15709302Y-16860301D01*
X15663545Y-16702806D01*
X15663544Y-16702803D01*
X15663544Y-16702802D01*
X15579881Y-16561335D01*
X15579878Y-16561332D01*
X15575098Y-16555169D01*
X15577550Y-16553266D01*
X15550955Y-16504621D01*
X15555904Y-16434926D01*
X15576740Y-16402504D01*
X15575098Y-16401231D01*
X15579875Y-16395070D01*
X15579881Y-16395065D01*
X15663544Y-16253598D01*
X15706342Y-16106287D01*
X15709397Y-16095773D01*
X15709398Y-16095767D01*
X15712299Y-16058901D01*
X15712300Y-16058894D01*
X15712300Y-15627506D01*
X15709398Y-15590631D01*
X15702706Y-15567598D01*
X15663545Y-15432806D01*
X15663544Y-15432803D01*
X15663544Y-15432802D01*
X15579881Y-15291335D01*
X15579878Y-15291332D01*
X15575098Y-15285169D01*
X15577550Y-15283266D01*
X15550955Y-15234621D01*
X15555904Y-15164926D01*
X15576740Y-15132504D01*
X15575098Y-15131231D01*
X15579875Y-15125070D01*
X15579881Y-15125065D01*
X15663544Y-14983598D01*
X15709398Y-14825769D01*
X15712300Y-14788894D01*
X15712300Y-14776276D01*
X15731985Y-14709237D01*
X15784789Y-14663482D01*
X15788787Y-14661740D01*
X15917579Y-14608394D01*
X16048689Y-14520789D01*
X16160189Y-14409289D01*
X16247794Y-14278179D01*
X16308137Y-14132497D01*
X16331377Y-14015663D01*
X16363762Y-13953752D01*
X16424477Y-13919178D01*
X16477185Y-13918237D01*
X16481916Y-13919178D01*
X16561455Y-13935000D01*
X16561458Y-13935000D01*
X16719144Y-13935000D01*
X16719145Y-13934999D01*
X16873797Y-13904237D01*
X16916550Y-13886527D01*
X16986018Y-13879059D01*
X17029097Y-13895550D01*
X17096303Y-13937003D01*
X17257292Y-13990349D01*
X17356655Y-14000500D01*
X17642057Y-14000499D01*
X17709095Y-14020183D01*
X17754850Y-14072987D01*
X17764794Y-14142146D01*
X17761132Y-14159094D01*
X17714202Y-14320626D01*
X17714201Y-14320632D01*
X17711300Y-14357498D01*
X17711300Y-14788901D01*
X17714201Y-14825767D01*
X17714202Y-14825773D01*
X17760054Y-14983593D01*
X17760055Y-14983596D01*
X17760056Y-14983598D01*
X17771235Y-15002500D01*
X17843717Y-15125062D01*
X17848502Y-15131231D01*
X17846056Y-15133127D01*
X17872657Y-15181842D01*
X17867673Y-15251534D01*
X17846869Y-15283903D01*
X17848502Y-15285169D01*
X17843717Y-15291337D01*
X17760055Y-15432803D01*
X17760054Y-15432806D01*
X17714202Y-15590626D01*
X17714201Y-15590632D01*
X17711300Y-15627498D01*
X17711300Y-16058901D01*
X17714201Y-16095767D01*
X17714202Y-16095773D01*
X17760054Y-16253593D01*
X17760055Y-16253596D01*
X17843717Y-16395062D01*
X17848502Y-16401231D01*
X17846056Y-16403127D01*
X17872657Y-16451842D01*
X17867673Y-16521534D01*
X17846869Y-16553903D01*
X17848502Y-16555169D01*
X17843717Y-16561337D01*
X17760055Y-16702803D01*
X17760054Y-16702806D01*
X17714202Y-16860626D01*
X17714201Y-16860632D01*
X17711300Y-16897498D01*
X17711300Y-17328901D01*
X17714201Y-17365767D01*
X17714202Y-17365773D01*
X17760054Y-17523593D01*
X17760055Y-17523596D01*
X17843717Y-17665062D01*
X17848502Y-17671231D01*
X17846056Y-17673127D01*
X17872657Y-17721842D01*
X17867673Y-17791534D01*
X17846869Y-17823903D01*
X17848502Y-17825169D01*
X17843717Y-17831337D01*
X17760055Y-17972803D01*
X17760054Y-17972806D01*
X17714202Y-18130626D01*
X17714201Y-18130632D01*
X17711300Y-18167498D01*
X17711300Y-18598901D01*
X17714201Y-18635767D01*
X17714202Y-18635773D01*
X17760054Y-18793593D01*
X17760055Y-18793596D01*
X17843717Y-18935062D01*
X17843723Y-18935070D01*
X17959929Y-19051276D01*
X17959933Y-19051279D01*
X17959935Y-19051281D01*
X18101402Y-19134944D01*
X18129327Y-19143057D01*
X18259226Y-19180797D01*
X18259229Y-19180797D01*
X18259231Y-19180798D01*
X18296106Y-19183700D01*
X19086703Y-19183700D01*
X19153742Y-19203385D01*
X19174384Y-19220019D01*
X19442184Y-19487819D01*
X19475669Y-19549142D01*
X19470685Y-19618834D01*
X19428813Y-19674767D01*
X19363349Y-19699184D01*
X19354503Y-19699500D01*
X424500Y-19699500D01*
X357461Y-19679815D01*
X311706Y-19627011D01*
X300500Y-19575500D01*
X300500Y-18633201D01*
X12764504Y-18633201D01*
X12764699Y-18635686D01*
X12810518Y-18793398D01*
X12894114Y-18934752D01*
X12894121Y-18934761D01*
X13010238Y-19050878D01*
X13010247Y-19050885D01*
X13151603Y-19134482D01*
X13151606Y-19134483D01*
X13309304Y-19180299D01*
X13309310Y-19180300D01*
X13346150Y-19183199D01*
X13346166Y-19183200D01*
X13986800Y-19183200D01*
X14486800Y-19183200D01*
X15127434Y-19183200D01*
X15127449Y-19183199D01*
X15164289Y-19180300D01*
X15164295Y-19180299D01*
X15321993Y-19134483D01*
X15321996Y-19134482D01*
X15463352Y-19050885D01*
X15463361Y-19050878D01*
X15579478Y-18934761D01*
X15579485Y-18934752D01*
X15663081Y-18793398D01*
X15708900Y-18635686D01*
X15709095Y-18633201D01*
X15709095Y-18633200D01*
X14486800Y-18633200D01*
X14486800Y-19183200D01*
X13986800Y-19183200D01*
X13986800Y-18633200D01*
X12764505Y-18633200D01*
X12764504Y-18633201D01*
X300500Y-18633201D01*
X300500Y-15893713D01*
X3649500Y-15893713D01*
X3649500Y-16106286D01*
X3672831Y-16253596D01*
X3682754Y-16316243D01*
X3735377Y-16478200D01*
X3748444Y-16518414D01*
X3844951Y-16707820D01*
X3969890Y-16879786D01*
X4120213Y-17030109D01*
X4292179Y-17155048D01*
X4292181Y-17155049D01*
X4292184Y-17155051D01*
X4481588Y-17251557D01*
X4683757Y-17317246D01*
X4893713Y-17350500D01*
X4893714Y-17350500D01*
X5106286Y-17350500D01*
X5106287Y-17350500D01*
X5316243Y-17317246D01*
X5518412Y-17251557D01*
X5707816Y-17155051D01*
X5745309Y-17127811D01*
X5879786Y-17030109D01*
X5879788Y-17030106D01*
X5879792Y-17030104D01*
X6030104Y-16879792D01*
X6030106Y-16879788D01*
X6030109Y-16879786D01*
X6155048Y-16707820D01*
X6155047Y-16707820D01*
X6155051Y-16707816D01*
X6251557Y-16518412D01*
X6317246Y-16316243D01*
X6350500Y-16106287D01*
X6350500Y-15893713D01*
X6317246Y-15683757D01*
X6251557Y-15481588D01*
X6155051Y-15292184D01*
X6155049Y-15292181D01*
X6155048Y-15292179D01*
X6030109Y-15120213D01*
X5879786Y-14969890D01*
X5707820Y-14844951D01*
X5518414Y-14748444D01*
X5518413Y-14748443D01*
X5518412Y-14748443D01*
X5316243Y-14682754D01*
X5316241Y-14682753D01*
X5316240Y-14682753D01*
X5154957Y-14657208D01*
X5106287Y-14649500D01*
X4893713Y-14649500D01*
X4845042Y-14657208D01*
X4683760Y-14682753D01*
X4481585Y-14748444D01*
X4292179Y-14844951D01*
X4120213Y-14969890D01*
X3969890Y-15120213D01*
X3844951Y-15292179D01*
X3748444Y-15481585D01*
X3748443Y-15481587D01*
X3748443Y-15481588D01*
X3720497Y-15567598D01*
X3682753Y-15683760D01*
X3649500Y-15893713D01*
X300500Y-15893713D01*
X300500Y-424500D01*
X320185Y-357461D01*
X372989Y-311706D01*
X424500Y-300500D01*
X2835621Y-300500D01*
X2902660Y-320185D01*
G37*
%TD.AperFunction*%
%TA.AperFunction,Conductor*%
G36*
X30545007Y-4711136D02*
G01*
X30546147Y-4710973D01*
X30576978Y-4725053D01*
X30608017Y-4738564D01*
X30609028Y-4739689D01*
X30609703Y-4739998D01*
X30631602Y-4764821D01*
X30688907Y-4850584D01*
X30688913Y-4850592D01*
X30800407Y-4962086D01*
X30800411Y-4962089D01*
X30931514Y-5049690D01*
X30931527Y-5049697D01*
X31027682Y-5089525D01*
X31077203Y-5110037D01*
X31231853Y-5140799D01*
X31231856Y-5140800D01*
X31231858Y-5140800D01*
X31389544Y-5140800D01*
X31389545Y-5140799D01*
X31544197Y-5110037D01*
X31689879Y-5049694D01*
X31705013Y-5039582D01*
X31821575Y-4961698D01*
X31888253Y-4940820D01*
X31890466Y-4940800D01*
X35415202Y-4940800D01*
X35482241Y-4960485D01*
X35520739Y-4999701D01*
X35551577Y-5049697D01*
X35557289Y-5058957D01*
X35681344Y-5183012D01*
X35765718Y-5235054D01*
X35812443Y-5287002D01*
X35823666Y-5355964D01*
X35795822Y-5420047D01*
X35765720Y-5446131D01*
X35681656Y-5497982D01*
X35557684Y-5621954D01*
X35465643Y-5771175D01*
X35465641Y-5771180D01*
X35410494Y-5937602D01*
X35410493Y-5937609D01*
X35400000Y-6040313D01*
X35400000Y-6090300D01*
X37526000Y-6090300D01*
X37593039Y-6109985D01*
X37638794Y-6162789D01*
X37650000Y-6214300D01*
X37650000Y-6340300D01*
X37776000Y-6340300D01*
X37843039Y-6359985D01*
X37888794Y-6412789D01*
X37900000Y-6464300D01*
X37900000Y-7340299D01*
X39199972Y-7340299D01*
X39199986Y-7340298D01*
X39302697Y-7329805D01*
X39469119Y-7274658D01*
X39469130Y-7274653D01*
X39510403Y-7249196D01*
X39577795Y-7230755D01*
X39644459Y-7251677D01*
X39689229Y-7305319D01*
X39699500Y-7354734D01*
X39699500Y-19575500D01*
X39679815Y-19642539D01*
X39627011Y-19688294D01*
X39575500Y-19699500D01*
X24962101Y-19699500D01*
X24895062Y-19679815D01*
X24849307Y-19627011D01*
X24839363Y-19557853D01*
X24848301Y-19526250D01*
X24851263Y-19519403D01*
X24851269Y-19519393D01*
X24896065Y-19365204D01*
X24898900Y-19329181D01*
X24898899Y-19210095D01*
X24918583Y-19143057D01*
X24935213Y-19122420D01*
X25295113Y-18762521D01*
X25295116Y-18762520D01*
X25406920Y-18650716D01*
X25435379Y-18601422D01*
X25443530Y-18592164D01*
X25463061Y-18579827D01*
X25479781Y-18563885D01*
X25493614Y-18560529D01*
X25502602Y-18554852D01*
X25516562Y-18554961D01*
X25536602Y-18550100D01*
X25606944Y-18550100D01*
X25606945Y-18550099D01*
X25761597Y-18519337D01*
X25907279Y-18458994D01*
X25907285Y-18458990D01*
X26038975Y-18370998D01*
X26105653Y-18350120D01*
X26107866Y-18350100D01*
X31137731Y-18350100D01*
X31137747Y-18350101D01*
X31145343Y-18350101D01*
X31303454Y-18350101D01*
X31303457Y-18350101D01*
X31456185Y-18309177D01*
X31506304Y-18280239D01*
X31593116Y-18230120D01*
X31605834Y-18217401D01*
X31617586Y-18209995D01*
X31638374Y-18204089D01*
X31657342Y-18193733D01*
X31683700Y-18190899D01*
X31802768Y-18190899D01*
X31802780Y-18190899D01*
X31838804Y-18188065D01*
X31992993Y-18143269D01*
X32131198Y-18061535D01*
X32244735Y-17947998D01*
X32326469Y-17809793D01*
X32371265Y-17655604D01*
X32374100Y-17619581D01*
X32374099Y-17221220D01*
X32371265Y-17185196D01*
X32326469Y-17031007D01*
X32292181Y-16973029D01*
X32274998Y-16905305D01*
X32292182Y-16846786D01*
X32326004Y-16789596D01*
X32326005Y-16789594D01*
X32366444Y-16650400D01*
X31814009Y-16650400D01*
X31804280Y-16650018D01*
X31802786Y-16649900D01*
X31304430Y-16649900D01*
X31304413Y-16649901D01*
X31303292Y-16649989D01*
X31302930Y-16650018D01*
X31293207Y-16650400D01*
X30740756Y-16650400D01*
X30781194Y-16789593D01*
X30815019Y-16846788D01*
X30816933Y-16854333D01*
X30821931Y-16860301D01*
X30825403Y-16887719D01*
X30832201Y-16914512D01*
X30829953Y-16923647D01*
X30830710Y-16929617D01*
X30823746Y-16948881D01*
X30820198Y-16963309D01*
X30817819Y-16968293D01*
X30780731Y-17031007D01*
X30769580Y-17069388D01*
X30765232Y-17078501D01*
X30748379Y-17097301D01*
X30734790Y-17118581D01*
X30725454Y-17122876D01*
X30718596Y-17130528D01*
X30694254Y-17137232D01*
X30671317Y-17147787D01*
X30653320Y-17149100D01*
X26107866Y-17149100D01*
X26040827Y-17129415D01*
X26038975Y-17128202D01*
X25907285Y-17040209D01*
X25907276Y-17040204D01*
X25889744Y-17032942D01*
X25835342Y-16989099D01*
X25813279Y-16922804D01*
X25813200Y-16918382D01*
X25813200Y-16150400D01*
X30740756Y-16150400D01*
X31303600Y-16150400D01*
X31803600Y-16150400D01*
X32366444Y-16150400D01*
X32326005Y-16011207D01*
X32290968Y-15951963D01*
X32290967Y-15951961D01*
X32256520Y-15893713D01*
X33649500Y-15893713D01*
X33649500Y-16106286D01*
X33672831Y-16253596D01*
X33682754Y-16316243D01*
X33735377Y-16478200D01*
X33748444Y-16518414D01*
X33844951Y-16707820D01*
X33969890Y-16879786D01*
X34120213Y-17030109D01*
X34292179Y-17155048D01*
X34292181Y-17155049D01*
X34292184Y-17155051D01*
X34481588Y-17251557D01*
X34683757Y-17317246D01*
X34893713Y-17350500D01*
X34893714Y-17350500D01*
X35106286Y-17350500D01*
X35106287Y-17350500D01*
X35316243Y-17317246D01*
X35518412Y-17251557D01*
X35707816Y-17155051D01*
X35745309Y-17127811D01*
X35879786Y-17030109D01*
X35879788Y-17030106D01*
X35879792Y-17030104D01*
X36030104Y-16879792D01*
X36030106Y-16879788D01*
X36030109Y-16879786D01*
X36155048Y-16707820D01*
X36155047Y-16707820D01*
X36155051Y-16707816D01*
X36251557Y-16518412D01*
X36317246Y-16316243D01*
X36350500Y-16106287D01*
X36350500Y-15893713D01*
X36317246Y-15683757D01*
X36251557Y-15481588D01*
X36155051Y-15292184D01*
X36155049Y-15292181D01*
X36155048Y-15292179D01*
X36030109Y-15120213D01*
X35879786Y-14969890D01*
X35707820Y-14844951D01*
X35518414Y-14748444D01*
X35518413Y-14748443D01*
X35518412Y-14748443D01*
X35316243Y-14682754D01*
X35316241Y-14682753D01*
X35316240Y-14682753D01*
X35154957Y-14657208D01*
X35106287Y-14649500D01*
X34893713Y-14649500D01*
X34845042Y-14657208D01*
X34683760Y-14682753D01*
X34481585Y-14748444D01*
X34292179Y-14844951D01*
X34120213Y-14969890D01*
X33969890Y-15120213D01*
X33844951Y-15292179D01*
X33748444Y-15481585D01*
X33748443Y-15481587D01*
X33748443Y-15481588D01*
X33720497Y-15567598D01*
X33682753Y-15683760D01*
X33649500Y-15893713D01*
X32256520Y-15893713D01*
X32244337Y-15873113D01*
X32244331Y-15873105D01*
X32130894Y-15759668D01*
X32130885Y-15759661D01*
X31992791Y-15677993D01*
X31992788Y-15677992D01*
X31838730Y-15633234D01*
X31803600Y-15630468D01*
X31803600Y-16150400D01*
X31303600Y-16150400D01*
X31303600Y-15630468D01*
X31303599Y-15630468D01*
X31268469Y-15633234D01*
X31268468Y-15633234D01*
X31114411Y-15677992D01*
X31114408Y-15677993D01*
X30976314Y-15759661D01*
X30976305Y-15759668D01*
X30862868Y-15873105D01*
X30862861Y-15873114D01*
X30781195Y-16011205D01*
X30740756Y-16150400D01*
X25813200Y-16150400D01*
X25813200Y-15934499D01*
X25832885Y-15867460D01*
X25885689Y-15821705D01*
X25937196Y-15810499D01*
X26320280Y-15810499D01*
X26356304Y-15807665D01*
X26510493Y-15762869D01*
X26648698Y-15681135D01*
X26762235Y-15567598D01*
X26843969Y-15429393D01*
X26888765Y-15275204D01*
X26891600Y-15239181D01*
X26891599Y-15120095D01*
X26900244Y-15090651D01*
X26906767Y-15060669D01*
X26910519Y-15055655D01*
X26911283Y-15053057D01*
X26927913Y-15032420D01*
X27061440Y-14898893D01*
X27122761Y-14865410D01*
X27177828Y-14867299D01*
X27177974Y-14866505D01*
X27183365Y-14867489D01*
X27183721Y-14867501D01*
X27184207Y-14867643D01*
X27220510Y-14870500D01*
X27220518Y-14870500D01*
X27629882Y-14870500D01*
X27629890Y-14870500D01*
X27666193Y-14867643D01*
X27666195Y-14867642D01*
X27666197Y-14867642D01*
X27763728Y-14839306D01*
X27821595Y-14822494D01*
X27842569Y-14810089D01*
X27910288Y-14792906D01*
X27968813Y-14810090D01*
X27989003Y-14822031D01*
X28135200Y-14864504D01*
X28135200Y-14864503D01*
X28635200Y-14864503D01*
X28781395Y-14822031D01*
X28920574Y-14739721D01*
X28920583Y-14739714D01*
X29034914Y-14625383D01*
X29034921Y-14625374D01*
X29117231Y-14486195D01*
X29117233Y-14486190D01*
X29162344Y-14330918D01*
X29162345Y-14330912D01*
X29163990Y-14310000D01*
X28635200Y-14310000D01*
X28635200Y-14864503D01*
X28135200Y-14864503D01*
X28135200Y-14558352D01*
X28152467Y-14495233D01*
X28157694Y-14486395D01*
X28171170Y-14440013D01*
X28202842Y-14330997D01*
X28202843Y-14330991D01*
X28205699Y-14294697D01*
X28205700Y-14294690D01*
X28205700Y-14184000D01*
X28225385Y-14116961D01*
X28278189Y-14071206D01*
X28329700Y-14060000D01*
X28385200Y-14060000D01*
X28385200Y-13934000D01*
X28404885Y-13866961D01*
X28457689Y-13821206D01*
X28509200Y-13810000D01*
X29163990Y-13810000D01*
X29162345Y-13789089D01*
X29117231Y-13633804D01*
X29034921Y-13494625D01*
X29034914Y-13494616D01*
X28920583Y-13380285D01*
X28920574Y-13380278D01*
X28781395Y-13297968D01*
X28781390Y-13297966D01*
X28658475Y-13262256D01*
X28599589Y-13224650D01*
X28570383Y-13161177D01*
X28572394Y-13114660D01*
X28574087Y-13107491D01*
X28574091Y-13107483D01*
X28580500Y-13047873D01*
X28580499Y-9553060D01*
X28600184Y-9486022D01*
X28652988Y-9440267D01*
X28681126Y-9432686D01*
X28680868Y-9431389D01*
X28767334Y-9414188D01*
X28841497Y-9399437D01*
X28987179Y-9339094D01*
X29118289Y-9251489D01*
X29229789Y-9139989D01*
X29317394Y-9008879D01*
X29377737Y-8863197D01*
X29396144Y-8770660D01*
X29402974Y-8757601D01*
X29405114Y-8743018D01*
X29418842Y-8727265D01*
X29428528Y-8708749D01*
X29442137Y-8700535D01*
X29451019Y-8690345D01*
X29483166Y-8675775D01*
X29540905Y-8659000D01*
X29610774Y-8659199D01*
X29669444Y-8697141D01*
X29698288Y-8760779D01*
X29699500Y-8778076D01*
X29699500Y-9240315D01*
X29710000Y-9343095D01*
X29710001Y-9343096D01*
X29765186Y-9509635D01*
X29765187Y-9509637D01*
X29857286Y-9658951D01*
X29857289Y-9658955D01*
X29981344Y-9783010D01*
X29981348Y-9783013D01*
X30130662Y-9875112D01*
X30130664Y-9875113D01*
X30130666Y-9875114D01*
X30297203Y-9930299D01*
X30399992Y-9940800D01*
X30399997Y-9940800D01*
X33400003Y-9940800D01*
X33400008Y-9940800D01*
X33502797Y-9930299D01*
X33669334Y-9875114D01*
X33818655Y-9783011D01*
X33942711Y-9658955D01*
X34034814Y-9509634D01*
X34089999Y-9343097D01*
X34100500Y-9240308D01*
X34100500Y-8140292D01*
X34089999Y-8037503D01*
X34034814Y-7870966D01*
X34034023Y-7869684D01*
X33942713Y-7721648D01*
X33942710Y-7721644D01*
X33818655Y-7597589D01*
X33818651Y-7597586D01*
X33669337Y-7505487D01*
X33669335Y-7505486D01*
X33586065Y-7477893D01*
X33502797Y-7450301D01*
X33502795Y-7450300D01*
X33400015Y-7439800D01*
X33400008Y-7439800D01*
X30528501Y-7439800D01*
X30519815Y-7437249D01*
X30510855Y-7438538D01*
X30486816Y-7427559D01*
X30461462Y-7420115D01*
X30455534Y-7413273D01*
X30447299Y-7409513D01*
X30433010Y-7387279D01*
X30415707Y-7367311D01*
X30413419Y-7356797D01*
X30409524Y-7350736D01*
X30404501Y-7315800D01*
X30404501Y-7249196D01*
X30404501Y-7216130D01*
X30404501Y-7176042D01*
X30404500Y-7176038D01*
X30404500Y-6640286D01*
X35400001Y-6640286D01*
X35410494Y-6742997D01*
X35465641Y-6909419D01*
X35465643Y-6909424D01*
X35557684Y-7058645D01*
X35681654Y-7182615D01*
X35830875Y-7274656D01*
X35830880Y-7274658D01*
X35997302Y-7329805D01*
X35997309Y-7329806D01*
X36100019Y-7340299D01*
X37399999Y-7340299D01*
X37400000Y-7340298D01*
X37400000Y-6590300D01*
X35400001Y-6590300D01*
X35400001Y-6640286D01*
X30404500Y-6640286D01*
X30404500Y-6284443D01*
X30404500Y-4833711D01*
X30414043Y-4801210D01*
X30423005Y-4768544D01*
X30423861Y-4767774D01*
X30424185Y-4766672D01*
X30449769Y-4744503D01*
X30474984Y-4721854D01*
X30476120Y-4721669D01*
X30476989Y-4720917D01*
X30510520Y-4716095D01*
X30543954Y-4710678D01*
X30545007Y-4711136D01*
G37*
%TD.AperFunction*%
%TA.AperFunction,Conductor*%
G36*
X24415347Y-10476801D02*
G01*
X24422943Y-10476801D01*
X24455501Y-10476801D01*
X24522540Y-10496486D01*
X24568295Y-10549290D01*
X24579501Y-10600801D01*
X24579501Y-13047876D01*
X24585908Y-13107483D01*
X24636202Y-13242328D01*
X24636206Y-13242335D01*
X24722452Y-13357544D01*
X24722455Y-13357547D01*
X24837664Y-13443793D01*
X24837671Y-13443797D01*
X24882618Y-13460561D01*
X24972517Y-13494091D01*
X25032127Y-13500500D01*
X25170879Y-13500499D01*
X25237917Y-13520183D01*
X25283672Y-13572987D01*
X25293616Y-13642145D01*
X25289955Y-13659094D01*
X25253434Y-13784799D01*
X25250600Y-13820811D01*
X25250600Y-13939901D01*
X25241955Y-13969340D01*
X25235429Y-13999334D01*
X25231676Y-14004346D01*
X25230915Y-14006940D01*
X25214277Y-14027587D01*
X25204814Y-14037049D01*
X25143489Y-14070531D01*
X25141329Y-14070980D01*
X25009209Y-14097261D01*
X25009202Y-14097263D01*
X24980550Y-14109131D01*
X24911081Y-14116598D01*
X24848602Y-14085322D01*
X24827561Y-14059665D01*
X24804117Y-14021656D01*
X24680145Y-13897684D01*
X24530924Y-13805643D01*
X24530919Y-13805641D01*
X24364497Y-13750494D01*
X24364490Y-13750493D01*
X24261786Y-13740000D01*
X24011800Y-13740000D01*
X24011800Y-14628500D01*
X23992115Y-14695539D01*
X23939311Y-14741294D01*
X23887800Y-14752500D01*
X23761800Y-14752500D01*
X23761800Y-14878500D01*
X23742115Y-14945539D01*
X23689311Y-14991294D01*
X23637800Y-15002500D01*
X22561801Y-15002500D01*
X22561801Y-15064986D01*
X22572294Y-15167697D01*
X22627441Y-15334119D01*
X22627443Y-15334124D01*
X22719484Y-15483345D01*
X22813104Y-15576965D01*
X22817442Y-15584909D01*
X22824692Y-15590337D01*
X22833927Y-15615099D01*
X22846589Y-15638288D01*
X22845943Y-15647318D01*
X22849107Y-15655802D01*
X22843490Y-15681620D01*
X22841605Y-15707980D01*
X22835785Y-15717035D01*
X22834254Y-15724075D01*
X22813103Y-15752329D01*
X22787379Y-15778052D01*
X22726055Y-15811536D01*
X22656363Y-15806550D01*
X22612018Y-15778050D01*
X22530457Y-15696489D01*
X22530456Y-15696488D01*
X22381134Y-15604386D01*
X22214597Y-15549201D01*
X22214595Y-15549200D01*
X22111816Y-15538700D01*
X21487572Y-15538700D01*
X21420533Y-15519015D01*
X21374778Y-15466211D01*
X21364834Y-15397053D01*
X21393859Y-15333497D01*
X21440119Y-15300139D01*
X21482479Y-15282594D01*
X21613589Y-15194989D01*
X21725089Y-15083489D01*
X21812694Y-14952379D01*
X21873037Y-14806697D01*
X21903800Y-14652042D01*
X21903800Y-14494358D01*
X21903800Y-14494355D01*
X21897176Y-14461056D01*
X21897176Y-14461055D01*
X21892990Y-14440013D01*
X22561800Y-14440013D01*
X22561800Y-14502500D01*
X23511800Y-14502500D01*
X23511800Y-13740000D01*
X23261829Y-13740000D01*
X23261812Y-13740001D01*
X23159102Y-13750494D01*
X22992680Y-13805641D01*
X22992675Y-13805643D01*
X22843454Y-13897684D01*
X22719484Y-14021654D01*
X22627443Y-14170875D01*
X22627441Y-14170880D01*
X22572294Y-14337302D01*
X22572293Y-14337309D01*
X22561800Y-14440013D01*
X21892990Y-14440013D01*
X21876578Y-14357506D01*
X21873037Y-14339703D01*
X21872045Y-14337309D01*
X21812697Y-14194027D01*
X21812690Y-14194014D01*
X21725089Y-14062911D01*
X21725086Y-14062907D01*
X21613592Y-13951413D01*
X21613588Y-13951410D01*
X21482485Y-13863809D01*
X21482472Y-13863802D01*
X21336801Y-13803464D01*
X21336789Y-13803461D01*
X21182145Y-13772700D01*
X21182142Y-13772700D01*
X21024458Y-13772700D01*
X21024455Y-13772700D01*
X20869810Y-13803461D01*
X20869798Y-13803464D01*
X20724127Y-13863802D01*
X20724109Y-13863812D01*
X20597863Y-13948167D01*
X20531186Y-13969045D01*
X20463806Y-13950560D01*
X20441294Y-13932748D01*
X20413665Y-13905119D01*
X20412175Y-13904238D01*
X20272196Y-13821455D01*
X20272193Y-13821454D01*
X20114373Y-13775602D01*
X20114367Y-13775601D01*
X20077501Y-13772700D01*
X20077494Y-13772700D01*
X18672599Y-13772700D01*
X18605560Y-13753015D01*
X18559805Y-13700211D01*
X18549861Y-13631053D01*
X18557420Y-13602768D01*
X18561407Y-13592767D01*
X18567003Y-13583697D01*
X18576720Y-13554369D01*
X18578087Y-13550944D01*
X18597463Y-13526237D01*
X18615330Y-13500430D01*
X18618850Y-13498966D01*
X18621204Y-13495965D01*
X18650858Y-13485656D01*
X18679845Y-13473604D01*
X18684028Y-13474126D01*
X18687201Y-13473024D01*
X18700096Y-13476134D01*
X18736600Y-13480694D01*
X18749616Y-13485549D01*
X18772516Y-13494091D01*
X18779444Y-13494835D01*
X18832127Y-13500500D01*
X21927872Y-13500499D01*
X21987483Y-13494091D01*
X22122331Y-13443796D01*
X22237546Y-13357546D01*
X22323796Y-13242331D01*
X22374091Y-13107483D01*
X22380500Y-13047873D01*
X22380499Y-10762149D01*
X22400184Y-10695111D01*
X22452987Y-10649356D01*
X22522146Y-10639412D01*
X22542180Y-10644911D01*
X22542376Y-10644269D01*
X22548192Y-10646032D01*
X22548203Y-10646037D01*
X22702853Y-10676799D01*
X22702856Y-10676800D01*
X22702858Y-10676800D01*
X22860544Y-10676800D01*
X22860545Y-10676799D01*
X23015197Y-10646037D01*
X23160879Y-10585694D01*
X23182902Y-10570979D01*
X23292575Y-10497698D01*
X23359253Y-10476820D01*
X23361466Y-10476800D01*
X24415331Y-10476800D01*
X24415347Y-10476801D01*
G37*
%TD.AperFunction*%
%TA.AperFunction,Conductor*%
G36*
X15221546Y-12235201D02*
G01*
X15277479Y-12277073D01*
X15281314Y-12282492D01*
X15368910Y-12413588D01*
X15368913Y-12413592D01*
X15480407Y-12525086D01*
X15480411Y-12525089D01*
X15611514Y-12612690D01*
X15611527Y-12612697D01*
X15757198Y-12673035D01*
X15757203Y-12673037D01*
X15800982Y-12681745D01*
X15812617Y-12687831D01*
X15825658Y-12689397D01*
X15842980Y-12703713D01*
X15862891Y-12714129D01*
X15869390Y-12725541D01*
X15879514Y-12733909D01*
X15886345Y-12755316D01*
X15897466Y-12774844D01*
X15897244Y-12789469D01*
X15900756Y-12800471D01*
X15896754Y-12821889D01*
X15896549Y-12835514D01*
X15894448Y-12843337D01*
X15870563Y-12901003D01*
X15846528Y-13021832D01*
X15845464Y-13025797D01*
X15829313Y-13052264D01*
X15814937Y-13079748D01*
X15811267Y-13081837D01*
X15809070Y-13085439D01*
X15781177Y-13098971D01*
X15754221Y-13114322D01*
X15749361Y-13114408D01*
X15746209Y-13115938D01*
X15735525Y-13114655D01*
X15701514Y-13115262D01*
X15617246Y-13098500D01*
X15617242Y-13098500D01*
X15459558Y-13098500D01*
X15459555Y-13098500D01*
X15304910Y-13129261D01*
X15304898Y-13129264D01*
X15159227Y-13189602D01*
X15159214Y-13189609D01*
X15027527Y-13277601D01*
X14960850Y-13298479D01*
X14958636Y-13298499D01*
X14831943Y-13298499D01*
X14679215Y-13339423D01*
X14679213Y-13339423D01*
X14679213Y-13339424D01*
X14647828Y-13357544D01*
X14616581Y-13375585D01*
X14542281Y-13418482D01*
X14224383Y-13736381D01*
X14163060Y-13769866D01*
X14136702Y-13772700D01*
X13346098Y-13772700D01*
X13309232Y-13775601D01*
X13309226Y-13775602D01*
X13143910Y-13823632D01*
X13143049Y-13820668D01*
X13087910Y-13827450D01*
X13024961Y-13797132D01*
X13020380Y-13792779D01*
X13011801Y-13784200D01*
X11411800Y-13784200D01*
X11411800Y-14609199D01*
X12310426Y-14609199D01*
X12377465Y-14628884D01*
X12423220Y-14681688D01*
X12433164Y-14750846D01*
X12404139Y-14814402D01*
X12379317Y-14836301D01*
X12243711Y-14926910D01*
X12243707Y-14926913D01*
X12132213Y-15038407D01*
X12132210Y-15038411D01*
X12044609Y-15169514D01*
X12044602Y-15169527D01*
X11984262Y-15315203D01*
X11982595Y-15320700D01*
X11944295Y-15379137D01*
X11880482Y-15407591D01*
X11863936Y-15408700D01*
X10986897Y-15408700D01*
X10919858Y-15389015D01*
X10899216Y-15372381D01*
X10347715Y-14820880D01*
X10314230Y-14759557D01*
X10319214Y-14689865D01*
X10361086Y-14633932D01*
X10426550Y-14609515D01*
X10435396Y-14609199D01*
X10911800Y-14609199D01*
X10911800Y-13658200D01*
X10931485Y-13591161D01*
X10984289Y-13545406D01*
X11035800Y-13534200D01*
X11161800Y-13534200D01*
X11161800Y-13408200D01*
X11181485Y-13341161D01*
X11234289Y-13295406D01*
X11285800Y-13284200D01*
X13011799Y-13284200D01*
X13011799Y-13274500D01*
X13031484Y-13207461D01*
X13084288Y-13161706D01*
X13135799Y-13150500D01*
X13868331Y-13150500D01*
X13868347Y-13150501D01*
X13875943Y-13150501D01*
X14034054Y-13150501D01*
X14034057Y-13150501D01*
X14186785Y-13109577D01*
X14264439Y-13064743D01*
X14323716Y-13030520D01*
X14435520Y-12918716D01*
X14435520Y-12918714D01*
X14445724Y-12908511D01*
X14445728Y-12908506D01*
X15090533Y-12263700D01*
X15151854Y-12230217D01*
X15221546Y-12235201D01*
G37*
%TD.AperFunction*%
%TA.AperFunction,Conductor*%
G36*
X15134018Y-320185D02*
G01*
X15179773Y-372989D01*
X15189717Y-442147D01*
X15172518Y-489594D01*
X15164740Y-502206D01*
X15147187Y-530663D01*
X15147185Y-530668D01*
X15127587Y-589811D01*
X15092001Y-697203D01*
X15092001Y-697204D01*
X15092000Y-697204D01*
X15081500Y-799983D01*
X15081500Y-2200001D01*
X15081501Y-2200018D01*
X15092000Y-2302796D01*
X15092001Y-2302799D01*
X15147185Y-2469331D01*
X15147187Y-2469336D01*
X15159817Y-2489813D01*
X15239288Y-2618656D01*
X15363344Y-2742712D01*
X15512666Y-2834814D01*
X15679203Y-2889999D01*
X15740737Y-2896285D01*
X15805428Y-2922681D01*
X15845579Y-2979861D01*
X15848443Y-3049672D01*
X15838328Y-3073692D01*
X15839240Y-3074118D01*
X15836185Y-3080668D01*
X15821131Y-3126099D01*
X15781001Y-3247203D01*
X15781001Y-3247204D01*
X15781000Y-3247204D01*
X15770500Y-3349983D01*
X15770500Y-5250001D01*
X15770501Y-5250018D01*
X15781000Y-5352796D01*
X15781001Y-5352799D01*
X15836186Y-5519334D01*
X15838175Y-5523599D01*
X15848665Y-5592676D01*
X15820143Y-5656460D01*
X15761665Y-5694697D01*
X15725792Y-5700000D01*
X15630029Y-5700000D01*
X15630012Y-5700001D01*
X15527302Y-5710494D01*
X15360880Y-5765641D01*
X15360875Y-5765643D01*
X15211654Y-5857684D01*
X15087680Y-5981658D01*
X15066888Y-6015368D01*
X15014940Y-6062091D01*
X14945977Y-6073312D01*
X14896254Y-6055808D01*
X14835757Y-6018493D01*
X14749334Y-5965186D01*
X14749333Y-5965185D01*
X14749332Y-5965185D01*
X14665329Y-5937349D01*
X14582797Y-5910001D01*
X14582795Y-5910000D01*
X14480015Y-5899500D01*
X14480008Y-5899500D01*
X13379992Y-5899500D01*
X13379984Y-5899500D01*
X13277204Y-5910000D01*
X13277203Y-5910001D01*
X13110664Y-5965186D01*
X13110662Y-5965187D01*
X12961348Y-6057286D01*
X12961344Y-6057289D01*
X12837289Y-6181344D01*
X12837286Y-6181348D01*
X12745187Y-6330662D01*
X12745186Y-6330664D01*
X12690001Y-6497203D01*
X12690000Y-6497204D01*
X12679500Y-6599984D01*
X12679500Y-9600015D01*
X12690000Y-9702795D01*
X12690001Y-9702796D01*
X12745186Y-9869335D01*
X12745187Y-9869337D01*
X12837286Y-10018651D01*
X12837289Y-10018655D01*
X12961344Y-10142710D01*
X12961348Y-10142713D01*
X13110662Y-10234812D01*
X13110664Y-10234813D01*
X13110666Y-10234814D01*
X13277203Y-10289999D01*
X13379992Y-10300500D01*
X13379997Y-10300500D01*
X14480003Y-10300500D01*
X14480008Y-10300500D01*
X14582797Y-10289999D01*
X14749334Y-10234814D01*
X14782978Y-10214061D01*
X14798036Y-10209941D01*
X14811017Y-10201267D01*
X14831045Y-10200908D01*
X14850369Y-10195621D01*
X14865265Y-10200296D01*
X14880875Y-10200017D01*
X14897919Y-10210544D01*
X14917033Y-10216543D01*
X14927844Y-10229027D01*
X14940320Y-10236733D01*
X14952118Y-10257058D01*
X14959930Y-10266079D01*
X14963314Y-10273152D01*
X14995186Y-10369334D01*
X15058291Y-10471644D01*
X15061139Y-10477596D01*
X15065714Y-10505826D01*
X15073263Y-10533413D01*
X15071234Y-10539877D01*
X15072318Y-10546565D01*
X15060906Y-10572785D01*
X15052341Y-10600076D01*
X15045293Y-10608656D01*
X15044435Y-10610630D01*
X15042746Y-10611758D01*
X15036965Y-10618798D01*
X13742584Y-11913181D01*
X13681261Y-11946666D01*
X13654903Y-11949500D01*
X9526804Y-11949500D01*
X9459765Y-11929815D01*
X9421265Y-11890596D01*
X9409768Y-11871956D01*
X9400139Y-11862327D01*
X9366654Y-11801004D01*
X9371638Y-11731312D01*
X9400145Y-11686959D01*
X9409373Y-11677731D01*
X9498342Y-11533492D01*
X9498347Y-11533481D01*
X9551655Y-11372606D01*
X9561799Y-11273322D01*
X9561800Y-11273309D01*
X9561800Y-11250000D01*
X8710800Y-11250000D01*
X8643761Y-11230315D01*
X8598006Y-11177511D01*
X8586800Y-11126000D01*
X8586800Y-11000000D01*
X8460800Y-11000000D01*
X8393761Y-10980315D01*
X8348006Y-10927511D01*
X8336800Y-10876000D01*
X8336800Y-10750000D01*
X8836800Y-10750000D01*
X9561799Y-10750000D01*
X9561799Y-10726692D01*
X9561798Y-10726677D01*
X9551655Y-10627392D01*
X9498347Y-10466518D01*
X9498342Y-10466507D01*
X9409375Y-10322271D01*
X9409372Y-10322267D01*
X9289532Y-10202427D01*
X9289528Y-10202424D01*
X9145292Y-10113457D01*
X9145281Y-10113452D01*
X8984406Y-10060144D01*
X8885122Y-10050000D01*
X8836800Y-10050000D01*
X8836800Y-10750000D01*
X8336800Y-10750000D01*
X8336800Y-10050000D01*
X8336799Y-10049999D01*
X8288493Y-10050000D01*
X8288475Y-10050001D01*
X8189192Y-10060144D01*
X8028318Y-10113452D01*
X8028307Y-10113457D01*
X7884071Y-10202424D01*
X7884067Y-10202427D01*
X7764227Y-10322267D01*
X7764224Y-10322271D01*
X7675257Y-10466507D01*
X7675252Y-10466518D01*
X7621944Y-10627393D01*
X7611800Y-10726677D01*
X7611800Y-10845145D01*
X7592115Y-10912184D01*
X7539311Y-10957939D01*
X7470153Y-10967883D01*
X7435406Y-10957532D01*
X7430928Y-10955444D01*
X7264497Y-10900294D01*
X7264490Y-10900293D01*
X7161786Y-10889800D01*
X7036800Y-10889800D01*
X7036800Y-12165800D01*
X7017115Y-12232839D01*
X6964311Y-12278594D01*
X6912800Y-12289800D01*
X6786800Y-12289800D01*
X6786800Y-12415800D01*
X6767115Y-12482839D01*
X6714311Y-12528594D01*
X6662800Y-12539800D01*
X5711801Y-12539800D01*
X5711801Y-12784800D01*
X5692116Y-12851839D01*
X5639312Y-12897594D01*
X5587801Y-12908800D01*
X5036300Y-12908800D01*
X4969261Y-12889115D01*
X4923506Y-12836311D01*
X4912300Y-12784800D01*
X4912299Y-11589813D01*
X5711800Y-11589813D01*
X5711800Y-12039800D01*
X6536800Y-12039800D01*
X6536800Y-10889800D01*
X6411827Y-10889800D01*
X6411812Y-10889801D01*
X6309102Y-10900294D01*
X6142680Y-10955441D01*
X6142675Y-10955443D01*
X5993454Y-11047484D01*
X5869484Y-11171454D01*
X5777443Y-11320675D01*
X5777441Y-11320680D01*
X5722294Y-11487102D01*
X5722293Y-11487109D01*
X5711800Y-11589813D01*
X4912299Y-11589813D01*
X4912299Y-11589798D01*
X4912298Y-11589781D01*
X4901799Y-11487003D01*
X4901798Y-11487000D01*
X4846614Y-11320466D01*
X4754512Y-11171144D01*
X4630456Y-11047088D01*
X4496202Y-10964280D01*
X4449479Y-10912333D01*
X4437300Y-10858742D01*
X4437300Y-10413019D01*
X4456985Y-10345980D01*
X4509789Y-10300225D01*
X4573903Y-10289661D01*
X4577199Y-10289997D01*
X4577203Y-10289999D01*
X4679992Y-10300500D01*
X4679997Y-10300500D01*
X5780003Y-10300500D01*
X5780008Y-10300500D01*
X5882797Y-10289999D01*
X6049334Y-10234814D01*
X6198655Y-10142711D01*
X6322711Y-10018655D01*
X6414814Y-9869334D01*
X6469999Y-9702797D01*
X6480500Y-9600008D01*
X6480500Y-6599992D01*
X6469999Y-6497203D01*
X6414814Y-6330666D01*
X6322711Y-6181345D01*
X6198655Y-6057289D01*
X6198651Y-6057286D01*
X6049337Y-5965187D01*
X6049335Y-5965186D01*
X5966065Y-5937593D01*
X5882797Y-5910001D01*
X5882795Y-5910000D01*
X5882794Y-5910000D01*
X5803819Y-5901932D01*
X5739127Y-5875535D01*
X5698976Y-5818354D01*
X5696113Y-5748543D01*
X5728739Y-5690894D01*
X6863502Y-4556131D01*
X6924823Y-4522648D01*
X6994515Y-4527632D01*
X7003902Y-4532222D01*
X7004118Y-4531760D01*
X7010659Y-4534810D01*
X7010666Y-4534814D01*
X7177203Y-4589999D01*
X7279991Y-4600500D01*
X7880008Y-4600499D01*
X7880016Y-4600498D01*
X7880019Y-4600498D01*
X7936302Y-4594748D01*
X7982797Y-4589999D01*
X8149334Y-4534814D01*
X8149340Y-4534810D01*
X8155883Y-4531760D01*
X8157078Y-4534324D01*
X8211974Y-4519302D01*
X8278638Y-4540221D01*
X8297365Y-4555600D01*
X9337139Y-5595374D01*
X9337149Y-5595385D01*
X9341479Y-5599715D01*
X9341480Y-5599716D01*
X9453284Y-5711520D01*
X9530680Y-5756204D01*
X9590215Y-5790577D01*
X9742943Y-5831501D01*
X9742946Y-5831501D01*
X9908653Y-5831501D01*
X9908669Y-5831500D01*
X10816134Y-5831500D01*
X10883173Y-5851185D01*
X10885025Y-5852398D01*
X11016714Y-5940390D01*
X11016727Y-5940397D01*
X11134026Y-5988983D01*
X11162403Y-6000737D01*
X11317053Y-6031499D01*
X11317056Y-6031500D01*
X11317058Y-6031500D01*
X11474744Y-6031500D01*
X11474745Y-6031499D01*
X11629397Y-6000737D01*
X11775079Y-5940394D01*
X11906189Y-5852789D01*
X12017689Y-5741289D01*
X12105294Y-5610179D01*
X12165637Y-5464497D01*
X12196400Y-5309842D01*
X12196400Y-5152158D01*
X12196400Y-5152155D01*
X12196399Y-5152153D01*
X12188022Y-5110038D01*
X12165637Y-4997503D01*
X12149990Y-4959728D01*
X12105297Y-4851827D01*
X12105295Y-4851823D01*
X12105294Y-4851821D01*
X12030027Y-4739177D01*
X12009150Y-4672501D01*
X12027634Y-4605121D01*
X12079613Y-4558430D01*
X12094127Y-4552581D01*
X12149117Y-4534359D01*
X12149124Y-4534356D01*
X12298345Y-4442315D01*
X12422315Y-4318345D01*
X12514356Y-4169124D01*
X12514358Y-4169119D01*
X12569505Y-4002697D01*
X12569506Y-4002690D01*
X12579999Y-3899986D01*
X12580000Y-3899973D01*
X12580000Y-2600000D01*
X11704000Y-2600000D01*
X11636961Y-2580315D01*
X11591206Y-2527511D01*
X11580000Y-2476000D01*
X11580000Y-2224000D01*
X11599685Y-2156961D01*
X11652489Y-2111206D01*
X11704000Y-2100000D01*
X12579999Y-2100000D01*
X12579999Y-800028D01*
X12579998Y-800013D01*
X12569505Y-697302D01*
X12514358Y-530880D01*
X12514353Y-530869D01*
X12488896Y-489597D01*
X12470455Y-422205D01*
X12491377Y-355541D01*
X12545019Y-310771D01*
X12594434Y-300500D01*
X15066979Y-300500D01*
X15134018Y-320185D01*
G37*
%TD.AperFunction*%
%TA.AperFunction,Conductor*%
G36*
X16973039Y-6794685D02*
G01*
X17018794Y-6847489D01*
X17030000Y-6899000D01*
X17030000Y-7849999D01*
X17506403Y-7849999D01*
X17573442Y-7869684D01*
X17619197Y-7922488D01*
X17629141Y-7991646D01*
X17600116Y-8055202D01*
X17594084Y-8061680D01*
X17042582Y-8613181D01*
X16981259Y-8646666D01*
X16954901Y-8649500D01*
X15629998Y-8649500D01*
X15629981Y-8649501D01*
X15527203Y-8660000D01*
X15527200Y-8660001D01*
X15360659Y-8715188D01*
X15356894Y-8716944D01*
X15354067Y-8717373D01*
X15353811Y-8717458D01*
X15353796Y-8717414D01*
X15287815Y-8727429D01*
X15224034Y-8698903D01*
X15185800Y-8640423D01*
X15180500Y-8604557D01*
X15180500Y-7894887D01*
X15200185Y-7827848D01*
X15252989Y-7782093D01*
X15322147Y-7772149D01*
X15356904Y-7782504D01*
X15360881Y-7784358D01*
X15527302Y-7839505D01*
X15527309Y-7839506D01*
X15630019Y-7849999D01*
X16529999Y-7849999D01*
X16530000Y-7849998D01*
X16530000Y-6899000D01*
X16549685Y-6831961D01*
X16602489Y-6786206D01*
X16654000Y-6775000D01*
X16906000Y-6775000D01*
X16973039Y-6794685D01*
G37*
%TD.AperFunction*%
%TA.AperFunction,Conductor*%
G36*
X19134605Y-320185D02*
G01*
X19180360Y-372989D01*
X19190304Y-442147D01*
X19173104Y-489597D01*
X19147646Y-530869D01*
X19147641Y-530880D01*
X19092494Y-697302D01*
X19092493Y-697309D01*
X19082000Y-800013D01*
X19082000Y-1250000D01*
X22581999Y-1250000D01*
X22581999Y-800028D01*
X22581998Y-800013D01*
X22571505Y-697302D01*
X22516358Y-530880D01*
X22516353Y-530869D01*
X22490896Y-489597D01*
X22472455Y-422205D01*
X22493377Y-355541D01*
X22547019Y-310771D01*
X22596434Y-300500D01*
X39575500Y-300500D01*
X39642539Y-320185D01*
X39688294Y-372989D01*
X39699500Y-424500D01*
X39699500Y-3325278D01*
X39679815Y-3392317D01*
X39627011Y-3438072D01*
X39557853Y-3448016D01*
X39510405Y-3430818D01*
X39483486Y-3414215D01*
X39469334Y-3405486D01*
X39302797Y-3350301D01*
X39302795Y-3350300D01*
X39200010Y-3339800D01*
X36099998Y-3339800D01*
X36099981Y-3339801D01*
X35997203Y-3350300D01*
X35997200Y-3350301D01*
X35830668Y-3405485D01*
X35830663Y-3405487D01*
X35681342Y-3497589D01*
X35557289Y-3621642D01*
X35520741Y-3680897D01*
X35468793Y-3727621D01*
X35415202Y-3739800D01*
X31890466Y-3739800D01*
X31823427Y-3720115D01*
X31821575Y-3718902D01*
X31689885Y-3630909D01*
X31689872Y-3630902D01*
X31544201Y-3570564D01*
X31544189Y-3570561D01*
X31389545Y-3539800D01*
X31389542Y-3539800D01*
X31231858Y-3539800D01*
X31231855Y-3539800D01*
X31077210Y-3570561D01*
X31077198Y-3570564D01*
X30931527Y-3630902D01*
X30931514Y-3630909D01*
X30800411Y-3718510D01*
X30800407Y-3718513D01*
X30688913Y-3830007D01*
X30688910Y-3830011D01*
X30601309Y-3961114D01*
X30601304Y-3961123D01*
X30546008Y-4094622D01*
X30537098Y-4105677D01*
X30532455Y-4119095D01*
X30515611Y-4132340D01*
X30502167Y-4149025D01*
X30488695Y-4153508D01*
X30477535Y-4162286D01*
X30456204Y-4164322D01*
X30435873Y-4171090D01*
X30422114Y-4167578D01*
X30407981Y-4168928D01*
X30388936Y-4159110D01*
X30368174Y-4153811D01*
X30357288Y-4142795D01*
X30345878Y-4136913D01*
X30324061Y-4109170D01*
X30312184Y-4088599D01*
X30312182Y-4088597D01*
X30284521Y-4040686D01*
X30284520Y-4040684D01*
X30172716Y-3928880D01*
X30172715Y-3928879D01*
X30168385Y-3924549D01*
X30168374Y-3924539D01*
X29960268Y-3716433D01*
X29926783Y-3655110D01*
X29930243Y-3589747D01*
X29939505Y-3561794D01*
X29939506Y-3561790D01*
X29949999Y-3459086D01*
X29949999Y-3285509D01*
X29969683Y-3218469D01*
X30022487Y-3172714D01*
X30091645Y-3162770D01*
X30126409Y-3173128D01*
X30130663Y-3175112D01*
X30130666Y-3175114D01*
X30297203Y-3230299D01*
X30399992Y-3240800D01*
X30399997Y-3240800D01*
X33400003Y-3240800D01*
X33400008Y-3240800D01*
X33502797Y-3230299D01*
X33669334Y-3175114D01*
X33818655Y-3083011D01*
X33942711Y-2958955D01*
X34034814Y-2809634D01*
X34089999Y-2643097D01*
X34100500Y-2540308D01*
X34100500Y-1440292D01*
X34089999Y-1337503D01*
X34034814Y-1170966D01*
X33942711Y-1021645D01*
X33818655Y-897589D01*
X33818651Y-897586D01*
X33669337Y-805487D01*
X33669335Y-805486D01*
X33586065Y-777893D01*
X33502797Y-750301D01*
X33502795Y-750300D01*
X33400015Y-739800D01*
X33400008Y-739800D01*
X30399992Y-739800D01*
X30399984Y-739800D01*
X30297204Y-750300D01*
X30297203Y-750301D01*
X30130664Y-805486D01*
X30130662Y-805487D01*
X29981348Y-897586D01*
X29981344Y-897589D01*
X29857289Y-1021644D01*
X29857286Y-1021648D01*
X29765187Y-1170962D01*
X29765186Y-1170964D01*
X29710001Y-1337503D01*
X29708583Y-1344127D01*
X29706295Y-1343637D01*
X29683983Y-1398272D01*
X29626790Y-1438405D01*
X29556978Y-1441246D01*
X29521951Y-1426487D01*
X29519126Y-1424745D01*
X29519119Y-1424741D01*
X29352697Y-1369594D01*
X29352690Y-1369593D01*
X29249986Y-1359100D01*
X29125000Y-1359100D01*
X29125000Y-2635100D01*
X29105315Y-2702139D01*
X29052511Y-2747894D01*
X29001000Y-2759100D01*
X28875000Y-2759100D01*
X28875000Y-2885100D01*
X28855315Y-2952139D01*
X28802511Y-2997894D01*
X28751000Y-3009100D01*
X27800001Y-3009100D01*
X27800001Y-3309900D01*
X27797450Y-3318585D01*
X27798739Y-3327547D01*
X27787760Y-3351587D01*
X27780316Y-3376939D01*
X27773475Y-3382866D01*
X27769714Y-3391103D01*
X27747479Y-3405392D01*
X27727512Y-3422694D01*
X27716997Y-3424981D01*
X27710936Y-3428877D01*
X27676001Y-3433900D01*
X27500398Y-3433900D01*
X27433359Y-3414215D01*
X27412717Y-3397581D01*
X27036818Y-3021682D01*
X27003333Y-2960359D01*
X27000499Y-2934001D01*
X27000499Y-2059113D01*
X27800000Y-2059113D01*
X27800000Y-2509100D01*
X28625000Y-2509100D01*
X28625000Y-1359100D01*
X28500027Y-1359100D01*
X28500012Y-1359101D01*
X28397302Y-1369594D01*
X28230880Y-1424741D01*
X28230875Y-1424743D01*
X28081654Y-1516784D01*
X27957684Y-1640754D01*
X27865643Y-1789975D01*
X27865641Y-1789980D01*
X27810494Y-1956402D01*
X27810493Y-1956409D01*
X27800000Y-2059113D01*
X27000499Y-2059113D01*
X27000499Y-2059098D01*
X27000498Y-2059081D01*
X26989999Y-1956303D01*
X26989998Y-1956300D01*
X26971616Y-1900827D01*
X26934814Y-1789766D01*
X26842712Y-1640444D01*
X26718656Y-1516388D01*
X26592225Y-1438405D01*
X26569336Y-1424287D01*
X26569331Y-1424285D01*
X26567862Y-1423798D01*
X26402797Y-1369101D01*
X26402795Y-1369100D01*
X26300010Y-1358600D01*
X25549998Y-1358600D01*
X25549980Y-1358601D01*
X25447203Y-1369100D01*
X25447200Y-1369101D01*
X25280668Y-1424285D01*
X25280663Y-1424287D01*
X25131342Y-1516389D01*
X25007289Y-1640442D01*
X24915187Y-1789763D01*
X24915185Y-1789768D01*
X24901262Y-1831785D01*
X24860001Y-1956303D01*
X24860001Y-1956304D01*
X24860000Y-1956304D01*
X24849500Y-2059083D01*
X24849500Y-3459101D01*
X24849501Y-3459118D01*
X24860000Y-3561896D01*
X24860001Y-3561899D01*
X24915185Y-3728431D01*
X24915187Y-3728436D01*
X24950069Y-3784988D01*
X25007288Y-3877756D01*
X25131344Y-4001812D01*
X25280666Y-4093914D01*
X25447203Y-4149099D01*
X25549991Y-4159600D01*
X26300008Y-4159599D01*
X26401311Y-4149250D01*
X26470000Y-4162019D01*
X26501591Y-4184927D01*
X26831584Y-4514920D01*
X26831586Y-4514921D01*
X26831590Y-4514924D01*
X26961624Y-4589998D01*
X26968516Y-4593977D01*
X27000241Y-4602477D01*
X27059901Y-4638842D01*
X27090430Y-4701689D01*
X27092099Y-4725711D01*
X27091806Y-4736177D01*
X27086500Y-4762858D01*
X27086500Y-4920542D01*
X27086641Y-4921255D01*
X27086452Y-4928059D01*
X27076184Y-4959728D01*
X27066815Y-4991639D01*
X27065459Y-4992813D01*
X27064905Y-4994523D01*
X27039147Y-5015613D01*
X27014011Y-5037394D01*
X27012016Y-5037827D01*
X27010845Y-5038787D01*
X27003949Y-5039582D01*
X26962500Y-5048600D01*
X25198157Y-5048600D01*
X25040042Y-5048600D01*
X24887315Y-5089523D01*
X24887314Y-5089523D01*
X24887312Y-5089524D01*
X24887309Y-5089525D01*
X24851785Y-5110036D01*
X24851783Y-5110037D01*
X24750390Y-5168575D01*
X24750382Y-5168581D01*
X24638578Y-5280386D01*
X22869971Y-7048992D01*
X22808648Y-7082477D01*
X22738956Y-7077493D01*
X22694612Y-7048995D01*
X22477570Y-6831961D01*
X22416819Y-6771212D01*
X22383333Y-6709889D01*
X22380499Y-6683529D01*
X22380499Y-6152129D01*
X22380499Y-6152128D01*
X22374091Y-6092517D01*
X22374090Y-6092516D01*
X22373525Y-6087253D01*
X22385932Y-6018493D01*
X22433543Y-5967357D01*
X22496815Y-5949999D01*
X22870972Y-5949999D01*
X22870986Y-5949998D01*
X22973697Y-5939505D01*
X23140119Y-5884358D01*
X23140124Y-5884356D01*
X23289345Y-5792315D01*
X23413315Y-5668345D01*
X23505356Y-5519124D01*
X23505358Y-5519119D01*
X23560505Y-5352697D01*
X23560506Y-5352690D01*
X23570999Y-5249986D01*
X23571000Y-5249973D01*
X23571000Y-4550000D01*
X21945000Y-4550000D01*
X21877961Y-4530315D01*
X21832206Y-4477511D01*
X21821000Y-4426000D01*
X21821000Y-4174000D01*
X21840685Y-4106961D01*
X21893489Y-4061206D01*
X21945000Y-4050000D01*
X23570999Y-4050000D01*
X23570999Y-3350028D01*
X23570998Y-3350013D01*
X23560505Y-3247302D01*
X23505358Y-3080880D01*
X23505356Y-3080875D01*
X23413315Y-2931654D01*
X23289345Y-2807684D01*
X23140124Y-2715643D01*
X23140119Y-2715641D01*
X22973697Y-2660494D01*
X22973690Y-2660493D01*
X22870986Y-2650000D01*
X22626654Y-2650000D01*
X22559615Y-2630315D01*
X22513860Y-2577511D01*
X22503916Y-2508353D01*
X22514271Y-2473597D01*
X22516357Y-2469122D01*
X22571505Y-2302697D01*
X22571506Y-2302690D01*
X22581999Y-2199986D01*
X22582000Y-2199973D01*
X22582000Y-1750000D01*
X19082001Y-1750000D01*
X19082001Y-1952004D01*
X19062316Y-2019043D01*
X19009512Y-2064798D01*
X18940354Y-2074742D01*
X18876798Y-2045717D01*
X18870320Y-2039685D01*
X18618818Y-1788183D01*
X18585333Y-1726860D01*
X18582499Y-1700502D01*
X18582499Y-799998D01*
X18582498Y-799981D01*
X18571999Y-697203D01*
X18571998Y-697200D01*
X18543467Y-611100D01*
X18516814Y-530666D01*
X18491481Y-489595D01*
X18473042Y-422204D01*
X18493965Y-355541D01*
X18547607Y-310771D01*
X18597021Y-300500D01*
X19067566Y-300500D01*
X19134605Y-320185D01*
G37*
%TD.AperFunction*%
%TD*%
M02*
