%TF.GenerationSoftware,KiCad,Pcbnew,10.0.3*%
%TF.CreationDate,2026-06-21T07:04:33-07:00*%
%TF.ProjectId,brickdup_psu,62726963-6b64-4757-905f-7073752e6b69,rev?*%
%TF.SameCoordinates,Original*%
%TF.FileFunction,Other,User*%
%FSLAX46Y46*%
G04 Gerber Fmt 4.6, Leading zero omitted, Abs format (unit mm)*
G04 Created by KiCad (PCBNEW 10.0.3) date 2026-06-21 07:04:33*
%MOMM*%
%LPD*%
G01*
G04 APERTURE LIST*
%ADD10C,0.050000*%
G04 APERTURE END LIST*
%TO.C,RFB2*%
D10*
X2694700Y-14303800D02*
X3634700Y-14303800D01*
X3634700Y-16163800D01*
X2694700Y-16163800D01*
X2694700Y-14303800D01*
%TO.C,R1*%
X6753400Y-12800800D02*
X8653400Y-12800800D01*
X8653400Y-16160800D01*
X6753400Y-16160800D01*
X6753400Y-12800800D01*
%TO.C,U1*%
X13380000Y-12845000D02*
X14880000Y-12845000D01*
X13380000Y-17765000D02*
X13380000Y-12845000D01*
X14880000Y-12605000D02*
X19280000Y-12605000D01*
X14880000Y-12845000D02*
X14880000Y-12605000D01*
X14880000Y-17765000D02*
X13380000Y-17765000D01*
X14880000Y-18005000D02*
X14880000Y-17765000D01*
X19280000Y-12605000D02*
X19280000Y-12845000D01*
X19280000Y-12845000D02*
X20780000Y-12845000D01*
X19280000Y-17765000D02*
X19280000Y-18005000D01*
X19280000Y-18005000D02*
X14880000Y-18005000D01*
X20780000Y-12845000D02*
X20780000Y-17765000D01*
X20780000Y-17765000D02*
X19280000Y-17765000D01*
%TO.C,H1*%
X6450000Y-4000000D02*
G75*
G02*
X1550000Y-4000000I-2450000J0D01*
G01*
X1550000Y-4000000D02*
G75*
G02*
X6450000Y-4000000I2450000J0D01*
G01*
%TO.C,D1*%
X11235100Y-9700000D02*
X18235100Y-9700000D01*
X11235100Y-13200000D02*
X11235100Y-9700000D01*
X18235100Y-9700000D02*
X18235100Y-13200000D01*
X18235100Y-13200000D02*
X11235100Y-13200000D01*
%TO.C,RFB1*%
X7025700Y-16564700D02*
X7965700Y-16564700D01*
X7965700Y-18424700D01*
X7025700Y-18424700D01*
X7025700Y-16564700D01*
%TO.C,Cin1*%
X430200Y-6550000D02*
X3630200Y-6550000D01*
X3630200Y-11150000D01*
X430200Y-11150000D01*
X430200Y-6550000D01*
%TO.C,R2*%
X17500000Y-6615800D02*
X19400000Y-6615800D01*
X19400000Y-9975800D01*
X17500000Y-9975800D01*
X17500000Y-6615800D01*
%TO.C,Cout3*%
X37250400Y-17661200D02*
X39070400Y-17661200D01*
X39070400Y-18581200D01*
X37250400Y-18581200D01*
X37250400Y-17661200D01*
%TO.C,J2*%
X6300000Y-5890000D02*
X6450000Y-5890000D01*
X6300000Y-10300000D02*
X6300000Y-5890000D01*
X6450000Y-1500000D02*
X8900000Y-1500000D01*
X6450000Y-5890000D02*
X6450000Y-1500000D01*
X8810000Y-10100000D02*
X8810000Y-10300000D01*
X8810000Y-10300000D02*
X6300000Y-10300000D01*
X8900000Y-100000D02*
X14900000Y-100000D01*
X8900000Y-1500000D02*
X8900000Y-100000D01*
X14900000Y-100000D02*
X14900000Y-1500000D01*
X14900000Y-1500000D02*
X17350000Y-1500000D01*
X14990000Y-10100000D02*
X8810000Y-10100000D01*
X14990000Y-10300000D02*
X14990000Y-10100000D01*
X17350000Y-1500000D02*
X17350000Y-5890000D01*
X17350000Y-5890000D02*
X17500000Y-5890000D01*
X17500000Y-5890000D02*
X17500000Y-10300000D01*
X17500000Y-10300000D02*
X14990000Y-10300000D01*
%TO.C,Cout2*%
X18009700Y-1896600D02*
X22609700Y-1896600D01*
X22609700Y-4196600D01*
X18009700Y-4196600D01*
X18009700Y-1896600D01*
%TO.C,Cin3*%
X25285800Y-2676500D02*
X26745800Y-2676500D01*
X26745800Y-5636500D01*
X25285800Y-5636500D01*
X25285800Y-2676500D01*
%TO.C,Cff*%
X3298600Y-12033800D02*
X4218600Y-12033800D01*
X4218600Y-13853800D01*
X3298600Y-13853800D01*
X3298600Y-12033800D01*
%TO.C,D2*%
X22400000Y-9800000D02*
X29700000Y-9800000D01*
X22400000Y-14300000D02*
X22400000Y-9800000D01*
X29700000Y-9800000D02*
X29700000Y-14300000D01*
X29700000Y-14300000D02*
X22400000Y-14300000D01*
%TO.C,Cbst*%
X21130000Y-11877600D02*
X22050000Y-11877600D01*
X22050000Y-13697600D01*
X21130000Y-13697600D01*
X21130000Y-11877600D01*
%TO.C,Cout1*%
X2075700Y-16513800D02*
X6675700Y-16513800D01*
X6675700Y-18813800D01*
X2075700Y-18813800D01*
X2075700Y-16513800D01*
%TO.C,RDIM*%
X25508500Y-1382600D02*
X27368500Y-1382600D01*
X27368500Y-2322600D01*
X25508500Y-2322600D01*
X25508500Y-1382600D01*
%TO.C,REN1*%
X4097200Y-6650000D02*
X5037200Y-6650000D01*
X5037200Y-8510000D01*
X4097200Y-8510000D01*
X4097200Y-6650000D01*
%TO.C,J1*%
X29700000Y-4500000D02*
X34110000Y-4500000D01*
X29700000Y-7000000D02*
X29700000Y-4500000D01*
X29700000Y-11200000D02*
X29900000Y-11200000D01*
X29700000Y-13700000D02*
X29700000Y-11200000D01*
X29900000Y-7000000D02*
X29700000Y-7000000D01*
X29900000Y-11200000D02*
X29900000Y-7000000D01*
X34110000Y-4500000D02*
X34110000Y-4650000D01*
X34110000Y-4650000D02*
X38500000Y-4650000D01*
X34110000Y-13550000D02*
X34110000Y-13700000D01*
X34110000Y-13700000D02*
X29700000Y-13700000D01*
X38500000Y-4650000D02*
X38500000Y-7100000D01*
X38500000Y-7100000D02*
X39900000Y-7100000D01*
X38500000Y-11100000D02*
X38500000Y-13550000D01*
X38500000Y-13550000D02*
X34110000Y-13550000D01*
X39900000Y-7100000D02*
X39900000Y-11100000D01*
X39900000Y-11100000D02*
X38500000Y-11100000D01*
%TO.C,C1*%
X22902500Y-7445000D02*
X24362500Y-7445000D01*
X24362500Y-10405000D01*
X22902500Y-10405000D01*
X22902500Y-7445000D01*
%TO.C,Cin2*%
X9930000Y-12850000D02*
X13130000Y-12850000D01*
X13130000Y-17450000D01*
X9930000Y-17450000D01*
X9930000Y-12850000D01*
%TO.C,REN2*%
X24000800Y-3269200D02*
X24940800Y-3269200D01*
X24940800Y-5129200D01*
X24000800Y-5129200D01*
X24000800Y-3269200D01*
%TO.C,L1*%
X27718500Y1891200D02*
X27718500Y-5908800D01*
X27718500Y-5908800D02*
X36118500Y-5908800D01*
X36118500Y1891200D02*
X27718500Y1891200D01*
X36118500Y-5908800D02*
X36118500Y1891200D01*
%TO.C,H2*%
X34450000Y-16000000D02*
G75*
G02*
X29550000Y-16000000I-2450000J0D01*
G01*
X29550000Y-16000000D02*
G75*
G02*
X34450000Y-16000000I2450000J0D01*
G01*
%TD*%
M02*
