%TF.GenerationSoftware,KiCad,Pcbnew,10.0.3*%
%TF.CreationDate,2026-06-22T06:45:46-07:00*%
%TF.ProjectId,brickdup_psu,62726963-6b64-4757-905f-7073752e6b69,rev?*%
%TF.SameCoordinates,Original*%
%TF.FileFunction,AssemblyDrawing,Top*%
%FSLAX46Y46*%
G04 Gerber Fmt 4.6, Leading zero omitted, Abs format (unit mm)*
G04 Created by KiCad (PCBNEW 10.0.3) date 2026-06-22 06:45:46*
%MOMM*%
%LPD*%
G01*
G04 APERTURE LIST*
%ADD10C,0.150000*%
%ADD11C,0.120000*%
%ADD12C,0.080000*%
%ADD13C,0.040000*%
%ADD14C,0.060000*%
%ADD15C,0.100000*%
G04 APERTURE END LIST*
D10*
X25880952Y-19604819D02*
X25880952Y-18604819D01*
X25880952Y-18604819D02*
X26214285Y-19319104D01*
X26214285Y-19319104D02*
X26547618Y-18604819D01*
X26547618Y-18604819D02*
X26547618Y-19604819D01*
X27166666Y-19604819D02*
X27071428Y-19557200D01*
X27071428Y-19557200D02*
X27023809Y-19509580D01*
X27023809Y-19509580D02*
X26976190Y-19414342D01*
X26976190Y-19414342D02*
X26976190Y-19128628D01*
X26976190Y-19128628D02*
X27023809Y-19033390D01*
X27023809Y-19033390D02*
X27071428Y-18985771D01*
X27071428Y-18985771D02*
X27166666Y-18938152D01*
X27166666Y-18938152D02*
X27309523Y-18938152D01*
X27309523Y-18938152D02*
X27404761Y-18985771D01*
X27404761Y-18985771D02*
X27452380Y-19033390D01*
X27452380Y-19033390D02*
X27499999Y-19128628D01*
X27499999Y-19128628D02*
X27499999Y-19414342D01*
X27499999Y-19414342D02*
X27452380Y-19509580D01*
X27452380Y-19509580D02*
X27404761Y-19557200D01*
X27404761Y-19557200D02*
X27309523Y-19604819D01*
X27309523Y-19604819D02*
X27166666Y-19604819D01*
X28357142Y-18938152D02*
X28357142Y-19604819D01*
X27928571Y-18938152D02*
X27928571Y-19461961D01*
X27928571Y-19461961D02*
X27976190Y-19557200D01*
X27976190Y-19557200D02*
X28071428Y-19604819D01*
X28071428Y-19604819D02*
X28214285Y-19604819D01*
X28214285Y-19604819D02*
X28309523Y-19557200D01*
X28309523Y-19557200D02*
X28357142Y-19509580D01*
X28833333Y-18938152D02*
X28833333Y-19604819D01*
X28833333Y-19033390D02*
X28880952Y-18985771D01*
X28880952Y-18985771D02*
X28976190Y-18938152D01*
X28976190Y-18938152D02*
X29119047Y-18938152D01*
X29119047Y-18938152D02*
X29214285Y-18985771D01*
X29214285Y-18985771D02*
X29261904Y-19081009D01*
X29261904Y-19081009D02*
X29261904Y-19604819D01*
X29595238Y-18938152D02*
X29976190Y-18938152D01*
X29738095Y-18604819D02*
X29738095Y-19461961D01*
X29738095Y-19461961D02*
X29785714Y-19557200D01*
X29785714Y-19557200D02*
X29880952Y-19604819D01*
X29880952Y-19604819D02*
X29976190Y-19604819D01*
X30309524Y-19604819D02*
X30309524Y-18938152D01*
X30309524Y-18604819D02*
X30261905Y-18652438D01*
X30261905Y-18652438D02*
X30309524Y-18700057D01*
X30309524Y-18700057D02*
X30357143Y-18652438D01*
X30357143Y-18652438D02*
X30309524Y-18604819D01*
X30309524Y-18604819D02*
X30309524Y-18700057D01*
X30785714Y-18938152D02*
X30785714Y-19604819D01*
X30785714Y-19033390D02*
X30833333Y-18985771D01*
X30833333Y-18985771D02*
X30928571Y-18938152D01*
X30928571Y-18938152D02*
X31071428Y-18938152D01*
X31071428Y-18938152D02*
X31166666Y-18985771D01*
X31166666Y-18985771D02*
X31214285Y-19081009D01*
X31214285Y-19081009D02*
X31214285Y-19604819D01*
X32119047Y-18938152D02*
X32119047Y-19747676D01*
X32119047Y-19747676D02*
X32071428Y-19842914D01*
X32071428Y-19842914D02*
X32023809Y-19890533D01*
X32023809Y-19890533D02*
X31928571Y-19938152D01*
X31928571Y-19938152D02*
X31785714Y-19938152D01*
X31785714Y-19938152D02*
X31690476Y-19890533D01*
X32119047Y-19557200D02*
X32023809Y-19604819D01*
X32023809Y-19604819D02*
X31833333Y-19604819D01*
X31833333Y-19604819D02*
X31738095Y-19557200D01*
X31738095Y-19557200D02*
X31690476Y-19509580D01*
X31690476Y-19509580D02*
X31642857Y-19414342D01*
X31642857Y-19414342D02*
X31642857Y-19128628D01*
X31642857Y-19128628D02*
X31690476Y-19033390D01*
X31690476Y-19033390D02*
X31738095Y-18985771D01*
X31738095Y-18985771D02*
X31833333Y-18938152D01*
X31833333Y-18938152D02*
X32023809Y-18938152D01*
X32023809Y-18938152D02*
X32119047Y-18985771D01*
X32595238Y-19604819D02*
X32595238Y-18604819D01*
X32595238Y-19081009D02*
X33166666Y-19081009D01*
X33166666Y-19604819D02*
X33166666Y-18604819D01*
X33785714Y-19604819D02*
X33690476Y-19557200D01*
X33690476Y-19557200D02*
X33642857Y-19509580D01*
X33642857Y-19509580D02*
X33595238Y-19414342D01*
X33595238Y-19414342D02*
X33595238Y-19128628D01*
X33595238Y-19128628D02*
X33642857Y-19033390D01*
X33642857Y-19033390D02*
X33690476Y-18985771D01*
X33690476Y-18985771D02*
X33785714Y-18938152D01*
X33785714Y-18938152D02*
X33928571Y-18938152D01*
X33928571Y-18938152D02*
X34023809Y-18985771D01*
X34023809Y-18985771D02*
X34071428Y-19033390D01*
X34071428Y-19033390D02*
X34119047Y-19128628D01*
X34119047Y-19128628D02*
X34119047Y-19414342D01*
X34119047Y-19414342D02*
X34071428Y-19509580D01*
X34071428Y-19509580D02*
X34023809Y-19557200D01*
X34023809Y-19557200D02*
X33928571Y-19604819D01*
X33928571Y-19604819D02*
X33785714Y-19604819D01*
X34690476Y-19604819D02*
X34595238Y-19557200D01*
X34595238Y-19557200D02*
X34547619Y-19461961D01*
X34547619Y-19461961D02*
X34547619Y-18604819D01*
X35452381Y-19557200D02*
X35357143Y-19604819D01*
X35357143Y-19604819D02*
X35166667Y-19604819D01*
X35166667Y-19604819D02*
X35071429Y-19557200D01*
X35071429Y-19557200D02*
X35023810Y-19461961D01*
X35023810Y-19461961D02*
X35023810Y-19081009D01*
X35023810Y-19081009D02*
X35071429Y-18985771D01*
X35071429Y-18985771D02*
X35166667Y-18938152D01*
X35166667Y-18938152D02*
X35357143Y-18938152D01*
X35357143Y-18938152D02*
X35452381Y-18985771D01*
X35452381Y-18985771D02*
X35500000Y-19081009D01*
X35500000Y-19081009D02*
X35500000Y-19176247D01*
X35500000Y-19176247D02*
X35023810Y-19271485D01*
X35690477Y-19700057D02*
X36452381Y-19700057D01*
X36642858Y-18700057D02*
X36690477Y-18652438D01*
X36690477Y-18652438D02*
X36785715Y-18604819D01*
X36785715Y-18604819D02*
X37023810Y-18604819D01*
X37023810Y-18604819D02*
X37119048Y-18652438D01*
X37119048Y-18652438D02*
X37166667Y-18700057D01*
X37166667Y-18700057D02*
X37214286Y-18795295D01*
X37214286Y-18795295D02*
X37214286Y-18890533D01*
X37214286Y-18890533D02*
X37166667Y-19033390D01*
X37166667Y-19033390D02*
X36595239Y-19604819D01*
X36595239Y-19604819D02*
X37214286Y-19604819D01*
X37642858Y-19509580D02*
X37690477Y-19557200D01*
X37690477Y-19557200D02*
X37642858Y-19604819D01*
X37642858Y-19604819D02*
X37595239Y-19557200D01*
X37595239Y-19557200D02*
X37642858Y-19509580D01*
X37642858Y-19509580D02*
X37642858Y-19604819D01*
X38071429Y-18700057D02*
X38119048Y-18652438D01*
X38119048Y-18652438D02*
X38214286Y-18604819D01*
X38214286Y-18604819D02*
X38452381Y-18604819D01*
X38452381Y-18604819D02*
X38547619Y-18652438D01*
X38547619Y-18652438D02*
X38595238Y-18700057D01*
X38595238Y-18700057D02*
X38642857Y-18795295D01*
X38642857Y-18795295D02*
X38642857Y-18890533D01*
X38642857Y-18890533D02*
X38595238Y-19033390D01*
X38595238Y-19033390D02*
X38023810Y-19604819D01*
X38023810Y-19604819D02*
X38642857Y-19604819D01*
X39071429Y-19604819D02*
X39071429Y-18938152D01*
X39071429Y-19033390D02*
X39119048Y-18985771D01*
X39119048Y-18985771D02*
X39214286Y-18938152D01*
X39214286Y-18938152D02*
X39357143Y-18938152D01*
X39357143Y-18938152D02*
X39452381Y-18985771D01*
X39452381Y-18985771D02*
X39500000Y-19081009D01*
X39500000Y-19081009D02*
X39500000Y-19604819D01*
X39500000Y-19081009D02*
X39547619Y-18985771D01*
X39547619Y-18985771D02*
X39642857Y-18938152D01*
X39642857Y-18938152D02*
X39785714Y-18938152D01*
X39785714Y-18938152D02*
X39880953Y-18985771D01*
X39880953Y-18985771D02*
X39928572Y-19081009D01*
X39928572Y-19081009D02*
X39928572Y-19604819D01*
X40404762Y-19604819D02*
X40404762Y-18938152D01*
X40404762Y-19033390D02*
X40452381Y-18985771D01*
X40452381Y-18985771D02*
X40547619Y-18938152D01*
X40547619Y-18938152D02*
X40690476Y-18938152D01*
X40690476Y-18938152D02*
X40785714Y-18985771D01*
X40785714Y-18985771D02*
X40833333Y-19081009D01*
X40833333Y-19081009D02*
X40833333Y-19604819D01*
X40833333Y-19081009D02*
X40880952Y-18985771D01*
X40880952Y-18985771D02*
X40976190Y-18938152D01*
X40976190Y-18938152D02*
X41119047Y-18938152D01*
X41119047Y-18938152D02*
X41214286Y-18985771D01*
X41214286Y-18985771D02*
X41261905Y-19081009D01*
X41261905Y-19081009D02*
X41261905Y-19604819D01*
X41500000Y-19700057D02*
X42261904Y-19700057D01*
X42500000Y-19604819D02*
X42500000Y-18604819D01*
X42500000Y-18604819D02*
X42833333Y-19319104D01*
X42833333Y-19319104D02*
X43166666Y-18604819D01*
X43166666Y-18604819D02*
X43166666Y-19604819D01*
X43595238Y-18700057D02*
X43642857Y-18652438D01*
X43642857Y-18652438D02*
X43738095Y-18604819D01*
X43738095Y-18604819D02*
X43976190Y-18604819D01*
X43976190Y-18604819D02*
X44071428Y-18652438D01*
X44071428Y-18652438D02*
X44119047Y-18700057D01*
X44119047Y-18700057D02*
X44166666Y-18795295D01*
X44166666Y-18795295D02*
X44166666Y-18890533D01*
X44166666Y-18890533D02*
X44119047Y-19033390D01*
X44119047Y-19033390D02*
X43547619Y-19604819D01*
X43547619Y-19604819D02*
X44166666Y-19604819D01*
X34238095Y-16454819D02*
X34238095Y-15454819D01*
X34238095Y-15931009D02*
X34809523Y-15931009D01*
X34809523Y-16454819D02*
X34809523Y-15454819D01*
X35238095Y-15550057D02*
X35285714Y-15502438D01*
X35285714Y-15502438D02*
X35380952Y-15454819D01*
X35380952Y-15454819D02*
X35619047Y-15454819D01*
X35619047Y-15454819D02*
X35714285Y-15502438D01*
X35714285Y-15502438D02*
X35761904Y-15550057D01*
X35761904Y-15550057D02*
X35809523Y-15645295D01*
X35809523Y-15645295D02*
X35809523Y-15740533D01*
X35809523Y-15740533D02*
X35761904Y-15883390D01*
X35761904Y-15883390D02*
X35190476Y-16454819D01*
X35190476Y-16454819D02*
X35809523Y-16454819D01*
D11*
X11449464Y-15694913D02*
X11487560Y-15733009D01*
X11487560Y-15733009D02*
X11525655Y-15847294D01*
X11525655Y-15847294D02*
X11525655Y-15923485D01*
X11525655Y-15923485D02*
X11487560Y-16037771D01*
X11487560Y-16037771D02*
X11411369Y-16113961D01*
X11411369Y-16113961D02*
X11335179Y-16152056D01*
X11335179Y-16152056D02*
X11182798Y-16190152D01*
X11182798Y-16190152D02*
X11068512Y-16190152D01*
X11068512Y-16190152D02*
X10916131Y-16152056D01*
X10916131Y-16152056D02*
X10839940Y-16113961D01*
X10839940Y-16113961D02*
X10763750Y-16037771D01*
X10763750Y-16037771D02*
X10725655Y-15923485D01*
X10725655Y-15923485D02*
X10725655Y-15847294D01*
X10725655Y-15847294D02*
X10763750Y-15733009D01*
X10763750Y-15733009D02*
X10801845Y-15694913D01*
X11525655Y-15352056D02*
X10992321Y-15352056D01*
X10725655Y-15352056D02*
X10763750Y-15390152D01*
X10763750Y-15390152D02*
X10801845Y-15352056D01*
X10801845Y-15352056D02*
X10763750Y-15313961D01*
X10763750Y-15313961D02*
X10725655Y-15352056D01*
X10725655Y-15352056D02*
X10801845Y-15352056D01*
X10992321Y-14971104D02*
X11525655Y-14971104D01*
X11068512Y-14971104D02*
X11030417Y-14933009D01*
X11030417Y-14933009D02*
X10992321Y-14856819D01*
X10992321Y-14856819D02*
X10992321Y-14742533D01*
X10992321Y-14742533D02*
X11030417Y-14666342D01*
X11030417Y-14666342D02*
X11106607Y-14628247D01*
X11106607Y-14628247D02*
X11525655Y-14628247D01*
X10801845Y-14285390D02*
X10763750Y-14247294D01*
X10763750Y-14247294D02*
X10725655Y-14171104D01*
X10725655Y-14171104D02*
X10725655Y-13980628D01*
X10725655Y-13980628D02*
X10763750Y-13904437D01*
X10763750Y-13904437D02*
X10801845Y-13866342D01*
X10801845Y-13866342D02*
X10878036Y-13828247D01*
X10878036Y-13828247D02*
X10954226Y-13828247D01*
X10954226Y-13828247D02*
X11068512Y-13866342D01*
X11068512Y-13866342D02*
X11525655Y-14323485D01*
X11525655Y-14323485D02*
X11525655Y-13828247D01*
D12*
X23988949Y-15748333D02*
X23750854Y-15914999D01*
X23988949Y-16034047D02*
X23488949Y-16034047D01*
X23488949Y-16034047D02*
X23488949Y-15843571D01*
X23488949Y-15843571D02*
X23512759Y-15795952D01*
X23512759Y-15795952D02*
X23536568Y-15772142D01*
X23536568Y-15772142D02*
X23584187Y-15748333D01*
X23584187Y-15748333D02*
X23655616Y-15748333D01*
X23655616Y-15748333D02*
X23703235Y-15772142D01*
X23703235Y-15772142D02*
X23727044Y-15795952D01*
X23727044Y-15795952D02*
X23750854Y-15843571D01*
X23750854Y-15843571D02*
X23750854Y-16034047D01*
X23536568Y-15557856D02*
X23512759Y-15534047D01*
X23512759Y-15534047D02*
X23488949Y-15486428D01*
X23488949Y-15486428D02*
X23488949Y-15367380D01*
X23488949Y-15367380D02*
X23512759Y-15319761D01*
X23512759Y-15319761D02*
X23536568Y-15295952D01*
X23536568Y-15295952D02*
X23584187Y-15272142D01*
X23584187Y-15272142D02*
X23631806Y-15272142D01*
X23631806Y-15272142D02*
X23703235Y-15295952D01*
X23703235Y-15295952D02*
X23988949Y-15581666D01*
X23988949Y-15581666D02*
X23988949Y-15272142D01*
D13*
X27565914Y-14149765D02*
X27554010Y-14161670D01*
X27554010Y-14161670D02*
X27518295Y-14173574D01*
X27518295Y-14173574D02*
X27494486Y-14173574D01*
X27494486Y-14173574D02*
X27458772Y-14161670D01*
X27458772Y-14161670D02*
X27434962Y-14137860D01*
X27434962Y-14137860D02*
X27423057Y-14114050D01*
X27423057Y-14114050D02*
X27411153Y-14066431D01*
X27411153Y-14066431D02*
X27411153Y-14030717D01*
X27411153Y-14030717D02*
X27423057Y-13983098D01*
X27423057Y-13983098D02*
X27434962Y-13959289D01*
X27434962Y-13959289D02*
X27458772Y-13935479D01*
X27458772Y-13935479D02*
X27494486Y-13923574D01*
X27494486Y-13923574D02*
X27518295Y-13923574D01*
X27518295Y-13923574D02*
X27554010Y-13935479D01*
X27554010Y-13935479D02*
X27565914Y-13947384D01*
X27708772Y-14173574D02*
X27684962Y-14161670D01*
X27684962Y-14161670D02*
X27673057Y-14149765D01*
X27673057Y-14149765D02*
X27661153Y-14125955D01*
X27661153Y-14125955D02*
X27661153Y-14054527D01*
X27661153Y-14054527D02*
X27673057Y-14030717D01*
X27673057Y-14030717D02*
X27684962Y-14018812D01*
X27684962Y-14018812D02*
X27708772Y-14006908D01*
X27708772Y-14006908D02*
X27744486Y-14006908D01*
X27744486Y-14006908D02*
X27768295Y-14018812D01*
X27768295Y-14018812D02*
X27780200Y-14030717D01*
X27780200Y-14030717D02*
X27792105Y-14054527D01*
X27792105Y-14054527D02*
X27792105Y-14125955D01*
X27792105Y-14125955D02*
X27780200Y-14149765D01*
X27780200Y-14149765D02*
X27768295Y-14161670D01*
X27768295Y-14161670D02*
X27744486Y-14173574D01*
X27744486Y-14173574D02*
X27708772Y-14173574D01*
X28006390Y-14006908D02*
X28006390Y-14173574D01*
X27899247Y-14006908D02*
X27899247Y-14137860D01*
X27899247Y-14137860D02*
X27911152Y-14161670D01*
X27911152Y-14161670D02*
X27934962Y-14173574D01*
X27934962Y-14173574D02*
X27970676Y-14173574D01*
X27970676Y-14173574D02*
X27994485Y-14161670D01*
X27994485Y-14161670D02*
X28006390Y-14149765D01*
X28089723Y-14006908D02*
X28184961Y-14006908D01*
X28125437Y-13923574D02*
X28125437Y-14137860D01*
X28125437Y-14137860D02*
X28137342Y-14161670D01*
X28137342Y-14161670D02*
X28161152Y-14173574D01*
X28161152Y-14173574D02*
X28184961Y-14173574D01*
X28244485Y-13923574D02*
X28399247Y-13923574D01*
X28399247Y-13923574D02*
X28315913Y-14018812D01*
X28315913Y-14018812D02*
X28351628Y-14018812D01*
X28351628Y-14018812D02*
X28375437Y-14030717D01*
X28375437Y-14030717D02*
X28387342Y-14042622D01*
X28387342Y-14042622D02*
X28399247Y-14066431D01*
X28399247Y-14066431D02*
X28399247Y-14125955D01*
X28399247Y-14125955D02*
X28387342Y-14149765D01*
X28387342Y-14149765D02*
X28375437Y-14161670D01*
X28375437Y-14161670D02*
X28351628Y-14173574D01*
X28351628Y-14173574D02*
X28280199Y-14173574D01*
X28280199Y-14173574D02*
X28256390Y-14161670D01*
X28256390Y-14161670D02*
X28244485Y-14149765D01*
X26189300Y-14814761D02*
X26065491Y-14901428D01*
X26189300Y-14963333D02*
X25929300Y-14963333D01*
X25929300Y-14963333D02*
X25929300Y-14864285D01*
X25929300Y-14864285D02*
X25941681Y-14839523D01*
X25941681Y-14839523D02*
X25954062Y-14827142D01*
X25954062Y-14827142D02*
X25978824Y-14814761D01*
X25978824Y-14814761D02*
X26015967Y-14814761D01*
X26015967Y-14814761D02*
X26040729Y-14827142D01*
X26040729Y-14827142D02*
X26053110Y-14839523D01*
X26053110Y-14839523D02*
X26065491Y-14864285D01*
X26065491Y-14864285D02*
X26065491Y-14963333D01*
X26053110Y-14616666D02*
X26053110Y-14703333D01*
X26189300Y-14703333D02*
X25929300Y-14703333D01*
X25929300Y-14703333D02*
X25929300Y-14579523D01*
X26053110Y-14393809D02*
X26065491Y-14356666D01*
X26065491Y-14356666D02*
X26077872Y-14344285D01*
X26077872Y-14344285D02*
X26102634Y-14331904D01*
X26102634Y-14331904D02*
X26139777Y-14331904D01*
X26139777Y-14331904D02*
X26164539Y-14344285D01*
X26164539Y-14344285D02*
X26176920Y-14356666D01*
X26176920Y-14356666D02*
X26189300Y-14381428D01*
X26189300Y-14381428D02*
X26189300Y-14480476D01*
X26189300Y-14480476D02*
X25929300Y-14480476D01*
X25929300Y-14480476D02*
X25929300Y-14393809D01*
X25929300Y-14393809D02*
X25941681Y-14369047D01*
X25941681Y-14369047D02*
X25954062Y-14356666D01*
X25954062Y-14356666D02*
X25978824Y-14344285D01*
X25978824Y-14344285D02*
X26003586Y-14344285D01*
X26003586Y-14344285D02*
X26028348Y-14356666D01*
X26028348Y-14356666D02*
X26040729Y-14369047D01*
X26040729Y-14369047D02*
X26053110Y-14393809D01*
X26053110Y-14393809D02*
X26053110Y-14480476D01*
X26189300Y-14084285D02*
X26189300Y-14232857D01*
X26189300Y-14158571D02*
X25929300Y-14158571D01*
X25929300Y-14158571D02*
X25966443Y-14183333D01*
X25966443Y-14183333D02*
X25991205Y-14208095D01*
X25991205Y-14208095D02*
X26003586Y-14232857D01*
D14*
X8730632Y-12117856D02*
X8749680Y-12136904D01*
X8749680Y-12136904D02*
X8768727Y-12194046D01*
X8768727Y-12194046D02*
X8768727Y-12232142D01*
X8768727Y-12232142D02*
X8749680Y-12289285D01*
X8749680Y-12289285D02*
X8711584Y-12327380D01*
X8711584Y-12327380D02*
X8673489Y-12346427D01*
X8673489Y-12346427D02*
X8597299Y-12365475D01*
X8597299Y-12365475D02*
X8540156Y-12365475D01*
X8540156Y-12365475D02*
X8463965Y-12346427D01*
X8463965Y-12346427D02*
X8425870Y-12327380D01*
X8425870Y-12327380D02*
X8387775Y-12289285D01*
X8387775Y-12289285D02*
X8368727Y-12232142D01*
X8368727Y-12232142D02*
X8368727Y-12194046D01*
X8368727Y-12194046D02*
X8387775Y-12136904D01*
X8387775Y-12136904D02*
X8406822Y-12117856D01*
X8768727Y-11946427D02*
X8502060Y-11946427D01*
X8368727Y-11946427D02*
X8387775Y-11965475D01*
X8387775Y-11965475D02*
X8406822Y-11946427D01*
X8406822Y-11946427D02*
X8387775Y-11927380D01*
X8387775Y-11927380D02*
X8368727Y-11946427D01*
X8368727Y-11946427D02*
X8406822Y-11946427D01*
X8502060Y-11755951D02*
X8768727Y-11755951D01*
X8540156Y-11755951D02*
X8521108Y-11736904D01*
X8521108Y-11736904D02*
X8502060Y-11698809D01*
X8502060Y-11698809D02*
X8502060Y-11641666D01*
X8502060Y-11641666D02*
X8521108Y-11603570D01*
X8521108Y-11603570D02*
X8559203Y-11584523D01*
X8559203Y-11584523D02*
X8768727Y-11584523D01*
X8368727Y-11432142D02*
X8368727Y-11184523D01*
X8368727Y-11184523D02*
X8521108Y-11317856D01*
X8521108Y-11317856D02*
X8521108Y-11260713D01*
X8521108Y-11260713D02*
X8540156Y-11222618D01*
X8540156Y-11222618D02*
X8559203Y-11203570D01*
X8559203Y-11203570D02*
X8597299Y-11184523D01*
X8597299Y-11184523D02*
X8692537Y-11184523D01*
X8692537Y-11184523D02*
X8730632Y-11203570D01*
X8730632Y-11203570D02*
X8749680Y-11222618D01*
X8749680Y-11222618D02*
X8768727Y-11260713D01*
X8768727Y-11260713D02*
X8768727Y-11374999D01*
X8768727Y-11374999D02*
X8749680Y-11413094D01*
X8749680Y-11413094D02*
X8730632Y-11432142D01*
D10*
X9246666Y-6154819D02*
X9246666Y-6869104D01*
X9246666Y-6869104D02*
X9199047Y-7011961D01*
X9199047Y-7011961D02*
X9103809Y-7107200D01*
X9103809Y-7107200D02*
X8960952Y-7154819D01*
X8960952Y-7154819D02*
X8865714Y-7154819D01*
X9675238Y-6250057D02*
X9722857Y-6202438D01*
X9722857Y-6202438D02*
X9818095Y-6154819D01*
X9818095Y-6154819D02*
X10056190Y-6154819D01*
X10056190Y-6154819D02*
X10151428Y-6202438D01*
X10151428Y-6202438D02*
X10199047Y-6250057D01*
X10199047Y-6250057D02*
X10246666Y-6345295D01*
X10246666Y-6345295D02*
X10246666Y-6440533D01*
X10246666Y-6440533D02*
X10199047Y-6583390D01*
X10199047Y-6583390D02*
X9627619Y-7154819D01*
X9627619Y-7154819D02*
X10246666Y-7154819D01*
D13*
X29229765Y-5377433D02*
X29241670Y-5389337D01*
X29241670Y-5389337D02*
X29253574Y-5425052D01*
X29253574Y-5425052D02*
X29253574Y-5448861D01*
X29253574Y-5448861D02*
X29241670Y-5484575D01*
X29241670Y-5484575D02*
X29217860Y-5508385D01*
X29217860Y-5508385D02*
X29194050Y-5520290D01*
X29194050Y-5520290D02*
X29146431Y-5532194D01*
X29146431Y-5532194D02*
X29110717Y-5532194D01*
X29110717Y-5532194D02*
X29063098Y-5520290D01*
X29063098Y-5520290D02*
X29039289Y-5508385D01*
X29039289Y-5508385D02*
X29015479Y-5484575D01*
X29015479Y-5484575D02*
X29003574Y-5448861D01*
X29003574Y-5448861D02*
X29003574Y-5425052D01*
X29003574Y-5425052D02*
X29015479Y-5389337D01*
X29015479Y-5389337D02*
X29027384Y-5377433D01*
X29253574Y-5270290D02*
X29003574Y-5270290D01*
X29098812Y-5270290D02*
X29086908Y-5246480D01*
X29086908Y-5246480D02*
X29086908Y-5198861D01*
X29086908Y-5198861D02*
X29098812Y-5175052D01*
X29098812Y-5175052D02*
X29110717Y-5163147D01*
X29110717Y-5163147D02*
X29134527Y-5151242D01*
X29134527Y-5151242D02*
X29205955Y-5151242D01*
X29205955Y-5151242D02*
X29229765Y-5163147D01*
X29229765Y-5163147D02*
X29241670Y-5175052D01*
X29241670Y-5175052D02*
X29253574Y-5198861D01*
X29253574Y-5198861D02*
X29253574Y-5246480D01*
X29253574Y-5246480D02*
X29241670Y-5270290D01*
X29241670Y-5056004D02*
X29253574Y-5032195D01*
X29253574Y-5032195D02*
X29253574Y-4984576D01*
X29253574Y-4984576D02*
X29241670Y-4960766D01*
X29241670Y-4960766D02*
X29217860Y-4948862D01*
X29217860Y-4948862D02*
X29205955Y-4948862D01*
X29205955Y-4948862D02*
X29182146Y-4960766D01*
X29182146Y-4960766D02*
X29170241Y-4984576D01*
X29170241Y-4984576D02*
X29170241Y-5020290D01*
X29170241Y-5020290D02*
X29158336Y-5044100D01*
X29158336Y-5044100D02*
X29134527Y-5056004D01*
X29134527Y-5056004D02*
X29122622Y-5056004D01*
X29122622Y-5056004D02*
X29098812Y-5044100D01*
X29098812Y-5044100D02*
X29086908Y-5020290D01*
X29086908Y-5020290D02*
X29086908Y-4984576D01*
X29086908Y-4984576D02*
X29098812Y-4960766D01*
X29086908Y-4877433D02*
X29086908Y-4782195D01*
X29003574Y-4841719D02*
X29217860Y-4841719D01*
X29217860Y-4841719D02*
X29241670Y-4829814D01*
X29241670Y-4829814D02*
X29253574Y-4806004D01*
X29253574Y-4806004D02*
X29253574Y-4782195D01*
D11*
X4226085Y-12577464D02*
X4187989Y-12615560D01*
X4187989Y-12615560D02*
X4073704Y-12653655D01*
X4073704Y-12653655D02*
X3997513Y-12653655D01*
X3997513Y-12653655D02*
X3883227Y-12615560D01*
X3883227Y-12615560D02*
X3807037Y-12539369D01*
X3807037Y-12539369D02*
X3768942Y-12463179D01*
X3768942Y-12463179D02*
X3730846Y-12310798D01*
X3730846Y-12310798D02*
X3730846Y-12196512D01*
X3730846Y-12196512D02*
X3768942Y-12044131D01*
X3768942Y-12044131D02*
X3807037Y-11967940D01*
X3807037Y-11967940D02*
X3883227Y-11891750D01*
X3883227Y-11891750D02*
X3997513Y-11853655D01*
X3997513Y-11853655D02*
X4073704Y-11853655D01*
X4073704Y-11853655D02*
X4187989Y-11891750D01*
X4187989Y-11891750D02*
X4226085Y-11929845D01*
X4683227Y-12653655D02*
X4607037Y-12615560D01*
X4607037Y-12615560D02*
X4568942Y-12577464D01*
X4568942Y-12577464D02*
X4530846Y-12501274D01*
X4530846Y-12501274D02*
X4530846Y-12272702D01*
X4530846Y-12272702D02*
X4568942Y-12196512D01*
X4568942Y-12196512D02*
X4607037Y-12158417D01*
X4607037Y-12158417D02*
X4683227Y-12120321D01*
X4683227Y-12120321D02*
X4797513Y-12120321D01*
X4797513Y-12120321D02*
X4873704Y-12158417D01*
X4873704Y-12158417D02*
X4911799Y-12196512D01*
X4911799Y-12196512D02*
X4949894Y-12272702D01*
X4949894Y-12272702D02*
X4949894Y-12501274D01*
X4949894Y-12501274D02*
X4911799Y-12577464D01*
X4911799Y-12577464D02*
X4873704Y-12615560D01*
X4873704Y-12615560D02*
X4797513Y-12653655D01*
X4797513Y-12653655D02*
X4683227Y-12653655D01*
X5635609Y-12120321D02*
X5635609Y-12653655D01*
X5292752Y-12120321D02*
X5292752Y-12539369D01*
X5292752Y-12539369D02*
X5330847Y-12615560D01*
X5330847Y-12615560D02*
X5407037Y-12653655D01*
X5407037Y-12653655D02*
X5521323Y-12653655D01*
X5521323Y-12653655D02*
X5597514Y-12615560D01*
X5597514Y-12615560D02*
X5635609Y-12577464D01*
X5902276Y-12120321D02*
X6207038Y-12120321D01*
X6016562Y-11853655D02*
X6016562Y-12539369D01*
X6016562Y-12539369D02*
X6054657Y-12615560D01*
X6054657Y-12615560D02*
X6130847Y-12653655D01*
X6130847Y-12653655D02*
X6207038Y-12653655D01*
X6892752Y-12653655D02*
X6435609Y-12653655D01*
X6664181Y-12653655D02*
X6664181Y-11853655D01*
X6664181Y-11853655D02*
X6587990Y-11967940D01*
X6587990Y-11967940D02*
X6511800Y-12044131D01*
X6511800Y-12044131D02*
X6435609Y-12082226D01*
D10*
X-4119047Y-19604819D02*
X-4119047Y-18604819D01*
X-4119047Y-18604819D02*
X-3785714Y-19319104D01*
X-3785714Y-19319104D02*
X-3452381Y-18604819D01*
X-3452381Y-18604819D02*
X-3452381Y-19604819D01*
X-2833333Y-19604819D02*
X-2928571Y-19557200D01*
X-2928571Y-19557200D02*
X-2976190Y-19509580D01*
X-2976190Y-19509580D02*
X-3023809Y-19414342D01*
X-3023809Y-19414342D02*
X-3023809Y-19128628D01*
X-3023809Y-19128628D02*
X-2976190Y-19033390D01*
X-2976190Y-19033390D02*
X-2928571Y-18985771D01*
X-2928571Y-18985771D02*
X-2833333Y-18938152D01*
X-2833333Y-18938152D02*
X-2690476Y-18938152D01*
X-2690476Y-18938152D02*
X-2595238Y-18985771D01*
X-2595238Y-18985771D02*
X-2547619Y-19033390D01*
X-2547619Y-19033390D02*
X-2500000Y-19128628D01*
X-2500000Y-19128628D02*
X-2500000Y-19414342D01*
X-2500000Y-19414342D02*
X-2547619Y-19509580D01*
X-2547619Y-19509580D02*
X-2595238Y-19557200D01*
X-2595238Y-19557200D02*
X-2690476Y-19604819D01*
X-2690476Y-19604819D02*
X-2833333Y-19604819D01*
X-1642857Y-18938152D02*
X-1642857Y-19604819D01*
X-2071428Y-18938152D02*
X-2071428Y-19461961D01*
X-2071428Y-19461961D02*
X-2023809Y-19557200D01*
X-2023809Y-19557200D02*
X-1928571Y-19604819D01*
X-1928571Y-19604819D02*
X-1785714Y-19604819D01*
X-1785714Y-19604819D02*
X-1690476Y-19557200D01*
X-1690476Y-19557200D02*
X-1642857Y-19509580D01*
X-1166666Y-18938152D02*
X-1166666Y-19604819D01*
X-1166666Y-19033390D02*
X-1119047Y-18985771D01*
X-1119047Y-18985771D02*
X-1023809Y-18938152D01*
X-1023809Y-18938152D02*
X-880952Y-18938152D01*
X-880952Y-18938152D02*
X-785714Y-18985771D01*
X-785714Y-18985771D02*
X-738095Y-19081009D01*
X-738095Y-19081009D02*
X-738095Y-19604819D01*
X-404761Y-18938152D02*
X-23809Y-18938152D01*
X-261904Y-18604819D02*
X-261904Y-19461961D01*
X-261904Y-19461961D02*
X-214285Y-19557200D01*
X-214285Y-19557200D02*
X-119047Y-19604819D01*
X-119047Y-19604819D02*
X-23809Y-19604819D01*
X309524Y-19604819D02*
X309524Y-18938152D01*
X309524Y-18604819D02*
X261905Y-18652438D01*
X261905Y-18652438D02*
X309524Y-18700057D01*
X309524Y-18700057D02*
X357143Y-18652438D01*
X357143Y-18652438D02*
X309524Y-18604819D01*
X309524Y-18604819D02*
X309524Y-18700057D01*
X785714Y-18938152D02*
X785714Y-19604819D01*
X785714Y-19033390D02*
X833333Y-18985771D01*
X833333Y-18985771D02*
X928571Y-18938152D01*
X928571Y-18938152D02*
X1071428Y-18938152D01*
X1071428Y-18938152D02*
X1166666Y-18985771D01*
X1166666Y-18985771D02*
X1214285Y-19081009D01*
X1214285Y-19081009D02*
X1214285Y-19604819D01*
X2119047Y-18938152D02*
X2119047Y-19747676D01*
X2119047Y-19747676D02*
X2071428Y-19842914D01*
X2071428Y-19842914D02*
X2023809Y-19890533D01*
X2023809Y-19890533D02*
X1928571Y-19938152D01*
X1928571Y-19938152D02*
X1785714Y-19938152D01*
X1785714Y-19938152D02*
X1690476Y-19890533D01*
X2119047Y-19557200D02*
X2023809Y-19604819D01*
X2023809Y-19604819D02*
X1833333Y-19604819D01*
X1833333Y-19604819D02*
X1738095Y-19557200D01*
X1738095Y-19557200D02*
X1690476Y-19509580D01*
X1690476Y-19509580D02*
X1642857Y-19414342D01*
X1642857Y-19414342D02*
X1642857Y-19128628D01*
X1642857Y-19128628D02*
X1690476Y-19033390D01*
X1690476Y-19033390D02*
X1738095Y-18985771D01*
X1738095Y-18985771D02*
X1833333Y-18938152D01*
X1833333Y-18938152D02*
X2023809Y-18938152D01*
X2023809Y-18938152D02*
X2119047Y-18985771D01*
X2595238Y-19604819D02*
X2595238Y-18604819D01*
X2595238Y-19081009D02*
X3166666Y-19081009D01*
X3166666Y-19604819D02*
X3166666Y-18604819D01*
X3785714Y-19604819D02*
X3690476Y-19557200D01*
X3690476Y-19557200D02*
X3642857Y-19509580D01*
X3642857Y-19509580D02*
X3595238Y-19414342D01*
X3595238Y-19414342D02*
X3595238Y-19128628D01*
X3595238Y-19128628D02*
X3642857Y-19033390D01*
X3642857Y-19033390D02*
X3690476Y-18985771D01*
X3690476Y-18985771D02*
X3785714Y-18938152D01*
X3785714Y-18938152D02*
X3928571Y-18938152D01*
X3928571Y-18938152D02*
X4023809Y-18985771D01*
X4023809Y-18985771D02*
X4071428Y-19033390D01*
X4071428Y-19033390D02*
X4119047Y-19128628D01*
X4119047Y-19128628D02*
X4119047Y-19414342D01*
X4119047Y-19414342D02*
X4071428Y-19509580D01*
X4071428Y-19509580D02*
X4023809Y-19557200D01*
X4023809Y-19557200D02*
X3928571Y-19604819D01*
X3928571Y-19604819D02*
X3785714Y-19604819D01*
X4690476Y-19604819D02*
X4595238Y-19557200D01*
X4595238Y-19557200D02*
X4547619Y-19461961D01*
X4547619Y-19461961D02*
X4547619Y-18604819D01*
X5452381Y-19557200D02*
X5357143Y-19604819D01*
X5357143Y-19604819D02*
X5166667Y-19604819D01*
X5166667Y-19604819D02*
X5071429Y-19557200D01*
X5071429Y-19557200D02*
X5023810Y-19461961D01*
X5023810Y-19461961D02*
X5023810Y-19081009D01*
X5023810Y-19081009D02*
X5071429Y-18985771D01*
X5071429Y-18985771D02*
X5166667Y-18938152D01*
X5166667Y-18938152D02*
X5357143Y-18938152D01*
X5357143Y-18938152D02*
X5452381Y-18985771D01*
X5452381Y-18985771D02*
X5500000Y-19081009D01*
X5500000Y-19081009D02*
X5500000Y-19176247D01*
X5500000Y-19176247D02*
X5023810Y-19271485D01*
X5690477Y-19700057D02*
X6452381Y-19700057D01*
X6642858Y-18700057D02*
X6690477Y-18652438D01*
X6690477Y-18652438D02*
X6785715Y-18604819D01*
X6785715Y-18604819D02*
X7023810Y-18604819D01*
X7023810Y-18604819D02*
X7119048Y-18652438D01*
X7119048Y-18652438D02*
X7166667Y-18700057D01*
X7166667Y-18700057D02*
X7214286Y-18795295D01*
X7214286Y-18795295D02*
X7214286Y-18890533D01*
X7214286Y-18890533D02*
X7166667Y-19033390D01*
X7166667Y-19033390D02*
X6595239Y-19604819D01*
X6595239Y-19604819D02*
X7214286Y-19604819D01*
X7642858Y-19509580D02*
X7690477Y-19557200D01*
X7690477Y-19557200D02*
X7642858Y-19604819D01*
X7642858Y-19604819D02*
X7595239Y-19557200D01*
X7595239Y-19557200D02*
X7642858Y-19509580D01*
X7642858Y-19509580D02*
X7642858Y-19604819D01*
X8071429Y-18700057D02*
X8119048Y-18652438D01*
X8119048Y-18652438D02*
X8214286Y-18604819D01*
X8214286Y-18604819D02*
X8452381Y-18604819D01*
X8452381Y-18604819D02*
X8547619Y-18652438D01*
X8547619Y-18652438D02*
X8595238Y-18700057D01*
X8595238Y-18700057D02*
X8642857Y-18795295D01*
X8642857Y-18795295D02*
X8642857Y-18890533D01*
X8642857Y-18890533D02*
X8595238Y-19033390D01*
X8595238Y-19033390D02*
X8023810Y-19604819D01*
X8023810Y-19604819D02*
X8642857Y-19604819D01*
X9071429Y-19604819D02*
X9071429Y-18938152D01*
X9071429Y-19033390D02*
X9119048Y-18985771D01*
X9119048Y-18985771D02*
X9214286Y-18938152D01*
X9214286Y-18938152D02*
X9357143Y-18938152D01*
X9357143Y-18938152D02*
X9452381Y-18985771D01*
X9452381Y-18985771D02*
X9500000Y-19081009D01*
X9500000Y-19081009D02*
X9500000Y-19604819D01*
X9500000Y-19081009D02*
X9547619Y-18985771D01*
X9547619Y-18985771D02*
X9642857Y-18938152D01*
X9642857Y-18938152D02*
X9785714Y-18938152D01*
X9785714Y-18938152D02*
X9880953Y-18985771D01*
X9880953Y-18985771D02*
X9928572Y-19081009D01*
X9928572Y-19081009D02*
X9928572Y-19604819D01*
X10404762Y-19604819D02*
X10404762Y-18938152D01*
X10404762Y-19033390D02*
X10452381Y-18985771D01*
X10452381Y-18985771D02*
X10547619Y-18938152D01*
X10547619Y-18938152D02*
X10690476Y-18938152D01*
X10690476Y-18938152D02*
X10785714Y-18985771D01*
X10785714Y-18985771D02*
X10833333Y-19081009D01*
X10833333Y-19081009D02*
X10833333Y-19604819D01*
X10833333Y-19081009D02*
X10880952Y-18985771D01*
X10880952Y-18985771D02*
X10976190Y-18938152D01*
X10976190Y-18938152D02*
X11119047Y-18938152D01*
X11119047Y-18938152D02*
X11214286Y-18985771D01*
X11214286Y-18985771D02*
X11261905Y-19081009D01*
X11261905Y-19081009D02*
X11261905Y-19604819D01*
X11500000Y-19700057D02*
X12261904Y-19700057D01*
X12500000Y-19604819D02*
X12500000Y-18604819D01*
X12500000Y-18604819D02*
X12833333Y-19319104D01*
X12833333Y-19319104D02*
X13166666Y-18604819D01*
X13166666Y-18604819D02*
X13166666Y-19604819D01*
X13595238Y-18700057D02*
X13642857Y-18652438D01*
X13642857Y-18652438D02*
X13738095Y-18604819D01*
X13738095Y-18604819D02*
X13976190Y-18604819D01*
X13976190Y-18604819D02*
X14071428Y-18652438D01*
X14071428Y-18652438D02*
X14119047Y-18700057D01*
X14119047Y-18700057D02*
X14166666Y-18795295D01*
X14166666Y-18795295D02*
X14166666Y-18890533D01*
X14166666Y-18890533D02*
X14119047Y-19033390D01*
X14119047Y-19033390D02*
X13547619Y-19604819D01*
X13547619Y-19604819D02*
X14166666Y-19604819D01*
X4238095Y-16454819D02*
X4238095Y-15454819D01*
X4238095Y-15931009D02*
X4809523Y-15931009D01*
X4809523Y-16454819D02*
X4809523Y-15454819D01*
X5809523Y-16454819D02*
X5238095Y-16454819D01*
X5523809Y-16454819D02*
X5523809Y-15454819D01*
X5523809Y-15454819D02*
X5428571Y-15597676D01*
X5428571Y-15597676D02*
X5333333Y-15692914D01*
X5333333Y-15692914D02*
X5238095Y-15740533D01*
D11*
X26314285Y-3046764D02*
X26276189Y-3084860D01*
X26276189Y-3084860D02*
X26161904Y-3122955D01*
X26161904Y-3122955D02*
X26085713Y-3122955D01*
X26085713Y-3122955D02*
X25971427Y-3084860D01*
X25971427Y-3084860D02*
X25895237Y-3008669D01*
X25895237Y-3008669D02*
X25857142Y-2932479D01*
X25857142Y-2932479D02*
X25819046Y-2780098D01*
X25819046Y-2780098D02*
X25819046Y-2665812D01*
X25819046Y-2665812D02*
X25857142Y-2513431D01*
X25857142Y-2513431D02*
X25895237Y-2437240D01*
X25895237Y-2437240D02*
X25971427Y-2361050D01*
X25971427Y-2361050D02*
X26085713Y-2322955D01*
X26085713Y-2322955D02*
X26161904Y-2322955D01*
X26161904Y-2322955D02*
X26276189Y-2361050D01*
X26276189Y-2361050D02*
X26314285Y-2399145D01*
X26771427Y-3122955D02*
X26695237Y-3084860D01*
X26695237Y-3084860D02*
X26657142Y-3046764D01*
X26657142Y-3046764D02*
X26619046Y-2970574D01*
X26619046Y-2970574D02*
X26619046Y-2742002D01*
X26619046Y-2742002D02*
X26657142Y-2665812D01*
X26657142Y-2665812D02*
X26695237Y-2627717D01*
X26695237Y-2627717D02*
X26771427Y-2589621D01*
X26771427Y-2589621D02*
X26885713Y-2589621D01*
X26885713Y-2589621D02*
X26961904Y-2627717D01*
X26961904Y-2627717D02*
X26999999Y-2665812D01*
X26999999Y-2665812D02*
X27038094Y-2742002D01*
X27038094Y-2742002D02*
X27038094Y-2970574D01*
X27038094Y-2970574D02*
X26999999Y-3046764D01*
X26999999Y-3046764D02*
X26961904Y-3084860D01*
X26961904Y-3084860D02*
X26885713Y-3122955D01*
X26885713Y-3122955D02*
X26771427Y-3122955D01*
X27723809Y-2589621D02*
X27723809Y-3122955D01*
X27380952Y-2589621D02*
X27380952Y-3008669D01*
X27380952Y-3008669D02*
X27419047Y-3084860D01*
X27419047Y-3084860D02*
X27495237Y-3122955D01*
X27495237Y-3122955D02*
X27609523Y-3122955D01*
X27609523Y-3122955D02*
X27685714Y-3084860D01*
X27685714Y-3084860D02*
X27723809Y-3046764D01*
X27990476Y-2589621D02*
X28295238Y-2589621D01*
X28104762Y-2322955D02*
X28104762Y-3008669D01*
X28104762Y-3008669D02*
X28142857Y-3084860D01*
X28142857Y-3084860D02*
X28219047Y-3122955D01*
X28219047Y-3122955D02*
X28295238Y-3122955D01*
X28523809Y-2399145D02*
X28561905Y-2361050D01*
X28561905Y-2361050D02*
X28638095Y-2322955D01*
X28638095Y-2322955D02*
X28828571Y-2322955D01*
X28828571Y-2322955D02*
X28904762Y-2361050D01*
X28904762Y-2361050D02*
X28942857Y-2399145D01*
X28942857Y-2399145D02*
X28980952Y-2475336D01*
X28980952Y-2475336D02*
X28980952Y-2551526D01*
X28980952Y-2551526D02*
X28942857Y-2665812D01*
X28942857Y-2665812D02*
X28485714Y-3122955D01*
X28485714Y-3122955D02*
X28980952Y-3122955D01*
D13*
X24196600Y-18904761D02*
X24072791Y-18991428D01*
X24196600Y-19053333D02*
X23936600Y-19053333D01*
X23936600Y-19053333D02*
X23936600Y-18954285D01*
X23936600Y-18954285D02*
X23948981Y-18929523D01*
X23948981Y-18929523D02*
X23961362Y-18917142D01*
X23961362Y-18917142D02*
X23986124Y-18904761D01*
X23986124Y-18904761D02*
X24023267Y-18904761D01*
X24023267Y-18904761D02*
X24048029Y-18917142D01*
X24048029Y-18917142D02*
X24060410Y-18929523D01*
X24060410Y-18929523D02*
X24072791Y-18954285D01*
X24072791Y-18954285D02*
X24072791Y-19053333D01*
X24060410Y-18706666D02*
X24060410Y-18793333D01*
X24196600Y-18793333D02*
X23936600Y-18793333D01*
X23936600Y-18793333D02*
X23936600Y-18669523D01*
X24060410Y-18483809D02*
X24072791Y-18446666D01*
X24072791Y-18446666D02*
X24085172Y-18434285D01*
X24085172Y-18434285D02*
X24109934Y-18421904D01*
X24109934Y-18421904D02*
X24147077Y-18421904D01*
X24147077Y-18421904D02*
X24171839Y-18434285D01*
X24171839Y-18434285D02*
X24184220Y-18446666D01*
X24184220Y-18446666D02*
X24196600Y-18471428D01*
X24196600Y-18471428D02*
X24196600Y-18570476D01*
X24196600Y-18570476D02*
X23936600Y-18570476D01*
X23936600Y-18570476D02*
X23936600Y-18483809D01*
X23936600Y-18483809D02*
X23948981Y-18459047D01*
X23948981Y-18459047D02*
X23961362Y-18446666D01*
X23961362Y-18446666D02*
X23986124Y-18434285D01*
X23986124Y-18434285D02*
X24010886Y-18434285D01*
X24010886Y-18434285D02*
X24035648Y-18446666D01*
X24035648Y-18446666D02*
X24048029Y-18459047D01*
X24048029Y-18459047D02*
X24060410Y-18483809D01*
X24060410Y-18483809D02*
X24060410Y-18570476D01*
X23961362Y-18322857D02*
X23948981Y-18310476D01*
X23948981Y-18310476D02*
X23936600Y-18285714D01*
X23936600Y-18285714D02*
X23936600Y-18223809D01*
X23936600Y-18223809D02*
X23948981Y-18199047D01*
X23948981Y-18199047D02*
X23961362Y-18186666D01*
X23961362Y-18186666D02*
X23986124Y-18174285D01*
X23986124Y-18174285D02*
X24010886Y-18174285D01*
X24010886Y-18174285D02*
X24048029Y-18186666D01*
X24048029Y-18186666D02*
X24196600Y-18335238D01*
X24196600Y-18335238D02*
X24196600Y-18174285D01*
X3528200Y-2018742D02*
X3404391Y-2105409D01*
X3528200Y-2167314D02*
X3268200Y-2167314D01*
X3268200Y-2167314D02*
X3268200Y-2068266D01*
X3268200Y-2068266D02*
X3280581Y-2043504D01*
X3280581Y-2043504D02*
X3292962Y-2031123D01*
X3292962Y-2031123D02*
X3317724Y-2018742D01*
X3317724Y-2018742D02*
X3354867Y-2018742D01*
X3354867Y-2018742D02*
X3379629Y-2031123D01*
X3379629Y-2031123D02*
X3392010Y-2043504D01*
X3392010Y-2043504D02*
X3404391Y-2068266D01*
X3404391Y-2068266D02*
X3404391Y-2167314D01*
X3392010Y-1907314D02*
X3392010Y-1820647D01*
X3528200Y-1783504D02*
X3528200Y-1907314D01*
X3528200Y-1907314D02*
X3268200Y-1907314D01*
X3268200Y-1907314D02*
X3268200Y-1783504D01*
X3528200Y-1672076D02*
X3268200Y-1672076D01*
X3268200Y-1672076D02*
X3528200Y-1523504D01*
X3528200Y-1523504D02*
X3268200Y-1523504D01*
X3528200Y-1263504D02*
X3528200Y-1412076D01*
X3528200Y-1337790D02*
X3268200Y-1337790D01*
X3268200Y-1337790D02*
X3305343Y-1362552D01*
X3305343Y-1362552D02*
X3330105Y-1387314D01*
X3330105Y-1387314D02*
X3342486Y-1412076D01*
D12*
X21838949Y-17547533D02*
X21600854Y-17714199D01*
X21838949Y-17833247D02*
X21338949Y-17833247D01*
X21338949Y-17833247D02*
X21338949Y-17642771D01*
X21338949Y-17642771D02*
X21362759Y-17595152D01*
X21362759Y-17595152D02*
X21386568Y-17571342D01*
X21386568Y-17571342D02*
X21434187Y-17547533D01*
X21434187Y-17547533D02*
X21505616Y-17547533D01*
X21505616Y-17547533D02*
X21553235Y-17571342D01*
X21553235Y-17571342D02*
X21577044Y-17595152D01*
X21577044Y-17595152D02*
X21600854Y-17642771D01*
X21600854Y-17642771D02*
X21600854Y-17833247D01*
X21838949Y-17071342D02*
X21838949Y-17357056D01*
X21838949Y-17214199D02*
X21338949Y-17214199D01*
X21338949Y-17214199D02*
X21410378Y-17261818D01*
X21410378Y-17261818D02*
X21457997Y-17309437D01*
X21457997Y-17309437D02*
X21481806Y-17357056D01*
D11*
X17067664Y-8935713D02*
X17105760Y-8973809D01*
X17105760Y-8973809D02*
X17143855Y-9088094D01*
X17143855Y-9088094D02*
X17143855Y-9164285D01*
X17143855Y-9164285D02*
X17105760Y-9278571D01*
X17105760Y-9278571D02*
X17029569Y-9354761D01*
X17029569Y-9354761D02*
X16953379Y-9392856D01*
X16953379Y-9392856D02*
X16800998Y-9430952D01*
X16800998Y-9430952D02*
X16686712Y-9430952D01*
X16686712Y-9430952D02*
X16534331Y-9392856D01*
X16534331Y-9392856D02*
X16458140Y-9354761D01*
X16458140Y-9354761D02*
X16381950Y-9278571D01*
X16381950Y-9278571D02*
X16343855Y-9164285D01*
X16343855Y-9164285D02*
X16343855Y-9088094D01*
X16343855Y-9088094D02*
X16381950Y-8973809D01*
X16381950Y-8973809D02*
X16420045Y-8935713D01*
X17143855Y-8592856D02*
X16610521Y-8592856D01*
X16343855Y-8592856D02*
X16381950Y-8630952D01*
X16381950Y-8630952D02*
X16420045Y-8592856D01*
X16420045Y-8592856D02*
X16381950Y-8554761D01*
X16381950Y-8554761D02*
X16343855Y-8592856D01*
X16343855Y-8592856D02*
X16420045Y-8592856D01*
X16610521Y-8211904D02*
X17143855Y-8211904D01*
X16686712Y-8211904D02*
X16648617Y-8173809D01*
X16648617Y-8173809D02*
X16610521Y-8097619D01*
X16610521Y-8097619D02*
X16610521Y-7983333D01*
X16610521Y-7983333D02*
X16648617Y-7907142D01*
X16648617Y-7907142D02*
X16724807Y-7869047D01*
X16724807Y-7869047D02*
X17143855Y-7869047D01*
X17143855Y-7069047D02*
X17143855Y-7526190D01*
X17143855Y-7297618D02*
X16343855Y-7297618D01*
X16343855Y-7297618D02*
X16458140Y-7373809D01*
X16458140Y-7373809D02*
X16534331Y-7449999D01*
X16534331Y-7449999D02*
X16572426Y-7526190D01*
D10*
X18932905Y-1754819D02*
X18932905Y-754819D01*
X18932905Y-754819D02*
X19171000Y-754819D01*
X19171000Y-754819D02*
X19313857Y-802438D01*
X19313857Y-802438D02*
X19409095Y-897676D01*
X19409095Y-897676D02*
X19456714Y-992914D01*
X19456714Y-992914D02*
X19504333Y-1183390D01*
X19504333Y-1183390D02*
X19504333Y-1326247D01*
X19504333Y-1326247D02*
X19456714Y-1516723D01*
X19456714Y-1516723D02*
X19409095Y-1611961D01*
X19409095Y-1611961D02*
X19313857Y-1707200D01*
X19313857Y-1707200D02*
X19171000Y-1754819D01*
X19171000Y-1754819D02*
X18932905Y-1754819D01*
X19885286Y-850057D02*
X19932905Y-802438D01*
X19932905Y-802438D02*
X20028143Y-754819D01*
X20028143Y-754819D02*
X20266238Y-754819D01*
X20266238Y-754819D02*
X20361476Y-802438D01*
X20361476Y-802438D02*
X20409095Y-850057D01*
X20409095Y-850057D02*
X20456714Y-945295D01*
X20456714Y-945295D02*
X20456714Y-1040533D01*
X20456714Y-1040533D02*
X20409095Y-1183390D01*
X20409095Y-1183390D02*
X19837667Y-1754819D01*
X19837667Y-1754819D02*
X20456714Y-1754819D01*
X32754819Y-5673633D02*
X33469104Y-5673633D01*
X33469104Y-5673633D02*
X33611961Y-5721252D01*
X33611961Y-5721252D02*
X33707200Y-5816490D01*
X33707200Y-5816490D02*
X33754819Y-5959347D01*
X33754819Y-5959347D02*
X33754819Y-6054585D01*
X33754819Y-4673633D02*
X33754819Y-5245061D01*
X33754819Y-4959347D02*
X32754819Y-4959347D01*
X32754819Y-4959347D02*
X32897676Y-5054585D01*
X32897676Y-5054585D02*
X32992914Y-5149823D01*
X32992914Y-5149823D02*
X33040533Y-5245061D01*
D13*
X29229765Y-7504576D02*
X29241670Y-7516480D01*
X29241670Y-7516480D02*
X29253574Y-7552195D01*
X29253574Y-7552195D02*
X29253574Y-7576004D01*
X29253574Y-7576004D02*
X29241670Y-7611718D01*
X29241670Y-7611718D02*
X29217860Y-7635528D01*
X29217860Y-7635528D02*
X29194050Y-7647433D01*
X29194050Y-7647433D02*
X29146431Y-7659337D01*
X29146431Y-7659337D02*
X29110717Y-7659337D01*
X29110717Y-7659337D02*
X29063098Y-7647433D01*
X29063098Y-7647433D02*
X29039289Y-7635528D01*
X29039289Y-7635528D02*
X29015479Y-7611718D01*
X29015479Y-7611718D02*
X29003574Y-7576004D01*
X29003574Y-7576004D02*
X29003574Y-7552195D01*
X29003574Y-7552195D02*
X29015479Y-7516480D01*
X29015479Y-7516480D02*
X29027384Y-7504576D01*
X29086908Y-7433147D02*
X29086908Y-7337909D01*
X29253574Y-7397433D02*
X29039289Y-7397433D01*
X29039289Y-7397433D02*
X29015479Y-7385528D01*
X29015479Y-7385528D02*
X29003574Y-7361718D01*
X29003574Y-7361718D02*
X29003574Y-7337909D01*
X29086908Y-7290290D02*
X29086908Y-7195052D01*
X29253574Y-7254576D02*
X29039289Y-7254576D01*
X29039289Y-7254576D02*
X29015479Y-7242671D01*
X29015479Y-7242671D02*
X29003574Y-7218861D01*
X29003574Y-7218861D02*
X29003574Y-7195052D01*
X31671800Y-17207542D02*
X31547991Y-17294209D01*
X31671800Y-17356114D02*
X31411800Y-17356114D01*
X31411800Y-17356114D02*
X31411800Y-17257066D01*
X31411800Y-17257066D02*
X31424181Y-17232304D01*
X31424181Y-17232304D02*
X31436562Y-17219923D01*
X31436562Y-17219923D02*
X31461324Y-17207542D01*
X31461324Y-17207542D02*
X31498467Y-17207542D01*
X31498467Y-17207542D02*
X31523229Y-17219923D01*
X31523229Y-17219923D02*
X31535610Y-17232304D01*
X31535610Y-17232304D02*
X31547991Y-17257066D01*
X31547991Y-17257066D02*
X31547991Y-17356114D01*
X31535610Y-17096114D02*
X31535610Y-17009447D01*
X31671800Y-16972304D02*
X31671800Y-17096114D01*
X31671800Y-17096114D02*
X31411800Y-17096114D01*
X31411800Y-17096114D02*
X31411800Y-16972304D01*
X31671800Y-16860876D02*
X31411800Y-16860876D01*
X31411800Y-16860876D02*
X31671800Y-16712304D01*
X31671800Y-16712304D02*
X31411800Y-16712304D01*
X31436562Y-16600876D02*
X31424181Y-16588495D01*
X31424181Y-16588495D02*
X31411800Y-16563733D01*
X31411800Y-16563733D02*
X31411800Y-16501828D01*
X31411800Y-16501828D02*
X31424181Y-16477066D01*
X31424181Y-16477066D02*
X31436562Y-16464685D01*
X31436562Y-16464685D02*
X31461324Y-16452304D01*
X31461324Y-16452304D02*
X31486086Y-16452304D01*
X31486086Y-16452304D02*
X31523229Y-16464685D01*
X31523229Y-16464685D02*
X31671800Y-16613257D01*
X31671800Y-16613257D02*
X31671800Y-16452304D01*
D10*
X16166619Y-17240104D02*
X16976142Y-17240104D01*
X16976142Y-17240104D02*
X17071380Y-17192485D01*
X17071380Y-17192485D02*
X17119000Y-17144866D01*
X17119000Y-17144866D02*
X17166619Y-17049628D01*
X17166619Y-17049628D02*
X17166619Y-16859152D01*
X17166619Y-16859152D02*
X17119000Y-16763914D01*
X17119000Y-16763914D02*
X17071380Y-16716295D01*
X17071380Y-16716295D02*
X16976142Y-16668676D01*
X16976142Y-16668676D02*
X16166619Y-16668676D01*
X17166619Y-15668676D02*
X17166619Y-16240104D01*
X17166619Y-15954390D02*
X16166619Y-15954390D01*
X16166619Y-15954390D02*
X16309476Y-16049628D01*
X16309476Y-16049628D02*
X16404714Y-16144866D01*
X16404714Y-16144866D02*
X16452333Y-16240104D01*
D14*
X17798832Y-12341666D02*
X17817880Y-12360714D01*
X17817880Y-12360714D02*
X17836927Y-12417856D01*
X17836927Y-12417856D02*
X17836927Y-12455952D01*
X17836927Y-12455952D02*
X17817880Y-12513095D01*
X17817880Y-12513095D02*
X17779784Y-12551190D01*
X17779784Y-12551190D02*
X17741689Y-12570237D01*
X17741689Y-12570237D02*
X17665499Y-12589285D01*
X17665499Y-12589285D02*
X17608356Y-12589285D01*
X17608356Y-12589285D02*
X17532165Y-12570237D01*
X17532165Y-12570237D02*
X17494070Y-12551190D01*
X17494070Y-12551190D02*
X17455975Y-12513095D01*
X17455975Y-12513095D02*
X17436927Y-12455952D01*
X17436927Y-12455952D02*
X17436927Y-12417856D01*
X17436927Y-12417856D02*
X17455975Y-12360714D01*
X17455975Y-12360714D02*
X17475022Y-12341666D01*
X17836927Y-11960714D02*
X17836927Y-12189285D01*
X17836927Y-12074999D02*
X17436927Y-12074999D01*
X17436927Y-12074999D02*
X17494070Y-12113095D01*
X17494070Y-12113095D02*
X17532165Y-12151190D01*
X17532165Y-12151190D02*
X17551213Y-12189285D01*
D10*
X18093905Y545180D02*
X18093905Y1545180D01*
X18093905Y1545180D02*
X18332000Y1545180D01*
X18332000Y1545180D02*
X18474857Y1497561D01*
X18474857Y1497561D02*
X18570095Y1402323D01*
X18570095Y1402323D02*
X18617714Y1307085D01*
X18617714Y1307085D02*
X18665333Y1116609D01*
X18665333Y1116609D02*
X18665333Y973752D01*
X18665333Y973752D02*
X18617714Y783276D01*
X18617714Y783276D02*
X18570095Y688038D01*
X18570095Y688038D02*
X18474857Y592800D01*
X18474857Y592800D02*
X18332000Y545180D01*
X18332000Y545180D02*
X18093905Y545180D01*
X19617714Y545180D02*
X19046286Y545180D01*
X19332000Y545180D02*
X19332000Y1545180D01*
X19332000Y1545180D02*
X19236762Y1402323D01*
X19236762Y1402323D02*
X19141524Y1307085D01*
X19141524Y1307085D02*
X19046286Y1259466D01*
%TO.C,Cin2*%
D15*
X9911800Y-13409200D02*
X12411800Y-13409200D01*
X12411800Y-16609200D01*
X9911800Y-16609200D01*
X9911800Y-13409200D01*
%TO.C,R2*%
X23136800Y-14665000D02*
X24386800Y-14665000D01*
X24386800Y-16665000D01*
X23136800Y-16665000D01*
X23136800Y-14665000D01*
%TO.C,Cout3*%
X27405200Y-13810000D02*
X28405200Y-13810000D01*
X28405200Y-14310000D01*
X27405200Y-14310000D01*
X27405200Y-13810000D01*
%TO.C,RFB1*%
X25801100Y-14005000D02*
X26341100Y-14005000D01*
X26341100Y-15055000D01*
X25801100Y-15055000D01*
X25801100Y-14005000D01*
%TO.C,Cin3*%
X8186800Y-10975000D02*
X8986800Y-10975000D01*
X8986800Y-12575000D01*
X8186800Y-12575000D01*
X8186800Y-10975000D01*
%TO.C,J2*%
X4630000Y-2000000D02*
X4630000Y-9600000D01*
X4630000Y-2000000D02*
X5430000Y-2000000D01*
X4630000Y-9600000D02*
X14530000Y-9600000D01*
X5430000Y-2000000D02*
X5430000Y-3600000D01*
X5430000Y-3600000D02*
X13730000Y-3600000D01*
X7080000Y-3600000D02*
X7580000Y-4307107D01*
X7580000Y-4307107D02*
X8080000Y-3600000D01*
X13730000Y-2000000D02*
X14530000Y-2000000D01*
X13730000Y-3600000D02*
X13730000Y-2000000D01*
X14530000Y-2000000D02*
X14530000Y-9600000D01*
%TO.C,Cbst*%
X28890000Y-4669100D02*
X29390000Y-4669100D01*
X29390000Y-5669100D01*
X28890000Y-5669100D01*
X28890000Y-4669100D01*
%TO.C,Cout1*%
X3711800Y-11489800D02*
X6911800Y-11489800D01*
X6911800Y-13089800D01*
X3711800Y-13089800D01*
X3711800Y-11489800D01*
%TO.C,Cout2*%
X25800000Y-1959100D02*
X29000000Y-1959100D01*
X29000000Y-3559100D01*
X25800000Y-3559100D01*
X25800000Y-1959100D01*
%TO.C,RFB2*%
X23808400Y-18095000D02*
X24348400Y-18095000D01*
X24348400Y-19145000D01*
X23808400Y-19145000D01*
X23808400Y-18095000D01*
%TO.C,REN1*%
X3140000Y-1196600D02*
X3680000Y-1196600D01*
X3680000Y-2246600D01*
X3140000Y-2246600D01*
X3140000Y-1196600D01*
%TO.C,R1*%
X20986800Y-16464200D02*
X22236800Y-16464200D01*
X22236800Y-18464200D01*
X20986800Y-18464200D01*
X20986800Y-16464200D01*
%TO.C,Cin1*%
X15530000Y-6650000D02*
X18030000Y-6650000D01*
X18030000Y-9850000D01*
X15530000Y-9850000D01*
X15530000Y-6650000D01*
%TO.C,D2*%
X17371000Y-6300000D02*
X17371000Y-2300000D01*
X19021560Y-3500920D02*
X19021560Y-5101120D01*
X19021560Y-4301020D02*
X18119860Y-4301020D01*
X19021560Y-4301020D02*
X20172180Y-3500920D01*
X19021560Y-4301020D02*
X20172180Y-5050320D01*
X20172180Y-4301020D02*
X21170400Y-4301020D01*
X20172180Y-5050320D02*
X20172180Y-3500920D01*
X21971000Y-2300000D02*
X17371000Y-2300000D01*
X21971000Y-2300000D02*
X21971000Y-6300000D01*
X21971000Y-6300000D02*
X17371000Y-6300000D01*
%TO.C,J1*%
X30400000Y-1390300D02*
X30400000Y-9290300D01*
X35692893Y-4340300D02*
X36400000Y-4840300D01*
X36400000Y-2190300D02*
X36400000Y-8490300D01*
X36400000Y-3840300D02*
X35692893Y-4340300D01*
X36400000Y-8490300D02*
X38000000Y-8490300D01*
X38000000Y-1390300D02*
X30400000Y-1390300D01*
X38000000Y-1390300D02*
X38000000Y-2190300D01*
X38000000Y-2190300D02*
X36400000Y-2190300D01*
X38000000Y-8490300D02*
X38000000Y-9290300D01*
X38000000Y-9290300D02*
X30400000Y-9290300D01*
%TO.C,L1*%
D11*
X18880000Y-5600000D02*
X18880000Y-13600000D01*
X18880000Y-5600000D02*
X28080000Y-5600000D01*
X18880000Y-13600000D02*
X28080000Y-13600000D01*
X28080000Y-5600000D02*
X28080000Y-13600000D01*
%TO.C,Cff*%
D15*
X28890000Y-6939100D02*
X29390000Y-6939100D01*
X29390000Y-7939100D01*
X28890000Y-7939100D01*
X28890000Y-6939100D01*
%TO.C,REN2*%
X31283600Y-16385400D02*
X31823600Y-16385400D01*
X31823600Y-17435400D01*
X31283600Y-17435400D01*
X31283600Y-16385400D01*
%TO.C,U1*%
X17686800Y-18928200D02*
X14761800Y-18928200D01*
X14761800Y-14028200D01*
X18661800Y-14028200D01*
X18661800Y-17953200D01*
X17686800Y-18928200D01*
%TO.C,C1*%
X17255000Y-11475000D02*
X18055000Y-11475000D01*
X18055000Y-13075000D01*
X17255000Y-13075000D01*
X17255000Y-11475000D01*
%TO.C,D1*%
X16532000Y-3000000D02*
X16532000Y0D01*
X18182560Y-700920D02*
X18182560Y-2301120D01*
X18182560Y-1501020D02*
X17280860Y-1501020D01*
X18182560Y-1501020D02*
X19333180Y-700920D01*
X18182560Y-1501020D02*
X19333180Y-2250320D01*
X19333180Y-1501020D02*
X20331400Y-1501020D01*
X19333180Y-2250320D02*
X19333180Y-700920D01*
X21132000Y0D02*
X16532000Y0D01*
X21132000Y0D02*
X21132000Y-3000000D01*
X21132000Y-3000000D02*
X16532000Y-3000000D01*
%TD*%
M02*
