M48
; DRILL file KiCad 10.0.3 date 2026-06-21T15:55:42
; FORMAT={-:-/ absolute / metric / decimal}
; #@! TF.CreationDate,2026-06-21T15:55:42-07:00
; #@! TF.GenerationSoftware,Kicad,Pcbnew,10.0.3
; #@! TF.FileFunction,MixedPlating,1,2
FMAT,2
METRIC
; #@! TA.AperFunction,Plated,PTH,ViaDrill
T1C0.300
; #@! TA.AperFunction,NonPlated,NPTH,ComponentDrill
T2C2.200
%
G90
G05
T1
X2.03Y-7.375
X4.65Y-12.182
X4.81Y-16.427
X5.881Y-10.03
X6.333Y-15.008
X8.887Y-1.398
X10.227Y-4.609
X12.172Y-15.525
X13.601Y-6.066
X18.505Y-12.397
X18.828Y-5.016
X19.351Y-7.855
X20.771Y-12.506
X21.701Y-14.767
X25.293Y-3.381
X30.051Y-3.613
X33.515Y-0.758
X37.68Y-17.283
T2
X4.0Y-4.0
X32.0Y-16.0
M30
