%TF.GenerationSoftware,KiCad,Pcbnew,10.0.3*%
%TF.CreationDate,2026-06-21T07:04:33-07:00*%
%TF.ProjectId,brickdup_psu,62726963-6b64-4757-905f-7073752e6b69,rev?*%
%TF.SameCoordinates,Original*%
%TF.FileFunction,Copper,L1,Top*%
%TF.FilePolarity,Positive*%
%FSLAX46Y46*%
G04 Gerber Fmt 4.6, Leading zero omitted, Abs format (unit mm)*
G04 Created by KiCad (PCBNEW 10.0.3) date 2026-06-21 07:04:33*
%MOMM*%
%LPD*%
G01*
G04 APERTURE LIST*
G04 Aperture macros list*
%AMRoundRect*
0 Rectangle with rounded corners*
0 $1 Rounding radius*
0 $2 $3 $4 $5 $6 $7 $8 $9 X,Y pos of 4 corners*
0 Add a 4 corners polygon primitive as box body*
4,1,4,$2,$3,$4,$5,$6,$7,$8,$9,$2,$3,0*
0 Add four circle primitives for the rounded corners*
1,1,$1+$1,$2,$3*
1,1,$1+$1,$4,$5*
1,1,$1+$1,$6,$7*
1,1,$1+$1,$8,$9*
0 Add four rect primitives between the rounded corners*
20,1,$1+$1,$2,$3,$4,$5,0*
20,1,$1+$1,$4,$5,$6,$7,0*
20,1,$1+$1,$6,$7,$8,$9,0*
20,1,$1+$1,$8,$9,$2,$3,0*%
G04 Aperture macros list end*
%TA.AperFunction,SMDPad,CuDef*%
%ADD10RoundRect,0.135000X0.185000X-0.135000X0.185000X0.135000X-0.185000X0.135000X-0.185000X-0.135000X0*%
%TD*%
%TA.AperFunction,SMDPad,CuDef*%
%ADD11RoundRect,0.250000X0.450000X-0.262500X0.450000X0.262500X-0.450000X0.262500X-0.450000X-0.262500X0*%
%TD*%
%TA.AperFunction,SMDPad,CuDef*%
%ADD12RoundRect,0.150000X0.825000X0.150000X-0.825000X0.150000X-0.825000X-0.150000X0.825000X-0.150000X0*%
%TD*%
%TA.AperFunction,HeatsinkPad*%
%ADD13R,2.410000X3.300000*%
%TD*%
%TA.AperFunction,SMDPad,CuDef*%
%ADD14RoundRect,0.250000X-1.000000X-0.650000X1.000000X-0.650000X1.000000X0.650000X-1.000000X0.650000X0*%
%TD*%
%TA.AperFunction,SMDPad,CuDef*%
%ADD15RoundRect,0.250000X1.100000X-0.325000X1.100000X0.325000X-1.100000X0.325000X-1.100000X-0.325000X0*%
%TD*%
%TA.AperFunction,SMDPad,CuDef*%
%ADD16RoundRect,0.140000X-0.140000X-0.170000X0.140000X-0.170000X0.140000X0.170000X-0.140000X0.170000X0*%
%TD*%
%TA.AperFunction,SMDPad,CuDef*%
%ADD17RoundRect,0.250000X-0.250000X-1.500000X0.250000X-1.500000X0.250000X1.500000X-0.250000X1.500000X0*%
%TD*%
%TA.AperFunction,SMDPad,CuDef*%
%ADD18RoundRect,0.250001X-0.499999X-1.449999X0.499999X-1.449999X0.499999X1.449999X-0.499999X1.449999X0*%
%TD*%
%TA.AperFunction,SMDPad,CuDef*%
%ADD19RoundRect,0.250000X-0.325000X-0.650000X0.325000X-0.650000X0.325000X0.650000X-0.325000X0.650000X0*%
%TD*%
%TA.AperFunction,SMDPad,CuDef*%
%ADD20RoundRect,0.225000X0.250000X-0.225000X0.250000X0.225000X-0.250000X0.225000X-0.250000X-0.225000X0*%
%TD*%
%TA.AperFunction,SMDPad,CuDef*%
%ADD21RoundRect,0.140000X0.170000X-0.140000X0.170000X0.140000X-0.170000X0.140000X-0.170000X-0.140000X0*%
%TD*%
%TA.AperFunction,SMDPad,CuDef*%
%ADD22RoundRect,0.250000X-1.000000X-0.900000X1.000000X-0.900000X1.000000X0.900000X-1.000000X0.900000X0*%
%TD*%
%TA.AperFunction,SMDPad,CuDef*%
%ADD23RoundRect,0.135000X-0.135000X-0.185000X0.135000X-0.185000X0.135000X0.185000X-0.135000X0.185000X0*%
%TD*%
%TA.AperFunction,SMDPad,CuDef*%
%ADD24RoundRect,0.250000X-1.500000X0.250000X-1.500000X-0.250000X1.500000X-0.250000X1.500000X0.250000X0*%
%TD*%
%TA.AperFunction,SMDPad,CuDef*%
%ADD25RoundRect,0.250001X-1.449999X0.499999X-1.449999X-0.499999X1.449999X-0.499999X1.449999X0.499999X0*%
%TD*%
%TA.AperFunction,SMDPad,CuDef*%
%ADD26R,1.500000X2.200000*%
%TD*%
%TA.AperFunction,ViaPad*%
%ADD27C,0.600000*%
%TD*%
%TA.AperFunction,Conductor*%
%ADD28C,0.200000*%
%TD*%
G04 APERTURE END LIST*
D10*
%TO.P,RFB2,1*%
%TO.N,FB*%
X3164700Y-15743800D03*
%TO.P,RFB2,2*%
%TO.N,GND*%
X3164700Y-14723800D03*
%TD*%
D11*
%TO.P,R1,1*%
%TO.N,VBAT*%
X7703400Y-15393300D03*
%TO.P,R1,2*%
%TO.N,SENSE*%
X7703400Y-13568300D03*
%TD*%
D12*
%TO.P,U1,1*%
%TO.N,FB*%
X19555000Y-17210000D03*
%TO.P,U1,2*%
%TO.N,N/C*%
X19555000Y-15940000D03*
%TO.P,U1,3*%
%TO.N,VBAT*%
X19555000Y-14670000D03*
%TO.P,U1,4*%
%TO.N,BST*%
X19555000Y-13400000D03*
%TO.P,U1,5*%
%TO.N,SW*%
X14605000Y-13400000D03*
%TO.P,U1,6*%
%TO.N,DIM*%
X14605000Y-14670000D03*
%TO.P,U1,7*%
%TO.N,EN*%
X14605000Y-15940000D03*
%TO.P,U1,8*%
%TO.N,GND*%
X14605000Y-17210000D03*
D13*
%TO.P,U1,9*%
X17080000Y-15305000D03*
%TD*%
D14*
%TO.P,D1,1*%
%TO.N,SW*%
X12735100Y-11450000D03*
%TO.P,D1,2*%
%TO.N,GND*%
X16735100Y-11450000D03*
%TD*%
D10*
%TO.P,RFB1,1*%
%TO.N,+5V*%
X7495700Y-18004700D03*
%TO.P,RFB1,2*%
%TO.N,FB*%
X7495700Y-16984700D03*
%TD*%
D15*
%TO.P,Cin1,1*%
%TO.N,VBAT*%
X2030200Y-10325000D03*
%TO.P,Cin1,2*%
%TO.N,GND*%
X2030200Y-7375000D03*
%TD*%
D11*
%TO.P,R2,1*%
%TO.N,SENSE*%
X18450000Y-9208300D03*
%TO.P,R2,2*%
%TO.N,GND*%
X18450000Y-7383300D03*
%TD*%
D16*
%TO.P,Cout3,1*%
%TO.N,+5V*%
X37680400Y-18121200D03*
%TO.P,Cout3,2*%
%TO.N,GND*%
X38640400Y-18121200D03*
%TD*%
D17*
%TO.P,J2,1*%
%TO.N,+5V*%
X9900000Y-2350000D03*
%TO.P,J2,2*%
%TO.N,SENSE*%
X11900000Y-2350000D03*
%TO.P,J2,3*%
%TO.N,GND*%
X13900000Y-2350000D03*
D18*
%TO.P,J2,MP*%
%TO.N,N/C*%
X7550000Y-8100000D03*
X16250000Y-8100000D03*
%TD*%
D19*
%TO.P,Cout2,1*%
%TO.N,+5V*%
X18834700Y-3046600D03*
%TO.P,Cout2,2*%
%TO.N,GND*%
X21784700Y-3046600D03*
%TD*%
D20*
%TO.P,Cin3,1*%
%TO.N,VBAT*%
X26015800Y-4931500D03*
%TO.P,Cin3,2*%
%TO.N,GND*%
X26015800Y-3381500D03*
%TD*%
D21*
%TO.P,Cff,1*%
%TO.N,+5V*%
X3758600Y-13423800D03*
%TO.P,Cff,2*%
%TO.N,FB*%
X3758600Y-12463800D03*
%TD*%
D22*
%TO.P,D2,1*%
%TO.N,VBAT*%
X23900000Y-12050000D03*
%TO.P,D2,2*%
%TO.N,GND*%
X28200000Y-12050000D03*
%TD*%
D21*
%TO.P,Cbst,1*%
%TO.N,SW*%
X21590000Y-13267600D03*
%TO.P,Cbst,2*%
%TO.N,BST*%
X21590000Y-12307600D03*
%TD*%
D19*
%TO.P,Cout1,1*%
%TO.N,+5V*%
X2900700Y-17663800D03*
%TO.P,Cout1,2*%
%TO.N,GND*%
X5850700Y-17663800D03*
%TD*%
D23*
%TO.P,RDIM,1*%
%TO.N,DIM*%
X25928500Y-1852600D03*
%TO.P,RDIM,2*%
%TO.N,VBAT*%
X26948500Y-1852600D03*
%TD*%
D10*
%TO.P,REN1,1*%
%TO.N,VBAT*%
X4567200Y-8090000D03*
%TO.P,REN1,2*%
%TO.N,EN*%
X4567200Y-7070000D03*
%TD*%
D24*
%TO.P,J1,1*%
%TO.N,VBAT*%
X37650000Y-8100000D03*
%TO.P,J1,2*%
%TO.N,GND*%
X37650000Y-10100000D03*
D25*
%TO.P,J1,MP*%
%TO.N,N/C*%
X31900000Y-5750000D03*
X31900000Y-12450000D03*
%TD*%
D20*
%TO.P,C1,1*%
%TO.N,SENSE*%
X23632500Y-9700000D03*
%TO.P,C1,2*%
%TO.N,GND*%
X23632500Y-8150000D03*
%TD*%
D15*
%TO.P,Cin2,1*%
%TO.N,VBAT*%
X11530000Y-16625000D03*
%TO.P,Cin2,2*%
%TO.N,GND*%
X11530000Y-13675000D03*
%TD*%
D10*
%TO.P,REN2,1*%
%TO.N,EN*%
X24470800Y-4709200D03*
%TO.P,REN2,2*%
%TO.N,GND*%
X24470800Y-3689200D03*
%TD*%
D26*
%TO.P,L1,1*%
%TO.N,SW*%
X28718500Y-2008800D03*
%TO.P,L1,2*%
%TO.N,+5V*%
X35118500Y-2008800D03*
%TD*%
D27*
%TO.N,GND*%
X10988500Y-12595400D03*
X5937000Y-15896200D03*
%TO.N,VBAT*%
X9454700Y-15970500D03*
X16921700Y-13098000D03*
%TO.N,SENSE*%
X18270900Y-10245700D03*
X7617600Y-4227600D03*
X8910700Y-14160700D03*
%TO.N,SW*%
X21755900Y-6533200D03*
X22155800Y-10826700D03*
X24265000Y-1189200D03*
%TO.N,DIM*%
X20705100Y-2248100D03*
X12737800Y-14776400D03*
%TO.N,+5V*%
X24307800Y-18313100D03*
X8889200Y-1397600D03*
X20659800Y-4489400D03*
%TD*%
%TO.N,FB*%
D28*
X7495700Y-16984700D02*
X6614900Y-16103900D01*
X4949000Y-14057300D02*
X4380100Y-14057300D01*
X4380100Y-13085300D02*
X3758600Y-12463800D01*
X19555000Y-17210000D02*
X18947100Y-17817900D01*
X6614900Y-15723200D02*
X4949000Y-14057300D01*
X4380100Y-14057300D02*
X2892900Y-14057300D01*
X18947100Y-17817900D02*
X8328900Y-17817900D01*
X2892900Y-14057300D02*
X2542500Y-14407700D01*
X8328900Y-17817900D02*
X7495700Y-16984700D01*
X6614900Y-16103900D02*
X6614900Y-15723200D01*
X4380100Y-14057300D02*
X4380100Y-13085300D01*
X2542500Y-14407700D02*
X2542500Y-15121600D01*
X2542500Y-15121600D02*
X3164700Y-15743800D01*
%TO.N,GND*%
X16735100Y-15472800D02*
X16735100Y-15305000D01*
X5850700Y-15896200D02*
X5850700Y-17663800D01*
X38028200Y-17509000D02*
X36083700Y-17509000D01*
X24470800Y-3689200D02*
X22427300Y-3689200D01*
X22838300Y-7383300D02*
X22852100Y-7369500D01*
X2030200Y-7375000D02*
X3155300Y-7375000D01*
X5690400Y-4839900D02*
X11999400Y-4839900D01*
X35930400Y-17662300D02*
X31269300Y-17662300D01*
X16735100Y-15305000D02*
X16735100Y-15146100D01*
X13900000Y-2939300D02*
X13900000Y-2350000D01*
X22852100Y-7369500D02*
X25139900Y-5081700D01*
X22427300Y-3689200D02*
X22387200Y-3649000D01*
X4337100Y-15896200D02*
X5850700Y-15896200D01*
X15635200Y-14046200D02*
X11901200Y-14046200D01*
X11999400Y-4839900D02*
X13900000Y-2939300D01*
X31269300Y-17662300D02*
X26928500Y-13321500D01*
X16735100Y-11450000D02*
X16320000Y-11865100D01*
X17375000Y-10810100D02*
X17375000Y-8458300D01*
X10988500Y-13133500D02*
X11530000Y-13675000D01*
X22387200Y-3649000D02*
X21784700Y-3046600D01*
X25139900Y-4358300D02*
X24470800Y-3689200D01*
X11901200Y-14046200D02*
X11530000Y-13675000D01*
X28200000Y-12050000D02*
X26928500Y-13321500D01*
X3155300Y-7375000D02*
X5690400Y-4839900D01*
X14997900Y-17210000D02*
X16735100Y-15472800D01*
X19482100Y-4841400D02*
X15802100Y-4841400D01*
X36083700Y-17509000D02*
X35930400Y-17662300D01*
X18450000Y-7383300D02*
X22838300Y-7383300D01*
X19732200Y-5091500D02*
X19482100Y-4841400D01*
X17375000Y-8458300D02*
X18450000Y-7383300D01*
X38640400Y-18121200D02*
X38028200Y-17509000D01*
X16735100Y-15305000D02*
X17080000Y-15305000D01*
X5850700Y-15896200D02*
X5937000Y-15896200D01*
X15802100Y-4841400D02*
X13900000Y-2939300D01*
X24945000Y-15305000D02*
X26928500Y-13321500D01*
X16320000Y-11865100D02*
X16320000Y-13361400D01*
X24778500Y-3381500D02*
X26015800Y-3381500D01*
X30150000Y-10100000D02*
X37650000Y-10100000D01*
X17080000Y-15305000D02*
X24945000Y-15305000D01*
X24470800Y-3689200D02*
X24778500Y-3381500D01*
X14605000Y-17210000D02*
X14997900Y-17210000D01*
X10988500Y-12595400D02*
X10988500Y-13133500D01*
X16735100Y-11450000D02*
X17375000Y-10810100D01*
X16320000Y-13361400D02*
X15635200Y-14046200D01*
X20944700Y-5091500D02*
X19732200Y-5091500D01*
X28200000Y-12050000D02*
X30150000Y-10100000D01*
X16735100Y-15146100D02*
X15635200Y-14046200D01*
X25139900Y-5081700D02*
X25139900Y-4358300D01*
X22387200Y-3649000D02*
X20944700Y-5091500D01*
X23632500Y-8150000D02*
X22852100Y-7369500D01*
X3164700Y-14723800D02*
X4337100Y-15896200D01*
%TO.N,VBAT*%
X19555000Y-14670000D02*
X21280000Y-14670000D01*
X27155700Y-7405700D02*
X26015800Y-6265800D01*
X21280000Y-14670000D02*
X23900000Y-12050000D01*
X2799800Y-10325000D02*
X2030200Y-10325000D01*
X9454700Y-15970500D02*
X10109200Y-16625000D01*
X27155700Y-7405700D02*
X23900000Y-10661400D01*
X2799800Y-10325000D02*
X2799800Y-9857400D01*
X17832400Y-13098000D02*
X16921700Y-13098000D01*
X10109200Y-16625000D02*
X11530000Y-16625000D01*
X23900000Y-10661400D02*
X23900000Y-12050000D01*
X2799800Y-10489700D02*
X2799800Y-10325000D01*
X22941400Y-10661400D02*
X22478600Y-10198600D01*
X22478600Y-10198600D02*
X20731800Y-10198600D01*
X26948500Y-3998800D02*
X26015800Y-4931500D01*
X37650000Y-8100000D02*
X27850000Y-8100000D01*
X26948500Y-1852600D02*
X26948500Y-3998800D01*
X8280600Y-15970500D02*
X9454700Y-15970500D01*
X2799800Y-9857400D02*
X4567200Y-8090000D01*
X26015800Y-6265800D02*
X26015800Y-4931500D01*
X7703400Y-15393300D02*
X8280600Y-15970500D01*
X20731800Y-10198600D02*
X17832400Y-13098000D01*
X23900000Y-10661400D02*
X22941400Y-10661400D01*
X27850000Y-8100000D02*
X27155700Y-7405700D01*
X7703400Y-15393300D02*
X2799800Y-10489700D01*
%TO.N,SENSE*%
X18450000Y-10066600D02*
X18270900Y-10245700D01*
X11900000Y-2350000D02*
X11900000Y-2920600D01*
X7703400Y-13568300D02*
X8318300Y-13568300D01*
X23140800Y-9208300D02*
X18450000Y-9208300D01*
X7792600Y-4402600D02*
X7617600Y-4227600D01*
X11900000Y-2920600D02*
X10418000Y-4402600D01*
X8318300Y-13568300D02*
X8910700Y-14160700D01*
X18450000Y-9208300D02*
X18450000Y-10066600D01*
X23632500Y-9700000D02*
X23140800Y-9208300D01*
X10418000Y-4402600D02*
X7792600Y-4402600D01*
%TO.N,BST*%
X20647400Y-12307600D02*
X21590000Y-12307600D01*
X19555000Y-13400000D02*
X20647400Y-12307600D01*
%TO.N,SW*%
X27257100Y-1189200D02*
X24265000Y-1189200D01*
X27666800Y-1598900D02*
X27257100Y-1189200D01*
X12735100Y-8817300D02*
X15461400Y-6091000D01*
X21590000Y-13267600D02*
X22229700Y-12627900D01*
X14605000Y-13319900D02*
X14605000Y-13400000D01*
X22229700Y-12627900D02*
X22229700Y-10900600D01*
X12735100Y-11450000D02*
X14605000Y-13319900D01*
X12735100Y-11450000D02*
X12735100Y-8817300D01*
X21313700Y-6091000D02*
X21755900Y-6533200D01*
X22229700Y-10900600D02*
X22155800Y-10826700D01*
X28718500Y-2008800D02*
X27666800Y-2008800D01*
X27666800Y-2008800D02*
X27666800Y-1598900D01*
X15461400Y-6091000D02*
X21313700Y-6091000D01*
%TO.N,DIM*%
X14605000Y-14670000D02*
X12844200Y-14670000D01*
X21162300Y-1790900D02*
X25866800Y-1790900D01*
X20705100Y-2248100D02*
X21162300Y-1790900D01*
X12844200Y-14670000D02*
X12737800Y-14776400D01*
X25866800Y-1790900D02*
X25928500Y-1852600D01*
%TO.N,EN*%
X9313800Y-13686900D02*
X11170800Y-15543900D01*
X23496900Y-5683100D02*
X24470800Y-4709200D01*
X4567200Y-7070000D02*
X5954100Y-5683100D01*
X11170800Y-15543900D02*
X14208900Y-15543900D01*
X14208900Y-15543900D02*
X14605000Y-15940000D01*
X4567200Y-7070000D02*
X5401300Y-7904100D01*
X5401300Y-9658000D02*
X9313800Y-13570500D01*
X5954100Y-5683100D02*
X23496900Y-5683100D01*
X9313800Y-13570500D02*
X9313800Y-13686900D01*
X5401300Y-7904100D02*
X5401300Y-9658000D01*
%TO.N,+5V*%
X2917200Y-13423800D02*
X3758600Y-13423800D01*
X4125600Y-18888700D02*
X2900700Y-17663800D01*
X21293800Y-587500D02*
X18834700Y-3046600D01*
X2137800Y-14203200D02*
X2917200Y-13423800D01*
X24307800Y-18313100D02*
X37488500Y-18313100D01*
X20277500Y-4489400D02*
X20659800Y-4489400D01*
X2137800Y-16900900D02*
X2137800Y-14203200D01*
X6920100Y-18888700D02*
X4125600Y-18888700D01*
X8947600Y-1397600D02*
X9900000Y-2350000D01*
X34066800Y-2008800D02*
X32645500Y-587500D01*
X7495700Y-18313100D02*
X6920100Y-18888700D01*
X35118500Y-2008800D02*
X34066800Y-2008800D01*
X8889200Y-1397600D02*
X8947600Y-1397600D01*
X32645500Y-587500D02*
X21293800Y-587500D01*
X7495700Y-18004700D02*
X7495700Y-18313100D01*
X2900700Y-17663800D02*
X2137800Y-16900900D01*
X37488500Y-18313100D02*
X37680400Y-18121200D01*
X18834700Y-3046600D02*
X20277500Y-4489400D01*
X7495700Y-18313100D02*
X24307800Y-18313100D01*
%TD*%
%TA.AperFunction,Conductor*%
%TO.N,GND*%
G36*
X27172673Y-8312228D02*
G01*
X27199033Y-8314114D01*
X27208086Y-8319932D01*
X27215126Y-8321464D01*
X27243380Y-8342615D01*
X27365139Y-8464374D01*
X27365149Y-8464385D01*
X27369479Y-8468715D01*
X27369480Y-8468716D01*
X27481284Y-8580520D01*
X27481286Y-8580521D01*
X27481290Y-8580524D01*
X27599416Y-8648723D01*
X27618216Y-8659577D01*
X27730019Y-8689534D01*
X27770942Y-8700500D01*
X27770943Y-8700500D01*
X35415202Y-8700500D01*
X35482241Y-8720185D01*
X35520741Y-8759403D01*
X35557289Y-8818657D01*
X35681344Y-8942712D01*
X35765718Y-8994754D01*
X35812443Y-9046702D01*
X35823666Y-9115664D01*
X35795822Y-9179747D01*
X35765720Y-9205831D01*
X35681656Y-9257682D01*
X35557684Y-9381654D01*
X35465643Y-9530875D01*
X35465641Y-9530880D01*
X35410494Y-9697302D01*
X35410493Y-9697309D01*
X35400000Y-9800013D01*
X35400000Y-9850000D01*
X37526000Y-9850000D01*
X37593039Y-9869685D01*
X37638794Y-9922489D01*
X37650000Y-9974000D01*
X37650000Y-10100000D01*
X37776000Y-10100000D01*
X37843039Y-10119685D01*
X37888794Y-10172489D01*
X37900000Y-10224000D01*
X37900000Y-11099999D01*
X39199972Y-11099999D01*
X39199986Y-11099998D01*
X39302697Y-11089505D01*
X39469119Y-11034358D01*
X39469130Y-11034353D01*
X39510403Y-11008896D01*
X39577795Y-10990455D01*
X39644459Y-11011377D01*
X39689229Y-11065019D01*
X39699500Y-11114434D01*
X39699500Y-19575500D01*
X39679815Y-19642539D01*
X39627011Y-19688294D01*
X39575500Y-19699500D01*
X7156182Y-19699500D01*
X7089143Y-19679815D01*
X7043388Y-19627011D01*
X7033444Y-19557853D01*
X7062469Y-19494297D01*
X7105076Y-19462522D01*
X7114307Y-19458346D01*
X7151885Y-19448277D01*
X7202004Y-19419339D01*
X7288816Y-19369220D01*
X7400620Y-19257416D01*
X7400621Y-19257413D01*
X7708117Y-18949916D01*
X7769439Y-18916434D01*
X7795797Y-18913600D01*
X23728034Y-18913600D01*
X23795073Y-18933285D01*
X23796925Y-18934498D01*
X23928614Y-19022490D01*
X23928627Y-19022497D01*
X24029550Y-19064300D01*
X24074303Y-19082837D01*
X24228953Y-19113599D01*
X24228956Y-19113600D01*
X24228958Y-19113600D01*
X24386644Y-19113600D01*
X24386645Y-19113599D01*
X24541297Y-19082837D01*
X24686979Y-19022494D01*
X24795597Y-18949918D01*
X24818675Y-18934498D01*
X24885353Y-18913620D01*
X24887566Y-18913600D01*
X37369294Y-18913600D01*
X37403888Y-18918523D01*
X37439407Y-18928843D01*
X37475710Y-18931700D01*
X37475718Y-18931700D01*
X37885082Y-18931700D01*
X37885090Y-18931700D01*
X37921393Y-18928843D01*
X37921395Y-18928842D01*
X37921397Y-18928842D01*
X37973859Y-18913600D01*
X38076795Y-18883694D01*
X38097769Y-18871289D01*
X38165488Y-18854106D01*
X38224013Y-18871290D01*
X38244203Y-18883231D01*
X38390400Y-18925704D01*
X38390400Y-18925703D01*
X38890400Y-18925703D01*
X39036595Y-18883231D01*
X39175774Y-18800921D01*
X39175783Y-18800914D01*
X39290114Y-18686583D01*
X39290121Y-18686574D01*
X39372431Y-18547395D01*
X39372433Y-18547390D01*
X39417544Y-18392118D01*
X39417545Y-18392112D01*
X39419190Y-18371200D01*
X38890400Y-18371200D01*
X38890400Y-18925703D01*
X38390400Y-18925703D01*
X38390400Y-18619552D01*
X38407667Y-18556433D01*
X38412894Y-18547595D01*
X38436427Y-18466597D01*
X38458042Y-18392197D01*
X38458043Y-18392191D01*
X38460276Y-18363819D01*
X38460900Y-18355890D01*
X38460900Y-17886510D01*
X38458043Y-17850207D01*
X38454700Y-17838702D01*
X38412895Y-17694808D01*
X38412892Y-17694800D01*
X38407666Y-17685963D01*
X38390400Y-17622845D01*
X38390400Y-17316694D01*
X38890400Y-17316694D01*
X38890400Y-17871200D01*
X39419190Y-17871200D01*
X39417545Y-17850289D01*
X39372431Y-17695004D01*
X39290121Y-17555825D01*
X39290114Y-17555816D01*
X39175783Y-17441485D01*
X39175774Y-17441478D01*
X39036593Y-17359167D01*
X39036590Y-17359165D01*
X38890401Y-17316693D01*
X38890400Y-17316694D01*
X38390400Y-17316694D01*
X38390398Y-17316693D01*
X38244209Y-17359165D01*
X38244206Y-17359167D01*
X38224008Y-17371112D01*
X38156284Y-17388292D01*
X38097770Y-17371110D01*
X38076797Y-17358707D01*
X38076790Y-17358704D01*
X37921397Y-17313557D01*
X37921391Y-17313556D01*
X37885097Y-17310700D01*
X37885090Y-17310700D01*
X37475710Y-17310700D01*
X37475702Y-17310700D01*
X37439408Y-17313556D01*
X37439402Y-17313557D01*
X37284009Y-17358704D01*
X37284006Y-17358705D01*
X37144715Y-17441081D01*
X37144707Y-17441087D01*
X37030287Y-17555507D01*
X37030281Y-17555515D01*
X36973386Y-17651721D01*
X36922317Y-17699404D01*
X36866654Y-17712600D01*
X24887566Y-17712600D01*
X24820527Y-17692915D01*
X24818675Y-17691702D01*
X24686985Y-17603709D01*
X24686972Y-17603702D01*
X24541301Y-17543364D01*
X24541289Y-17543361D01*
X24386645Y-17512600D01*
X24386642Y-17512600D01*
X24228958Y-17512600D01*
X24228955Y-17512600D01*
X24074310Y-17543361D01*
X24074298Y-17543364D01*
X23928627Y-17603702D01*
X23928614Y-17603709D01*
X23796925Y-17691702D01*
X23730247Y-17712580D01*
X23728034Y-17712600D01*
X21120110Y-17712600D01*
X21053071Y-17692915D01*
X21007316Y-17640111D01*
X20997372Y-17570953D01*
X21001034Y-17554005D01*
X21027597Y-17462573D01*
X21027598Y-17462567D01*
X21029258Y-17441478D01*
X21030500Y-17425694D01*
X21030500Y-16994306D01*
X21027598Y-16957431D01*
X21012249Y-16904601D01*
X20988206Y-16821843D01*
X20981744Y-16799602D01*
X20898081Y-16658135D01*
X20898078Y-16658132D01*
X20893298Y-16651969D01*
X20895750Y-16650066D01*
X20869155Y-16601421D01*
X20874104Y-16531726D01*
X20894940Y-16499304D01*
X20893298Y-16498031D01*
X20898075Y-16491870D01*
X20898081Y-16491865D01*
X20981744Y-16350398D01*
X21027598Y-16192569D01*
X21030500Y-16155694D01*
X21030500Y-15893713D01*
X30649500Y-15893713D01*
X30649500Y-16106286D01*
X30675650Y-16271395D01*
X30682754Y-16316243D01*
X30742234Y-16499304D01*
X30748444Y-16518414D01*
X30844951Y-16707820D01*
X30969890Y-16879786D01*
X31120213Y-17030109D01*
X31292179Y-17155048D01*
X31292181Y-17155049D01*
X31292184Y-17155051D01*
X31481588Y-17251557D01*
X31683757Y-17317246D01*
X31893713Y-17350500D01*
X31893714Y-17350500D01*
X32106286Y-17350500D01*
X32106287Y-17350500D01*
X32316243Y-17317246D01*
X32518412Y-17251557D01*
X32707816Y-17155051D01*
X32852954Y-17049603D01*
X32879786Y-17030109D01*
X32879788Y-17030106D01*
X32879792Y-17030104D01*
X33030104Y-16879792D01*
X33030106Y-16879788D01*
X33030109Y-16879786D01*
X33155048Y-16707820D01*
X33155047Y-16707820D01*
X33155051Y-16707816D01*
X33251557Y-16518412D01*
X33317246Y-16316243D01*
X33350500Y-16106287D01*
X33350500Y-15893713D01*
X33317246Y-15683757D01*
X33251557Y-15481588D01*
X33155051Y-15292184D01*
X33155049Y-15292181D01*
X33155048Y-15292179D01*
X33030109Y-15120213D01*
X32879786Y-14969890D01*
X32707820Y-14844951D01*
X32518414Y-14748444D01*
X32518413Y-14748443D01*
X32518412Y-14748443D01*
X32316243Y-14682754D01*
X32316241Y-14682753D01*
X32316240Y-14682753D01*
X32154957Y-14657208D01*
X32106287Y-14649500D01*
X31893713Y-14649500D01*
X31845042Y-14657208D01*
X31683760Y-14682753D01*
X31481585Y-14748444D01*
X31292179Y-14844951D01*
X31120213Y-14969890D01*
X30969890Y-15120213D01*
X30844951Y-15292179D01*
X30748444Y-15481585D01*
X30682753Y-15683760D01*
X30649500Y-15893713D01*
X21030500Y-15893713D01*
X21030500Y-15724306D01*
X21027598Y-15687431D01*
X21026531Y-15683760D01*
X20981745Y-15529606D01*
X20981744Y-15529603D01*
X20981744Y-15529602D01*
X20953347Y-15481585D01*
X20939175Y-15457620D01*
X20937519Y-15451096D01*
X20933113Y-15446011D01*
X20929036Y-15417661D01*
X20921992Y-15389896D01*
X20924126Y-15383513D01*
X20923169Y-15376853D01*
X20935066Y-15350800D01*
X20944152Y-15323634D01*
X20949398Y-15319418D01*
X20952194Y-15313297D01*
X20976291Y-15297810D01*
X20998619Y-15279871D01*
X21006697Y-15278270D01*
X21010972Y-15275523D01*
X21045907Y-15270500D01*
X21193331Y-15270500D01*
X21193347Y-15270501D01*
X21200943Y-15270501D01*
X21359054Y-15270501D01*
X21359057Y-15270501D01*
X21511785Y-15229577D01*
X21578482Y-15191069D01*
X21648716Y-15150520D01*
X21760520Y-15038716D01*
X21760520Y-15038714D01*
X21770724Y-15028511D01*
X21770728Y-15028506D01*
X23062416Y-13736818D01*
X23123739Y-13703333D01*
X23150097Y-13700499D01*
X24950002Y-13700499D01*
X24950008Y-13700499D01*
X25052797Y-13689999D01*
X25219334Y-13634814D01*
X25368656Y-13542712D01*
X25492712Y-13418656D01*
X25584814Y-13269334D01*
X25639999Y-13102797D01*
X25650500Y-13000009D01*
X25650500Y-12999986D01*
X26450001Y-12999986D01*
X26460494Y-13102697D01*
X26515641Y-13269119D01*
X26515643Y-13269124D01*
X26607684Y-13418345D01*
X26731654Y-13542315D01*
X26880875Y-13634356D01*
X26880880Y-13634358D01*
X27047302Y-13689505D01*
X27047309Y-13689506D01*
X27150019Y-13699999D01*
X27949999Y-13699999D01*
X28450000Y-13699999D01*
X29249972Y-13699999D01*
X29249986Y-13699998D01*
X29352697Y-13689505D01*
X29519119Y-13634358D01*
X29519124Y-13634356D01*
X29668345Y-13542315D01*
X29736966Y-13473695D01*
X29798289Y-13440210D01*
X29867981Y-13445194D01*
X29912328Y-13473694D01*
X29981345Y-13542711D01*
X29981347Y-13542712D01*
X29981348Y-13542713D01*
X30130662Y-13634812D01*
X30130664Y-13634813D01*
X30130666Y-13634814D01*
X30297203Y-13689999D01*
X30399992Y-13700500D01*
X30399997Y-13700500D01*
X33400003Y-13700500D01*
X33400008Y-13700500D01*
X33502797Y-13689999D01*
X33669334Y-13634814D01*
X33818655Y-13542711D01*
X33942711Y-13418655D01*
X34034814Y-13269334D01*
X34089999Y-13102797D01*
X34100500Y-13000008D01*
X34100500Y-11899992D01*
X34089999Y-11797203D01*
X34034814Y-11630666D01*
X34021257Y-11608687D01*
X33942713Y-11481348D01*
X33942710Y-11481344D01*
X33818655Y-11357289D01*
X33818651Y-11357286D01*
X33669337Y-11265187D01*
X33669335Y-11265186D01*
X33532021Y-11219685D01*
X33502797Y-11210001D01*
X33502795Y-11210000D01*
X33400015Y-11199500D01*
X33400008Y-11199500D01*
X30399992Y-11199500D01*
X30399984Y-11199500D01*
X30297204Y-11210000D01*
X30297203Y-11210001D01*
X30130664Y-11265186D01*
X30126400Y-11267175D01*
X30057323Y-11277665D01*
X29993539Y-11249143D01*
X29955302Y-11190665D01*
X29949999Y-11154791D01*
X29949999Y-11100028D01*
X29949998Y-11100013D01*
X29939505Y-10997302D01*
X29884358Y-10830880D01*
X29884356Y-10830875D01*
X29792315Y-10681654D01*
X29668345Y-10557684D01*
X29519124Y-10465643D01*
X29519119Y-10465641D01*
X29370349Y-10416344D01*
X29352697Y-10410494D01*
X29352690Y-10410493D01*
X29249986Y-10400000D01*
X28450000Y-10400000D01*
X28450000Y-13699999D01*
X27949999Y-13699999D01*
X27950000Y-13699998D01*
X27950000Y-12300000D01*
X26450001Y-12300000D01*
X26450001Y-12999986D01*
X25650500Y-12999986D01*
X25650499Y-11938886D01*
X25650499Y-11100013D01*
X26450000Y-11100013D01*
X26450000Y-11800000D01*
X27950000Y-11800000D01*
X27950000Y-10400000D01*
X27150028Y-10400000D01*
X27150012Y-10400001D01*
X27047302Y-10410494D01*
X26880880Y-10465641D01*
X26880875Y-10465643D01*
X26731654Y-10557684D01*
X26607684Y-10681654D01*
X26515643Y-10830875D01*
X26515641Y-10830880D01*
X26460494Y-10997302D01*
X26460493Y-10997309D01*
X26450000Y-11100013D01*
X25650499Y-11100013D01*
X25650499Y-11099998D01*
X25650498Y-11099981D01*
X25639999Y-10997203D01*
X25639998Y-10997200D01*
X25600053Y-10876655D01*
X25584814Y-10830666D01*
X25492712Y-10681344D01*
X25368656Y-10557288D01*
X25244770Y-10480875D01*
X25219336Y-10465187D01*
X25219332Y-10465185D01*
X25204441Y-10460251D01*
X25146998Y-10420476D01*
X25138480Y-10399986D01*
X35400001Y-10399986D01*
X35410494Y-10502697D01*
X35465641Y-10669119D01*
X35465643Y-10669124D01*
X35557684Y-10818345D01*
X35681654Y-10942315D01*
X35830875Y-11034356D01*
X35830880Y-11034358D01*
X35997302Y-11089505D01*
X35997309Y-11089506D01*
X36100019Y-11099999D01*
X37399999Y-11099999D01*
X37400000Y-11099998D01*
X37400000Y-10350000D01*
X35400001Y-10350000D01*
X35400001Y-10399986D01*
X25138480Y-10399986D01*
X25120177Y-10355960D01*
X25132494Y-10287184D01*
X25155765Y-10254868D01*
X27068022Y-8342612D01*
X27075963Y-8338276D01*
X27081389Y-8331029D01*
X27106148Y-8321794D01*
X27129341Y-8309130D01*
X27138370Y-8309775D01*
X27146853Y-8306612D01*
X27172673Y-8312228D01*
G37*
%TD.AperFunction*%
%TA.AperFunction,Conductor*%
G36*
X4715942Y-14677485D02*
G01*
X4736584Y-14694119D01*
X5978080Y-15935615D01*
X6011565Y-15996938D01*
X6014399Y-16023296D01*
X6014399Y-16182954D01*
X6014398Y-16182954D01*
X6016976Y-16192573D01*
X6055323Y-16335685D01*
X6059873Y-16343565D01*
X6084088Y-16385507D01*
X6084094Y-16385534D01*
X6100700Y-16447505D01*
X6100700Y-17539800D01*
X6081015Y-17606839D01*
X6028211Y-17652594D01*
X5976700Y-17663800D01*
X5850700Y-17663800D01*
X5850700Y-17789800D01*
X5831015Y-17856839D01*
X5778211Y-17902594D01*
X5726700Y-17913800D01*
X4775701Y-17913800D01*
X4775701Y-18164200D01*
X4773150Y-18172885D01*
X4774439Y-18181847D01*
X4763460Y-18205887D01*
X4756016Y-18231239D01*
X4749175Y-18237166D01*
X4745414Y-18245403D01*
X4723179Y-18259692D01*
X4703212Y-18276994D01*
X4692697Y-18279281D01*
X4686636Y-18283177D01*
X4651701Y-18288200D01*
X4425697Y-18288200D01*
X4358658Y-18268515D01*
X4338016Y-18251881D01*
X4012518Y-17926383D01*
X3979033Y-17865060D01*
X3976199Y-17838702D01*
X3976199Y-16963813D01*
X4775700Y-16963813D01*
X4775700Y-17413800D01*
X5600700Y-17413800D01*
X5600700Y-16263800D01*
X5475727Y-16263800D01*
X5475712Y-16263801D01*
X5373002Y-16274294D01*
X5206580Y-16329441D01*
X5206575Y-16329443D01*
X5057354Y-16421484D01*
X4933384Y-16545454D01*
X4841343Y-16694675D01*
X4841341Y-16694680D01*
X4786194Y-16861102D01*
X4786193Y-16861109D01*
X4775700Y-16963813D01*
X3976199Y-16963813D01*
X3976199Y-16963798D01*
X3976198Y-16963781D01*
X3965699Y-16861003D01*
X3965698Y-16861000D01*
X3910514Y-16694466D01*
X3818412Y-16545144D01*
X3787931Y-16514663D01*
X3754446Y-16453340D01*
X3759430Y-16383648D01*
X3787930Y-16339302D01*
X3855835Y-16271398D01*
X3937569Y-16133193D01*
X3982365Y-15979004D01*
X3985200Y-15942981D01*
X3985199Y-15544620D01*
X3982365Y-15508596D01*
X3937569Y-15354407D01*
X3903281Y-15296429D01*
X3886098Y-15228705D01*
X3903282Y-15170186D01*
X3937104Y-15112996D01*
X3937105Y-15112994D01*
X3977544Y-14973800D01*
X3425109Y-14973800D01*
X3424633Y-14973799D01*
X3419995Y-14973781D01*
X3413881Y-14973300D01*
X3294583Y-14973300D01*
X3294322Y-14973299D01*
X3261053Y-14963391D01*
X3227759Y-14953615D01*
X3227485Y-14953394D01*
X3227359Y-14953357D01*
X3227178Y-14953147D01*
X3207110Y-14936974D01*
X3201012Y-14930875D01*
X3188807Y-14908520D01*
X3181807Y-14900378D01*
X3180926Y-14894084D01*
X3167532Y-14869549D01*
X3164700Y-14843201D01*
X3164700Y-14781800D01*
X3184385Y-14714761D01*
X3237189Y-14669006D01*
X3288700Y-14657800D01*
X4301043Y-14657800D01*
X4648903Y-14657800D01*
X4715942Y-14677485D01*
G37*
%TD.AperFunction*%
%TA.AperFunction,Conductor*%
G36*
X16237968Y-13562335D02*
G01*
X16295307Y-13602261D01*
X16298206Y-13606212D01*
X16299913Y-13608292D01*
X16411407Y-13719786D01*
X16411411Y-13719789D01*
X16542514Y-13807390D01*
X16542527Y-13807397D01*
X16648001Y-13851085D01*
X16688203Y-13867737D01*
X16842848Y-13898498D01*
X16842853Y-13898499D01*
X16842856Y-13898500D01*
X16842858Y-13898500D01*
X17000544Y-13898500D01*
X17000545Y-13898499D01*
X17155197Y-13867737D01*
X17293627Y-13810398D01*
X17300872Y-13807397D01*
X17300872Y-13807396D01*
X17300879Y-13807394D01*
X17357901Y-13769293D01*
X17432575Y-13719398D01*
X17450621Y-13713747D01*
X17466531Y-13703523D01*
X17497492Y-13699071D01*
X17499253Y-13698520D01*
X17501466Y-13698500D01*
X17745731Y-13698500D01*
X17745747Y-13698501D01*
X17753343Y-13698501D01*
X17911454Y-13698501D01*
X17911457Y-13698501D01*
X17965145Y-13684115D01*
X18034993Y-13685778D01*
X18092856Y-13724940D01*
X18116313Y-13769293D01*
X18128255Y-13810396D01*
X18211917Y-13951862D01*
X18216702Y-13958031D01*
X18214256Y-13959927D01*
X18240857Y-14008642D01*
X18235873Y-14078334D01*
X18215069Y-14110703D01*
X18216702Y-14111969D01*
X18211917Y-14118137D01*
X18128255Y-14259603D01*
X18128254Y-14259606D01*
X18082402Y-14417426D01*
X18082401Y-14417432D01*
X18079500Y-14454298D01*
X18079500Y-14885701D01*
X18082401Y-14922567D01*
X18082402Y-14922573D01*
X18128254Y-15080393D01*
X18128255Y-15080396D01*
X18128256Y-15080398D01*
X18151802Y-15120213D01*
X18211917Y-15221862D01*
X18216702Y-15228031D01*
X18214256Y-15229927D01*
X18240857Y-15278642D01*
X18235873Y-15348334D01*
X18215069Y-15380703D01*
X18216702Y-15381969D01*
X18211917Y-15388137D01*
X18128255Y-15529603D01*
X18128254Y-15529606D01*
X18082402Y-15687426D01*
X18082401Y-15687432D01*
X18079500Y-15724298D01*
X18079500Y-16155701D01*
X18082401Y-16192567D01*
X18082402Y-16192573D01*
X18128254Y-16350393D01*
X18128255Y-16350396D01*
X18211917Y-16491862D01*
X18216702Y-16498031D01*
X18214256Y-16499927D01*
X18240857Y-16548642D01*
X18235873Y-16618334D01*
X18215069Y-16650703D01*
X18216702Y-16651969D01*
X18211917Y-16658137D01*
X18128255Y-16799603D01*
X18128254Y-16799606D01*
X18082402Y-16957426D01*
X18082401Y-16957432D01*
X18079500Y-16994298D01*
X18079500Y-17093400D01*
X18059815Y-17160439D01*
X18007011Y-17206194D01*
X17955500Y-17217400D01*
X14729000Y-17217400D01*
X14720314Y-17214849D01*
X14711353Y-17216138D01*
X14687312Y-17205159D01*
X14661961Y-17197715D01*
X14656033Y-17190874D01*
X14647797Y-17187113D01*
X14633507Y-17164878D01*
X14616206Y-17144911D01*
X14613918Y-17134396D01*
X14610023Y-17128335D01*
X14605000Y-17093400D01*
X14605000Y-17084000D01*
X14624685Y-17016961D01*
X14677489Y-16971206D01*
X14729000Y-16960000D01*
X16077295Y-16960000D01*
X16077295Y-16959998D01*
X16077100Y-16957513D01*
X16031281Y-16799801D01*
X15947685Y-16658447D01*
X15942900Y-16652278D01*
X15945366Y-16650364D01*
X15918802Y-16601776D01*
X15923749Y-16532082D01*
X15944856Y-16499232D01*
X15943301Y-16498026D01*
X15948077Y-16491868D01*
X15948081Y-16491865D01*
X16031744Y-16350398D01*
X16077598Y-16192569D01*
X16080500Y-16155694D01*
X16080500Y-15724306D01*
X16077598Y-15687431D01*
X16076531Y-15683760D01*
X16031745Y-15529606D01*
X16031744Y-15529603D01*
X16031744Y-15529602D01*
X15948081Y-15388135D01*
X15948078Y-15388132D01*
X15943298Y-15381969D01*
X15945750Y-15380066D01*
X15919155Y-15331421D01*
X15924104Y-15261726D01*
X15944940Y-15229304D01*
X15943298Y-15228031D01*
X15948075Y-15221870D01*
X15948081Y-15221865D01*
X16031744Y-15080398D01*
X16077598Y-14922569D01*
X16080500Y-14885694D01*
X16080500Y-14454306D01*
X16077598Y-14417431D01*
X16071726Y-14397221D01*
X16031745Y-14259606D01*
X16031744Y-14259603D01*
X16031744Y-14259602D01*
X15948081Y-14118135D01*
X15948078Y-14118132D01*
X15943298Y-14111969D01*
X15945750Y-14110066D01*
X15919155Y-14061421D01*
X15924104Y-13991726D01*
X15944940Y-13959304D01*
X15943298Y-13958031D01*
X15948075Y-13951870D01*
X15948081Y-13951865D01*
X16031744Y-13810398D01*
X16063818Y-13699999D01*
X16079366Y-13646485D01*
X16081935Y-13647231D01*
X16108010Y-13595317D01*
X16168147Y-13559746D01*
X16237968Y-13562335D01*
G37*
%TD.AperFunction*%
%TA.AperFunction,Conductor*%
G36*
X14187242Y-6303285D02*
G01*
X14232997Y-6356089D01*
X14242941Y-6425247D01*
X14213916Y-6488803D01*
X14207885Y-6495279D01*
X13262567Y-7440597D01*
X12366386Y-8336778D01*
X12254581Y-8448582D01*
X12254579Y-8448584D01*
X12242398Y-8469684D01*
X12222239Y-8504601D01*
X12211912Y-8522488D01*
X12178405Y-8580524D01*
X12175523Y-8585515D01*
X12134599Y-8738243D01*
X12134599Y-8738245D01*
X12134599Y-8906346D01*
X12134600Y-8906359D01*
X12134600Y-9925500D01*
X12114915Y-9992539D01*
X12062111Y-10038294D01*
X12010600Y-10049500D01*
X11685099Y-10049500D01*
X11685080Y-10049501D01*
X11582303Y-10060000D01*
X11582300Y-10060001D01*
X11415768Y-10115185D01*
X11415763Y-10115187D01*
X11266442Y-10207289D01*
X11142389Y-10331342D01*
X11050287Y-10480663D01*
X11050285Y-10480668D01*
X11039843Y-10512181D01*
X10995101Y-10647203D01*
X10995101Y-10647204D01*
X10995100Y-10647204D01*
X10984600Y-10749983D01*
X10984600Y-12150001D01*
X10984601Y-12150018D01*
X10995100Y-12252796D01*
X10995101Y-12252799D01*
X11050286Y-12419334D01*
X11052275Y-12423599D01*
X11062765Y-12492676D01*
X11034243Y-12556460D01*
X10975765Y-12594697D01*
X10939891Y-12600000D01*
X10380028Y-12600000D01*
X10380012Y-12600001D01*
X10277302Y-12610494D01*
X10110880Y-12665641D01*
X10110875Y-12665643D01*
X9961654Y-12757684D01*
X9837683Y-12881655D01*
X9837680Y-12881659D01*
X9781340Y-12973001D01*
X9729392Y-13019726D01*
X9660430Y-13030947D01*
X9596348Y-13003104D01*
X9588121Y-12995585D01*
X8364449Y-11771913D01*
X7104715Y-10512180D01*
X7071231Y-10450858D01*
X7076215Y-10381166D01*
X7118087Y-10325233D01*
X7183551Y-10300816D01*
X7192397Y-10300500D01*
X8100003Y-10300500D01*
X8100008Y-10300500D01*
X8202797Y-10289999D01*
X8369334Y-10234814D01*
X8518655Y-10142711D01*
X8642711Y-10018655D01*
X8734814Y-9869334D01*
X8789999Y-9702797D01*
X8800500Y-9600008D01*
X8800500Y-6599992D01*
X8789999Y-6497203D01*
X8773232Y-6446603D01*
X8770830Y-6376775D01*
X8806562Y-6316733D01*
X8869083Y-6285541D01*
X8890938Y-6283600D01*
X14120203Y-6283600D01*
X14187242Y-6303285D01*
G37*
%TD.AperFunction*%
%TA.AperFunction,Conductor*%
G36*
X14918834Y-7585315D02*
G01*
X14974767Y-7627187D01*
X14999184Y-7692651D01*
X14999500Y-7701497D01*
X14999500Y-9600015D01*
X15010000Y-9702795D01*
X15010001Y-9702796D01*
X15065186Y-9869335D01*
X15065187Y-9869337D01*
X15157286Y-10018651D01*
X15157289Y-10018655D01*
X15218855Y-10080221D01*
X15252340Y-10141544D01*
X15247356Y-10211236D01*
X15218856Y-10255583D01*
X15142782Y-10331657D01*
X15050743Y-10480875D01*
X15050741Y-10480880D01*
X14995594Y-10647302D01*
X14995593Y-10647309D01*
X14985100Y-10750013D01*
X14985100Y-11200000D01*
X16611100Y-11200000D01*
X16678139Y-11219685D01*
X16723894Y-11272489D01*
X16735100Y-11324000D01*
X16735100Y-11576000D01*
X16715415Y-11643039D01*
X16662611Y-11688794D01*
X16611100Y-11700000D01*
X14985101Y-11700000D01*
X14985101Y-12149986D01*
X14995594Y-12252697D01*
X15050741Y-12419118D01*
X15052596Y-12423096D01*
X15052673Y-12423603D01*
X15053007Y-12423989D01*
X15057904Y-12458048D01*
X15063087Y-12492174D01*
X15062878Y-12492640D01*
X15062951Y-12493147D01*
X15048638Y-12524486D01*
X15034567Y-12555957D01*
X15034138Y-12556236D01*
X15033926Y-12556703D01*
X15004898Y-12575357D01*
X14976090Y-12594196D01*
X14975434Y-12594292D01*
X14975148Y-12594477D01*
X14940213Y-12599500D01*
X14785197Y-12599500D01*
X14718158Y-12579815D01*
X14697516Y-12563181D01*
X14507277Y-12372942D01*
X14473792Y-12311619D01*
X14473707Y-12259295D01*
X14475098Y-12252799D01*
X14475099Y-12252797D01*
X14485600Y-12150009D01*
X14485599Y-10749992D01*
X14482472Y-10719385D01*
X14475099Y-10647203D01*
X14475098Y-10647200D01*
X14419914Y-10480666D01*
X14327812Y-10331344D01*
X14203756Y-10207288D01*
X14054434Y-10115186D01*
X13887897Y-10060001D01*
X13887895Y-10060000D01*
X13785116Y-10049500D01*
X13785109Y-10049500D01*
X13459600Y-10049500D01*
X13392561Y-10029815D01*
X13346806Y-9977011D01*
X13335600Y-9925500D01*
X13335600Y-9117397D01*
X13355285Y-9050358D01*
X13371919Y-9029716D01*
X14787819Y-7613816D01*
X14849142Y-7580331D01*
X14918834Y-7585315D01*
G37*
%TD.AperFunction*%
%TA.AperFunction,Conductor*%
G36*
X8892368Y-302669D02*
G01*
X8899967Y-301409D01*
X8925425Y-312376D01*
X8952018Y-320185D01*
X8957061Y-326005D01*
X8964136Y-329053D01*
X8979625Y-352045D01*
X8997773Y-372989D01*
X8998868Y-380611D01*
X9003173Y-387000D01*
X9003772Y-414713D01*
X9007717Y-442147D01*
X9004554Y-450871D01*
X9004684Y-456853D01*
X8990720Y-489267D01*
X8990583Y-489489D01*
X8965186Y-530666D01*
X8964977Y-531294D01*
X8960952Y-537867D01*
X8940061Y-556775D01*
X8921444Y-577929D01*
X8914502Y-579909D01*
X8909150Y-584754D01*
X8855211Y-597100D01*
X8810355Y-597100D01*
X8655710Y-627861D01*
X8655698Y-627864D01*
X8510027Y-688202D01*
X8510014Y-688209D01*
X8378911Y-775810D01*
X8378907Y-775813D01*
X8267413Y-887307D01*
X8267410Y-887311D01*
X8179809Y-1018414D01*
X8179802Y-1018427D01*
X8119464Y-1164098D01*
X8119461Y-1164110D01*
X8088700Y-1318753D01*
X8088700Y-1476446D01*
X8119461Y-1631089D01*
X8119464Y-1631101D01*
X8179802Y-1776772D01*
X8179809Y-1776785D01*
X8267410Y-1907888D01*
X8267413Y-1907892D01*
X8378907Y-2019386D01*
X8378911Y-2019389D01*
X8510014Y-2106990D01*
X8510027Y-2106997D01*
X8630653Y-2156961D01*
X8655703Y-2167337D01*
X8799691Y-2195978D01*
X8861602Y-2228362D01*
X8896176Y-2289078D01*
X8899500Y-2317595D01*
X8899501Y-3678100D01*
X8879816Y-3745139D01*
X8827013Y-3790894D01*
X8775501Y-3802100D01*
X8362323Y-3802100D01*
X8295284Y-3782415D01*
X8259221Y-3746991D01*
X8239389Y-3717311D01*
X8239386Y-3717307D01*
X8127892Y-3605813D01*
X8127888Y-3605810D01*
X7996785Y-3518209D01*
X7996772Y-3518202D01*
X7851101Y-3457864D01*
X7851089Y-3457861D01*
X7696445Y-3427100D01*
X7696442Y-3427100D01*
X7538758Y-3427100D01*
X7538755Y-3427100D01*
X7384110Y-3457861D01*
X7384098Y-3457864D01*
X7238427Y-3518202D01*
X7238414Y-3518209D01*
X7107311Y-3605810D01*
X7107307Y-3605813D01*
X6995813Y-3717307D01*
X6995810Y-3717311D01*
X6908209Y-3848414D01*
X6908202Y-3848427D01*
X6847864Y-3994098D01*
X6847861Y-3994110D01*
X6817100Y-4148753D01*
X6817100Y-4306446D01*
X6847861Y-4461089D01*
X6847864Y-4461101D01*
X6908202Y-4606772D01*
X6908209Y-4606785D01*
X6995810Y-4737888D01*
X6995813Y-4737892D01*
X7107307Y-4849386D01*
X7116454Y-4855498D01*
X7161258Y-4909111D01*
X7169965Y-4978436D01*
X7139810Y-5041463D01*
X7080367Y-5078182D01*
X7047562Y-5082600D01*
X6040770Y-5082600D01*
X6040754Y-5082599D01*
X6033158Y-5082599D01*
X5875043Y-5082599D01*
X5722315Y-5123523D01*
X5589881Y-5199984D01*
X5585381Y-5202582D01*
X4524782Y-6263181D01*
X4463459Y-6296666D01*
X4437102Y-6299500D01*
X4318031Y-6299500D01*
X4318007Y-6299501D01*
X4281994Y-6302335D01*
X4127811Y-6347129D01*
X4127806Y-6347131D01*
X3989604Y-6428863D01*
X3989596Y-6428869D01*
X3870548Y-6547918D01*
X3869006Y-6546376D01*
X3821397Y-6580755D01*
X3751630Y-6584540D01*
X3692387Y-6551526D01*
X3598545Y-6457684D01*
X3449324Y-6365643D01*
X3449319Y-6365641D01*
X3282897Y-6310494D01*
X3282890Y-6310493D01*
X3180186Y-6300000D01*
X2280200Y-6300000D01*
X2280200Y-8449999D01*
X3058602Y-8449999D01*
X3125641Y-8469684D01*
X3171396Y-8522488D01*
X3181340Y-8591646D01*
X3152315Y-8655202D01*
X3146283Y-8661680D01*
X2594782Y-9213181D01*
X2533459Y-9246666D01*
X2507101Y-9249500D01*
X880198Y-9249500D01*
X880181Y-9249501D01*
X777403Y-9260000D01*
X777400Y-9260001D01*
X610868Y-9315185D01*
X610859Y-9315189D01*
X489596Y-9389985D01*
X422204Y-9408425D01*
X355540Y-9387502D01*
X310771Y-9333860D01*
X300500Y-9284446D01*
X300500Y-8414966D01*
X320185Y-8347927D01*
X372989Y-8302172D01*
X442147Y-8292228D01*
X489597Y-8309427D01*
X611075Y-8384356D01*
X611080Y-8384358D01*
X777502Y-8439505D01*
X777509Y-8439506D01*
X880219Y-8449999D01*
X1780199Y-8449999D01*
X1780200Y-8449998D01*
X1780200Y-6300000D01*
X880228Y-6300000D01*
X880212Y-6300001D01*
X777502Y-6310494D01*
X611080Y-6365641D01*
X611071Y-6365645D01*
X489596Y-6440572D01*
X422204Y-6459012D01*
X355540Y-6438089D01*
X310771Y-6384447D01*
X300500Y-6335033D01*
X300500Y-3893713D01*
X2649500Y-3893713D01*
X2649500Y-4106286D01*
X2681201Y-4306442D01*
X2682754Y-4316243D01*
X2745713Y-4510011D01*
X2748444Y-4518414D01*
X2844951Y-4707820D01*
X2969890Y-4879786D01*
X3120213Y-5030109D01*
X3292179Y-5155048D01*
X3292181Y-5155049D01*
X3292184Y-5155051D01*
X3481588Y-5251557D01*
X3683757Y-5317246D01*
X3893713Y-5350500D01*
X3893714Y-5350500D01*
X4106286Y-5350500D01*
X4106287Y-5350500D01*
X4316243Y-5317246D01*
X4518412Y-5251557D01*
X4707816Y-5155051D01*
X4729789Y-5139086D01*
X4879786Y-5030109D01*
X4879788Y-5030106D01*
X4879792Y-5030104D01*
X5030104Y-4879792D01*
X5030106Y-4879788D01*
X5030109Y-4879786D01*
X5155048Y-4707820D01*
X5155047Y-4707820D01*
X5155051Y-4707816D01*
X5251557Y-4518412D01*
X5317246Y-4316243D01*
X5350500Y-4106287D01*
X5350500Y-3893713D01*
X5317246Y-3683757D01*
X5251557Y-3481588D01*
X5155051Y-3292184D01*
X5155049Y-3292181D01*
X5155048Y-3292179D01*
X5030109Y-3120213D01*
X4879786Y-2969890D01*
X4707820Y-2844951D01*
X4518414Y-2748444D01*
X4518413Y-2748443D01*
X4518412Y-2748443D01*
X4316243Y-2682754D01*
X4316241Y-2682753D01*
X4316240Y-2682753D01*
X4154957Y-2657208D01*
X4106287Y-2649500D01*
X3893713Y-2649500D01*
X3845042Y-2657208D01*
X3683760Y-2682753D01*
X3481585Y-2748444D01*
X3292179Y-2844951D01*
X3120213Y-2969890D01*
X2969890Y-3120213D01*
X2844951Y-3292179D01*
X2748444Y-3481585D01*
X2682753Y-3683760D01*
X2649500Y-3893713D01*
X300500Y-3893713D01*
X300500Y-424500D01*
X320185Y-357461D01*
X372989Y-311706D01*
X424500Y-300500D01*
X8884979Y-300500D01*
X8892368Y-302669D01*
G37*
%TD.AperFunction*%
%TA.AperFunction,Conductor*%
G36*
X25066297Y-5423959D02*
G01*
X25100973Y-5460620D01*
X25192829Y-5609540D01*
X25192832Y-5609544D01*
X25312756Y-5729468D01*
X25356397Y-5756386D01*
X25403121Y-5808332D01*
X25415300Y-5861924D01*
X25415300Y-6179130D01*
X25415299Y-6179148D01*
X25415299Y-6344854D01*
X25415298Y-6344854D01*
X25456223Y-6497586D01*
X25456224Y-6497587D01*
X25482098Y-6542402D01*
X25515350Y-6599997D01*
X25535281Y-6634517D01*
X25654149Y-6753385D01*
X25654155Y-6753390D01*
X26218783Y-7318018D01*
X26252268Y-7379341D01*
X26247284Y-7449033D01*
X26218783Y-7493380D01*
X24655911Y-9056252D01*
X24641660Y-9064033D01*
X24630482Y-9075812D01*
X24611626Y-9080433D01*
X24594588Y-9089737D01*
X24578391Y-9088578D01*
X24562620Y-9092444D01*
X24544260Y-9086137D01*
X24524896Y-9084753D01*
X24511214Y-9074787D01*
X24496540Y-9069747D01*
X24479804Y-9051908D01*
X24470939Y-9045451D01*
X24466477Y-9039805D01*
X24455468Y-9021956D01*
X24440715Y-9007203D01*
X24436229Y-9001526D01*
X24425764Y-8975563D01*
X24412354Y-8951004D01*
X24412883Y-8943604D01*
X24410109Y-8936722D01*
X24415341Y-8909224D01*
X24417338Y-8881312D01*
X24422048Y-8873983D01*
X24423171Y-8868084D01*
X24431440Y-8859370D01*
X24445845Y-8836959D01*
X24455073Y-8827731D01*
X24544042Y-8683492D01*
X24544047Y-8683481D01*
X24597355Y-8522606D01*
X24607499Y-8423322D01*
X24607500Y-8423309D01*
X24607500Y-8400000D01*
X22657501Y-8400000D01*
X22657501Y-8423325D01*
X22662392Y-8471199D01*
X22649622Y-8539892D01*
X22601741Y-8590776D01*
X22539034Y-8607800D01*
X19642508Y-8607800D01*
X19641156Y-8607403D01*
X19639797Y-8607770D01*
X19607732Y-8597588D01*
X19575469Y-8588115D01*
X19574112Y-8586913D01*
X19573204Y-8586625D01*
X19569880Y-8583165D01*
X19547042Y-8562934D01*
X19541514Y-8556265D01*
X19492712Y-8477144D01*
X19394602Y-8379034D01*
X19390910Y-8374580D01*
X19379291Y-8347592D01*
X19365210Y-8321804D01*
X19365634Y-8315869D01*
X19363282Y-8310405D01*
X19368097Y-8281423D01*
X19370194Y-8252112D01*
X19373935Y-8246289D01*
X19374735Y-8241481D01*
X19382628Y-8232764D01*
X19398695Y-8207764D01*
X19492317Y-8114142D01*
X19584356Y-7964924D01*
X19584358Y-7964919D01*
X19613599Y-7876677D01*
X22657500Y-7876677D01*
X22657500Y-7900000D01*
X23382500Y-7900000D01*
X23882500Y-7900000D01*
X24607499Y-7900000D01*
X24607499Y-7876692D01*
X24607498Y-7876677D01*
X24597355Y-7777392D01*
X24544047Y-7616518D01*
X24544042Y-7616507D01*
X24455075Y-7472271D01*
X24455072Y-7472267D01*
X24335232Y-7352427D01*
X24335228Y-7352424D01*
X24190992Y-7263457D01*
X24190981Y-7263452D01*
X24030106Y-7210144D01*
X23930822Y-7200000D01*
X23882500Y-7200000D01*
X23882500Y-7900000D01*
X23382500Y-7900000D01*
X23382500Y-7200000D01*
X23382499Y-7199999D01*
X23334193Y-7200000D01*
X23334175Y-7200001D01*
X23234892Y-7210144D01*
X23074018Y-7263452D01*
X23074007Y-7263457D01*
X22929771Y-7352424D01*
X22929767Y-7352427D01*
X22809927Y-7472267D01*
X22809924Y-7472271D01*
X22720957Y-7616507D01*
X22720952Y-7616518D01*
X22667644Y-7777393D01*
X22657500Y-7876677D01*
X19613599Y-7876677D01*
X19627567Y-7834524D01*
X19639505Y-7798497D01*
X19639506Y-7798490D01*
X19649999Y-7695786D01*
X19650000Y-7695773D01*
X19650000Y-7633300D01*
X18574000Y-7633300D01*
X18506961Y-7613615D01*
X18461206Y-7560811D01*
X18450000Y-7509300D01*
X18450000Y-7257300D01*
X18469685Y-7190261D01*
X18522489Y-7144506D01*
X18574000Y-7133300D01*
X19649999Y-7133300D01*
X19649999Y-7070828D01*
X19649998Y-7070813D01*
X19639505Y-6968102D01*
X19601863Y-6854504D01*
X19599461Y-6784676D01*
X19635193Y-6724634D01*
X19697713Y-6693441D01*
X19719569Y-6691500D01*
X20872161Y-6691500D01*
X20939200Y-6711185D01*
X20984955Y-6763989D01*
X20986722Y-6768048D01*
X21046502Y-6912372D01*
X21046509Y-6912385D01*
X21134110Y-7043488D01*
X21134113Y-7043492D01*
X21245607Y-7154986D01*
X21245611Y-7154989D01*
X21376714Y-7242590D01*
X21376727Y-7242597D01*
X21522398Y-7302935D01*
X21522403Y-7302937D01*
X21677053Y-7333699D01*
X21677056Y-7333700D01*
X21677058Y-7333700D01*
X21834744Y-7333700D01*
X21834745Y-7333699D01*
X21989397Y-7302937D01*
X22135079Y-7242594D01*
X22266189Y-7154989D01*
X22377689Y-7043489D01*
X22465294Y-6912379D01*
X22525637Y-6766697D01*
X22556400Y-6612042D01*
X22556400Y-6454358D01*
X22551911Y-6431790D01*
X22558139Y-6362199D01*
X22601003Y-6307022D01*
X22666893Y-6283778D01*
X22673529Y-6283600D01*
X23410231Y-6283600D01*
X23410247Y-6283601D01*
X23417843Y-6283601D01*
X23575954Y-6283601D01*
X23575957Y-6283601D01*
X23728685Y-6242677D01*
X23778804Y-6213739D01*
X23865616Y-6163620D01*
X23977420Y-6051816D01*
X23977420Y-6051814D01*
X23987628Y-6041607D01*
X23987629Y-6041604D01*
X24513217Y-5516018D01*
X24574540Y-5482533D01*
X24600898Y-5479699D01*
X24719968Y-5479699D01*
X24719980Y-5479699D01*
X24756004Y-5476865D01*
X24910193Y-5432069D01*
X24932316Y-5418985D01*
X25000033Y-5401802D01*
X25066297Y-5423959D01*
G37*
%TD.AperFunction*%
%TA.AperFunction,Conductor*%
G36*
X20499241Y-320185D02*
G01*
X20544996Y-372989D01*
X20554940Y-442147D01*
X20525915Y-505703D01*
X20519883Y-512181D01*
X19411291Y-1620771D01*
X19349968Y-1654256D01*
X19311008Y-1656448D01*
X19209711Y-1646100D01*
X18459698Y-1646100D01*
X18459680Y-1646101D01*
X18356903Y-1656600D01*
X18356900Y-1656601D01*
X18190368Y-1711785D01*
X18190363Y-1711787D01*
X18041042Y-1803889D01*
X17916989Y-1927942D01*
X17824887Y-2077263D01*
X17824885Y-2077268D01*
X17815036Y-2106990D01*
X17769701Y-2243803D01*
X17769701Y-2243804D01*
X17769700Y-2243804D01*
X17759200Y-2346583D01*
X17759200Y-3746601D01*
X17759201Y-3746618D01*
X17769700Y-3849396D01*
X17769701Y-3849399D01*
X17816674Y-3991151D01*
X17824886Y-4015934D01*
X17916988Y-4165256D01*
X18041044Y-4289312D01*
X18190366Y-4381414D01*
X18356903Y-4436599D01*
X18459691Y-4447100D01*
X19209708Y-4447099D01*
X19311012Y-4436750D01*
X19379701Y-4449519D01*
X19411292Y-4472427D01*
X19792644Y-4853779D01*
X19809787Y-4870924D01*
X19828358Y-4904939D01*
X19843267Y-4932242D01*
X19843266Y-4932244D01*
X19843269Y-4932249D01*
X19840994Y-4964028D01*
X19838283Y-5001934D01*
X19838280Y-5001937D01*
X19838280Y-5001940D01*
X19830694Y-5012072D01*
X19796411Y-5057867D01*
X19796408Y-5057868D01*
X19796406Y-5057871D01*
X19759092Y-5071786D01*
X19730947Y-5082284D01*
X19730942Y-5082284D01*
X19730940Y-5082285D01*
X19730937Y-5082284D01*
X19722101Y-5082600D01*
X10886598Y-5082600D01*
X10819559Y-5062915D01*
X10773804Y-5010111D01*
X10763860Y-4940953D01*
X10792885Y-4877397D01*
X10798917Y-4870919D01*
X10820450Y-4849386D01*
X10898520Y-4771316D01*
X10898520Y-4771314D01*
X10908724Y-4761111D01*
X10908728Y-4761106D01*
X11140330Y-4529503D01*
X11201651Y-4496020D01*
X11271343Y-4501004D01*
X11293105Y-4511647D01*
X11304074Y-4518412D01*
X11330666Y-4534814D01*
X11497203Y-4589999D01*
X11599991Y-4600500D01*
X12200008Y-4600499D01*
X12200016Y-4600498D01*
X12200019Y-4600498D01*
X12256302Y-4594748D01*
X12302797Y-4589999D01*
X12469334Y-4534814D01*
X12618656Y-4442712D01*
X12742712Y-4318656D01*
X12794755Y-4234279D01*
X12846701Y-4187556D01*
X12915664Y-4176333D01*
X12979746Y-4204176D01*
X13005831Y-4234280D01*
X13057680Y-4318340D01*
X13057683Y-4318344D01*
X13181654Y-4442315D01*
X13330875Y-4534356D01*
X13330880Y-4534358D01*
X13497302Y-4589505D01*
X13497309Y-4589506D01*
X13600019Y-4599999D01*
X14150000Y-4599999D01*
X14199972Y-4599999D01*
X14199986Y-4599998D01*
X14302697Y-4589505D01*
X14469119Y-4534358D01*
X14469124Y-4534356D01*
X14618345Y-4442315D01*
X14742315Y-4318345D01*
X14834356Y-4169124D01*
X14834358Y-4169119D01*
X14889505Y-4002697D01*
X14889506Y-4002690D01*
X14899999Y-3899986D01*
X14900000Y-3899973D01*
X14900000Y-2600000D01*
X14150000Y-2600000D01*
X14150000Y-4599999D01*
X13600019Y-4599999D01*
X13649999Y-4599998D01*
X13650000Y-4599998D01*
X13650000Y-2474000D01*
X13669685Y-2406961D01*
X13722489Y-2361206D01*
X13774000Y-2350000D01*
X13900000Y-2350000D01*
X13900000Y-2224000D01*
X13919685Y-2156961D01*
X13972489Y-2111206D01*
X14024000Y-2100000D01*
X14899999Y-2100000D01*
X14899999Y-800028D01*
X14899998Y-800013D01*
X14889505Y-697302D01*
X14834358Y-530880D01*
X14834353Y-530869D01*
X14808896Y-489597D01*
X14790455Y-422205D01*
X14811377Y-355541D01*
X14865019Y-310771D01*
X14914434Y-300500D01*
X20432202Y-300500D01*
X20499241Y-320185D01*
G37*
%TD.AperFunction*%
%TA.AperFunction,Conductor*%
G36*
X25226644Y-2400044D02*
G01*
X25256631Y-2406568D01*
X25261646Y-2410322D01*
X25264243Y-2411085D01*
X25284885Y-2427719D01*
X25289399Y-2432233D01*
X25322884Y-2493556D01*
X25317900Y-2563248D01*
X25289400Y-2607595D01*
X25193224Y-2703771D01*
X25104257Y-2848007D01*
X25104250Y-2848022D01*
X25087906Y-2897345D01*
X25048133Y-2954789D01*
X24983616Y-2981611D01*
X24917222Y-2969721D01*
X24917149Y-2969891D01*
X24916428Y-2969579D01*
X24914841Y-2969295D01*
X24911224Y-2967327D01*
X24909988Y-2966792D01*
X24755930Y-2922034D01*
X24720800Y-2919268D01*
X24720800Y-3565200D01*
X24701115Y-3632239D01*
X24648311Y-3677994D01*
X24596800Y-3689200D01*
X24470800Y-3689200D01*
X24470800Y-3814700D01*
X24468314Y-3823166D01*
X24469602Y-3831897D01*
X24458620Y-3856177D01*
X24451115Y-3881739D01*
X24444447Y-3887516D01*
X24440810Y-3895559D01*
X24418443Y-3910048D01*
X24398311Y-3927494D01*
X24388034Y-3929749D01*
X24382171Y-3933548D01*
X24348137Y-3938505D01*
X24347255Y-3938699D01*
X24346777Y-3938700D01*
X24221620Y-3938701D01*
X24215506Y-3939181D01*
X24210862Y-3939199D01*
X24210810Y-3939184D01*
X24210407Y-3939200D01*
X23657956Y-3939200D01*
X23698394Y-4078393D01*
X23732219Y-4135588D01*
X23749401Y-4203312D01*
X23732219Y-4261828D01*
X23697930Y-4319807D01*
X23697929Y-4319811D01*
X23653135Y-4473991D01*
X23653134Y-4473997D01*
X23650300Y-4510011D01*
X23650300Y-4629101D01*
X23630615Y-4696140D01*
X23613985Y-4716777D01*
X23284482Y-5046282D01*
X23223161Y-5079766D01*
X23196803Y-5082600D01*
X21458178Y-5082600D01*
X21391139Y-5062915D01*
X21345384Y-5010111D01*
X21335440Y-4940953D01*
X21355076Y-4889709D01*
X21369190Y-4868585D01*
X21369190Y-4868584D01*
X21369194Y-4868579D01*
X21374158Y-4856596D01*
X21405327Y-4781345D01*
X21429537Y-4722897D01*
X21455972Y-4589999D01*
X21460301Y-4568238D01*
X21460897Y-4562182D01*
X21462718Y-4562361D01*
X21479985Y-4503560D01*
X21500900Y-4485437D01*
X21498381Y-4482918D01*
X21534700Y-4446599D01*
X22034700Y-4446599D01*
X22159672Y-4446599D01*
X22159686Y-4446598D01*
X22262397Y-4436105D01*
X22428819Y-4380958D01*
X22428824Y-4380956D01*
X22578045Y-4288915D01*
X22702015Y-4164945D01*
X22794056Y-4015724D01*
X22794058Y-4015719D01*
X22849205Y-3849297D01*
X22849206Y-3849290D01*
X22859699Y-3746586D01*
X22859700Y-3746573D01*
X22859700Y-3439200D01*
X23657956Y-3439200D01*
X24220800Y-3439200D01*
X24220800Y-2919268D01*
X24220799Y-2919268D01*
X24185669Y-2922034D01*
X24185668Y-2922034D01*
X24031611Y-2966792D01*
X24031608Y-2966793D01*
X23893514Y-3048461D01*
X23893505Y-3048468D01*
X23780068Y-3161905D01*
X23780061Y-3161914D01*
X23698395Y-3300005D01*
X23657956Y-3439200D01*
X22859700Y-3439200D01*
X22859700Y-3296600D01*
X22034700Y-3296600D01*
X22034700Y-4446599D01*
X21534700Y-4446599D01*
X21534700Y-3296600D01*
X20709701Y-3296600D01*
X20709701Y-3564900D01*
X20690016Y-3631939D01*
X20637212Y-3677694D01*
X20585701Y-3688900D01*
X20580953Y-3688900D01*
X20433501Y-3718230D01*
X20363909Y-3712003D01*
X20321629Y-3684294D01*
X19946518Y-3309183D01*
X19913033Y-3247860D01*
X19910199Y-3221502D01*
X19910199Y-2884640D01*
X19929884Y-2817601D01*
X19982688Y-2771846D01*
X20051846Y-2761902D01*
X20115402Y-2790927D01*
X20121880Y-2796959D01*
X20194807Y-2869886D01*
X20194811Y-2869889D01*
X20325914Y-2957490D01*
X20325927Y-2957497D01*
X20471598Y-3017835D01*
X20471603Y-3017837D01*
X20625559Y-3048461D01*
X20626253Y-3048599D01*
X20626256Y-3048600D01*
X20626258Y-3048600D01*
X20783944Y-3048600D01*
X20783945Y-3048599D01*
X20938597Y-3017837D01*
X21061829Y-2966793D01*
X21084272Y-2957497D01*
X21084272Y-2957496D01*
X21084279Y-2957494D01*
X21215389Y-2869889D01*
X21252358Y-2832920D01*
X21313680Y-2799434D01*
X21340040Y-2796600D01*
X22859699Y-2796600D01*
X22859699Y-2515400D01*
X22879384Y-2448361D01*
X22932188Y-2402606D01*
X22983699Y-2391400D01*
X25197204Y-2391400D01*
X25226644Y-2400044D01*
G37*
%TD.AperFunction*%
%TD*%
M02*
