%TF.GenerationSoftware,KiCad,Pcbnew,10.0.3*%
%TF.CreationDate,2026-06-22T06:45:46-07:00*%
%TF.ProjectId,brickdup_psu,62726963-6b64-4757-905f-7073752e6b69,rev?*%
%TF.SameCoordinates,Original*%
%TF.FileFunction,Legend,Top*%
%TF.FilePolarity,Positive*%
%FSLAX46Y46*%
G04 Gerber Fmt 4.6, Leading zero omitted, Abs format (unit mm)*
G04 Created by KiCad (PCBNEW 10.0.3) date 2026-06-22 06:45:46*
%MOMM*%
%LPD*%
G01*
G04 APERTURE LIST*
%ADD10C,0.125000*%
%ADD11C,0.120000*%
G04 APERTURE END LIST*
D10*
X13404761Y-19656119D02*
X13404761Y-18656119D01*
X13404761Y-19037071D02*
X13499999Y-18989452D01*
X13499999Y-18989452D02*
X13690475Y-18989452D01*
X13690475Y-18989452D02*
X13785713Y-19037071D01*
X13785713Y-19037071D02*
X13833332Y-19084690D01*
X13833332Y-19084690D02*
X13880951Y-19179928D01*
X13880951Y-19179928D02*
X13880951Y-19465642D01*
X13880951Y-19465642D02*
X13833332Y-19560880D01*
X13833332Y-19560880D02*
X13785713Y-19608500D01*
X13785713Y-19608500D02*
X13690475Y-19656119D01*
X13690475Y-19656119D02*
X13499999Y-19656119D01*
X13499999Y-19656119D02*
X13404761Y-19608500D01*
X14309523Y-19656119D02*
X14309523Y-18989452D01*
X14309523Y-19179928D02*
X14357142Y-19084690D01*
X14357142Y-19084690D02*
X14404761Y-19037071D01*
X14404761Y-19037071D02*
X14499999Y-18989452D01*
X14499999Y-18989452D02*
X14595237Y-18989452D01*
X14928571Y-19656119D02*
X14928571Y-18989452D01*
X14928571Y-18656119D02*
X14880952Y-18703738D01*
X14880952Y-18703738D02*
X14928571Y-18751357D01*
X14928571Y-18751357D02*
X14976190Y-18703738D01*
X14976190Y-18703738D02*
X14928571Y-18656119D01*
X14928571Y-18656119D02*
X14928571Y-18751357D01*
X15833332Y-19608500D02*
X15738094Y-19656119D01*
X15738094Y-19656119D02*
X15547618Y-19656119D01*
X15547618Y-19656119D02*
X15452380Y-19608500D01*
X15452380Y-19608500D02*
X15404761Y-19560880D01*
X15404761Y-19560880D02*
X15357142Y-19465642D01*
X15357142Y-19465642D02*
X15357142Y-19179928D01*
X15357142Y-19179928D02*
X15404761Y-19084690D01*
X15404761Y-19084690D02*
X15452380Y-19037071D01*
X15452380Y-19037071D02*
X15547618Y-18989452D01*
X15547618Y-18989452D02*
X15738094Y-18989452D01*
X15738094Y-18989452D02*
X15833332Y-19037071D01*
X16261904Y-19656119D02*
X16261904Y-18656119D01*
X16357142Y-19275166D02*
X16642856Y-19656119D01*
X16642856Y-18989452D02*
X16261904Y-19370404D01*
X17499999Y-19656119D02*
X17499999Y-18656119D01*
X17499999Y-19608500D02*
X17404761Y-19656119D01*
X17404761Y-19656119D02*
X17214285Y-19656119D01*
X17214285Y-19656119D02*
X17119047Y-19608500D01*
X17119047Y-19608500D02*
X17071428Y-19560880D01*
X17071428Y-19560880D02*
X17023809Y-19465642D01*
X17023809Y-19465642D02*
X17023809Y-19179928D01*
X17023809Y-19179928D02*
X17071428Y-19084690D01*
X17071428Y-19084690D02*
X17119047Y-19037071D01*
X17119047Y-19037071D02*
X17214285Y-18989452D01*
X17214285Y-18989452D02*
X17404761Y-18989452D01*
X17404761Y-18989452D02*
X17499999Y-19037071D01*
X18404761Y-18989452D02*
X18404761Y-19656119D01*
X17976190Y-18989452D02*
X17976190Y-19513261D01*
X17976190Y-19513261D02*
X18023809Y-19608500D01*
X18023809Y-19608500D02*
X18119047Y-19656119D01*
X18119047Y-19656119D02*
X18261904Y-19656119D01*
X18261904Y-19656119D02*
X18357142Y-19608500D01*
X18357142Y-19608500D02*
X18404761Y-19560880D01*
X18880952Y-18989452D02*
X18880952Y-19989452D01*
X18880952Y-19037071D02*
X18976190Y-18989452D01*
X18976190Y-18989452D02*
X19166666Y-18989452D01*
X19166666Y-18989452D02*
X19261904Y-19037071D01*
X19261904Y-19037071D02*
X19309523Y-19084690D01*
X19309523Y-19084690D02*
X19357142Y-19179928D01*
X19357142Y-19179928D02*
X19357142Y-19465642D01*
X19357142Y-19465642D02*
X19309523Y-19560880D01*
X19309523Y-19560880D02*
X19261904Y-19608500D01*
X19261904Y-19608500D02*
X19166666Y-19656119D01*
X19166666Y-19656119D02*
X18976190Y-19656119D01*
X18976190Y-19656119D02*
X18880952Y-19608500D01*
X19547619Y-19751357D02*
X20309523Y-19751357D01*
X20547619Y-18989452D02*
X20547619Y-19989452D01*
X20547619Y-19037071D02*
X20642857Y-18989452D01*
X20642857Y-18989452D02*
X20833333Y-18989452D01*
X20833333Y-18989452D02*
X20928571Y-19037071D01*
X20928571Y-19037071D02*
X20976190Y-19084690D01*
X20976190Y-19084690D02*
X21023809Y-19179928D01*
X21023809Y-19179928D02*
X21023809Y-19465642D01*
X21023809Y-19465642D02*
X20976190Y-19560880D01*
X20976190Y-19560880D02*
X20928571Y-19608500D01*
X20928571Y-19608500D02*
X20833333Y-19656119D01*
X20833333Y-19656119D02*
X20642857Y-19656119D01*
X20642857Y-19656119D02*
X20547619Y-19608500D01*
X21404762Y-19608500D02*
X21500000Y-19656119D01*
X21500000Y-19656119D02*
X21690476Y-19656119D01*
X21690476Y-19656119D02*
X21785714Y-19608500D01*
X21785714Y-19608500D02*
X21833333Y-19513261D01*
X21833333Y-19513261D02*
X21833333Y-19465642D01*
X21833333Y-19465642D02*
X21785714Y-19370404D01*
X21785714Y-19370404D02*
X21690476Y-19322785D01*
X21690476Y-19322785D02*
X21547619Y-19322785D01*
X21547619Y-19322785D02*
X21452381Y-19275166D01*
X21452381Y-19275166D02*
X21404762Y-19179928D01*
X21404762Y-19179928D02*
X21404762Y-19132309D01*
X21404762Y-19132309D02*
X21452381Y-19037071D01*
X21452381Y-19037071D02*
X21547619Y-18989452D01*
X21547619Y-18989452D02*
X21690476Y-18989452D01*
X21690476Y-18989452D02*
X21785714Y-19037071D01*
X22690476Y-18989452D02*
X22690476Y-19656119D01*
X22261905Y-18989452D02*
X22261905Y-19513261D01*
X22261905Y-19513261D02*
X22309524Y-19608500D01*
X22309524Y-19608500D02*
X22404762Y-19656119D01*
X22404762Y-19656119D02*
X22547619Y-19656119D01*
X22547619Y-19656119D02*
X22642857Y-19608500D01*
X22642857Y-19608500D02*
X22690476Y-19560880D01*
X23833334Y-18989452D02*
X24071429Y-19656119D01*
X24071429Y-19656119D02*
X24309524Y-18989452D01*
X24880953Y-18656119D02*
X24976191Y-18656119D01*
X24976191Y-18656119D02*
X25071429Y-18703738D01*
X25071429Y-18703738D02*
X25119048Y-18751357D01*
X25119048Y-18751357D02*
X25166667Y-18846595D01*
X25166667Y-18846595D02*
X25214286Y-19037071D01*
X25214286Y-19037071D02*
X25214286Y-19275166D01*
X25214286Y-19275166D02*
X25166667Y-19465642D01*
X25166667Y-19465642D02*
X25119048Y-19560880D01*
X25119048Y-19560880D02*
X25071429Y-19608500D01*
X25071429Y-19608500D02*
X24976191Y-19656119D01*
X24976191Y-19656119D02*
X24880953Y-19656119D01*
X24880953Y-19656119D02*
X24785715Y-19608500D01*
X24785715Y-19608500D02*
X24738096Y-19560880D01*
X24738096Y-19560880D02*
X24690477Y-19465642D01*
X24690477Y-19465642D02*
X24642858Y-19275166D01*
X24642858Y-19275166D02*
X24642858Y-19037071D01*
X24642858Y-19037071D02*
X24690477Y-18846595D01*
X24690477Y-18846595D02*
X24738096Y-18751357D01*
X24738096Y-18751357D02*
X24785715Y-18703738D01*
X24785715Y-18703738D02*
X24880953Y-18656119D01*
X25642858Y-19560880D02*
X25690477Y-19608500D01*
X25690477Y-19608500D02*
X25642858Y-19656119D01*
X25642858Y-19656119D02*
X25595239Y-19608500D01*
X25595239Y-19608500D02*
X25642858Y-19560880D01*
X25642858Y-19560880D02*
X25642858Y-19656119D01*
X26642857Y-19656119D02*
X26071429Y-19656119D01*
X26357143Y-19656119D02*
X26357143Y-18656119D01*
X26357143Y-18656119D02*
X26261905Y-18798976D01*
X26261905Y-18798976D02*
X26166667Y-18894214D01*
X26166667Y-18894214D02*
X26071429Y-18941833D01*
%TO.C,Cin2*%
D11*
X9801800Y-15720452D02*
X9801800Y-14297948D01*
X12521800Y-15720452D02*
X12521800Y-14297948D01*
%TO.C,R2*%
X23026800Y-15892064D02*
X23026800Y-15437936D01*
X24496800Y-15892064D02*
X24496800Y-15437936D01*
%TO.C,Cout3*%
X27797364Y-13700000D02*
X28013036Y-13700000D01*
X27797364Y-14420000D02*
X28013036Y-14420000D01*
%TO.C,RFB1*%
X25691100Y-14683641D02*
X25691100Y-14376359D01*
X26451100Y-14683641D02*
X26451100Y-14376359D01*
%TO.C,Cin3*%
X8076800Y-11915580D02*
X8076800Y-11634420D01*
X9096800Y-11915580D02*
X9096800Y-11634420D01*
%TO.C,J2*%
X4520000Y-1890000D02*
X5540000Y-1890000D01*
X4520000Y-6140000D02*
X4520000Y-1890000D01*
X5540000Y-1890000D02*
X5540000Y-3490000D01*
X5540000Y-3490000D02*
X6820000Y-3490000D01*
X6240000Y-9710000D02*
X12920000Y-9710000D01*
X6820000Y-3490000D02*
X6820000Y-600000D01*
X13620000Y-1890000D02*
X13620000Y-3490000D01*
X13620000Y-3490000D02*
X12340000Y-3490000D01*
X14640000Y-1890000D02*
X13620000Y-1890000D01*
X14640000Y-6140000D02*
X14640000Y-1890000D01*
%TO.C,Cbst*%
X28780000Y-5276936D02*
X28780000Y-5061264D01*
X29500000Y-5276936D02*
X29500000Y-5061264D01*
%TO.C,Cout1*%
X4600548Y-11379800D02*
X6023052Y-11379800D01*
X4600548Y-13199800D02*
X6023052Y-13199800D01*
%TO.C,Cout2*%
X26688748Y-1849100D02*
X28111252Y-1849100D01*
X26688748Y-3669100D02*
X28111252Y-3669100D01*
%TO.C,RFB2*%
X23698400Y-18773641D02*
X23698400Y-18466359D01*
X24458400Y-18773641D02*
X24458400Y-18466359D01*
%TO.C,REN1*%
X3030000Y-1875241D02*
X3030000Y-1567959D01*
X3790000Y-1875241D02*
X3790000Y-1567959D01*
%TO.C,R1*%
X20876800Y-17691264D02*
X20876800Y-17237136D01*
X22346800Y-17691264D02*
X22346800Y-17237136D01*
%TO.C,Cin1*%
X15420000Y-8961252D02*
X15420000Y-7538748D01*
X18140000Y-8961252D02*
X18140000Y-7538748D01*
%TO.C,D2*%
X16011000Y-2150000D02*
X16011000Y-6450000D01*
X16011000Y-2150000D02*
X21821000Y-2150000D01*
X16011000Y-6450000D02*
X21821000Y-6450000D01*
%TO.C,J1*%
X30290000Y-3000300D02*
X30290000Y-7680300D01*
X33860000Y-1280300D02*
X38110000Y-1280300D01*
X33860000Y-9400300D02*
X38110000Y-9400300D01*
X36510000Y-2300300D02*
X36510000Y-3580300D01*
X36510000Y-3580300D02*
X39400000Y-3580300D01*
X36510000Y-8380300D02*
X36510000Y-7100300D01*
X38110000Y-1280300D02*
X38110000Y-2300300D01*
X38110000Y-2300300D02*
X36510000Y-2300300D01*
X38110000Y-8380300D02*
X36510000Y-8380300D01*
X38110000Y-9400300D02*
X38110000Y-8380300D01*
%TO.C,L1*%
X18480000Y-5200000D02*
X28480000Y-5200000D01*
X18480000Y-14000000D02*
X28480000Y-14000000D01*
%TO.C,Cff*%
X28780000Y-7546936D02*
X28780000Y-7331264D01*
X29500000Y-7546936D02*
X29500000Y-7331264D01*
%TO.C,REN2*%
X31173600Y-17064041D02*
X31173600Y-16756759D01*
X31933600Y-17064041D02*
X31933600Y-16756759D01*
%TO.C,U1*%
X14651800Y-13918200D02*
X18771800Y-13918200D01*
X14651800Y-14013200D02*
X14651800Y-13918200D01*
X14651800Y-19038200D02*
X14651800Y-18943200D01*
X18771800Y-13918200D02*
X18771800Y-14013200D01*
X18771800Y-18943200D02*
X18771800Y-19038200D01*
X18771800Y-19038200D02*
X14651800Y-19038200D01*
X19311800Y-18948200D02*
X19551800Y-19278200D01*
X19071800Y-19278200D01*
X19311800Y-18948200D01*
G36*
X19551800Y-19278200D02*
G01*
X19071800Y-19278200D01*
X19311800Y-18948200D01*
X19551800Y-19278200D01*
G37*
%TO.C,C1*%
X17145000Y-12415580D02*
X17145000Y-12134420D01*
X18165000Y-12415580D02*
X18165000Y-12134420D01*
%TO.C,D1*%
X15322000Y150000D02*
X15322000Y-3150000D01*
X15322000Y150000D02*
X20832000Y150000D01*
X15322000Y-3150000D02*
X20832000Y-3150000D01*
%TD*%
M02*
