%TF.GenerationSoftware,KiCad,Pcbnew,10.0.3*%
%TF.CreationDate,2026-06-20T23:40:10-07:00*%
%TF.ProjectId,brickdup_psu,62726963-6b64-4757-905f-7073752e6b69,rev?*%
%TF.SameCoordinates,Original*%
%TF.FileFunction,Copper,L2,Bot*%
%TF.FilePolarity,Positive*%
%FSLAX46Y46*%
G04 Gerber Fmt 4.6, Leading zero omitted, Abs format (unit mm)*
G04 Created by KiCad (PCBNEW 10.0.3) date 2026-06-20 23:40:10*
%MOMM*%
%LPD*%
G01*
G04 APERTURE LIST*
%TA.AperFunction,ViaPad*%
%ADD10C,0.600000*%
%TD*%
%TA.AperFunction,Conductor*%
%ADD11C,0.200000*%
%TD*%
G04 APERTURE END LIST*
D10*
%TO.N,GND*%
X14617400Y-11895600D03*
X13120500Y-5777700D03*
%TO.N,SW*%
X17893400Y-13233300D03*
X13111100Y-16378500D03*
X7549100Y-10650000D03*
%TO.N,+5V*%
X19823900Y-10082000D03*
X18890500Y-1427700D03*
X21625200Y-14959800D03*
%TO.N,VBAT*%
X30748000Y-14508300D03*
X28047100Y-13788300D03*
X23896500Y-18092800D03*
X30777600Y-8188500D03*
X11504800Y-4301300D03*
%TO.N,FB*%
X15224200Y-15146300D03*
X8186400Y-12249500D03*
%TO.N,BST*%
X19676300Y-12353900D03*
X14827000Y-17157800D03*
%TO.N,DIM*%
X9783100Y-17780000D03*
X15704400Y-17472700D03*
%TO.N,EN*%
X10236300Y-3061900D03*
X13531800Y-10709700D03*
%TD*%
%TO.N,GND*%
D11*
X14617400Y-7274600D02*
X14617400Y-11895600D01*
X13120500Y-5777700D02*
X14617400Y-7274600D01*
%TO.N,SW*%
X13111100Y-16378500D02*
X16256300Y-13233300D01*
X13111100Y-16378500D02*
X13111100Y-16212000D01*
X13111100Y-16212000D02*
X7549100Y-10650000D01*
X16256300Y-13233300D02*
X17893400Y-13233300D01*
%TO.N,+5V*%
X19823900Y-10082000D02*
X21625200Y-11883300D01*
X18890500Y-1427700D02*
X19823900Y-2361100D01*
X19823900Y-2361100D02*
X19823900Y-10082000D01*
X21625200Y-11883300D02*
X21625200Y-14959800D01*
%TO.N,VBAT*%
X12523800Y-4301300D02*
X11504800Y-4301300D01*
X23896500Y-18092800D02*
X20942400Y-15138700D01*
X28047100Y-10919000D02*
X30777600Y-8188500D01*
X28047100Y-13788300D02*
X28047100Y-10919000D01*
X20942400Y-12719900D02*
X12523800Y-4301300D01*
X28047100Y-13942200D02*
X28047100Y-13788300D01*
X28047100Y-13942200D02*
X23896500Y-18092800D01*
X20942400Y-15138700D02*
X20942400Y-12719900D01*
X28047100Y-13942200D02*
X28613200Y-14508300D01*
X28613200Y-14508300D02*
X30748000Y-14508300D01*
%TO.N,FB*%
X8186400Y-12249500D02*
X8186400Y-12340600D01*
X12868900Y-17023100D02*
X13347400Y-17023100D01*
X13347400Y-17023100D02*
X15224200Y-15146300D01*
X8186400Y-12340600D02*
X12868900Y-17023100D01*
%TO.N,BST*%
X14872400Y-17157800D02*
X19676300Y-12353900D01*
X14827000Y-17157800D02*
X14872400Y-17157800D01*
%TO.N,DIM*%
X15397100Y-17780000D02*
X9783100Y-17780000D01*
X15704400Y-17472700D02*
X15397100Y-17780000D01*
%TO.N,EN*%
X10236300Y-3061900D02*
X10236300Y-7414200D01*
X10236300Y-7414200D02*
X13531800Y-10709700D01*
%TD*%
%TA.AperFunction,Conductor*%
%TO.N,GND*%
G36*
X39642539Y-320185D02*
G01*
X39688294Y-372989D01*
X39699500Y-424500D01*
X39699500Y-19575500D01*
X39679815Y-19642539D01*
X39627011Y-19688294D01*
X39575500Y-19699500D01*
X424500Y-19699500D01*
X357461Y-19679815D01*
X311706Y-19627011D01*
X300500Y-19575500D01*
X300500Y-10571153D01*
X6748600Y-10571153D01*
X6748600Y-10728846D01*
X6779361Y-10883489D01*
X6779364Y-10883501D01*
X6839702Y-11029172D01*
X6839709Y-11029185D01*
X6927310Y-11160288D01*
X6927313Y-11160292D01*
X7038807Y-11271786D01*
X7038811Y-11271789D01*
X7169914Y-11359390D01*
X7169927Y-11359397D01*
X7314058Y-11419097D01*
X7315603Y-11419737D01*
X7380247Y-11432595D01*
X7470949Y-11450638D01*
X7487705Y-11459402D01*
X7506185Y-11463423D01*
X7531223Y-11482167D01*
X7532860Y-11483023D01*
X7534439Y-11484574D01*
X7589162Y-11539297D01*
X7622647Y-11600620D01*
X7617663Y-11670312D01*
X7589162Y-11714659D01*
X7564613Y-11739207D01*
X7564610Y-11739211D01*
X7477009Y-11870314D01*
X7477002Y-11870327D01*
X7416664Y-12015998D01*
X7416661Y-12016010D01*
X7385900Y-12170653D01*
X7385900Y-12328346D01*
X7416661Y-12482989D01*
X7416664Y-12483001D01*
X7477002Y-12628672D01*
X7477009Y-12628685D01*
X7564610Y-12759788D01*
X7564613Y-12759792D01*
X7676107Y-12871286D01*
X7676111Y-12871289D01*
X7807214Y-12958890D01*
X7807227Y-12958897D01*
X7847768Y-12975689D01*
X7952903Y-13019237D01*
X7994528Y-13027516D01*
X8056436Y-13059899D01*
X8058017Y-13061452D01*
X11964384Y-16967819D01*
X11997869Y-17029142D01*
X11992885Y-17098834D01*
X11951013Y-17154767D01*
X11885549Y-17179184D01*
X11876703Y-17179500D01*
X10362866Y-17179500D01*
X10295827Y-17159815D01*
X10293975Y-17158602D01*
X10162285Y-17070609D01*
X10162272Y-17070602D01*
X10016601Y-17010264D01*
X10016589Y-17010261D01*
X9861945Y-16979500D01*
X9861942Y-16979500D01*
X9704258Y-16979500D01*
X9704255Y-16979500D01*
X9549610Y-17010261D01*
X9549598Y-17010264D01*
X9403927Y-17070602D01*
X9403914Y-17070609D01*
X9272811Y-17158210D01*
X9272807Y-17158213D01*
X9161313Y-17269707D01*
X9161310Y-17269711D01*
X9073709Y-17400814D01*
X9073702Y-17400827D01*
X9013364Y-17546498D01*
X9013361Y-17546510D01*
X8982600Y-17701153D01*
X8982600Y-17858846D01*
X9013361Y-18013489D01*
X9013364Y-18013501D01*
X9073702Y-18159172D01*
X9073709Y-18159185D01*
X9161310Y-18290288D01*
X9161313Y-18290292D01*
X9272807Y-18401786D01*
X9272811Y-18401789D01*
X9403914Y-18489390D01*
X9403927Y-18489397D01*
X9549598Y-18549735D01*
X9549603Y-18549737D01*
X9704253Y-18580499D01*
X9704256Y-18580500D01*
X9704258Y-18580500D01*
X9861944Y-18580500D01*
X9861945Y-18580499D01*
X10016597Y-18549737D01*
X10162279Y-18489394D01*
X10162285Y-18489390D01*
X10293975Y-18401398D01*
X10360653Y-18380520D01*
X10362866Y-18380500D01*
X15310431Y-18380500D01*
X15310447Y-18380501D01*
X15318043Y-18380501D01*
X15476154Y-18380501D01*
X15476157Y-18380501D01*
X15628885Y-18339577D01*
X15679004Y-18310639D01*
X15714253Y-18290289D01*
X15715079Y-18289812D01*
X15777077Y-18273200D01*
X15783244Y-18273200D01*
X15783245Y-18273199D01*
X15937897Y-18242437D01*
X16083579Y-18182094D01*
X16214689Y-18094489D01*
X16326189Y-17982989D01*
X16413794Y-17851879D01*
X16474137Y-17706197D01*
X16504900Y-17551542D01*
X16504900Y-17393858D01*
X16504900Y-17393855D01*
X16504899Y-17393853D01*
X16480205Y-17269711D01*
X16474137Y-17239203D01*
X16453495Y-17189368D01*
X16413797Y-17093527D01*
X16413790Y-17093514D01*
X16326189Y-16962411D01*
X16326186Y-16962407D01*
X16210382Y-16846603D01*
X16212120Y-16844864D01*
X16178866Y-16796059D01*
X16176986Y-16726214D01*
X16209177Y-16670256D01*
X19690964Y-13188471D01*
X19752285Y-13154988D01*
X19754452Y-13154537D01*
X19755141Y-13154400D01*
X19755142Y-13154400D01*
X19909797Y-13123637D01*
X20055479Y-13063294D01*
X20149009Y-13000798D01*
X20215686Y-12979921D01*
X20283066Y-12998405D01*
X20329757Y-13050384D01*
X20341900Y-13103901D01*
X20341900Y-15052030D01*
X20341899Y-15052048D01*
X20341899Y-15217754D01*
X20341898Y-15217754D01*
X20382823Y-15370485D01*
X20411758Y-15420600D01*
X20411759Y-15420604D01*
X20411760Y-15420604D01*
X20446968Y-15481588D01*
X20461879Y-15507414D01*
X20461881Y-15507417D01*
X20580749Y-15626285D01*
X20580755Y-15626290D01*
X23061925Y-18107460D01*
X23095410Y-18168783D01*
X23095861Y-18170949D01*
X23126761Y-18326291D01*
X23126764Y-18326301D01*
X23187102Y-18471972D01*
X23187109Y-18471985D01*
X23274710Y-18603088D01*
X23274713Y-18603092D01*
X23386207Y-18714586D01*
X23386211Y-18714589D01*
X23517314Y-18802190D01*
X23517327Y-18802197D01*
X23662998Y-18862535D01*
X23663003Y-18862537D01*
X23817653Y-18893299D01*
X23817656Y-18893300D01*
X23817658Y-18893300D01*
X23975344Y-18893300D01*
X23975345Y-18893299D01*
X24129997Y-18862537D01*
X24275679Y-18802194D01*
X24406789Y-18714589D01*
X24518289Y-18603089D01*
X24605894Y-18471979D01*
X24666237Y-18326297D01*
X24685613Y-18228885D01*
X24697138Y-18170950D01*
X24729523Y-18109039D01*
X24731018Y-18107516D01*
X27959420Y-14879114D01*
X28020741Y-14845631D01*
X28090433Y-14850615D01*
X28134780Y-14879116D01*
X28244484Y-14988820D01*
X28330779Y-15038642D01*
X28330780Y-15038643D01*
X28381409Y-15067874D01*
X28381410Y-15067874D01*
X28381415Y-15067877D01*
X28534142Y-15108800D01*
X28534143Y-15108800D01*
X30168234Y-15108800D01*
X30235273Y-15128485D01*
X30237125Y-15129698D01*
X30368814Y-15217690D01*
X30368827Y-15217697D01*
X30514498Y-15278035D01*
X30514503Y-15278037D01*
X30577869Y-15290641D01*
X30660423Y-15307063D01*
X30722334Y-15339448D01*
X30756908Y-15400164D01*
X30753169Y-15469933D01*
X30750135Y-15477006D01*
X30750310Y-15477079D01*
X30748445Y-15481580D01*
X30682753Y-15683760D01*
X30649500Y-15893713D01*
X30649500Y-16106286D01*
X30682753Y-16316239D01*
X30748444Y-16518414D01*
X30844951Y-16707820D01*
X30969890Y-16879786D01*
X31120213Y-17030109D01*
X31292179Y-17155048D01*
X31292181Y-17155049D01*
X31292184Y-17155051D01*
X31481588Y-17251557D01*
X31683757Y-17317246D01*
X31893713Y-17350500D01*
X31893714Y-17350500D01*
X32106286Y-17350500D01*
X32106287Y-17350500D01*
X32316243Y-17317246D01*
X32518412Y-17251557D01*
X32707816Y-17155051D01*
X32792497Y-17093527D01*
X32879786Y-17030109D01*
X32879788Y-17030106D01*
X32879792Y-17030104D01*
X33030104Y-16879792D01*
X33030106Y-16879788D01*
X33030109Y-16879786D01*
X33155048Y-16707820D01*
X33155047Y-16707820D01*
X33155051Y-16707816D01*
X33251557Y-16518412D01*
X33317246Y-16316243D01*
X33350500Y-16106287D01*
X33350500Y-15893713D01*
X33317246Y-15683757D01*
X33251557Y-15481588D01*
X33155051Y-15292184D01*
X33155049Y-15292181D01*
X33155048Y-15292179D01*
X33030109Y-15120213D01*
X32879786Y-14969890D01*
X32707820Y-14844951D01*
X32518414Y-14748444D01*
X32518413Y-14748443D01*
X32518412Y-14748443D01*
X32316243Y-14682754D01*
X32316241Y-14682753D01*
X32316240Y-14682753D01*
X32154957Y-14657208D01*
X32106287Y-14649500D01*
X31893713Y-14649500D01*
X31850605Y-14656327D01*
X31691898Y-14681464D01*
X31622604Y-14672509D01*
X31569152Y-14627513D01*
X31548513Y-14560761D01*
X31548500Y-14558991D01*
X31548500Y-14429455D01*
X31548499Y-14429453D01*
X31517738Y-14274810D01*
X31517737Y-14274803D01*
X31517735Y-14274798D01*
X31457397Y-14129127D01*
X31457390Y-14129114D01*
X31369789Y-13998011D01*
X31369786Y-13998007D01*
X31258292Y-13886513D01*
X31258288Y-13886510D01*
X31127185Y-13798909D01*
X31127172Y-13798902D01*
X30981501Y-13738564D01*
X30981489Y-13738561D01*
X30826845Y-13707800D01*
X30826842Y-13707800D01*
X30669158Y-13707800D01*
X30669155Y-13707800D01*
X30514510Y-13738561D01*
X30514498Y-13738564D01*
X30368827Y-13798902D01*
X30368814Y-13798909D01*
X30237125Y-13886902D01*
X30170447Y-13907780D01*
X30168234Y-13907800D01*
X28971600Y-13907800D01*
X28904561Y-13888115D01*
X28858806Y-13835311D01*
X28847600Y-13783800D01*
X28847600Y-13709455D01*
X28847599Y-13709453D01*
X28816838Y-13554810D01*
X28816837Y-13554803D01*
X28816835Y-13554798D01*
X28756497Y-13409127D01*
X28756490Y-13409114D01*
X28668498Y-13277425D01*
X28647620Y-13210747D01*
X28647600Y-13208534D01*
X28647600Y-11219097D01*
X28667285Y-11152058D01*
X28683919Y-11131416D01*
X29727425Y-10087910D01*
X30792262Y-9023072D01*
X30853583Y-8989589D01*
X30855750Y-8989138D01*
X30913685Y-8977613D01*
X31011097Y-8958237D01*
X31156779Y-8897894D01*
X31287889Y-8810289D01*
X31399389Y-8698789D01*
X31486994Y-8567679D01*
X31547337Y-8421997D01*
X31578100Y-8267342D01*
X31578100Y-8109658D01*
X31578100Y-8109655D01*
X31578099Y-8109653D01*
X31547338Y-7955010D01*
X31547338Y-7955008D01*
X31547337Y-7955003D01*
X31522367Y-7894720D01*
X31486997Y-7809327D01*
X31486990Y-7809314D01*
X31399389Y-7678211D01*
X31399386Y-7678207D01*
X31287892Y-7566713D01*
X31287888Y-7566710D01*
X31156785Y-7479109D01*
X31156772Y-7479102D01*
X31011101Y-7418764D01*
X31011089Y-7418761D01*
X30856445Y-7388000D01*
X30856442Y-7388000D01*
X30698758Y-7388000D01*
X30698755Y-7388000D01*
X30544110Y-7418761D01*
X30544098Y-7418764D01*
X30398427Y-7479102D01*
X30398414Y-7479109D01*
X30267311Y-7566710D01*
X30267307Y-7566713D01*
X30155813Y-7678207D01*
X30155810Y-7678211D01*
X30068209Y-7809314D01*
X30068202Y-7809327D01*
X30007864Y-7954998D01*
X30007861Y-7955008D01*
X29976961Y-8110350D01*
X29944576Y-8172261D01*
X29943025Y-8173839D01*
X27566581Y-10550282D01*
X27566579Y-10550284D01*
X27551568Y-10576285D01*
X27545223Y-10587276D01*
X27487523Y-10687215D01*
X27446599Y-10839943D01*
X27446599Y-10839945D01*
X27446599Y-11008046D01*
X27446600Y-11008059D01*
X27446600Y-13208534D01*
X27426915Y-13275573D01*
X27425702Y-13277425D01*
X27337709Y-13409114D01*
X27337702Y-13409127D01*
X27277364Y-13554798D01*
X27277361Y-13554810D01*
X27246600Y-13709453D01*
X27246600Y-13842102D01*
X27226915Y-13909141D01*
X27210281Y-13929783D01*
X23984180Y-17155883D01*
X23922857Y-17189368D01*
X23853165Y-17184384D01*
X23808818Y-17155883D01*
X22269293Y-15616358D01*
X22235808Y-15555035D01*
X22240792Y-15485343D01*
X22253869Y-15459790D01*
X22334594Y-15338979D01*
X22394937Y-15193297D01*
X22421523Y-15059643D01*
X22425700Y-15038643D01*
X22425700Y-14880955D01*
X22425699Y-14880953D01*
X22418537Y-14844949D01*
X22394937Y-14726303D01*
X22372655Y-14672509D01*
X22334597Y-14580627D01*
X22334590Y-14580614D01*
X22246598Y-14448925D01*
X22225720Y-14382247D01*
X22225700Y-14380034D01*
X22225700Y-11972359D01*
X22225701Y-11972346D01*
X22225701Y-11804245D01*
X22225701Y-11804243D01*
X22184777Y-11651515D01*
X22128130Y-11553400D01*
X22105720Y-11514584D01*
X21993916Y-11402780D01*
X21993913Y-11402778D01*
X20658474Y-10067339D01*
X20624989Y-10006016D01*
X20624538Y-10003849D01*
X20605683Y-9909062D01*
X20593637Y-9848503D01*
X20586361Y-9830937D01*
X20533297Y-9702827D01*
X20533290Y-9702814D01*
X20445298Y-9571125D01*
X20424420Y-9504447D01*
X20424400Y-9502234D01*
X20424400Y-2450159D01*
X20424401Y-2450146D01*
X20424401Y-2282045D01*
X20424401Y-2282043D01*
X20383477Y-2129315D01*
X20337389Y-2049489D01*
X20304420Y-1992384D01*
X20192616Y-1880580D01*
X20192615Y-1880579D01*
X20188285Y-1876249D01*
X20188274Y-1876239D01*
X19725074Y-1413039D01*
X19691589Y-1351716D01*
X19691138Y-1349549D01*
X19660238Y-1194210D01*
X19660237Y-1194203D01*
X19660235Y-1194198D01*
X19599897Y-1048527D01*
X19599890Y-1048514D01*
X19512289Y-917411D01*
X19512286Y-917407D01*
X19400792Y-805913D01*
X19400788Y-805910D01*
X19269685Y-718309D01*
X19269672Y-718302D01*
X19124001Y-657964D01*
X19123989Y-657961D01*
X18969345Y-627200D01*
X18969342Y-627200D01*
X18811658Y-627200D01*
X18811655Y-627200D01*
X18657010Y-657961D01*
X18656998Y-657964D01*
X18511327Y-718302D01*
X18511314Y-718309D01*
X18380211Y-805910D01*
X18380207Y-805913D01*
X18268713Y-917407D01*
X18268710Y-917411D01*
X18181109Y-1048514D01*
X18181102Y-1048527D01*
X18120764Y-1194198D01*
X18120761Y-1194210D01*
X18090000Y-1348853D01*
X18090000Y-1506546D01*
X18120761Y-1661189D01*
X18120764Y-1661201D01*
X18181102Y-1806872D01*
X18181109Y-1806885D01*
X18268710Y-1937988D01*
X18268713Y-1937992D01*
X18380209Y-2049488D01*
X18511314Y-2137090D01*
X18511327Y-2137097D01*
X18656998Y-2197435D01*
X18657003Y-2197437D01*
X18721647Y-2210295D01*
X18812349Y-2228338D01*
X18874260Y-2260723D01*
X18875839Y-2262274D01*
X19187082Y-2573517D01*
X19220566Y-2634838D01*
X19223400Y-2661196D01*
X19223400Y-9502234D01*
X19203715Y-9569273D01*
X19202502Y-9571125D01*
X19114509Y-9702814D01*
X19114506Y-9702821D01*
X19085954Y-9771750D01*
X19042112Y-9826153D01*
X18975818Y-9848217D01*
X18908118Y-9830937D01*
X18883712Y-9811977D01*
X13011390Y-3939655D01*
X13011388Y-3939652D01*
X12892517Y-3820781D01*
X12892516Y-3820780D01*
X12805704Y-3770660D01*
X12805704Y-3770659D01*
X12805700Y-3770658D01*
X12755585Y-3741723D01*
X12602857Y-3700799D01*
X12444743Y-3700799D01*
X12437147Y-3700799D01*
X12437131Y-3700800D01*
X12084566Y-3700800D01*
X12017527Y-3681115D01*
X12015675Y-3679902D01*
X11883985Y-3591909D01*
X11883972Y-3591902D01*
X11738301Y-3531564D01*
X11738289Y-3531561D01*
X11583645Y-3500800D01*
X11583642Y-3500800D01*
X11425958Y-3500800D01*
X11425955Y-3500800D01*
X11271310Y-3531561D01*
X11271298Y-3531564D01*
X11125627Y-3591902D01*
X11120246Y-3594779D01*
X11118952Y-3592358D01*
X11063449Y-3609634D01*
X10996101Y-3591034D01*
X10949500Y-3538975D01*
X10938441Y-3469986D01*
X10946885Y-3438202D01*
X11006037Y-3295397D01*
X11036800Y-3140742D01*
X11036800Y-2983058D01*
X11036800Y-2983055D01*
X11036799Y-2983053D01*
X11034181Y-2969890D01*
X11006037Y-2828403D01*
X10945708Y-2682754D01*
X10945697Y-2682727D01*
X10945690Y-2682714D01*
X10858089Y-2551611D01*
X10858086Y-2551607D01*
X10746592Y-2440113D01*
X10746588Y-2440110D01*
X10615485Y-2352509D01*
X10615472Y-2352502D01*
X10469801Y-2292164D01*
X10469789Y-2292161D01*
X10315145Y-2261400D01*
X10315142Y-2261400D01*
X10157458Y-2261400D01*
X10157455Y-2261400D01*
X10002810Y-2292161D01*
X10002798Y-2292164D01*
X9857127Y-2352502D01*
X9857114Y-2352509D01*
X9726011Y-2440110D01*
X9726007Y-2440113D01*
X9614513Y-2551607D01*
X9614510Y-2551611D01*
X9526909Y-2682714D01*
X9526902Y-2682727D01*
X9466564Y-2828398D01*
X9466561Y-2828410D01*
X9435800Y-2983053D01*
X9435800Y-3140746D01*
X9466561Y-3295389D01*
X9466564Y-3295401D01*
X9526902Y-3441072D01*
X9526909Y-3441085D01*
X9614902Y-3572774D01*
X9635780Y-3639451D01*
X9635800Y-3641665D01*
X9635800Y-7327530D01*
X9635799Y-7327548D01*
X9635799Y-7493254D01*
X9635798Y-7493254D01*
X9676722Y-7645983D01*
X9695328Y-7678209D01*
X9695330Y-7678212D01*
X9755779Y-7782914D01*
X9755781Y-7782917D01*
X9874649Y-7901785D01*
X9874655Y-7901790D01*
X12697225Y-10724360D01*
X12730710Y-10785683D01*
X12731161Y-10787849D01*
X12762061Y-10943191D01*
X12762064Y-10943201D01*
X12822402Y-11088872D01*
X12822409Y-11088885D01*
X12910010Y-11219988D01*
X12910013Y-11219992D01*
X13021507Y-11331486D01*
X13021511Y-11331489D01*
X13152614Y-11419090D01*
X13152627Y-11419097D01*
X13259641Y-11463423D01*
X13298303Y-11479437D01*
X13452953Y-11510199D01*
X13452956Y-11510200D01*
X13452958Y-11510200D01*
X13610644Y-11510200D01*
X13610645Y-11510199D01*
X13765297Y-11479437D01*
X13909427Y-11419737D01*
X13910972Y-11419097D01*
X13910972Y-11419096D01*
X13910979Y-11419094D01*
X14042089Y-11331489D01*
X14153589Y-11219989D01*
X14241194Y-11088879D01*
X14301537Y-10943197D01*
X14332300Y-10788542D01*
X14332300Y-10630858D01*
X14332300Y-10630855D01*
X14332299Y-10630853D01*
X14301537Y-10476203D01*
X14276807Y-10416498D01*
X14241197Y-10330527D01*
X14241190Y-10330514D01*
X14153589Y-10199411D01*
X14153586Y-10199407D01*
X14042092Y-10087913D01*
X14042088Y-10087910D01*
X13910985Y-10000309D01*
X13910972Y-10000302D01*
X13765301Y-9939964D01*
X13765291Y-9939961D01*
X13609951Y-9909062D01*
X13548041Y-9876677D01*
X13546462Y-9875126D01*
X10873119Y-7201783D01*
X10839634Y-7140460D01*
X10836800Y-7114102D01*
X10836800Y-5049697D01*
X10856485Y-4982658D01*
X10909289Y-4936903D01*
X10978447Y-4926959D01*
X11029687Y-4946593D01*
X11125621Y-5010694D01*
X11125623Y-5010695D01*
X11125627Y-5010697D01*
X11219783Y-5049697D01*
X11271303Y-5071037D01*
X11425953Y-5101799D01*
X11425956Y-5101800D01*
X11425958Y-5101800D01*
X11583644Y-5101800D01*
X11583645Y-5101799D01*
X11738297Y-5071037D01*
X11883979Y-5010694D01*
X11979910Y-4946595D01*
X12015675Y-4922698D01*
X12033721Y-4917047D01*
X12049631Y-4906823D01*
X12080592Y-4902371D01*
X12082353Y-4901820D01*
X12084566Y-4901800D01*
X12223703Y-4901800D01*
X12290742Y-4921485D01*
X12311384Y-4938119D01*
X19048228Y-11674963D01*
X19081713Y-11736286D01*
X19076729Y-11805978D01*
X19056399Y-11841311D01*
X19054507Y-11843615D01*
X18966909Y-11974714D01*
X18966902Y-11974727D01*
X18906564Y-12120398D01*
X18906561Y-12120408D01*
X18875662Y-12275748D01*
X18843277Y-12337659D01*
X18841726Y-12339237D01*
X18574204Y-12606759D01*
X18512881Y-12640244D01*
X18443189Y-12635260D01*
X18407865Y-12614937D01*
X18403691Y-12611512D01*
X18272585Y-12523909D01*
X18272572Y-12523902D01*
X18126901Y-12463564D01*
X18126889Y-12463561D01*
X17972245Y-12432800D01*
X17972242Y-12432800D01*
X17814558Y-12432800D01*
X17814555Y-12432800D01*
X17659910Y-12463561D01*
X17659898Y-12463564D01*
X17514227Y-12523902D01*
X17514214Y-12523909D01*
X17382525Y-12611902D01*
X17315847Y-12632780D01*
X17313634Y-12632800D01*
X16335357Y-12632800D01*
X16177242Y-12632800D01*
X16147230Y-12640842D01*
X16106325Y-12651802D01*
X16024514Y-12673723D01*
X16024509Y-12673726D01*
X15887590Y-12752775D01*
X15887582Y-12752781D01*
X15775778Y-12864586D01*
X13282030Y-15358333D01*
X13220707Y-15391818D01*
X13151015Y-15386834D01*
X13106668Y-15358333D01*
X8383674Y-10635339D01*
X8350189Y-10574016D01*
X8349738Y-10571849D01*
X8330711Y-10476198D01*
X8318837Y-10416503D01*
X8283225Y-10330527D01*
X8258497Y-10270827D01*
X8258490Y-10270814D01*
X8170889Y-10139711D01*
X8170886Y-10139707D01*
X8059392Y-10028213D01*
X8059388Y-10028210D01*
X7928285Y-9940609D01*
X7928272Y-9940602D01*
X7782601Y-9880264D01*
X7782589Y-9880261D01*
X7627945Y-9849500D01*
X7627942Y-9849500D01*
X7470258Y-9849500D01*
X7470255Y-9849500D01*
X7315610Y-9880261D01*
X7315598Y-9880264D01*
X7169927Y-9940602D01*
X7169914Y-9940609D01*
X7038811Y-10028210D01*
X7038807Y-10028213D01*
X6927313Y-10139707D01*
X6927310Y-10139711D01*
X6839709Y-10270814D01*
X6839702Y-10270827D01*
X6779364Y-10416498D01*
X6779361Y-10416510D01*
X6748600Y-10571153D01*
X300500Y-10571153D01*
X300500Y-3893713D01*
X2649500Y-3893713D01*
X2649500Y-4106286D01*
X2682753Y-4316239D01*
X2748444Y-4518414D01*
X2844951Y-4707820D01*
X2969890Y-4879786D01*
X3120213Y-5030109D01*
X3292179Y-5155048D01*
X3292181Y-5155049D01*
X3292184Y-5155051D01*
X3481588Y-5251557D01*
X3683757Y-5317246D01*
X3893713Y-5350500D01*
X3893714Y-5350500D01*
X4106286Y-5350500D01*
X4106287Y-5350500D01*
X4316243Y-5317246D01*
X4518412Y-5251557D01*
X4707816Y-5155051D01*
X4729789Y-5139086D01*
X4879786Y-5030109D01*
X4879788Y-5030106D01*
X4879792Y-5030104D01*
X5030104Y-4879792D01*
X5030106Y-4879788D01*
X5030109Y-4879786D01*
X5155048Y-4707820D01*
X5155047Y-4707820D01*
X5155051Y-4707816D01*
X5251557Y-4518412D01*
X5317246Y-4316243D01*
X5350500Y-4106287D01*
X5350500Y-3893713D01*
X5317246Y-3683757D01*
X5251557Y-3481588D01*
X5155051Y-3292184D01*
X5155049Y-3292181D01*
X5155048Y-3292179D01*
X5030109Y-3120213D01*
X4879786Y-2969890D01*
X4707820Y-2844951D01*
X4518414Y-2748444D01*
X4518413Y-2748443D01*
X4518412Y-2748443D01*
X4316243Y-2682754D01*
X4316241Y-2682753D01*
X4316240Y-2682753D01*
X4154957Y-2657208D01*
X4106287Y-2649500D01*
X3893713Y-2649500D01*
X3845042Y-2657208D01*
X3683760Y-2682753D01*
X3481585Y-2748444D01*
X3292179Y-2844951D01*
X3120213Y-2969890D01*
X2969890Y-3120213D01*
X2844951Y-3292179D01*
X2748444Y-3481585D01*
X2682753Y-3683760D01*
X2649500Y-3893713D01*
X300500Y-3893713D01*
X300500Y-424500D01*
X320185Y-357461D01*
X372989Y-311706D01*
X424500Y-300500D01*
X39575500Y-300500D01*
X39642539Y-320185D01*
G37*
%TD.AperFunction*%
%TD*%
M02*
