%TF.GenerationSoftware,KiCad,Pcbnew,10.0.3*%
%TF.CreationDate,2026-06-21T23:39:41-07:00*%
%TF.ProjectId,brickdup_psu,62726963-6b64-4757-905f-7073752e6b69,rev?*%
%TF.SameCoordinates,Original*%
%TF.FileFunction,Copper,L1,Top*%
%TF.FilePolarity,Positive*%
%FSLAX46Y46*%
G04 Gerber Fmt 4.6, Leading zero omitted, Abs format (unit mm)*
G04 Created by KiCad (PCBNEW 10.0.3) date 2026-06-21 23:39:41*
%MOMM*%
%LPD*%
G01*
G04 APERTURE LIST*
G04 Aperture macros list*
%AMRoundRect*
0 Rectangle with rounded corners*
0 $1 Rounding radius*
0 $2 $3 $4 $5 $6 $7 $8 $9 X,Y pos of 4 corners*
0 Add a 4 corners polygon primitive as box body*
4,1,4,$2,$3,$4,$5,$6,$7,$8,$9,$2,$3,0*
0 Add four circle primitives for the rounded corners*
1,1,$1+$1,$2,$3*
1,1,$1+$1,$4,$5*
1,1,$1+$1,$6,$7*
1,1,$1+$1,$8,$9*
0 Add four rect primitives between the rounded corners*
20,1,$1+$1,$2,$3,$4,$5,0*
20,1,$1+$1,$4,$5,$6,$7,0*
20,1,$1+$1,$6,$7,$8,$9,0*
20,1,$1+$1,$8,$9,$2,$3,0*%
G04 Aperture macros list end*
%TA.AperFunction,SMDPad,CuDef*%
%ADD10R,2.900000X5.400000*%
%TD*%
%TA.AperFunction,SMDPad,CuDef*%
%ADD11RoundRect,0.250000X-0.250000X-1.500000X0.250000X-1.500000X0.250000X1.500000X-0.250000X1.500000X0*%
%TD*%
%TA.AperFunction,SMDPad,CuDef*%
%ADD12RoundRect,0.250001X-0.499999X-1.449999X0.499999X-1.449999X0.499999X1.449999X-0.499999X1.449999X0*%
%TD*%
%TA.AperFunction,SMDPad,CuDef*%
%ADD13RoundRect,0.150000X0.825000X0.150000X-0.825000X0.150000X-0.825000X-0.150000X0.825000X-0.150000X0*%
%TD*%
%TA.AperFunction,HeatsinkPad*%
%ADD14R,2.410000X3.300000*%
%TD*%
%TA.AperFunction,SMDPad,CuDef*%
%ADD15RoundRect,0.135000X0.185000X-0.135000X0.185000X0.135000X-0.185000X0.135000X-0.185000X-0.135000X0*%
%TD*%
%TA.AperFunction,SMDPad,CuDef*%
%ADD16RoundRect,0.250000X-1.000000X-0.900000X1.000000X-0.900000X1.000000X0.900000X-1.000000X0.900000X0*%
%TD*%
%TA.AperFunction,SMDPad,CuDef*%
%ADD17RoundRect,0.225000X0.250000X-0.225000X0.250000X0.225000X-0.250000X0.225000X-0.250000X-0.225000X0*%
%TD*%
%TA.AperFunction,SMDPad,CuDef*%
%ADD18RoundRect,0.250000X1.100000X-0.325000X1.100000X0.325000X-1.100000X0.325000X-1.100000X-0.325000X0*%
%TD*%
%TA.AperFunction,SMDPad,CuDef*%
%ADD19RoundRect,0.140000X0.170000X-0.140000X0.170000X0.140000X-0.170000X0.140000X-0.170000X-0.140000X0*%
%TD*%
%TA.AperFunction,SMDPad,CuDef*%
%ADD20RoundRect,0.250000X-0.325000X-0.650000X0.325000X-0.650000X0.325000X0.650000X-0.325000X0.650000X0*%
%TD*%
%TA.AperFunction,SMDPad,CuDef*%
%ADD21RoundRect,0.250000X0.450000X-0.262500X0.450000X0.262500X-0.450000X0.262500X-0.450000X-0.262500X0*%
%TD*%
%TA.AperFunction,SMDPad,CuDef*%
%ADD22RoundRect,0.250000X-1.000000X-0.650000X1.000000X-0.650000X1.000000X0.650000X-1.000000X0.650000X0*%
%TD*%
%TA.AperFunction,SMDPad,CuDef*%
%ADD23RoundRect,0.140000X-0.140000X-0.170000X0.140000X-0.170000X0.140000X0.170000X-0.140000X0.170000X0*%
%TD*%
%TA.AperFunction,SMDPad,CuDef*%
%ADD24RoundRect,0.250000X-1.500000X0.250000X-1.500000X-0.250000X1.500000X-0.250000X1.500000X0.250000X0*%
%TD*%
%TA.AperFunction,SMDPad,CuDef*%
%ADD25RoundRect,0.250001X-1.449999X0.499999X-1.449999X-0.499999X1.449999X-0.499999X1.449999X0.499999X0*%
%TD*%
%TA.AperFunction,ViaPad*%
%ADD26C,0.600000*%
%TD*%
%TA.AperFunction,Conductor*%
%ADD27C,0.200000*%
%TD*%
G04 APERTURE END LIST*
D10*
%TO.P,L1,1*%
%TO.N,SW*%
X19694400Y-14368500D03*
%TO.P,L1,2*%
%TO.N,+5V*%
X29594400Y-14368500D03*
%TD*%
D11*
%TO.P,J2,1*%
%TO.N,+5V*%
X20212500Y-2350000D03*
%TO.P,J2,2*%
%TO.N,SENSE*%
X22212500Y-2350000D03*
%TO.P,J2,3*%
%TO.N,GND*%
X24212500Y-2350000D03*
D12*
%TO.P,J2,MP*%
%TO.N,N/C*%
X17862500Y-8100000D03*
X26562500Y-8100000D03*
%TD*%
D13*
%TO.P,U1,1*%
%TO.N,FB*%
X13725000Y-13600800D03*
%TO.P,U1,2*%
%TO.N,N/C*%
X13725000Y-12330800D03*
%TO.P,U1,3*%
%TO.N,VBAT*%
X13725000Y-11060800D03*
%TO.P,U1,4*%
%TO.N,BST*%
X13725000Y-9790800D03*
%TO.P,U1,5*%
%TO.N,SW*%
X8775000Y-9790800D03*
%TO.P,U1,6*%
%TO.N,EN*%
X8775000Y-11060800D03*
%TO.P,U1,7*%
X8775000Y-12330800D03*
%TO.P,U1,8*%
%TO.N,GND*%
X8775000Y-13600800D03*
D14*
%TO.P,U1,9*%
X11250000Y-11695800D03*
%TD*%
D15*
%TO.P,RFB1,1*%
%TO.N,+5V*%
X31037500Y-19108500D03*
%TO.P,RFB1,2*%
%TO.N,FB*%
X31037500Y-18088500D03*
%TD*%
D16*
%TO.P,D2,1*%
%TO.N,VBAT*%
X1850000Y-4650000D03*
%TO.P,D2,2*%
%TO.N,GND*%
X6150000Y-4650000D03*
%TD*%
D17*
%TO.P,Cin3,1*%
%TO.N,VBAT*%
X15900000Y-10112800D03*
%TO.P,Cin3,2*%
%TO.N,GND*%
X15900000Y-8562800D03*
%TD*%
D15*
%TO.P,REN1,1*%
%TO.N,VBAT*%
X12101700Y-2648700D03*
%TO.P,REN1,2*%
%TO.N,EN*%
X12101700Y-1628700D03*
%TD*%
D18*
%TO.P,Cin1,1*%
%TO.N,VBAT*%
X16358800Y-14996200D03*
%TO.P,Cin1,2*%
%TO.N,GND*%
X16358800Y-12046200D03*
%TD*%
D19*
%TO.P,Cff,1*%
%TO.N,+5V*%
X31890000Y-13725100D03*
%TO.P,Cff,2*%
%TO.N,FB*%
X31890000Y-12765100D03*
%TD*%
D18*
%TO.P,Cin2,1*%
%TO.N,VBAT*%
X5473100Y-12625000D03*
%TO.P,Cin2,2*%
%TO.N,GND*%
X5473100Y-9675000D03*
%TD*%
D20*
%TO.P,Cout1,1*%
%TO.N,+5V*%
X8725000Y-5926500D03*
%TO.P,Cout1,2*%
%TO.N,GND*%
X11675000Y-5926500D03*
%TD*%
D21*
%TO.P,R1,1*%
%TO.N,VBAT*%
X28762500Y-10249900D03*
%TO.P,R1,2*%
%TO.N,SENSE*%
X28762500Y-8424900D03*
%TD*%
D19*
%TO.P,Cbst,1*%
%TO.N,SW*%
X13702700Y-4292900D03*
%TO.P,Cbst,2*%
%TO.N,BST*%
X13702700Y-3332900D03*
%TD*%
D20*
%TO.P,Cout2,1*%
%TO.N,+5V*%
X10314600Y-15550800D03*
%TO.P,Cout2,2*%
%TO.N,GND*%
X13264600Y-15550800D03*
%TD*%
D15*
%TO.P,REN2,1*%
%TO.N,EN*%
X38120000Y-16243500D03*
%TO.P,REN2,2*%
%TO.N,GND*%
X38120000Y-15223500D03*
%TD*%
D22*
%TO.P,D1,1*%
%TO.N,SW*%
X2105400Y-7450000D03*
%TO.P,D1,2*%
%TO.N,GND*%
X6105400Y-7450000D03*
%TD*%
D23*
%TO.P,Cout3,1*%
%TO.N,+5V*%
X14980000Y-7052800D03*
%TO.P,Cout3,2*%
%TO.N,GND*%
X15940000Y-7052800D03*
%TD*%
D15*
%TO.P,RFB2,1*%
%TO.N,FB*%
X10593800Y-18490800D03*
%TO.P,RFB2,2*%
%TO.N,GND*%
X10593800Y-17470800D03*
%TD*%
D24*
%TO.P,J1,1*%
%TO.N,VBAT*%
X37650000Y-5818500D03*
%TO.P,J1,2*%
%TO.N,GND*%
X37650000Y-7818500D03*
D25*
%TO.P,J1,MP*%
%TO.N,N/C*%
X31900000Y-3468500D03*
X31900000Y-10168500D03*
%TD*%
D21*
%TO.P,R2,1*%
%TO.N,SENSE*%
X10081500Y-3764000D03*
%TO.P,R2,2*%
%TO.N,GND*%
X10081500Y-1939000D03*
%TD*%
D17*
%TO.P,C1,1*%
%TO.N,SENSE*%
X13475000Y-8290100D03*
%TO.P,C1,2*%
%TO.N,GND*%
X13475000Y-6740100D03*
%TD*%
D26*
%TO.N,SW*%
X12019900Y-16902200D03*
X6721200Y-10786300D03*
X12214200Y-4391900D03*
%TO.N,+5V*%
X11398300Y-15440400D03*
X9820200Y-5900600D03*
X12970100Y-2750700D03*
%TO.N,SENSE*%
X17868100Y-4852600D03*
X12634000Y-7608800D03*
X27964300Y-7404300D03*
%TO.N,FB*%
X12866300Y-18646700D03*
X15208700Y-13600800D03*
X31975000Y-14512400D03*
%TO.N,VBAT*%
X5473100Y-12625000D03*
X16569100Y-10963400D03*
X1850000Y-4650000D03*
X16358800Y-13895400D03*
X17340900Y-1791900D03*
X23032100Y-5463500D03*
%TO.N,EN*%
X10279400Y-14127600D03*
X18153200Y-1734000D03*
X33177900Y-14338600D03*
%TD*%
%TO.N,SW*%
D27*
X13603700Y-4391900D02*
X13702700Y-4292900D01*
X4162300Y-10570800D02*
X2105400Y-8513900D01*
X17160700Y-16902200D02*
X12019900Y-16902200D01*
X7230400Y-10570800D02*
X6721200Y-10570800D01*
X19694400Y-14368500D02*
X17160700Y-16902200D01*
X6721200Y-10786300D02*
X6721200Y-10570800D01*
X2105400Y-8513900D02*
X2105400Y-7450000D01*
X6721200Y-10570800D02*
X4162300Y-10570800D01*
X8010400Y-9790800D02*
X7230400Y-10570800D01*
X8775000Y-9790800D02*
X8010400Y-9790800D01*
X12214200Y-4391900D02*
X13603700Y-4391900D01*
%TO.N,+5V*%
X10314600Y-15550800D02*
X10425000Y-15440400D01*
X29594400Y-14368500D02*
X30470300Y-14368500D01*
X31037500Y-19108500D02*
X30884200Y-19261800D01*
X9945600Y-18782000D02*
X9945600Y-15919800D01*
X8725000Y-5926500D02*
X9794300Y-5926500D01*
X30470300Y-14368500D02*
X31346100Y-14368500D01*
X9945600Y-15919800D02*
X10314600Y-15550800D01*
X20212500Y-2350000D02*
X19519900Y-2350000D01*
X9794300Y-5926500D02*
X9820200Y-5900600D01*
X16701400Y-5168500D02*
X16701400Y-5331400D01*
X10425400Y-19261800D02*
X9945600Y-18782000D01*
X14120700Y-2750700D02*
X12970100Y-2750700D01*
X19519900Y-2350000D02*
X16701400Y-5168500D01*
X10425000Y-15440400D02*
X11398300Y-15440400D01*
X31688800Y-18457200D02*
X31037500Y-19108500D01*
X31890000Y-13725100D02*
X31346100Y-14269000D01*
X31346100Y-14269000D02*
X31346100Y-14368500D01*
X30470300Y-14368500D02*
X31688800Y-15587000D01*
X31688800Y-15587000D02*
X31688800Y-18457200D01*
X16701400Y-5331400D02*
X14120700Y-2750700D01*
X30884200Y-19261800D02*
X10425400Y-19261800D01*
X16701400Y-5331400D02*
X14980000Y-7052800D01*
%TO.N,SENSE*%
X28762500Y-8424900D02*
X27964300Y-7626700D01*
X17868100Y-4852600D02*
X20244800Y-4852600D01*
X10682500Y-4365000D02*
X10682500Y-6725900D01*
X11565400Y-7608800D02*
X12634000Y-7608800D01*
X13315300Y-8290100D02*
X13475000Y-8290100D01*
X12634000Y-7608800D02*
X13315300Y-8290100D01*
X22212500Y-2884900D02*
X22212500Y-2350000D01*
X10682500Y-6725900D02*
X11565400Y-7608800D01*
X10081500Y-3764000D02*
X10682500Y-4365000D01*
X27964300Y-7626700D02*
X27964300Y-7404300D01*
X20244800Y-4852600D02*
X22212500Y-2884900D01*
%TO.N,GND*%
X6150000Y-7405400D02*
X6150000Y-4650000D01*
X12488600Y-6740100D02*
X11675000Y-5926500D01*
X33578900Y-11221200D02*
X33902700Y-10897400D01*
X16809800Y-9803700D02*
X16809800Y-9472600D01*
X15900000Y-8562800D02*
X15091400Y-9371400D01*
X12686800Y-10425800D02*
X12447700Y-10664900D01*
X11612500Y-5864000D02*
X11675000Y-5926500D01*
X29897400Y-10897400D02*
X30221200Y-11221200D01*
X11250000Y-11695800D02*
X10329800Y-12616000D01*
X13264600Y-15550800D02*
X12513800Y-15550800D01*
X10313300Y-2493600D02*
X11612500Y-3792800D01*
X33578900Y-9115800D02*
X37650000Y-9115800D01*
X37650000Y-9115800D02*
X37650000Y-7818500D01*
X6150000Y-4650000D02*
X8306400Y-2493600D01*
X10329800Y-12616000D02*
X13264600Y-15550800D01*
X33902700Y-9439600D02*
X33578900Y-9115800D01*
X15091400Y-10109500D02*
X14775100Y-10425800D01*
X29235200Y-11295100D02*
X29897400Y-10632900D01*
X10081500Y-1939000D02*
X10081500Y-2493600D01*
X10081500Y-2493600D02*
X10313300Y-2493600D01*
X15940000Y-7052800D02*
X15940000Y-8522800D01*
X12447700Y-10664900D02*
X10971300Y-9188500D01*
X6105400Y-9188500D02*
X6105400Y-7450000D01*
X18616600Y-10107700D02*
X17113800Y-10107700D01*
X38120000Y-15223500D02*
X38120000Y-9585800D01*
X11612500Y-3792800D02*
X11612500Y-5864000D01*
X16809800Y-9472600D02*
X15900000Y-8562800D01*
X20460300Y-8264000D02*
X18616600Y-10107700D01*
X8306400Y-2493600D02*
X10081500Y-2493600D01*
X13475000Y-6740100D02*
X12488600Y-6740100D01*
X16008400Y-11695800D02*
X16358800Y-12046200D01*
X12447700Y-11695800D02*
X16008400Y-11695800D01*
X14775100Y-10425800D02*
X12686800Y-10425800D01*
X9345000Y-13600800D02*
X8775000Y-13600800D01*
X10971300Y-9188500D02*
X6105400Y-9188500D01*
X12447700Y-10664900D02*
X12447700Y-11695800D01*
X17113800Y-10107700D02*
X16809800Y-9803700D01*
X24212500Y-3409600D02*
X20460300Y-7161800D01*
X20460300Y-7161800D02*
X20460300Y-8264000D01*
X6105400Y-7450000D02*
X6150000Y-7405400D01*
X15091400Y-9371400D02*
X15091400Y-10109500D01*
X17109900Y-11295100D02*
X29235200Y-11295100D01*
X15940000Y-8522800D02*
X15900000Y-8562800D01*
X29897400Y-10632900D02*
X29897400Y-10897400D01*
X12513800Y-15550800D02*
X10593800Y-17470800D01*
X10329800Y-12616000D02*
X9345000Y-13600800D01*
X33902700Y-10897400D02*
X33902700Y-9439600D01*
X11250000Y-11695800D02*
X12447700Y-11695800D01*
X30221200Y-11221200D02*
X33578900Y-11221200D01*
X5959600Y-9188500D02*
X6105400Y-9188500D01*
X16358800Y-12046200D02*
X17109900Y-11295100D01*
X5473100Y-9675000D02*
X5959600Y-9188500D01*
X24212500Y-2350000D02*
X24212500Y-3409600D01*
X38120000Y-9585800D02*
X37650000Y-9115800D01*
%TO.N,FB*%
X30635200Y-18490800D02*
X10593800Y-18490800D01*
X10749700Y-18646700D02*
X10593800Y-18490800D01*
X12866300Y-18646700D02*
X10749700Y-18646700D01*
X32532700Y-14050400D02*
X32070700Y-14512400D01*
X31037500Y-18088500D02*
X30635200Y-18490800D01*
X32532700Y-13407800D02*
X32532700Y-14050400D01*
X31890000Y-12765100D02*
X32532700Y-13407800D01*
X32070700Y-14512400D02*
X31975000Y-14512400D01*
X13725000Y-13600800D02*
X15208700Y-13600800D01*
%TO.N,VBAT*%
X37650000Y-5818500D02*
X29815300Y-5818500D01*
X12101700Y-2648700D02*
X12958500Y-1791900D01*
X16303200Y-10516000D02*
X28496400Y-10516000D01*
X5416300Y-1083700D02*
X10786500Y-1083700D01*
X10786500Y-1083700D02*
X11084200Y-1381400D01*
X28496400Y-10516000D02*
X28762500Y-10249900D01*
X29815300Y-9197100D02*
X29815300Y-5818500D01*
X23387100Y-5818500D02*
X23032100Y-5463500D01*
X28762500Y-10249900D02*
X29815300Y-9197100D01*
X13956100Y-10829700D02*
X13725000Y-11060800D01*
X15900000Y-10112800D02*
X16303200Y-10516000D01*
X16358800Y-14996200D02*
X16358800Y-13895400D01*
X16435400Y-10829700D02*
X16569100Y-10963400D01*
X15900000Y-10829700D02*
X15900000Y-10112800D01*
X11084200Y-1381400D02*
X11084200Y-1631200D01*
X12958500Y-1791900D02*
X17340900Y-1791900D01*
X15900000Y-10829700D02*
X16435400Y-10829700D01*
X11084200Y-1631200D02*
X12101700Y-2648700D01*
X1850000Y-4650000D02*
X5416300Y-1083700D01*
X29815300Y-5818500D02*
X23387100Y-5818500D01*
X15900000Y-10829700D02*
X13956100Y-10829700D01*
%TO.N,BST*%
X14372600Y-9143200D02*
X13725000Y-9790800D01*
X13702700Y-3332900D02*
X14372600Y-4002800D01*
X14372600Y-4002800D02*
X14372600Y-9143200D01*
%TO.N,EN*%
X10140200Y-14266800D02*
X10279400Y-14127600D01*
X8775000Y-12330800D02*
X8775000Y-11060800D01*
X12101700Y-1628700D02*
X12540200Y-1190200D01*
X36215100Y-14338600D02*
X33177900Y-14338600D01*
X38120000Y-16243500D02*
X36215100Y-14338600D01*
X7799000Y-14266800D02*
X10140200Y-14266800D01*
X17609400Y-1190200D02*
X18153200Y-1734000D01*
X7474500Y-13942300D02*
X7799000Y-14266800D01*
X8385000Y-12330800D02*
X7474500Y-13241300D01*
X8775000Y-12330800D02*
X8385000Y-12330800D01*
X7474500Y-13241300D02*
X7474500Y-13942300D01*
X12540200Y-1190200D02*
X17609400Y-1190200D01*
%TD*%
%TA.AperFunction,Conductor*%
%TO.N,GND*%
G36*
X35424992Y-6421874D02*
G01*
X35435118Y-6420610D01*
X35457951Y-6431552D01*
X35482241Y-6438685D01*
X35490598Y-6447198D01*
X35498126Y-6450806D01*
X35520739Y-6477900D01*
X35557288Y-6537156D01*
X35557289Y-6537157D01*
X35681344Y-6661212D01*
X35765718Y-6713254D01*
X35812443Y-6765202D01*
X35823666Y-6834164D01*
X35795822Y-6898247D01*
X35765720Y-6924331D01*
X35681656Y-6976182D01*
X35557684Y-7100154D01*
X35465643Y-7249375D01*
X35465641Y-7249380D01*
X35410494Y-7415802D01*
X35410493Y-7415809D01*
X35400000Y-7518513D01*
X35400000Y-7568500D01*
X37526000Y-7568500D01*
X37593039Y-7588185D01*
X37638794Y-7640989D01*
X37650000Y-7692500D01*
X37650000Y-7818500D01*
X37776000Y-7818500D01*
X37843039Y-7838185D01*
X37888794Y-7890989D01*
X37900000Y-7942500D01*
X37900000Y-8818499D01*
X39199972Y-8818499D01*
X39199986Y-8818498D01*
X39302697Y-8808005D01*
X39469119Y-8752858D01*
X39469130Y-8752853D01*
X39510403Y-8727396D01*
X39577795Y-8708955D01*
X39644459Y-8729877D01*
X39689229Y-8783519D01*
X39699500Y-8832934D01*
X39699500Y-19575500D01*
X39679815Y-19642539D01*
X39627011Y-19688294D01*
X39575500Y-19699500D01*
X31908534Y-19699500D01*
X31841495Y-19679815D01*
X31795740Y-19627011D01*
X31785796Y-19557853D01*
X31801801Y-19512380D01*
X31810369Y-19497893D01*
X31855165Y-19343704D01*
X31858000Y-19307681D01*
X31857999Y-19188595D01*
X31866644Y-19159151D01*
X31873167Y-19129169D01*
X31876919Y-19124155D01*
X31877683Y-19121557D01*
X31894313Y-19100920D01*
X32047306Y-18947928D01*
X32047311Y-18947924D01*
X32057514Y-18937720D01*
X32057516Y-18937720D01*
X32169320Y-18825916D01*
X32172119Y-18821067D01*
X32227137Y-18725774D01*
X32227140Y-18725765D01*
X32227146Y-18725757D01*
X32248377Y-18688985D01*
X32289300Y-18536258D01*
X32289300Y-18378143D01*
X32289300Y-15507943D01*
X32279938Y-15473001D01*
X32254913Y-15379607D01*
X32256576Y-15309759D01*
X32295738Y-15251896D01*
X32327236Y-15232953D01*
X32354179Y-15221794D01*
X32485289Y-15134189D01*
X32590545Y-15028932D01*
X32651866Y-14995449D01*
X32721558Y-15000433D01*
X32747116Y-15013513D01*
X32798714Y-15047990D01*
X32798727Y-15047997D01*
X32944398Y-15108335D01*
X32944403Y-15108337D01*
X33074369Y-15134189D01*
X33099053Y-15139099D01*
X33099056Y-15139100D01*
X33099058Y-15139100D01*
X33256744Y-15139100D01*
X33256745Y-15139099D01*
X33411397Y-15108337D01*
X33557079Y-15047994D01*
X33594951Y-15022689D01*
X33688775Y-14959998D01*
X33706821Y-14954347D01*
X33722731Y-14944123D01*
X33753692Y-14939671D01*
X33755453Y-14939120D01*
X33757666Y-14939100D01*
X33858114Y-14939100D01*
X33925153Y-14958785D01*
X33970908Y-15011589D01*
X33980852Y-15080747D01*
X33958433Y-15135985D01*
X33844948Y-15292184D01*
X33748444Y-15481585D01*
X33682753Y-15683760D01*
X33649500Y-15893713D01*
X33649500Y-16106286D01*
X33680450Y-16301700D01*
X33682754Y-16316243D01*
X33737446Y-16484568D01*
X33748444Y-16518414D01*
X33844951Y-16707820D01*
X33969890Y-16879786D01*
X34120213Y-17030109D01*
X34292179Y-17155048D01*
X34292181Y-17155049D01*
X34292184Y-17155051D01*
X34481588Y-17251557D01*
X34683757Y-17317246D01*
X34893713Y-17350500D01*
X34893714Y-17350500D01*
X35106286Y-17350500D01*
X35106287Y-17350500D01*
X35316243Y-17317246D01*
X35518412Y-17251557D01*
X35707816Y-17155051D01*
X35761052Y-17116373D01*
X35879786Y-17030109D01*
X35879788Y-17030106D01*
X35879792Y-17030104D01*
X36030104Y-16879792D01*
X36030106Y-16879788D01*
X36030109Y-16879786D01*
X36155048Y-16707820D01*
X36155047Y-16707820D01*
X36155051Y-16707816D01*
X36251557Y-16518412D01*
X36317246Y-16316243D01*
X36350500Y-16106287D01*
X36350500Y-15893713D01*
X36317246Y-15683757D01*
X36287323Y-15591666D01*
X36285329Y-15521830D01*
X36321409Y-15461997D01*
X36384109Y-15431168D01*
X36453524Y-15439132D01*
X36492936Y-15465671D01*
X37263181Y-16235916D01*
X37296666Y-16297239D01*
X37299500Y-16323596D01*
X37299500Y-16442668D01*
X37299501Y-16442692D01*
X37302335Y-16478705D01*
X37347129Y-16632888D01*
X37347131Y-16632893D01*
X37428863Y-16771095D01*
X37428869Y-16771103D01*
X37542396Y-16884630D01*
X37542400Y-16884633D01*
X37542402Y-16884635D01*
X37680607Y-16966369D01*
X37721268Y-16978182D01*
X37834791Y-17011164D01*
X37834794Y-17011164D01*
X37834796Y-17011165D01*
X37870819Y-17014000D01*
X38369180Y-17013999D01*
X38405204Y-17011165D01*
X38559393Y-16966369D01*
X38697598Y-16884635D01*
X38811135Y-16771098D01*
X38892869Y-16632893D01*
X38937665Y-16478704D01*
X38940500Y-16442681D01*
X38940499Y-16044320D01*
X38937665Y-16008296D01*
X38892869Y-15854107D01*
X38858581Y-15796129D01*
X38841398Y-15728405D01*
X38858582Y-15669886D01*
X38892404Y-15612696D01*
X38892405Y-15612694D01*
X38932844Y-15473500D01*
X38380409Y-15473500D01*
X38379933Y-15473499D01*
X38375295Y-15473481D01*
X38369181Y-15473000D01*
X38249882Y-15473000D01*
X38249621Y-15472999D01*
X38216352Y-15463091D01*
X38183058Y-15453315D01*
X38182784Y-15453094D01*
X38182658Y-15453057D01*
X38182477Y-15452847D01*
X38162416Y-15436681D01*
X38156319Y-15430584D01*
X38144108Y-15408222D01*
X38137106Y-15400078D01*
X38136226Y-15393786D01*
X38122834Y-15369261D01*
X38120000Y-15342903D01*
X38120000Y-15223500D01*
X38000597Y-15223500D01*
X37971156Y-15214855D01*
X37941170Y-15208332D01*
X37936154Y-15204577D01*
X37933558Y-15203815D01*
X37912916Y-15187181D01*
X37906319Y-15180584D01*
X37872834Y-15119261D01*
X37870000Y-15092903D01*
X37870000Y-14973500D01*
X38370000Y-14973500D01*
X38932844Y-14973500D01*
X38892404Y-14834305D01*
X38810738Y-14696214D01*
X38810731Y-14696205D01*
X38697294Y-14582768D01*
X38697285Y-14582761D01*
X38559191Y-14501093D01*
X38559188Y-14501092D01*
X38405130Y-14456334D01*
X38370000Y-14453568D01*
X38370000Y-14973500D01*
X37870000Y-14973500D01*
X37870000Y-14453568D01*
X37869999Y-14453568D01*
X37834869Y-14456334D01*
X37834868Y-14456334D01*
X37680811Y-14501092D01*
X37680808Y-14501093D01*
X37542714Y-14582761D01*
X37542704Y-14582769D01*
X37513284Y-14612189D01*
X37451960Y-14645674D01*
X37382269Y-14640688D01*
X37337923Y-14612188D01*
X36702690Y-13976955D01*
X36702688Y-13976952D01*
X36583817Y-13858081D01*
X36583809Y-13858075D01*
X36484738Y-13800877D01*
X36484736Y-13800876D01*
X36446890Y-13779025D01*
X36446889Y-13779024D01*
X36434363Y-13775667D01*
X36294157Y-13738099D01*
X36136043Y-13738099D01*
X36128447Y-13738099D01*
X36128431Y-13738100D01*
X33757666Y-13738100D01*
X33690627Y-13718415D01*
X33688775Y-13717202D01*
X33557085Y-13629209D01*
X33557072Y-13629202D01*
X33411401Y-13568864D01*
X33411389Y-13568861D01*
X33256746Y-13538100D01*
X33250682Y-13537503D01*
X33250808Y-13536223D01*
X33190161Y-13518415D01*
X33144406Y-13465611D01*
X33133200Y-13414100D01*
X33133200Y-13328746D01*
X33133200Y-13328743D01*
X33118934Y-13275500D01*
X33092277Y-13176015D01*
X33018907Y-13048935D01*
X33013220Y-13039084D01*
X32901416Y-12927280D01*
X32901413Y-12927278D01*
X32736819Y-12762684D01*
X32703334Y-12701361D01*
X32700500Y-12675003D01*
X32700500Y-12560417D01*
X32700499Y-12560402D01*
X32697643Y-12524108D01*
X32697642Y-12524102D01*
X32652495Y-12368709D01*
X32652494Y-12368706D01*
X32652494Y-12368705D01*
X32570117Y-12229413D01*
X32570115Y-12229411D01*
X32570112Y-12229407D01*
X32455692Y-12114987D01*
X32455684Y-12114981D01*
X32316393Y-12032605D01*
X32316390Y-12032604D01*
X32160997Y-11987457D01*
X32160991Y-11987456D01*
X32124697Y-11984600D01*
X32124690Y-11984600D01*
X31668899Y-11984600D01*
X31601860Y-11964915D01*
X31556105Y-11912111D01*
X31544899Y-11860600D01*
X31544899Y-11620629D01*
X31544898Y-11620623D01*
X31544897Y-11620616D01*
X31538491Y-11561017D01*
X31538491Y-11561016D01*
X31537979Y-11556253D01*
X31550386Y-11487494D01*
X31597997Y-11436357D01*
X31661269Y-11419000D01*
X33400003Y-11419000D01*
X33400008Y-11419000D01*
X33502797Y-11408499D01*
X33669334Y-11353314D01*
X33818655Y-11261211D01*
X33942711Y-11137155D01*
X34034814Y-10987834D01*
X34089999Y-10821297D01*
X34100500Y-10718508D01*
X34100500Y-9618492D01*
X34089999Y-9515703D01*
X34034814Y-9349166D01*
X34013636Y-9314832D01*
X33942713Y-9199848D01*
X33942710Y-9199844D01*
X33818655Y-9075789D01*
X33818651Y-9075786D01*
X33669337Y-8983687D01*
X33669335Y-8983686D01*
X33532181Y-8938238D01*
X33502797Y-8928501D01*
X33502795Y-8928500D01*
X33400015Y-8918000D01*
X33400008Y-8918000D01*
X30539800Y-8918000D01*
X30472761Y-8898315D01*
X30427006Y-8845511D01*
X30415800Y-8794000D01*
X30415800Y-8118486D01*
X35400001Y-8118486D01*
X35410494Y-8221197D01*
X35465641Y-8387619D01*
X35465643Y-8387624D01*
X35557684Y-8536845D01*
X35681654Y-8660815D01*
X35830875Y-8752856D01*
X35830880Y-8752858D01*
X35997302Y-8808005D01*
X35997309Y-8808006D01*
X36100019Y-8818499D01*
X37399999Y-8818499D01*
X37400000Y-8818498D01*
X37400000Y-8068500D01*
X35400001Y-8068500D01*
X35400001Y-8118486D01*
X30415800Y-8118486D01*
X30415800Y-6543000D01*
X30435485Y-6475961D01*
X30488289Y-6430206D01*
X30539800Y-6419000D01*
X35415202Y-6419000D01*
X35424992Y-6421874D01*
G37*
%TD.AperFunction*%
%TA.AperFunction,Conductor*%
G36*
X27751739Y-11136185D02*
G01*
X27797494Y-11188989D01*
X27807438Y-11258147D01*
X27783967Y-11314811D01*
X27700603Y-11426169D01*
X27700602Y-11426171D01*
X27650308Y-11561017D01*
X27644756Y-11612662D01*
X27643901Y-11620623D01*
X27643900Y-11620635D01*
X27643900Y-17116370D01*
X27643901Y-17116376D01*
X27650308Y-17175983D01*
X27700602Y-17310828D01*
X27700606Y-17310835D01*
X27786852Y-17426044D01*
X27786854Y-17426046D01*
X27902064Y-17512293D01*
X27902071Y-17512297D01*
X28036917Y-17562591D01*
X28036916Y-17562591D01*
X28043844Y-17563335D01*
X28096527Y-17569000D01*
X30137278Y-17568999D01*
X30162467Y-17576395D01*
X30188467Y-17580058D01*
X30195461Y-17586083D01*
X30204317Y-17588684D01*
X30221508Y-17608523D01*
X30241402Y-17625662D01*
X30244027Y-17634511D01*
X30250072Y-17641487D01*
X30253808Y-17667475D01*
X30261277Y-17692645D01*
X30259372Y-17706167D01*
X30260016Y-17710646D01*
X30256354Y-17727594D01*
X30235058Y-17800895D01*
X30197452Y-17859781D01*
X30133979Y-17888987D01*
X30115982Y-17890300D01*
X13156660Y-17890300D01*
X13109210Y-17880862D01*
X13099797Y-17876963D01*
X13099788Y-17876960D01*
X12945145Y-17846200D01*
X12945142Y-17846200D01*
X12787458Y-17846200D01*
X12787455Y-17846200D01*
X12632811Y-17876960D01*
X12632802Y-17876963D01*
X12623390Y-17880862D01*
X12615020Y-17881761D01*
X12607824Y-17886131D01*
X12575940Y-17890300D01*
X12349613Y-17890300D01*
X12282574Y-17870615D01*
X12236819Y-17817811D01*
X12226875Y-17748653D01*
X12255900Y-17685097D01*
X12302161Y-17651739D01*
X12399072Y-17611597D01*
X12399072Y-17611596D01*
X12399079Y-17611594D01*
X12451758Y-17576395D01*
X12530775Y-17523598D01*
X12550295Y-17517485D01*
X12567782Y-17506869D01*
X12582963Y-17507256D01*
X12597453Y-17502720D01*
X12599666Y-17502700D01*
X17074031Y-17502700D01*
X17074047Y-17502701D01*
X17081643Y-17502701D01*
X17239754Y-17502701D01*
X17239757Y-17502701D01*
X17392485Y-17461777D01*
X17454372Y-17426046D01*
X17529416Y-17382720D01*
X17619046Y-17293089D01*
X17624506Y-17288740D01*
X17650643Y-17278083D01*
X17675414Y-17264558D01*
X17682565Y-17265069D01*
X17689206Y-17262362D01*
X17716957Y-17267528D01*
X17745106Y-17269542D01*
X17750845Y-17273838D01*
X17757895Y-17275151D01*
X17778445Y-17294499D01*
X17801039Y-17311412D01*
X17886854Y-17426046D01*
X17893046Y-17430681D01*
X18002064Y-17512293D01*
X18002071Y-17512297D01*
X18136917Y-17562591D01*
X18136916Y-17562591D01*
X18143844Y-17563335D01*
X18196527Y-17569000D01*
X21192272Y-17568999D01*
X21251883Y-17562591D01*
X21386731Y-17512296D01*
X21501946Y-17426046D01*
X21588196Y-17310831D01*
X21638491Y-17175983D01*
X21644900Y-17116373D01*
X21644899Y-11620628D01*
X21638491Y-11561017D01*
X21636714Y-11556253D01*
X21588197Y-11426171D01*
X21588196Y-11426169D01*
X21573358Y-11406348D01*
X21504832Y-11314810D01*
X21480416Y-11249347D01*
X21495267Y-11181074D01*
X21544672Y-11131668D01*
X21604100Y-11116500D01*
X27684700Y-11116500D01*
X27751739Y-11136185D01*
G37*
%TD.AperFunction*%
%TA.AperFunction,Conductor*%
G36*
X8841685Y-1689000D02*
G01*
X9957500Y-1689000D01*
X10024539Y-1708685D01*
X10070294Y-1761489D01*
X10081500Y-1813000D01*
X10081500Y-2065000D01*
X10061815Y-2132039D01*
X10009011Y-2177794D01*
X9957500Y-2189000D01*
X8881501Y-2189000D01*
X8881501Y-2251486D01*
X8891994Y-2354197D01*
X8947141Y-2520619D01*
X8947143Y-2520624D01*
X9039184Y-2669845D01*
X9132804Y-2763465D01*
X9166289Y-2824788D01*
X9161305Y-2894480D01*
X9132805Y-2938827D01*
X9038787Y-3032845D01*
X8946687Y-3182163D01*
X8946686Y-3182166D01*
X8891501Y-3348703D01*
X8891501Y-3348704D01*
X8891500Y-3348704D01*
X8881000Y-3451483D01*
X8881000Y-4076501D01*
X8881001Y-4076519D01*
X8891500Y-4179296D01*
X8891501Y-4179299D01*
X8946686Y-4345834D01*
X8948441Y-4349597D01*
X8948870Y-4352424D01*
X8948958Y-4352689D01*
X8948912Y-4352703D01*
X8958932Y-4418675D01*
X8930411Y-4482458D01*
X8871933Y-4520697D01*
X8836058Y-4526000D01*
X8349998Y-4526000D01*
X8349980Y-4526001D01*
X8247203Y-4536500D01*
X8247200Y-4536501D01*
X8122851Y-4577707D01*
X8080666Y-4591686D01*
X8080664Y-4591686D01*
X8080664Y-4591687D01*
X8076396Y-4593677D01*
X8007318Y-4604164D01*
X7943536Y-4575640D01*
X7905300Y-4517161D01*
X7899999Y-4481291D01*
X7899999Y-3700028D01*
X7899998Y-3700013D01*
X7889505Y-3597302D01*
X7834358Y-3430880D01*
X7834356Y-3430875D01*
X7742315Y-3281654D01*
X7618345Y-3157684D01*
X7469124Y-3065643D01*
X7469119Y-3065641D01*
X7302697Y-3010494D01*
X7302690Y-3010493D01*
X7199986Y-3000000D01*
X6400000Y-3000000D01*
X6400000Y-6334038D01*
X6380315Y-6401077D01*
X6363681Y-6421719D01*
X6355400Y-6430000D01*
X6355400Y-7200000D01*
X7873116Y-7200000D01*
X7895404Y-7187829D01*
X7965096Y-7192811D01*
X7986853Y-7203450D01*
X8080666Y-7261314D01*
X8247203Y-7316499D01*
X8349991Y-7327000D01*
X9100008Y-7326999D01*
X9100016Y-7326998D01*
X9100019Y-7326998D01*
X9156302Y-7321248D01*
X9202797Y-7316499D01*
X9369334Y-7261314D01*
X9518656Y-7169212D01*
X9642712Y-7045156D01*
X9734814Y-6895834D01*
X9771178Y-6786094D01*
X9780438Y-6772719D01*
X9785158Y-6757151D01*
X9799914Y-6744588D01*
X9810949Y-6728651D01*
X9826512Y-6721945D01*
X9838360Y-6711859D01*
X9861217Y-6706991D01*
X9872310Y-6702212D01*
X9880556Y-6701100D01*
X9899042Y-6701100D01*
X9937964Y-6693357D01*
X9941774Y-6692844D01*
X9972640Y-6697558D01*
X10003744Y-6700341D01*
X10006897Y-6702790D01*
X10010843Y-6703393D01*
X10034260Y-6724045D01*
X10058923Y-6743203D01*
X10060506Y-6747193D01*
X10063245Y-6749608D01*
X10067727Y-6765385D01*
X10081285Y-6799539D01*
X10081997Y-6804949D01*
X10081999Y-6804956D01*
X10081999Y-6804957D01*
X10122923Y-6957685D01*
X10122924Y-6957687D01*
X10122923Y-6957687D01*
X10139852Y-6987007D01*
X10139854Y-6987009D01*
X10139855Y-6987011D01*
X10161854Y-7025114D01*
X10201979Y-7094615D01*
X10320849Y-7213485D01*
X10320855Y-7213490D01*
X11080539Y-7973174D01*
X11080549Y-7973185D01*
X11084879Y-7977515D01*
X11084880Y-7977516D01*
X11196684Y-8089320D01*
X11283495Y-8139439D01*
X11283497Y-8139441D01*
X11321551Y-8161411D01*
X11333615Y-8168377D01*
X11486343Y-8209300D01*
X11644457Y-8209300D01*
X12054234Y-8209300D01*
X12121273Y-8228985D01*
X12123125Y-8230198D01*
X12254814Y-8318190D01*
X12254827Y-8318197D01*
X12342230Y-8354399D01*
X12400503Y-8378537D01*
X12400510Y-8378538D01*
X12406336Y-8380306D01*
X12405930Y-8381643D01*
X12461589Y-8410747D01*
X12496172Y-8471458D01*
X12499500Y-8499990D01*
X12499500Y-8563436D01*
X12499501Y-8563455D01*
X12509650Y-8662807D01*
X12509651Y-8662810D01*
X12562996Y-8823794D01*
X12563001Y-8823805D01*
X12614437Y-8907194D01*
X12632878Y-8974586D01*
X12611956Y-9041249D01*
X12572020Y-9079023D01*
X12498138Y-9122716D01*
X12498129Y-9122723D01*
X12381923Y-9238929D01*
X12381917Y-9238937D01*
X12298255Y-9380403D01*
X12298254Y-9380406D01*
X12252402Y-9538226D01*
X12252401Y-9538232D01*
X12249500Y-9575098D01*
X12249500Y-10006501D01*
X12252401Y-10043367D01*
X12252402Y-10043373D01*
X12298254Y-10201193D01*
X12298255Y-10201196D01*
X12381917Y-10342662D01*
X12386702Y-10348831D01*
X12384256Y-10350727D01*
X12410857Y-10399442D01*
X12405873Y-10469134D01*
X12385069Y-10501503D01*
X12386702Y-10502769D01*
X12381917Y-10508937D01*
X12298255Y-10650403D01*
X12298254Y-10650406D01*
X12252402Y-10808226D01*
X12252401Y-10808232D01*
X12249500Y-10845098D01*
X12249500Y-11276501D01*
X12252401Y-11313367D01*
X12252402Y-11313373D01*
X12298254Y-11471193D01*
X12298255Y-11471196D01*
X12298256Y-11471198D01*
X12331429Y-11527291D01*
X12381917Y-11612662D01*
X12386702Y-11618831D01*
X12384256Y-11620727D01*
X12410857Y-11669442D01*
X12405873Y-11739134D01*
X12385069Y-11771503D01*
X12386702Y-11772769D01*
X12381917Y-11778937D01*
X12298255Y-11920403D01*
X12298254Y-11920406D01*
X12252402Y-12078226D01*
X12252401Y-12078232D01*
X12249500Y-12115098D01*
X12249500Y-12546501D01*
X12252401Y-12583367D01*
X12252402Y-12583373D01*
X12298254Y-12741193D01*
X12298255Y-12741196D01*
X12381917Y-12882662D01*
X12386702Y-12888831D01*
X12384256Y-12890727D01*
X12410857Y-12939442D01*
X12405873Y-13009134D01*
X12385069Y-13041503D01*
X12386702Y-13042769D01*
X12381917Y-13048937D01*
X12298255Y-13190403D01*
X12298254Y-13190406D01*
X12252402Y-13348226D01*
X12252401Y-13348232D01*
X12249500Y-13385098D01*
X12249500Y-13816501D01*
X12252401Y-13853367D01*
X12252402Y-13853373D01*
X12298254Y-14011193D01*
X12298255Y-14011196D01*
X12381917Y-14152662D01*
X12381923Y-14152670D01*
X12416814Y-14187561D01*
X12450299Y-14248884D01*
X12445315Y-14318576D01*
X12416815Y-14362922D01*
X12347284Y-14432454D01*
X12255243Y-14581675D01*
X12255241Y-14581680D01*
X12200094Y-14748102D01*
X12200093Y-14748108D01*
X12193058Y-14816964D01*
X12166661Y-14881655D01*
X12109479Y-14921805D01*
X12039668Y-14924667D01*
X11982019Y-14892040D01*
X11908592Y-14818613D01*
X11908588Y-14818610D01*
X11777485Y-14731009D01*
X11777472Y-14731002D01*
X11631801Y-14670664D01*
X11631789Y-14670661D01*
X11477145Y-14639900D01*
X11477142Y-14639900D01*
X11429663Y-14639900D01*
X11362624Y-14620215D01*
X11324124Y-14580996D01*
X11232312Y-14432144D01*
X11114607Y-14314439D01*
X11081122Y-14253116D01*
X11080765Y-14212650D01*
X11079303Y-14212507D01*
X11079900Y-14206444D01*
X11079900Y-14048755D01*
X11079899Y-14048753D01*
X11049137Y-13894103D01*
X11040993Y-13874442D01*
X10988797Y-13748427D01*
X10988790Y-13748414D01*
X10901189Y-13617311D01*
X10901186Y-13617307D01*
X10789692Y-13505813D01*
X10789688Y-13505810D01*
X10658585Y-13418209D01*
X10658572Y-13418202D01*
X10512901Y-13357864D01*
X10512889Y-13357861D01*
X10358245Y-13327100D01*
X10358242Y-13327100D01*
X10334040Y-13327100D01*
X10267001Y-13307415D01*
X10221246Y-13254611D01*
X10214964Y-13237695D01*
X10201283Y-13190606D01*
X10201281Y-13190601D01*
X10117685Y-13049247D01*
X10112900Y-13043078D01*
X10115366Y-13041164D01*
X10088802Y-12992576D01*
X10093749Y-12922882D01*
X10114856Y-12890032D01*
X10113301Y-12888826D01*
X10118077Y-12882668D01*
X10118081Y-12882665D01*
X10201744Y-12741198D01*
X10247598Y-12583369D01*
X10250500Y-12546494D01*
X10250500Y-12115106D01*
X10247598Y-12078231D01*
X10234342Y-12032605D01*
X10201745Y-11920406D01*
X10201744Y-11920403D01*
X10201744Y-11920402D01*
X10118081Y-11778935D01*
X10118078Y-11778932D01*
X10113298Y-11772769D01*
X10115750Y-11770866D01*
X10089155Y-11722221D01*
X10094104Y-11652526D01*
X10114940Y-11620104D01*
X10113298Y-11618831D01*
X10118075Y-11612670D01*
X10118081Y-11612665D01*
X10201744Y-11471198D01*
X10247598Y-11313369D01*
X10250500Y-11276494D01*
X10250500Y-10845106D01*
X10247598Y-10808231D01*
X10201744Y-10650402D01*
X10118081Y-10508935D01*
X10118078Y-10508932D01*
X10113298Y-10502769D01*
X10115750Y-10500866D01*
X10089155Y-10452221D01*
X10094104Y-10382526D01*
X10114940Y-10350104D01*
X10113298Y-10348831D01*
X10118075Y-10342670D01*
X10118081Y-10342665D01*
X10201744Y-10201198D01*
X10247598Y-10043369D01*
X10250500Y-10006494D01*
X10250500Y-9575106D01*
X10247598Y-9538231D01*
X10241053Y-9515704D01*
X10213836Y-9422024D01*
X10201744Y-9380402D01*
X10118081Y-9238935D01*
X10118079Y-9238933D01*
X10118076Y-9238929D01*
X10001870Y-9122723D01*
X10001862Y-9122717D01*
X9902816Y-9064142D01*
X9860398Y-9039056D01*
X9860397Y-9039055D01*
X9860396Y-9039055D01*
X9860393Y-9039054D01*
X9702573Y-8993202D01*
X9702567Y-8993201D01*
X9665701Y-8990300D01*
X9665694Y-8990300D01*
X7884306Y-8990300D01*
X7884298Y-8990300D01*
X7847432Y-8993201D01*
X7847426Y-8993202D01*
X7689606Y-9039054D01*
X7689603Y-9039055D01*
X7548137Y-9122717D01*
X7548128Y-9122724D01*
X7494814Y-9176038D01*
X7465567Y-9192007D01*
X7436740Y-9208770D01*
X7435009Y-9208692D01*
X7433491Y-9209522D01*
X7400263Y-9207145D01*
X7366940Y-9205661D01*
X7365525Y-9204660D01*
X7363799Y-9204537D01*
X7337098Y-9184549D01*
X7309901Y-9165308D01*
X7308888Y-9163431D01*
X7307866Y-9162666D01*
X7292159Y-9134797D01*
X7232450Y-8986976D01*
X7230009Y-8962226D01*
X7223446Y-8938238D01*
X7226640Y-8928059D01*
X7225594Y-8917444D01*
X7236921Y-8895304D01*
X7244369Y-8871575D01*
X7252559Y-8864739D01*
X7257418Y-8855243D01*
X7278916Y-8842742D01*
X7298011Y-8826806D01*
X7308422Y-8822829D01*
X7424517Y-8784359D01*
X7424524Y-8784356D01*
X7573745Y-8692315D01*
X7697715Y-8568345D01*
X7789756Y-8419124D01*
X7789758Y-8419119D01*
X7844905Y-8252697D01*
X7844906Y-8252690D01*
X7855399Y-8149986D01*
X7855400Y-8149973D01*
X7855400Y-7700000D01*
X4355401Y-7700000D01*
X4355401Y-8149986D01*
X4365894Y-8252697D01*
X4421044Y-8419127D01*
X4423406Y-8424193D01*
X4433894Y-8493271D01*
X4405370Y-8557053D01*
X4346892Y-8595289D01*
X4323623Y-8599949D01*
X4220403Y-8610494D01*
X4053980Y-8665641D01*
X4053975Y-8665643D01*
X3904754Y-8757684D01*
X3780783Y-8881655D01*
X3780780Y-8881659D01*
X3688235Y-9031697D01*
X3670944Y-9047248D01*
X3657007Y-9065867D01*
X3645455Y-9070175D01*
X3636287Y-9078422D01*
X3613332Y-9082156D01*
X3591543Y-9090284D01*
X3579493Y-9087662D01*
X3567324Y-9089643D01*
X3545994Y-9080375D01*
X3523270Y-9075432D01*
X3507574Y-9063682D01*
X3503242Y-9061800D01*
X3495016Y-9054281D01*
X3412428Y-8971693D01*
X3378943Y-8910370D01*
X3383927Y-8840678D01*
X3425799Y-8784745D01*
X3434998Y-8778482D01*
X3574056Y-8692712D01*
X3698112Y-8568656D01*
X3790214Y-8419334D01*
X3845399Y-8252797D01*
X3855900Y-8150009D01*
X3855899Y-6750013D01*
X4355400Y-6750013D01*
X4355400Y-7200000D01*
X5855400Y-7200000D01*
X5855400Y-6015962D01*
X5875085Y-5948923D01*
X5891719Y-5928281D01*
X5900000Y-5920000D01*
X5900000Y-4900000D01*
X4400001Y-4900000D01*
X4400001Y-5599986D01*
X4410494Y-5702697D01*
X4465641Y-5869119D01*
X4465643Y-5869124D01*
X4557684Y-6018345D01*
X4604358Y-6065019D01*
X4637843Y-6126342D01*
X4632859Y-6196034D01*
X4604358Y-6240381D01*
X4513084Y-6331654D01*
X4421043Y-6480875D01*
X4421041Y-6480880D01*
X4365894Y-6647302D01*
X4365893Y-6647309D01*
X4355400Y-6750013D01*
X3855899Y-6750013D01*
X3855899Y-6749992D01*
X3855205Y-6743203D01*
X3845399Y-6647203D01*
X3845398Y-6647200D01*
X3790214Y-6480666D01*
X3698112Y-6331344D01*
X3574056Y-6207288D01*
X3574055Y-6207287D01*
X3500165Y-6161712D01*
X3453440Y-6109764D01*
X3442217Y-6040802D01*
X3459720Y-5991081D01*
X3534814Y-5869334D01*
X3589999Y-5702797D01*
X3600500Y-5600009D01*
X3600499Y-3800095D01*
X3609143Y-3770655D01*
X3615667Y-3740669D01*
X3619421Y-3735653D01*
X3620184Y-3733057D01*
X3636813Y-3712420D01*
X3649220Y-3700013D01*
X4400000Y-3700013D01*
X4400000Y-4400000D01*
X5900000Y-4400000D01*
X5900000Y-3000000D01*
X5100028Y-3000000D01*
X5100012Y-3000001D01*
X4997302Y-3010494D01*
X4830880Y-3065641D01*
X4830875Y-3065643D01*
X4681654Y-3157684D01*
X4557684Y-3281654D01*
X4465643Y-3430875D01*
X4465641Y-3430880D01*
X4410494Y-3597302D01*
X4410493Y-3597309D01*
X4400000Y-3700013D01*
X3649220Y-3700013D01*
X5628716Y-1720519D01*
X5690039Y-1687034D01*
X5716397Y-1684200D01*
X8825338Y-1684200D01*
X8841685Y-1689000D01*
G37*
%TD.AperFunction*%
%TA.AperFunction,Conductor*%
G36*
X21521581Y-4484510D02*
G01*
X21551156Y-4483963D01*
X21558490Y-4487149D01*
X21561763Y-4487384D01*
X21583526Y-4498028D01*
X21643157Y-4534809D01*
X21643160Y-4534810D01*
X21643166Y-4534814D01*
X21809703Y-4589999D01*
X21912491Y-4600500D01*
X22474036Y-4600499D01*
X22541075Y-4620183D01*
X22586830Y-4672987D01*
X22596774Y-4742146D01*
X22567749Y-4805702D01*
X22542928Y-4827600D01*
X22521813Y-4841708D01*
X22521807Y-4841713D01*
X22410313Y-4953207D01*
X22410310Y-4953211D01*
X22322709Y-5084314D01*
X22322702Y-5084327D01*
X22262364Y-5229998D01*
X22262361Y-5230010D01*
X22231600Y-5384653D01*
X22231600Y-5542346D01*
X22262361Y-5696989D01*
X22262364Y-5697001D01*
X22322702Y-5842672D01*
X22322709Y-5842685D01*
X22410310Y-5973788D01*
X22410313Y-5973792D01*
X22521807Y-6085286D01*
X22521811Y-6085289D01*
X22652914Y-6172890D01*
X22652927Y-6172897D01*
X22743626Y-6210465D01*
X22798603Y-6233237D01*
X22953258Y-6264000D01*
X22953947Y-6264137D01*
X22995391Y-6280549D01*
X23007413Y-6288049D01*
X23018384Y-6299020D01*
X23105195Y-6349139D01*
X23107037Y-6350202D01*
X23107049Y-6350210D01*
X23139466Y-6368926D01*
X23155315Y-6378077D01*
X23308043Y-6419001D01*
X23308046Y-6419001D01*
X23473753Y-6419001D01*
X23473769Y-6419000D01*
X25193177Y-6419000D01*
X25260216Y-6438685D01*
X25305971Y-6491489D01*
X25316535Y-6555603D01*
X25312000Y-6599984D01*
X25312000Y-9600015D01*
X25322500Y-9702795D01*
X25338970Y-9752496D01*
X25341372Y-9822324D01*
X25305640Y-9882366D01*
X25243120Y-9913559D01*
X25221264Y-9915500D01*
X19203736Y-9915500D01*
X19136697Y-9895815D01*
X19090942Y-9843011D01*
X19080998Y-9773853D01*
X19086030Y-9752496D01*
X19102499Y-9702797D01*
X19113000Y-9600008D01*
X19113000Y-6599992D01*
X19102499Y-6497203D01*
X19047314Y-6330666D01*
X19027794Y-6299020D01*
X18955213Y-6181348D01*
X18955210Y-6181344D01*
X18831155Y-6057289D01*
X18831151Y-6057286D01*
X18681837Y-5965187D01*
X18681835Y-5965186D01*
X18570462Y-5928281D01*
X18515297Y-5910001D01*
X18515295Y-5910000D01*
X18412515Y-5899500D01*
X18412508Y-5899500D01*
X17312492Y-5899500D01*
X17312488Y-5899500D01*
X17312472Y-5899501D01*
X17290777Y-5901717D01*
X17222085Y-5888946D01*
X17171202Y-5841064D01*
X17154283Y-5773273D01*
X17176701Y-5707098D01*
X17179812Y-5702861D01*
X17181913Y-5700122D01*
X17181920Y-5700116D01*
X17247391Y-5586716D01*
X17258736Y-5567065D01*
X17268215Y-5558027D01*
X17273870Y-5546210D01*
X17293013Y-5534384D01*
X17309301Y-5518856D01*
X17322166Y-5516376D01*
X17333314Y-5509491D01*
X17355812Y-5509892D01*
X17377908Y-5505635D01*
X17391662Y-5510533D01*
X17403172Y-5510739D01*
X17435005Y-5525969D01*
X17488921Y-5561994D01*
X17488923Y-5561995D01*
X17488927Y-5561997D01*
X17634598Y-5622335D01*
X17634603Y-5622337D01*
X17689342Y-5633225D01*
X17781211Y-5651500D01*
X17781214Y-5651500D01*
X17789258Y-5653100D01*
X17946942Y-5653100D01*
X17954986Y-5651500D01*
X17954989Y-5651500D01*
X18032237Y-5636133D01*
X18101597Y-5622337D01*
X18214266Y-5575667D01*
X18247272Y-5561997D01*
X18247272Y-5561996D01*
X18247279Y-5561994D01*
X18253216Y-5558027D01*
X18378975Y-5473998D01*
X18445653Y-5453120D01*
X18447866Y-5453100D01*
X20158131Y-5453100D01*
X20158147Y-5453101D01*
X20165743Y-5453101D01*
X20323854Y-5453101D01*
X20323857Y-5453101D01*
X20476585Y-5412177D01*
X20526704Y-5383239D01*
X20613516Y-5333120D01*
X20725320Y-5221316D01*
X20725320Y-5221314D01*
X20735528Y-5211107D01*
X20735530Y-5211104D01*
X21430750Y-4515883D01*
X21456710Y-4501708D01*
X21481298Y-4485256D01*
X21487035Y-4485149D01*
X21492071Y-4482400D01*
X21521581Y-4484510D01*
G37*
%TD.AperFunction*%
%TA.AperFunction,Conductor*%
G36*
X16133039Y-7072485D02*
G01*
X16178794Y-7125289D01*
X16190000Y-7176800D01*
X16190000Y-7901438D01*
X16170315Y-7968477D01*
X16153681Y-7989119D01*
X16150000Y-7992800D01*
X16150000Y-8438800D01*
X16130315Y-8505839D01*
X16077511Y-8551594D01*
X16026000Y-8562800D01*
X15774000Y-8562800D01*
X15706961Y-8543115D01*
X15661206Y-8490311D01*
X15650000Y-8438800D01*
X15650000Y-7618788D01*
X15667267Y-7555668D01*
X15712494Y-7479195D01*
X15753051Y-7339600D01*
X15757642Y-7323797D01*
X15757643Y-7323791D01*
X15758564Y-7312092D01*
X15760500Y-7287490D01*
X15760500Y-7176800D01*
X15763050Y-7168114D01*
X15761762Y-7159153D01*
X15772740Y-7135112D01*
X15780185Y-7109761D01*
X15787025Y-7103833D01*
X15790787Y-7095597D01*
X15813021Y-7081307D01*
X15832989Y-7064006D01*
X15843503Y-7061718D01*
X15849565Y-7057823D01*
X15884500Y-7052800D01*
X16066000Y-7052800D01*
X16133039Y-7072485D01*
G37*
%TD.AperFunction*%
%TA.AperFunction,Conductor*%
G36*
X13249713Y-5009667D02*
G01*
X13276305Y-5025394D01*
X13317287Y-5037300D01*
X13431702Y-5070542D01*
X13431705Y-5070542D01*
X13431707Y-5070543D01*
X13468010Y-5073400D01*
X13648100Y-5073400D01*
X13715139Y-5093085D01*
X13760894Y-5145889D01*
X13772100Y-5197400D01*
X13772100Y-5691638D01*
X13752415Y-5758677D01*
X13735781Y-5779319D01*
X13725000Y-5790100D01*
X13725000Y-6616100D01*
X13705315Y-6683139D01*
X13652511Y-6728894D01*
X13601000Y-6740100D01*
X13349000Y-6740100D01*
X13281961Y-6720415D01*
X13236206Y-6667611D01*
X13225000Y-6616100D01*
X13225000Y-5790100D01*
X13224999Y-5790099D01*
X13176693Y-5790100D01*
X13176675Y-5790101D01*
X13077392Y-5800244D01*
X12913003Y-5854717D01*
X12843174Y-5857119D01*
X12783132Y-5821387D01*
X12751940Y-5758866D01*
X12749999Y-5737011D01*
X12749999Y-5226528D01*
X12749998Y-5226513D01*
X12740037Y-5129002D01*
X12752807Y-5060309D01*
X12800687Y-5009425D01*
X12863395Y-4992400D01*
X13186593Y-4992400D01*
X13249713Y-5009667D01*
G37*
%TD.AperFunction*%
%TA.AperFunction,Conductor*%
G36*
X39642539Y-320185D02*
G01*
X39688294Y-372989D01*
X39699500Y-424500D01*
X39699500Y-4803478D01*
X39679815Y-4870517D01*
X39627011Y-4916272D01*
X39557853Y-4926216D01*
X39510405Y-4909018D01*
X39487912Y-4895145D01*
X39469334Y-4883686D01*
X39302797Y-4828501D01*
X39302795Y-4828500D01*
X39200010Y-4818000D01*
X36099998Y-4818000D01*
X36099981Y-4818001D01*
X35997203Y-4828500D01*
X35997200Y-4828501D01*
X35830668Y-4883685D01*
X35830663Y-4883687D01*
X35681342Y-4975789D01*
X35557289Y-5099842D01*
X35544624Y-5120374D01*
X35528888Y-5145889D01*
X35520741Y-5159097D01*
X35468793Y-5205821D01*
X35415202Y-5218000D01*
X23879719Y-5218000D01*
X23812680Y-5198315D01*
X23766925Y-5145511D01*
X23765158Y-5141452D01*
X23748524Y-5101294D01*
X23741494Y-5084321D01*
X23741492Y-5084319D01*
X23741492Y-5084317D01*
X23653889Y-4953211D01*
X23653886Y-4953207D01*
X23542392Y-4841713D01*
X23542388Y-4841710D01*
X23411285Y-4754109D01*
X23411272Y-4754102D01*
X23265601Y-4693764D01*
X23265589Y-4693761D01*
X23110945Y-4663000D01*
X23110942Y-4663000D01*
X23009304Y-4663000D01*
X22942265Y-4643315D01*
X22896510Y-4590511D01*
X22886566Y-4521353D01*
X22915591Y-4457797D01*
X22926517Y-4447350D01*
X22931153Y-4442713D01*
X22931156Y-4442712D01*
X23055212Y-4318656D01*
X23107255Y-4234279D01*
X23159201Y-4187556D01*
X23228164Y-4176333D01*
X23292246Y-4204176D01*
X23318331Y-4234280D01*
X23370180Y-4318340D01*
X23370183Y-4318344D01*
X23494154Y-4442315D01*
X23643375Y-4534356D01*
X23643380Y-4534358D01*
X23809802Y-4589505D01*
X23809809Y-4589506D01*
X23912519Y-4599999D01*
X24462500Y-4599999D01*
X24512472Y-4599999D01*
X24512486Y-4599998D01*
X24615197Y-4589505D01*
X24781619Y-4534358D01*
X24781624Y-4534356D01*
X24930845Y-4442315D01*
X25054815Y-4318345D01*
X25146856Y-4169124D01*
X25146858Y-4169119D01*
X25202005Y-4002697D01*
X25202006Y-4002690D01*
X25212499Y-3899986D01*
X25212500Y-3899973D01*
X25212500Y-2918484D01*
X29699500Y-2918484D01*
X29699500Y-4018515D01*
X29710000Y-4121295D01*
X29710001Y-4121297D01*
X29725848Y-4169119D01*
X29765186Y-4287835D01*
X29765187Y-4287837D01*
X29857286Y-4437151D01*
X29857289Y-4437155D01*
X29981344Y-4561210D01*
X29981348Y-4561213D01*
X30130662Y-4653312D01*
X30130664Y-4653313D01*
X30130666Y-4653314D01*
X30297203Y-4708499D01*
X30399992Y-4719000D01*
X30399997Y-4719000D01*
X33400003Y-4719000D01*
X33400008Y-4719000D01*
X33502797Y-4708499D01*
X33669334Y-4653314D01*
X33818655Y-4561211D01*
X33942711Y-4437155D01*
X34034814Y-4287834D01*
X34089999Y-4121297D01*
X34100500Y-4018508D01*
X34100500Y-2918492D01*
X34089999Y-2815703D01*
X34034814Y-2649166D01*
X33999799Y-2592399D01*
X33942713Y-2499848D01*
X33942710Y-2499844D01*
X33818655Y-2375789D01*
X33818651Y-2375786D01*
X33669337Y-2283687D01*
X33669335Y-2283686D01*
X33550442Y-2244289D01*
X33502797Y-2228501D01*
X33502795Y-2228500D01*
X33400015Y-2218000D01*
X33400008Y-2218000D01*
X30399992Y-2218000D01*
X30399984Y-2218000D01*
X30297204Y-2228500D01*
X30297203Y-2228501D01*
X30130664Y-2283686D01*
X30130662Y-2283687D01*
X29981348Y-2375786D01*
X29981344Y-2375789D01*
X29857289Y-2499844D01*
X29857286Y-2499848D01*
X29765187Y-2649162D01*
X29765186Y-2649164D01*
X29710001Y-2815703D01*
X29710000Y-2815704D01*
X29699500Y-2918484D01*
X25212500Y-2918484D01*
X25212500Y-2600000D01*
X24462500Y-2600000D01*
X24462500Y-4599999D01*
X23912519Y-4599999D01*
X23962499Y-4599998D01*
X23962500Y-4599998D01*
X23962500Y-2474000D01*
X23982185Y-2406961D01*
X24034989Y-2361206D01*
X24086500Y-2350000D01*
X24212500Y-2350000D01*
X24212500Y-2224000D01*
X24232185Y-2156961D01*
X24284989Y-2111206D01*
X24336500Y-2100000D01*
X25212499Y-2100000D01*
X25212499Y-800028D01*
X25212498Y-800013D01*
X25202005Y-697302D01*
X25146858Y-530880D01*
X25146853Y-530869D01*
X25121396Y-489597D01*
X25102955Y-422205D01*
X25123877Y-355541D01*
X25177519Y-310771D01*
X25226934Y-300500D01*
X39575500Y-300500D01*
X39642539Y-320185D01*
G37*
%TD.AperFunction*%
%TA.AperFunction,Conductor*%
G36*
X11466099Y-3234456D02*
G01*
X11482521Y-3248255D01*
X11524096Y-3289830D01*
X11524100Y-3289833D01*
X11524102Y-3289835D01*
X11662307Y-3371569D01*
X11702968Y-3383382D01*
X11816491Y-3416364D01*
X11816494Y-3416364D01*
X11816496Y-3416365D01*
X11852519Y-3419200D01*
X11854946Y-3419391D01*
X11854895Y-3420038D01*
X11918607Y-3441480D01*
X11962267Y-3496030D01*
X11969504Y-3565524D01*
X11938021Y-3627898D01*
X11895001Y-3657661D01*
X11835024Y-3682504D01*
X11835014Y-3682509D01*
X11703911Y-3770110D01*
X11703907Y-3770113D01*
X11592413Y-3881607D01*
X11509101Y-4006291D01*
X11455488Y-4051095D01*
X11386163Y-4059802D01*
X11323136Y-4029647D01*
X11286417Y-3970203D01*
X11281999Y-3937404D01*
X11281999Y-3451492D01*
X11279893Y-3430880D01*
X11271482Y-3348537D01*
X11284252Y-3279845D01*
X11332133Y-3228960D01*
X11399922Y-3212040D01*
X11466099Y-3234456D01*
G37*
%TD.AperFunction*%
%TD*%
M02*
