M48
; DRILL file KiCad 10.0.3 date 2026-06-21T23:39:41
; FORMAT={-:-/ absolute / metric / decimal}
; #@! TF.CreationDate,2026-06-21T23:39:41-07:00
; #@! TF.GenerationSoftware,Kicad,Pcbnew,10.0.3
; #@! TF.FileFunction,MixedPlating,1,2
FMAT,2
METRIC
; #@! TA.AperFunction,Plated,PTH,ViaDrill
T1C0.300
; #@! TA.AperFunction,NonPlated,NPTH,ComponentDrill
T2C2.200
%
G90
G05
T1
X1.85Y-4.65
X5.473Y-12.625
X6.721Y-10.786
X9.82Y-5.901
X10.279Y-14.128
X11.398Y-15.44
X12.02Y-16.902
X12.214Y-4.392
X12.634Y-7.609
X12.866Y-18.647
X12.97Y-2.751
X15.209Y-13.601
X16.359Y-13.895
X16.569Y-10.963
X17.341Y-1.792
X17.868Y-4.853
X18.153Y-1.734
X23.032Y-5.463
X27.964Y-7.404
X31.975Y-14.512
X33.178Y-14.339
T2
X5.0Y-16.0
X35.0Y-16.0
M30
