%TF.GenerationSoftware,KiCad,Pcbnew,10.0.3*%
%TF.CreationDate,2026-06-22T06:45:46-07:00*%
%TF.ProjectId,brickdup_psu,62726963-6b64-4757-905f-7073752e6b69,rev?*%
%TF.SameCoordinates,Original*%
%TF.FileFunction,Copper,L2,Bot*%
%TF.FilePolarity,Positive*%
%FSLAX46Y46*%
G04 Gerber Fmt 4.6, Leading zero omitted, Abs format (unit mm)*
G04 Created by KiCad (PCBNEW 10.0.3) date 2026-06-22 06:45:46*
%MOMM*%
%LPD*%
G01*
G04 APERTURE LIST*
%TA.AperFunction,ViaPad*%
%ADD10C,0.600000*%
%TD*%
%TA.AperFunction,Conductor*%
%ADD11C,0.200000*%
%TD*%
G04 APERTURE END LIST*
D10*
%TO.N,VBAT*%
X19501700Y-5255200D03*
X23246600Y-18684600D03*
X31310700Y-4340300D03*
%TO.N,GND*%
X22554700Y-14709100D03*
X12347700Y-6535900D03*
X25815400Y-16089400D03*
%TO.N,SENSE*%
X10130000Y-4623500D03*
X16640300Y-13134500D03*
X22989600Y-17607600D03*
%TO.N,+5V*%
X11395900Y-5231000D03*
X22781700Y-9876300D03*
%TO.N,FB*%
X28608000Y-8629700D03*
X25242700Y-14867000D03*
%TO.N,SW*%
X15538400Y-13899000D03*
X15990700Y-11903300D03*
%TO.N,BST*%
X21103300Y-14573200D03*
X27887000Y-4841700D03*
%TO.N,EN*%
X12754000Y-15548700D03*
X6279500Y-1211600D03*
X25528100Y-17749600D03*
%TD*%
%TO.N,VBAT*%
D11*
X29216700Y-4340300D02*
X31310700Y-4340300D01*
X20563500Y-4193400D02*
X29069800Y-4193400D01*
X29216700Y-4340300D02*
X29216700Y-15665600D01*
X19501700Y-5255200D02*
X20563500Y-4193400D01*
X26112500Y-18769800D02*
X23331800Y-18769800D01*
X23331800Y-18769800D02*
X23246600Y-18684600D01*
X29216700Y-15665600D02*
X26112500Y-18769800D01*
X29069800Y-4193400D02*
X29216700Y-4340300D01*
%TO.N,GND*%
X22554700Y-14709100D02*
X24234000Y-14709100D01*
X12347700Y-6762100D02*
X20796300Y-15210700D01*
X24234000Y-14709100D02*
X25614300Y-16089400D01*
X20796300Y-15210700D02*
X22053100Y-15210700D01*
X22053100Y-15210700D02*
X22554700Y-14709100D01*
X12347700Y-6535900D02*
X12347700Y-6762100D01*
X25614300Y-16089400D02*
X25815400Y-16089400D01*
%TO.N,SENSE*%
X10130000Y-5191400D02*
X16775700Y-11837100D01*
X24653600Y-18358400D02*
X24652100Y-18359900D01*
X16640300Y-13134500D02*
X16775700Y-12999100D01*
X23464900Y-18082900D02*
X22989600Y-17607600D01*
X16775700Y-11837100D02*
X16775700Y-12999100D01*
X24341800Y-15712400D02*
X26162700Y-17533300D01*
X25883100Y-18358400D02*
X24653600Y-18358400D01*
X23772800Y-18359900D02*
X23495800Y-18082900D01*
X10130000Y-4623500D02*
X10130000Y-5191400D01*
X16775700Y-12999100D02*
X19489000Y-15712400D01*
X23495800Y-18082900D02*
X23464900Y-18082900D01*
X26162700Y-17533300D02*
X26162700Y-18078800D01*
X19489000Y-15712400D02*
X24341800Y-15712400D01*
X24652100Y-18359900D02*
X23772800Y-18359900D01*
X26162700Y-18078800D02*
X25883100Y-18358400D01*
%TO.N,+5V*%
X18136400Y-5231000D02*
X11395900Y-5231000D01*
X22781700Y-9876300D02*
X18136400Y-5231000D01*
%TO.N,FB*%
X28441700Y-9888200D02*
X28206300Y-10123600D01*
X28608000Y-9888200D02*
X28441700Y-9888200D01*
X27253300Y-12856400D02*
X25242700Y-14867000D01*
X28608000Y-8629700D02*
X28608000Y-9888200D01*
X28206300Y-11834000D02*
X28240000Y-11867600D01*
X28206300Y-10123600D02*
X28206300Y-11834000D01*
X28240000Y-11867600D02*
X27253300Y-12854300D01*
X27253300Y-12854300D02*
X27253300Y-12856400D01*
%TO.N,SW*%
X15990700Y-11903300D02*
X15538400Y-12355600D01*
X15538400Y-12355600D02*
X15538400Y-13899000D01*
%TO.N,BST*%
X27887000Y-7789500D02*
X21103300Y-14573200D01*
X27887000Y-4841700D02*
X27887000Y-7789500D01*
%TO.N,EN*%
X6279500Y-9074200D02*
X6279500Y-1211600D01*
X12754000Y-15548700D02*
X6279500Y-9074200D01*
X23892700Y-16114200D02*
X25528100Y-17749600D01*
X13319500Y-16114200D02*
X23892700Y-16114200D01*
X12754000Y-15548700D02*
X13319500Y-16114200D01*
%TD*%
%TA.AperFunction,Conductor*%
%TO.N,GND*%
G36*
X28535534Y-12523814D02*
G01*
X28591467Y-12565686D01*
X28615884Y-12631150D01*
X28616200Y-12639996D01*
X28616200Y-15365502D01*
X28596515Y-15432541D01*
X28579881Y-15453183D01*
X26839939Y-17193124D01*
X26778616Y-17226609D01*
X26708924Y-17221625D01*
X26662374Y-17190865D01*
X26652231Y-17180193D01*
X26643220Y-17164584D01*
X26531416Y-17052780D01*
X26531413Y-17052778D01*
X25339276Y-15860641D01*
X25305791Y-15799318D01*
X25310775Y-15729626D01*
X25352647Y-15673693D01*
X25402762Y-15651344D01*
X25476197Y-15636737D01*
X25597389Y-15586538D01*
X25621872Y-15576397D01*
X25621872Y-15576396D01*
X25621879Y-15576394D01*
X25752989Y-15488789D01*
X25864489Y-15377289D01*
X25952094Y-15246179D01*
X26012437Y-15100497D01*
X26035473Y-14984690D01*
X26043338Y-14945150D01*
X26075723Y-14883239D01*
X26077217Y-14881717D01*
X27733820Y-13225116D01*
X27733823Y-13225109D01*
X27735795Y-13222541D01*
X27746493Y-13210340D01*
X28404519Y-12552315D01*
X28465842Y-12518830D01*
X28535534Y-12523814D01*
G37*
%TD.AperFunction*%
%TA.AperFunction,Conductor*%
G36*
X27029539Y-4813585D02*
G01*
X27075294Y-4866389D01*
X27085759Y-4914496D01*
X27085903Y-4914482D01*
X27086024Y-4915712D01*
X27086500Y-4917900D01*
X27086500Y-4920546D01*
X27117261Y-5075189D01*
X27117264Y-5075201D01*
X27177602Y-5220872D01*
X27177609Y-5220885D01*
X27265602Y-5352574D01*
X27286480Y-5419251D01*
X27286500Y-5421465D01*
X27286500Y-7489402D01*
X27266815Y-7556441D01*
X27250181Y-7577083D01*
X21088639Y-13738625D01*
X21027316Y-13772110D01*
X21025150Y-13772561D01*
X20869808Y-13803461D01*
X20869798Y-13803464D01*
X20724127Y-13863802D01*
X20724114Y-13863809D01*
X20593011Y-13951410D01*
X20593007Y-13951413D01*
X20481513Y-14062907D01*
X20481510Y-14062911D01*
X20393909Y-14194014D01*
X20393902Y-14194027D01*
X20333564Y-14339698D01*
X20333561Y-14339710D01*
X20302800Y-14494353D01*
X20302800Y-14652046D01*
X20329874Y-14788153D01*
X20333563Y-14806697D01*
X20383356Y-14926910D01*
X20388964Y-14940447D01*
X20396433Y-15009917D01*
X20365158Y-15072396D01*
X20305069Y-15108048D01*
X20274403Y-15111900D01*
X19789098Y-15111900D01*
X19722059Y-15092215D01*
X19701417Y-15075581D01*
X17412519Y-12786683D01*
X17379034Y-12725360D01*
X17376200Y-12699002D01*
X17376200Y-11758045D01*
X17376200Y-11758043D01*
X17335277Y-11605316D01*
X17335277Y-11605315D01*
X17315463Y-11570998D01*
X17288399Y-11524120D01*
X17288398Y-11524119D01*
X17256221Y-11468386D01*
X17256220Y-11468384D01*
X17144416Y-11356580D01*
X17144415Y-11356579D01*
X17140085Y-11352249D01*
X17140074Y-11352239D01*
X11853834Y-6065999D01*
X11843736Y-6047507D01*
X11829657Y-6031832D01*
X11827327Y-6017456D01*
X11820349Y-6004676D01*
X11821851Y-5983660D01*
X11818482Y-5962862D01*
X11824294Y-5949510D01*
X11825333Y-5934984D01*
X11837959Y-5918117D01*
X11846369Y-5898799D01*
X11864845Y-5882202D01*
X11867205Y-5879051D01*
X11872598Y-5875233D01*
X11906189Y-5852789D01*
X11906189Y-5852788D01*
X11906777Y-5852396D01*
X11973455Y-5831520D01*
X11975666Y-5831500D01*
X17836303Y-5831500D01*
X17903342Y-5851185D01*
X17923984Y-5867819D01*
X21947125Y-9890960D01*
X21980610Y-9952283D01*
X21981061Y-9954449D01*
X22011961Y-10109791D01*
X22011964Y-10109801D01*
X22072302Y-10255472D01*
X22072309Y-10255485D01*
X22159910Y-10386588D01*
X22159913Y-10386592D01*
X22271407Y-10498086D01*
X22271411Y-10498089D01*
X22402514Y-10585690D01*
X22402527Y-10585697D01*
X22548198Y-10646035D01*
X22548203Y-10646037D01*
X22702853Y-10676799D01*
X22702856Y-10676800D01*
X22702858Y-10676800D01*
X22860544Y-10676800D01*
X22860545Y-10676799D01*
X23015197Y-10646037D01*
X23160879Y-10585694D01*
X23291989Y-10498089D01*
X23403489Y-10386589D01*
X23491094Y-10255479D01*
X23551437Y-10109797D01*
X23582200Y-9955142D01*
X23582200Y-9797458D01*
X23582200Y-9797455D01*
X23582199Y-9797453D01*
X23551492Y-9643080D01*
X23551437Y-9642803D01*
X23500357Y-9519484D01*
X23491097Y-9497127D01*
X23491090Y-9497114D01*
X23403489Y-9366011D01*
X23403486Y-9366007D01*
X23291992Y-9254513D01*
X23291988Y-9254510D01*
X23160885Y-9166909D01*
X23160872Y-9166902D01*
X23015201Y-9106564D01*
X23015191Y-9106561D01*
X22859849Y-9075661D01*
X22797938Y-9043276D01*
X22796360Y-9041725D01*
X19890816Y-6136181D01*
X19857331Y-6074858D01*
X19862315Y-6005166D01*
X19904187Y-5949233D01*
X19909568Y-5945424D01*
X20011989Y-5876989D01*
X20123489Y-5765489D01*
X20211094Y-5634379D01*
X20271437Y-5488697D01*
X20290813Y-5391285D01*
X20302338Y-5333350D01*
X20334723Y-5271439D01*
X20336218Y-5269916D01*
X20775916Y-4830219D01*
X20837239Y-4796734D01*
X20863597Y-4793900D01*
X26962500Y-4793900D01*
X27029539Y-4813585D01*
G37*
%TD.AperFunction*%
%TA.AperFunction,Conductor*%
G36*
X27786585Y-8841663D02*
G01*
X27842518Y-8883535D01*
X27857812Y-8910393D01*
X27898602Y-9008872D01*
X27898609Y-9008885D01*
X27986602Y-9140574D01*
X27992252Y-9158620D01*
X28002477Y-9174530D01*
X28006928Y-9205489D01*
X28007480Y-9207251D01*
X28007500Y-9209465D01*
X28007500Y-9421802D01*
X27987815Y-9488841D01*
X27971181Y-9509483D01*
X27725781Y-9754882D01*
X27725779Y-9754884D01*
X27703761Y-9793022D01*
X27694454Y-9809143D01*
X27656810Y-9874342D01*
X27647217Y-9890960D01*
X27646723Y-9891815D01*
X27605799Y-10044543D01*
X27605799Y-10044545D01*
X27605799Y-10212646D01*
X27605800Y-10212659D01*
X27605800Y-11601202D01*
X27586115Y-11668241D01*
X27569481Y-11688883D01*
X26884958Y-12373405D01*
X26884898Y-12373465D01*
X26884586Y-12373778D01*
X26884584Y-12373780D01*
X26772780Y-12485584D01*
X26770134Y-12490164D01*
X26760835Y-12499621D01*
X26760669Y-12499712D01*
X26760105Y-12500357D01*
X25228039Y-14032425D01*
X25166716Y-14065910D01*
X25164550Y-14066361D01*
X25009208Y-14097261D01*
X25009198Y-14097264D01*
X24863527Y-14157602D01*
X24863514Y-14157609D01*
X24732411Y-14245210D01*
X24732407Y-14245213D01*
X24620913Y-14356707D01*
X24620910Y-14356711D01*
X24533309Y-14487814D01*
X24533302Y-14487827D01*
X24472964Y-14633498D01*
X24472961Y-14633510D01*
X24442200Y-14788153D01*
X24442200Y-14945846D01*
X24445753Y-14963708D01*
X24443875Y-14984690D01*
X24446874Y-15005544D01*
X24440824Y-15018791D01*
X24439526Y-15033300D01*
X24426600Y-15049938D01*
X24417850Y-15069100D01*
X24405597Y-15076974D01*
X24396662Y-15088477D01*
X24376796Y-15095484D01*
X24359073Y-15106876D01*
X24334486Y-15110410D01*
X24330773Y-15111721D01*
X24324138Y-15111899D01*
X24262743Y-15111899D01*
X24262739Y-15111899D01*
X24255133Y-15111900D01*
X24255132Y-15111899D01*
X24255131Y-15111900D01*
X21932197Y-15111900D01*
X21865158Y-15092215D01*
X21819403Y-15039411D01*
X21809459Y-14970253D01*
X21817636Y-14940447D01*
X21823243Y-14926911D01*
X21873037Y-14806697D01*
X21900480Y-14668735D01*
X21903938Y-14651350D01*
X21936323Y-14589439D01*
X21937818Y-14587916D01*
X27655572Y-8870162D01*
X27716893Y-8836679D01*
X27786585Y-8841663D01*
G37*
%TD.AperFunction*%
%TD*%
M02*
