%TF.GenerationSoftware,KiCad,Pcbnew,10.0.3*%
%TF.CreationDate,2026-06-21T23:39:41-07:00*%
%TF.ProjectId,brickdup_psu,62726963-6b64-4757-905f-7073752e6b69,rev?*%
%TF.SameCoordinates,Original*%
%TF.FileFunction,Legend,Top*%
%TF.FilePolarity,Positive*%
%FSLAX46Y46*%
G04 Gerber Fmt 4.6, Leading zero omitted, Abs format (unit mm)*
G04 Created by KiCad (PCBNEW 10.0.3) date 2026-06-21 23:39:41*
%MOMM*%
%LPD*%
G01*
G04 APERTURE LIST*
%ADD10C,0.125000*%
%ADD11C,0.120000*%
G04 APERTURE END LIST*
D10*
X13404761Y-19656119D02*
X13404761Y-18656119D01*
X13404761Y-19037071D02*
X13499999Y-18989452D01*
X13499999Y-18989452D02*
X13690475Y-18989452D01*
X13690475Y-18989452D02*
X13785713Y-19037071D01*
X13785713Y-19037071D02*
X13833332Y-19084690D01*
X13833332Y-19084690D02*
X13880951Y-19179928D01*
X13880951Y-19179928D02*
X13880951Y-19465642D01*
X13880951Y-19465642D02*
X13833332Y-19560880D01*
X13833332Y-19560880D02*
X13785713Y-19608500D01*
X13785713Y-19608500D02*
X13690475Y-19656119D01*
X13690475Y-19656119D02*
X13499999Y-19656119D01*
X13499999Y-19656119D02*
X13404761Y-19608500D01*
X14309523Y-19656119D02*
X14309523Y-18989452D01*
X14309523Y-19179928D02*
X14357142Y-19084690D01*
X14357142Y-19084690D02*
X14404761Y-19037071D01*
X14404761Y-19037071D02*
X14499999Y-18989452D01*
X14499999Y-18989452D02*
X14595237Y-18989452D01*
X14928571Y-19656119D02*
X14928571Y-18989452D01*
X14928571Y-18656119D02*
X14880952Y-18703738D01*
X14880952Y-18703738D02*
X14928571Y-18751357D01*
X14928571Y-18751357D02*
X14976190Y-18703738D01*
X14976190Y-18703738D02*
X14928571Y-18656119D01*
X14928571Y-18656119D02*
X14928571Y-18751357D01*
X15833332Y-19608500D02*
X15738094Y-19656119D01*
X15738094Y-19656119D02*
X15547618Y-19656119D01*
X15547618Y-19656119D02*
X15452380Y-19608500D01*
X15452380Y-19608500D02*
X15404761Y-19560880D01*
X15404761Y-19560880D02*
X15357142Y-19465642D01*
X15357142Y-19465642D02*
X15357142Y-19179928D01*
X15357142Y-19179928D02*
X15404761Y-19084690D01*
X15404761Y-19084690D02*
X15452380Y-19037071D01*
X15452380Y-19037071D02*
X15547618Y-18989452D01*
X15547618Y-18989452D02*
X15738094Y-18989452D01*
X15738094Y-18989452D02*
X15833332Y-19037071D01*
X16261904Y-19656119D02*
X16261904Y-18656119D01*
X16357142Y-19275166D02*
X16642856Y-19656119D01*
X16642856Y-18989452D02*
X16261904Y-19370404D01*
X17499999Y-19656119D02*
X17499999Y-18656119D01*
X17499999Y-19608500D02*
X17404761Y-19656119D01*
X17404761Y-19656119D02*
X17214285Y-19656119D01*
X17214285Y-19656119D02*
X17119047Y-19608500D01*
X17119047Y-19608500D02*
X17071428Y-19560880D01*
X17071428Y-19560880D02*
X17023809Y-19465642D01*
X17023809Y-19465642D02*
X17023809Y-19179928D01*
X17023809Y-19179928D02*
X17071428Y-19084690D01*
X17071428Y-19084690D02*
X17119047Y-19037071D01*
X17119047Y-19037071D02*
X17214285Y-18989452D01*
X17214285Y-18989452D02*
X17404761Y-18989452D01*
X17404761Y-18989452D02*
X17499999Y-19037071D01*
X18404761Y-18989452D02*
X18404761Y-19656119D01*
X17976190Y-18989452D02*
X17976190Y-19513261D01*
X17976190Y-19513261D02*
X18023809Y-19608500D01*
X18023809Y-19608500D02*
X18119047Y-19656119D01*
X18119047Y-19656119D02*
X18261904Y-19656119D01*
X18261904Y-19656119D02*
X18357142Y-19608500D01*
X18357142Y-19608500D02*
X18404761Y-19560880D01*
X18880952Y-18989452D02*
X18880952Y-19989452D01*
X18880952Y-19037071D02*
X18976190Y-18989452D01*
X18976190Y-18989452D02*
X19166666Y-18989452D01*
X19166666Y-18989452D02*
X19261904Y-19037071D01*
X19261904Y-19037071D02*
X19309523Y-19084690D01*
X19309523Y-19084690D02*
X19357142Y-19179928D01*
X19357142Y-19179928D02*
X19357142Y-19465642D01*
X19357142Y-19465642D02*
X19309523Y-19560880D01*
X19309523Y-19560880D02*
X19261904Y-19608500D01*
X19261904Y-19608500D02*
X19166666Y-19656119D01*
X19166666Y-19656119D02*
X18976190Y-19656119D01*
X18976190Y-19656119D02*
X18880952Y-19608500D01*
X19547619Y-19751357D02*
X20309523Y-19751357D01*
X20547619Y-18989452D02*
X20547619Y-19989452D01*
X20547619Y-19037071D02*
X20642857Y-18989452D01*
X20642857Y-18989452D02*
X20833333Y-18989452D01*
X20833333Y-18989452D02*
X20928571Y-19037071D01*
X20928571Y-19037071D02*
X20976190Y-19084690D01*
X20976190Y-19084690D02*
X21023809Y-19179928D01*
X21023809Y-19179928D02*
X21023809Y-19465642D01*
X21023809Y-19465642D02*
X20976190Y-19560880D01*
X20976190Y-19560880D02*
X20928571Y-19608500D01*
X20928571Y-19608500D02*
X20833333Y-19656119D01*
X20833333Y-19656119D02*
X20642857Y-19656119D01*
X20642857Y-19656119D02*
X20547619Y-19608500D01*
X21404762Y-19608500D02*
X21500000Y-19656119D01*
X21500000Y-19656119D02*
X21690476Y-19656119D01*
X21690476Y-19656119D02*
X21785714Y-19608500D01*
X21785714Y-19608500D02*
X21833333Y-19513261D01*
X21833333Y-19513261D02*
X21833333Y-19465642D01*
X21833333Y-19465642D02*
X21785714Y-19370404D01*
X21785714Y-19370404D02*
X21690476Y-19322785D01*
X21690476Y-19322785D02*
X21547619Y-19322785D01*
X21547619Y-19322785D02*
X21452381Y-19275166D01*
X21452381Y-19275166D02*
X21404762Y-19179928D01*
X21404762Y-19179928D02*
X21404762Y-19132309D01*
X21404762Y-19132309D02*
X21452381Y-19037071D01*
X21452381Y-19037071D02*
X21547619Y-18989452D01*
X21547619Y-18989452D02*
X21690476Y-18989452D01*
X21690476Y-18989452D02*
X21785714Y-19037071D01*
X22690476Y-18989452D02*
X22690476Y-19656119D01*
X22261905Y-18989452D02*
X22261905Y-19513261D01*
X22261905Y-19513261D02*
X22309524Y-19608500D01*
X22309524Y-19608500D02*
X22404762Y-19656119D01*
X22404762Y-19656119D02*
X22547619Y-19656119D01*
X22547619Y-19656119D02*
X22642857Y-19608500D01*
X22642857Y-19608500D02*
X22690476Y-19560880D01*
X23833334Y-18989452D02*
X24071429Y-19656119D01*
X24071429Y-19656119D02*
X24309524Y-18989452D01*
X24880953Y-18656119D02*
X24976191Y-18656119D01*
X24976191Y-18656119D02*
X25071429Y-18703738D01*
X25071429Y-18703738D02*
X25119048Y-18751357D01*
X25119048Y-18751357D02*
X25166667Y-18846595D01*
X25166667Y-18846595D02*
X25214286Y-19037071D01*
X25214286Y-19037071D02*
X25214286Y-19275166D01*
X25214286Y-19275166D02*
X25166667Y-19465642D01*
X25166667Y-19465642D02*
X25119048Y-19560880D01*
X25119048Y-19560880D02*
X25071429Y-19608500D01*
X25071429Y-19608500D02*
X24976191Y-19656119D01*
X24976191Y-19656119D02*
X24880953Y-19656119D01*
X24880953Y-19656119D02*
X24785715Y-19608500D01*
X24785715Y-19608500D02*
X24738096Y-19560880D01*
X24738096Y-19560880D02*
X24690477Y-19465642D01*
X24690477Y-19465642D02*
X24642858Y-19275166D01*
X24642858Y-19275166D02*
X24642858Y-19037071D01*
X24642858Y-19037071D02*
X24690477Y-18846595D01*
X24690477Y-18846595D02*
X24738096Y-18751357D01*
X24738096Y-18751357D02*
X24785715Y-18703738D01*
X24785715Y-18703738D02*
X24880953Y-18656119D01*
X25642858Y-19560880D02*
X25690477Y-19608500D01*
X25690477Y-19608500D02*
X25642858Y-19656119D01*
X25642858Y-19656119D02*
X25595239Y-19608500D01*
X25595239Y-19608500D02*
X25642858Y-19560880D01*
X25642858Y-19560880D02*
X25642858Y-19656119D01*
X26642857Y-19656119D02*
X26071429Y-19656119D01*
X26357143Y-19656119D02*
X26357143Y-18656119D01*
X26357143Y-18656119D02*
X26261905Y-18798976D01*
X26261905Y-18798976D02*
X26166667Y-18894214D01*
X26166667Y-18894214D02*
X26071429Y-18941833D01*
%TO.C,L1*%
D11*
X18344400Y-8068500D02*
X30944400Y-8068500D01*
X18344400Y-11068500D02*
X18344400Y-8068500D01*
X18344400Y-20668500D02*
X18344400Y-17668500D01*
X30944400Y-8068500D02*
X30944400Y-11068500D01*
X30944400Y-17668500D02*
X30944400Y-20668500D01*
X30944400Y-20668500D02*
X18344400Y-20668500D01*
%TO.C,J2*%
X17152500Y-1890000D02*
X18172500Y-1890000D01*
X17152500Y-6140000D02*
X17152500Y-1890000D01*
X18172500Y-1890000D02*
X18172500Y-3490000D01*
X18172500Y-3490000D02*
X19452500Y-3490000D01*
X18872500Y-9710000D02*
X25552500Y-9710000D01*
X19452500Y-3490000D02*
X19452500Y-600000D01*
X26252500Y-1890000D02*
X26252500Y-3490000D01*
X26252500Y-3490000D02*
X24972500Y-3490000D01*
X27272500Y-1890000D02*
X26252500Y-1890000D01*
X27272500Y-6140000D02*
X27272500Y-1890000D01*
%TO.C,U1*%
X9190000Y-9135800D02*
X13310000Y-9135800D01*
X9190000Y-9230800D02*
X9190000Y-9135800D01*
X9190000Y-14255800D02*
X9190000Y-14160800D01*
X13310000Y-9135800D02*
X13310000Y-9230800D01*
X13310000Y-14160800D02*
X13310000Y-14255800D01*
X13310000Y-14255800D02*
X9190000Y-14255800D01*
X13850000Y-14165800D02*
X14090000Y-14495800D01*
X13610000Y-14495800D01*
X13850000Y-14165800D01*
G36*
X14090000Y-14495800D02*
G01*
X13610000Y-14495800D01*
X13850000Y-14165800D01*
X14090000Y-14495800D01*
G37*
%TO.C,RFB1*%
X30657500Y-18752141D02*
X30657500Y-18444859D01*
X31417500Y-18752141D02*
X31417500Y-18444859D01*
%TO.C,D2*%
X340000Y-2500000D02*
X340000Y-6800000D01*
X340000Y-2500000D02*
X6150000Y-2500000D01*
X340000Y-6800000D02*
X6150000Y-6800000D01*
%TO.C,Cin3*%
X15390000Y-9478380D02*
X15390000Y-9197220D01*
X16410000Y-9478380D02*
X16410000Y-9197220D01*
%TO.C,REN1*%
X11721700Y-2292341D02*
X11721700Y-1985059D01*
X12481700Y-2292341D02*
X12481700Y-1985059D01*
%TO.C,Cin1*%
X14998800Y-14232452D02*
X14998800Y-12809948D01*
X17718800Y-14232452D02*
X17718800Y-12809948D01*
%TO.C,Cff*%
X31530000Y-13352936D02*
X31530000Y-13137264D01*
X32250000Y-13352936D02*
X32250000Y-13137264D01*
%TO.C,Cin2*%
X4113100Y-11861252D02*
X4113100Y-10438748D01*
X6833100Y-11861252D02*
X6833100Y-10438748D01*
%TO.C,Cout1*%
X9488748Y-5016500D02*
X10911252Y-5016500D01*
X9488748Y-6836500D02*
X10911252Y-6836500D01*
%TO.C,R1*%
X28027500Y-9564464D02*
X28027500Y-9110336D01*
X29497500Y-9564464D02*
X29497500Y-9110336D01*
%TO.C,Cbst*%
X13342700Y-3920736D02*
X13342700Y-3705064D01*
X14062700Y-3920736D02*
X14062700Y-3705064D01*
%TO.C,Cout2*%
X11078348Y-14640800D02*
X12500852Y-14640800D01*
X11078348Y-16460800D02*
X12500852Y-16460800D01*
%TO.C,REN2*%
X37740000Y-15887141D02*
X37740000Y-15579859D01*
X38500000Y-15887141D02*
X38500000Y-15579859D01*
%TO.C,D1*%
X595400Y-5800000D02*
X595400Y-9100000D01*
X595400Y-5800000D02*
X6105400Y-5800000D01*
X595400Y-9100000D02*
X6105400Y-9100000D01*
%TO.C,Cout3*%
X15352164Y-6692800D02*
X15567836Y-6692800D01*
X15352164Y-7412800D02*
X15567836Y-7412800D01*
%TO.C,RFB2*%
X10213800Y-18134441D02*
X10213800Y-17827159D01*
X10973800Y-18134441D02*
X10973800Y-17827159D01*
%TO.C,J1*%
X30290000Y-4478500D02*
X30290000Y-9158500D01*
X33860000Y-2758500D02*
X38110000Y-2758500D01*
X33860000Y-10878500D02*
X38110000Y-10878500D01*
X36510000Y-3778500D02*
X36510000Y-5058500D01*
X36510000Y-5058500D02*
X39400000Y-5058500D01*
X36510000Y-9858500D02*
X36510000Y-8578500D01*
X38110000Y-2758500D02*
X38110000Y-3778500D01*
X38110000Y-3778500D02*
X36510000Y-3778500D01*
X38110000Y-9858500D02*
X36510000Y-9858500D01*
X38110000Y-10878500D02*
X38110000Y-9858500D01*
%TO.C,R2*%
X9346500Y-3078564D02*
X9346500Y-2624436D01*
X10816500Y-3078564D02*
X10816500Y-2624436D01*
%TO.C,C1*%
X12965000Y-7655680D02*
X12965000Y-7374520D01*
X13985000Y-7655680D02*
X13985000Y-7374520D01*
%TD*%
M02*
