solid OpenSCAD_Model
  facet normal -0.138096 -0.694262 -0.70635
    outer loop
      vertex -0.482946 -3.66835 1.7
      vertex -0.95763 -3.57393 1.7
      vertex -0.517637 -1.93185 0
    endloop
  endfacet
  facet normal 0.706349 0.0462908 -0.706349
    outer loop
      vertex 3.7 0 1.7
      vertex 2 0 0
      vertex 3.66835 0.482946 1.7
    endloop
  endfacet
  facet normal 0.706348 0.0462958 -0.706349
    outer loop
      vertex 2 0 0
      vertex 1.98289 0.261052 0
      vertex 3.66835 0.482946 1.7
    endloop
  endfacet
  facet normal -0.588571 -0.393264 -0.706348
    outer loop
      vertex -1.58671 -1.21752 0
      vertex -3.20429 -1.85 1.7
      vertex -1.73205 -1 0
    endloop
  endfacet
  facet normal -0.227529 -0.670302 -0.706347
    outer loop
      vertex -0.517637 -1.93185 0
      vertex -1.41593 -3.41835 1.7
      vertex -0.765367 -1.84776 0
    endloop
  endfacet
  facet normal -0.53219 -0.466739 -0.706349
    outer loop
      vertex -2.61629 -2.61629 1.7
      vertex -2.93541 -2.25242 1.7
      vertex -1.58671 -1.21752 0
    endloop
  endfacet
  facet normal -0.706348 -0.0462958 -0.706349
    outer loop
      vertex -1.98289 -0.261052 0
      vertex -3.66835 -0.482946 1.7
      vertex -2 0 0
    endloop
  endfacet
  facet normal 0.138096 -0.694262 -0.70635
    outer loop
      vertex 0.95763 -3.57393 1.7
      vertex 0.482946 -3.66835 1.7
      vertex 0.517637 -1.93185 0
    endloop
  endfacet
  facet normal 0.227546 -0.670293 -0.706349
    outer loop
      vertex 0.95763 -3.57393 1.7
      vertex 0.517637 -1.93185 0
      vertex 1.41593 -3.41835 1.7
    endloop
  endfacet
  facet normal -0.634863 -0.313085 -0.706348
    outer loop
      vertex -1.73205 -1 0
      vertex -3.41835 -1.41593 1.7
      vertex -1.84776 -0.765367 0
    endloop
  endfacet
  facet normal -0.39326 -0.588573 -0.706349
    outer loop
      vertex -1.85 -3.20429 1.7
      vertex -2.25242 -2.93541 1.7
      vertex -1.21752 -1.58671 0
    endloop
  endfacet
  facet normal -0.138103 -0.694261 -0.706349
    outer loop
      vertex -0.482946 -3.66835 1.7
      vertex -0.517637 -1.93185 0
      vertex -0.261052 -1.98289 0
    endloop
  endfacet
  facet normal -0.706349 -0.0462908 -0.706349
    outer loop
      vertex -3.66835 -0.482946 1.7
      vertex -3.7 0 1.7
      vertex -2 0 0
    endloop
  endfacet
  facet normal 0.588573 -0.39326 -0.706349
    outer loop
      vertex 2.93541 -2.25242 1.7
      vertex 1.58671 -1.21752 0
      vertex 3.20429 -1.85 1.7
    endloop
  endfacet
  facet normal -0.634864 0.313081 -0.706348
    outer loop
      vertex -1.73205 1 0
      vertex -3.41835 1.41593 1.7
      vertex -3.20429 1.85 1.7
    endloop
  endfacet
  facet normal 0.588571 -0.393264 -0.706348
    outer loop
      vertex 3.20429 -1.85 1.7
      vertex 1.58671 -1.21752 0
      vertex 1.73205 -1 0
    endloop
  endfacet
  facet normal 0.0462908 0.706349 -0.706349
    outer loop
      vertex 0.482946 3.66835 1.7
      vertex 0 2 0
      vertex 0 3.7 1.7
    endloop
  endfacet
  facet normal -0.634863 0.313085 -0.706348
    outer loop
      vertex -1.84776 0.765367 0
      vertex -3.41835 1.41593 1.7
      vertex -1.73205 1 0
    endloop
  endfacet
  facet normal 0.466739 0.53219 -0.706349
    outer loop
      vertex 2.61629 2.61629 1.7
      vertex 1.21752 1.58671 0
      vertex 2.25242 2.93541 1.7
    endloop
  endfacet
  facet normal -0.227546 0.670293 -0.706349
    outer loop
      vertex -0.517637 1.93185 0
      vertex -1.41593 3.41835 1.7
      vertex -0.95763 3.57393 1.7
    endloop
  endfacet
  facet normal 0.313085 -0.634863 -0.706348
    outer loop
      vertex 1.41593 -3.41835 1.7
      vertex 0.765367 -1.84776 0
      vertex 1 -1.73205 0
    endloop
  endfacet
  facet normal 0.313081 -0.634864 -0.706348
    outer loop
      vertex 1.41593 -3.41835 1.7
      vertex 1 -1.73205 0
      vertex 1.85 -3.20429 1.7
    endloop
  endfacet
  facet normal -0.313081 0.634864 -0.706348
    outer loop
      vertex -1 1.73205 0
      vertex -1.85 3.20429 1.7
      vertex -1.41593 3.41835 1.7
    endloop
  endfacet
  facet normal -0.138103 0.694261 -0.706349
    outer loop
      vertex -0.261052 1.98289 0
      vertex -0.517637 1.93185 0
      vertex -0.482946 3.66835 1.7
    endloop
  endfacet
  facet normal 0.694262 -0.138096 -0.70635
    outer loop
      vertex 3.57393 -0.95763 1.7
      vertex 1.93185 -0.517637 0
      vertex 3.66835 -0.482946 1.7
    endloop
  endfacet
  facet normal -0.393264 0.588571 -0.706348
    outer loop
      vertex -1.21752 1.58671 0
      vertex -1.85 3.20429 1.7
      vertex -1 1.73205 0
    endloop
  endfacet
  facet normal -0.53219 0.466739 -0.706349
    outer loop
      vertex -1.58671 1.21752 0
      vertex -2.61629 2.61629 1.7
      vertex -1.41421 1.41421 0
    endloop
  endfacet
  facet normal 0.0462908 -0.706349 -0.706349
    outer loop
      vertex 0.482946 -3.66835 1.7
      vertex 0 -3.7 1.7
      vertex 0 -2 0
    endloop
  endfacet
  facet normal 0.670302 -0.227529 -0.706347
    outer loop
      vertex 3.41835 -1.41593 1.7
      vertex 1.84776 -0.765367 0
      vertex 1.93185 -0.517637 0
    endloop
  endfacet
  facet normal 0.227529 -0.670302 -0.706347
    outer loop
      vertex 1.41593 -3.41835 1.7
      vertex 0.517637 -1.93185 0
      vertex 0.765367 -1.84776 0
    endloop
  endfacet
  facet normal -0.670293 -0.227546 -0.706349
    outer loop
      vertex -3.41835 -1.41593 1.7
      vertex -3.57393 -0.95763 1.7
      vertex -1.93185 -0.517637 0
    endloop
  endfacet
  facet normal 0.138096 0.694262 -0.70635
    outer loop
      vertex 0.517637 1.93185 0
      vertex 0.482946 3.66835 1.7
      vertex 0.95763 3.57393 1.7
    endloop
  endfacet
  facet normal -0.138096 0.694262 -0.70635
    outer loop
      vertex -0.517637 1.93185 0
      vertex -0.95763 3.57393 1.7
      vertex -0.482946 3.66835 1.7
    endloop
  endfacet
  facet normal -0.694261 0.138103 -0.706349
    outer loop
      vertex -1.98289 0.261052 0
      vertex -3.66835 0.482946 1.7
      vertex -1.93185 0.517637 0
    endloop
  endfacet
  facet normal -0.53219 0.466739 -0.706349
    outer loop
      vertex -1.58671 1.21752 0
      vertex -2.93541 2.25242 1.7
      vertex -2.61629 2.61629 1.7
    endloop
  endfacet
  facet normal -0.670302 0.227529 -0.706347
    outer loop
      vertex -1.93185 0.517637 0
      vertex -3.41835 1.41593 1.7
      vertex -1.84776 0.765367 0
    endloop
  endfacet
  facet normal 0.670293 -0.227546 -0.706349
    outer loop
      vertex 3.41835 -1.41593 1.7
      vertex 1.93185 -0.517637 0
      vertex 3.57393 -0.95763 1.7
    endloop
  endfacet
  facet normal 0.706349 -0.0462908 -0.706349
    outer loop
      vertex 3.66835 -0.482946 1.7
      vertex 2 0 0
      vertex 3.7 0 1.7
    endloop
  endfacet
  facet normal -0.313085 -0.634863 -0.706348
    outer loop
      vertex -0.765367 -1.84776 0
      vertex -1.41593 -3.41835 1.7
      vertex -1 -1.73205 0
    endloop
  endfacet
  facet normal 0.706348 -0.0462958 -0.706349
    outer loop
      vertex 3.66835 -0.482946 1.7
      vertex 1.98289 -0.261052 0
      vertex 2 0 0
    endloop
  endfacet
  facet normal 0.227529 0.670302 -0.706347
    outer loop
      vertex 0.765367 1.84776 0
      vertex 0.517637 1.93185 0
      vertex 1.41593 3.41835 1.7
    endloop
  endfacet
  facet normal -0.706349 0.0462908 -0.706349
    outer loop
      vertex -2 0 0
      vertex -3.7 0 1.7
      vertex -3.66835 0.482946 1.7
    endloop
  endfacet
  facet normal 0.53219 -0.466739 -0.706349
    outer loop
      vertex 2.61629 -2.61629 1.7
      vertex 1.58671 -1.21752 0
      vertex 2.93541 -2.25242 1.7
    endloop
  endfacet
  facet normal 0.694261 -0.138103 -0.706349
    outer loop
      vertex 3.66835 -0.482946 1.7
      vertex 1.93185 -0.517637 0
      vertex 1.98289 -0.261052 0
    endloop
  endfacet
  facet normal -0.0462958 0.706348 -0.706349
    outer loop
      vertex -0.261052 1.98289 0
      vertex -0.482946 3.66835 1.7
      vertex 0 2 0
    endloop
  endfacet
  facet normal -0.0462908 -0.706349 -0.706349
    outer loop
      vertex 0 -3.7 1.7
      vertex -0.482946 -3.66835 1.7
      vertex 0 -2 0
    endloop
  endfacet
  facet normal 0.0462958 0.706348 -0.706349
    outer loop
      vertex 0.261052 1.98289 0
      vertex 0 2 0
      vertex 0.482946 3.66835 1.7
    endloop
  endfacet
  facet normal 0.138103 -0.694261 -0.706349
    outer loop
      vertex 0.482946 -3.66835 1.7
      vertex 0.261052 -1.98289 0
      vertex 0.517637 -1.93185 0
    endloop
  endfacet
  facet normal -0.670293 0.227546 -0.706349
    outer loop
      vertex -1.93185 0.517637 0
      vertex -3.57393 0.95763 1.7
      vertex -3.41835 1.41593 1.7
    endloop
  endfacet
  facet normal -0.466739 0.53219 -0.706349
    outer loop
      vertex -1.41421 1.41421 0
      vertex -2.61629 2.61629 1.7
      vertex -1.21752 1.58671 0
    endloop
  endfacet
  facet normal -0.588573 -0.39326 -0.706349
    outer loop
      vertex -2.93541 -2.25242 1.7
      vertex -3.20429 -1.85 1.7
      vertex -1.58671 -1.21752 0
    endloop
  endfacet
  facet normal 0.634864 -0.313081 -0.706348
    outer loop
      vertex 3.20429 -1.85 1.7
      vertex 1.73205 -1 0
      vertex 3.41835 -1.41593 1.7
    endloop
  endfacet
  facet normal 0.634863 -0.313085 -0.706348
    outer loop
      vertex 3.41835 -1.41593 1.7
      vertex 1.73205 -1 0
      vertex 1.84776 -0.765367 0
    endloop
  endfacet
  facet normal -0.634864 -0.313081 -0.706348
    outer loop
      vertex -3.20429 -1.85 1.7
      vertex -3.41835 -1.41593 1.7
      vertex -1.73205 -1 0
    endloop
  endfacet
  facet normal 0.53219 -0.466739 -0.706349
    outer loop
      vertex 2.61629 -2.61629 1.7
      vertex 1.41421 -1.41421 0
      vertex 1.58671 -1.21752 0
    endloop
  endfacet
  facet normal -0.670302 -0.227529 -0.706347
    outer loop
      vertex -1.84776 -0.765367 0
      vertex -3.41835 -1.41593 1.7
      vertex -1.93185 -0.517637 0
    endloop
  endfacet
  facet normal 0.0462958 -0.706348 -0.706349
    outer loop
      vertex 0.482946 -3.66835 1.7
      vertex 0 -2 0
      vertex 0.261052 -1.98289 0
    endloop
  endfacet
  facet normal -0.466739 0.53219 -0.706349
    outer loop
      vertex -1.21752 1.58671 0
      vertex -2.61629 2.61629 1.7
      vertex -2.25242 2.93541 1.7
    endloop
  endfacet
  facet normal -0.227546 -0.670293 -0.706349
    outer loop
      vertex -0.95763 -3.57393 1.7
      vertex -1.41593 -3.41835 1.7
      vertex -0.517637 -1.93185 0
    endloop
  endfacet
  facet normal -0.694261 -0.138103 -0.706349
    outer loop
      vertex -1.93185 -0.517637 0
      vertex -3.66835 -0.482946 1.7
      vertex -1.98289 -0.261052 0
    endloop
  endfacet
  facet normal -0.694262 -0.138096 -0.70635
    outer loop
      vertex -3.57393 -0.95763 1.7
      vertex -3.66835 -0.482946 1.7
      vertex -1.93185 -0.517637 0
    endloop
  endfacet
  facet normal -0.313085 0.634863 -0.706348
    outer loop
      vertex -1 1.73205 0
      vertex -1.41593 3.41835 1.7
      vertex -0.765367 1.84776 0
    endloop
  endfacet
  facet normal -0.53219 -0.466739 -0.706349
    outer loop
      vertex -1.41421 -1.41421 0
      vertex -2.61629 -2.61629 1.7
      vertex -1.58671 -1.21752 0
    endloop
  endfacet
  facet normal 0.634863 0.313085 -0.706348
    outer loop
      vertex 1.84776 0.765367 0
      vertex 1.73205 1 0
      vertex 3.41835 1.41593 1.7
    endloop
  endfacet
  facet normal -0.706348 0.0462958 -0.706349
    outer loop
      vertex -2 0 0
      vertex -3.66835 0.482946 1.7
      vertex -1.98289 0.261052 0
    endloop
  endfacet
  facet normal -0.0462908 0.706349 -0.706349
    outer loop
      vertex 0 2 0
      vertex -0.482946 3.66835 1.7
      vertex 0 3.7 1.7
    endloop
  endfacet
  facet normal 0.138103 0.694261 -0.706349
    outer loop
      vertex 0.517637 1.93185 0
      vertex 0.261052 1.98289 0
      vertex 0.482946 3.66835 1.7
    endloop
  endfacet
  facet normal 0.588573 0.39326 -0.706349
    outer loop
      vertex 3.20429 1.85 1.7
      vertex 1.58671 1.21752 0
      vertex 2.93541 2.25242 1.7
    endloop
  endfacet
  facet normal 0.53219 0.466739 -0.706349
    outer loop
      vertex 2.93541 2.25242 1.7
      vertex 1.58671 1.21752 0
      vertex 2.61629 2.61629 1.7
    endloop
  endfacet
  facet normal -0.588573 0.39326 -0.706349
    outer loop
      vertex -1.58671 1.21752 0
      vertex -3.20429 1.85 1.7
      vertex -2.93541 2.25242 1.7
    endloop
  endfacet
  facet normal -0.588571 0.393264 -0.706348
    outer loop
      vertex -1.73205 1 0
      vertex -3.20429 1.85 1.7
      vertex -1.58671 1.21752 0
    endloop
  endfacet
  facet normal -0.466739 -0.53219 -0.706349
    outer loop
      vertex -1.21752 -1.58671 0
      vertex -2.61629 -2.61629 1.7
      vertex -1.41421 -1.41421 0
    endloop
  endfacet
  facet normal -0.0462958 -0.706348 -0.706349
    outer loop
      vertex 0 -2 0
      vertex -0.482946 -3.66835 1.7
      vertex -0.261052 -1.98289 0
    endloop
  endfacet
  facet normal 0.466739 -0.53219 -0.706349
    outer loop
      vertex 2.61629 -2.61629 1.7
      vertex 1.21752 -1.58671 0
      vertex 1.41421 -1.41421 0
    endloop
  endfacet
  facet normal 0.39326 -0.588573 -0.706349
    outer loop
      vertex 1.85 -3.20429 1.7
      vertex 1.21752 -1.58671 0
      vertex 2.25242 -2.93541 1.7
    endloop
  endfacet
  facet normal 0.393264 -0.588571 -0.706348
    outer loop
      vertex 1.85 -3.20429 1.7
      vertex 1 -1.73205 0
      vertex 1.21752 -1.58671 0
    endloop
  endfacet
  facet normal 0.466739 -0.53219 -0.706349
    outer loop
      vertex 2.25242 -2.93541 1.7
      vertex 1.21752 -1.58671 0
      vertex 2.61629 -2.61629 1.7
    endloop
  endfacet
  facet normal -0.393264 -0.588571 -0.706348
    outer loop
      vertex -1 -1.73205 0
      vertex -1.85 -3.20429 1.7
      vertex -1.21752 -1.58671 0
    endloop
  endfacet
  facet normal -0.313081 -0.634864 -0.706348
    outer loop
      vertex -1.41593 -3.41835 1.7
      vertex -1.85 -3.20429 1.7
      vertex -1 -1.73205 0
    endloop
  endfacet
  facet normal -0.39326 0.588573 -0.706349
    outer loop
      vertex -1.21752 1.58671 0
      vertex -2.25242 2.93541 1.7
      vertex -1.85 3.20429 1.7
    endloop
  endfacet
  facet normal -0.466739 -0.53219 -0.706349
    outer loop
      vertex -2.25242 -2.93541 1.7
      vertex -2.61629 -2.61629 1.7
      vertex -1.21752 -1.58671 0
    endloop
  endfacet
  facet normal 0.588571 0.393264 -0.706348
    outer loop
      vertex 1.73205 1 0
      vertex 1.58671 1.21752 0
      vertex 3.20429 1.85 1.7
    endloop
  endfacet
  facet normal 0.670293 0.227546 -0.706349
    outer loop
      vertex 3.57393 0.95763 1.7
      vertex 1.93185 0.517637 0
      vertex 3.41835 1.41593 1.7
    endloop
  endfacet
  facet normal 0.227546 0.670293 -0.706349
    outer loop
      vertex 1.41593 3.41835 1.7
      vertex 0.517637 1.93185 0
      vertex 0.95763 3.57393 1.7
    endloop
  endfacet
  facet normal 0 0 -1
    outer loop
      vertex 1.98289 -0.261052 0
      vertex 1.98289 0.261052 0
      vertex 2 0 0
    endloop
  endfacet
  facet normal 0 0 -1
    outer loop
      vertex 1.93185 -0.517637 0
      vertex 1.98289 0.261052 0
      vertex 1.98289 -0.261052 0
    endloop
  endfacet
  facet normal 0 0 -1
    outer loop
      vertex 1.93185 -0.517637 0
      vertex 1.93185 0.517637 0
      vertex 1.98289 0.261052 0
    endloop
  endfacet
  facet normal 0 0 -1
    outer loop
      vertex 1.84776 -0.765367 0
      vertex 1.93185 0.517637 0
      vertex 1.93185 -0.517637 0
    endloop
  endfacet
  facet normal 0 0 -1
    outer loop
      vertex 1.84776 -0.765367 0
      vertex 1.84776 0.765367 0
      vertex 1.93185 0.517637 0
    endloop
  endfacet
  facet normal 0 0 -1
    outer loop
      vertex 1.73205 -1 0
      vertex 1.84776 0.765367 0
      vertex 1.84776 -0.765367 0
    endloop
  endfacet
  facet normal 0 0 -1
    outer loop
      vertex 1.73205 -1 0
      vertex 1.73205 1 0
      vertex 1.84776 0.765367 0
    endloop
  endfacet
  facet normal 0 0 -1
    outer loop
      vertex 1.58671 -1.21752 0
      vertex 1.73205 1 0
      vertex 1.73205 -1 0
    endloop
  endfacet
  facet normal 0 0 -1
    outer loop
      vertex 1.58671 -1.21752 0
      vertex 1.58671 1.21752 0
      vertex 1.73205 1 0
    endloop
  endfacet
  facet normal 0 0 -1
    outer loop
      vertex 1.41421 -1.41421 0
      vertex 1.58671 1.21752 0
      vertex 1.58671 -1.21752 0
    endloop
  endfacet
  facet normal 0 0 -1
    outer loop
      vertex 1.41421 -1.41421 0
      vertex 1.41421 1.41421 0
      vertex 1.58671 1.21752 0
    endloop
  endfacet
  facet normal 0 0 -1
    outer loop
      vertex 1.21752 -1.58671 0
      vertex 1.41421 1.41421 0
      vertex 1.41421 -1.41421 0
    endloop
  endfacet
  facet normal 0 0 -1
    outer loop
      vertex 1.21752 -1.58671 0
      vertex 1.21752 1.58671 0
      vertex 1.41421 1.41421 0
    endloop
  endfacet
  facet normal 0 0 -1
    outer loop
      vertex 1 -1.73205 0
      vertex 1.21752 1.58671 0
      vertex 1.21752 -1.58671 0
    endloop
  endfacet
  facet normal 0 0 -1
    outer loop
      vertex 1 -1.73205 0
      vertex 1 1.73205 0
      vertex 1.21752 1.58671 0
    endloop
  endfacet
  facet normal 0 0 -1
    outer loop
      vertex 0.765367 -1.84776 0
      vertex 1 1.73205 0
      vertex 1 -1.73205 0
    endloop
  endfacet
  facet normal 0 0 -1
    outer loop
      vertex 0.765367 -1.84776 0
      vertex 0.765367 1.84776 0
      vertex 1 1.73205 0
    endloop
  endfacet
  facet normal 0 0 -1
    outer loop
      vertex 0.517637 -1.93185 0
      vertex 0.765367 1.84776 0
      vertex 0.765367 -1.84776 0
    endloop
  endfacet
  facet normal 0 0 -1
    outer loop
      vertex 0.517637 -1.93185 0
      vertex 0.517637 1.93185 0
      vertex 0.765367 1.84776 0
    endloop
  endfacet
  facet normal 0 0 -1
    outer loop
      vertex 0.261052 -1.98289 0
      vertex 0.517637 1.93185 0
      vertex 0.517637 -1.93185 0
    endloop
  endfacet
  facet normal 0 0 -1
    outer loop
      vertex 0.261052 -1.98289 0
      vertex 0.261052 1.98289 0
      vertex 0.517637 1.93185 0
    endloop
  endfacet
  facet normal 0 0 -1
    outer loop
      vertex 0 -2 0
      vertex 0.261052 1.98289 0
      vertex 0.261052 -1.98289 0
    endloop
  endfacet
  facet normal 0 0 -1
    outer loop
      vertex 0 -2 0
      vertex 0 2 0
      vertex 0.261052 1.98289 0
    endloop
  endfacet
  facet normal 0 0 -1
    outer loop
      vertex -0.261052 -1.98289 0
      vertex 0 2 0
      vertex 0 -2 0
    endloop
  endfacet
  facet normal 0 0 -1
    outer loop
      vertex -0.261052 -1.98289 0
      vertex -0.261052 1.98289 0
      vertex 0 2 0
    endloop
  endfacet
  facet normal 0 0 -1
    outer loop
      vertex -0.517637 -1.93185 0
      vertex -0.261052 1.98289 0
      vertex -0.261052 -1.98289 0
    endloop
  endfacet
  facet normal 0 0 -1
    outer loop
      vertex -0.517637 -1.93185 0
      vertex -0.517637 1.93185 0
      vertex -0.261052 1.98289 0
    endloop
  endfacet
  facet normal 0 0 -1
    outer loop
      vertex -0.765367 -1.84776 0
      vertex -0.517637 1.93185 0
      vertex -0.517637 -1.93185 0
    endloop
  endfacet
  facet normal 0 0 -1
    outer loop
      vertex -0.765367 -1.84776 0
      vertex -0.765367 1.84776 0
      vertex -0.517637 1.93185 0
    endloop
  endfacet
  facet normal 0 0 -1
    outer loop
      vertex -1 -1.73205 0
      vertex -0.765367 1.84776 0
      vertex -0.765367 -1.84776 0
    endloop
  endfacet
  facet normal 0 0 -1
    outer loop
      vertex -1 -1.73205 0
      vertex -1 1.73205 0
      vertex -0.765367 1.84776 0
    endloop
  endfacet
  facet normal 0 0 -1
    outer loop
      vertex -1.21752 -1.58671 0
      vertex -1 1.73205 0
      vertex -1 -1.73205 0
    endloop
  endfacet
  facet normal 0 0 -1
    outer loop
      vertex -1.21752 -1.58671 0
      vertex -1.21752 1.58671 0
      vertex -1 1.73205 0
    endloop
  endfacet
  facet normal 0 0 -1
    outer loop
      vertex -1.41421 -1.41421 0
      vertex -1.21752 1.58671 0
      vertex -1.21752 -1.58671 0
    endloop
  endfacet
  facet normal 0 0 -1
    outer loop
      vertex -1.41421 -1.41421 0
      vertex -1.41421 1.41421 0
      vertex -1.21752 1.58671 0
    endloop
  endfacet
  facet normal 0 0 -1
    outer loop
      vertex -1.58671 -1.21752 0
      vertex -1.41421 1.41421 0
      vertex -1.41421 -1.41421 0
    endloop
  endfacet
  facet normal 0 0 -1
    outer loop
      vertex -1.58671 -1.21752 0
      vertex -1.58671 1.21752 0
      vertex -1.41421 1.41421 0
    endloop
  endfacet
  facet normal 0 0 -1
    outer loop
      vertex -1.73205 -1 0
      vertex -1.58671 1.21752 0
      vertex -1.58671 -1.21752 0
    endloop
  endfacet
  facet normal 0 0 -1
    outer loop
      vertex -1.73205 -1 0
      vertex -1.73205 1 0
      vertex -1.58671 1.21752 0
    endloop
  endfacet
  facet normal 0 0 -1
    outer loop
      vertex -1.84776 -0.765367 0
      vertex -1.73205 1 0
      vertex -1.73205 -1 0
    endloop
  endfacet
  facet normal 0 0 -1
    outer loop
      vertex -1.84776 -0.765367 0
      vertex -1.84776 0.765367 0
      vertex -1.73205 1 0
    endloop
  endfacet
  facet normal 0 0 -1
    outer loop
      vertex -1.93185 -0.517637 0
      vertex -1.84776 0.765367 0
      vertex -1.84776 -0.765367 0
    endloop
  endfacet
  facet normal 0 0 -1
    outer loop
      vertex -1.93185 -0.517637 0
      vertex -1.93185 0.517637 0
      vertex -1.84776 0.765367 0
    endloop
  endfacet
  facet normal 0 0 -1
    outer loop
      vertex -1.98289 -0.261052 0
      vertex -1.93185 0.517637 0
      vertex -1.93185 -0.517637 0
    endloop
  endfacet
  facet normal 0 0 -1
    outer loop
      vertex -1.98289 -0.261052 0
      vertex -1.98289 0.261052 0
      vertex -1.93185 0.517637 0
    endloop
  endfacet
  facet normal 0 -0 -1
    outer loop
      vertex -1.98289 0.261052 0
      vertex -1.98289 -0.261052 0
      vertex -2 0 0
    endloop
  endfacet
  facet normal 0.466739 0.53219 -0.706349
    outer loop
      vertex 1.41421 1.41421 0
      vertex 1.21752 1.58671 0
      vertex 2.61629 2.61629 1.7
    endloop
  endfacet
  facet normal -0.227529 0.670302 -0.706347
    outer loop
      vertex -0.765367 1.84776 0
      vertex -1.41593 3.41835 1.7
      vertex -0.517637 1.93185 0
    endloop
  endfacet
  facet normal 0.53219 0.466739 -0.706349
    outer loop
      vertex 1.58671 1.21752 0
      vertex 1.41421 1.41421 0
      vertex 2.61629 2.61629 1.7
    endloop
  endfacet
  facet normal 0.634864 0.313081 -0.706348
    outer loop
      vertex 3.41835 1.41593 1.7
      vertex 1.73205 1 0
      vertex 3.20429 1.85 1.7
    endloop
  endfacet
  facet normal 0.393264 0.588571 -0.706348
    outer loop
      vertex 1.21752 1.58671 0
      vertex 1 1.73205 0
      vertex 1.85 3.20429 1.7
    endloop
  endfacet
  facet normal -0.694262 0.138096 -0.70635
    outer loop
      vertex -1.93185 0.517637 0
      vertex -3.66835 0.482946 1.7
      vertex -3.57393 0.95763 1.7
    endloop
  endfacet
  facet normal 0.313081 0.634864 -0.706348
    outer loop
      vertex 1.85 3.20429 1.7
      vertex 1 1.73205 0
      vertex 1.41593 3.41835 1.7
    endloop
  endfacet
  facet normal 0.39326 0.588573 -0.706349
    outer loop
      vertex 2.25242 2.93541 1.7
      vertex 1.21752 1.58671 0
      vertex 1.85 3.20429 1.7
    endloop
  endfacet
  facet normal 0.313085 0.634863 -0.706348
    outer loop
      vertex 1 1.73205 0
      vertex 0.765367 1.84776 0
      vertex 1.41593 3.41835 1.7
    endloop
  endfacet
  facet normal 0.694262 0.138096 -0.70635
    outer loop
      vertex 3.66835 0.482946 1.7
      vertex 1.93185 0.517637 0
      vertex 3.57393 0.95763 1.7
    endloop
  endfacet
  facet normal 0.694261 0.138103 -0.706349
    outer loop
      vertex 1.98289 0.261052 0
      vertex 1.93185 0.517637 0
      vertex 3.66835 0.482946 1.7
    endloop
  endfacet
  facet normal 0.670302 0.227529 -0.706347
    outer loop
      vertex 1.93185 0.517637 0
      vertex 1.84776 0.765367 0
      vertex 3.41835 1.41593 1.7
    endloop
  endfacet
  facet normal 0.980785 0.195089 0
    outer loop
      vertex 3.66835 0.482946 2
      vertex 3.57393 0.95763 1.7
      vertex 3.57393 0.95763 2
    endloop
  endfacet
  facet normal 0.980785 0.195089 0
    outer loop
      vertex 3.57393 0.95763 1.7
      vertex 3.66835 0.482946 2
      vertex 3.66835 0.482946 1.7
    endloop
  endfacet
  facet normal 0.997859 0.065395 0
    outer loop
      vertex 3.7 0 2
      vertex 3.66835 0.482946 1.7
      vertex 3.66835 0.482946 2
    endloop
  endfacet
  facet normal 0.997859 0.065395 0
    outer loop
      vertex 3.66835 0.482946 1.7
      vertex 3.7 0 2
      vertex 3.7 0 1.7
    endloop
  endfacet
  facet normal 0.946925 0.321454 0
    outer loop
      vertex 3.57393 0.95763 2
      vertex 3.41835 1.41593 1.7
      vertex 3.41835 1.41593 2
    endloop
  endfacet
  facet normal 0.946925 0.321454 0
    outer loop
      vertex 3.41835 1.41593 1.7
      vertex 3.57393 0.95763 2
      vertex 3.57393 0.95763 1.7
    endloop
  endfacet
  facet normal -0.997859 0.065395 0
    outer loop
      vertex -3.7 0 1.7
      vertex -3.66835 0.482946 2
      vertex -3.66835 0.482946 1.7
    endloop
  endfacet
  facet normal -0.997859 0.065395 0
    outer loop
      vertex -3.66835 0.482946 2
      vertex -3.7 0 1.7
      vertex -3.7 0 2
    endloop
  endfacet
  facet normal 0.321454 0.946925 -0
    outer loop
      vertex 1.41593 3.41835 1.7
      vertex 0.95763 3.57393 2
      vertex 1.41593 3.41835 2
    endloop
  endfacet
  facet normal 0.321454 0.946925 0
    outer loop
      vertex 0.95763 3.57393 2
      vertex 1.41593 3.41835 1.7
      vertex 0.95763 3.57393 1.7
    endloop
  endfacet
  facet normal 0.195089 0.980785 -0
    outer loop
      vertex 0.95763 3.57393 1.7
      vertex 0.482946 3.66835 2
      vertex 0.95763 3.57393 2
    endloop
  endfacet
  facet normal 0.195089 0.980785 0
    outer loop
      vertex 0.482946 3.66835 2
      vertex 0.95763 3.57393 1.7
      vertex 0.482946 3.66835 1.7
    endloop
  endfacet
  facet normal 0.896872 0.442289 0
    outer loop
      vertex 3.41835 1.41593 2
      vertex 3.20429 1.85 1.7
      vertex 3.20429 1.85 2
    endloop
  endfacet
  facet normal 0.896872 0.442289 0
    outer loop
      vertex 3.20429 1.85 1.7
      vertex 3.41835 1.41593 2
      vertex 3.41835 1.41593 1.7
    endloop
  endfacet
  facet normal 0.195089 -0.980785 0
    outer loop
      vertex 0.482946 -3.66835 1.7
      vertex 0.95763 -3.57393 2
      vertex 0.482946 -3.66835 2
    endloop
  endfacet
  facet normal 0.195089 -0.980785 0
    outer loop
      vertex 0.95763 -3.57393 2
      vertex 0.482946 -3.66835 1.7
      vertex 0.95763 -3.57393 1.7
    endloop
  endfacet
  facet normal 0.065395 -0.997859 0
    outer loop
      vertex 0 -3.7 1.7
      vertex 0.482946 -3.66835 2
      vertex 0 -3.7 2
    endloop
  endfacet
  facet normal 0.065395 -0.997859 0
    outer loop
      vertex 0.482946 -3.66835 2
      vertex 0 -3.7 1.7
      vertex 0.482946 -3.66835 1.7
    endloop
  endfacet
  facet normal 0.659363 0.751825 -0
    outer loop
      vertex 2.61629 2.61629 1.7
      vertex 2.25242 2.93541 2
      vertex 2.61629 2.61629 2
    endloop
  endfacet
  facet normal 0.659363 0.751825 0
    outer loop
      vertex 2.25242 2.93541 2
      vertex 2.61629 2.61629 1.7
      vertex 2.25242 2.93541 1.7
    endloop
  endfacet
  facet normal 0.896872 -0.442289 0
    outer loop
      vertex 3.20429 -1.85 2
      vertex 3.41835 -1.41593 1.7
      vertex 3.41835 -1.41593 2
    endloop
  endfacet
  facet normal 0.896872 -0.442289 0
    outer loop
      vertex 3.41835 -1.41593 1.7
      vertex 3.20429 -1.85 2
      vertex 3.20429 -1.85 1.7
    endloop
  endfacet
  facet normal -0.195089 -0.980785 0
    outer loop
      vertex -0.95763 -3.57393 1.7
      vertex -0.482946 -3.66835 2
      vertex -0.95763 -3.57393 2
    endloop
  endfacet
  facet normal -0.195089 -0.980785 -0
    outer loop
      vertex -0.482946 -3.66835 2
      vertex -0.95763 -3.57393 1.7
      vertex -0.482946 -3.66835 1.7
    endloop
  endfacet
  facet normal -0.896872 0.442289 0
    outer loop
      vertex -3.41835 1.41593 1.7
      vertex -3.20429 1.85 2
      vertex -3.20429 1.85 1.7
    endloop
  endfacet
  facet normal -0.896872 0.442289 0
    outer loop
      vertex -3.20429 1.85 2
      vertex -3.41835 1.41593 1.7
      vertex -3.41835 1.41593 2
    endloop
  endfacet
  facet normal 0.659363 -0.751825 0
    outer loop
      vertex 2.25242 -2.93541 1.7
      vertex 2.61629 -2.61629 2
      vertex 2.25242 -2.93541 2
    endloop
  endfacet
  facet normal 0.659363 -0.751825 0
    outer loop
      vertex 2.61629 -2.61629 2
      vertex 2.25242 -2.93541 1.7
      vertex 2.61629 -2.61629 1.7
    endloop
  endfacet
  facet normal 0.751825 -0.659363 0
    outer loop
      vertex 2.61629 -2.61629 2
      vertex 2.93541 -2.25242 1.7
      vertex 2.93541 -2.25242 2
    endloop
  endfacet
  facet normal 0.751825 -0.659363 0
    outer loop
      vertex 2.93541 -2.25242 1.7
      vertex 2.61629 -2.61629 2
      vertex 2.61629 -2.61629 1.7
    endloop
  endfacet
  facet normal 0.321454 -0.946925 0
    outer loop
      vertex 0.95763 -3.57393 1.7
      vertex 1.41593 -3.41835 2
      vertex 0.95763 -3.57393 2
    endloop
  endfacet
  facet normal 0.321454 -0.946925 0
    outer loop
      vertex 1.41593 -3.41835 2
      vertex 0.95763 -3.57393 1.7
      vertex 1.41593 -3.41835 1.7
    endloop
  endfacet
  facet normal -0.997859 -0.065395 0
    outer loop
      vertex -3.66835 -0.482946 1.7
      vertex -3.7 0 2
      vertex -3.7 0 1.7
    endloop
  endfacet
  facet normal -0.997859 -0.065395 0
    outer loop
      vertex -3.7 0 2
      vertex -3.66835 -0.482946 1.7
      vertex -3.66835 -0.482946 2
    endloop
  endfacet
  facet normal -0.659363 0.751825 0
    outer loop
      vertex -2.25242 2.93541 1.7
      vertex -2.61629 2.61629 2
      vertex -2.25242 2.93541 2
    endloop
  endfacet
  facet normal -0.659363 0.751825 0
    outer loop
      vertex -2.61629 2.61629 2
      vertex -2.25242 2.93541 1.7
      vertex -2.61629 2.61629 1.7
    endloop
  endfacet
  facet normal -0.321454 0.946925 0
    outer loop
      vertex -0.95763 3.57393 1.7
      vertex -1.41593 3.41835 2
      vertex -0.95763 3.57393 2
    endloop
  endfacet
  facet normal -0.321454 0.946925 0
    outer loop
      vertex -1.41593 3.41835 2
      vertex -0.95763 3.57393 1.7
      vertex -1.41593 3.41835 1.7
    endloop
  endfacet
  facet normal -0.831478 -0.555558 0
    outer loop
      vertex -2.93541 -2.25242 1.7
      vertex -3.20429 -1.85 2
      vertex -3.20429 -1.85 1.7
    endloop
  endfacet
  facet normal -0.831478 -0.555558 0
    outer loop
      vertex -3.20429 -1.85 2
      vertex -2.93541 -2.25242 1.7
      vertex -2.93541 -2.25242 2
    endloop
  endfacet
  facet normal 0.751825 0.659363 0
    outer loop
      vertex 2.93541 2.25242 2
      vertex 2.61629 2.61629 1.7
      vertex 2.61629 2.61629 2
    endloop
  endfacet
  facet normal 0.751825 0.659363 0
    outer loop
      vertex 2.61629 2.61629 1.7
      vertex 2.93541 2.25242 2
      vertex 2.93541 2.25242 1.7
    endloop
  endfacet
  facet normal -0.321454 -0.946925 0
    outer loop
      vertex -1.41593 -3.41835 1.7
      vertex -0.95763 -3.57393 2
      vertex -1.41593 -3.41835 2
    endloop
  endfacet
  facet normal -0.321454 -0.946925 -0
    outer loop
      vertex -0.95763 -3.57393 2
      vertex -1.41593 -3.41835 1.7
      vertex -0.95763 -3.57393 1.7
    endloop
  endfacet
  facet normal 0.442289 -0.896872 0
    outer loop
      vertex 1.41593 -3.41835 1.7
      vertex 1.85 -3.20429 2
      vertex 1.41593 -3.41835 2
    endloop
  endfacet
  facet normal 0.442289 -0.896872 0
    outer loop
      vertex 1.85 -3.20429 2
      vertex 1.41593 -3.41835 1.7
      vertex 1.85 -3.20429 1.7
    endloop
  endfacet
  facet normal -0.442289 0.896872 0
    outer loop
      vertex -1.41593 3.41835 1.7
      vertex -1.85 3.20429 2
      vertex -1.41593 3.41835 2
    endloop
  endfacet
  facet normal -0.442289 0.896872 0
    outer loop
      vertex -1.85 3.20429 2
      vertex -1.41593 3.41835 1.7
      vertex -1.85 3.20429 1.7
    endloop
  endfacet
  facet normal 0.980785 -0.195089 0
    outer loop
      vertex 3.57393 -0.95763 2
      vertex 3.66835 -0.482946 1.7
      vertex 3.66835 -0.482946 2
    endloop
  endfacet
  facet normal 0.980785 -0.195089 0
    outer loop
      vertex 3.66835 -0.482946 1.7
      vertex 3.57393 -0.95763 2
      vertex 3.57393 -0.95763 1.7
    endloop
  endfacet
  facet normal -0.946925 -0.321454 0
    outer loop
      vertex -3.41835 -1.41593 1.7
      vertex -3.57393 -0.95763 2
      vertex -3.57393 -0.95763 1.7
    endloop
  endfacet
  facet normal -0.946925 -0.321454 0
    outer loop
      vertex -3.57393 -0.95763 2
      vertex -3.41835 -1.41593 1.7
      vertex -3.41835 -1.41593 2
    endloop
  endfacet
  facet normal 0.946925 -0.321454 0
    outer loop
      vertex 3.41835 -1.41593 2
      vertex 3.57393 -0.95763 1.7
      vertex 3.57393 -0.95763 2
    endloop
  endfacet
  facet normal 0.946925 -0.321454 0
    outer loop
      vertex 3.57393 -0.95763 1.7
      vertex 3.41835 -1.41593 2
      vertex 3.41835 -1.41593 1.7
    endloop
  endfacet
  facet normal 0.555558 0.831478 -0
    outer loop
      vertex 2.25242 2.93541 1.7
      vertex 1.85 3.20429 2
      vertex 2.25242 2.93541 2
    endloop
  endfacet
  facet normal 0.555558 0.831478 0
    outer loop
      vertex 1.85 3.20429 2
      vertex 2.25242 2.93541 1.7
      vertex 1.85 3.20429 1.7
    endloop
  endfacet
  facet normal 0.442289 0.896872 -0
    outer loop
      vertex 1.85 3.20429 1.7
      vertex 1.41593 3.41835 2
      vertex 1.85 3.20429 2
    endloop
  endfacet
  facet normal 0.442289 0.896872 0
    outer loop
      vertex 1.41593 3.41835 2
      vertex 1.85 3.20429 1.7
      vertex 1.41593 3.41835 1.7
    endloop
  endfacet
  facet normal -0.195089 0.980785 0
    outer loop
      vertex -0.482946 3.66835 1.7
      vertex -0.95763 3.57393 2
      vertex -0.482946 3.66835 2
    endloop
  endfacet
  facet normal -0.195089 0.980785 0
    outer loop
      vertex -0.95763 3.57393 2
      vertex -0.482946 3.66835 1.7
      vertex -0.95763 3.57393 1.7
    endloop
  endfacet
  facet normal -0.442289 -0.896872 0
    outer loop
      vertex -1.85 -3.20429 1.7
      vertex -1.41593 -3.41835 2
      vertex -1.85 -3.20429 2
    endloop
  endfacet
  facet normal -0.442289 -0.896872 -0
    outer loop
      vertex -1.41593 -3.41835 2
      vertex -1.85 -3.20429 1.7
      vertex -1.41593 -3.41835 1.7
    endloop
  endfacet
  facet normal -0.065395 0.997859 0
    outer loop
      vertex 0 3.7 1.7
      vertex -0.482946 3.66835 2
      vertex 0 3.7 2
    endloop
  endfacet
  facet normal -0.065395 0.997859 0
    outer loop
      vertex -0.482946 3.66835 2
      vertex 0 3.7 1.7
      vertex -0.482946 3.66835 1.7
    endloop
  endfacet
  facet normal -0.751825 0.659363 0
    outer loop
      vertex -2.93541 2.25242 1.7
      vertex -2.61629 2.61629 2
      vertex -2.61629 2.61629 1.7
    endloop
  endfacet
  facet normal -0.751825 0.659363 0
    outer loop
      vertex -2.61629 2.61629 2
      vertex -2.93541 2.25242 1.7
      vertex -2.93541 2.25242 2
    endloop
  endfacet
  facet normal 0.997859 -0.065395 0
    outer loop
      vertex 3.66835 -0.482946 2
      vertex 3.7 0 1.7
      vertex 3.7 0 2
    endloop
  endfacet
  facet normal 0.997859 -0.065395 0
    outer loop
      vertex 3.7 0 1.7
      vertex 3.66835 -0.482946 2
      vertex 3.66835 -0.482946 1.7
    endloop
  endfacet
  facet normal -0.946925 0.321454 0
    outer loop
      vertex -3.57393 0.95763 1.7
      vertex -3.41835 1.41593 2
      vertex -3.41835 1.41593 1.7
    endloop
  endfacet
  facet normal -0.946925 0.321454 0
    outer loop
      vertex -3.41835 1.41593 2
      vertex -3.57393 0.95763 1.7
      vertex -3.57393 0.95763 2
    endloop
  endfacet
  facet normal -0.659363 -0.751825 0
    outer loop
      vertex -2.61629 -2.61629 1.7
      vertex -2.25242 -2.93541 2
      vertex -2.61629 -2.61629 2
    endloop
  endfacet
  facet normal -0.659363 -0.751825 -0
    outer loop
      vertex -2.25242 -2.93541 2
      vertex -2.61629 -2.61629 1.7
      vertex -2.25242 -2.93541 1.7
    endloop
  endfacet
  facet normal 0.065395 0.997859 -0
    outer loop
      vertex 0.482946 3.66835 1.7
      vertex 0 3.7 2
      vertex 0.482946 3.66835 2
    endloop
  endfacet
  facet normal 0.065395 0.997859 0
    outer loop
      vertex 0 3.7 2
      vertex 0.482946 3.66835 1.7
      vertex 0 3.7 1.7
    endloop
  endfacet
  facet normal 0.831478 0.555558 0
    outer loop
      vertex 3.20429 1.85 2
      vertex 2.93541 2.25242 1.7
      vertex 2.93541 2.25242 2
    endloop
  endfacet
  facet normal 0.831478 0.555558 0
    outer loop
      vertex 2.93541 2.25242 1.7
      vertex 3.20429 1.85 2
      vertex 3.20429 1.85 1.7
    endloop
  endfacet
  facet normal -0.896872 -0.442289 0
    outer loop
      vertex -3.20429 -1.85 1.7
      vertex -3.41835 -1.41593 2
      vertex -3.41835 -1.41593 1.7
    endloop
  endfacet
  facet normal -0.896872 -0.442289 0
    outer loop
      vertex -3.41835 -1.41593 2
      vertex -3.20429 -1.85 1.7
      vertex -3.20429 -1.85 2
    endloop
  endfacet
  facet normal 0.831478 -0.555558 0
    outer loop
      vertex 2.93541 -2.25242 2
      vertex 3.20429 -1.85 1.7
      vertex 3.20429 -1.85 2
    endloop
  endfacet
  facet normal 0.831478 -0.555558 0
    outer loop
      vertex 3.20429 -1.85 1.7
      vertex 2.93541 -2.25242 2
      vertex 2.93541 -2.25242 1.7
    endloop
  endfacet
  facet normal -0.065395 -0.997859 0
    outer loop
      vertex -0.482946 -3.66835 1.7
      vertex 0 -3.7 2
      vertex -0.482946 -3.66835 2
    endloop
  endfacet
  facet normal -0.065395 -0.997859 -0
    outer loop
      vertex 0 -3.7 2
      vertex -0.482946 -3.66835 1.7
      vertex 0 -3.7 1.7
    endloop
  endfacet
  facet normal -0.980785 0.195089 0
    outer loop
      vertex -3.66835 0.482946 1.7
      vertex -3.57393 0.95763 2
      vertex -3.57393 0.95763 1.7
    endloop
  endfacet
  facet normal -0.980785 0.195089 0
    outer loop
      vertex -3.57393 0.95763 2
      vertex -3.66835 0.482946 1.7
      vertex -3.66835 0.482946 2
    endloop
  endfacet
  facet normal -0.555558 -0.831478 0
    outer loop
      vertex -2.25242 -2.93541 1.7
      vertex -1.85 -3.20429 2
      vertex -2.25242 -2.93541 2
    endloop
  endfacet
  facet normal -0.555558 -0.831478 -0
    outer loop
      vertex -1.85 -3.20429 2
      vertex -2.25242 -2.93541 1.7
      vertex -1.85 -3.20429 1.7
    endloop
  endfacet
  facet normal -0.555558 0.831478 0
    outer loop
      vertex -1.85 3.20429 1.7
      vertex -2.25242 2.93541 2
      vertex -1.85 3.20429 2
    endloop
  endfacet
  facet normal -0.555558 0.831478 0
    outer loop
      vertex -2.25242 2.93541 2
      vertex -1.85 3.20429 1.7
      vertex -2.25242 2.93541 1.7
    endloop
  endfacet
  facet normal -0.980785 -0.195089 0
    outer loop
      vertex -3.57393 -0.95763 1.7
      vertex -3.66835 -0.482946 2
      vertex -3.66835 -0.482946 1.7
    endloop
  endfacet
  facet normal -0.980785 -0.195089 0
    outer loop
      vertex -3.66835 -0.482946 2
      vertex -3.57393 -0.95763 1.7
      vertex -3.57393 -0.95763 2
    endloop
  endfacet
  facet normal -0.751825 -0.659363 0
    outer loop
      vertex -2.61629 -2.61629 1.7
      vertex -2.93541 -2.25242 2
      vertex -2.93541 -2.25242 1.7
    endloop
  endfacet
  facet normal -0.751825 -0.659363 0
    outer loop
      vertex -2.93541 -2.25242 2
      vertex -2.61629 -2.61629 1.7
      vertex -2.61629 -2.61629 2
    endloop
  endfacet
  facet normal 0.555558 -0.831478 0
    outer loop
      vertex 1.85 -3.20429 1.7
      vertex 2.25242 -2.93541 2
      vertex 1.85 -3.20429 2
    endloop
  endfacet
  facet normal 0.555558 -0.831478 0
    outer loop
      vertex 2.25242 -2.93541 2
      vertex 1.85 -3.20429 1.7
      vertex 2.25242 -2.93541 1.7
    endloop
  endfacet
  facet normal -0.831478 0.555558 0
    outer loop
      vertex -3.20429 1.85 1.7
      vertex -2.93541 2.25242 2
      vertex -2.93541 2.25242 1.7
    endloop
  endfacet
  facet normal -0.831478 0.555558 0
    outer loop
      vertex -2.93541 2.25242 2
      vertex -3.20429 1.85 1.7
      vertex -3.20429 1.85 2
    endloop
  endfacet
  facet normal 0.706349 0.0462908 0.706349
    outer loop
      vertex 3.66835 0.482946 2
      vertex 3 0 2.7
      vertex 3.7 0 2
    endloop
  endfacet
  facet normal -0.694261 0.138084 0.706353
    outer loop
      vertex -2.89778 0.776457 2.7
      vertex -3.66835 0.482946 2
      vertex -2.97433 0.391578 2.7
    endloop
  endfacet
  facet normal 0.588576 -0.393261 0.706346
    outer loop
      vertex 3.20429 -1.85 2
      vertex 2.59808 -1.5 2.7
      vertex 2.93541 -2.25242 2
    endloop
  endfacet
  facet normal 0.138097 0.694262 0.706349
    outer loop
      vertex 0.95763 3.57393 2
      vertex 0.482946 3.66835 2
      vertex 0.776457 2.89778 2.7
    endloop
  endfacet
  facet normal 0.227546 0.670294 0.706349
    outer loop
      vertex 0.95763 3.57393 2
      vertex 0.776457 2.89778 2.7
      vertex 1.41593 3.41835 2
    endloop
  endfacet
  facet normal -0.706349 -0.0462908 0.706349
    outer loop
      vertex -3 0 2.7
      vertex -3.7 0 2
      vertex -3.66835 -0.482946 2
    endloop
  endfacet
  facet normal 0.634867 0.313082 0.706345
    outer loop
      vertex 3.20429 1.85 2
      vertex 2.59808 1.5 2.7
      vertex 3.41835 1.41593 2
    endloop
  endfacet
  facet normal 0.706349 -0.0462908 0.706349
    outer loop
      vertex 3.7 0 2
      vertex 3 0 2.7
      vertex 3.66835 -0.482946 2
    endloop
  endfacet
  facet normal -0.588576 0.393261 0.706346
    outer loop
      vertex -2.93541 2.25242 2
      vertex -3.20429 1.85 2
      vertex -2.59808 1.5 2.7
    endloop
  endfacet
  facet normal 0.313082 -0.634867 0.706345
    outer loop
      vertex 1.5 -2.59808 2.7
      vertex 1.41593 -3.41835 2
      vertex 1.85 -3.20429 2
    endloop
  endfacet
  facet normal -0.670294 0.227546 0.706349
    outer loop
      vertex -3.41835 1.41593 2
      vertex -3.57393 0.95763 2
      vertex -2.89778 0.776457 2.7
    endloop
  endfacet
  facet normal -0.138084 0.694261 0.706353
    outer loop
      vertex -0.482946 3.66835 2
      vertex -0.776457 2.89778 2.7
      vertex -0.391578 2.97433 2.7
    endloop
  endfacet
  facet normal 0.466737 -0.532188 0.706351
    outer loop
      vertex 2.61629 -2.61629 2
      vertex 1.82628 -2.38006 2.7
      vertex 2.25242 -2.93541 2
    endloop
  endfacet
  facet normal -0.706349 0.0462908 0.706349
    outer loop
      vertex -3.66835 0.482946 2
      vertex -3.7 0 2
      vertex -3 0 2.7
    endloop
  endfacet
  facet normal 0.634867 -0.313082 0.706345
    outer loop
      vertex 3.41835 -1.41593 2
      vertex 2.59808 -1.5 2.7
      vertex 3.20429 -1.85 2
    endloop
  endfacet
  facet normal -0.532206 0.466726 0.706345
    outer loop
      vertex -2.12132 2.12132 2.7
      vertex -2.61629 2.61629 2
      vertex -2.38006 1.82628 2.7
    endloop
  endfacet
  facet normal -0.227546 -0.670294 0.706349
    outer loop
      vertex -0.776457 -2.89778 2.7
      vertex -1.41593 -3.41835 2
      vertex -0.95763 -3.57393 2
    endloop
  endfacet
  facet normal -0.138097 -0.694262 0.706349
    outer loop
      vertex -0.776457 -2.89778 2.7
      vertex -0.95763 -3.57393 2
      vertex -0.482946 -3.66835 2
    endloop
  endfacet
  facet normal 0.694262 0.138097 0.706349
    outer loop
      vertex 3.57393 0.95763 2
      vertex 2.89778 0.776457 2.7
      vertex 3.66835 0.482946 2
    endloop
  endfacet
  facet normal 0.588559 0.393275 0.706352
    outer loop
      vertex 2.93541 2.25242 2
      vertex 2.38006 1.82628 2.7
      vertex 2.59808 1.5 2.7
    endloop
  endfacet
  facet normal -0.0463045 0.706343 0.706353
    outer loop
      vertex 0 3 2.7
      vertex -0.482946 3.66835 2
      vertex -0.391578 2.97433 2.7
    endloop
  endfacet
  facet normal -0.532188 0.466737 0.706351
    outer loop
      vertex -2.61629 2.61629 2
      vertex -2.93541 2.25242 2
      vertex -2.38006 1.82628 2.7
    endloop
  endfacet
  facet normal 0.670294 0.227546 0.706349
    outer loop
      vertex 3.41835 1.41593 2
      vertex 2.89778 0.776457 2.7
      vertex 3.57393 0.95763 2
    endloop
  endfacet
  facet normal 0.227538 -0.6703 0.706346
    outer loop
      vertex 1.14805 -2.77164 2.7
      vertex 0.776457 -2.89778 2.7
      vertex 1.41593 -3.41835 2
    endloop
  endfacet
  facet normal -0.588576 -0.393261 0.706346
    outer loop
      vertex -2.59808 -1.5 2.7
      vertex -3.20429 -1.85 2
      vertex -2.93541 -2.25242 2
    endloop
  endfacet
  facet normal 0.393275 -0.588559 0.706352
    outer loop
      vertex 1.82628 -2.38006 2.7
      vertex 1.5 -2.59808 2.7
      vertex 2.25242 -2.93541 2
    endloop
  endfacet
  facet normal -0.393261 0.588576 0.706346
    outer loop
      vertex -1.85 3.20429 2
      vertex -2.25242 2.93541 2
      vertex -1.5 2.59808 2.7
    endloop
  endfacet
  facet normal 0.227538 0.6703 0.706346
    outer loop
      vertex 1.41593 3.41835 2
      vertex 0.776457 2.89778 2.7
      vertex 1.14805 2.77164 2.7
    endloop
  endfacet
  facet normal -0.706343 -0.0463045 0.706353
    outer loop
      vertex -3 0 2.7
      vertex -3.66835 -0.482946 2
      vertex -2.97433 -0.391578 2.7
    endloop
  endfacet
  facet normal 0.588576 0.393261 0.706346
    outer loop
      vertex 2.93541 2.25242 2
      vertex 2.59808 1.5 2.7
      vertex 3.20429 1.85 2
    endloop
  endfacet
  facet normal 0.0462908 0.706349 0.706349
    outer loop
      vertex 0 3.7 2
      vertex 0 3 2.7
      vertex 0.482946 3.66835 2
    endloop
  endfacet
  facet normal -0.694262 0.138097 0.706349
    outer loop
      vertex -3.57393 0.95763 2
      vertex -3.66835 0.482946 2
      vertex -2.89778 0.776457 2.7
    endloop
  endfacet
  facet normal -0.634868 -0.313078 0.706346
    outer loop
      vertex -2.77164 -1.14805 2.7
      vertex -3.41835 -1.41593 2
      vertex -2.59808 -1.5 2.7
    endloop
  endfacet
  facet normal -0.227546 0.670294 0.706349
    outer loop
      vertex -0.95763 3.57393 2
      vertex -1.41593 3.41835 2
      vertex -0.776457 2.89778 2.7
    endloop
  endfacet
  facet normal -0.694261 -0.138084 0.706353
    outer loop
      vertex -2.97433 -0.391578 2.7
      vertex -3.66835 -0.482946 2
      vertex -2.89778 -0.776457 2.7
    endloop
  endfacet
  facet normal -0.634867 0.313082 0.706345
    outer loop
      vertex -3.20429 1.85 2
      vertex -3.41835 1.41593 2
      vertex -2.59808 1.5 2.7
    endloop
  endfacet
  facet normal 0.670294 -0.227546 0.706349
    outer loop
      vertex 3.57393 -0.95763 2
      vertex 2.89778 -0.776457 2.7
      vertex 3.41835 -1.41593 2
    endloop
  endfacet
  facet normal 0.634868 -0.313078 0.706346
    outer loop
      vertex 2.77164 -1.14805 2.7
      vertex 2.59808 -1.5 2.7
      vertex 3.41835 -1.41593 2
    endloop
  endfacet
  facet normal -0.532188 -0.466737 0.706351
    outer loop
      vertex -2.38006 -1.82628 2.7
      vertex -2.93541 -2.25242 2
      vertex -2.61629 -2.61629 2
    endloop
  endfacet
  facet normal -0.138084 -0.694261 0.706353
    outer loop
      vertex -0.391578 -2.97433 2.7
      vertex -0.776457 -2.89778 2.7
      vertex -0.482946 -3.66835 2
    endloop
  endfacet
  facet normal 0.694261 0.138084 0.706353
    outer loop
      vertex 3.66835 0.482946 2
      vertex 2.89778 0.776457 2.7
      vertex 2.97433 0.391578 2.7
    endloop
  endfacet
  facet normal -0.0462908 0.706349 0.706349
    outer loop
      vertex 0 3.7 2
      vertex -0.482946 3.66835 2
      vertex 0 3 2.7
    endloop
  endfacet
  facet normal 0.0462908 -0.706349 0.706349
    outer loop
      vertex 0 -3 2.7
      vertex 0 -3.7 2
      vertex 0.482946 -3.66835 2
    endloop
  endfacet
  facet normal -0.313078 0.634868 0.706346
    outer loop
      vertex -1.41593 3.41835 2
      vertex -1.5 2.59808 2.7
      vertex -1.14805 2.77164 2.7
    endloop
  endfacet
  facet normal 0.588559 -0.393275 0.706352
    outer loop
      vertex 2.59808 -1.5 2.7
      vertex 2.38006 -1.82628 2.7
      vertex 2.93541 -2.25242 2
    endloop
  endfacet
  facet normal -0.532206 -0.466726 0.706345
    outer loop
      vertex -2.38006 -1.82628 2.7
      vertex -2.61629 -2.61629 2
      vertex -2.12132 -2.12132 2.7
    endloop
  endfacet
  facet normal 0.694262 -0.138097 0.706349
    outer loop
      vertex 3.66835 -0.482946 2
      vertex 2.89778 -0.776457 2.7
      vertex 3.57393 -0.95763 2
    endloop
  endfacet
  facet normal 0.466726 0.532206 0.706345
    outer loop
      vertex 2.61629 2.61629 2
      vertex 1.82628 2.38006 2.7
      vertex 2.12132 2.12132 2.7
    endloop
  endfacet
  facet normal -0.0463045 -0.706343 0.706353
    outer loop
      vertex -0.391578 -2.97433 2.7
      vertex -0.482946 -3.66835 2
      vertex 0 -3 2.7
    endloop
  endfacet
  facet normal 0.0463045 0.706343 0.706353
    outer loop
      vertex 0.482946 3.66835 2
      vertex 0 3 2.7
      vertex 0.391578 2.97433 2.7
    endloop
  endfacet
  facet normal 0.6703 0.227538 0.706346
    outer loop
      vertex 3.41835 1.41593 2
      vertex 2.77164 1.14805 2.7
      vertex 2.89778 0.776457 2.7
    endloop
  endfacet
  facet normal 0.532206 0.466726 0.706345
    outer loop
      vertex 2.61629 2.61629 2
      vertex 2.12132 2.12132 2.7
      vertex 2.38006 1.82628 2.7
    endloop
  endfacet
  facet normal -0.694262 -0.138097 0.706349
    outer loop
      vertex -2.89778 -0.776457 2.7
      vertex -3.66835 -0.482946 2
      vertex -3.57393 -0.95763 2
    endloop
  endfacet
  facet normal -0.466737 0.532188 0.706351
    outer loop
      vertex -2.25242 2.93541 2
      vertex -2.61629 2.61629 2
      vertex -1.82628 2.38006 2.7
    endloop
  endfacet
  facet normal -0.706343 0.0463045 0.706353
    outer loop
      vertex -2.97433 0.391578 2.7
      vertex -3.66835 0.482946 2
      vertex -3 0 2.7
    endloop
  endfacet
  facet normal 0.634868 0.313078 0.706346
    outer loop
      vertex 3.41835 1.41593 2
      vertex 2.59808 1.5 2.7
      vertex 2.77164 1.14805 2.7
    endloop
  endfacet
  facet normal -0.634868 0.313078 0.706346
    outer loop
      vertex -2.59808 1.5 2.7
      vertex -3.41835 1.41593 2
      vertex -2.77164 1.14805 2.7
    endloop
  endfacet
  facet normal -0.313082 0.634867 0.706345
    outer loop
      vertex -1.41593 3.41835 2
      vertex -1.85 3.20429 2
      vertex -1.5 2.59808 2.7
    endloop
  endfacet
  facet normal -0.6703 0.227538 0.706346
    outer loop
      vertex -2.77164 1.14805 2.7
      vertex -3.41835 1.41593 2
      vertex -2.89778 0.776457 2.7
    endloop
  endfacet
  facet normal 0.532188 -0.466737 0.706351
    outer loop
      vertex 2.93541 -2.25242 2
      vertex 2.38006 -1.82628 2.7
      vertex 2.61629 -2.61629 2
    endloop
  endfacet
  facet normal 0.532188 0.466737 0.706351
    outer loop
      vertex 2.61629 2.61629 2
      vertex 2.38006 1.82628 2.7
      vertex 2.93541 2.25242 2
    endloop
  endfacet
  facet normal 0.313078 0.634868 0.706346
    outer loop
      vertex 1.41593 3.41835 2
      vertex 1.14805 2.77164 2.7
      vertex 1.5 2.59808 2.7
    endloop
  endfacet
  facet normal 0.532206 -0.466726 0.706345
    outer loop
      vertex 2.38006 -1.82628 2.7
      vertex 2.12132 -2.12132 2.7
      vertex 2.61629 -2.61629 2
    endloop
  endfacet
  facet normal -0.313082 -0.634867 0.706345
    outer loop
      vertex -1.5 -2.59808 2.7
      vertex -1.85 -3.20429 2
      vertex -1.41593 -3.41835 2
    endloop
  endfacet
  facet normal 0.706343 0.0463045 0.706353
    outer loop
      vertex 3.66835 0.482946 2
      vertex 2.97433 0.391578 2.7
      vertex 3 0 2.7
    endloop
  endfacet
  facet normal -0.138097 0.694262 0.706349
    outer loop
      vertex -0.482946 3.66835 2
      vertex -0.95763 3.57393 2
      vertex -0.776457 2.89778 2.7
    endloop
  endfacet
  facet normal 0.138084 0.694261 0.706353
    outer loop
      vertex 0.482946 3.66835 2
      vertex 0.391578 2.97433 2.7
      vertex 0.776457 2.89778 2.7
    endloop
  endfacet
  facet normal -0.6703 -0.227538 0.706346
    outer loop
      vertex -2.89778 -0.776457 2.7
      vertex -3.41835 -1.41593 2
      vertex -2.77164 -1.14805 2.7
    endloop
  endfacet
  facet normal 0.6703 -0.227538 0.706346
    outer loop
      vertex 2.89778 -0.776457 2.7
      vertex 2.77164 -1.14805 2.7
      vertex 3.41835 -1.41593 2
    endloop
  endfacet
  facet normal 0.466726 -0.532206 0.706345
    outer loop
      vertex 2.12132 -2.12132 2.7
      vertex 1.82628 -2.38006 2.7
      vertex 2.61629 -2.61629 2
    endloop
  endfacet
  facet normal 0.694261 -0.138084 0.706353
    outer loop
      vertex 2.97433 -0.391578 2.7
      vertex 2.89778 -0.776457 2.7
      vertex 3.66835 -0.482946 2
    endloop
  endfacet
  facet normal 0.706343 -0.0463045 0.706353
    outer loop
      vertex 3 0 2.7
      vertex 2.97433 -0.391578 2.7
      vertex 3.66835 -0.482946 2
    endloop
  endfacet
  facet normal -0.634867 -0.313082 0.706345
    outer loop
      vertex -2.59808 -1.5 2.7
      vertex -3.41835 -1.41593 2
      vertex -3.20429 -1.85 2
    endloop
  endfacet
  facet normal 0.466737 0.532188 0.706351
    outer loop
      vertex 2.25242 2.93541 2
      vertex 1.82628 2.38006 2.7
      vertex 2.61629 2.61629 2
    endloop
  endfacet
  facet normal 0.313082 0.634867 0.706345
    outer loop
      vertex 1.85 3.20429 2
      vertex 1.41593 3.41835 2
      vertex 1.5 2.59808 2.7
    endloop
  endfacet
  facet normal 0.393261 0.588576 0.706346
    outer loop
      vertex 1.85 3.20429 2
      vertex 1.5 2.59808 2.7
      vertex 2.25242 2.93541 2
    endloop
  endfacet
  facet normal -0.670294 -0.227546 0.706349
    outer loop
      vertex -2.89778 -0.776457 2.7
      vertex -3.57393 -0.95763 2
      vertex -3.41835 -1.41593 2
    endloop
  endfacet
  facet normal 0.138084 -0.694261 0.706353
    outer loop
      vertex 0.776457 -2.89778 2.7
      vertex 0.391578 -2.97433 2.7
      vertex 0.482946 -3.66835 2
    endloop
  endfacet
  facet normal -0.227538 0.6703 0.706346
    outer loop
      vertex -0.776457 2.89778 2.7
      vertex -1.41593 3.41835 2
      vertex -1.14805 2.77164 2.7
    endloop
  endfacet
  facet normal 0.313078 -0.634868 0.706346
    outer loop
      vertex 1.5 -2.59808 2.7
      vertex 1.14805 -2.77164 2.7
      vertex 1.41593 -3.41835 2
    endloop
  endfacet
  facet normal -0.588559 0.393275 0.706352
    outer loop
      vertex -2.38006 1.82628 2.7
      vertex -2.93541 2.25242 2
      vertex -2.59808 1.5 2.7
    endloop
  endfacet
  facet normal -0.466726 -0.532206 0.706345
    outer loop
      vertex -2.12132 -2.12132 2.7
      vertex -2.61629 -2.61629 2
      vertex -1.82628 -2.38006 2.7
    endloop
  endfacet
  facet normal 0.138097 -0.694262 0.706349
    outer loop
      vertex 0.776457 -2.89778 2.7
      vertex 0.482946 -3.66835 2
      vertex 0.95763 -3.57393 2
    endloop
  endfacet
  facet normal -0.393275 -0.588559 0.706352
    outer loop
      vertex -1.82628 -2.38006 2.7
      vertex -2.25242 -2.93541 2
      vertex -1.5 -2.59808 2.7
    endloop
  endfacet
  facet normal -0.466726 0.532206 0.706345
    outer loop
      vertex -1.82628 2.38006 2.7
      vertex -2.61629 2.61629 2
      vertex -2.12132 2.12132 2.7
    endloop
  endfacet
  facet normal 0.227546 -0.670294 0.706349
    outer loop
      vertex 1.41593 -3.41835 2
      vertex 0.776457 -2.89778 2.7
      vertex 0.95763 -3.57393 2
    endloop
  endfacet
  facet normal 0.0463045 -0.706343 0.706353
    outer loop
      vertex 0.391578 -2.97433 2.7
      vertex 0 -3 2.7
      vertex 0.482946 -3.66835 2
    endloop
  endfacet
  facet normal -0.393261 -0.588576 0.706346
    outer loop
      vertex -1.5 -2.59808 2.7
      vertex -2.25242 -2.93541 2
      vertex -1.85 -3.20429 2
    endloop
  endfacet
  facet normal -0.0462908 -0.706349 0.706349
    outer loop
      vertex 0 -3 2.7
      vertex -0.482946 -3.66835 2
      vertex 0 -3.7 2
    endloop
  endfacet
  facet normal -0.466737 -0.532188 0.706351
    outer loop
      vertex -1.82628 -2.38006 2.7
      vertex -2.61629 -2.61629 2
      vertex -2.25242 -2.93541 2
    endloop
  endfacet
  facet normal -0.227538 -0.6703 0.706346
    outer loop
      vertex -1.14805 -2.77164 2.7
      vertex -1.41593 -3.41835 2
      vertex -0.776457 -2.89778 2.7
    endloop
  endfacet
  facet normal 0.393275 0.588559 0.706352
    outer loop
      vertex 2.25242 2.93541 2
      vertex 1.5 2.59808 2.7
      vertex 1.82628 2.38006 2.7
    endloop
  endfacet
  facet normal -0.313078 -0.634868 0.706346
    outer loop
      vertex -1.14805 -2.77164 2.7
      vertex -1.5 -2.59808 2.7
      vertex -1.41593 -3.41835 2
    endloop
  endfacet
  facet normal -0.393275 0.588559 0.706352
    outer loop
      vertex -1.5 2.59808 2.7
      vertex -2.25242 2.93541 2
      vertex -1.82628 2.38006 2.7
    endloop
  endfacet
  facet normal 0.393261 -0.588576 0.706346
    outer loop
      vertex 2.25242 -2.93541 2
      vertex 1.5 -2.59808 2.7
      vertex 1.85 -3.20429 2
    endloop
  endfacet
  facet normal -0.588559 -0.393275 0.706352
    outer loop
      vertex -2.59808 -1.5 2.7
      vertex -2.93541 -2.25242 2
      vertex -2.38006 -1.82628 2.7
    endloop
  endfacet
  facet normal 0.980789 0.195073 0
    outer loop
      vertex 2.97433 0.391578 5.5
      vertex 2.89778 0.776457 2.7
      vertex 2.89778 0.776457 5.5
    endloop
  endfacet
  facet normal 0.980789 0.195073 0
    outer loop
      vertex 2.89778 0.776457 2.7
      vertex 2.97433 0.391578 5.5
      vertex 2.97433 0.391578 2.7
    endloop
  endfacet
  facet normal 0.997858 0.0654149 0
    outer loop
      vertex 3 0 5.5
      vertex 2.97433 0.391578 2.7
      vertex 2.97433 0.391578 5.5
    endloop
  endfacet
  facet normal 0.997858 0.0654149 0
    outer loop
      vertex 2.97433 0.391578 2.7
      vertex 3 0 5.5
      vertex 3 0 2.7
    endloop
  endfacet
  facet normal 0.980789 -0.195073 0
    outer loop
      vertex 2.89778 -0.776457 5.5
      vertex 2.97433 -0.391578 2.7
      vertex 2.97433 -0.391578 5.5
    endloop
  endfacet
  facet normal 0.980789 -0.195073 0
    outer loop
      vertex 2.97433 -0.391578 2.7
      vertex 2.89778 -0.776457 5.5
      vertex 2.89778 -0.776457 2.7
    endloop
  endfacet
  facet normal -0.751844 -0.659341 0
    outer loop
      vertex -2.12132 -2.12132 2.7
      vertex -2.38006 -1.82628 5.5
      vertex -2.38006 -1.82628 2.7
    endloop
  endfacet
  facet normal -0.751844 -0.659341 0
    outer loop
      vertex -2.38006 -1.82628 5.5
      vertex -2.12132 -2.12132 2.7
      vertex -2.12132 -2.12132 5.5
    endloop
  endfacet
  facet normal 0 0 1
    outer loop
      vertex 2.97433 0.391578 5.5
      vertex 2.97433 -0.391578 5.5
      vertex 3 0 5.5
    endloop
  endfacet
  facet normal 0 0 1
    outer loop
      vertex 2.89778 0.776457 5.5
      vertex 2.97433 -0.391578 5.5
      vertex 2.97433 0.391578 5.5
    endloop
  endfacet
  facet normal 0 0 1
    outer loop
      vertex 2.89778 0.776457 5.5
      vertex 2.89778 -0.776457 5.5
      vertex 2.97433 -0.391578 5.5
    endloop
  endfacet
  facet normal 0 0 1
    outer loop
      vertex 2.77164 1.14805 5.5
      vertex 2.89778 -0.776457 5.5
      vertex 2.89778 0.776457 5.5
    endloop
  endfacet
  facet normal 0 0 1
    outer loop
      vertex 2.77164 1.14805 5.5
      vertex 2.77164 -1.14805 5.5
      vertex 2.89778 -0.776457 5.5
    endloop
  endfacet
  facet normal 0 0 1
    outer loop
      vertex 2.59808 1.5 5.5
      vertex 2.77164 -1.14805 5.5
      vertex 2.77164 1.14805 5.5
    endloop
  endfacet
  facet normal 0 0 1
    outer loop
      vertex 2.59808 1.5 5.5
      vertex 2.59808 -1.5 5.5
      vertex 2.77164 -1.14805 5.5
    endloop
  endfacet
  facet normal 0 0 1
    outer loop
      vertex 2.38006 1.82628 5.5
      vertex 2.59808 -1.5 5.5
      vertex 2.59808 1.5 5.5
    endloop
  endfacet
  facet normal 0 0 1
    outer loop
      vertex 2.38006 1.82628 5.5
      vertex 2.38006 -1.82628 5.5
      vertex 2.59808 -1.5 5.5
    endloop
  endfacet
  facet normal 0 0 1
    outer loop
      vertex 2.12132 2.12132 5.5
      vertex 2.38006 -1.82628 5.5
      vertex 2.38006 1.82628 5.5
    endloop
  endfacet
  facet normal 0 0 1
    outer loop
      vertex 2.12132 2.12132 5.5
      vertex 2.12132 -2.12132 5.5
      vertex 2.38006 -1.82628 5.5
    endloop
  endfacet
  facet normal 0 0 1
    outer loop
      vertex 1.82628 2.38006 5.5
      vertex 2.12132 -2.12132 5.5
      vertex 2.12132 2.12132 5.5
    endloop
  endfacet
  facet normal 0 0 1
    outer loop
      vertex 1.82628 2.38006 5.5
      vertex 1.82628 -2.38006 5.5
      vertex 2.12132 -2.12132 5.5
    endloop
  endfacet
  facet normal 0 0 1
    outer loop
      vertex 1.5 2.59808 5.5
      vertex 1.82628 -2.38006 5.5
      vertex 1.82628 2.38006 5.5
    endloop
  endfacet
  facet normal 0 0 1
    outer loop
      vertex 1.5 2.59808 5.5
      vertex 1.5 -2.59808 5.5
      vertex 1.82628 -2.38006 5.5
    endloop
  endfacet
  facet normal 0 0 1
    outer loop
      vertex 1.14805 2.77164 5.5
      vertex 1.5 -2.59808 5.5
      vertex 1.5 2.59808 5.5
    endloop
  endfacet
  facet normal 0 0 1
    outer loop
      vertex 1.14805 2.77164 5.5
      vertex 1.14805 -2.77164 5.5
      vertex 1.5 -2.59808 5.5
    endloop
  endfacet
  facet normal 0 0 1
    outer loop
      vertex 0.776457 2.89778 5.5
      vertex 1.14805 -2.77164 5.5
      vertex 1.14805 2.77164 5.5
    endloop
  endfacet
  facet normal 0 0 1
    outer loop
      vertex 0.776457 2.89778 5.5
      vertex 0.776457 -2.89778 5.5
      vertex 1.14805 -2.77164 5.5
    endloop
  endfacet
  facet normal 0 0 1
    outer loop
      vertex 0.391578 2.97433 5.5
      vertex 0.776457 -2.89778 5.5
      vertex 0.776457 2.89778 5.5
    endloop
  endfacet
  facet normal 0 0 1
    outer loop
      vertex 0.391578 2.97433 5.5
      vertex 0.391578 -2.97433 5.5
      vertex 0.776457 -2.89778 5.5
    endloop
  endfacet
  facet normal 0 0 1
    outer loop
      vertex 0 3 5.5
      vertex 0.391578 -2.97433 5.5
      vertex 0.391578 2.97433 5.5
    endloop
  endfacet
  facet normal 0 0 1
    outer loop
      vertex 0 3 5.5
      vertex 0 -3 5.5
      vertex 0.391578 -2.97433 5.5
    endloop
  endfacet
  facet normal -0 0 1
    outer loop
      vertex -0.391578 2.97433 5.5
      vertex 0 -3 5.5
      vertex 0 3 5.5
    endloop
  endfacet
  facet normal 0 0 1
    outer loop
      vertex -0.391578 2.97433 5.5
      vertex -0.391578 -2.97433 5.5
      vertex 0 -3 5.5
    endloop
  endfacet
  facet normal -0 0 1
    outer loop
      vertex -0.776457 2.89778 5.5
      vertex -0.391578 -2.97433 5.5
      vertex -0.391578 2.97433 5.5
    endloop
  endfacet
  facet normal 0 0 1
    outer loop
      vertex -0.776457 2.89778 5.5
      vertex -0.776457 -2.89778 5.5
      vertex -0.391578 -2.97433 5.5
    endloop
  endfacet
  facet normal -0 0 1
    outer loop
      vertex -1.14805 2.77164 5.5
      vertex -0.776457 -2.89778 5.5
      vertex -0.776457 2.89778 5.5
    endloop
  endfacet
  facet normal 0 0 1
    outer loop
      vertex -1.14805 2.77164 5.5
      vertex -1.14805 -2.77164 5.5
      vertex -0.776457 -2.89778 5.5
    endloop
  endfacet
  facet normal -0 0 1
    outer loop
      vertex -1.5 2.59808 5.5
      vertex -1.14805 -2.77164 5.5
      vertex -1.14805 2.77164 5.5
    endloop
  endfacet
  facet normal 0 0 1
    outer loop
      vertex -1.5 2.59808 5.5
      vertex -1.5 -2.59808 5.5
      vertex -1.14805 -2.77164 5.5
    endloop
  endfacet
  facet normal -0 0 1
    outer loop
      vertex -1.82628 2.38006 5.5
      vertex -1.5 -2.59808 5.5
      vertex -1.5 2.59808 5.5
    endloop
  endfacet
  facet normal 0 0 1
    outer loop
      vertex -1.82628 2.38006 5.5
      vertex -1.82628 -2.38006 5.5
      vertex -1.5 -2.59808 5.5
    endloop
  endfacet
  facet normal -0 0 1
    outer loop
      vertex -2.12132 2.12132 5.5
      vertex -1.82628 -2.38006 5.5
      vertex -1.82628 2.38006 5.5
    endloop
  endfacet
  facet normal 0 0 1
    outer loop
      vertex -2.12132 2.12132 5.5
      vertex -2.12132 -2.12132 5.5
      vertex -1.82628 -2.38006 5.5
    endloop
  endfacet
  facet normal -0 0 1
    outer loop
      vertex -2.38006 1.82628 5.5
      vertex -2.12132 -2.12132 5.5
      vertex -2.12132 2.12132 5.5
    endloop
  endfacet
  facet normal 0 0 1
    outer loop
      vertex -2.38006 1.82628 5.5
      vertex -2.38006 -1.82628 5.5
      vertex -2.12132 -2.12132 5.5
    endloop
  endfacet
  facet normal -0 0 1
    outer loop
      vertex -2.59808 1.5 5.5
      vertex -2.38006 -1.82628 5.5
      vertex -2.38006 1.82628 5.5
    endloop
  endfacet
  facet normal 0 0 1
    outer loop
      vertex -2.59808 1.5 5.5
      vertex -2.59808 -1.5 5.5
      vertex -2.38006 -1.82628 5.5
    endloop
  endfacet
  facet normal -0 0 1
    outer loop
      vertex -2.77164 1.14805 5.5
      vertex -2.59808 -1.5 5.5
      vertex -2.59808 1.5 5.5
    endloop
  endfacet
  facet normal 0 0 1
    outer loop
      vertex -2.77164 1.14805 5.5
      vertex -2.77164 -1.14805 5.5
      vertex -2.59808 -1.5 5.5
    endloop
  endfacet
  facet normal -0 0 1
    outer loop
      vertex -2.89778 0.776457 5.5
      vertex -2.77164 -1.14805 5.5
      vertex -2.77164 1.14805 5.5
    endloop
  endfacet
  facet normal 0 0 1
    outer loop
      vertex -2.89778 0.776457 5.5
      vertex -2.89778 -0.776457 5.5
      vertex -2.77164 -1.14805 5.5
    endloop
  endfacet
  facet normal -0 0 1
    outer loop
      vertex -2.97433 0.391578 5.5
      vertex -2.89778 -0.776457 5.5
      vertex -2.89778 0.776457 5.5
    endloop
  endfacet
  facet normal 0 0 1
    outer loop
      vertex -2.97433 0.391578 5.5
      vertex -2.97433 -0.391578 5.5
      vertex -2.89778 -0.776457 5.5
    endloop
  endfacet
  facet normal 0 -0 1
    outer loop
      vertex -2.97433 -0.391578 5.5
      vertex -2.97433 0.391578 5.5
      vertex -3 0 5.5
    endloop
  endfacet
  facet normal 0.831462 0.555582 0
    outer loop
      vertex 2.59808 1.5 5.5
      vertex 2.38006 1.82628 2.7
      vertex 2.38006 1.82628 5.5
    endloop
  endfacet
  facet normal 0.831462 0.555582 0
    outer loop
      vertex 2.38006 1.82628 2.7
      vertex 2.59808 1.5 5.5
      vertex 2.59808 1.5 2.7
    endloop
  endfacet
  facet normal 0.555582 0.831462 -0
    outer loop
      vertex 1.82628 2.38006 2.7
      vertex 1.5 2.59808 5.5
      vertex 1.82628 2.38006 5.5
    endloop
  endfacet
  facet normal 0.555582 0.831462 0
    outer loop
      vertex 1.5 2.59808 5.5
      vertex 1.82628 2.38006 2.7
      vertex 1.5 2.59808 2.7
    endloop
  endfacet
  facet normal 0.896875 -0.442283 0
    outer loop
      vertex 2.59808 -1.5 5.5
      vertex 2.77164 -1.14805 2.7
      vertex 2.77164 -1.14805 5.5
    endloop
  endfacet
  facet normal 0.896875 -0.442283 0
    outer loop
      vertex 2.77164 -1.14805 2.7
      vertex 2.59808 -1.5 5.5
      vertex 2.59808 -1.5 2.7
    endloop
  endfacet
  facet normal 0.997858 -0.0654149 0
    outer loop
      vertex 2.97433 -0.391578 5.5
      vertex 3 0 2.7
      vertex 3 0 5.5
    endloop
  endfacet
  facet normal 0.997858 -0.0654149 0
    outer loop
      vertex 3 0 2.7
      vertex 2.97433 -0.391578 5.5
      vertex 2.97433 -0.391578 2.7
    endloop
  endfacet
  facet normal 0.321442 0.946929 -0
    outer loop
      vertex 1.14805 2.77164 2.7
      vertex 0.776457 2.89778 5.5
      vertex 1.14805 2.77164 5.5
    endloop
  endfacet
  facet normal 0.321442 0.946929 0
    outer loop
      vertex 0.776457 2.89778 5.5
      vertex 1.14805 2.77164 2.7
      vertex 0.776457 2.89778 2.7
    endloop
  endfacet
  facet normal -0.896875 0.442283 0
    outer loop
      vertex -2.77164 1.14805 2.7
      vertex -2.59808 1.5 5.5
      vertex -2.59808 1.5 2.7
    endloop
  endfacet
  facet normal -0.896875 0.442283 0
    outer loop
      vertex -2.59808 1.5 5.5
      vertex -2.77164 1.14805 2.7
      vertex -2.77164 1.14805 5.5
    endloop
  endfacet
  facet normal -0.659341 0.751844 0
    outer loop
      vertex -1.82628 2.38006 2.7
      vertex -2.12132 2.12132 5.5
      vertex -1.82628 2.38006 5.5
    endloop
  endfacet
  facet normal -0.659341 0.751844 0
    outer loop
      vertex -2.12132 2.12132 5.5
      vertex -1.82628 2.38006 2.7
      vertex -2.12132 2.12132 2.7
    endloop
  endfacet
  facet normal 0.321442 -0.946929 0
    outer loop
      vertex 0.776457 -2.89778 2.7
      vertex 1.14805 -2.77164 5.5
      vertex 0.776457 -2.89778 5.5
    endloop
  endfacet
  facet normal 0.321442 -0.946929 0
    outer loop
      vertex 1.14805 -2.77164 5.5
      vertex 0.776457 -2.89778 2.7
      vertex 1.14805 -2.77164 2.7
    endloop
  endfacet
  facet normal -0.997858 -0.0654149 0
    outer loop
      vertex -2.97433 -0.391578 2.7
      vertex -3 0 5.5
      vertex -3 0 2.7
    endloop
  endfacet
  facet normal -0.997858 -0.0654149 0
    outer loop
      vertex -3 0 5.5
      vertex -2.97433 -0.391578 2.7
      vertex -2.97433 -0.391578 5.5
    endloop
  endfacet
  facet normal -0.659341 -0.751844 0
    outer loop
      vertex -2.12132 -2.12132 2.7
      vertex -1.82628 -2.38006 5.5
      vertex -2.12132 -2.12132 5.5
    endloop
  endfacet
  facet normal -0.659341 -0.751844 -0
    outer loop
      vertex -1.82628 -2.38006 5.5
      vertex -2.12132 -2.12132 2.7
      vertex -1.82628 -2.38006 2.7
    endloop
  endfacet
  facet normal -0.321442 0.946929 0
    outer loop
      vertex -0.776457 2.89778 2.7
      vertex -1.14805 2.77164 5.5
      vertex -0.776457 2.89778 5.5
    endloop
  endfacet
  facet normal -0.321442 0.946929 0
    outer loop
      vertex -1.14805 2.77164 5.5
      vertex -0.776457 2.89778 2.7
      vertex -1.14805 2.77164 2.7
    endloop
  endfacet
  facet normal -0.831462 -0.555582 0
    outer loop
      vertex -2.38006 -1.82628 2.7
      vertex -2.59808 -1.5 5.5
      vertex -2.59808 -1.5 2.7
    endloop
  endfacet
  facet normal -0.831462 -0.555582 0
    outer loop
      vertex -2.59808 -1.5 5.5
      vertex -2.38006 -1.82628 2.7
      vertex -2.38006 -1.82628 5.5
    endloop
  endfacet
  facet normal -0.555582 0.831462 0
    outer loop
      vertex -1.5 2.59808 2.7
      vertex -1.82628 2.38006 5.5
      vertex -1.5 2.59808 5.5
    endloop
  endfacet
  facet normal -0.555582 0.831462 0
    outer loop
      vertex -1.82628 2.38006 5.5
      vertex -1.5 2.59808 2.7
      vertex -1.82628 2.38006 2.7
    endloop
  endfacet
  facet normal -0.997858 0.0654149 0
    outer loop
      vertex -3 0 2.7
      vertex -2.97433 0.391578 5.5
      vertex -2.97433 0.391578 2.7
    endloop
  endfacet
  facet normal -0.997858 0.0654149 0
    outer loop
      vertex -2.97433 0.391578 5.5
      vertex -3 0 2.7
      vertex -3 0 5.5
    endloop
  endfacet
  facet normal 0.195073 0.980789 -0
    outer loop
      vertex 0.776457 2.89778 2.7
      vertex 0.391578 2.97433 5.5
      vertex 0.776457 2.89778 5.5
    endloop
  endfacet
  facet normal 0.195073 0.980789 0
    outer loop
      vertex 0.391578 2.97433 5.5
      vertex 0.776457 2.89778 2.7
      vertex 0.391578 2.97433 2.7
    endloop
  endfacet
  facet normal -0.442283 0.896875 0
    outer loop
      vertex -1.14805 2.77164 2.7
      vertex -1.5 2.59808 5.5
      vertex -1.14805 2.77164 5.5
    endloop
  endfacet
  facet normal -0.442283 0.896875 0
    outer loop
      vertex -1.5 2.59808 5.5
      vertex -1.14805 2.77164 2.7
      vertex -1.5 2.59808 2.7
    endloop
  endfacet
  facet normal 0.0654149 -0.997858 0
    outer loop
      vertex 0 -3 2.7
      vertex 0.391578 -2.97433 5.5
      vertex 0 -3 5.5
    endloop
  endfacet
  facet normal 0.0654149 -0.997858 0
    outer loop
      vertex 0.391578 -2.97433 5.5
      vertex 0 -3 2.7
      vertex 0.391578 -2.97433 2.7
    endloop
  endfacet
  facet normal 0.659341 -0.751844 0
    outer loop
      vertex 1.82628 -2.38006 2.7
      vertex 2.12132 -2.12132 5.5
      vertex 1.82628 -2.38006 5.5
    endloop
  endfacet
  facet normal 0.659341 -0.751844 0
    outer loop
      vertex 2.12132 -2.12132 5.5
      vertex 1.82628 -2.38006 2.7
      vertex 2.12132 -2.12132 2.7
    endloop
  endfacet
  facet normal -0.946929 -0.321442 0
    outer loop
      vertex -2.77164 -1.14805 2.7
      vertex -2.89778 -0.776457 5.5
      vertex -2.89778 -0.776457 2.7
    endloop
  endfacet
  facet normal -0.946929 -0.321442 0
    outer loop
      vertex -2.89778 -0.776457 5.5
      vertex -2.77164 -1.14805 2.7
      vertex -2.77164 -1.14805 5.5
    endloop
  endfacet
  facet normal 0.946929 -0.321442 0
    outer loop
      vertex 2.77164 -1.14805 5.5
      vertex 2.89778 -0.776457 2.7
      vertex 2.89778 -0.776457 5.5
    endloop
  endfacet
  facet normal 0.946929 -0.321442 0
    outer loop
      vertex 2.89778 -0.776457 2.7
      vertex 2.77164 -1.14805 5.5
      vertex 2.77164 -1.14805 2.7
    endloop
  endfacet
  facet normal 0.442283 0.896875 -0
    outer loop
      vertex 1.5 2.59808 2.7
      vertex 1.14805 2.77164 5.5
      vertex 1.5 2.59808 5.5
    endloop
  endfacet
  facet normal 0.442283 0.896875 0
    outer loop
      vertex 1.14805 2.77164 5.5
      vertex 1.5 2.59808 2.7
      vertex 1.14805 2.77164 2.7
    endloop
  endfacet
  facet normal -0.195073 0.980789 0
    outer loop
      vertex -0.391578 2.97433 2.7
      vertex -0.776457 2.89778 5.5
      vertex -0.391578 2.97433 5.5
    endloop
  endfacet
  facet normal -0.195073 0.980789 0
    outer loop
      vertex -0.776457 2.89778 5.5
      vertex -0.391578 2.97433 2.7
      vertex -0.776457 2.89778 2.7
    endloop
  endfacet
  facet normal 0.751844 0.659341 0
    outer loop
      vertex 2.38006 1.82628 5.5
      vertex 2.12132 2.12132 2.7
      vertex 2.12132 2.12132 5.5
    endloop
  endfacet
  facet normal 0.751844 0.659341 0
    outer loop
      vertex 2.12132 2.12132 2.7
      vertex 2.38006 1.82628 5.5
      vertex 2.38006 1.82628 2.7
    endloop
  endfacet
  facet normal 0.751844 -0.659341 0
    outer loop
      vertex 2.12132 -2.12132 5.5
      vertex 2.38006 -1.82628 2.7
      vertex 2.38006 -1.82628 5.5
    endloop
  endfacet
  facet normal 0.751844 -0.659341 0
    outer loop
      vertex 2.38006 -1.82628 2.7
      vertex 2.12132 -2.12132 5.5
      vertex 2.12132 -2.12132 2.7
    endloop
  endfacet
  facet normal -0.442283 -0.896875 0
    outer loop
      vertex -1.5 -2.59808 2.7
      vertex -1.14805 -2.77164 5.5
      vertex -1.5 -2.59808 5.5
    endloop
  endfacet
  facet normal -0.442283 -0.896875 -0
    outer loop
      vertex -1.14805 -2.77164 5.5
      vertex -1.5 -2.59808 2.7
      vertex -1.14805 -2.77164 2.7
    endloop
  endfacet
  facet normal -0.946929 0.321442 0
    outer loop
      vertex -2.89778 0.776457 2.7
      vertex -2.77164 1.14805 5.5
      vertex -2.77164 1.14805 2.7
    endloop
  endfacet
  facet normal -0.946929 0.321442 0
    outer loop
      vertex -2.77164 1.14805 5.5
      vertex -2.89778 0.776457 2.7
      vertex -2.89778 0.776457 5.5
    endloop
  endfacet
  facet normal 0.195073 -0.980789 0
    outer loop
      vertex 0.391578 -2.97433 2.7
      vertex 0.776457 -2.89778 5.5
      vertex 0.391578 -2.97433 5.5
    endloop
  endfacet
  facet normal 0.195073 -0.980789 0
    outer loop
      vertex 0.776457 -2.89778 5.5
      vertex 0.391578 -2.97433 2.7
      vertex 0.776457 -2.89778 2.7
    endloop
  endfacet
  facet normal 0.442283 -0.896875 0
    outer loop
      vertex 1.14805 -2.77164 2.7
      vertex 1.5 -2.59808 5.5
      vertex 1.14805 -2.77164 5.5
    endloop
  endfacet
  facet normal 0.442283 -0.896875 0
    outer loop
      vertex 1.5 -2.59808 5.5
      vertex 1.14805 -2.77164 2.7
      vertex 1.5 -2.59808 2.7
    endloop
  endfacet
  facet normal -0.751844 0.659341 0
    outer loop
      vertex -2.38006 1.82628 2.7
      vertex -2.12132 2.12132 5.5
      vertex -2.12132 2.12132 2.7
    endloop
  endfacet
  facet normal -0.751844 0.659341 0
    outer loop
      vertex -2.12132 2.12132 5.5
      vertex -2.38006 1.82628 2.7
      vertex -2.38006 1.82628 5.5
    endloop
  endfacet
  facet normal 0.659341 0.751844 -0
    outer loop
      vertex 2.12132 2.12132 2.7
      vertex 1.82628 2.38006 5.5
      vertex 2.12132 2.12132 5.5
    endloop
  endfacet
  facet normal 0.659341 0.751844 0
    outer loop
      vertex 1.82628 2.38006 5.5
      vertex 2.12132 2.12132 2.7
      vertex 1.82628 2.38006 2.7
    endloop
  endfacet
  facet normal -0.896875 -0.442283 0
    outer loop
      vertex -2.59808 -1.5 2.7
      vertex -2.77164 -1.14805 5.5
      vertex -2.77164 -1.14805 2.7
    endloop
  endfacet
  facet normal -0.896875 -0.442283 0
    outer loop
      vertex -2.77164 -1.14805 5.5
      vertex -2.59808 -1.5 2.7
      vertex -2.59808 -1.5 5.5
    endloop
  endfacet
  facet normal 0.831462 -0.555582 0
    outer loop
      vertex 2.38006 -1.82628 5.5
      vertex 2.59808 -1.5 2.7
      vertex 2.59808 -1.5 5.5
    endloop
  endfacet
  facet normal 0.831462 -0.555582 0
    outer loop
      vertex 2.59808 -1.5 2.7
      vertex 2.38006 -1.82628 5.5
      vertex 2.38006 -1.82628 2.7
    endloop
  endfacet
  facet normal 0.896875 0.442283 0
    outer loop
      vertex 2.77164 1.14805 5.5
      vertex 2.59808 1.5 2.7
      vertex 2.59808 1.5 5.5
    endloop
  endfacet
  facet normal 0.896875 0.442283 0
    outer loop
      vertex 2.59808 1.5 2.7
      vertex 2.77164 1.14805 5.5
      vertex 2.77164 1.14805 2.7
    endloop
  endfacet
  facet normal -0.0654149 -0.997858 0
    outer loop
      vertex -0.391578 -2.97433 2.7
      vertex 0 -3 5.5
      vertex -0.391578 -2.97433 5.5
    endloop
  endfacet
  facet normal -0.0654149 -0.997858 -0
    outer loop
      vertex 0 -3 5.5
      vertex -0.391578 -2.97433 2.7
      vertex 0 -3 2.7
    endloop
  endfacet
  facet normal 0.0654149 0.997858 -0
    outer loop
      vertex 0.391578 2.97433 2.7
      vertex 0 3 5.5
      vertex 0.391578 2.97433 5.5
    endloop
  endfacet
  facet normal 0.0654149 0.997858 0
    outer loop
      vertex 0 3 5.5
      vertex 0.391578 2.97433 2.7
      vertex 0 3 2.7
    endloop
  endfacet
  facet normal -0.555582 -0.831462 0
    outer loop
      vertex -1.82628 -2.38006 2.7
      vertex -1.5 -2.59808 5.5
      vertex -1.82628 -2.38006 5.5
    endloop
  endfacet
  facet normal -0.555582 -0.831462 -0
    outer loop
      vertex -1.5 -2.59808 5.5
      vertex -1.82628 -2.38006 2.7
      vertex -1.5 -2.59808 2.7
    endloop
  endfacet
  facet normal 0.555582 -0.831462 0
    outer loop
      vertex 1.5 -2.59808 2.7
      vertex 1.82628 -2.38006 5.5
      vertex 1.5 -2.59808 5.5
    endloop
  endfacet
  facet normal 0.555582 -0.831462 0
    outer loop
      vertex 1.82628 -2.38006 5.5
      vertex 1.5 -2.59808 2.7
      vertex 1.82628 -2.38006 2.7
    endloop
  endfacet
  facet normal 0.946929 0.321442 0
    outer loop
      vertex 2.89778 0.776457 5.5
      vertex 2.77164 1.14805 2.7
      vertex 2.77164 1.14805 5.5
    endloop
  endfacet
  facet normal 0.946929 0.321442 0
    outer loop
      vertex 2.77164 1.14805 2.7
      vertex 2.89778 0.776457 5.5
      vertex 2.89778 0.776457 2.7
    endloop
  endfacet
  facet normal -0.980789 0.195073 0
    outer loop
      vertex -2.97433 0.391578 2.7
      vertex -2.89778 0.776457 5.5
      vertex -2.89778 0.776457 2.7
    endloop
  endfacet
  facet normal -0.980789 0.195073 0
    outer loop
      vertex -2.89778 0.776457 5.5
      vertex -2.97433 0.391578 2.7
      vertex -2.97433 0.391578 5.5
    endloop
  endfacet
  facet normal -0.0654149 0.997858 0
    outer loop
      vertex 0 3 2.7
      vertex -0.391578 2.97433 5.5
      vertex 0 3 5.5
    endloop
  endfacet
  facet normal -0.0654149 0.997858 0
    outer loop
      vertex -0.391578 2.97433 5.5
      vertex 0 3 2.7
      vertex -0.391578 2.97433 2.7
    endloop
  endfacet
  facet normal -0.321442 -0.946929 0
    outer loop
      vertex -1.14805 -2.77164 2.7
      vertex -0.776457 -2.89778 5.5
      vertex -1.14805 -2.77164 5.5
    endloop
  endfacet
  facet normal -0.321442 -0.946929 -0
    outer loop
      vertex -0.776457 -2.89778 5.5
      vertex -1.14805 -2.77164 2.7
      vertex -0.776457 -2.89778 2.7
    endloop
  endfacet
  facet normal -0.980789 -0.195073 0
    outer loop
      vertex -2.89778 -0.776457 2.7
      vertex -2.97433 -0.391578 5.5
      vertex -2.97433 -0.391578 2.7
    endloop
  endfacet
  facet normal -0.980789 -0.195073 0
    outer loop
      vertex -2.97433 -0.391578 5.5
      vertex -2.89778 -0.776457 2.7
      vertex -2.89778 -0.776457 5.5
    endloop
  endfacet
  facet normal -0.195073 -0.980789 0
    outer loop
      vertex -0.776457 -2.89778 2.7
      vertex -0.391578 -2.97433 5.5
      vertex -0.776457 -2.89778 5.5
    endloop
  endfacet
  facet normal -0.195073 -0.980789 -0
    outer loop
      vertex -0.391578 -2.97433 5.5
      vertex -0.776457 -2.89778 2.7
      vertex -0.391578 -2.97433 2.7
    endloop
  endfacet
  facet normal -0.831462 0.555582 0
    outer loop
      vertex -2.59808 1.5 2.7
      vertex -2.38006 1.82628 5.5
      vertex -2.38006 1.82628 2.7
    endloop
  endfacet
  facet normal -0.831462 0.555582 0
    outer loop
      vertex -2.38006 1.82628 5.5
      vertex -2.59808 1.5 2.7
      vertex -2.59808 1.5 5.5
    endloop
  endfacet
endsolid OpenSCAD_Model
