%TF.GenerationSoftware,KiCad,Pcbnew,10.0.3*%
%TF.CreationDate,2026-07-09T15:58:38-07:00*%
%TF.ProjectId,brickdup_carrier,62726963-6b64-4757-905f-636172726965,rev?*%
%TF.SameCoordinates,Original*%
%TF.FileFunction,Legend,Bot*%
%TF.FilePolarity,Positive*%
%FSLAX46Y46*%
G04 Gerber Fmt 4.6, Leading zero omitted, Abs format (unit mm)*
G04 Created by KiCad (PCBNEW 10.0.3) date 2026-07-09 15:58:38*
%MOMM*%
%LPD*%
G01*
G04 APERTURE LIST*
%ADD10R,1.700000X1.700000*%
%ADD11C,1.700000*%
%ADD12C,2.200000*%
G04 APERTURE END LIST*
%LPC*%
D10*
%TO.C,BRK3*%
X50000000Y-2800000D03*
D11*
X47460000Y-2800000D03*
X44920000Y-2800000D03*
X42380000Y-2800000D03*
%TD*%
D12*
%TO.C,H1*%
X3500000Y-3500000D03*
%TD*%
%TO.C,H3*%
X3500000Y-40500000D03*
%TD*%
%TO.C,H2*%
X58500000Y-3500000D03*
%TD*%
%TO.C,H4*%
X58500000Y-40500000D03*
%TD*%
D10*
%TO.C,HDRA*%
X52200000Y-8000000D03*
D11*
X49660000Y-8000000D03*
X47120000Y-8000000D03*
X44580000Y-8000000D03*
X42040000Y-8000000D03*
X39500000Y-8000000D03*
X36960000Y-8000000D03*
X34420000Y-8000000D03*
X31880000Y-8000000D03*
X29340000Y-8000000D03*
X26800000Y-8000000D03*
X24260000Y-8000000D03*
X21720000Y-8000000D03*
X19180000Y-8000000D03*
X16640000Y-8000000D03*
X14100000Y-8000000D03*
X11560000Y-8000000D03*
X9020000Y-8000000D03*
%TD*%
D10*
%TO.C,BRK1*%
X38000000Y-35200000D03*
D11*
X40540000Y-35200000D03*
X43080000Y-35200000D03*
X45620000Y-35200000D03*
X48160000Y-35200000D03*
X50700000Y-35200000D03*
X53240000Y-35200000D03*
X55780000Y-35200000D03*
%TD*%
D10*
%TO.C,BRK2*%
X38000000Y-2800000D03*
D11*
X35460000Y-2800000D03*
X32920000Y-2800000D03*
X30380000Y-2800000D03*
X27840000Y-2800000D03*
X25300000Y-2800000D03*
X22760000Y-2800000D03*
X20220000Y-2800000D03*
%TD*%
D10*
%TO.C,HDRB*%
X52200000Y-30860000D03*
D11*
X49660000Y-30860000D03*
X47120000Y-30860000D03*
X44580000Y-30860000D03*
X42040000Y-30860000D03*
X39500000Y-30860000D03*
X36960000Y-30860000D03*
X34420000Y-30860000D03*
X31880000Y-30860000D03*
X29340000Y-30860000D03*
X26800000Y-30860000D03*
X24260000Y-30860000D03*
X21720000Y-30860000D03*
X19180000Y-30860000D03*
X16640000Y-30860000D03*
X14100000Y-30860000D03*
X11560000Y-30860000D03*
X9020000Y-30860000D03*
%TD*%
%LPD*%
M02*
