%TF.GenerationSoftware,KiCad,Pcbnew,10.0.3*%
%TF.CreationDate,2026-07-17T15:30:17-07:00*%
%TF.ProjectId,brickdup_carrier,62726963-6b64-4757-905f-636172726965,rev?*%
%TF.SameCoordinates,Original*%
%TF.FileFunction,Legend,Top*%
%TF.FilePolarity,Positive*%
%FSLAX46Y46*%
G04 Gerber Fmt 4.6, Leading zero omitted, Abs format (unit mm)*
G04 Created by KiCad (PCBNEW 10.0.3) date 2026-07-17 15:30:17*
%MOMM*%
%LPD*%
G01*
G04 APERTURE LIST*
G04 Aperture macros list*
%AMRoundRect*
0 Rectangle with rounded corners*
0 $1 Rounding radius*
0 $2 $3 $4 $5 $6 $7 $8 $9 X,Y pos of 4 corners*
0 Add a 4 corners polygon primitive as box body*
4,1,4,$2,$3,$4,$5,$6,$7,$8,$9,$2,$3,0*
0 Add four circle primitives for the rounded corners*
1,1,$1+$1,$2,$3*
1,1,$1+$1,$4,$5*
1,1,$1+$1,$6,$7*
1,1,$1+$1,$8,$9*
0 Add four rect primitives between the rounded corners*
20,1,$1+$1,$2,$3,$4,$5,0*
20,1,$1+$1,$4,$5,$6,$7,0*
20,1,$1+$1,$6,$7,$8,$9,0*
20,1,$1+$1,$8,$9,$2,$3,0*%
%AMFreePoly0*
4,1,6,1.000000,0.000000,0.500000,-0.750000,-0.500000,-0.750000,-0.500000,0.750000,0.500000,0.750000,1.000000,0.000000,1.000000,0.000000,$1*%
%AMFreePoly1*
4,1,6,0.500000,-0.750000,-0.650000,-0.750000,-0.150000,0.000000,-0.650000,0.750000,0.500000,0.750000,0.500000,-0.750000,0.500000,-0.750000,$1*%
G04 Aperture macros list end*
%ADD10C,0.150000*%
%ADD11C,0.100000*%
%ADD12C,0.112500*%
%ADD13C,0.120000*%
%ADD14R,1.700000X1.700000*%
%ADD15C,1.700000*%
%ADD16C,2.200000*%
%ADD17RoundRect,0.135000X0.185000X-0.135000X0.185000X0.135000X-0.185000X0.135000X-0.185000X-0.135000X0*%
%ADD18RoundRect,0.225000X0.250000X-0.225000X0.250000X0.225000X-0.250000X0.225000X-0.250000X-0.225000X0*%
%ADD19RoundRect,0.250000X-0.350000X-0.625000X0.350000X-0.625000X0.350000X0.625000X-0.350000X0.625000X0*%
%ADD20O,1.200000X1.750000*%
%ADD21RoundRect,0.250000X0.450000X-0.262500X0.450000X0.262500X-0.450000X0.262500X-0.450000X-0.262500X0*%
%ADD22RoundRect,0.250000X1.500000X-0.250000X1.500000X0.250000X-1.500000X0.250000X-1.500000X-0.250000X0*%
%ADD23RoundRect,0.250001X1.449999X-0.499999X1.449999X0.499999X-1.449999X0.499999X-1.449999X-0.499999X0*%
%ADD24R,3.000000X6.800000*%
%ADD25RoundRect,0.250000X1.100000X-0.325000X1.100000X0.325000X-1.100000X0.325000X-1.100000X-0.325000X0*%
%ADD26FreePoly0,0.000000*%
%ADD27FreePoly1,0.000000*%
%ADD28RoundRect,0.140000X0.170000X-0.140000X0.170000X0.140000X-0.170000X0.140000X-0.170000X-0.140000X0*%
%ADD29RoundRect,0.150000X0.825000X0.150000X-0.825000X0.150000X-0.825000X-0.150000X0.825000X-0.150000X0*%
%ADD30R,2.410000X3.300000*%
%ADD31RoundRect,0.250000X-1.000000X-0.900000X1.000000X-0.900000X1.000000X0.900000X-1.000000X0.900000X0*%
%ADD32RoundRect,0.250000X-1.000000X-0.650000X1.000000X-0.650000X1.000000X0.650000X-1.000000X0.650000X0*%
%ADD33RoundRect,0.250000X0.650000X-0.325000X0.650000X0.325000X-0.650000X0.325000X-0.650000X-0.325000X0*%
G04 APERTURE END LIST*
D10*
X5510000Y-6680000D02*
X55710000Y-6680000D01*
X55710000Y-32180000D01*
X5510000Y-32180000D01*
X5510000Y-6680000D01*
D11*
X8790476Y-35664895D02*
X8790476Y-34864895D01*
X8790476Y-34864895D02*
X9095238Y-34864895D01*
X9095238Y-34864895D02*
X9171428Y-34902990D01*
X9171428Y-34902990D02*
X9209523Y-34941085D01*
X9209523Y-34941085D02*
X9247619Y-35017276D01*
X9247619Y-35017276D02*
X9247619Y-35131561D01*
X9247619Y-35131561D02*
X9209523Y-35207752D01*
X9209523Y-35207752D02*
X9171428Y-35245847D01*
X9171428Y-35245847D02*
X9095238Y-35283942D01*
X9095238Y-35283942D02*
X8790476Y-35283942D01*
X9514285Y-34864895D02*
X9704761Y-35664895D01*
X9704761Y-35664895D02*
X9857142Y-35093466D01*
X9857142Y-35093466D02*
X10009523Y-35664895D01*
X10009523Y-35664895D02*
X10200000Y-34864895D01*
X10961905Y-35664895D02*
X10695238Y-35283942D01*
X10504762Y-35664895D02*
X10504762Y-34864895D01*
X10504762Y-34864895D02*
X10809524Y-34864895D01*
X10809524Y-34864895D02*
X10885714Y-34902990D01*
X10885714Y-34902990D02*
X10923809Y-34941085D01*
X10923809Y-34941085D02*
X10961905Y-35017276D01*
X10961905Y-35017276D02*
X10961905Y-35131561D01*
X10961905Y-35131561D02*
X10923809Y-35207752D01*
X10923809Y-35207752D02*
X10885714Y-35245847D01*
X10885714Y-35245847D02*
X10809524Y-35283942D01*
X10809524Y-35283942D02*
X10504762Y-35283942D01*
X11876190Y-35626800D02*
X11990476Y-35664895D01*
X11990476Y-35664895D02*
X12180952Y-35664895D01*
X12180952Y-35664895D02*
X12257143Y-35626800D01*
X12257143Y-35626800D02*
X12295238Y-35588704D01*
X12295238Y-35588704D02*
X12333333Y-35512514D01*
X12333333Y-35512514D02*
X12333333Y-35436323D01*
X12333333Y-35436323D02*
X12295238Y-35360133D01*
X12295238Y-35360133D02*
X12257143Y-35322038D01*
X12257143Y-35322038D02*
X12180952Y-35283942D01*
X12180952Y-35283942D02*
X12028571Y-35245847D01*
X12028571Y-35245847D02*
X11952381Y-35207752D01*
X11952381Y-35207752D02*
X11914286Y-35169657D01*
X11914286Y-35169657D02*
X11876190Y-35093466D01*
X11876190Y-35093466D02*
X11876190Y-35017276D01*
X11876190Y-35017276D02*
X11914286Y-34941085D01*
X11914286Y-34941085D02*
X11952381Y-34902990D01*
X11952381Y-34902990D02*
X12028571Y-34864895D01*
X12028571Y-34864895D02*
X12219048Y-34864895D01*
X12219048Y-34864895D02*
X12333333Y-34902990D01*
X12600000Y-34864895D02*
X12790476Y-35664895D01*
X12790476Y-35664895D02*
X12942857Y-35093466D01*
X12942857Y-35093466D02*
X13095238Y-35664895D01*
X13095238Y-35664895D02*
X13285715Y-34864895D01*
X16509523Y-2936323D02*
X16890476Y-2936323D01*
X16433333Y-3164895D02*
X16700000Y-2364895D01*
X16700000Y-2364895D02*
X16966666Y-3164895D01*
X17233333Y-3164895D02*
X17233333Y-2364895D01*
X17233333Y-2364895D02*
X17423809Y-2364895D01*
X17423809Y-2364895D02*
X17538095Y-2402990D01*
X17538095Y-2402990D02*
X17614285Y-2479180D01*
X17614285Y-2479180D02*
X17652380Y-2555371D01*
X17652380Y-2555371D02*
X17690476Y-2707752D01*
X17690476Y-2707752D02*
X17690476Y-2822038D01*
X17690476Y-2822038D02*
X17652380Y-2974419D01*
X17652380Y-2974419D02*
X17614285Y-3050609D01*
X17614285Y-3050609D02*
X17538095Y-3126800D01*
X17538095Y-3126800D02*
X17423809Y-3164895D01*
X17423809Y-3164895D02*
X17233333Y-3164895D01*
X18490476Y-3088704D02*
X18452380Y-3126800D01*
X18452380Y-3126800D02*
X18338095Y-3164895D01*
X18338095Y-3164895D02*
X18261904Y-3164895D01*
X18261904Y-3164895D02*
X18147618Y-3126800D01*
X18147618Y-3126800D02*
X18071428Y-3050609D01*
X18071428Y-3050609D02*
X18033333Y-2974419D01*
X18033333Y-2974419D02*
X17995237Y-2822038D01*
X17995237Y-2822038D02*
X17995237Y-2707752D01*
X17995237Y-2707752D02*
X18033333Y-2555371D01*
X18033333Y-2555371D02*
X18071428Y-2479180D01*
X18071428Y-2479180D02*
X18147618Y-2402990D01*
X18147618Y-2402990D02*
X18261904Y-2364895D01*
X18261904Y-2364895D02*
X18338095Y-2364895D01*
X18338095Y-2364895D02*
X18452380Y-2402990D01*
X18452380Y-2402990D02*
X18490476Y-2441085D01*
X19990476Y-35664895D02*
X19990476Y-34864895D01*
X19990476Y-34864895D02*
X20295238Y-34864895D01*
X20295238Y-34864895D02*
X20371428Y-34902990D01*
X20371428Y-34902990D02*
X20409523Y-34941085D01*
X20409523Y-34941085D02*
X20447619Y-35017276D01*
X20447619Y-35017276D02*
X20447619Y-35131561D01*
X20447619Y-35131561D02*
X20409523Y-35207752D01*
X20409523Y-35207752D02*
X20371428Y-35245847D01*
X20371428Y-35245847D02*
X20295238Y-35283942D01*
X20295238Y-35283942D02*
X19990476Y-35283942D01*
X21247619Y-35664895D02*
X20980952Y-35283942D01*
X20790476Y-35664895D02*
X20790476Y-34864895D01*
X20790476Y-34864895D02*
X21095238Y-34864895D01*
X21095238Y-34864895D02*
X21171428Y-34902990D01*
X21171428Y-34902990D02*
X21209523Y-34941085D01*
X21209523Y-34941085D02*
X21247619Y-35017276D01*
X21247619Y-35017276D02*
X21247619Y-35131561D01*
X21247619Y-35131561D02*
X21209523Y-35207752D01*
X21209523Y-35207752D02*
X21171428Y-35245847D01*
X21171428Y-35245847D02*
X21095238Y-35283942D01*
X21095238Y-35283942D02*
X20790476Y-35283942D01*
X22009523Y-34902990D02*
X21933333Y-34864895D01*
X21933333Y-34864895D02*
X21819047Y-34864895D01*
X21819047Y-34864895D02*
X21704761Y-34902990D01*
X21704761Y-34902990D02*
X21628571Y-34979180D01*
X21628571Y-34979180D02*
X21590476Y-35055371D01*
X21590476Y-35055371D02*
X21552380Y-35207752D01*
X21552380Y-35207752D02*
X21552380Y-35322038D01*
X21552380Y-35322038D02*
X21590476Y-35474419D01*
X21590476Y-35474419D02*
X21628571Y-35550609D01*
X21628571Y-35550609D02*
X21704761Y-35626800D01*
X21704761Y-35626800D02*
X21819047Y-35664895D01*
X21819047Y-35664895D02*
X21895238Y-35664895D01*
X21895238Y-35664895D02*
X22009523Y-35626800D01*
X22009523Y-35626800D02*
X22047619Y-35588704D01*
X22047619Y-35588704D02*
X22047619Y-35322038D01*
X22047619Y-35322038D02*
X21895238Y-35322038D01*
X29561905Y-35664895D02*
X29295238Y-35283942D01*
X29104762Y-35664895D02*
X29104762Y-34864895D01*
X29104762Y-34864895D02*
X29409524Y-34864895D01*
X29409524Y-34864895D02*
X29485714Y-34902990D01*
X29485714Y-34902990D02*
X29523809Y-34941085D01*
X29523809Y-34941085D02*
X29561905Y-35017276D01*
X29561905Y-35017276D02*
X29561905Y-35131561D01*
X29561905Y-35131561D02*
X29523809Y-35207752D01*
X29523809Y-35207752D02*
X29485714Y-35245847D01*
X29485714Y-35245847D02*
X29409524Y-35283942D01*
X29409524Y-35283942D02*
X29104762Y-35283942D01*
X29866666Y-35626800D02*
X29980952Y-35664895D01*
X29980952Y-35664895D02*
X30171428Y-35664895D01*
X30171428Y-35664895D02*
X30247619Y-35626800D01*
X30247619Y-35626800D02*
X30285714Y-35588704D01*
X30285714Y-35588704D02*
X30323809Y-35512514D01*
X30323809Y-35512514D02*
X30323809Y-35436323D01*
X30323809Y-35436323D02*
X30285714Y-35360133D01*
X30285714Y-35360133D02*
X30247619Y-35322038D01*
X30247619Y-35322038D02*
X30171428Y-35283942D01*
X30171428Y-35283942D02*
X30019047Y-35245847D01*
X30019047Y-35245847D02*
X29942857Y-35207752D01*
X29942857Y-35207752D02*
X29904762Y-35169657D01*
X29904762Y-35169657D02*
X29866666Y-35093466D01*
X29866666Y-35093466D02*
X29866666Y-35017276D01*
X29866666Y-35017276D02*
X29904762Y-34941085D01*
X29904762Y-34941085D02*
X29942857Y-34902990D01*
X29942857Y-34902990D02*
X30019047Y-34864895D01*
X30019047Y-34864895D02*
X30209524Y-34864895D01*
X30209524Y-34864895D02*
X30323809Y-34902990D01*
X30552381Y-34864895D02*
X31009524Y-34864895D01*
X30780952Y-35664895D02*
X30780952Y-34864895D01*
X32380952Y-34826800D02*
X32495238Y-34864895D01*
X32495238Y-34864895D02*
X32685714Y-34864895D01*
X32685714Y-34864895D02*
X32761905Y-34826800D01*
X32761905Y-34826800D02*
X32800000Y-34788704D01*
X32800000Y-34788704D02*
X32838095Y-34712514D01*
X32838095Y-34712514D02*
X32838095Y-34636323D01*
X32838095Y-34636323D02*
X32800000Y-34560133D01*
X32800000Y-34560133D02*
X32761905Y-34522038D01*
X32761905Y-34522038D02*
X32685714Y-34483942D01*
X32685714Y-34483942D02*
X32533333Y-34445847D01*
X32533333Y-34445847D02*
X32457143Y-34407752D01*
X32457143Y-34407752D02*
X32419048Y-34369657D01*
X32419048Y-34369657D02*
X32380952Y-34293466D01*
X32380952Y-34293466D02*
X32380952Y-34217276D01*
X32380952Y-34217276D02*
X32419048Y-34141085D01*
X32419048Y-34141085D02*
X32457143Y-34102990D01*
X32457143Y-34102990D02*
X32533333Y-34064895D01*
X32533333Y-34064895D02*
X32723810Y-34064895D01*
X32723810Y-34064895D02*
X32838095Y-34102990D01*
X33180953Y-34864895D02*
X33180953Y-34064895D01*
X33180953Y-34064895D02*
X33485715Y-34064895D01*
X33485715Y-34064895D02*
X33561905Y-34102990D01*
X33561905Y-34102990D02*
X33600000Y-34141085D01*
X33600000Y-34141085D02*
X33638096Y-34217276D01*
X33638096Y-34217276D02*
X33638096Y-34331561D01*
X33638096Y-34331561D02*
X33600000Y-34407752D01*
X33600000Y-34407752D02*
X33561905Y-34445847D01*
X33561905Y-34445847D02*
X33485715Y-34483942D01*
X33485715Y-34483942D02*
X33180953Y-34483942D01*
X33980953Y-34864895D02*
X33980953Y-34064895D01*
X39219048Y-3164895D02*
X39219048Y-2364895D01*
X39561904Y-2441085D02*
X39600000Y-2402990D01*
X39600000Y-2402990D02*
X39676190Y-2364895D01*
X39676190Y-2364895D02*
X39866666Y-2364895D01*
X39866666Y-2364895D02*
X39942857Y-2402990D01*
X39942857Y-2402990D02*
X39980952Y-2441085D01*
X39980952Y-2441085D02*
X40019047Y-2517276D01*
X40019047Y-2517276D02*
X40019047Y-2593466D01*
X40019047Y-2593466D02*
X39980952Y-2707752D01*
X39980952Y-2707752D02*
X39523809Y-3164895D01*
X39523809Y-3164895D02*
X40019047Y-3164895D01*
X40819048Y-3088704D02*
X40780952Y-3126800D01*
X40780952Y-3126800D02*
X40666667Y-3164895D01*
X40666667Y-3164895D02*
X40590476Y-3164895D01*
X40590476Y-3164895D02*
X40476190Y-3126800D01*
X40476190Y-3126800D02*
X40400000Y-3050609D01*
X40400000Y-3050609D02*
X40361905Y-2974419D01*
X40361905Y-2974419D02*
X40323809Y-2822038D01*
X40323809Y-2822038D02*
X40323809Y-2707752D01*
X40323809Y-2707752D02*
X40361905Y-2555371D01*
X40361905Y-2555371D02*
X40400000Y-2479180D01*
X40400000Y-2479180D02*
X40476190Y-2402990D01*
X40476190Y-2402990D02*
X40590476Y-2364895D01*
X40590476Y-2364895D02*
X40666667Y-2364895D01*
X40666667Y-2364895D02*
X40780952Y-2402990D01*
X40780952Y-2402990D02*
X40819048Y-2441085D01*
X54271429Y-13064895D02*
X54538096Y-13864895D01*
X54538096Y-13864895D02*
X54804762Y-13064895D01*
X55338095Y-13445847D02*
X55452381Y-13483942D01*
X55452381Y-13483942D02*
X55490476Y-13522038D01*
X55490476Y-13522038D02*
X55528572Y-13598228D01*
X55528572Y-13598228D02*
X55528572Y-13712514D01*
X55528572Y-13712514D02*
X55490476Y-13788704D01*
X55490476Y-13788704D02*
X55452381Y-13826800D01*
X55452381Y-13826800D02*
X55376191Y-13864895D01*
X55376191Y-13864895D02*
X55071429Y-13864895D01*
X55071429Y-13864895D02*
X55071429Y-13064895D01*
X55071429Y-13064895D02*
X55338095Y-13064895D01*
X55338095Y-13064895D02*
X55414286Y-13102990D01*
X55414286Y-13102990D02*
X55452381Y-13141085D01*
X55452381Y-13141085D02*
X55490476Y-13217276D01*
X55490476Y-13217276D02*
X55490476Y-13293466D01*
X55490476Y-13293466D02*
X55452381Y-13369657D01*
X55452381Y-13369657D02*
X55414286Y-13407752D01*
X55414286Y-13407752D02*
X55338095Y-13445847D01*
X55338095Y-13445847D02*
X55071429Y-13445847D01*
X55833333Y-13636323D02*
X56214286Y-13636323D01*
X55757143Y-13864895D02*
X56023810Y-13064895D01*
X56023810Y-13064895D02*
X56290476Y-13864895D01*
X56442857Y-13064895D02*
X56900000Y-13064895D01*
X56671428Y-13864895D02*
X56671428Y-13064895D01*
X57776191Y-13864895D02*
X57776191Y-13064895D01*
X58157143Y-13864895D02*
X58157143Y-13064895D01*
X58157143Y-13064895D02*
X58614286Y-13864895D01*
X58614286Y-13864895D02*
X58614286Y-13064895D01*
D12*
X6971428Y-11583364D02*
X7400000Y-11583364D01*
X6885714Y-11840507D02*
X7185714Y-10940507D01*
X7185714Y-10940507D02*
X7485714Y-11840507D01*
X7785714Y-11840507D02*
X7785714Y-10940507D01*
X7785714Y-10940507D02*
X8300000Y-11840507D01*
X8300000Y-11840507D02*
X8300000Y-10940507D01*
X8600000Y-10940507D02*
X9114286Y-10940507D01*
X8857143Y-11840507D02*
X8857143Y-10940507D01*
X37464285Y-19840507D02*
X37464285Y-18940507D01*
X37464285Y-19369078D02*
X37978571Y-19369078D01*
X37978571Y-19840507D02*
X37978571Y-18940507D01*
X38407142Y-19369078D02*
X38707142Y-19369078D01*
X38835714Y-19840507D02*
X38407142Y-19840507D01*
X38407142Y-19840507D02*
X38407142Y-18940507D01*
X38407142Y-18940507D02*
X38835714Y-18940507D01*
X39650000Y-19840507D02*
X39221428Y-19840507D01*
X39221428Y-19840507D02*
X39221428Y-18940507D01*
X39821428Y-18940507D02*
X40335714Y-18940507D01*
X40078571Y-19840507D02*
X40078571Y-18940507D01*
X40635713Y-19369078D02*
X40935713Y-19369078D01*
X41064285Y-19840507D02*
X40635713Y-19840507D01*
X40635713Y-19840507D02*
X40635713Y-18940507D01*
X40635713Y-18940507D02*
X41064285Y-18940507D01*
X41964285Y-19754792D02*
X41921428Y-19797650D01*
X41921428Y-19797650D02*
X41792856Y-19840507D01*
X41792856Y-19840507D02*
X41707142Y-19840507D01*
X41707142Y-19840507D02*
X41578571Y-19797650D01*
X41578571Y-19797650D02*
X41492856Y-19711935D01*
X41492856Y-19711935D02*
X41449999Y-19626221D01*
X41449999Y-19626221D02*
X41407142Y-19454792D01*
X41407142Y-19454792D02*
X41407142Y-19326221D01*
X41407142Y-19326221D02*
X41449999Y-19154792D01*
X41449999Y-19154792D02*
X41492856Y-19069078D01*
X41492856Y-19069078D02*
X41578571Y-18983364D01*
X41578571Y-18983364D02*
X41707142Y-18940507D01*
X41707142Y-18940507D02*
X41792856Y-18940507D01*
X41792856Y-18940507D02*
X41921428Y-18983364D01*
X41921428Y-18983364D02*
X41964285Y-19026221D01*
X42907142Y-18940507D02*
X43207142Y-19840507D01*
X43207142Y-19840507D02*
X43507142Y-18940507D01*
X43721428Y-18940507D02*
X44278571Y-18940507D01*
X44278571Y-18940507D02*
X43978571Y-19283364D01*
X43978571Y-19283364D02*
X44107142Y-19283364D01*
X44107142Y-19283364D02*
X44192857Y-19326221D01*
X44192857Y-19326221D02*
X44235714Y-19369078D01*
X44235714Y-19369078D02*
X44278571Y-19454792D01*
X44278571Y-19454792D02*
X44278571Y-19669078D01*
X44278571Y-19669078D02*
X44235714Y-19754792D01*
X44235714Y-19754792D02*
X44192857Y-19797650D01*
X44192857Y-19797650D02*
X44107142Y-19840507D01*
X44107142Y-19840507D02*
X43849999Y-19840507D01*
X43849999Y-19840507D02*
X43764285Y-19797650D01*
X43764285Y-19797650D02*
X43721428Y-19754792D01*
X46035713Y-18940507D02*
X46035713Y-19669078D01*
X46035713Y-19669078D02*
X46078570Y-19754792D01*
X46078570Y-19754792D02*
X46121428Y-19797650D01*
X46121428Y-19797650D02*
X46207142Y-19840507D01*
X46207142Y-19840507D02*
X46378570Y-19840507D01*
X46378570Y-19840507D02*
X46464285Y-19797650D01*
X46464285Y-19797650D02*
X46507142Y-19754792D01*
X46507142Y-19754792D02*
X46549999Y-19669078D01*
X46549999Y-19669078D02*
X46549999Y-18940507D01*
X46935713Y-19797650D02*
X47064285Y-19840507D01*
X47064285Y-19840507D02*
X47278570Y-19840507D01*
X47278570Y-19840507D02*
X47364285Y-19797650D01*
X47364285Y-19797650D02*
X47407142Y-19754792D01*
X47407142Y-19754792D02*
X47449999Y-19669078D01*
X47449999Y-19669078D02*
X47449999Y-19583364D01*
X47449999Y-19583364D02*
X47407142Y-19497650D01*
X47407142Y-19497650D02*
X47364285Y-19454792D01*
X47364285Y-19454792D02*
X47278570Y-19411935D01*
X47278570Y-19411935D02*
X47107142Y-19369078D01*
X47107142Y-19369078D02*
X47021427Y-19326221D01*
X47021427Y-19326221D02*
X46978570Y-19283364D01*
X46978570Y-19283364D02*
X46935713Y-19197650D01*
X46935713Y-19197650D02*
X46935713Y-19111935D01*
X46935713Y-19111935D02*
X46978570Y-19026221D01*
X46978570Y-19026221D02*
X47021427Y-18983364D01*
X47021427Y-18983364D02*
X47107142Y-18940507D01*
X47107142Y-18940507D02*
X47321427Y-18940507D01*
X47321427Y-18940507D02*
X47449999Y-18983364D01*
X48135713Y-19369078D02*
X48264285Y-19411935D01*
X48264285Y-19411935D02*
X48307142Y-19454792D01*
X48307142Y-19454792D02*
X48349999Y-19540507D01*
X48349999Y-19540507D02*
X48349999Y-19669078D01*
X48349999Y-19669078D02*
X48307142Y-19754792D01*
X48307142Y-19754792D02*
X48264285Y-19797650D01*
X48264285Y-19797650D02*
X48178570Y-19840507D01*
X48178570Y-19840507D02*
X47835713Y-19840507D01*
X47835713Y-19840507D02*
X47835713Y-18940507D01*
X47835713Y-18940507D02*
X48135713Y-18940507D01*
X48135713Y-18940507D02*
X48221428Y-18983364D01*
X48221428Y-18983364D02*
X48264285Y-19026221D01*
X48264285Y-19026221D02*
X48307142Y-19111935D01*
X48307142Y-19111935D02*
X48307142Y-19197650D01*
X48307142Y-19197650D02*
X48264285Y-19283364D01*
X48264285Y-19283364D02*
X48221428Y-19326221D01*
X48221428Y-19326221D02*
X48135713Y-19369078D01*
X48135713Y-19369078D02*
X47835713Y-19369078D01*
X48735713Y-19497650D02*
X49421428Y-19497650D01*
X49849999Y-19240507D02*
X50535714Y-19497650D01*
X50535714Y-19497650D02*
X49849999Y-19754792D01*
D10*
X5685715Y-42747342D02*
X5685715Y-41547342D01*
X5685715Y-42004485D02*
X5800001Y-41947342D01*
X5800001Y-41947342D02*
X6028572Y-41947342D01*
X6028572Y-41947342D02*
X6142858Y-42004485D01*
X6142858Y-42004485D02*
X6200001Y-42061628D01*
X6200001Y-42061628D02*
X6257143Y-42175914D01*
X6257143Y-42175914D02*
X6257143Y-42518771D01*
X6257143Y-42518771D02*
X6200001Y-42633057D01*
X6200001Y-42633057D02*
X6142858Y-42690200D01*
X6142858Y-42690200D02*
X6028572Y-42747342D01*
X6028572Y-42747342D02*
X5800001Y-42747342D01*
X5800001Y-42747342D02*
X5685715Y-42690200D01*
X6771429Y-42747342D02*
X6771429Y-41947342D01*
X6771429Y-42175914D02*
X6828572Y-42061628D01*
X6828572Y-42061628D02*
X6885715Y-42004485D01*
X6885715Y-42004485D02*
X7000000Y-41947342D01*
X7000000Y-41947342D02*
X7114286Y-41947342D01*
X7514286Y-42747342D02*
X7514286Y-41947342D01*
X7514286Y-41547342D02*
X7457143Y-41604485D01*
X7457143Y-41604485D02*
X7514286Y-41661628D01*
X7514286Y-41661628D02*
X7571429Y-41604485D01*
X7571429Y-41604485D02*
X7514286Y-41547342D01*
X7514286Y-41547342D02*
X7514286Y-41661628D01*
X8600001Y-42690200D02*
X8485715Y-42747342D01*
X8485715Y-42747342D02*
X8257143Y-42747342D01*
X8257143Y-42747342D02*
X8142858Y-42690200D01*
X8142858Y-42690200D02*
X8085715Y-42633057D01*
X8085715Y-42633057D02*
X8028572Y-42518771D01*
X8028572Y-42518771D02*
X8028572Y-42175914D01*
X8028572Y-42175914D02*
X8085715Y-42061628D01*
X8085715Y-42061628D02*
X8142858Y-42004485D01*
X8142858Y-42004485D02*
X8257143Y-41947342D01*
X8257143Y-41947342D02*
X8485715Y-41947342D01*
X8485715Y-41947342D02*
X8600001Y-42004485D01*
X9114286Y-42747342D02*
X9114286Y-41547342D01*
X9228572Y-42290200D02*
X9571429Y-42747342D01*
X9571429Y-41947342D02*
X9114286Y-42404485D01*
X10600001Y-42747342D02*
X10600001Y-41547342D01*
X10600001Y-42690200D02*
X10485715Y-42747342D01*
X10485715Y-42747342D02*
X10257143Y-42747342D01*
X10257143Y-42747342D02*
X10142858Y-42690200D01*
X10142858Y-42690200D02*
X10085715Y-42633057D01*
X10085715Y-42633057D02*
X10028572Y-42518771D01*
X10028572Y-42518771D02*
X10028572Y-42175914D01*
X10028572Y-42175914D02*
X10085715Y-42061628D01*
X10085715Y-42061628D02*
X10142858Y-42004485D01*
X10142858Y-42004485D02*
X10257143Y-41947342D01*
X10257143Y-41947342D02*
X10485715Y-41947342D01*
X10485715Y-41947342D02*
X10600001Y-42004485D01*
X11685715Y-41947342D02*
X11685715Y-42747342D01*
X11171429Y-41947342D02*
X11171429Y-42575914D01*
X11171429Y-42575914D02*
X11228572Y-42690200D01*
X11228572Y-42690200D02*
X11342857Y-42747342D01*
X11342857Y-42747342D02*
X11514286Y-42747342D01*
X11514286Y-42747342D02*
X11628572Y-42690200D01*
X11628572Y-42690200D02*
X11685715Y-42633057D01*
X12257143Y-41947342D02*
X12257143Y-43147342D01*
X12257143Y-42004485D02*
X12371429Y-41947342D01*
X12371429Y-41947342D02*
X12600000Y-41947342D01*
X12600000Y-41947342D02*
X12714286Y-42004485D01*
X12714286Y-42004485D02*
X12771429Y-42061628D01*
X12771429Y-42061628D02*
X12828571Y-42175914D01*
X12828571Y-42175914D02*
X12828571Y-42518771D01*
X12828571Y-42518771D02*
X12771429Y-42633057D01*
X12771429Y-42633057D02*
X12714286Y-42690200D01*
X12714286Y-42690200D02*
X12600000Y-42747342D01*
X12600000Y-42747342D02*
X12371429Y-42747342D01*
X12371429Y-42747342D02*
X12257143Y-42690200D01*
X13057143Y-42861628D02*
X13971428Y-42861628D01*
X14771429Y-42690200D02*
X14657143Y-42747342D01*
X14657143Y-42747342D02*
X14428571Y-42747342D01*
X14428571Y-42747342D02*
X14314286Y-42690200D01*
X14314286Y-42690200D02*
X14257143Y-42633057D01*
X14257143Y-42633057D02*
X14200000Y-42518771D01*
X14200000Y-42518771D02*
X14200000Y-42175914D01*
X14200000Y-42175914D02*
X14257143Y-42061628D01*
X14257143Y-42061628D02*
X14314286Y-42004485D01*
X14314286Y-42004485D02*
X14428571Y-41947342D01*
X14428571Y-41947342D02*
X14657143Y-41947342D01*
X14657143Y-41947342D02*
X14771429Y-42004485D01*
X15800000Y-42747342D02*
X15800000Y-42118771D01*
X15800000Y-42118771D02*
X15742857Y-42004485D01*
X15742857Y-42004485D02*
X15628571Y-41947342D01*
X15628571Y-41947342D02*
X15400000Y-41947342D01*
X15400000Y-41947342D02*
X15285714Y-42004485D01*
X15800000Y-42690200D02*
X15685714Y-42747342D01*
X15685714Y-42747342D02*
X15400000Y-42747342D01*
X15400000Y-42747342D02*
X15285714Y-42690200D01*
X15285714Y-42690200D02*
X15228571Y-42575914D01*
X15228571Y-42575914D02*
X15228571Y-42461628D01*
X15228571Y-42461628D02*
X15285714Y-42347342D01*
X15285714Y-42347342D02*
X15400000Y-42290200D01*
X15400000Y-42290200D02*
X15685714Y-42290200D01*
X15685714Y-42290200D02*
X15800000Y-42233057D01*
X16371428Y-42747342D02*
X16371428Y-41947342D01*
X16371428Y-42175914D02*
X16428571Y-42061628D01*
X16428571Y-42061628D02*
X16485714Y-42004485D01*
X16485714Y-42004485D02*
X16599999Y-41947342D01*
X16599999Y-41947342D02*
X16714285Y-41947342D01*
X17114285Y-42747342D02*
X17114285Y-41947342D01*
X17114285Y-42175914D02*
X17171428Y-42061628D01*
X17171428Y-42061628D02*
X17228571Y-42004485D01*
X17228571Y-42004485D02*
X17342856Y-41947342D01*
X17342856Y-41947342D02*
X17457142Y-41947342D01*
X17857142Y-42747342D02*
X17857142Y-41947342D01*
X17857142Y-41547342D02*
X17799999Y-41604485D01*
X17799999Y-41604485D02*
X17857142Y-41661628D01*
X17857142Y-41661628D02*
X17914285Y-41604485D01*
X17914285Y-41604485D02*
X17857142Y-41547342D01*
X17857142Y-41547342D02*
X17857142Y-41661628D01*
X18885714Y-42690200D02*
X18771428Y-42747342D01*
X18771428Y-42747342D02*
X18542857Y-42747342D01*
X18542857Y-42747342D02*
X18428571Y-42690200D01*
X18428571Y-42690200D02*
X18371428Y-42575914D01*
X18371428Y-42575914D02*
X18371428Y-42118771D01*
X18371428Y-42118771D02*
X18428571Y-42004485D01*
X18428571Y-42004485D02*
X18542857Y-41947342D01*
X18542857Y-41947342D02*
X18771428Y-41947342D01*
X18771428Y-41947342D02*
X18885714Y-42004485D01*
X18885714Y-42004485D02*
X18942857Y-42118771D01*
X18942857Y-42118771D02*
X18942857Y-42233057D01*
X18942857Y-42233057D02*
X18371428Y-42347342D01*
X19457142Y-42747342D02*
X19457142Y-41947342D01*
X19457142Y-42175914D02*
X19514285Y-42061628D01*
X19514285Y-42061628D02*
X19571428Y-42004485D01*
X19571428Y-42004485D02*
X19685713Y-41947342D01*
X19685713Y-41947342D02*
X19799999Y-41947342D01*
X20999999Y-41947342D02*
X21285713Y-42747342D01*
X21285713Y-42747342D02*
X21571428Y-41947342D01*
X22257142Y-41547342D02*
X22371428Y-41547342D01*
X22371428Y-41547342D02*
X22485714Y-41604485D01*
X22485714Y-41604485D02*
X22542857Y-41661628D01*
X22542857Y-41661628D02*
X22599999Y-41775914D01*
X22599999Y-41775914D02*
X22657142Y-42004485D01*
X22657142Y-42004485D02*
X22657142Y-42290200D01*
X22657142Y-42290200D02*
X22599999Y-42518771D01*
X22599999Y-42518771D02*
X22542857Y-42633057D01*
X22542857Y-42633057D02*
X22485714Y-42690200D01*
X22485714Y-42690200D02*
X22371428Y-42747342D01*
X22371428Y-42747342D02*
X22257142Y-42747342D01*
X22257142Y-42747342D02*
X22142857Y-42690200D01*
X22142857Y-42690200D02*
X22085714Y-42633057D01*
X22085714Y-42633057D02*
X22028571Y-42518771D01*
X22028571Y-42518771D02*
X21971428Y-42290200D01*
X21971428Y-42290200D02*
X21971428Y-42004485D01*
X21971428Y-42004485D02*
X22028571Y-41775914D01*
X22028571Y-41775914D02*
X22085714Y-41661628D01*
X22085714Y-41661628D02*
X22142857Y-41604485D01*
X22142857Y-41604485D02*
X22257142Y-41547342D01*
X23171428Y-42633057D02*
X23228571Y-42690200D01*
X23228571Y-42690200D02*
X23171428Y-42747342D01*
X23171428Y-42747342D02*
X23114285Y-42690200D01*
X23114285Y-42690200D02*
X23171428Y-42633057D01*
X23171428Y-42633057D02*
X23171428Y-42747342D01*
X23685714Y-41661628D02*
X23742857Y-41604485D01*
X23742857Y-41604485D02*
X23857143Y-41547342D01*
X23857143Y-41547342D02*
X24142857Y-41547342D01*
X24142857Y-41547342D02*
X24257143Y-41604485D01*
X24257143Y-41604485D02*
X24314285Y-41661628D01*
X24314285Y-41661628D02*
X24371428Y-41775914D01*
X24371428Y-41775914D02*
X24371428Y-41890200D01*
X24371428Y-41890200D02*
X24314285Y-42061628D01*
X24314285Y-42061628D02*
X23628571Y-42747342D01*
X23628571Y-42747342D02*
X24371428Y-42747342D01*
X35569366Y-36183333D02*
X35602700Y-36083333D01*
X35602700Y-36083333D02*
X35636033Y-36049999D01*
X35636033Y-36049999D02*
X35702700Y-36016666D01*
X35702700Y-36016666D02*
X35802700Y-36016666D01*
X35802700Y-36016666D02*
X35869366Y-36049999D01*
X35869366Y-36049999D02*
X35902700Y-36083333D01*
X35902700Y-36083333D02*
X35936033Y-36149999D01*
X35936033Y-36149999D02*
X35936033Y-36416666D01*
X35936033Y-36416666D02*
X35236033Y-36416666D01*
X35236033Y-36416666D02*
X35236033Y-36183333D01*
X35236033Y-36183333D02*
X35269366Y-36116666D01*
X35269366Y-36116666D02*
X35302700Y-36083333D01*
X35302700Y-36083333D02*
X35369366Y-36049999D01*
X35369366Y-36049999D02*
X35436033Y-36049999D01*
X35436033Y-36049999D02*
X35502700Y-36083333D01*
X35502700Y-36083333D02*
X35536033Y-36116666D01*
X35536033Y-36116666D02*
X35569366Y-36183333D01*
X35569366Y-36183333D02*
X35569366Y-36416666D01*
X35936033Y-35316666D02*
X35602700Y-35549999D01*
X35936033Y-35716666D02*
X35236033Y-35716666D01*
X35236033Y-35716666D02*
X35236033Y-35449999D01*
X35236033Y-35449999D02*
X35269366Y-35383333D01*
X35269366Y-35383333D02*
X35302700Y-35349999D01*
X35302700Y-35349999D02*
X35369366Y-35316666D01*
X35369366Y-35316666D02*
X35469366Y-35316666D01*
X35469366Y-35316666D02*
X35536033Y-35349999D01*
X35536033Y-35349999D02*
X35569366Y-35383333D01*
X35569366Y-35383333D02*
X35602700Y-35449999D01*
X35602700Y-35449999D02*
X35602700Y-35716666D01*
X35936033Y-35016666D02*
X35236033Y-35016666D01*
X35936033Y-34616666D02*
X35536033Y-34916666D01*
X35236033Y-34616666D02*
X35636033Y-35016666D01*
X35936033Y-33949999D02*
X35936033Y-34349999D01*
X35936033Y-34149999D02*
X35236033Y-34149999D01*
X35236033Y-34149999D02*
X35336033Y-34216666D01*
X35336033Y-34216666D02*
X35402700Y-34283333D01*
X35402700Y-34283333D02*
X35436033Y-34349999D01*
X52329366Y-3783333D02*
X52362700Y-3683333D01*
X52362700Y-3683333D02*
X52396033Y-3649999D01*
X52396033Y-3649999D02*
X52462700Y-3616666D01*
X52462700Y-3616666D02*
X52562700Y-3616666D01*
X52562700Y-3616666D02*
X52629366Y-3649999D01*
X52629366Y-3649999D02*
X52662700Y-3683333D01*
X52662700Y-3683333D02*
X52696033Y-3749999D01*
X52696033Y-3749999D02*
X52696033Y-4016666D01*
X52696033Y-4016666D02*
X51996033Y-4016666D01*
X51996033Y-4016666D02*
X51996033Y-3783333D01*
X51996033Y-3783333D02*
X52029366Y-3716666D01*
X52029366Y-3716666D02*
X52062700Y-3683333D01*
X52062700Y-3683333D02*
X52129366Y-3649999D01*
X52129366Y-3649999D02*
X52196033Y-3649999D01*
X52196033Y-3649999D02*
X52262700Y-3683333D01*
X52262700Y-3683333D02*
X52296033Y-3716666D01*
X52296033Y-3716666D02*
X52329366Y-3783333D01*
X52329366Y-3783333D02*
X52329366Y-4016666D01*
X52696033Y-2916666D02*
X52362700Y-3149999D01*
X52696033Y-3316666D02*
X51996033Y-3316666D01*
X51996033Y-3316666D02*
X51996033Y-3049999D01*
X51996033Y-3049999D02*
X52029366Y-2983333D01*
X52029366Y-2983333D02*
X52062700Y-2949999D01*
X52062700Y-2949999D02*
X52129366Y-2916666D01*
X52129366Y-2916666D02*
X52229366Y-2916666D01*
X52229366Y-2916666D02*
X52296033Y-2949999D01*
X52296033Y-2949999D02*
X52329366Y-2983333D01*
X52329366Y-2983333D02*
X52362700Y-3049999D01*
X52362700Y-3049999D02*
X52362700Y-3316666D01*
X52696033Y-2616666D02*
X51996033Y-2616666D01*
X52696033Y-2216666D02*
X52296033Y-2516666D01*
X51996033Y-2216666D02*
X52396033Y-2616666D01*
X51996033Y-1983333D02*
X51996033Y-1549999D01*
X51996033Y-1549999D02*
X52262700Y-1783333D01*
X52262700Y-1783333D02*
X52262700Y-1683333D01*
X52262700Y-1683333D02*
X52296033Y-1616666D01*
X52296033Y-1616666D02*
X52329366Y-1583333D01*
X52329366Y-1583333D02*
X52396033Y-1549999D01*
X52396033Y-1549999D02*
X52562700Y-1549999D01*
X52562700Y-1549999D02*
X52629366Y-1583333D01*
X52629366Y-1583333D02*
X52662700Y-1616666D01*
X52662700Y-1616666D02*
X52696033Y-1683333D01*
X52696033Y-1683333D02*
X52696033Y-1883333D01*
X52696033Y-1883333D02*
X52662700Y-1949999D01*
X52662700Y-1949999D02*
X52629366Y-1983333D01*
X21083334Y-35549366D02*
X21183334Y-35582700D01*
X21183334Y-35582700D02*
X21216667Y-35616033D01*
X21216667Y-35616033D02*
X21250000Y-35682700D01*
X21250000Y-35682700D02*
X21250000Y-35782700D01*
X21250000Y-35782700D02*
X21216667Y-35849366D01*
X21216667Y-35849366D02*
X21183334Y-35882700D01*
X21183334Y-35882700D02*
X21116667Y-35916033D01*
X21116667Y-35916033D02*
X20850000Y-35916033D01*
X20850000Y-35916033D02*
X20850000Y-35216033D01*
X20850000Y-35216033D02*
X21083334Y-35216033D01*
X21083334Y-35216033D02*
X21150000Y-35249366D01*
X21150000Y-35249366D02*
X21183334Y-35282700D01*
X21183334Y-35282700D02*
X21216667Y-35349366D01*
X21216667Y-35349366D02*
X21216667Y-35416033D01*
X21216667Y-35416033D02*
X21183334Y-35482700D01*
X21183334Y-35482700D02*
X21150000Y-35516033D01*
X21150000Y-35516033D02*
X21083334Y-35549366D01*
X21083334Y-35549366D02*
X20850000Y-35549366D01*
X21450000Y-35216033D02*
X21850000Y-35216033D01*
X21650000Y-35916033D02*
X21650000Y-35216033D01*
X22083333Y-35916033D02*
X22083333Y-35216033D01*
X22083333Y-35216033D02*
X22483333Y-35916033D01*
X22483333Y-35916033D02*
X22483333Y-35216033D01*
X23183333Y-35916033D02*
X22783333Y-35916033D01*
X22983333Y-35916033D02*
X22983333Y-35216033D01*
X22983333Y-35216033D02*
X22916666Y-35316033D01*
X22916666Y-35316033D02*
X22850000Y-35382700D01*
X22850000Y-35382700D02*
X22783333Y-35416033D01*
X11066666Y-35882700D02*
X11166666Y-35916033D01*
X11166666Y-35916033D02*
X11333333Y-35916033D01*
X11333333Y-35916033D02*
X11399999Y-35882700D01*
X11399999Y-35882700D02*
X11433333Y-35849366D01*
X11433333Y-35849366D02*
X11466666Y-35782700D01*
X11466666Y-35782700D02*
X11466666Y-35716033D01*
X11466666Y-35716033D02*
X11433333Y-35649366D01*
X11433333Y-35649366D02*
X11399999Y-35616033D01*
X11399999Y-35616033D02*
X11333333Y-35582700D01*
X11333333Y-35582700D02*
X11199999Y-35549366D01*
X11199999Y-35549366D02*
X11133333Y-35516033D01*
X11133333Y-35516033D02*
X11099999Y-35482700D01*
X11099999Y-35482700D02*
X11066666Y-35416033D01*
X11066666Y-35416033D02*
X11066666Y-35349366D01*
X11066666Y-35349366D02*
X11099999Y-35282700D01*
X11099999Y-35282700D02*
X11133333Y-35249366D01*
X11133333Y-35249366D02*
X11199999Y-35216033D01*
X11199999Y-35216033D02*
X11366666Y-35216033D01*
X11366666Y-35216033D02*
X11466666Y-35249366D01*
X11700000Y-35216033D02*
X11866666Y-35916033D01*
X11866666Y-35916033D02*
X12000000Y-35416033D01*
X12000000Y-35416033D02*
X12133333Y-35916033D01*
X12133333Y-35916033D02*
X12300000Y-35216033D01*
X12933333Y-35916033D02*
X12533333Y-35916033D01*
X12733333Y-35916033D02*
X12733333Y-35216033D01*
X12733333Y-35216033D02*
X12666666Y-35316033D01*
X12666666Y-35316033D02*
X12600000Y-35382700D01*
X12600000Y-35382700D02*
X12533333Y-35416033D01*
X40329366Y-3783333D02*
X40362700Y-3683333D01*
X40362700Y-3683333D02*
X40396033Y-3649999D01*
X40396033Y-3649999D02*
X40462700Y-3616666D01*
X40462700Y-3616666D02*
X40562700Y-3616666D01*
X40562700Y-3616666D02*
X40629366Y-3649999D01*
X40629366Y-3649999D02*
X40662700Y-3683333D01*
X40662700Y-3683333D02*
X40696033Y-3749999D01*
X40696033Y-3749999D02*
X40696033Y-4016666D01*
X40696033Y-4016666D02*
X39996033Y-4016666D01*
X39996033Y-4016666D02*
X39996033Y-3783333D01*
X39996033Y-3783333D02*
X40029366Y-3716666D01*
X40029366Y-3716666D02*
X40062700Y-3683333D01*
X40062700Y-3683333D02*
X40129366Y-3649999D01*
X40129366Y-3649999D02*
X40196033Y-3649999D01*
X40196033Y-3649999D02*
X40262700Y-3683333D01*
X40262700Y-3683333D02*
X40296033Y-3716666D01*
X40296033Y-3716666D02*
X40329366Y-3783333D01*
X40329366Y-3783333D02*
X40329366Y-4016666D01*
X40696033Y-2916666D02*
X40362700Y-3149999D01*
X40696033Y-3316666D02*
X39996033Y-3316666D01*
X39996033Y-3316666D02*
X39996033Y-3049999D01*
X39996033Y-3049999D02*
X40029366Y-2983333D01*
X40029366Y-2983333D02*
X40062700Y-2949999D01*
X40062700Y-2949999D02*
X40129366Y-2916666D01*
X40129366Y-2916666D02*
X40229366Y-2916666D01*
X40229366Y-2916666D02*
X40296033Y-2949999D01*
X40296033Y-2949999D02*
X40329366Y-2983333D01*
X40329366Y-2983333D02*
X40362700Y-3049999D01*
X40362700Y-3049999D02*
X40362700Y-3316666D01*
X40696033Y-2616666D02*
X39996033Y-2616666D01*
X40696033Y-2216666D02*
X40296033Y-2516666D01*
X39996033Y-2216666D02*
X40396033Y-2616666D01*
X40062700Y-1949999D02*
X40029366Y-1916666D01*
X40029366Y-1916666D02*
X39996033Y-1849999D01*
X39996033Y-1849999D02*
X39996033Y-1683333D01*
X39996033Y-1683333D02*
X40029366Y-1616666D01*
X40029366Y-1616666D02*
X40062700Y-1583333D01*
X40062700Y-1583333D02*
X40129366Y-1549999D01*
X40129366Y-1549999D02*
X40196033Y-1549999D01*
X40196033Y-1549999D02*
X40296033Y-1583333D01*
X40296033Y-1583333D02*
X40696033Y-1983333D01*
X40696033Y-1983333D02*
X40696033Y-1549999D01*
X50916033Y-19733333D02*
X51416033Y-19733333D01*
X51416033Y-19733333D02*
X51516033Y-19766666D01*
X51516033Y-19766666D02*
X51582700Y-19833333D01*
X51582700Y-19833333D02*
X51616033Y-19933333D01*
X51616033Y-19933333D02*
X51616033Y-20000000D01*
X51616033Y-19033333D02*
X51616033Y-19433333D01*
X51616033Y-19233333D02*
X50916033Y-19233333D01*
X50916033Y-19233333D02*
X51016033Y-19300000D01*
X51016033Y-19300000D02*
X51082700Y-19366667D01*
X51082700Y-19366667D02*
X51116033Y-19433333D01*
X55286033Y-32109999D02*
X54586033Y-32109999D01*
X54919366Y-32109999D02*
X54919366Y-31709999D01*
X55286033Y-31709999D02*
X54586033Y-31709999D01*
X55286033Y-31376666D02*
X54586033Y-31376666D01*
X54586033Y-31376666D02*
X54586033Y-31209999D01*
X54586033Y-31209999D02*
X54619366Y-31109999D01*
X54619366Y-31109999D02*
X54686033Y-31043333D01*
X54686033Y-31043333D02*
X54752700Y-31009999D01*
X54752700Y-31009999D02*
X54886033Y-30976666D01*
X54886033Y-30976666D02*
X54986033Y-30976666D01*
X54986033Y-30976666D02*
X55119366Y-31009999D01*
X55119366Y-31009999D02*
X55186033Y-31043333D01*
X55186033Y-31043333D02*
X55252700Y-31109999D01*
X55252700Y-31109999D02*
X55286033Y-31209999D01*
X55286033Y-31209999D02*
X55286033Y-31376666D01*
X55286033Y-30276666D02*
X54952700Y-30509999D01*
X55286033Y-30676666D02*
X54586033Y-30676666D01*
X54586033Y-30676666D02*
X54586033Y-30409999D01*
X54586033Y-30409999D02*
X54619366Y-30343333D01*
X54619366Y-30343333D02*
X54652700Y-30309999D01*
X54652700Y-30309999D02*
X54719366Y-30276666D01*
X54719366Y-30276666D02*
X54819366Y-30276666D01*
X54819366Y-30276666D02*
X54886033Y-30309999D01*
X54886033Y-30309999D02*
X54919366Y-30343333D01*
X54919366Y-30343333D02*
X54952700Y-30409999D01*
X54952700Y-30409999D02*
X54952700Y-30676666D01*
X54919366Y-29743333D02*
X54952700Y-29643333D01*
X54952700Y-29643333D02*
X54986033Y-29609999D01*
X54986033Y-29609999D02*
X55052700Y-29576666D01*
X55052700Y-29576666D02*
X55152700Y-29576666D01*
X55152700Y-29576666D02*
X55219366Y-29609999D01*
X55219366Y-29609999D02*
X55252700Y-29643333D01*
X55252700Y-29643333D02*
X55286033Y-29709999D01*
X55286033Y-29709999D02*
X55286033Y-29976666D01*
X55286033Y-29976666D02*
X54586033Y-29976666D01*
X54586033Y-29976666D02*
X54586033Y-29743333D01*
X54586033Y-29743333D02*
X54619366Y-29676666D01*
X54619366Y-29676666D02*
X54652700Y-29643333D01*
X54652700Y-29643333D02*
X54719366Y-29609999D01*
X54719366Y-29609999D02*
X54786033Y-29609999D01*
X54786033Y-29609999D02*
X54852700Y-29643333D01*
X54852700Y-29643333D02*
X54886033Y-29676666D01*
X54886033Y-29676666D02*
X54919366Y-29743333D01*
X54919366Y-29743333D02*
X54919366Y-29976666D01*
X30083334Y-35549366D02*
X30183334Y-35582700D01*
X30183334Y-35582700D02*
X30216667Y-35616033D01*
X30216667Y-35616033D02*
X30250000Y-35682700D01*
X30250000Y-35682700D02*
X30250000Y-35782700D01*
X30250000Y-35782700D02*
X30216667Y-35849366D01*
X30216667Y-35849366D02*
X30183334Y-35882700D01*
X30183334Y-35882700D02*
X30116667Y-35916033D01*
X30116667Y-35916033D02*
X29850000Y-35916033D01*
X29850000Y-35916033D02*
X29850000Y-35216033D01*
X29850000Y-35216033D02*
X30083334Y-35216033D01*
X30083334Y-35216033D02*
X30150000Y-35249366D01*
X30150000Y-35249366D02*
X30183334Y-35282700D01*
X30183334Y-35282700D02*
X30216667Y-35349366D01*
X30216667Y-35349366D02*
X30216667Y-35416033D01*
X30216667Y-35416033D02*
X30183334Y-35482700D01*
X30183334Y-35482700D02*
X30150000Y-35516033D01*
X30150000Y-35516033D02*
X30083334Y-35549366D01*
X30083334Y-35549366D02*
X29850000Y-35549366D01*
X30450000Y-35216033D02*
X30850000Y-35216033D01*
X30650000Y-35916033D02*
X30650000Y-35216033D01*
X31083333Y-35916033D02*
X31083333Y-35216033D01*
X31083333Y-35216033D02*
X31483333Y-35916033D01*
X31483333Y-35916033D02*
X31483333Y-35216033D01*
X31783333Y-35282700D02*
X31816666Y-35249366D01*
X31816666Y-35249366D02*
X31883333Y-35216033D01*
X31883333Y-35216033D02*
X32050000Y-35216033D01*
X32050000Y-35216033D02*
X32116666Y-35249366D01*
X32116666Y-35249366D02*
X32150000Y-35282700D01*
X32150000Y-35282700D02*
X32183333Y-35349366D01*
X32183333Y-35349366D02*
X32183333Y-35416033D01*
X32183333Y-35416033D02*
X32150000Y-35516033D01*
X32150000Y-35516033D02*
X31750000Y-35916033D01*
X31750000Y-35916033D02*
X32183333Y-35916033D01*
X52916666Y-24316033D02*
X52916666Y-24816033D01*
X52916666Y-24816033D02*
X52883333Y-24916033D01*
X52883333Y-24916033D02*
X52816666Y-24982700D01*
X52816666Y-24982700D02*
X52716666Y-25016033D01*
X52716666Y-25016033D02*
X52650000Y-25016033D01*
X53249999Y-25016033D02*
X53249999Y-24316033D01*
X53249999Y-24316033D02*
X53516666Y-24316033D01*
X53516666Y-24316033D02*
X53583333Y-24349366D01*
X53583333Y-24349366D02*
X53616666Y-24382700D01*
X53616666Y-24382700D02*
X53649999Y-24449366D01*
X53649999Y-24449366D02*
X53649999Y-24549366D01*
X53649999Y-24549366D02*
X53616666Y-24616033D01*
X53616666Y-24616033D02*
X53583333Y-24649366D01*
X53583333Y-24649366D02*
X53516666Y-24682700D01*
X53516666Y-24682700D02*
X53249999Y-24682700D01*
X54316666Y-25016033D02*
X53916666Y-25016033D01*
X54116666Y-25016033D02*
X54116666Y-24316033D01*
X54116666Y-24316033D02*
X54049999Y-24416033D01*
X54049999Y-24416033D02*
X53983333Y-24482700D01*
X53983333Y-24482700D02*
X53916666Y-24516033D01*
X55286033Y-9199999D02*
X54586033Y-9199999D01*
X54919366Y-9199999D02*
X54919366Y-8799999D01*
X55286033Y-8799999D02*
X54586033Y-8799999D01*
X55286033Y-8466666D02*
X54586033Y-8466666D01*
X54586033Y-8466666D02*
X54586033Y-8299999D01*
X54586033Y-8299999D02*
X54619366Y-8199999D01*
X54619366Y-8199999D02*
X54686033Y-8133333D01*
X54686033Y-8133333D02*
X54752700Y-8099999D01*
X54752700Y-8099999D02*
X54886033Y-8066666D01*
X54886033Y-8066666D02*
X54986033Y-8066666D01*
X54986033Y-8066666D02*
X55119366Y-8099999D01*
X55119366Y-8099999D02*
X55186033Y-8133333D01*
X55186033Y-8133333D02*
X55252700Y-8199999D01*
X55252700Y-8199999D02*
X55286033Y-8299999D01*
X55286033Y-8299999D02*
X55286033Y-8466666D01*
X55286033Y-7366666D02*
X54952700Y-7599999D01*
X55286033Y-7766666D02*
X54586033Y-7766666D01*
X54586033Y-7766666D02*
X54586033Y-7499999D01*
X54586033Y-7499999D02*
X54619366Y-7433333D01*
X54619366Y-7433333D02*
X54652700Y-7399999D01*
X54652700Y-7399999D02*
X54719366Y-7366666D01*
X54719366Y-7366666D02*
X54819366Y-7366666D01*
X54819366Y-7366666D02*
X54886033Y-7399999D01*
X54886033Y-7399999D02*
X54919366Y-7433333D01*
X54919366Y-7433333D02*
X54952700Y-7499999D01*
X54952700Y-7499999D02*
X54952700Y-7766666D01*
X55086033Y-7099999D02*
X55086033Y-6766666D01*
X55286033Y-7166666D02*
X54586033Y-6933333D01*
X54586033Y-6933333D02*
X55286033Y-6699999D01*
%TO.C,BRK1*%
D13*
X36620000Y-36580000D02*
X36620000Y-35200000D01*
X38000000Y-36580000D02*
X36620000Y-36580000D01*
X39270000Y-33820000D02*
X57160000Y-33820000D01*
X39270000Y-36580000D02*
X39270000Y-33820000D01*
X39270000Y-36580000D02*
X57160000Y-36580000D01*
X57160000Y-36580000D02*
X57160000Y-33820000D01*
%TO.C,REN2*%
X32220000Y-24753641D02*
X32220000Y-24446359D01*
X32980000Y-24753641D02*
X32980000Y-24446359D01*
%TO.C,BRK3*%
X41000000Y-1420000D02*
X41000000Y-4180000D01*
X48730000Y-1420000D02*
X41000000Y-1420000D01*
X48730000Y-1420000D02*
X48730000Y-4180000D01*
X48730000Y-4180000D02*
X41000000Y-4180000D01*
X50000000Y-1420000D02*
X51380000Y-1420000D01*
X51380000Y-1420000D02*
X51380000Y-2800000D01*
%TO.C,C1*%
X16290000Y-14140580D02*
X16290000Y-13859420D01*
X17310000Y-14140580D02*
X17310000Y-13859420D01*
%TO.C,BTN1*%
X18640000Y-36390000D02*
X18640000Y-37640000D01*
X18940000Y-38000000D02*
X19550000Y-38000000D01*
X18940000Y-39300000D02*
X19550000Y-39300000D01*
X19550000Y-37300000D02*
X19550000Y-40800000D01*
X19550000Y-40800000D02*
X24450000Y-40800000D01*
X19890000Y-36390000D02*
X18640000Y-36390000D01*
X20400000Y-36490000D02*
X20400000Y-36690000D01*
X20700000Y-36490000D02*
X20400000Y-36490000D01*
X20700000Y-36590000D02*
X20400000Y-36590000D01*
X20700000Y-36690000D02*
X20700000Y-36490000D01*
X21500000Y-36690000D02*
X21500000Y-37300000D01*
X21500000Y-37300000D02*
X19550000Y-37300000D01*
X21900000Y-40300000D02*
X22100000Y-40300000D01*
X21900000Y-40800000D02*
X21900000Y-40300000D01*
X22000000Y-40800000D02*
X22000000Y-40300000D01*
X22100000Y-40300000D02*
X22100000Y-40800000D01*
X22500000Y-37300000D02*
X22500000Y-36690000D01*
X24450000Y-37300000D02*
X22500000Y-37300000D01*
X24450000Y-40800000D02*
X24450000Y-37300000D01*
X25060000Y-38000000D02*
X24450000Y-38000000D01*
X25060000Y-39300000D02*
X24450000Y-39300000D01*
X18940000Y-36690000D02*
X25060000Y-36690000D01*
X25060000Y-41410000D01*
X18940000Y-41410000D01*
X18940000Y-36690000D01*
%TO.C,R2*%
X13765000Y-14227064D02*
X13765000Y-13772936D01*
X15235000Y-14227064D02*
X15235000Y-13772936D01*
%TO.C,SW1*%
X8640000Y-36390000D02*
X8640000Y-37640000D01*
X8940000Y-38000000D02*
X9550000Y-38000000D01*
X8940000Y-39300000D02*
X9550000Y-39300000D01*
X9550000Y-37300000D02*
X9550000Y-40800000D01*
X9550000Y-40800000D02*
X14450000Y-40800000D01*
X9890000Y-36390000D02*
X8640000Y-36390000D01*
X10400000Y-36490000D02*
X10400000Y-36690000D01*
X10700000Y-36490000D02*
X10400000Y-36490000D01*
X10700000Y-36590000D02*
X10400000Y-36590000D01*
X10700000Y-36690000D02*
X10700000Y-36490000D01*
X11500000Y-36690000D02*
X11500000Y-37300000D01*
X11500000Y-37300000D02*
X9550000Y-37300000D01*
X11900000Y-40300000D02*
X12100000Y-40300000D01*
X11900000Y-40800000D02*
X11900000Y-40300000D01*
X12000000Y-40800000D02*
X12000000Y-40300000D01*
X12100000Y-40300000D02*
X12100000Y-40800000D01*
X12500000Y-37300000D02*
X12500000Y-36690000D01*
X14450000Y-37300000D02*
X12500000Y-37300000D01*
X14450000Y-40800000D02*
X14450000Y-37300000D01*
X15060000Y-38000000D02*
X14450000Y-38000000D01*
X15060000Y-39300000D02*
X14450000Y-39300000D01*
X8940000Y-36690000D02*
X15060000Y-36690000D01*
X15060000Y-41410000D01*
X8940000Y-41410000D01*
X8940000Y-36690000D01*
%TO.C,BRK2*%
X18840000Y-1420000D02*
X18840000Y-4180000D01*
X36730000Y-1420000D02*
X18840000Y-1420000D01*
X36730000Y-1420000D02*
X36730000Y-4180000D01*
X36730000Y-4180000D02*
X18840000Y-4180000D01*
X38000000Y-1420000D02*
X39380000Y-1420000D01*
X39380000Y-1420000D02*
X39380000Y-2800000D01*
%TO.C,J1*%
X53790000Y-15440000D02*
X53790000Y-16460000D01*
X53790000Y-16460000D02*
X55390000Y-16460000D01*
X53790000Y-22540000D02*
X55390000Y-22540000D01*
X53790000Y-23560000D02*
X53790000Y-22540000D01*
X55390000Y-16460000D02*
X55390000Y-17740000D01*
X55390000Y-21260000D02*
X52500000Y-21260000D01*
X55390000Y-22540000D02*
X55390000Y-21260000D01*
X58040000Y-15440000D02*
X53790000Y-15440000D01*
X58040000Y-23560000D02*
X53790000Y-23560000D01*
X61610000Y-21840000D02*
X61610000Y-17160000D01*
%TO.C,RFB2*%
X45720000Y-24953641D02*
X45720000Y-24646359D01*
X46480000Y-24953641D02*
X46480000Y-24646359D01*
%TO.C,R1*%
X11265000Y-14227064D02*
X11265000Y-13772936D01*
X12735000Y-14227064D02*
X12735000Y-13772936D01*
%TO.C,L1*%
X31500000Y-17600000D02*
X21500000Y-17600000D01*
X31500000Y-26400000D02*
X21500000Y-26400000D01*
%TO.C,Cin2*%
X51140000Y-12911252D02*
X51140000Y-11488748D01*
X53860000Y-12911252D02*
X53860000Y-11488748D01*
%TO.C,REN1*%
X34120000Y-24753641D02*
X34120000Y-24446359D01*
X34880000Y-24753641D02*
X34880000Y-24446359D01*
%TO.C,HDRB*%
X7690000Y-29530000D02*
X7690000Y-32190000D01*
X50930000Y-29530000D02*
X7690000Y-29530000D01*
X50930000Y-29530000D02*
X50930000Y-32190000D01*
X50930000Y-32190000D02*
X7690000Y-32190000D01*
X53530000Y-30860000D02*
X53530000Y-32190000D01*
X53530000Y-32190000D02*
X52200000Y-32190000D01*
%TO.C,Cin1*%
X46640000Y-21711252D02*
X46640000Y-20288748D01*
X49360000Y-21711252D02*
X49360000Y-20288748D01*
%TO.C,Cff*%
X41790000Y-25340580D02*
X41790000Y-25059420D01*
X42810000Y-25340580D02*
X42810000Y-25059420D01*
%TO.C,BTN2*%
X27640000Y-36390000D02*
X27640000Y-37640000D01*
X27940000Y-38000000D02*
X28550000Y-38000000D01*
X27940000Y-39300000D02*
X28550000Y-39300000D01*
X28550000Y-37300000D02*
X28550000Y-40800000D01*
X28550000Y-40800000D02*
X33450000Y-40800000D01*
X28890000Y-36390000D02*
X27640000Y-36390000D01*
X29400000Y-36490000D02*
X29400000Y-36690000D01*
X29700000Y-36490000D02*
X29400000Y-36490000D01*
X29700000Y-36590000D02*
X29400000Y-36590000D01*
X29700000Y-36690000D02*
X29700000Y-36490000D01*
X30500000Y-36690000D02*
X30500000Y-37300000D01*
X30500000Y-37300000D02*
X28550000Y-37300000D01*
X30900000Y-40300000D02*
X31100000Y-40300000D01*
X30900000Y-40800000D02*
X30900000Y-40300000D01*
X31000000Y-40800000D02*
X31000000Y-40300000D01*
X31100000Y-40300000D02*
X31100000Y-40800000D01*
X31500000Y-37300000D02*
X31500000Y-36690000D01*
X33450000Y-37300000D02*
X31500000Y-37300000D01*
X33450000Y-40800000D02*
X33450000Y-37300000D01*
X34060000Y-38000000D02*
X33450000Y-38000000D01*
X34060000Y-39300000D02*
X33450000Y-39300000D01*
X27940000Y-36690000D02*
X34060000Y-36690000D01*
X34060000Y-41410000D01*
X27940000Y-41410000D01*
X27940000Y-36690000D01*
%TO.C,JP1*%
X52100000Y-25500000D02*
X54900000Y-25500000D01*
X52100000Y-27500000D02*
X52100000Y-25500000D01*
X54900000Y-25500000D02*
X54900000Y-27500000D01*
X54900000Y-27500000D02*
X52100000Y-27500000D01*
%TO.C,Cbst*%
X43840000Y-17607836D02*
X43840000Y-17392164D01*
X44560000Y-17607836D02*
X44560000Y-17392164D01*
%TO.C,RFB1*%
X43920000Y-24953641D02*
X43920000Y-24646359D01*
X44680000Y-24953641D02*
X44680000Y-24646359D01*
%TO.C,U1*%
X37440000Y-17440000D02*
X41560000Y-17440000D01*
X37440000Y-17535000D02*
X37440000Y-17440000D01*
X37440000Y-22560000D02*
X37440000Y-22465000D01*
X41560000Y-17440000D02*
X41560000Y-17535000D01*
X41560000Y-22465000D02*
X41560000Y-22560000D01*
X41560000Y-22560000D02*
X37440000Y-22560000D01*
X42100000Y-22470000D02*
X42340000Y-22800000D01*
X41860000Y-22800000D01*
X42100000Y-22470000D01*
G36*
X42340000Y-22800000D02*
G01*
X41860000Y-22800000D01*
X42100000Y-22470000D01*
X42340000Y-22800000D01*
G37*
%TO.C,Cout3*%
X11840000Y-20607836D02*
X11840000Y-20392164D01*
X12560000Y-20607836D02*
X12560000Y-20392164D01*
%TO.C,HDRA*%
X7690000Y-6670000D02*
X7690000Y-9330000D01*
X50930000Y-6670000D02*
X7690000Y-6670000D01*
X50930000Y-6670000D02*
X50930000Y-9330000D01*
X50930000Y-9330000D02*
X7690000Y-9330000D01*
X53530000Y-8000000D02*
X53530000Y-9330000D01*
X53530000Y-9330000D02*
X52200000Y-9330000D01*
%TO.C,D2*%
X43340000Y-10850000D02*
X43340000Y-15150000D01*
X43340000Y-10850000D02*
X49150000Y-10850000D01*
X43340000Y-15150000D02*
X49150000Y-15150000D01*
%TO.C,D1*%
X27990000Y-13650000D02*
X27990000Y-16950000D01*
X27990000Y-13650000D02*
X33500000Y-13650000D01*
X27990000Y-16950000D02*
X33500000Y-16950000D01*
%TO.C,Cin3*%
X44090000Y-21140580D02*
X44090000Y-20859420D01*
X45110000Y-21140580D02*
X45110000Y-20859420D01*
%TO.C,Cout2*%
X14490000Y-21211252D02*
X14490000Y-19788748D01*
X16310000Y-21211252D02*
X16310000Y-19788748D01*
%TO.C,Cout1*%
X18290000Y-21211252D02*
X18290000Y-19788748D01*
X20110000Y-21211252D02*
X20110000Y-19788748D01*
%TD*%
%LPC*%
%TO.C,JP1*%
G36*
X52275000Y-25750000D02*
G01*
X54725000Y-25750000D01*
X54725000Y-27250000D01*
X52275000Y-27250000D01*
X52275000Y-25750000D01*
G37*
%TD*%
D14*
%TO.C,BRK1*%
X38000000Y-35200000D03*
D15*
X40540000Y-35200000D03*
X43080000Y-35200000D03*
X45620000Y-35200000D03*
X48160000Y-35200000D03*
X50700000Y-35200000D03*
X53240000Y-35200000D03*
X55780000Y-35200000D03*
%TD*%
D16*
%TO.C,H4*%
X58500000Y-40500000D03*
%TD*%
D17*
%TO.C,REN2*%
X32600000Y-25110000D03*
X32600000Y-24090000D03*
%TD*%
D14*
%TO.C,BRK3*%
X50000000Y-2800000D03*
D15*
X47460000Y-2800000D03*
X44920000Y-2800000D03*
X42380000Y-2800000D03*
%TD*%
D18*
%TO.C,C1*%
X16800000Y-14775000D03*
X16800000Y-13225000D03*
%TD*%
D19*
%TO.C,BTN1*%
X21000000Y-38500000D03*
D20*
X23000000Y-38500000D03*
%TD*%
D21*
%TO.C,R2*%
X14500000Y-14912500D03*
X14500000Y-13087500D03*
%TD*%
D19*
%TO.C,SW1*%
X11000000Y-38500000D03*
D20*
X13000000Y-38500000D03*
%TD*%
D14*
%TO.C,BRK2*%
X38000000Y-2800000D03*
D15*
X35460000Y-2800000D03*
X32920000Y-2800000D03*
X30380000Y-2800000D03*
X27840000Y-2800000D03*
X25300000Y-2800000D03*
X22760000Y-2800000D03*
X20220000Y-2800000D03*
%TD*%
D22*
%TO.C,J1*%
X54250000Y-20500000D03*
X54250000Y-18500000D03*
D23*
X60000000Y-22850000D03*
X60000000Y-16150000D03*
%TD*%
D17*
%TO.C,RFB2*%
X46100000Y-25310000D03*
X46100000Y-24290000D03*
%TD*%
D21*
%TO.C,R1*%
X12000000Y-14912500D03*
X12000000Y-13087500D03*
%TD*%
D24*
%TO.C,L1*%
X29600000Y-22000000D03*
X23400000Y-22000000D03*
%TD*%
D25*
%TO.C,Cin2*%
X52500000Y-13675000D03*
X52500000Y-10725000D03*
%TD*%
D17*
%TO.C,REN1*%
X34500000Y-25110000D03*
X34500000Y-24090000D03*
%TD*%
D14*
%TO.C,HDRB*%
X52200000Y-30860000D03*
D15*
X49660000Y-30860000D03*
X47120000Y-30860000D03*
X44580000Y-30860000D03*
X42040000Y-30860000D03*
X39500000Y-30860000D03*
X36960000Y-30860000D03*
X34420000Y-30860000D03*
X31880000Y-30860000D03*
X29340000Y-30860000D03*
X26800000Y-30860000D03*
X24260000Y-30860000D03*
X21720000Y-30860000D03*
X19180000Y-30860000D03*
X16640000Y-30860000D03*
X14100000Y-30860000D03*
X11560000Y-30860000D03*
X9020000Y-30860000D03*
%TD*%
D25*
%TO.C,Cin1*%
X48000000Y-22475000D03*
X48000000Y-19525000D03*
%TD*%
D18*
%TO.C,Cff*%
X42300000Y-25975000D03*
X42300000Y-24425000D03*
%TD*%
D19*
%TO.C,BTN2*%
X30000000Y-38500000D03*
D20*
X32000000Y-38500000D03*
%TD*%
D26*
%TO.C,JP1*%
X52775000Y-26500000D03*
D27*
X54225000Y-26500000D03*
%TD*%
D28*
%TO.C,Cbst*%
X44200000Y-17980000D03*
X44200000Y-17020000D03*
%TD*%
D17*
%TO.C,RFB1*%
X44300000Y-25310000D03*
X44300000Y-24290000D03*
%TD*%
D29*
%TO.C,U1*%
X41975000Y-21905000D03*
X41975000Y-20635000D03*
X41975000Y-19365000D03*
X41975000Y-18095000D03*
X37025000Y-18095000D03*
X37025000Y-19365000D03*
X37025000Y-20635000D03*
X37025000Y-21905000D03*
D30*
X39500000Y-20000000D03*
%TD*%
D16*
%TO.C,H3*%
X3500000Y-40500000D03*
%TD*%
D28*
%TO.C,Cout3*%
X12200000Y-20980000D03*
X12200000Y-20020000D03*
%TD*%
D14*
%TO.C,HDRA*%
X52200000Y-8000000D03*
D15*
X49660000Y-8000000D03*
X47120000Y-8000000D03*
X44580000Y-8000000D03*
X42040000Y-8000000D03*
X39500000Y-8000000D03*
X36960000Y-8000000D03*
X34420000Y-8000000D03*
X31880000Y-8000000D03*
X29340000Y-8000000D03*
X26800000Y-8000000D03*
X24260000Y-8000000D03*
X21720000Y-8000000D03*
X19180000Y-8000000D03*
X16640000Y-8000000D03*
X14100000Y-8000000D03*
X11560000Y-8000000D03*
X9020000Y-8000000D03*
%TD*%
D31*
%TO.C,D2*%
X44850000Y-13000000D03*
X49150000Y-13000000D03*
%TD*%
D32*
%TO.C,D1*%
X29500000Y-15300000D03*
X33500000Y-15300000D03*
%TD*%
D18*
%TO.C,Cin3*%
X44600000Y-21775000D03*
X44600000Y-20225000D03*
%TD*%
D16*
%TO.C,H1*%
X3500000Y-3500000D03*
%TD*%
D33*
%TO.C,Cout2*%
X15400000Y-21975000D03*
X15400000Y-19025000D03*
%TD*%
%TO.C,Cout1*%
X19200000Y-21975000D03*
X19200000Y-19025000D03*
%TD*%
D16*
%TO.C,H2*%
X58500000Y-3500000D03*
%TD*%
%LPD*%
M02*
