M48
; DRILL file KiCad 10.0.3 date 2026-07-09T15:58:38
; FORMAT={-:-/ absolute / metric / decimal}
; #@! TF.CreationDate,2026-07-09T15:58:38-07:00
; #@! TF.GenerationSoftware,Kicad,Pcbnew,10.0.3
; #@! TF.FileFunction,MixedPlating,1,2
FMAT,2
METRIC
; #@! TA.AperFunction,Plated,PTH,ViaDrill
T1C0.300
; #@! TA.AperFunction,Plated,PTH,ComponentDrill
T2C1.000
; #@! TA.AperFunction,NonPlated,NPTH,ComponentDrill
T3C2.200
%
G90
G05
T1
X28.976Y-36.368
X31.621Y-23.155
X37.954Y-25.975
T2
X9.02Y-8.0
X9.02Y-30.86
X11.56Y-8.0
X11.56Y-30.86
X14.1Y-8.0
X14.1Y-30.86
X16.64Y-8.0
X16.64Y-30.86
X19.18Y-8.0
X19.18Y-30.86
X20.22Y-2.8
X21.72Y-8.0
X21.72Y-30.86
X22.76Y-2.8
X24.26Y-8.0
X24.26Y-30.86
X25.3Y-2.8
X26.8Y-8.0
X26.8Y-30.86
X27.84Y-2.8
X29.34Y-8.0
X29.34Y-30.86
X30.38Y-2.8
X31.88Y-8.0
X31.88Y-30.86
X32.92Y-2.8
X34.42Y-8.0
X34.42Y-30.86
X35.46Y-2.8
X36.96Y-8.0
X36.96Y-30.86
X38.0Y-2.8
X38.0Y-35.2
X39.5Y-8.0
X39.5Y-30.86
X40.54Y-35.2
X42.04Y-8.0
X42.04Y-30.86
X42.38Y-2.8
X43.08Y-35.2
X44.58Y-8.0
X44.58Y-30.86
X44.92Y-2.8
X45.62Y-35.2
X47.12Y-8.0
X47.12Y-30.86
X47.46Y-2.8
X48.16Y-35.2
X49.66Y-8.0
X49.66Y-30.86
X50.0Y-2.8
X50.7Y-35.2
X52.2Y-8.0
X52.2Y-30.86
X53.24Y-35.2
X55.78Y-35.2
T3
X3.5Y-3.5
X3.5Y-40.5
X58.5Y-3.5
X58.5Y-40.5
M30
