%TF.GenerationSoftware,KiCad,Pcbnew,10.0.3*%
%TF.CreationDate,2026-07-09T15:58:38-07:00*%
%TF.ProjectId,brickdup_carrier,62726963-6b64-4757-905f-636172726965,rev?*%
%TF.SameCoordinates,Original*%
%TF.FileFunction,Drillmap*%
%TF.FilePolarity,Positive*%
%FSLAX45Y45*%
G04 Gerber Fmt 4.5, Leading zero omitted, Abs format (unit mm)*
G04 Created by KiCad (PCBNEW 10.0.3) date 2026-07-09 15:58:38*
%MOMM*%
%LPD*%
G01*
G04 APERTURE LIST*
%ADD10C,0.100000*%
%ADD11C,0.200000*%
%ADD12C,0.220000*%
G04 APERTURE END LIST*
D10*
X0Y0D02*
X6200000Y0D01*
X0Y-4400000D02*
X0Y0D01*
X6200000Y0D02*
X6200000Y-4400000D01*
X6200000Y-4400000D02*
X0Y-4400000D01*
D11*
D10*
X2882560Y-3621790D02*
X2912560Y-3651790D01*
X2912560Y-3621790D02*
X2882560Y-3651790D01*
X3147080Y-2300510D02*
X3177080Y-2330510D01*
X3177080Y-2300510D02*
X3147080Y-2330510D01*
X3780360Y-2582500D02*
X3810360Y-2612500D01*
X3810360Y-2582500D02*
X3780360Y-2612500D01*
X952000Y-800000D02*
G75*
G02*
X852000Y-800000I-50000J0D01*
G01*
X852000Y-800000D02*
G75*
G02*
X952000Y-800000I50000J0D01*
G01*
X952000Y-3086000D02*
G75*
G02*
X852000Y-3086000I-50000J0D01*
G01*
X852000Y-3086000D02*
G75*
G02*
X952000Y-3086000I50000J0D01*
G01*
X1206000Y-800000D02*
G75*
G02*
X1106000Y-800000I-50000J0D01*
G01*
X1106000Y-800000D02*
G75*
G02*
X1206000Y-800000I50000J0D01*
G01*
X1206000Y-3086000D02*
G75*
G02*
X1106000Y-3086000I-50000J0D01*
G01*
X1106000Y-3086000D02*
G75*
G02*
X1206000Y-3086000I50000J0D01*
G01*
X1460000Y-800000D02*
G75*
G02*
X1360000Y-800000I-50000J0D01*
G01*
X1360000Y-800000D02*
G75*
G02*
X1460000Y-800000I50000J0D01*
G01*
X1460000Y-3086000D02*
G75*
G02*
X1360000Y-3086000I-50000J0D01*
G01*
X1360000Y-3086000D02*
G75*
G02*
X1460000Y-3086000I50000J0D01*
G01*
X1714000Y-800000D02*
G75*
G02*
X1614000Y-800000I-50000J0D01*
G01*
X1614000Y-800000D02*
G75*
G02*
X1714000Y-800000I50000J0D01*
G01*
X1714000Y-3086000D02*
G75*
G02*
X1614000Y-3086000I-50000J0D01*
G01*
X1614000Y-3086000D02*
G75*
G02*
X1714000Y-3086000I50000J0D01*
G01*
X1968000Y-800000D02*
G75*
G02*
X1868000Y-800000I-50000J0D01*
G01*
X1868000Y-800000D02*
G75*
G02*
X1968000Y-800000I50000J0D01*
G01*
X1968000Y-3086000D02*
G75*
G02*
X1868000Y-3086000I-50000J0D01*
G01*
X1868000Y-3086000D02*
G75*
G02*
X1968000Y-3086000I50000J0D01*
G01*
X2072000Y-280000D02*
G75*
G02*
X1972000Y-280000I-50000J0D01*
G01*
X1972000Y-280000D02*
G75*
G02*
X2072000Y-280000I50000J0D01*
G01*
X2222000Y-800000D02*
G75*
G02*
X2122000Y-800000I-50000J0D01*
G01*
X2122000Y-800000D02*
G75*
G02*
X2222000Y-800000I50000J0D01*
G01*
X2222000Y-3086000D02*
G75*
G02*
X2122000Y-3086000I-50000J0D01*
G01*
X2122000Y-3086000D02*
G75*
G02*
X2222000Y-3086000I50000J0D01*
G01*
X2326000Y-280000D02*
G75*
G02*
X2226000Y-280000I-50000J0D01*
G01*
X2226000Y-280000D02*
G75*
G02*
X2326000Y-280000I50000J0D01*
G01*
X2476000Y-800000D02*
G75*
G02*
X2376000Y-800000I-50000J0D01*
G01*
X2376000Y-800000D02*
G75*
G02*
X2476000Y-800000I50000J0D01*
G01*
X2476000Y-3086000D02*
G75*
G02*
X2376000Y-3086000I-50000J0D01*
G01*
X2376000Y-3086000D02*
G75*
G02*
X2476000Y-3086000I50000J0D01*
G01*
X2580000Y-280000D02*
G75*
G02*
X2480000Y-280000I-50000J0D01*
G01*
X2480000Y-280000D02*
G75*
G02*
X2580000Y-280000I50000J0D01*
G01*
X2730000Y-800000D02*
G75*
G02*
X2630000Y-800000I-50000J0D01*
G01*
X2630000Y-800000D02*
G75*
G02*
X2730000Y-800000I50000J0D01*
G01*
X2730000Y-3086000D02*
G75*
G02*
X2630000Y-3086000I-50000J0D01*
G01*
X2630000Y-3086000D02*
G75*
G02*
X2730000Y-3086000I50000J0D01*
G01*
X2834000Y-280000D02*
G75*
G02*
X2734000Y-280000I-50000J0D01*
G01*
X2734000Y-280000D02*
G75*
G02*
X2834000Y-280000I50000J0D01*
G01*
X2984000Y-800000D02*
G75*
G02*
X2884000Y-800000I-50000J0D01*
G01*
X2884000Y-800000D02*
G75*
G02*
X2984000Y-800000I50000J0D01*
G01*
X2984000Y-3086000D02*
G75*
G02*
X2884000Y-3086000I-50000J0D01*
G01*
X2884000Y-3086000D02*
G75*
G02*
X2984000Y-3086000I50000J0D01*
G01*
X3088000Y-280000D02*
G75*
G02*
X2988000Y-280000I-50000J0D01*
G01*
X2988000Y-280000D02*
G75*
G02*
X3088000Y-280000I50000J0D01*
G01*
X3238000Y-800000D02*
G75*
G02*
X3138000Y-800000I-50000J0D01*
G01*
X3138000Y-800000D02*
G75*
G02*
X3238000Y-800000I50000J0D01*
G01*
X3238000Y-3086000D02*
G75*
G02*
X3138000Y-3086000I-50000J0D01*
G01*
X3138000Y-3086000D02*
G75*
G02*
X3238000Y-3086000I50000J0D01*
G01*
X3342000Y-280000D02*
G75*
G02*
X3242000Y-280000I-50000J0D01*
G01*
X3242000Y-280000D02*
G75*
G02*
X3342000Y-280000I50000J0D01*
G01*
X3492000Y-800000D02*
G75*
G02*
X3392000Y-800000I-50000J0D01*
G01*
X3392000Y-800000D02*
G75*
G02*
X3492000Y-800000I50000J0D01*
G01*
X3492000Y-3086000D02*
G75*
G02*
X3392000Y-3086000I-50000J0D01*
G01*
X3392000Y-3086000D02*
G75*
G02*
X3492000Y-3086000I50000J0D01*
G01*
X3596000Y-280000D02*
G75*
G02*
X3496000Y-280000I-50000J0D01*
G01*
X3496000Y-280000D02*
G75*
G02*
X3596000Y-280000I50000J0D01*
G01*
X3746000Y-800000D02*
G75*
G02*
X3646000Y-800000I-50000J0D01*
G01*
X3646000Y-800000D02*
G75*
G02*
X3746000Y-800000I50000J0D01*
G01*
X3746000Y-3086000D02*
G75*
G02*
X3646000Y-3086000I-50000J0D01*
G01*
X3646000Y-3086000D02*
G75*
G02*
X3746000Y-3086000I50000J0D01*
G01*
X3850000Y-280000D02*
G75*
G02*
X3750000Y-280000I-50000J0D01*
G01*
X3750000Y-280000D02*
G75*
G02*
X3850000Y-280000I50000J0D01*
G01*
X3850000Y-3520000D02*
G75*
G02*
X3750000Y-3520000I-50000J0D01*
G01*
X3750000Y-3520000D02*
G75*
G02*
X3850000Y-3520000I50000J0D01*
G01*
X4000000Y-800000D02*
G75*
G02*
X3900000Y-800000I-50000J0D01*
G01*
X3900000Y-800000D02*
G75*
G02*
X4000000Y-800000I50000J0D01*
G01*
X4000000Y-3086000D02*
G75*
G02*
X3900000Y-3086000I-50000J0D01*
G01*
X3900000Y-3086000D02*
G75*
G02*
X4000000Y-3086000I50000J0D01*
G01*
X4104000Y-3520000D02*
G75*
G02*
X4004000Y-3520000I-50000J0D01*
G01*
X4004000Y-3520000D02*
G75*
G02*
X4104000Y-3520000I50000J0D01*
G01*
X4254000Y-800000D02*
G75*
G02*
X4154000Y-800000I-50000J0D01*
G01*
X4154000Y-800000D02*
G75*
G02*
X4254000Y-800000I50000J0D01*
G01*
X4254000Y-3086000D02*
G75*
G02*
X4154000Y-3086000I-50000J0D01*
G01*
X4154000Y-3086000D02*
G75*
G02*
X4254000Y-3086000I50000J0D01*
G01*
X4288000Y-280000D02*
G75*
G02*
X4188000Y-280000I-50000J0D01*
G01*
X4188000Y-280000D02*
G75*
G02*
X4288000Y-280000I50000J0D01*
G01*
X4358000Y-3520000D02*
G75*
G02*
X4258000Y-3520000I-50000J0D01*
G01*
X4258000Y-3520000D02*
G75*
G02*
X4358000Y-3520000I50000J0D01*
G01*
X4508000Y-800000D02*
G75*
G02*
X4408000Y-800000I-50000J0D01*
G01*
X4408000Y-800000D02*
G75*
G02*
X4508000Y-800000I50000J0D01*
G01*
X4508000Y-3086000D02*
G75*
G02*
X4408000Y-3086000I-50000J0D01*
G01*
X4408000Y-3086000D02*
G75*
G02*
X4508000Y-3086000I50000J0D01*
G01*
X4542000Y-280000D02*
G75*
G02*
X4442000Y-280000I-50000J0D01*
G01*
X4442000Y-280000D02*
G75*
G02*
X4542000Y-280000I50000J0D01*
G01*
X4612000Y-3520000D02*
G75*
G02*
X4512000Y-3520000I-50000J0D01*
G01*
X4512000Y-3520000D02*
G75*
G02*
X4612000Y-3520000I50000J0D01*
G01*
X4762000Y-800000D02*
G75*
G02*
X4662000Y-800000I-50000J0D01*
G01*
X4662000Y-800000D02*
G75*
G02*
X4762000Y-800000I50000J0D01*
G01*
X4762000Y-3086000D02*
G75*
G02*
X4662000Y-3086000I-50000J0D01*
G01*
X4662000Y-3086000D02*
G75*
G02*
X4762000Y-3086000I50000J0D01*
G01*
X4796000Y-280000D02*
G75*
G02*
X4696000Y-280000I-50000J0D01*
G01*
X4696000Y-280000D02*
G75*
G02*
X4796000Y-280000I50000J0D01*
G01*
X4866000Y-3520000D02*
G75*
G02*
X4766000Y-3520000I-50000J0D01*
G01*
X4766000Y-3520000D02*
G75*
G02*
X4866000Y-3520000I50000J0D01*
G01*
X5016000Y-800000D02*
G75*
G02*
X4916000Y-800000I-50000J0D01*
G01*
X4916000Y-800000D02*
G75*
G02*
X5016000Y-800000I50000J0D01*
G01*
X5016000Y-3086000D02*
G75*
G02*
X4916000Y-3086000I-50000J0D01*
G01*
X4916000Y-3086000D02*
G75*
G02*
X5016000Y-3086000I50000J0D01*
G01*
X5050000Y-280000D02*
G75*
G02*
X4950000Y-280000I-50000J0D01*
G01*
X4950000Y-280000D02*
G75*
G02*
X5050000Y-280000I50000J0D01*
G01*
X5120000Y-3520000D02*
G75*
G02*
X5020000Y-3520000I-50000J0D01*
G01*
X5020000Y-3520000D02*
G75*
G02*
X5120000Y-3520000I50000J0D01*
G01*
X5270000Y-800000D02*
G75*
G02*
X5170000Y-800000I-50000J0D01*
G01*
X5170000Y-800000D02*
G75*
G02*
X5270000Y-800000I50000J0D01*
G01*
X5270000Y-3086000D02*
G75*
G02*
X5170000Y-3086000I-50000J0D01*
G01*
X5170000Y-3086000D02*
G75*
G02*
X5270000Y-3086000I50000J0D01*
G01*
X5374000Y-3520000D02*
G75*
G02*
X5274000Y-3520000I-50000J0D01*
G01*
X5274000Y-3520000D02*
G75*
G02*
X5374000Y-3520000I50000J0D01*
G01*
X5628000Y-3520000D02*
G75*
G02*
X5528000Y-3520000I-50000J0D01*
G01*
X5528000Y-3520000D02*
G75*
G02*
X5628000Y-3520000I50000J0D01*
G01*
D12*
X350000Y-240000D02*
X350000Y-460000D01*
X240000Y-350000D02*
X460000Y-350000D01*
X350000Y-3940000D02*
X350000Y-4160000D01*
X240000Y-4050000D02*
X460000Y-4050000D01*
X5850000Y-240000D02*
X5850000Y-460000D01*
X5740000Y-350000D02*
X5960000Y-350000D01*
X5850000Y-3940000D02*
X5850000Y-4160000D01*
X5740000Y-4050000D02*
X5960000Y-4050000D01*
D11*
X255777Y-4716484D02*
X255777Y-4516484D01*
X255777Y-4516484D02*
X303396Y-4516484D01*
X303396Y-4516484D02*
X331967Y-4526008D01*
X331967Y-4526008D02*
X351015Y-4545055D01*
X351015Y-4545055D02*
X360539Y-4564103D01*
X360539Y-4564103D02*
X370062Y-4602198D01*
X370062Y-4602198D02*
X370062Y-4630770D01*
X370062Y-4630770D02*
X360539Y-4668865D01*
X360539Y-4668865D02*
X351015Y-4687912D01*
X351015Y-4687912D02*
X331967Y-4706960D01*
X331967Y-4706960D02*
X303396Y-4716484D01*
X303396Y-4716484D02*
X255777Y-4716484D01*
X455777Y-4716484D02*
X455777Y-4583150D01*
X455777Y-4621246D02*
X465301Y-4602198D01*
X465301Y-4602198D02*
X474824Y-4592674D01*
X474824Y-4592674D02*
X493872Y-4583150D01*
X493872Y-4583150D02*
X512920Y-4583150D01*
X579586Y-4716484D02*
X579586Y-4583150D01*
X579586Y-4516484D02*
X570063Y-4526008D01*
X570063Y-4526008D02*
X579586Y-4535531D01*
X579586Y-4535531D02*
X589110Y-4526008D01*
X589110Y-4526008D02*
X579586Y-4516484D01*
X579586Y-4516484D02*
X579586Y-4535531D01*
X703396Y-4716484D02*
X684348Y-4706960D01*
X684348Y-4706960D02*
X674824Y-4687912D01*
X674824Y-4687912D02*
X674824Y-4516484D01*
X808158Y-4716484D02*
X789110Y-4706960D01*
X789110Y-4706960D02*
X779586Y-4687912D01*
X779586Y-4687912D02*
X779586Y-4516484D01*
X1036729Y-4716484D02*
X1036729Y-4516484D01*
X1036729Y-4516484D02*
X1103396Y-4659341D01*
X1103396Y-4659341D02*
X1170063Y-4516484D01*
X1170063Y-4516484D02*
X1170063Y-4716484D01*
X1351015Y-4716484D02*
X1351015Y-4611722D01*
X1351015Y-4611722D02*
X1341491Y-4592674D01*
X1341491Y-4592674D02*
X1322444Y-4583150D01*
X1322444Y-4583150D02*
X1284348Y-4583150D01*
X1284348Y-4583150D02*
X1265301Y-4592674D01*
X1351015Y-4706960D02*
X1331967Y-4716484D01*
X1331967Y-4716484D02*
X1284348Y-4716484D01*
X1284348Y-4716484D02*
X1265301Y-4706960D01*
X1265301Y-4706960D02*
X1255777Y-4687912D01*
X1255777Y-4687912D02*
X1255777Y-4668865D01*
X1255777Y-4668865D02*
X1265301Y-4649817D01*
X1265301Y-4649817D02*
X1284348Y-4640293D01*
X1284348Y-4640293D02*
X1331967Y-4640293D01*
X1331967Y-4640293D02*
X1351015Y-4630770D01*
X1446253Y-4583150D02*
X1446253Y-4783150D01*
X1446253Y-4592674D02*
X1465301Y-4583150D01*
X1465301Y-4583150D02*
X1503396Y-4583150D01*
X1503396Y-4583150D02*
X1522443Y-4592674D01*
X1522443Y-4592674D02*
X1531967Y-4602198D01*
X1531967Y-4602198D02*
X1541491Y-4621246D01*
X1541491Y-4621246D02*
X1541491Y-4678389D01*
X1541491Y-4678389D02*
X1531967Y-4697436D01*
X1531967Y-4697436D02*
X1522443Y-4706960D01*
X1522443Y-4706960D02*
X1503396Y-4716484D01*
X1503396Y-4716484D02*
X1465301Y-4716484D01*
X1465301Y-4716484D02*
X1446253Y-4706960D01*
X1627205Y-4697436D02*
X1636729Y-4706960D01*
X1636729Y-4706960D02*
X1627205Y-4716484D01*
X1627205Y-4716484D02*
X1617682Y-4706960D01*
X1617682Y-4706960D02*
X1627205Y-4697436D01*
X1627205Y-4697436D02*
X1627205Y-4716484D01*
X1627205Y-4592674D02*
X1636729Y-4602198D01*
X1636729Y-4602198D02*
X1627205Y-4611722D01*
X1627205Y-4611722D02*
X1617682Y-4602198D01*
X1617682Y-4602198D02*
X1627205Y-4592674D01*
X1627205Y-4592674D02*
X1627205Y-4611722D01*
D10*
X-35000Y-5030000D02*
X-5000Y-5060000D01*
X-5000Y-5030000D02*
X-35000Y-5060000D01*
D11*
X293872Y-4936484D02*
X312920Y-4936484D01*
X312920Y-4936484D02*
X331967Y-4946008D01*
X331967Y-4946008D02*
X341491Y-4955531D01*
X341491Y-4955531D02*
X351015Y-4974579D01*
X351015Y-4974579D02*
X360539Y-5012674D01*
X360539Y-5012674D02*
X360539Y-5060293D01*
X360539Y-5060293D02*
X351015Y-5098389D01*
X351015Y-5098389D02*
X341491Y-5117436D01*
X341491Y-5117436D02*
X331967Y-5126960D01*
X331967Y-5126960D02*
X312920Y-5136484D01*
X312920Y-5136484D02*
X293872Y-5136484D01*
X293872Y-5136484D02*
X274824Y-5126960D01*
X274824Y-5126960D02*
X265301Y-5117436D01*
X265301Y-5117436D02*
X255777Y-5098389D01*
X255777Y-5098389D02*
X246253Y-5060293D01*
X246253Y-5060293D02*
X246253Y-5012674D01*
X246253Y-5012674D02*
X255777Y-4974579D01*
X255777Y-4974579D02*
X265301Y-4955531D01*
X265301Y-4955531D02*
X274824Y-4946008D01*
X274824Y-4946008D02*
X293872Y-4936484D01*
X446253Y-5117436D02*
X455777Y-5126960D01*
X455777Y-5126960D02*
X446253Y-5136484D01*
X446253Y-5136484D02*
X436729Y-5126960D01*
X436729Y-5126960D02*
X446253Y-5117436D01*
X446253Y-5117436D02*
X446253Y-5136484D01*
X522443Y-4936484D02*
X646253Y-4936484D01*
X646253Y-4936484D02*
X579586Y-5012674D01*
X579586Y-5012674D02*
X608158Y-5012674D01*
X608158Y-5012674D02*
X627205Y-5022198D01*
X627205Y-5022198D02*
X636729Y-5031722D01*
X636729Y-5031722D02*
X646253Y-5050770D01*
X646253Y-5050770D02*
X646253Y-5098389D01*
X646253Y-5098389D02*
X636729Y-5117436D01*
X636729Y-5117436D02*
X627205Y-5126960D01*
X627205Y-5126960D02*
X608158Y-5136484D01*
X608158Y-5136484D02*
X551015Y-5136484D01*
X551015Y-5136484D02*
X531967Y-5126960D01*
X531967Y-5126960D02*
X522443Y-5117436D01*
X770062Y-4936484D02*
X789110Y-4936484D01*
X789110Y-4936484D02*
X808158Y-4946008D01*
X808158Y-4946008D02*
X817682Y-4955531D01*
X817682Y-4955531D02*
X827205Y-4974579D01*
X827205Y-4974579D02*
X836729Y-5012674D01*
X836729Y-5012674D02*
X836729Y-5060293D01*
X836729Y-5060293D02*
X827205Y-5098389D01*
X827205Y-5098389D02*
X817682Y-5117436D01*
X817682Y-5117436D02*
X808158Y-5126960D01*
X808158Y-5126960D02*
X789110Y-5136484D01*
X789110Y-5136484D02*
X770062Y-5136484D01*
X770062Y-5136484D02*
X751015Y-5126960D01*
X751015Y-5126960D02*
X741491Y-5117436D01*
X741491Y-5117436D02*
X731967Y-5098389D01*
X731967Y-5098389D02*
X722443Y-5060293D01*
X722443Y-5060293D02*
X722443Y-5012674D01*
X722443Y-5012674D02*
X731967Y-4974579D01*
X731967Y-4974579D02*
X741491Y-4955531D01*
X741491Y-4955531D02*
X751015Y-4946008D01*
X751015Y-4946008D02*
X770062Y-4936484D01*
X960539Y-4936484D02*
X979586Y-4936484D01*
X979586Y-4936484D02*
X998634Y-4946008D01*
X998634Y-4946008D02*
X1008158Y-4955531D01*
X1008158Y-4955531D02*
X1017682Y-4974579D01*
X1017682Y-4974579D02*
X1027205Y-5012674D01*
X1027205Y-5012674D02*
X1027205Y-5060293D01*
X1027205Y-5060293D02*
X1017682Y-5098389D01*
X1017682Y-5098389D02*
X1008158Y-5117436D01*
X1008158Y-5117436D02*
X998634Y-5126960D01*
X998634Y-5126960D02*
X979586Y-5136484D01*
X979586Y-5136484D02*
X960539Y-5136484D01*
X960539Y-5136484D02*
X941491Y-5126960D01*
X941491Y-5126960D02*
X931967Y-5117436D01*
X931967Y-5117436D02*
X922443Y-5098389D01*
X922443Y-5098389D02*
X912920Y-5060293D01*
X912920Y-5060293D02*
X912920Y-5012674D01*
X912920Y-5012674D02*
X922443Y-4974579D01*
X922443Y-4974579D02*
X931967Y-4955531D01*
X931967Y-4955531D02*
X941491Y-4946008D01*
X941491Y-4946008D02*
X960539Y-4936484D01*
X1112920Y-5136484D02*
X1112920Y-5003150D01*
X1112920Y-5022198D02*
X1122444Y-5012674D01*
X1122444Y-5012674D02*
X1141491Y-5003150D01*
X1141491Y-5003150D02*
X1170063Y-5003150D01*
X1170063Y-5003150D02*
X1189110Y-5012674D01*
X1189110Y-5012674D02*
X1198634Y-5031722D01*
X1198634Y-5031722D02*
X1198634Y-5136484D01*
X1198634Y-5031722D02*
X1208158Y-5012674D01*
X1208158Y-5012674D02*
X1227205Y-5003150D01*
X1227205Y-5003150D02*
X1255777Y-5003150D01*
X1255777Y-5003150D02*
X1274825Y-5012674D01*
X1274825Y-5012674D02*
X1284348Y-5031722D01*
X1284348Y-5031722D02*
X1284348Y-5136484D01*
X1379586Y-5136484D02*
X1379586Y-5003150D01*
X1379586Y-5022198D02*
X1389110Y-5012674D01*
X1389110Y-5012674D02*
X1408158Y-5003150D01*
X1408158Y-5003150D02*
X1436729Y-5003150D01*
X1436729Y-5003150D02*
X1455777Y-5012674D01*
X1455777Y-5012674D02*
X1465301Y-5031722D01*
X1465301Y-5031722D02*
X1465301Y-5136484D01*
X1465301Y-5031722D02*
X1474824Y-5012674D01*
X1474824Y-5012674D02*
X1493872Y-5003150D01*
X1493872Y-5003150D02*
X1522443Y-5003150D01*
X1522443Y-5003150D02*
X1541491Y-5012674D01*
X1541491Y-5012674D02*
X1551015Y-5031722D01*
X1551015Y-5031722D02*
X1551015Y-5136484D01*
X1941491Y-4926960D02*
X1770063Y-5184103D01*
X2198634Y-4936484D02*
X2217682Y-4936484D01*
X2217682Y-4936484D02*
X2236729Y-4946008D01*
X2236729Y-4946008D02*
X2246253Y-4955531D01*
X2246253Y-4955531D02*
X2255777Y-4974579D01*
X2255777Y-4974579D02*
X2265301Y-5012674D01*
X2265301Y-5012674D02*
X2265301Y-5060293D01*
X2265301Y-5060293D02*
X2255777Y-5098389D01*
X2255777Y-5098389D02*
X2246253Y-5117436D01*
X2246253Y-5117436D02*
X2236729Y-5126960D01*
X2236729Y-5126960D02*
X2217682Y-5136484D01*
X2217682Y-5136484D02*
X2198634Y-5136484D01*
X2198634Y-5136484D02*
X2179587Y-5126960D01*
X2179587Y-5126960D02*
X2170063Y-5117436D01*
X2170063Y-5117436D02*
X2160539Y-5098389D01*
X2160539Y-5098389D02*
X2151015Y-5060293D01*
X2151015Y-5060293D02*
X2151015Y-5012674D01*
X2151015Y-5012674D02*
X2160539Y-4974579D01*
X2160539Y-4974579D02*
X2170063Y-4955531D01*
X2170063Y-4955531D02*
X2179587Y-4946008D01*
X2179587Y-4946008D02*
X2198634Y-4936484D01*
X2351015Y-5117436D02*
X2360539Y-5126960D01*
X2360539Y-5126960D02*
X2351015Y-5136484D01*
X2351015Y-5136484D02*
X2341491Y-5126960D01*
X2341491Y-5126960D02*
X2351015Y-5117436D01*
X2351015Y-5117436D02*
X2351015Y-5136484D01*
X2484348Y-4936484D02*
X2503396Y-4936484D01*
X2503396Y-4936484D02*
X2522444Y-4946008D01*
X2522444Y-4946008D02*
X2531968Y-4955531D01*
X2531968Y-4955531D02*
X2541491Y-4974579D01*
X2541491Y-4974579D02*
X2551015Y-5012674D01*
X2551015Y-5012674D02*
X2551015Y-5060293D01*
X2551015Y-5060293D02*
X2541491Y-5098389D01*
X2541491Y-5098389D02*
X2531968Y-5117436D01*
X2531968Y-5117436D02*
X2522444Y-5126960D01*
X2522444Y-5126960D02*
X2503396Y-5136484D01*
X2503396Y-5136484D02*
X2484348Y-5136484D01*
X2484348Y-5136484D02*
X2465301Y-5126960D01*
X2465301Y-5126960D02*
X2455777Y-5117436D01*
X2455777Y-5117436D02*
X2446253Y-5098389D01*
X2446253Y-5098389D02*
X2436729Y-5060293D01*
X2436729Y-5060293D02*
X2436729Y-5012674D01*
X2436729Y-5012674D02*
X2446253Y-4974579D01*
X2446253Y-4974579D02*
X2455777Y-4955531D01*
X2455777Y-4955531D02*
X2465301Y-4946008D01*
X2465301Y-4946008D02*
X2484348Y-4936484D01*
X2741491Y-5136484D02*
X2627206Y-5136484D01*
X2684348Y-5136484D02*
X2684348Y-4936484D01*
X2684348Y-4936484D02*
X2665301Y-4965055D01*
X2665301Y-4965055D02*
X2646253Y-4984103D01*
X2646253Y-4984103D02*
X2627206Y-4993627D01*
X2931967Y-5136484D02*
X2817682Y-5136484D01*
X2874825Y-5136484D02*
X2874825Y-4936484D01*
X2874825Y-4936484D02*
X2855777Y-4965055D01*
X2855777Y-4965055D02*
X2836729Y-4984103D01*
X2836729Y-4984103D02*
X2817682Y-4993627D01*
X3046253Y-5022198D02*
X3027206Y-5012674D01*
X3027206Y-5012674D02*
X3017682Y-5003150D01*
X3017682Y-5003150D02*
X3008158Y-4984103D01*
X3008158Y-4984103D02*
X3008158Y-4974579D01*
X3008158Y-4974579D02*
X3017682Y-4955531D01*
X3017682Y-4955531D02*
X3027206Y-4946008D01*
X3027206Y-4946008D02*
X3046253Y-4936484D01*
X3046253Y-4936484D02*
X3084348Y-4936484D01*
X3084348Y-4936484D02*
X3103396Y-4946008D01*
X3103396Y-4946008D02*
X3112920Y-4955531D01*
X3112920Y-4955531D02*
X3122444Y-4974579D01*
X3122444Y-4974579D02*
X3122444Y-4984103D01*
X3122444Y-4984103D02*
X3112920Y-5003150D01*
X3112920Y-5003150D02*
X3103396Y-5012674D01*
X3103396Y-5012674D02*
X3084348Y-5022198D01*
X3084348Y-5022198D02*
X3046253Y-5022198D01*
X3046253Y-5022198D02*
X3027206Y-5031722D01*
X3027206Y-5031722D02*
X3017682Y-5041246D01*
X3017682Y-5041246D02*
X3008158Y-5060293D01*
X3008158Y-5060293D02*
X3008158Y-5098389D01*
X3008158Y-5098389D02*
X3017682Y-5117436D01*
X3017682Y-5117436D02*
X3027206Y-5126960D01*
X3027206Y-5126960D02*
X3046253Y-5136484D01*
X3046253Y-5136484D02*
X3084348Y-5136484D01*
X3084348Y-5136484D02*
X3103396Y-5126960D01*
X3103396Y-5126960D02*
X3112920Y-5117436D01*
X3112920Y-5117436D02*
X3122444Y-5098389D01*
X3122444Y-5098389D02*
X3122444Y-5060293D01*
X3122444Y-5060293D02*
X3112920Y-5041246D01*
X3112920Y-5041246D02*
X3103396Y-5031722D01*
X3103396Y-5031722D02*
X3084348Y-5022198D01*
X3198634Y-4936484D02*
X3198634Y-4974579D01*
X3274825Y-4936484D02*
X3274825Y-4974579D01*
X3570063Y-5212674D02*
X3560539Y-5203150D01*
X3560539Y-5203150D02*
X3541491Y-5174579D01*
X3541491Y-5174579D02*
X3531968Y-5155531D01*
X3531968Y-5155531D02*
X3522444Y-5126960D01*
X3522444Y-5126960D02*
X3512920Y-5079341D01*
X3512920Y-5079341D02*
X3512920Y-5041246D01*
X3512920Y-5041246D02*
X3522444Y-4993627D01*
X3522444Y-4993627D02*
X3531968Y-4965055D01*
X3531968Y-4965055D02*
X3541491Y-4946008D01*
X3541491Y-4946008D02*
X3560539Y-4917436D01*
X3560539Y-4917436D02*
X3570063Y-4907912D01*
X3627206Y-4936484D02*
X3751015Y-4936484D01*
X3751015Y-4936484D02*
X3684348Y-5012674D01*
X3684348Y-5012674D02*
X3712920Y-5012674D01*
X3712920Y-5012674D02*
X3731968Y-5022198D01*
X3731968Y-5022198D02*
X3741491Y-5031722D01*
X3741491Y-5031722D02*
X3751015Y-5050770D01*
X3751015Y-5050770D02*
X3751015Y-5098389D01*
X3751015Y-5098389D02*
X3741491Y-5117436D01*
X3741491Y-5117436D02*
X3731968Y-5126960D01*
X3731968Y-5126960D02*
X3712920Y-5136484D01*
X3712920Y-5136484D02*
X3655777Y-5136484D01*
X3655777Y-5136484D02*
X3636729Y-5126960D01*
X3636729Y-5126960D02*
X3627206Y-5117436D01*
X3989110Y-5136484D02*
X3989110Y-4936484D01*
X4074825Y-5136484D02*
X4074825Y-5031722D01*
X4074825Y-5031722D02*
X4065301Y-5012674D01*
X4065301Y-5012674D02*
X4046253Y-5003150D01*
X4046253Y-5003150D02*
X4017682Y-5003150D01*
X4017682Y-5003150D02*
X3998634Y-5012674D01*
X3998634Y-5012674D02*
X3989110Y-5022198D01*
X4198634Y-5136484D02*
X4179587Y-5126960D01*
X4179587Y-5126960D02*
X4170063Y-5117436D01*
X4170063Y-5117436D02*
X4160539Y-5098389D01*
X4160539Y-5098389D02*
X4160539Y-5041246D01*
X4160539Y-5041246D02*
X4170063Y-5022198D01*
X4170063Y-5022198D02*
X4179587Y-5012674D01*
X4179587Y-5012674D02*
X4198634Y-5003150D01*
X4198634Y-5003150D02*
X4227206Y-5003150D01*
X4227206Y-5003150D02*
X4246253Y-5012674D01*
X4246253Y-5012674D02*
X4255777Y-5022198D01*
X4255777Y-5022198D02*
X4265301Y-5041246D01*
X4265301Y-5041246D02*
X4265301Y-5098389D01*
X4265301Y-5098389D02*
X4255777Y-5117436D01*
X4255777Y-5117436D02*
X4246253Y-5126960D01*
X4246253Y-5126960D02*
X4227206Y-5136484D01*
X4227206Y-5136484D02*
X4198634Y-5136484D01*
X4379587Y-5136484D02*
X4360539Y-5126960D01*
X4360539Y-5126960D02*
X4351015Y-5107912D01*
X4351015Y-5107912D02*
X4351015Y-4936484D01*
X4531968Y-5126960D02*
X4512920Y-5136484D01*
X4512920Y-5136484D02*
X4474825Y-5136484D01*
X4474825Y-5136484D02*
X4455777Y-5126960D01*
X4455777Y-5126960D02*
X4446253Y-5107912D01*
X4446253Y-5107912D02*
X4446253Y-5031722D01*
X4446253Y-5031722D02*
X4455777Y-5012674D01*
X4455777Y-5012674D02*
X4474825Y-5003150D01*
X4474825Y-5003150D02*
X4512920Y-5003150D01*
X4512920Y-5003150D02*
X4531968Y-5012674D01*
X4531968Y-5012674D02*
X4541492Y-5031722D01*
X4541492Y-5031722D02*
X4541492Y-5050770D01*
X4541492Y-5050770D02*
X4446253Y-5069817D01*
X4617682Y-5126960D02*
X4636730Y-5136484D01*
X4636730Y-5136484D02*
X4674825Y-5136484D01*
X4674825Y-5136484D02*
X4693873Y-5126960D01*
X4693873Y-5126960D02*
X4703396Y-5107912D01*
X4703396Y-5107912D02*
X4703396Y-5098389D01*
X4703396Y-5098389D02*
X4693873Y-5079341D01*
X4693873Y-5079341D02*
X4674825Y-5069817D01*
X4674825Y-5069817D02*
X4646253Y-5069817D01*
X4646253Y-5069817D02*
X4627206Y-5060293D01*
X4627206Y-5060293D02*
X4617682Y-5041246D01*
X4617682Y-5041246D02*
X4617682Y-5031722D01*
X4617682Y-5031722D02*
X4627206Y-5012674D01*
X4627206Y-5012674D02*
X4646253Y-5003150D01*
X4646253Y-5003150D02*
X4674825Y-5003150D01*
X4674825Y-5003150D02*
X4693873Y-5012674D01*
X4770063Y-5212674D02*
X4779587Y-5203150D01*
X4779587Y-5203150D02*
X4798634Y-5174579D01*
X4798634Y-5174579D02*
X4808158Y-5155531D01*
X4808158Y-5155531D02*
X4817682Y-5126960D01*
X4817682Y-5126960D02*
X4827206Y-5079341D01*
X4827206Y-5079341D02*
X4827206Y-5041246D01*
X4827206Y-5041246D02*
X4817682Y-4993627D01*
X4817682Y-4993627D02*
X4808158Y-4965055D01*
X4808158Y-4965055D02*
X4798634Y-4946008D01*
X4798634Y-4946008D02*
X4779587Y-4917436D01*
X4779587Y-4917436D02*
X4770063Y-4907912D01*
D10*
X-5000Y-5309000D02*
G75*
G02*
X-105000Y-5309000I-50000J0D01*
G01*
X-105000Y-5309000D02*
G75*
G02*
X-5000Y-5309000I50000J0D01*
G01*
D11*
X360539Y-5400484D02*
X246253Y-5400484D01*
X303396Y-5400484D02*
X303396Y-5200484D01*
X303396Y-5200484D02*
X284348Y-5229055D01*
X284348Y-5229055D02*
X265301Y-5248103D01*
X265301Y-5248103D02*
X246253Y-5257627D01*
X446253Y-5381436D02*
X455777Y-5390960D01*
X455777Y-5390960D02*
X446253Y-5400484D01*
X446253Y-5400484D02*
X436729Y-5390960D01*
X436729Y-5390960D02*
X446253Y-5381436D01*
X446253Y-5381436D02*
X446253Y-5400484D01*
X579586Y-5200484D02*
X598634Y-5200484D01*
X598634Y-5200484D02*
X617682Y-5210008D01*
X617682Y-5210008D02*
X627205Y-5219531D01*
X627205Y-5219531D02*
X636729Y-5238579D01*
X636729Y-5238579D02*
X646253Y-5276674D01*
X646253Y-5276674D02*
X646253Y-5324293D01*
X646253Y-5324293D02*
X636729Y-5362389D01*
X636729Y-5362389D02*
X627205Y-5381436D01*
X627205Y-5381436D02*
X617682Y-5390960D01*
X617682Y-5390960D02*
X598634Y-5400484D01*
X598634Y-5400484D02*
X579586Y-5400484D01*
X579586Y-5400484D02*
X560539Y-5390960D01*
X560539Y-5390960D02*
X551015Y-5381436D01*
X551015Y-5381436D02*
X541491Y-5362389D01*
X541491Y-5362389D02*
X531967Y-5324293D01*
X531967Y-5324293D02*
X531967Y-5276674D01*
X531967Y-5276674D02*
X541491Y-5238579D01*
X541491Y-5238579D02*
X551015Y-5219531D01*
X551015Y-5219531D02*
X560539Y-5210008D01*
X560539Y-5210008D02*
X579586Y-5200484D01*
X770062Y-5200484D02*
X789110Y-5200484D01*
X789110Y-5200484D02*
X808158Y-5210008D01*
X808158Y-5210008D02*
X817682Y-5219531D01*
X817682Y-5219531D02*
X827205Y-5238579D01*
X827205Y-5238579D02*
X836729Y-5276674D01*
X836729Y-5276674D02*
X836729Y-5324293D01*
X836729Y-5324293D02*
X827205Y-5362389D01*
X827205Y-5362389D02*
X817682Y-5381436D01*
X817682Y-5381436D02*
X808158Y-5390960D01*
X808158Y-5390960D02*
X789110Y-5400484D01*
X789110Y-5400484D02*
X770062Y-5400484D01*
X770062Y-5400484D02*
X751015Y-5390960D01*
X751015Y-5390960D02*
X741491Y-5381436D01*
X741491Y-5381436D02*
X731967Y-5362389D01*
X731967Y-5362389D02*
X722443Y-5324293D01*
X722443Y-5324293D02*
X722443Y-5276674D01*
X722443Y-5276674D02*
X731967Y-5238579D01*
X731967Y-5238579D02*
X741491Y-5219531D01*
X741491Y-5219531D02*
X751015Y-5210008D01*
X751015Y-5210008D02*
X770062Y-5200484D01*
X960539Y-5200484D02*
X979586Y-5200484D01*
X979586Y-5200484D02*
X998634Y-5210008D01*
X998634Y-5210008D02*
X1008158Y-5219531D01*
X1008158Y-5219531D02*
X1017682Y-5238579D01*
X1017682Y-5238579D02*
X1027205Y-5276674D01*
X1027205Y-5276674D02*
X1027205Y-5324293D01*
X1027205Y-5324293D02*
X1017682Y-5362389D01*
X1017682Y-5362389D02*
X1008158Y-5381436D01*
X1008158Y-5381436D02*
X998634Y-5390960D01*
X998634Y-5390960D02*
X979586Y-5400484D01*
X979586Y-5400484D02*
X960539Y-5400484D01*
X960539Y-5400484D02*
X941491Y-5390960D01*
X941491Y-5390960D02*
X931967Y-5381436D01*
X931967Y-5381436D02*
X922443Y-5362389D01*
X922443Y-5362389D02*
X912920Y-5324293D01*
X912920Y-5324293D02*
X912920Y-5276674D01*
X912920Y-5276674D02*
X922443Y-5238579D01*
X922443Y-5238579D02*
X931967Y-5219531D01*
X931967Y-5219531D02*
X941491Y-5210008D01*
X941491Y-5210008D02*
X960539Y-5200484D01*
X1112920Y-5400484D02*
X1112920Y-5267150D01*
X1112920Y-5286198D02*
X1122444Y-5276674D01*
X1122444Y-5276674D02*
X1141491Y-5267150D01*
X1141491Y-5267150D02*
X1170063Y-5267150D01*
X1170063Y-5267150D02*
X1189110Y-5276674D01*
X1189110Y-5276674D02*
X1198634Y-5295722D01*
X1198634Y-5295722D02*
X1198634Y-5400484D01*
X1198634Y-5295722D02*
X1208158Y-5276674D01*
X1208158Y-5276674D02*
X1227205Y-5267150D01*
X1227205Y-5267150D02*
X1255777Y-5267150D01*
X1255777Y-5267150D02*
X1274825Y-5276674D01*
X1274825Y-5276674D02*
X1284348Y-5295722D01*
X1284348Y-5295722D02*
X1284348Y-5400484D01*
X1379586Y-5400484D02*
X1379586Y-5267150D01*
X1379586Y-5286198D02*
X1389110Y-5276674D01*
X1389110Y-5276674D02*
X1408158Y-5267150D01*
X1408158Y-5267150D02*
X1436729Y-5267150D01*
X1436729Y-5267150D02*
X1455777Y-5276674D01*
X1455777Y-5276674D02*
X1465301Y-5295722D01*
X1465301Y-5295722D02*
X1465301Y-5400484D01*
X1465301Y-5295722D02*
X1474824Y-5276674D01*
X1474824Y-5276674D02*
X1493872Y-5267150D01*
X1493872Y-5267150D02*
X1522443Y-5267150D01*
X1522443Y-5267150D02*
X1541491Y-5276674D01*
X1541491Y-5276674D02*
X1551015Y-5295722D01*
X1551015Y-5295722D02*
X1551015Y-5400484D01*
X1941491Y-5190960D02*
X1770063Y-5448103D01*
X2198634Y-5200484D02*
X2217682Y-5200484D01*
X2217682Y-5200484D02*
X2236729Y-5210008D01*
X2236729Y-5210008D02*
X2246253Y-5219531D01*
X2246253Y-5219531D02*
X2255777Y-5238579D01*
X2255777Y-5238579D02*
X2265301Y-5276674D01*
X2265301Y-5276674D02*
X2265301Y-5324293D01*
X2265301Y-5324293D02*
X2255777Y-5362389D01*
X2255777Y-5362389D02*
X2246253Y-5381436D01*
X2246253Y-5381436D02*
X2236729Y-5390960D01*
X2236729Y-5390960D02*
X2217682Y-5400484D01*
X2217682Y-5400484D02*
X2198634Y-5400484D01*
X2198634Y-5400484D02*
X2179587Y-5390960D01*
X2179587Y-5390960D02*
X2170063Y-5381436D01*
X2170063Y-5381436D02*
X2160539Y-5362389D01*
X2160539Y-5362389D02*
X2151015Y-5324293D01*
X2151015Y-5324293D02*
X2151015Y-5276674D01*
X2151015Y-5276674D02*
X2160539Y-5238579D01*
X2160539Y-5238579D02*
X2170063Y-5219531D01*
X2170063Y-5219531D02*
X2179587Y-5210008D01*
X2179587Y-5210008D02*
X2198634Y-5200484D01*
X2351015Y-5381436D02*
X2360539Y-5390960D01*
X2360539Y-5390960D02*
X2351015Y-5400484D01*
X2351015Y-5400484D02*
X2341491Y-5390960D01*
X2341491Y-5390960D02*
X2351015Y-5381436D01*
X2351015Y-5381436D02*
X2351015Y-5400484D01*
X2484348Y-5200484D02*
X2503396Y-5200484D01*
X2503396Y-5200484D02*
X2522444Y-5210008D01*
X2522444Y-5210008D02*
X2531968Y-5219531D01*
X2531968Y-5219531D02*
X2541491Y-5238579D01*
X2541491Y-5238579D02*
X2551015Y-5276674D01*
X2551015Y-5276674D02*
X2551015Y-5324293D01*
X2551015Y-5324293D02*
X2541491Y-5362389D01*
X2541491Y-5362389D02*
X2531968Y-5381436D01*
X2531968Y-5381436D02*
X2522444Y-5390960D01*
X2522444Y-5390960D02*
X2503396Y-5400484D01*
X2503396Y-5400484D02*
X2484348Y-5400484D01*
X2484348Y-5400484D02*
X2465301Y-5390960D01*
X2465301Y-5390960D02*
X2455777Y-5381436D01*
X2455777Y-5381436D02*
X2446253Y-5362389D01*
X2446253Y-5362389D02*
X2436729Y-5324293D01*
X2436729Y-5324293D02*
X2436729Y-5276674D01*
X2436729Y-5276674D02*
X2446253Y-5238579D01*
X2446253Y-5238579D02*
X2455777Y-5219531D01*
X2455777Y-5219531D02*
X2465301Y-5210008D01*
X2465301Y-5210008D02*
X2484348Y-5200484D01*
X2617682Y-5200484D02*
X2741491Y-5200484D01*
X2741491Y-5200484D02*
X2674825Y-5276674D01*
X2674825Y-5276674D02*
X2703396Y-5276674D01*
X2703396Y-5276674D02*
X2722444Y-5286198D01*
X2722444Y-5286198D02*
X2731968Y-5295722D01*
X2731968Y-5295722D02*
X2741491Y-5314770D01*
X2741491Y-5314770D02*
X2741491Y-5362389D01*
X2741491Y-5362389D02*
X2731968Y-5381436D01*
X2731968Y-5381436D02*
X2722444Y-5390960D01*
X2722444Y-5390960D02*
X2703396Y-5400484D01*
X2703396Y-5400484D02*
X2646253Y-5400484D01*
X2646253Y-5400484D02*
X2627206Y-5390960D01*
X2627206Y-5390960D02*
X2617682Y-5381436D01*
X2836729Y-5400484D02*
X2874825Y-5400484D01*
X2874825Y-5400484D02*
X2893872Y-5390960D01*
X2893872Y-5390960D02*
X2903396Y-5381436D01*
X2903396Y-5381436D02*
X2922444Y-5352865D01*
X2922444Y-5352865D02*
X2931967Y-5314770D01*
X2931967Y-5314770D02*
X2931967Y-5238579D01*
X2931967Y-5238579D02*
X2922444Y-5219531D01*
X2922444Y-5219531D02*
X2912920Y-5210008D01*
X2912920Y-5210008D02*
X2893872Y-5200484D01*
X2893872Y-5200484D02*
X2855777Y-5200484D01*
X2855777Y-5200484D02*
X2836729Y-5210008D01*
X2836729Y-5210008D02*
X2827206Y-5219531D01*
X2827206Y-5219531D02*
X2817682Y-5238579D01*
X2817682Y-5238579D02*
X2817682Y-5286198D01*
X2817682Y-5286198D02*
X2827206Y-5305246D01*
X2827206Y-5305246D02*
X2836729Y-5314770D01*
X2836729Y-5314770D02*
X2855777Y-5324293D01*
X2855777Y-5324293D02*
X2893872Y-5324293D01*
X2893872Y-5324293D02*
X2912920Y-5314770D01*
X2912920Y-5314770D02*
X2922444Y-5305246D01*
X2922444Y-5305246D02*
X2931967Y-5286198D01*
X3103396Y-5267150D02*
X3103396Y-5400484D01*
X3055777Y-5190960D02*
X3008158Y-5333817D01*
X3008158Y-5333817D02*
X3131967Y-5333817D01*
X3198634Y-5200484D02*
X3198634Y-5238579D01*
X3274825Y-5200484D02*
X3274825Y-5238579D01*
X3570063Y-5476674D02*
X3560539Y-5467150D01*
X3560539Y-5467150D02*
X3541491Y-5438579D01*
X3541491Y-5438579D02*
X3531968Y-5419531D01*
X3531968Y-5419531D02*
X3522444Y-5390960D01*
X3522444Y-5390960D02*
X3512920Y-5343341D01*
X3512920Y-5343341D02*
X3512920Y-5305246D01*
X3512920Y-5305246D02*
X3522444Y-5257627D01*
X3522444Y-5257627D02*
X3531968Y-5229055D01*
X3531968Y-5229055D02*
X3541491Y-5210008D01*
X3541491Y-5210008D02*
X3560539Y-5181436D01*
X3560539Y-5181436D02*
X3570063Y-5171912D01*
X3741491Y-5200484D02*
X3646253Y-5200484D01*
X3646253Y-5200484D02*
X3636729Y-5295722D01*
X3636729Y-5295722D02*
X3646253Y-5286198D01*
X3646253Y-5286198D02*
X3665301Y-5276674D01*
X3665301Y-5276674D02*
X3712920Y-5276674D01*
X3712920Y-5276674D02*
X3731968Y-5286198D01*
X3731968Y-5286198D02*
X3741491Y-5295722D01*
X3741491Y-5295722D02*
X3751015Y-5314770D01*
X3751015Y-5314770D02*
X3751015Y-5362389D01*
X3751015Y-5362389D02*
X3741491Y-5381436D01*
X3741491Y-5381436D02*
X3731968Y-5390960D01*
X3731968Y-5390960D02*
X3712920Y-5400484D01*
X3712920Y-5400484D02*
X3665301Y-5400484D01*
X3665301Y-5400484D02*
X3646253Y-5390960D01*
X3646253Y-5390960D02*
X3636729Y-5381436D01*
X3922444Y-5200484D02*
X3884348Y-5200484D01*
X3884348Y-5200484D02*
X3865301Y-5210008D01*
X3865301Y-5210008D02*
X3855777Y-5219531D01*
X3855777Y-5219531D02*
X3836729Y-5248103D01*
X3836729Y-5248103D02*
X3827206Y-5286198D01*
X3827206Y-5286198D02*
X3827206Y-5362389D01*
X3827206Y-5362389D02*
X3836729Y-5381436D01*
X3836729Y-5381436D02*
X3846253Y-5390960D01*
X3846253Y-5390960D02*
X3865301Y-5400484D01*
X3865301Y-5400484D02*
X3903396Y-5400484D01*
X3903396Y-5400484D02*
X3922444Y-5390960D01*
X3922444Y-5390960D02*
X3931968Y-5381436D01*
X3931968Y-5381436D02*
X3941491Y-5362389D01*
X3941491Y-5362389D02*
X3941491Y-5314770D01*
X3941491Y-5314770D02*
X3931968Y-5295722D01*
X3931968Y-5295722D02*
X3922444Y-5286198D01*
X3922444Y-5286198D02*
X3903396Y-5276674D01*
X3903396Y-5276674D02*
X3865301Y-5276674D01*
X3865301Y-5276674D02*
X3846253Y-5286198D01*
X3846253Y-5286198D02*
X3836729Y-5295722D01*
X3836729Y-5295722D02*
X3827206Y-5314770D01*
X4179587Y-5400484D02*
X4179587Y-5200484D01*
X4265301Y-5400484D02*
X4265301Y-5295722D01*
X4265301Y-5295722D02*
X4255777Y-5276674D01*
X4255777Y-5276674D02*
X4236730Y-5267150D01*
X4236730Y-5267150D02*
X4208158Y-5267150D01*
X4208158Y-5267150D02*
X4189110Y-5276674D01*
X4189110Y-5276674D02*
X4179587Y-5286198D01*
X4389111Y-5400484D02*
X4370063Y-5390960D01*
X4370063Y-5390960D02*
X4360539Y-5381436D01*
X4360539Y-5381436D02*
X4351015Y-5362389D01*
X4351015Y-5362389D02*
X4351015Y-5305246D01*
X4351015Y-5305246D02*
X4360539Y-5286198D01*
X4360539Y-5286198D02*
X4370063Y-5276674D01*
X4370063Y-5276674D02*
X4389111Y-5267150D01*
X4389111Y-5267150D02*
X4417682Y-5267150D01*
X4417682Y-5267150D02*
X4436730Y-5276674D01*
X4436730Y-5276674D02*
X4446253Y-5286198D01*
X4446253Y-5286198D02*
X4455777Y-5305246D01*
X4455777Y-5305246D02*
X4455777Y-5362389D01*
X4455777Y-5362389D02*
X4446253Y-5381436D01*
X4446253Y-5381436D02*
X4436730Y-5390960D01*
X4436730Y-5390960D02*
X4417682Y-5400484D01*
X4417682Y-5400484D02*
X4389111Y-5400484D01*
X4570063Y-5400484D02*
X4551015Y-5390960D01*
X4551015Y-5390960D02*
X4541492Y-5371912D01*
X4541492Y-5371912D02*
X4541492Y-5200484D01*
X4722444Y-5390960D02*
X4703396Y-5400484D01*
X4703396Y-5400484D02*
X4665301Y-5400484D01*
X4665301Y-5400484D02*
X4646253Y-5390960D01*
X4646253Y-5390960D02*
X4636730Y-5371912D01*
X4636730Y-5371912D02*
X4636730Y-5295722D01*
X4636730Y-5295722D02*
X4646253Y-5276674D01*
X4646253Y-5276674D02*
X4665301Y-5267150D01*
X4665301Y-5267150D02*
X4703396Y-5267150D01*
X4703396Y-5267150D02*
X4722444Y-5276674D01*
X4722444Y-5276674D02*
X4731968Y-5295722D01*
X4731968Y-5295722D02*
X4731968Y-5314770D01*
X4731968Y-5314770D02*
X4636730Y-5333817D01*
X4808158Y-5390960D02*
X4827206Y-5400484D01*
X4827206Y-5400484D02*
X4865301Y-5400484D01*
X4865301Y-5400484D02*
X4884349Y-5390960D01*
X4884349Y-5390960D02*
X4893873Y-5371912D01*
X4893873Y-5371912D02*
X4893873Y-5362389D01*
X4893873Y-5362389D02*
X4884349Y-5343341D01*
X4884349Y-5343341D02*
X4865301Y-5333817D01*
X4865301Y-5333817D02*
X4836730Y-5333817D01*
X4836730Y-5333817D02*
X4817682Y-5324293D01*
X4817682Y-5324293D02*
X4808158Y-5305246D01*
X4808158Y-5305246D02*
X4808158Y-5295722D01*
X4808158Y-5295722D02*
X4817682Y-5276674D01*
X4817682Y-5276674D02*
X4836730Y-5267150D01*
X4836730Y-5267150D02*
X4865301Y-5267150D01*
X4865301Y-5267150D02*
X4884349Y-5276674D01*
X4960539Y-5476674D02*
X4970063Y-5467150D01*
X4970063Y-5467150D02*
X4989111Y-5438579D01*
X4989111Y-5438579D02*
X4998634Y-5419531D01*
X4998634Y-5419531D02*
X5008158Y-5390960D01*
X5008158Y-5390960D02*
X5017682Y-5343341D01*
X5017682Y-5343341D02*
X5017682Y-5305246D01*
X5017682Y-5305246D02*
X5008158Y-5257627D01*
X5008158Y-5257627D02*
X4998634Y-5229055D01*
X4998634Y-5229055D02*
X4989111Y-5210008D01*
X4989111Y-5210008D02*
X4970063Y-5181436D01*
X4970063Y-5181436D02*
X4960539Y-5171912D01*
X-105000Y-5473000D02*
X-105000Y-5673000D01*
X-205000Y-5573000D02*
X-5000Y-5573000D01*
X246253Y-5483531D02*
X255777Y-5474008D01*
X255777Y-5474008D02*
X274824Y-5464484D01*
X274824Y-5464484D02*
X322444Y-5464484D01*
X322444Y-5464484D02*
X341491Y-5474008D01*
X341491Y-5474008D02*
X351015Y-5483531D01*
X351015Y-5483531D02*
X360539Y-5502579D01*
X360539Y-5502579D02*
X360539Y-5521627D01*
X360539Y-5521627D02*
X351015Y-5550198D01*
X351015Y-5550198D02*
X236729Y-5664484D01*
X236729Y-5664484D02*
X360539Y-5664484D01*
X446253Y-5645436D02*
X455777Y-5654960D01*
X455777Y-5654960D02*
X446253Y-5664484D01*
X446253Y-5664484D02*
X436729Y-5654960D01*
X436729Y-5654960D02*
X446253Y-5645436D01*
X446253Y-5645436D02*
X446253Y-5664484D01*
X531967Y-5483531D02*
X541491Y-5474008D01*
X541491Y-5474008D02*
X560539Y-5464484D01*
X560539Y-5464484D02*
X608158Y-5464484D01*
X608158Y-5464484D02*
X627205Y-5474008D01*
X627205Y-5474008D02*
X636729Y-5483531D01*
X636729Y-5483531D02*
X646253Y-5502579D01*
X646253Y-5502579D02*
X646253Y-5521627D01*
X646253Y-5521627D02*
X636729Y-5550198D01*
X636729Y-5550198D02*
X522443Y-5664484D01*
X522443Y-5664484D02*
X646253Y-5664484D01*
X770062Y-5464484D02*
X789110Y-5464484D01*
X789110Y-5464484D02*
X808158Y-5474008D01*
X808158Y-5474008D02*
X817682Y-5483531D01*
X817682Y-5483531D02*
X827205Y-5502579D01*
X827205Y-5502579D02*
X836729Y-5540674D01*
X836729Y-5540674D02*
X836729Y-5588293D01*
X836729Y-5588293D02*
X827205Y-5626388D01*
X827205Y-5626388D02*
X817682Y-5645436D01*
X817682Y-5645436D02*
X808158Y-5654960D01*
X808158Y-5654960D02*
X789110Y-5664484D01*
X789110Y-5664484D02*
X770062Y-5664484D01*
X770062Y-5664484D02*
X751015Y-5654960D01*
X751015Y-5654960D02*
X741491Y-5645436D01*
X741491Y-5645436D02*
X731967Y-5626388D01*
X731967Y-5626388D02*
X722443Y-5588293D01*
X722443Y-5588293D02*
X722443Y-5540674D01*
X722443Y-5540674D02*
X731967Y-5502579D01*
X731967Y-5502579D02*
X741491Y-5483531D01*
X741491Y-5483531D02*
X751015Y-5474008D01*
X751015Y-5474008D02*
X770062Y-5464484D01*
X960539Y-5464484D02*
X979586Y-5464484D01*
X979586Y-5464484D02*
X998634Y-5474008D01*
X998634Y-5474008D02*
X1008158Y-5483531D01*
X1008158Y-5483531D02*
X1017682Y-5502579D01*
X1017682Y-5502579D02*
X1027205Y-5540674D01*
X1027205Y-5540674D02*
X1027205Y-5588293D01*
X1027205Y-5588293D02*
X1017682Y-5626388D01*
X1017682Y-5626388D02*
X1008158Y-5645436D01*
X1008158Y-5645436D02*
X998634Y-5654960D01*
X998634Y-5654960D02*
X979586Y-5664484D01*
X979586Y-5664484D02*
X960539Y-5664484D01*
X960539Y-5664484D02*
X941491Y-5654960D01*
X941491Y-5654960D02*
X931967Y-5645436D01*
X931967Y-5645436D02*
X922443Y-5626388D01*
X922443Y-5626388D02*
X912920Y-5588293D01*
X912920Y-5588293D02*
X912920Y-5540674D01*
X912920Y-5540674D02*
X922443Y-5502579D01*
X922443Y-5502579D02*
X931967Y-5483531D01*
X931967Y-5483531D02*
X941491Y-5474008D01*
X941491Y-5474008D02*
X960539Y-5464484D01*
X1112920Y-5664484D02*
X1112920Y-5531150D01*
X1112920Y-5550198D02*
X1122444Y-5540674D01*
X1122444Y-5540674D02*
X1141491Y-5531150D01*
X1141491Y-5531150D02*
X1170063Y-5531150D01*
X1170063Y-5531150D02*
X1189110Y-5540674D01*
X1189110Y-5540674D02*
X1198634Y-5559722D01*
X1198634Y-5559722D02*
X1198634Y-5664484D01*
X1198634Y-5559722D02*
X1208158Y-5540674D01*
X1208158Y-5540674D02*
X1227205Y-5531150D01*
X1227205Y-5531150D02*
X1255777Y-5531150D01*
X1255777Y-5531150D02*
X1274825Y-5540674D01*
X1274825Y-5540674D02*
X1284348Y-5559722D01*
X1284348Y-5559722D02*
X1284348Y-5664484D01*
X1379586Y-5664484D02*
X1379586Y-5531150D01*
X1379586Y-5550198D02*
X1389110Y-5540674D01*
X1389110Y-5540674D02*
X1408158Y-5531150D01*
X1408158Y-5531150D02*
X1436729Y-5531150D01*
X1436729Y-5531150D02*
X1455777Y-5540674D01*
X1455777Y-5540674D02*
X1465301Y-5559722D01*
X1465301Y-5559722D02*
X1465301Y-5664484D01*
X1465301Y-5559722D02*
X1474824Y-5540674D01*
X1474824Y-5540674D02*
X1493872Y-5531150D01*
X1493872Y-5531150D02*
X1522443Y-5531150D01*
X1522443Y-5531150D02*
X1541491Y-5540674D01*
X1541491Y-5540674D02*
X1551015Y-5559722D01*
X1551015Y-5559722D02*
X1551015Y-5664484D01*
X1941491Y-5454960D02*
X1770063Y-5712103D01*
X2198634Y-5464484D02*
X2217682Y-5464484D01*
X2217682Y-5464484D02*
X2236729Y-5474008D01*
X2236729Y-5474008D02*
X2246253Y-5483531D01*
X2246253Y-5483531D02*
X2255777Y-5502579D01*
X2255777Y-5502579D02*
X2265301Y-5540674D01*
X2265301Y-5540674D02*
X2265301Y-5588293D01*
X2265301Y-5588293D02*
X2255777Y-5626388D01*
X2255777Y-5626388D02*
X2246253Y-5645436D01*
X2246253Y-5645436D02*
X2236729Y-5654960D01*
X2236729Y-5654960D02*
X2217682Y-5664484D01*
X2217682Y-5664484D02*
X2198634Y-5664484D01*
X2198634Y-5664484D02*
X2179587Y-5654960D01*
X2179587Y-5654960D02*
X2170063Y-5645436D01*
X2170063Y-5645436D02*
X2160539Y-5626388D01*
X2160539Y-5626388D02*
X2151015Y-5588293D01*
X2151015Y-5588293D02*
X2151015Y-5540674D01*
X2151015Y-5540674D02*
X2160539Y-5502579D01*
X2160539Y-5502579D02*
X2170063Y-5483531D01*
X2170063Y-5483531D02*
X2179587Y-5474008D01*
X2179587Y-5474008D02*
X2198634Y-5464484D01*
X2351015Y-5645436D02*
X2360539Y-5654960D01*
X2360539Y-5654960D02*
X2351015Y-5664484D01*
X2351015Y-5664484D02*
X2341491Y-5654960D01*
X2341491Y-5654960D02*
X2351015Y-5645436D01*
X2351015Y-5645436D02*
X2351015Y-5664484D01*
X2484348Y-5464484D02*
X2503396Y-5464484D01*
X2503396Y-5464484D02*
X2522444Y-5474008D01*
X2522444Y-5474008D02*
X2531968Y-5483531D01*
X2531968Y-5483531D02*
X2541491Y-5502579D01*
X2541491Y-5502579D02*
X2551015Y-5540674D01*
X2551015Y-5540674D02*
X2551015Y-5588293D01*
X2551015Y-5588293D02*
X2541491Y-5626388D01*
X2541491Y-5626388D02*
X2531968Y-5645436D01*
X2531968Y-5645436D02*
X2522444Y-5654960D01*
X2522444Y-5654960D02*
X2503396Y-5664484D01*
X2503396Y-5664484D02*
X2484348Y-5664484D01*
X2484348Y-5664484D02*
X2465301Y-5654960D01*
X2465301Y-5654960D02*
X2455777Y-5645436D01*
X2455777Y-5645436D02*
X2446253Y-5626388D01*
X2446253Y-5626388D02*
X2436729Y-5588293D01*
X2436729Y-5588293D02*
X2436729Y-5540674D01*
X2436729Y-5540674D02*
X2446253Y-5502579D01*
X2446253Y-5502579D02*
X2455777Y-5483531D01*
X2455777Y-5483531D02*
X2465301Y-5474008D01*
X2465301Y-5474008D02*
X2484348Y-5464484D01*
X2665301Y-5550198D02*
X2646253Y-5540674D01*
X2646253Y-5540674D02*
X2636729Y-5531150D01*
X2636729Y-5531150D02*
X2627206Y-5512103D01*
X2627206Y-5512103D02*
X2627206Y-5502579D01*
X2627206Y-5502579D02*
X2636729Y-5483531D01*
X2636729Y-5483531D02*
X2646253Y-5474008D01*
X2646253Y-5474008D02*
X2665301Y-5464484D01*
X2665301Y-5464484D02*
X2703396Y-5464484D01*
X2703396Y-5464484D02*
X2722444Y-5474008D01*
X2722444Y-5474008D02*
X2731968Y-5483531D01*
X2731968Y-5483531D02*
X2741491Y-5502579D01*
X2741491Y-5502579D02*
X2741491Y-5512103D01*
X2741491Y-5512103D02*
X2731968Y-5531150D01*
X2731968Y-5531150D02*
X2722444Y-5540674D01*
X2722444Y-5540674D02*
X2703396Y-5550198D01*
X2703396Y-5550198D02*
X2665301Y-5550198D01*
X2665301Y-5550198D02*
X2646253Y-5559722D01*
X2646253Y-5559722D02*
X2636729Y-5569246D01*
X2636729Y-5569246D02*
X2627206Y-5588293D01*
X2627206Y-5588293D02*
X2627206Y-5626388D01*
X2627206Y-5626388D02*
X2636729Y-5645436D01*
X2636729Y-5645436D02*
X2646253Y-5654960D01*
X2646253Y-5654960D02*
X2665301Y-5664484D01*
X2665301Y-5664484D02*
X2703396Y-5664484D01*
X2703396Y-5664484D02*
X2722444Y-5654960D01*
X2722444Y-5654960D02*
X2731968Y-5645436D01*
X2731968Y-5645436D02*
X2741491Y-5626388D01*
X2741491Y-5626388D02*
X2741491Y-5588293D01*
X2741491Y-5588293D02*
X2731968Y-5569246D01*
X2731968Y-5569246D02*
X2722444Y-5559722D01*
X2722444Y-5559722D02*
X2703396Y-5550198D01*
X2912920Y-5464484D02*
X2874825Y-5464484D01*
X2874825Y-5464484D02*
X2855777Y-5474008D01*
X2855777Y-5474008D02*
X2846253Y-5483531D01*
X2846253Y-5483531D02*
X2827206Y-5512103D01*
X2827206Y-5512103D02*
X2817682Y-5550198D01*
X2817682Y-5550198D02*
X2817682Y-5626388D01*
X2817682Y-5626388D02*
X2827206Y-5645436D01*
X2827206Y-5645436D02*
X2836729Y-5654960D01*
X2836729Y-5654960D02*
X2855777Y-5664484D01*
X2855777Y-5664484D02*
X2893872Y-5664484D01*
X2893872Y-5664484D02*
X2912920Y-5654960D01*
X2912920Y-5654960D02*
X2922444Y-5645436D01*
X2922444Y-5645436D02*
X2931967Y-5626388D01*
X2931967Y-5626388D02*
X2931967Y-5578770D01*
X2931967Y-5578770D02*
X2922444Y-5559722D01*
X2922444Y-5559722D02*
X2912920Y-5550198D01*
X2912920Y-5550198D02*
X2893872Y-5540674D01*
X2893872Y-5540674D02*
X2855777Y-5540674D01*
X2855777Y-5540674D02*
X2836729Y-5550198D01*
X2836729Y-5550198D02*
X2827206Y-5559722D01*
X2827206Y-5559722D02*
X2817682Y-5578770D01*
X3103396Y-5464484D02*
X3065301Y-5464484D01*
X3065301Y-5464484D02*
X3046253Y-5474008D01*
X3046253Y-5474008D02*
X3036729Y-5483531D01*
X3036729Y-5483531D02*
X3017682Y-5512103D01*
X3017682Y-5512103D02*
X3008158Y-5550198D01*
X3008158Y-5550198D02*
X3008158Y-5626388D01*
X3008158Y-5626388D02*
X3017682Y-5645436D01*
X3017682Y-5645436D02*
X3027206Y-5654960D01*
X3027206Y-5654960D02*
X3046253Y-5664484D01*
X3046253Y-5664484D02*
X3084348Y-5664484D01*
X3084348Y-5664484D02*
X3103396Y-5654960D01*
X3103396Y-5654960D02*
X3112920Y-5645436D01*
X3112920Y-5645436D02*
X3122444Y-5626388D01*
X3122444Y-5626388D02*
X3122444Y-5578770D01*
X3122444Y-5578770D02*
X3112920Y-5559722D01*
X3112920Y-5559722D02*
X3103396Y-5550198D01*
X3103396Y-5550198D02*
X3084348Y-5540674D01*
X3084348Y-5540674D02*
X3046253Y-5540674D01*
X3046253Y-5540674D02*
X3027206Y-5550198D01*
X3027206Y-5550198D02*
X3017682Y-5559722D01*
X3017682Y-5559722D02*
X3008158Y-5578770D01*
X3198634Y-5464484D02*
X3198634Y-5502579D01*
X3274825Y-5464484D02*
X3274825Y-5502579D01*
X3570063Y-5740674D02*
X3560539Y-5731150D01*
X3560539Y-5731150D02*
X3541491Y-5702579D01*
X3541491Y-5702579D02*
X3531968Y-5683531D01*
X3531968Y-5683531D02*
X3522444Y-5654960D01*
X3522444Y-5654960D02*
X3512920Y-5607341D01*
X3512920Y-5607341D02*
X3512920Y-5569246D01*
X3512920Y-5569246D02*
X3522444Y-5521627D01*
X3522444Y-5521627D02*
X3531968Y-5493055D01*
X3531968Y-5493055D02*
X3541491Y-5474008D01*
X3541491Y-5474008D02*
X3560539Y-5445436D01*
X3560539Y-5445436D02*
X3570063Y-5435912D01*
X3731968Y-5531150D02*
X3731968Y-5664484D01*
X3684348Y-5454960D02*
X3636729Y-5597817D01*
X3636729Y-5597817D02*
X3760539Y-5597817D01*
X3989110Y-5664484D02*
X3989110Y-5464484D01*
X4074825Y-5664484D02*
X4074825Y-5559722D01*
X4074825Y-5559722D02*
X4065301Y-5540674D01*
X4065301Y-5540674D02*
X4046253Y-5531150D01*
X4046253Y-5531150D02*
X4017682Y-5531150D01*
X4017682Y-5531150D02*
X3998634Y-5540674D01*
X3998634Y-5540674D02*
X3989110Y-5550198D01*
X4198634Y-5664484D02*
X4179587Y-5654960D01*
X4179587Y-5654960D02*
X4170063Y-5645436D01*
X4170063Y-5645436D02*
X4160539Y-5626388D01*
X4160539Y-5626388D02*
X4160539Y-5569246D01*
X4160539Y-5569246D02*
X4170063Y-5550198D01*
X4170063Y-5550198D02*
X4179587Y-5540674D01*
X4179587Y-5540674D02*
X4198634Y-5531150D01*
X4198634Y-5531150D02*
X4227206Y-5531150D01*
X4227206Y-5531150D02*
X4246253Y-5540674D01*
X4246253Y-5540674D02*
X4255777Y-5550198D01*
X4255777Y-5550198D02*
X4265301Y-5569246D01*
X4265301Y-5569246D02*
X4265301Y-5626388D01*
X4265301Y-5626388D02*
X4255777Y-5645436D01*
X4255777Y-5645436D02*
X4246253Y-5654960D01*
X4246253Y-5654960D02*
X4227206Y-5664484D01*
X4227206Y-5664484D02*
X4198634Y-5664484D01*
X4379587Y-5664484D02*
X4360539Y-5654960D01*
X4360539Y-5654960D02*
X4351015Y-5635912D01*
X4351015Y-5635912D02*
X4351015Y-5464484D01*
X4531968Y-5654960D02*
X4512920Y-5664484D01*
X4512920Y-5664484D02*
X4474825Y-5664484D01*
X4474825Y-5664484D02*
X4455777Y-5654960D01*
X4455777Y-5654960D02*
X4446253Y-5635912D01*
X4446253Y-5635912D02*
X4446253Y-5559722D01*
X4446253Y-5559722D02*
X4455777Y-5540674D01*
X4455777Y-5540674D02*
X4474825Y-5531150D01*
X4474825Y-5531150D02*
X4512920Y-5531150D01*
X4512920Y-5531150D02*
X4531968Y-5540674D01*
X4531968Y-5540674D02*
X4541492Y-5559722D01*
X4541492Y-5559722D02*
X4541492Y-5578770D01*
X4541492Y-5578770D02*
X4446253Y-5597817D01*
X4617682Y-5654960D02*
X4636730Y-5664484D01*
X4636730Y-5664484D02*
X4674825Y-5664484D01*
X4674825Y-5664484D02*
X4693873Y-5654960D01*
X4693873Y-5654960D02*
X4703396Y-5635912D01*
X4703396Y-5635912D02*
X4703396Y-5626388D01*
X4703396Y-5626388D02*
X4693873Y-5607341D01*
X4693873Y-5607341D02*
X4674825Y-5597817D01*
X4674825Y-5597817D02*
X4646253Y-5597817D01*
X4646253Y-5597817D02*
X4627206Y-5588293D01*
X4627206Y-5588293D02*
X4617682Y-5569246D01*
X4617682Y-5569246D02*
X4617682Y-5559722D01*
X4617682Y-5559722D02*
X4627206Y-5540674D01*
X4627206Y-5540674D02*
X4646253Y-5531150D01*
X4646253Y-5531150D02*
X4674825Y-5531150D01*
X4674825Y-5531150D02*
X4693873Y-5540674D01*
X4770063Y-5740674D02*
X4779587Y-5731150D01*
X4779587Y-5731150D02*
X4798634Y-5702579D01*
X4798634Y-5702579D02*
X4808158Y-5683531D01*
X4808158Y-5683531D02*
X4817682Y-5654960D01*
X4817682Y-5654960D02*
X4827206Y-5607341D01*
X4827206Y-5607341D02*
X4827206Y-5569246D01*
X4827206Y-5569246D02*
X4817682Y-5521627D01*
X4817682Y-5521627D02*
X4808158Y-5493055D01*
X4808158Y-5493055D02*
X4798634Y-5474008D01*
X4798634Y-5474008D02*
X4779587Y-5445436D01*
X4779587Y-5445436D02*
X4770063Y-5435912D01*
X5131968Y-5740674D02*
X5122444Y-5731150D01*
X5122444Y-5731150D02*
X5103396Y-5702579D01*
X5103396Y-5702579D02*
X5093873Y-5683531D01*
X5093873Y-5683531D02*
X5084349Y-5654960D01*
X5084349Y-5654960D02*
X5074825Y-5607341D01*
X5074825Y-5607341D02*
X5074825Y-5569246D01*
X5074825Y-5569246D02*
X5084349Y-5521627D01*
X5084349Y-5521627D02*
X5093873Y-5493055D01*
X5093873Y-5493055D02*
X5103396Y-5474008D01*
X5103396Y-5474008D02*
X5122444Y-5445436D01*
X5122444Y-5445436D02*
X5131968Y-5435912D01*
X5208158Y-5531150D02*
X5208158Y-5664484D01*
X5208158Y-5550198D02*
X5217682Y-5540674D01*
X5217682Y-5540674D02*
X5236730Y-5531150D01*
X5236730Y-5531150D02*
X5265301Y-5531150D01*
X5265301Y-5531150D02*
X5284349Y-5540674D01*
X5284349Y-5540674D02*
X5293873Y-5559722D01*
X5293873Y-5559722D02*
X5293873Y-5664484D01*
X5417682Y-5664484D02*
X5398634Y-5654960D01*
X5398634Y-5654960D02*
X5389111Y-5645436D01*
X5389111Y-5645436D02*
X5379587Y-5626388D01*
X5379587Y-5626388D02*
X5379587Y-5569246D01*
X5379587Y-5569246D02*
X5389111Y-5550198D01*
X5389111Y-5550198D02*
X5398634Y-5540674D01*
X5398634Y-5540674D02*
X5417682Y-5531150D01*
X5417682Y-5531150D02*
X5446254Y-5531150D01*
X5446254Y-5531150D02*
X5465301Y-5540674D01*
X5465301Y-5540674D02*
X5474825Y-5550198D01*
X5474825Y-5550198D02*
X5484349Y-5569246D01*
X5484349Y-5569246D02*
X5484349Y-5626388D01*
X5484349Y-5626388D02*
X5474825Y-5645436D01*
X5474825Y-5645436D02*
X5465301Y-5654960D01*
X5465301Y-5654960D02*
X5446254Y-5664484D01*
X5446254Y-5664484D02*
X5417682Y-5664484D01*
X5541492Y-5531150D02*
X5617682Y-5531150D01*
X5570063Y-5464484D02*
X5570063Y-5635912D01*
X5570063Y-5635912D02*
X5579587Y-5654960D01*
X5579587Y-5654960D02*
X5598634Y-5664484D01*
X5598634Y-5664484D02*
X5617682Y-5664484D01*
X5836730Y-5531150D02*
X5836730Y-5731150D01*
X5836730Y-5540674D02*
X5855777Y-5531150D01*
X5855777Y-5531150D02*
X5893873Y-5531150D01*
X5893873Y-5531150D02*
X5912920Y-5540674D01*
X5912920Y-5540674D02*
X5922444Y-5550198D01*
X5922444Y-5550198D02*
X5931968Y-5569246D01*
X5931968Y-5569246D02*
X5931968Y-5626388D01*
X5931968Y-5626388D02*
X5922444Y-5645436D01*
X5922444Y-5645436D02*
X5912920Y-5654960D01*
X5912920Y-5654960D02*
X5893873Y-5664484D01*
X5893873Y-5664484D02*
X5855777Y-5664484D01*
X5855777Y-5664484D02*
X5836730Y-5654960D01*
X6046253Y-5664484D02*
X6027206Y-5654960D01*
X6027206Y-5654960D02*
X6017682Y-5635912D01*
X6017682Y-5635912D02*
X6017682Y-5464484D01*
X6208158Y-5664484D02*
X6208158Y-5559722D01*
X6208158Y-5559722D02*
X6198634Y-5540674D01*
X6198634Y-5540674D02*
X6179587Y-5531150D01*
X6179587Y-5531150D02*
X6141492Y-5531150D01*
X6141492Y-5531150D02*
X6122444Y-5540674D01*
X6208158Y-5654960D02*
X6189111Y-5664484D01*
X6189111Y-5664484D02*
X6141492Y-5664484D01*
X6141492Y-5664484D02*
X6122444Y-5654960D01*
X6122444Y-5654960D02*
X6112920Y-5635912D01*
X6112920Y-5635912D02*
X6112920Y-5616865D01*
X6112920Y-5616865D02*
X6122444Y-5597817D01*
X6122444Y-5597817D02*
X6141492Y-5588293D01*
X6141492Y-5588293D02*
X6189111Y-5588293D01*
X6189111Y-5588293D02*
X6208158Y-5578770D01*
X6274825Y-5531150D02*
X6351015Y-5531150D01*
X6303396Y-5464484D02*
X6303396Y-5635912D01*
X6303396Y-5635912D02*
X6312920Y-5654960D01*
X6312920Y-5654960D02*
X6331968Y-5664484D01*
X6331968Y-5664484D02*
X6351015Y-5664484D01*
X6493873Y-5654960D02*
X6474825Y-5664484D01*
X6474825Y-5664484D02*
X6436730Y-5664484D01*
X6436730Y-5664484D02*
X6417682Y-5654960D01*
X6417682Y-5654960D02*
X6408158Y-5635912D01*
X6408158Y-5635912D02*
X6408158Y-5559722D01*
X6408158Y-5559722D02*
X6417682Y-5540674D01*
X6417682Y-5540674D02*
X6436730Y-5531150D01*
X6436730Y-5531150D02*
X6474825Y-5531150D01*
X6474825Y-5531150D02*
X6493873Y-5540674D01*
X6493873Y-5540674D02*
X6503396Y-5559722D01*
X6503396Y-5559722D02*
X6503396Y-5578770D01*
X6503396Y-5578770D02*
X6408158Y-5597817D01*
X6674825Y-5664484D02*
X6674825Y-5464484D01*
X6674825Y-5654960D02*
X6655777Y-5664484D01*
X6655777Y-5664484D02*
X6617682Y-5664484D01*
X6617682Y-5664484D02*
X6598634Y-5654960D01*
X6598634Y-5654960D02*
X6589111Y-5645436D01*
X6589111Y-5645436D02*
X6579587Y-5626388D01*
X6579587Y-5626388D02*
X6579587Y-5569246D01*
X6579587Y-5569246D02*
X6589111Y-5550198D01*
X6589111Y-5550198D02*
X6598634Y-5540674D01*
X6598634Y-5540674D02*
X6617682Y-5531150D01*
X6617682Y-5531150D02*
X6655777Y-5531150D01*
X6655777Y-5531150D02*
X6674825Y-5540674D01*
X6751015Y-5740674D02*
X6760539Y-5731150D01*
X6760539Y-5731150D02*
X6779587Y-5702579D01*
X6779587Y-5702579D02*
X6789111Y-5683531D01*
X6789111Y-5683531D02*
X6798634Y-5654960D01*
X6798634Y-5654960D02*
X6808158Y-5607341D01*
X6808158Y-5607341D02*
X6808158Y-5569246D01*
X6808158Y-5569246D02*
X6798634Y-5521627D01*
X6798634Y-5521627D02*
X6789111Y-5493055D01*
X6789111Y-5493055D02*
X6779587Y-5474008D01*
X6779587Y-5474008D02*
X6760539Y-5445436D01*
X6760539Y-5445436D02*
X6751015Y-5435912D01*
M02*
