%TF.GenerationSoftware,KiCad,Pcbnew,10.0.3*%
%TF.CreationDate,2026-07-09T15:58:38-07:00*%
%TF.ProjectId,brickdup_carrier,62726963-6b64-4757-905f-636172726965,rev?*%
%TF.SameCoordinates,Original*%
%TF.FileFunction,Copper,L2,Bot*%
%TF.FilePolarity,Positive*%
%FSLAX46Y46*%
G04 Gerber Fmt 4.6, Leading zero omitted, Abs format (unit mm)*
G04 Created by KiCad (PCBNEW 10.0.3) date 2026-07-09 15:58:38*
%MOMM*%
%LPD*%
G01*
G04 APERTURE LIST*
%TA.AperFunction,ComponentPad*%
%ADD10R,1.700000X1.700000*%
%TD*%
%TA.AperFunction,ComponentPad*%
%ADD11C,1.700000*%
%TD*%
%TA.AperFunction,ViaPad*%
%ADD12C,0.600000*%
%TD*%
%TA.AperFunction,Conductor*%
%ADD13C,0.200000*%
%TD*%
G04 APERTURE END LIST*
D10*
%TO.P,BRK3,1*%
%TO.N,3V3*%
X50000000Y-2800000D03*
D11*
%TO.P,BRK3,2*%
%TO.N,GND*%
X47460000Y-2800000D03*
%TO.P,BRK3,3*%
%TO.N,IO41*%
X44920000Y-2800000D03*
%TO.P,BRK3,4*%
%TO.N,IO42*%
X42380000Y-2800000D03*
%TD*%
D10*
%TO.P,HDRA,1*%
%TO.N,GND*%
X52200000Y-8000000D03*
D11*
%TO.P,HDRA,2*%
%TO.N,3V3*%
X49660000Y-8000000D03*
%TO.P,HDRA,3*%
X47120000Y-8000000D03*
%TO.P,HDRA,4*%
%TO.N,N/C*%
X44580000Y-8000000D03*
%TO.P,HDRA,5*%
X42040000Y-8000000D03*
%TO.P,HDRA,6*%
X39500000Y-8000000D03*
%TO.P,HDRA,7*%
%TO.N,IO42*%
X36960000Y-8000000D03*
%TO.P,HDRA,8*%
%TO.N,IO41*%
X34420000Y-8000000D03*
%TO.P,HDRA,9*%
%TO.N,N/C*%
X31880000Y-8000000D03*
%TO.P,HDRA,10*%
X29340000Y-8000000D03*
%TO.P,HDRA,11*%
%TO.N,IO38*%
X26800000Y-8000000D03*
%TO.P,HDRA,12*%
%TO.N,N/C*%
X24260000Y-8000000D03*
%TO.P,HDRA,13*%
%TO.N,IO2*%
X21720000Y-8000000D03*
%TO.P,HDRA,14*%
%TO.N,IO3*%
X19180000Y-8000000D03*
%TO.P,HDRA,15*%
%TO.N,IO4*%
X16640000Y-8000000D03*
%TO.P,HDRA,16*%
%TO.N,IO5*%
X14100000Y-8000000D03*
%TO.P,HDRA,17*%
%TO.N,IO6*%
X11560000Y-8000000D03*
%TO.P,HDRA,18*%
%TO.N,SENSE*%
X9020000Y-8000000D03*
%TD*%
D10*
%TO.P,BRK1,1*%
%TO.N,3V3*%
X38000000Y-35200000D03*
D11*
%TO.P,BRK1,2*%
%TO.N,GND*%
X40540000Y-35200000D03*
%TO.P,BRK1,3*%
%TO.N,IO33*%
X43080000Y-35200000D03*
%TO.P,BRK1,4*%
%TO.N,IO34*%
X45620000Y-35200000D03*
%TO.P,BRK1,5*%
%TO.N,IO35*%
X48160000Y-35200000D03*
%TO.P,BRK1,6*%
%TO.N,IO47*%
X50700000Y-35200000D03*
%TO.P,BRK1,7*%
%TO.N,IO48*%
X53240000Y-35200000D03*
%TO.P,BRK1,8*%
%TO.N,IO26*%
X55780000Y-35200000D03*
%TD*%
D10*
%TO.P,BRK2,1*%
%TO.N,+5V*%
X38000000Y-2800000D03*
D11*
%TO.P,BRK2,2*%
%TO.N,GND*%
X35460000Y-2800000D03*
%TO.P,BRK2,3*%
%TO.N,IO2*%
X32920000Y-2800000D03*
%TO.P,BRK2,4*%
%TO.N,IO3*%
X30380000Y-2800000D03*
%TO.P,BRK2,5*%
%TO.N,IO4*%
X27840000Y-2800000D03*
%TO.P,BRK2,6*%
%TO.N,IO5*%
X25300000Y-2800000D03*
%TO.P,BRK2,7*%
%TO.N,IO6*%
X22760000Y-2800000D03*
%TO.P,BRK2,8*%
%TO.N,IO38*%
X20220000Y-2800000D03*
%TD*%
D10*
%TO.P,HDRB,1*%
%TO.N,GND*%
X52200000Y-30860000D03*
D11*
%TO.P,HDRB,2*%
%TO.N,+5V*%
X49660000Y-30860000D03*
%TO.P,HDRB,3*%
%TO.N,N/C*%
X47120000Y-30860000D03*
%TO.P,HDRB,4*%
X44580000Y-30860000D03*
%TO.P,HDRB,5*%
X42040000Y-30860000D03*
%TO.P,HDRB,6*%
X39500000Y-30860000D03*
%TO.P,HDRB,7*%
%TO.N,RST*%
X36960000Y-30860000D03*
%TO.P,HDRB,8*%
%TO.N,PRG*%
X34420000Y-30860000D03*
%TO.P,HDRB,9*%
%TO.N,N/C*%
X31880000Y-30860000D03*
%TO.P,HDRB,10*%
%TO.N,IO35*%
X29340000Y-30860000D03*
%TO.P,HDRB,11*%
%TO.N,IO34*%
X26800000Y-30860000D03*
%TO.P,HDRB,12*%
%TO.N,IO33*%
X24260000Y-30860000D03*
%TO.P,HDRB,13*%
%TO.N,IO47*%
X21720000Y-30860000D03*
%TO.P,HDRB,14*%
%TO.N,IO48*%
X19180000Y-30860000D03*
%TO.P,HDRB,15*%
%TO.N,IO26*%
X16640000Y-30860000D03*
%TO.P,HDRB,16*%
%TO.N,N/C*%
X14100000Y-30860000D03*
%TO.P,HDRB,17*%
X11560000Y-30860000D03*
%TO.P,HDRB,18*%
X9020000Y-30860000D03*
%TD*%
D12*
%TO.N,+5V*%
X37953600Y-25975000D03*
X31620800Y-23155100D03*
%TO.N,RST*%
X28975600Y-36367900D03*
%TD*%
%TO.N,+5V*%
D13*
X38000000Y-3951700D02*
X35775200Y-6176500D01*
X31620800Y-23155100D02*
X35630000Y-19145900D01*
X35630000Y-19145900D02*
X35775200Y-19145900D01*
X35775200Y-6176500D02*
X35775200Y-19145900D01*
X35775200Y-19145900D02*
X37953600Y-21324300D01*
X38000000Y-2800000D02*
X38000000Y-3951700D01*
X37953600Y-21324300D02*
X37953600Y-25975000D01*
%TO.N,GND*%
X40540000Y-35200000D02*
X43310000Y-32430000D01*
X50184600Y-29708300D02*
X51048300Y-30572000D01*
X43310000Y-30474900D02*
X44076600Y-29708300D01*
X44076600Y-29708300D02*
X50184600Y-29708300D01*
X52200000Y-27692900D02*
X50184600Y-29708300D01*
X43310000Y-32430000D02*
X43310000Y-30474900D01*
X52200000Y-8000000D02*
X52200000Y-27692900D01*
X51048300Y-30572000D02*
X51048300Y-30860000D01*
X52200000Y-30860000D02*
X51048300Y-30860000D01*
%TO.N,3V3*%
X49660000Y-8000000D02*
X49660000Y-4291700D01*
X49660000Y-4291700D02*
X50000000Y-3951700D01*
X38000000Y-34048300D02*
X40770200Y-31278100D01*
X40770200Y-31278100D02*
X40770200Y-14349800D01*
X40770200Y-14349800D02*
X47120000Y-8000000D01*
X50000000Y-2800000D02*
X50000000Y-3951700D01*
X38000000Y-35200000D02*
X38000000Y-34048300D01*
%TO.N,IO42*%
X42160000Y-2800000D02*
X42380000Y-2800000D01*
X36960000Y-8000000D02*
X42160000Y-2800000D01*
%TO.N,RST*%
X31452100Y-36367900D02*
X28975600Y-36367900D01*
X36960000Y-30860000D02*
X31452100Y-36367900D01*
%TO.N,IO38*%
X24478200Y-5678200D02*
X26800000Y-8000000D01*
X20220000Y-2800000D02*
X23098200Y-5678200D01*
X23098200Y-5678200D02*
X24478200Y-5678200D01*
%TD*%
%TA.AperFunction,Conductor*%
%TO.N,GND*%
G36*
X61642539Y-320185D02*
G01*
X61688294Y-372989D01*
X61699500Y-424500D01*
X61699500Y-43575500D01*
X61679815Y-43642539D01*
X61627011Y-43688294D01*
X61575500Y-43699500D01*
X424500Y-43699500D01*
X357461Y-43679815D01*
X311706Y-43627011D01*
X300500Y-43575500D01*
X300500Y-40393713D01*
X2149500Y-40393713D01*
X2149500Y-40606286D01*
X2182753Y-40816239D01*
X2248444Y-41018414D01*
X2344951Y-41207820D01*
X2469890Y-41379786D01*
X2620213Y-41530109D01*
X2792179Y-41655048D01*
X2792181Y-41655049D01*
X2792184Y-41655051D01*
X2981588Y-41751557D01*
X3183757Y-41817246D01*
X3393713Y-41850500D01*
X3393714Y-41850500D01*
X3606286Y-41850500D01*
X3606287Y-41850500D01*
X3816243Y-41817246D01*
X4018412Y-41751557D01*
X4207816Y-41655051D01*
X4229789Y-41639086D01*
X4379786Y-41530109D01*
X4379788Y-41530106D01*
X4379792Y-41530104D01*
X4530104Y-41379792D01*
X4530106Y-41379788D01*
X4530109Y-41379786D01*
X4655048Y-41207820D01*
X4655047Y-41207820D01*
X4655051Y-41207816D01*
X4751557Y-41018412D01*
X4817246Y-40816243D01*
X4850500Y-40606287D01*
X4850500Y-40393713D01*
X57149500Y-40393713D01*
X57149500Y-40606286D01*
X57182753Y-40816239D01*
X57248444Y-41018414D01*
X57344951Y-41207820D01*
X57469890Y-41379786D01*
X57620213Y-41530109D01*
X57792179Y-41655048D01*
X57792181Y-41655049D01*
X57792184Y-41655051D01*
X57981588Y-41751557D01*
X58183757Y-41817246D01*
X58393713Y-41850500D01*
X58393714Y-41850500D01*
X58606286Y-41850500D01*
X58606287Y-41850500D01*
X58816243Y-41817246D01*
X59018412Y-41751557D01*
X59207816Y-41655051D01*
X59229789Y-41639086D01*
X59379786Y-41530109D01*
X59379788Y-41530106D01*
X59379792Y-41530104D01*
X59530104Y-41379792D01*
X59530106Y-41379788D01*
X59530109Y-41379786D01*
X59655048Y-41207820D01*
X59655047Y-41207820D01*
X59655051Y-41207816D01*
X59751557Y-41018412D01*
X59817246Y-40816243D01*
X59850500Y-40606287D01*
X59850500Y-40393713D01*
X59817246Y-40183757D01*
X59751557Y-39981588D01*
X59655051Y-39792184D01*
X59655049Y-39792181D01*
X59655048Y-39792179D01*
X59530109Y-39620213D01*
X59379786Y-39469890D01*
X59207820Y-39344951D01*
X59018414Y-39248444D01*
X59018413Y-39248443D01*
X59018412Y-39248443D01*
X58816243Y-39182754D01*
X58816241Y-39182753D01*
X58816240Y-39182753D01*
X58654957Y-39157208D01*
X58606287Y-39149500D01*
X58393713Y-39149500D01*
X58345042Y-39157208D01*
X58183760Y-39182753D01*
X57981585Y-39248444D01*
X57792179Y-39344951D01*
X57620213Y-39469890D01*
X57469890Y-39620213D01*
X57344951Y-39792179D01*
X57248444Y-39981585D01*
X57182753Y-40183760D01*
X57149500Y-40393713D01*
X4850500Y-40393713D01*
X4817246Y-40183757D01*
X4751557Y-39981588D01*
X4655051Y-39792184D01*
X4655049Y-39792181D01*
X4655048Y-39792179D01*
X4530109Y-39620213D01*
X4379786Y-39469890D01*
X4207820Y-39344951D01*
X4018414Y-39248444D01*
X4018413Y-39248443D01*
X4018412Y-39248443D01*
X3816243Y-39182754D01*
X3816241Y-39182753D01*
X3816240Y-39182753D01*
X3654957Y-39157208D01*
X3606287Y-39149500D01*
X3393713Y-39149500D01*
X3345042Y-39157208D01*
X3183760Y-39182753D01*
X2981585Y-39248444D01*
X2792179Y-39344951D01*
X2620213Y-39469890D01*
X2469890Y-39620213D01*
X2344951Y-39792179D01*
X2248444Y-39981585D01*
X2182753Y-40183760D01*
X2149500Y-40393713D01*
X300500Y-40393713D01*
X300500Y-7893713D01*
X7669500Y-7893713D01*
X7669500Y-8106286D01*
X7702753Y-8316239D01*
X7768444Y-8518414D01*
X7864951Y-8707820D01*
X7989890Y-8879786D01*
X8140213Y-9030109D01*
X8312179Y-9155048D01*
X8312181Y-9155049D01*
X8312184Y-9155051D01*
X8501588Y-9251557D01*
X8703757Y-9317246D01*
X8913713Y-9350500D01*
X8913714Y-9350500D01*
X9126286Y-9350500D01*
X9126287Y-9350500D01*
X9336243Y-9317246D01*
X9538412Y-9251557D01*
X9727816Y-9155051D01*
X9774700Y-9120988D01*
X9899786Y-9030109D01*
X9899788Y-9030106D01*
X9899792Y-9030104D01*
X10050104Y-8879792D01*
X10050106Y-8879788D01*
X10050109Y-8879786D01*
X10175048Y-8707820D01*
X10175047Y-8707820D01*
X10175051Y-8707816D01*
X10179514Y-8699054D01*
X10227488Y-8648259D01*
X10295308Y-8631463D01*
X10361444Y-8653999D01*
X10400486Y-8699056D01*
X10404951Y-8707820D01*
X10529890Y-8879786D01*
X10680213Y-9030109D01*
X10852179Y-9155048D01*
X10852181Y-9155049D01*
X10852184Y-9155051D01*
X11041588Y-9251557D01*
X11243757Y-9317246D01*
X11453713Y-9350500D01*
X11453714Y-9350500D01*
X11666286Y-9350500D01*
X11666287Y-9350500D01*
X11876243Y-9317246D01*
X12078412Y-9251557D01*
X12267816Y-9155051D01*
X12314700Y-9120988D01*
X12439786Y-9030109D01*
X12439788Y-9030106D01*
X12439792Y-9030104D01*
X12590104Y-8879792D01*
X12590106Y-8879788D01*
X12590109Y-8879786D01*
X12715048Y-8707820D01*
X12715047Y-8707820D01*
X12715051Y-8707816D01*
X12719514Y-8699054D01*
X12767488Y-8648259D01*
X12835308Y-8631463D01*
X12901444Y-8653999D01*
X12940486Y-8699056D01*
X12944951Y-8707820D01*
X13069890Y-8879786D01*
X13220213Y-9030109D01*
X13392179Y-9155048D01*
X13392181Y-9155049D01*
X13392184Y-9155051D01*
X13581588Y-9251557D01*
X13783757Y-9317246D01*
X13993713Y-9350500D01*
X13993714Y-9350500D01*
X14206286Y-9350500D01*
X14206287Y-9350500D01*
X14416243Y-9317246D01*
X14618412Y-9251557D01*
X14807816Y-9155051D01*
X14854700Y-9120988D01*
X14979786Y-9030109D01*
X14979788Y-9030106D01*
X14979792Y-9030104D01*
X15130104Y-8879792D01*
X15130106Y-8879788D01*
X15130109Y-8879786D01*
X15255048Y-8707820D01*
X15255047Y-8707820D01*
X15255051Y-8707816D01*
X15259514Y-8699054D01*
X15307488Y-8648259D01*
X15375308Y-8631463D01*
X15441444Y-8653999D01*
X15480486Y-8699056D01*
X15484951Y-8707820D01*
X15609890Y-8879786D01*
X15760213Y-9030109D01*
X15932179Y-9155048D01*
X15932181Y-9155049D01*
X15932184Y-9155051D01*
X16121588Y-9251557D01*
X16323757Y-9317246D01*
X16533713Y-9350500D01*
X16533714Y-9350500D01*
X16746286Y-9350500D01*
X16746287Y-9350500D01*
X16956243Y-9317246D01*
X17158412Y-9251557D01*
X17347816Y-9155051D01*
X17394700Y-9120988D01*
X17519786Y-9030109D01*
X17519788Y-9030106D01*
X17519792Y-9030104D01*
X17670104Y-8879792D01*
X17670106Y-8879788D01*
X17670109Y-8879786D01*
X17795048Y-8707820D01*
X17795047Y-8707820D01*
X17795051Y-8707816D01*
X17799514Y-8699054D01*
X17847488Y-8648259D01*
X17915308Y-8631463D01*
X17981444Y-8653999D01*
X18020486Y-8699056D01*
X18024951Y-8707820D01*
X18149890Y-8879786D01*
X18300213Y-9030109D01*
X18472179Y-9155048D01*
X18472181Y-9155049D01*
X18472184Y-9155051D01*
X18661588Y-9251557D01*
X18863757Y-9317246D01*
X19073713Y-9350500D01*
X19073714Y-9350500D01*
X19286286Y-9350500D01*
X19286287Y-9350500D01*
X19496243Y-9317246D01*
X19698412Y-9251557D01*
X19887816Y-9155051D01*
X19934700Y-9120988D01*
X20059786Y-9030109D01*
X20059788Y-9030106D01*
X20059792Y-9030104D01*
X20210104Y-8879792D01*
X20210106Y-8879788D01*
X20210109Y-8879786D01*
X20335048Y-8707820D01*
X20335047Y-8707820D01*
X20335051Y-8707816D01*
X20339514Y-8699054D01*
X20387488Y-8648259D01*
X20455308Y-8631463D01*
X20521444Y-8653999D01*
X20560486Y-8699056D01*
X20564951Y-8707820D01*
X20689890Y-8879786D01*
X20840213Y-9030109D01*
X21012179Y-9155048D01*
X21012181Y-9155049D01*
X21012184Y-9155051D01*
X21201588Y-9251557D01*
X21403757Y-9317246D01*
X21613713Y-9350500D01*
X21613714Y-9350500D01*
X21826286Y-9350500D01*
X21826287Y-9350500D01*
X22036243Y-9317246D01*
X22238412Y-9251557D01*
X22427816Y-9155051D01*
X22474700Y-9120988D01*
X22599786Y-9030109D01*
X22599788Y-9030106D01*
X22599792Y-9030104D01*
X22750104Y-8879792D01*
X22750106Y-8879788D01*
X22750109Y-8879786D01*
X22875048Y-8707820D01*
X22875047Y-8707820D01*
X22875051Y-8707816D01*
X22879514Y-8699054D01*
X22927488Y-8648259D01*
X22995308Y-8631463D01*
X23061444Y-8653999D01*
X23100486Y-8699056D01*
X23104951Y-8707820D01*
X23229890Y-8879786D01*
X23380213Y-9030109D01*
X23552179Y-9155048D01*
X23552181Y-9155049D01*
X23552184Y-9155051D01*
X23741588Y-9251557D01*
X23943757Y-9317246D01*
X24153713Y-9350500D01*
X24153714Y-9350500D01*
X24366286Y-9350500D01*
X24366287Y-9350500D01*
X24576243Y-9317246D01*
X24778412Y-9251557D01*
X24967816Y-9155051D01*
X25014700Y-9120988D01*
X25139786Y-9030109D01*
X25139788Y-9030106D01*
X25139792Y-9030104D01*
X25290104Y-8879792D01*
X25290106Y-8879788D01*
X25290109Y-8879786D01*
X25415048Y-8707820D01*
X25415047Y-8707820D01*
X25415051Y-8707816D01*
X25419514Y-8699054D01*
X25467488Y-8648259D01*
X25535308Y-8631463D01*
X25601444Y-8653999D01*
X25640486Y-8699056D01*
X25644951Y-8707820D01*
X25769890Y-8879786D01*
X25920213Y-9030109D01*
X26092179Y-9155048D01*
X26092181Y-9155049D01*
X26092184Y-9155051D01*
X26281588Y-9251557D01*
X26483757Y-9317246D01*
X26693713Y-9350500D01*
X26693714Y-9350500D01*
X26906286Y-9350500D01*
X26906287Y-9350500D01*
X27116243Y-9317246D01*
X27318412Y-9251557D01*
X27507816Y-9155051D01*
X27554700Y-9120988D01*
X27679786Y-9030109D01*
X27679788Y-9030106D01*
X27679792Y-9030104D01*
X27830104Y-8879792D01*
X27830106Y-8879788D01*
X27830109Y-8879786D01*
X27955048Y-8707820D01*
X27955047Y-8707820D01*
X27955051Y-8707816D01*
X27959514Y-8699054D01*
X28007488Y-8648259D01*
X28075308Y-8631463D01*
X28141444Y-8653999D01*
X28180486Y-8699056D01*
X28184951Y-8707820D01*
X28309890Y-8879786D01*
X28460213Y-9030109D01*
X28632179Y-9155048D01*
X28632181Y-9155049D01*
X28632184Y-9155051D01*
X28821588Y-9251557D01*
X29023757Y-9317246D01*
X29233713Y-9350500D01*
X29233714Y-9350500D01*
X29446286Y-9350500D01*
X29446287Y-9350500D01*
X29656243Y-9317246D01*
X29858412Y-9251557D01*
X30047816Y-9155051D01*
X30094700Y-9120988D01*
X30219786Y-9030109D01*
X30219788Y-9030106D01*
X30219792Y-9030104D01*
X30370104Y-8879792D01*
X30370106Y-8879788D01*
X30370109Y-8879786D01*
X30495048Y-8707820D01*
X30495047Y-8707820D01*
X30495051Y-8707816D01*
X30499514Y-8699054D01*
X30547488Y-8648259D01*
X30615308Y-8631463D01*
X30681444Y-8653999D01*
X30720486Y-8699056D01*
X30724951Y-8707820D01*
X30849890Y-8879786D01*
X31000213Y-9030109D01*
X31172179Y-9155048D01*
X31172181Y-9155049D01*
X31172184Y-9155051D01*
X31361588Y-9251557D01*
X31563757Y-9317246D01*
X31773713Y-9350500D01*
X31773714Y-9350500D01*
X31986286Y-9350500D01*
X31986287Y-9350500D01*
X32196243Y-9317246D01*
X32398412Y-9251557D01*
X32587816Y-9155051D01*
X32634700Y-9120988D01*
X32759786Y-9030109D01*
X32759788Y-9030106D01*
X32759792Y-9030104D01*
X32910104Y-8879792D01*
X32910106Y-8879788D01*
X32910109Y-8879786D01*
X33035048Y-8707820D01*
X33035047Y-8707820D01*
X33035051Y-8707816D01*
X33039514Y-8699054D01*
X33087488Y-8648259D01*
X33155308Y-8631463D01*
X33221444Y-8653999D01*
X33260486Y-8699056D01*
X33264951Y-8707820D01*
X33389890Y-8879786D01*
X33540213Y-9030109D01*
X33712179Y-9155048D01*
X33712181Y-9155049D01*
X33712184Y-9155051D01*
X33901588Y-9251557D01*
X34103757Y-9317246D01*
X34313713Y-9350500D01*
X34313714Y-9350500D01*
X34526286Y-9350500D01*
X34526287Y-9350500D01*
X34736243Y-9317246D01*
X34938412Y-9251557D01*
X34994405Y-9223026D01*
X35063074Y-9210131D01*
X35127814Y-9236407D01*
X35168072Y-9293513D01*
X35174700Y-9333512D01*
X35174700Y-18700602D01*
X35155015Y-18767641D01*
X35138381Y-18788283D01*
X31606139Y-22320525D01*
X31544816Y-22354010D01*
X31542650Y-22354461D01*
X31387308Y-22385361D01*
X31387298Y-22385364D01*
X31241627Y-22445702D01*
X31241614Y-22445709D01*
X31110511Y-22533310D01*
X31110507Y-22533313D01*
X30999013Y-22644807D01*
X30999010Y-22644811D01*
X30911409Y-22775914D01*
X30911402Y-22775927D01*
X30851064Y-22921598D01*
X30851061Y-22921610D01*
X30820300Y-23076253D01*
X30820300Y-23233946D01*
X30851061Y-23388589D01*
X30851064Y-23388601D01*
X30911402Y-23534272D01*
X30911409Y-23534285D01*
X30999010Y-23665388D01*
X30999013Y-23665392D01*
X31110507Y-23776886D01*
X31110511Y-23776889D01*
X31241614Y-23864490D01*
X31241627Y-23864497D01*
X31387298Y-23924835D01*
X31387303Y-23924837D01*
X31541953Y-23955599D01*
X31541956Y-23955600D01*
X31541958Y-23955600D01*
X31699644Y-23955600D01*
X31699645Y-23955599D01*
X31854297Y-23924837D01*
X31999979Y-23864494D01*
X32131089Y-23776889D01*
X32242589Y-23665389D01*
X32330194Y-23534279D01*
X32390537Y-23388597D01*
X32409913Y-23291185D01*
X32421438Y-23233250D01*
X32453823Y-23171339D01*
X32455318Y-23169816D01*
X35614919Y-20010216D01*
X35676242Y-19976731D01*
X35745934Y-19981715D01*
X35790281Y-20010216D01*
X37316781Y-21536716D01*
X37350266Y-21598039D01*
X37353100Y-21624397D01*
X37353100Y-25395234D01*
X37333415Y-25462273D01*
X37332202Y-25464125D01*
X37244209Y-25595814D01*
X37244202Y-25595827D01*
X37183864Y-25741498D01*
X37183861Y-25741510D01*
X37153100Y-25896153D01*
X37153100Y-26053846D01*
X37183861Y-26208489D01*
X37183864Y-26208501D01*
X37244202Y-26354172D01*
X37244209Y-26354185D01*
X37331810Y-26485288D01*
X37331813Y-26485292D01*
X37443307Y-26596786D01*
X37443311Y-26596789D01*
X37574414Y-26684390D01*
X37574427Y-26684397D01*
X37720098Y-26744735D01*
X37720103Y-26744737D01*
X37874753Y-26775499D01*
X37874756Y-26775500D01*
X37874758Y-26775500D01*
X38032444Y-26775500D01*
X38032445Y-26775499D01*
X38187097Y-26744737D01*
X38332779Y-26684394D01*
X38463889Y-26596789D01*
X38575389Y-26485289D01*
X38662994Y-26354179D01*
X38723337Y-26208497D01*
X38754100Y-26053842D01*
X38754100Y-25896158D01*
X38754100Y-25896155D01*
X38754099Y-25896153D01*
X38723338Y-25741510D01*
X38723337Y-25741503D01*
X38723335Y-25741498D01*
X38662997Y-25595827D01*
X38662990Y-25595814D01*
X38574998Y-25464125D01*
X38554120Y-25397447D01*
X38554100Y-25395234D01*
X38554100Y-21413359D01*
X38554101Y-21413346D01*
X38554101Y-21245245D01*
X38554101Y-21245243D01*
X38513177Y-21092515D01*
X38484239Y-21042395D01*
X38434120Y-20955584D01*
X38322316Y-20843780D01*
X38322315Y-20843779D01*
X38317985Y-20839449D01*
X38317974Y-20839439D01*
X36412019Y-18933484D01*
X36378534Y-18872161D01*
X36375700Y-18845803D01*
X36375700Y-9400819D01*
X36395385Y-9333780D01*
X36448189Y-9288025D01*
X36517347Y-9278081D01*
X36538002Y-9282884D01*
X36643757Y-9317246D01*
X36853713Y-9350500D01*
X36853714Y-9350500D01*
X37066286Y-9350500D01*
X37066287Y-9350500D01*
X37276243Y-9317246D01*
X37478412Y-9251557D01*
X37667816Y-9155051D01*
X37714700Y-9120988D01*
X37839786Y-9030109D01*
X37839788Y-9030106D01*
X37839792Y-9030104D01*
X37990104Y-8879792D01*
X37990106Y-8879788D01*
X37990109Y-8879786D01*
X38115048Y-8707820D01*
X38115047Y-8707820D01*
X38115051Y-8707816D01*
X38119514Y-8699054D01*
X38167488Y-8648259D01*
X38235308Y-8631463D01*
X38301444Y-8653999D01*
X38340486Y-8699056D01*
X38344951Y-8707820D01*
X38469890Y-8879786D01*
X38620213Y-9030109D01*
X38792179Y-9155048D01*
X38792181Y-9155049D01*
X38792184Y-9155051D01*
X38981588Y-9251557D01*
X39183757Y-9317246D01*
X39393713Y-9350500D01*
X39393714Y-9350500D01*
X39606286Y-9350500D01*
X39606287Y-9350500D01*
X39816243Y-9317246D01*
X40018412Y-9251557D01*
X40207816Y-9155051D01*
X40254700Y-9120988D01*
X40379786Y-9030109D01*
X40379788Y-9030106D01*
X40379792Y-9030104D01*
X40530104Y-8879792D01*
X40530106Y-8879788D01*
X40530109Y-8879786D01*
X40655048Y-8707820D01*
X40655047Y-8707820D01*
X40655051Y-8707816D01*
X40659514Y-8699054D01*
X40707488Y-8648259D01*
X40775308Y-8631463D01*
X40841444Y-8653999D01*
X40880486Y-8699056D01*
X40884951Y-8707820D01*
X41009890Y-8879786D01*
X41160213Y-9030109D01*
X41332179Y-9155048D01*
X41332181Y-9155049D01*
X41332184Y-9155051D01*
X41521588Y-9251557D01*
X41723757Y-9317246D01*
X41933713Y-9350500D01*
X41933714Y-9350500D01*
X42146286Y-9350500D01*
X42146287Y-9350500D01*
X42356243Y-9317246D01*
X42558412Y-9251557D01*
X42747816Y-9155051D01*
X42794700Y-9120988D01*
X42919786Y-9030109D01*
X42919788Y-9030106D01*
X42919792Y-9030104D01*
X43070104Y-8879792D01*
X43070106Y-8879788D01*
X43070109Y-8879786D01*
X43195048Y-8707820D01*
X43195047Y-8707820D01*
X43195051Y-8707816D01*
X43199514Y-8699054D01*
X43247488Y-8648259D01*
X43315308Y-8631463D01*
X43381444Y-8653999D01*
X43420486Y-8699056D01*
X43424951Y-8707820D01*
X43549890Y-8879786D01*
X43700213Y-9030109D01*
X43872179Y-9155048D01*
X43872181Y-9155049D01*
X43872184Y-9155051D01*
X44061588Y-9251557D01*
X44263757Y-9317246D01*
X44473713Y-9350500D01*
X44473714Y-9350500D01*
X44620902Y-9350500D01*
X44687941Y-9370185D01*
X44733696Y-9422989D01*
X44743640Y-9492147D01*
X44714615Y-9555703D01*
X44708583Y-9562181D01*
X40289681Y-13981082D01*
X40289679Y-13981085D01*
X40239561Y-14067894D01*
X40239559Y-14067896D01*
X40210625Y-14118009D01*
X40210624Y-14118010D01*
X40210623Y-14118015D01*
X40169699Y-14270743D01*
X40169699Y-14270745D01*
X40169699Y-14438846D01*
X40169700Y-14438859D01*
X40169700Y-29486928D01*
X40150015Y-29553967D01*
X40097211Y-29599722D01*
X40028053Y-29609666D01*
X40007382Y-29604859D01*
X39816240Y-29542753D01*
X39654957Y-29517208D01*
X39606287Y-29509500D01*
X39393713Y-29509500D01*
X39345042Y-29517208D01*
X39183760Y-29542753D01*
X39183757Y-29542754D01*
X38993019Y-29604729D01*
X38981585Y-29608444D01*
X38792179Y-29704951D01*
X38620213Y-29829890D01*
X38469890Y-29980213D01*
X38344949Y-30152182D01*
X38340484Y-30160946D01*
X38292509Y-30211742D01*
X38224688Y-30228536D01*
X38158553Y-30205998D01*
X38119516Y-30160946D01*
X38115050Y-30152182D01*
X37990109Y-29980213D01*
X37839786Y-29829890D01*
X37667820Y-29704951D01*
X37478414Y-29608444D01*
X37478413Y-29608443D01*
X37478412Y-29608443D01*
X37276243Y-29542754D01*
X37276241Y-29542753D01*
X37276240Y-29542753D01*
X37114957Y-29517208D01*
X37066287Y-29509500D01*
X36853713Y-29509500D01*
X36805042Y-29517208D01*
X36643760Y-29542753D01*
X36643757Y-29542754D01*
X36453019Y-29604729D01*
X36441585Y-29608444D01*
X36252179Y-29704951D01*
X36080213Y-29829890D01*
X35929890Y-29980213D01*
X35804949Y-30152182D01*
X35800484Y-30160946D01*
X35752509Y-30211742D01*
X35684688Y-30228536D01*
X35618553Y-30205998D01*
X35579516Y-30160946D01*
X35575050Y-30152182D01*
X35450109Y-29980213D01*
X35299786Y-29829890D01*
X35127820Y-29704951D01*
X34938414Y-29608444D01*
X34938413Y-29608443D01*
X34938412Y-29608443D01*
X34736243Y-29542754D01*
X34736241Y-29542753D01*
X34736240Y-29542753D01*
X34574957Y-29517208D01*
X34526287Y-29509500D01*
X34313713Y-29509500D01*
X34265042Y-29517208D01*
X34103760Y-29542753D01*
X34103757Y-29542754D01*
X33913019Y-29604729D01*
X33901585Y-29608444D01*
X33712179Y-29704951D01*
X33540213Y-29829890D01*
X33389890Y-29980213D01*
X33264949Y-30152182D01*
X33260484Y-30160946D01*
X33212509Y-30211742D01*
X33144688Y-30228536D01*
X33078553Y-30205998D01*
X33039516Y-30160946D01*
X33035050Y-30152182D01*
X32910109Y-29980213D01*
X32759786Y-29829890D01*
X32587820Y-29704951D01*
X32398414Y-29608444D01*
X32398413Y-29608443D01*
X32398412Y-29608443D01*
X32196243Y-29542754D01*
X32196241Y-29542753D01*
X32196240Y-29542753D01*
X32034957Y-29517208D01*
X31986287Y-29509500D01*
X31773713Y-29509500D01*
X31725042Y-29517208D01*
X31563760Y-29542753D01*
X31563757Y-29542754D01*
X31373019Y-29604729D01*
X31361585Y-29608444D01*
X31172179Y-29704951D01*
X31000213Y-29829890D01*
X30849890Y-29980213D01*
X30724949Y-30152182D01*
X30720484Y-30160946D01*
X30672509Y-30211742D01*
X30604688Y-30228536D01*
X30538553Y-30205998D01*
X30499516Y-30160946D01*
X30495050Y-30152182D01*
X30370109Y-29980213D01*
X30219786Y-29829890D01*
X30047820Y-29704951D01*
X29858414Y-29608444D01*
X29858413Y-29608443D01*
X29858412Y-29608443D01*
X29656243Y-29542754D01*
X29656241Y-29542753D01*
X29656240Y-29542753D01*
X29494957Y-29517208D01*
X29446287Y-29509500D01*
X29233713Y-29509500D01*
X29185042Y-29517208D01*
X29023760Y-29542753D01*
X29023757Y-29542754D01*
X28833019Y-29604729D01*
X28821585Y-29608444D01*
X28632179Y-29704951D01*
X28460213Y-29829890D01*
X28309890Y-29980213D01*
X28184949Y-30152182D01*
X28180484Y-30160946D01*
X28132509Y-30211742D01*
X28064688Y-30228536D01*
X27998553Y-30205998D01*
X27959516Y-30160946D01*
X27955050Y-30152182D01*
X27830109Y-29980213D01*
X27679786Y-29829890D01*
X27507820Y-29704951D01*
X27318414Y-29608444D01*
X27318413Y-29608443D01*
X27318412Y-29608443D01*
X27116243Y-29542754D01*
X27116241Y-29542753D01*
X27116240Y-29542753D01*
X26954957Y-29517208D01*
X26906287Y-29509500D01*
X26693713Y-29509500D01*
X26645042Y-29517208D01*
X26483760Y-29542753D01*
X26483757Y-29542754D01*
X26293019Y-29604729D01*
X26281585Y-29608444D01*
X26092179Y-29704951D01*
X25920213Y-29829890D01*
X25769890Y-29980213D01*
X25644949Y-30152182D01*
X25640484Y-30160946D01*
X25592509Y-30211742D01*
X25524688Y-30228536D01*
X25458553Y-30205998D01*
X25419516Y-30160946D01*
X25415050Y-30152182D01*
X25290109Y-29980213D01*
X25139786Y-29829890D01*
X24967820Y-29704951D01*
X24778414Y-29608444D01*
X24778413Y-29608443D01*
X24778412Y-29608443D01*
X24576243Y-29542754D01*
X24576241Y-29542753D01*
X24576240Y-29542753D01*
X24414957Y-29517208D01*
X24366287Y-29509500D01*
X24153713Y-29509500D01*
X24105042Y-29517208D01*
X23943760Y-29542753D01*
X23943757Y-29542754D01*
X23753019Y-29604729D01*
X23741585Y-29608444D01*
X23552179Y-29704951D01*
X23380213Y-29829890D01*
X23229890Y-29980213D01*
X23104949Y-30152182D01*
X23100484Y-30160946D01*
X23052509Y-30211742D01*
X22984688Y-30228536D01*
X22918553Y-30205998D01*
X22879516Y-30160946D01*
X22875050Y-30152182D01*
X22750109Y-29980213D01*
X22599786Y-29829890D01*
X22427820Y-29704951D01*
X22238414Y-29608444D01*
X22238413Y-29608443D01*
X22238412Y-29608443D01*
X22036243Y-29542754D01*
X22036241Y-29542753D01*
X22036240Y-29542753D01*
X21874957Y-29517208D01*
X21826287Y-29509500D01*
X21613713Y-29509500D01*
X21565042Y-29517208D01*
X21403760Y-29542753D01*
X21403757Y-29542754D01*
X21213019Y-29604729D01*
X21201585Y-29608444D01*
X21012179Y-29704951D01*
X20840213Y-29829890D01*
X20689890Y-29980213D01*
X20564949Y-30152182D01*
X20560484Y-30160946D01*
X20512509Y-30211742D01*
X20444688Y-30228536D01*
X20378553Y-30205998D01*
X20339516Y-30160946D01*
X20335050Y-30152182D01*
X20210109Y-29980213D01*
X20059786Y-29829890D01*
X19887820Y-29704951D01*
X19698414Y-29608444D01*
X19698413Y-29608443D01*
X19698412Y-29608443D01*
X19496243Y-29542754D01*
X19496241Y-29542753D01*
X19496240Y-29542753D01*
X19334957Y-29517208D01*
X19286287Y-29509500D01*
X19073713Y-29509500D01*
X19025042Y-29517208D01*
X18863760Y-29542753D01*
X18863757Y-29542754D01*
X18673019Y-29604729D01*
X18661585Y-29608444D01*
X18472179Y-29704951D01*
X18300213Y-29829890D01*
X18149890Y-29980213D01*
X18024949Y-30152182D01*
X18020484Y-30160946D01*
X17972509Y-30211742D01*
X17904688Y-30228536D01*
X17838553Y-30205998D01*
X17799516Y-30160946D01*
X17795050Y-30152182D01*
X17670109Y-29980213D01*
X17519786Y-29829890D01*
X17347820Y-29704951D01*
X17158414Y-29608444D01*
X17158413Y-29608443D01*
X17158412Y-29608443D01*
X16956243Y-29542754D01*
X16956241Y-29542753D01*
X16956240Y-29542753D01*
X16794957Y-29517208D01*
X16746287Y-29509500D01*
X16533713Y-29509500D01*
X16485042Y-29517208D01*
X16323760Y-29542753D01*
X16323757Y-29542754D01*
X16133019Y-29604729D01*
X16121585Y-29608444D01*
X15932179Y-29704951D01*
X15760213Y-29829890D01*
X15609890Y-29980213D01*
X15484949Y-30152182D01*
X15480484Y-30160946D01*
X15432509Y-30211742D01*
X15364688Y-30228536D01*
X15298553Y-30205998D01*
X15259516Y-30160946D01*
X15255050Y-30152182D01*
X15130109Y-29980213D01*
X14979786Y-29829890D01*
X14807820Y-29704951D01*
X14618414Y-29608444D01*
X14618413Y-29608443D01*
X14618412Y-29608443D01*
X14416243Y-29542754D01*
X14416241Y-29542753D01*
X14416240Y-29542753D01*
X14254957Y-29517208D01*
X14206287Y-29509500D01*
X13993713Y-29509500D01*
X13945042Y-29517208D01*
X13783760Y-29542753D01*
X13783757Y-29542754D01*
X13593019Y-29604729D01*
X13581585Y-29608444D01*
X13392179Y-29704951D01*
X13220213Y-29829890D01*
X13069890Y-29980213D01*
X12944949Y-30152182D01*
X12940484Y-30160946D01*
X12892509Y-30211742D01*
X12824688Y-30228536D01*
X12758553Y-30205998D01*
X12719516Y-30160946D01*
X12715050Y-30152182D01*
X12590109Y-29980213D01*
X12439786Y-29829890D01*
X12267820Y-29704951D01*
X12078414Y-29608444D01*
X12078413Y-29608443D01*
X12078412Y-29608443D01*
X11876243Y-29542754D01*
X11876241Y-29542753D01*
X11876240Y-29542753D01*
X11714957Y-29517208D01*
X11666287Y-29509500D01*
X11453713Y-29509500D01*
X11405042Y-29517208D01*
X11243760Y-29542753D01*
X11243757Y-29542754D01*
X11053019Y-29604729D01*
X11041585Y-29608444D01*
X10852179Y-29704951D01*
X10680213Y-29829890D01*
X10529890Y-29980213D01*
X10404949Y-30152182D01*
X10400484Y-30160946D01*
X10352509Y-30211742D01*
X10284688Y-30228536D01*
X10218553Y-30205998D01*
X10179516Y-30160946D01*
X10175050Y-30152182D01*
X10050109Y-29980213D01*
X9899786Y-29829890D01*
X9727820Y-29704951D01*
X9538414Y-29608444D01*
X9538413Y-29608443D01*
X9538412Y-29608443D01*
X9336243Y-29542754D01*
X9336241Y-29542753D01*
X9336240Y-29542753D01*
X9174957Y-29517208D01*
X9126287Y-29509500D01*
X8913713Y-29509500D01*
X8865042Y-29517208D01*
X8703760Y-29542753D01*
X8703757Y-29542754D01*
X8513019Y-29604729D01*
X8501585Y-29608444D01*
X8312179Y-29704951D01*
X8140213Y-29829890D01*
X7989890Y-29980213D01*
X7864951Y-30152179D01*
X7768444Y-30341585D01*
X7702753Y-30543760D01*
X7669500Y-30753713D01*
X7669500Y-30966286D01*
X7702753Y-31176239D01*
X7768444Y-31378414D01*
X7864951Y-31567820D01*
X7989890Y-31739786D01*
X8140213Y-31890109D01*
X8312179Y-32015048D01*
X8312181Y-32015049D01*
X8312184Y-32015051D01*
X8501588Y-32111557D01*
X8703757Y-32177246D01*
X8913713Y-32210500D01*
X8913714Y-32210500D01*
X9126286Y-32210500D01*
X9126287Y-32210500D01*
X9336243Y-32177246D01*
X9538412Y-32111557D01*
X9727816Y-32015051D01*
X9749789Y-31999086D01*
X9899786Y-31890109D01*
X9899788Y-31890106D01*
X9899792Y-31890104D01*
X10050104Y-31739792D01*
X10050106Y-31739788D01*
X10050109Y-31739786D01*
X10175048Y-31567820D01*
X10175047Y-31567820D01*
X10175051Y-31567816D01*
X10179514Y-31559054D01*
X10227488Y-31508259D01*
X10295308Y-31491463D01*
X10361444Y-31513999D01*
X10400486Y-31559056D01*
X10404951Y-31567820D01*
X10529890Y-31739786D01*
X10680213Y-31890109D01*
X10852179Y-32015048D01*
X10852181Y-32015049D01*
X10852184Y-32015051D01*
X11041588Y-32111557D01*
X11243757Y-32177246D01*
X11453713Y-32210500D01*
X11453714Y-32210500D01*
X11666286Y-32210500D01*
X11666287Y-32210500D01*
X11876243Y-32177246D01*
X12078412Y-32111557D01*
X12267816Y-32015051D01*
X12289789Y-31999086D01*
X12439786Y-31890109D01*
X12439788Y-31890106D01*
X12439792Y-31890104D01*
X12590104Y-31739792D01*
X12590106Y-31739788D01*
X12590109Y-31739786D01*
X12715048Y-31567820D01*
X12715047Y-31567820D01*
X12715051Y-31567816D01*
X12719514Y-31559054D01*
X12767488Y-31508259D01*
X12835308Y-31491463D01*
X12901444Y-31513999D01*
X12940486Y-31559056D01*
X12944951Y-31567820D01*
X13069890Y-31739786D01*
X13220213Y-31890109D01*
X13392179Y-32015048D01*
X13392181Y-32015049D01*
X13392184Y-32015051D01*
X13581588Y-32111557D01*
X13783757Y-32177246D01*
X13993713Y-32210500D01*
X13993714Y-32210500D01*
X14206286Y-32210500D01*
X14206287Y-32210500D01*
X14416243Y-32177246D01*
X14618412Y-32111557D01*
X14807816Y-32015051D01*
X14829789Y-31999086D01*
X14979786Y-31890109D01*
X14979788Y-31890106D01*
X14979792Y-31890104D01*
X15130104Y-31739792D01*
X15130106Y-31739788D01*
X15130109Y-31739786D01*
X15255048Y-31567820D01*
X15255047Y-31567820D01*
X15255051Y-31567816D01*
X15259514Y-31559054D01*
X15307488Y-31508259D01*
X15375308Y-31491463D01*
X15441444Y-31513999D01*
X15480486Y-31559056D01*
X15484951Y-31567820D01*
X15609890Y-31739786D01*
X15760213Y-31890109D01*
X15932179Y-32015048D01*
X15932181Y-32015049D01*
X15932184Y-32015051D01*
X16121588Y-32111557D01*
X16323757Y-32177246D01*
X16533713Y-32210500D01*
X16533714Y-32210500D01*
X16746286Y-32210500D01*
X16746287Y-32210500D01*
X16956243Y-32177246D01*
X17158412Y-32111557D01*
X17347816Y-32015051D01*
X17369789Y-31999086D01*
X17519786Y-31890109D01*
X17519788Y-31890106D01*
X17519792Y-31890104D01*
X17670104Y-31739792D01*
X17670106Y-31739788D01*
X17670109Y-31739786D01*
X17795048Y-31567820D01*
X17795047Y-31567820D01*
X17795051Y-31567816D01*
X17799514Y-31559054D01*
X17847488Y-31508259D01*
X17915308Y-31491463D01*
X17981444Y-31513999D01*
X18020486Y-31559056D01*
X18024951Y-31567820D01*
X18149890Y-31739786D01*
X18300213Y-31890109D01*
X18472179Y-32015048D01*
X18472181Y-32015049D01*
X18472184Y-32015051D01*
X18661588Y-32111557D01*
X18863757Y-32177246D01*
X19073713Y-32210500D01*
X19073714Y-32210500D01*
X19286286Y-32210500D01*
X19286287Y-32210500D01*
X19496243Y-32177246D01*
X19698412Y-32111557D01*
X19887816Y-32015051D01*
X19909789Y-31999086D01*
X20059786Y-31890109D01*
X20059788Y-31890106D01*
X20059792Y-31890104D01*
X20210104Y-31739792D01*
X20210106Y-31739788D01*
X20210109Y-31739786D01*
X20335048Y-31567820D01*
X20335047Y-31567820D01*
X20335051Y-31567816D01*
X20339514Y-31559054D01*
X20387488Y-31508259D01*
X20455308Y-31491463D01*
X20521444Y-31513999D01*
X20560486Y-31559056D01*
X20564951Y-31567820D01*
X20689890Y-31739786D01*
X20840213Y-31890109D01*
X21012179Y-32015048D01*
X21012181Y-32015049D01*
X21012184Y-32015051D01*
X21201588Y-32111557D01*
X21403757Y-32177246D01*
X21613713Y-32210500D01*
X21613714Y-32210500D01*
X21826286Y-32210500D01*
X21826287Y-32210500D01*
X22036243Y-32177246D01*
X22238412Y-32111557D01*
X22427816Y-32015051D01*
X22449789Y-31999086D01*
X22599786Y-31890109D01*
X22599788Y-31890106D01*
X22599792Y-31890104D01*
X22750104Y-31739792D01*
X22750106Y-31739788D01*
X22750109Y-31739786D01*
X22875048Y-31567820D01*
X22875047Y-31567820D01*
X22875051Y-31567816D01*
X22879514Y-31559054D01*
X22927488Y-31508259D01*
X22995308Y-31491463D01*
X23061444Y-31513999D01*
X23100486Y-31559056D01*
X23104951Y-31567820D01*
X23229890Y-31739786D01*
X23380213Y-31890109D01*
X23552179Y-32015048D01*
X23552181Y-32015049D01*
X23552184Y-32015051D01*
X23741588Y-32111557D01*
X23943757Y-32177246D01*
X24153713Y-32210500D01*
X24153714Y-32210500D01*
X24366286Y-32210500D01*
X24366287Y-32210500D01*
X24576243Y-32177246D01*
X24778412Y-32111557D01*
X24967816Y-32015051D01*
X24989789Y-31999086D01*
X25139786Y-31890109D01*
X25139788Y-31890106D01*
X25139792Y-31890104D01*
X25290104Y-31739792D01*
X25290106Y-31739788D01*
X25290109Y-31739786D01*
X25415048Y-31567820D01*
X25415047Y-31567820D01*
X25415051Y-31567816D01*
X25419514Y-31559054D01*
X25467488Y-31508259D01*
X25535308Y-31491463D01*
X25601444Y-31513999D01*
X25640486Y-31559056D01*
X25644951Y-31567820D01*
X25769890Y-31739786D01*
X25920213Y-31890109D01*
X26092179Y-32015048D01*
X26092181Y-32015049D01*
X26092184Y-32015051D01*
X26281588Y-32111557D01*
X26483757Y-32177246D01*
X26693713Y-32210500D01*
X26693714Y-32210500D01*
X26906286Y-32210500D01*
X26906287Y-32210500D01*
X27116243Y-32177246D01*
X27318412Y-32111557D01*
X27507816Y-32015051D01*
X27529789Y-31999086D01*
X27679786Y-31890109D01*
X27679788Y-31890106D01*
X27679792Y-31890104D01*
X27830104Y-31739792D01*
X27830106Y-31739788D01*
X27830109Y-31739786D01*
X27955048Y-31567820D01*
X27955047Y-31567820D01*
X27955051Y-31567816D01*
X27959514Y-31559054D01*
X28007488Y-31508259D01*
X28075308Y-31491463D01*
X28141444Y-31513999D01*
X28180486Y-31559056D01*
X28184951Y-31567820D01*
X28309890Y-31739786D01*
X28460213Y-31890109D01*
X28632179Y-32015048D01*
X28632181Y-32015049D01*
X28632184Y-32015051D01*
X28821588Y-32111557D01*
X29023757Y-32177246D01*
X29233713Y-32210500D01*
X29233714Y-32210500D01*
X29446286Y-32210500D01*
X29446287Y-32210500D01*
X29656243Y-32177246D01*
X29858412Y-32111557D01*
X30047816Y-32015051D01*
X30069789Y-31999086D01*
X30219786Y-31890109D01*
X30219788Y-31890106D01*
X30219792Y-31890104D01*
X30370104Y-31739792D01*
X30370106Y-31739788D01*
X30370109Y-31739786D01*
X30495048Y-31567820D01*
X30495047Y-31567820D01*
X30495051Y-31567816D01*
X30499514Y-31559054D01*
X30547488Y-31508259D01*
X30615308Y-31491463D01*
X30681444Y-31513999D01*
X30720486Y-31559056D01*
X30724951Y-31567820D01*
X30849890Y-31739786D01*
X31000213Y-31890109D01*
X31172179Y-32015048D01*
X31172181Y-32015049D01*
X31172184Y-32015051D01*
X31361588Y-32111557D01*
X31563757Y-32177246D01*
X31773713Y-32210500D01*
X31773714Y-32210500D01*
X31986286Y-32210500D01*
X31986287Y-32210500D01*
X32196243Y-32177246D01*
X32398412Y-32111557D01*
X32587816Y-32015051D01*
X32609789Y-31999086D01*
X32759786Y-31890109D01*
X32759788Y-31890106D01*
X32759792Y-31890104D01*
X32910104Y-31739792D01*
X32910106Y-31739788D01*
X32910109Y-31739786D01*
X33035048Y-31567820D01*
X33035047Y-31567820D01*
X33035051Y-31567816D01*
X33039514Y-31559054D01*
X33087488Y-31508259D01*
X33155308Y-31491463D01*
X33221444Y-31513999D01*
X33260486Y-31559056D01*
X33264951Y-31567820D01*
X33389890Y-31739786D01*
X33540213Y-31890109D01*
X33712179Y-32015048D01*
X33712181Y-32015049D01*
X33712184Y-32015051D01*
X33901588Y-32111557D01*
X34103757Y-32177246D01*
X34313713Y-32210500D01*
X34313714Y-32210500D01*
X34460902Y-32210500D01*
X34527941Y-32230185D01*
X34573696Y-32282989D01*
X34583640Y-32352147D01*
X34554615Y-32415703D01*
X34548583Y-32422181D01*
X31239684Y-35731081D01*
X31178361Y-35764566D01*
X31152003Y-35767400D01*
X29555366Y-35767400D01*
X29488327Y-35747715D01*
X29486475Y-35746502D01*
X29354785Y-35658509D01*
X29354772Y-35658502D01*
X29209101Y-35598164D01*
X29209089Y-35598161D01*
X29054445Y-35567400D01*
X29054442Y-35567400D01*
X28896758Y-35567400D01*
X28896755Y-35567400D01*
X28742110Y-35598161D01*
X28742098Y-35598164D01*
X28596427Y-35658502D01*
X28596414Y-35658509D01*
X28465311Y-35746110D01*
X28465307Y-35746113D01*
X28353813Y-35857607D01*
X28353810Y-35857611D01*
X28266209Y-35988714D01*
X28266202Y-35988727D01*
X28205864Y-36134398D01*
X28205861Y-36134410D01*
X28175100Y-36289053D01*
X28175100Y-36446746D01*
X28205861Y-36601389D01*
X28205864Y-36601401D01*
X28266202Y-36747072D01*
X28266209Y-36747085D01*
X28353810Y-36878188D01*
X28353813Y-36878192D01*
X28465307Y-36989686D01*
X28465311Y-36989689D01*
X28596414Y-37077290D01*
X28596427Y-37077297D01*
X28742098Y-37137635D01*
X28742103Y-37137637D01*
X28896753Y-37168399D01*
X28896756Y-37168400D01*
X28896758Y-37168400D01*
X29054444Y-37168400D01*
X29054445Y-37168399D01*
X29209097Y-37137637D01*
X29354779Y-37077294D01*
X29354785Y-37077290D01*
X29486475Y-36989298D01*
X29553153Y-36968420D01*
X29555366Y-36968400D01*
X31365431Y-36968400D01*
X31365447Y-36968401D01*
X31373043Y-36968401D01*
X31531154Y-36968401D01*
X31531157Y-36968401D01*
X31683885Y-36927477D01*
X31734004Y-36898539D01*
X31820816Y-36848420D01*
X31932620Y-36736616D01*
X31932620Y-36736614D01*
X31942828Y-36726407D01*
X31942830Y-36726404D01*
X36475478Y-32193755D01*
X36536799Y-32160272D01*
X36601473Y-32163506D01*
X36643757Y-32177246D01*
X36853713Y-32210500D01*
X36853714Y-32210500D01*
X37066286Y-32210500D01*
X37066287Y-32210500D01*
X37276243Y-32177246D01*
X37478412Y-32111557D01*
X37667816Y-32015051D01*
X37689789Y-31999086D01*
X37839786Y-31890109D01*
X37839788Y-31890106D01*
X37839792Y-31890104D01*
X37990104Y-31739792D01*
X37990106Y-31739788D01*
X37990109Y-31739786D01*
X38115048Y-31567820D01*
X38115047Y-31567820D01*
X38115051Y-31567816D01*
X38119514Y-31559054D01*
X38167488Y-31508259D01*
X38235308Y-31491463D01*
X38301444Y-31513999D01*
X38340486Y-31559056D01*
X38344951Y-31567820D01*
X38469890Y-31739786D01*
X38620213Y-31890109D01*
X38792182Y-32015050D01*
X38792184Y-32015051D01*
X38899685Y-32069825D01*
X38950481Y-32117799D01*
X38967277Y-32185620D01*
X38944740Y-32251755D01*
X38931072Y-32267991D01*
X37631286Y-33567778D01*
X37519481Y-33679582D01*
X37519480Y-33679584D01*
X37472028Y-33761775D01*
X37469361Y-33766394D01*
X37469358Y-33766399D01*
X37457172Y-33787504D01*
X37406603Y-33835718D01*
X37349787Y-33849500D01*
X37102130Y-33849500D01*
X37102123Y-33849501D01*
X37042516Y-33855908D01*
X36907671Y-33906202D01*
X36907664Y-33906206D01*
X36792455Y-33992452D01*
X36792452Y-33992455D01*
X36706206Y-34107664D01*
X36706202Y-34107671D01*
X36655908Y-34242517D01*
X36649501Y-34302116D01*
X36649501Y-34302123D01*
X36649500Y-34302135D01*
X36649500Y-36097870D01*
X36649501Y-36097876D01*
X36655908Y-36157483D01*
X36706202Y-36292328D01*
X36706206Y-36292335D01*
X36792452Y-36407544D01*
X36792455Y-36407547D01*
X36907664Y-36493793D01*
X36907671Y-36493797D01*
X37042517Y-36544091D01*
X37042516Y-36544091D01*
X37049444Y-36544835D01*
X37102127Y-36550500D01*
X38897872Y-36550499D01*
X38957483Y-36544091D01*
X39092331Y-36493796D01*
X39207546Y-36407546D01*
X39293796Y-36292331D01*
X39344091Y-36157483D01*
X39350500Y-36097873D01*
X39350499Y-35093713D01*
X41729500Y-35093713D01*
X41729500Y-35306287D01*
X41762754Y-35516243D01*
X41808979Y-35658509D01*
X41828444Y-35718414D01*
X41924951Y-35907820D01*
X42049890Y-36079786D01*
X42200213Y-36230109D01*
X42372179Y-36355048D01*
X42372181Y-36355049D01*
X42372184Y-36355051D01*
X42561588Y-36451557D01*
X42763757Y-36517246D01*
X42973713Y-36550500D01*
X42973714Y-36550500D01*
X43186286Y-36550500D01*
X43186287Y-36550500D01*
X43396243Y-36517246D01*
X43598412Y-36451557D01*
X43787816Y-36355051D01*
X43874138Y-36292335D01*
X43959786Y-36230109D01*
X43959788Y-36230106D01*
X43959792Y-36230104D01*
X44110104Y-36079792D01*
X44110106Y-36079788D01*
X44110109Y-36079786D01*
X44235048Y-35907820D01*
X44235047Y-35907820D01*
X44235051Y-35907816D01*
X44239514Y-35899054D01*
X44287488Y-35848259D01*
X44355308Y-35831463D01*
X44421444Y-35853999D01*
X44460486Y-35899056D01*
X44464951Y-35907820D01*
X44589890Y-36079786D01*
X44740213Y-36230109D01*
X44912179Y-36355048D01*
X44912181Y-36355049D01*
X44912184Y-36355051D01*
X45101588Y-36451557D01*
X45303757Y-36517246D01*
X45513713Y-36550500D01*
X45513714Y-36550500D01*
X45726286Y-36550500D01*
X45726287Y-36550500D01*
X45936243Y-36517246D01*
X46138412Y-36451557D01*
X46327816Y-36355051D01*
X46414138Y-36292335D01*
X46499786Y-36230109D01*
X46499788Y-36230106D01*
X46499792Y-36230104D01*
X46650104Y-36079792D01*
X46650106Y-36079788D01*
X46650109Y-36079786D01*
X46775048Y-35907820D01*
X46775047Y-35907820D01*
X46775051Y-35907816D01*
X46779514Y-35899054D01*
X46827488Y-35848259D01*
X46895308Y-35831463D01*
X46961444Y-35853999D01*
X47000486Y-35899056D01*
X47004951Y-35907820D01*
X47129890Y-36079786D01*
X47280213Y-36230109D01*
X47452179Y-36355048D01*
X47452181Y-36355049D01*
X47452184Y-36355051D01*
X47641588Y-36451557D01*
X47843757Y-36517246D01*
X48053713Y-36550500D01*
X48053714Y-36550500D01*
X48266286Y-36550500D01*
X48266287Y-36550500D01*
X48476243Y-36517246D01*
X48678412Y-36451557D01*
X48867816Y-36355051D01*
X48954138Y-36292335D01*
X49039786Y-36230109D01*
X49039788Y-36230106D01*
X49039792Y-36230104D01*
X49190104Y-36079792D01*
X49190106Y-36079788D01*
X49190109Y-36079786D01*
X49315048Y-35907820D01*
X49315047Y-35907820D01*
X49315051Y-35907816D01*
X49319514Y-35899054D01*
X49367488Y-35848259D01*
X49435308Y-35831463D01*
X49501444Y-35853999D01*
X49540486Y-35899056D01*
X49544951Y-35907820D01*
X49669890Y-36079786D01*
X49820213Y-36230109D01*
X49992179Y-36355048D01*
X49992181Y-36355049D01*
X49992184Y-36355051D01*
X50181588Y-36451557D01*
X50383757Y-36517246D01*
X50593713Y-36550500D01*
X50593714Y-36550500D01*
X50806286Y-36550500D01*
X50806287Y-36550500D01*
X51016243Y-36517246D01*
X51218412Y-36451557D01*
X51407816Y-36355051D01*
X51494138Y-36292335D01*
X51579786Y-36230109D01*
X51579788Y-36230106D01*
X51579792Y-36230104D01*
X51730104Y-36079792D01*
X51730106Y-36079788D01*
X51730109Y-36079786D01*
X51855048Y-35907820D01*
X51855047Y-35907820D01*
X51855051Y-35907816D01*
X51859514Y-35899054D01*
X51907488Y-35848259D01*
X51975308Y-35831463D01*
X52041444Y-35853999D01*
X52080486Y-35899056D01*
X52084951Y-35907820D01*
X52209890Y-36079786D01*
X52360213Y-36230109D01*
X52532179Y-36355048D01*
X52532181Y-36355049D01*
X52532184Y-36355051D01*
X52721588Y-36451557D01*
X52923757Y-36517246D01*
X53133713Y-36550500D01*
X53133714Y-36550500D01*
X53346286Y-36550500D01*
X53346287Y-36550500D01*
X53556243Y-36517246D01*
X53758412Y-36451557D01*
X53947816Y-36355051D01*
X54034138Y-36292335D01*
X54119786Y-36230109D01*
X54119788Y-36230106D01*
X54119792Y-36230104D01*
X54270104Y-36079792D01*
X54270106Y-36079788D01*
X54270109Y-36079786D01*
X54395048Y-35907820D01*
X54395047Y-35907820D01*
X54395051Y-35907816D01*
X54399514Y-35899054D01*
X54447488Y-35848259D01*
X54515308Y-35831463D01*
X54581444Y-35853999D01*
X54620486Y-35899056D01*
X54624951Y-35907820D01*
X54749890Y-36079786D01*
X54900213Y-36230109D01*
X55072179Y-36355048D01*
X55072181Y-36355049D01*
X55072184Y-36355051D01*
X55261588Y-36451557D01*
X55463757Y-36517246D01*
X55673713Y-36550500D01*
X55673714Y-36550500D01*
X55886286Y-36550500D01*
X55886287Y-36550500D01*
X56096243Y-36517246D01*
X56298412Y-36451557D01*
X56487816Y-36355051D01*
X56574138Y-36292335D01*
X56659786Y-36230109D01*
X56659788Y-36230106D01*
X56659792Y-36230104D01*
X56810104Y-36079792D01*
X56810106Y-36079788D01*
X56810109Y-36079786D01*
X56935048Y-35907820D01*
X56935047Y-35907820D01*
X56935051Y-35907816D01*
X57031557Y-35718412D01*
X57097246Y-35516243D01*
X57130500Y-35306287D01*
X57130500Y-35093713D01*
X57097246Y-34883757D01*
X57031557Y-34681588D01*
X56935051Y-34492184D01*
X56935049Y-34492181D01*
X56935048Y-34492179D01*
X56810109Y-34320213D01*
X56659786Y-34169890D01*
X56487820Y-34044951D01*
X56298414Y-33948444D01*
X56298413Y-33948443D01*
X56298412Y-33948443D01*
X56096243Y-33882754D01*
X56096241Y-33882753D01*
X56096240Y-33882753D01*
X55934957Y-33857208D01*
X55886287Y-33849500D01*
X55673713Y-33849500D01*
X55625042Y-33857208D01*
X55463760Y-33882753D01*
X55261585Y-33948444D01*
X55072179Y-34044951D01*
X54900213Y-34169890D01*
X54749890Y-34320213D01*
X54624949Y-34492182D01*
X54620484Y-34500946D01*
X54572509Y-34551742D01*
X54504688Y-34568536D01*
X54438553Y-34545998D01*
X54399516Y-34500946D01*
X54395050Y-34492182D01*
X54270109Y-34320213D01*
X54119786Y-34169890D01*
X53947820Y-34044951D01*
X53758414Y-33948444D01*
X53758413Y-33948443D01*
X53758412Y-33948443D01*
X53556243Y-33882754D01*
X53556241Y-33882753D01*
X53556240Y-33882753D01*
X53394957Y-33857208D01*
X53346287Y-33849500D01*
X53133713Y-33849500D01*
X53085042Y-33857208D01*
X52923760Y-33882753D01*
X52721585Y-33948444D01*
X52532179Y-34044951D01*
X52360213Y-34169890D01*
X52209890Y-34320213D01*
X52084949Y-34492182D01*
X52080484Y-34500946D01*
X52032509Y-34551742D01*
X51964688Y-34568536D01*
X51898553Y-34545998D01*
X51859516Y-34500946D01*
X51855050Y-34492182D01*
X51730109Y-34320213D01*
X51579786Y-34169890D01*
X51407820Y-34044951D01*
X51218414Y-33948444D01*
X51218413Y-33948443D01*
X51218412Y-33948443D01*
X51016243Y-33882754D01*
X51016241Y-33882753D01*
X51016240Y-33882753D01*
X50854957Y-33857208D01*
X50806287Y-33849500D01*
X50593713Y-33849500D01*
X50545042Y-33857208D01*
X50383760Y-33882753D01*
X50181585Y-33948444D01*
X49992179Y-34044951D01*
X49820213Y-34169890D01*
X49669890Y-34320213D01*
X49544949Y-34492182D01*
X49540484Y-34500946D01*
X49492509Y-34551742D01*
X49424688Y-34568536D01*
X49358553Y-34545998D01*
X49319516Y-34500946D01*
X49315050Y-34492182D01*
X49190109Y-34320213D01*
X49039786Y-34169890D01*
X48867820Y-34044951D01*
X48678414Y-33948444D01*
X48678413Y-33948443D01*
X48678412Y-33948443D01*
X48476243Y-33882754D01*
X48476241Y-33882753D01*
X48476240Y-33882753D01*
X48314957Y-33857208D01*
X48266287Y-33849500D01*
X48053713Y-33849500D01*
X48005042Y-33857208D01*
X47843760Y-33882753D01*
X47641585Y-33948444D01*
X47452179Y-34044951D01*
X47280213Y-34169890D01*
X47129890Y-34320213D01*
X47004949Y-34492182D01*
X47000484Y-34500946D01*
X46952509Y-34551742D01*
X46884688Y-34568536D01*
X46818553Y-34545998D01*
X46779516Y-34500946D01*
X46775050Y-34492182D01*
X46650109Y-34320213D01*
X46499786Y-34169890D01*
X46327820Y-34044951D01*
X46138414Y-33948444D01*
X46138413Y-33948443D01*
X46138412Y-33948443D01*
X45936243Y-33882754D01*
X45936241Y-33882753D01*
X45936240Y-33882753D01*
X45774957Y-33857208D01*
X45726287Y-33849500D01*
X45513713Y-33849500D01*
X45465042Y-33857208D01*
X45303760Y-33882753D01*
X45101585Y-33948444D01*
X44912179Y-34044951D01*
X44740213Y-34169890D01*
X44589890Y-34320213D01*
X44464949Y-34492182D01*
X44460484Y-34500946D01*
X44412509Y-34551742D01*
X44344688Y-34568536D01*
X44278553Y-34545998D01*
X44239516Y-34500946D01*
X44235050Y-34492182D01*
X44110109Y-34320213D01*
X43959786Y-34169890D01*
X43787820Y-34044951D01*
X43598414Y-33948444D01*
X43598413Y-33948443D01*
X43598412Y-33948443D01*
X43396243Y-33882754D01*
X43396241Y-33882753D01*
X43396240Y-33882753D01*
X43234957Y-33857208D01*
X43186287Y-33849500D01*
X42973713Y-33849500D01*
X42925042Y-33857208D01*
X42763760Y-33882753D01*
X42561585Y-33948444D01*
X42372179Y-34044951D01*
X42200213Y-34169890D01*
X42049890Y-34320213D01*
X41924951Y-34492179D01*
X41828444Y-34681585D01*
X41762753Y-34883760D01*
X41729500Y-35093713D01*
X39350499Y-35093713D01*
X39350499Y-34302128D01*
X39344091Y-34242517D01*
X39293796Y-34107669D01*
X39293795Y-34107668D01*
X39293793Y-34107664D01*
X39207547Y-33992456D01*
X39207548Y-33992456D01*
X39207546Y-33992454D01*
X39149126Y-33948721D01*
X39107257Y-33892789D01*
X39102273Y-33823097D01*
X39135756Y-33761777D01*
X40996834Y-31900699D01*
X41058155Y-31867216D01*
X41127847Y-31872200D01*
X41157398Y-31888063D01*
X41332180Y-32015048D01*
X41332184Y-32015051D01*
X41521588Y-32111557D01*
X41723757Y-32177246D01*
X41933713Y-32210500D01*
X41933714Y-32210500D01*
X42146286Y-32210500D01*
X42146287Y-32210500D01*
X42356243Y-32177246D01*
X42558412Y-32111557D01*
X42747816Y-32015051D01*
X42769789Y-31999086D01*
X42919786Y-31890109D01*
X42919788Y-31890106D01*
X42919792Y-31890104D01*
X43070104Y-31739792D01*
X43070106Y-31739788D01*
X43070109Y-31739786D01*
X43195048Y-31567820D01*
X43195047Y-31567820D01*
X43195051Y-31567816D01*
X43199514Y-31559054D01*
X43247488Y-31508259D01*
X43315308Y-31491463D01*
X43381444Y-31513999D01*
X43420486Y-31559056D01*
X43424951Y-31567820D01*
X43549890Y-31739786D01*
X43700213Y-31890109D01*
X43872179Y-32015048D01*
X43872181Y-32015049D01*
X43872184Y-32015051D01*
X44061588Y-32111557D01*
X44263757Y-32177246D01*
X44473713Y-32210500D01*
X44473714Y-32210500D01*
X44686286Y-32210500D01*
X44686287Y-32210500D01*
X44896243Y-32177246D01*
X45098412Y-32111557D01*
X45287816Y-32015051D01*
X45309789Y-31999086D01*
X45459786Y-31890109D01*
X45459788Y-31890106D01*
X45459792Y-31890104D01*
X45610104Y-31739792D01*
X45610106Y-31739788D01*
X45610109Y-31739786D01*
X45735048Y-31567820D01*
X45735047Y-31567820D01*
X45735051Y-31567816D01*
X45739514Y-31559054D01*
X45787488Y-31508259D01*
X45855308Y-31491463D01*
X45921444Y-31513999D01*
X45960486Y-31559056D01*
X45964951Y-31567820D01*
X46089890Y-31739786D01*
X46240213Y-31890109D01*
X46412179Y-32015048D01*
X46412181Y-32015049D01*
X46412184Y-32015051D01*
X46601588Y-32111557D01*
X46803757Y-32177246D01*
X47013713Y-32210500D01*
X47013714Y-32210500D01*
X47226286Y-32210500D01*
X47226287Y-32210500D01*
X47436243Y-32177246D01*
X47638412Y-32111557D01*
X47827816Y-32015051D01*
X47849789Y-31999086D01*
X47999786Y-31890109D01*
X47999788Y-31890106D01*
X47999792Y-31890104D01*
X48150104Y-31739792D01*
X48150106Y-31739788D01*
X48150109Y-31739786D01*
X48275048Y-31567820D01*
X48275047Y-31567820D01*
X48275051Y-31567816D01*
X48279514Y-31559054D01*
X48327488Y-31508259D01*
X48395308Y-31491463D01*
X48461444Y-31513999D01*
X48500486Y-31559056D01*
X48504951Y-31567820D01*
X48629890Y-31739786D01*
X48780213Y-31890109D01*
X48952179Y-32015048D01*
X48952181Y-32015049D01*
X48952184Y-32015051D01*
X49141588Y-32111557D01*
X49343757Y-32177246D01*
X49553713Y-32210500D01*
X49553714Y-32210500D01*
X49766286Y-32210500D01*
X49766287Y-32210500D01*
X49976243Y-32177246D01*
X50178412Y-32111557D01*
X50367816Y-32015051D01*
X50389789Y-31999086D01*
X50539786Y-31890109D01*
X50539788Y-31890106D01*
X50539792Y-31890104D01*
X50690104Y-31739792D01*
X50690106Y-31739788D01*
X50690109Y-31739786D01*
X50815048Y-31567820D01*
X50815047Y-31567820D01*
X50815051Y-31567816D01*
X50911557Y-31378412D01*
X50977246Y-31176243D01*
X51010500Y-30966287D01*
X51010500Y-30753713D01*
X50977246Y-30543757D01*
X50911557Y-30341588D01*
X50815051Y-30152184D01*
X50815049Y-30152181D01*
X50815048Y-30152179D01*
X50690109Y-29980213D01*
X50539786Y-29829890D01*
X50367820Y-29704951D01*
X50178414Y-29608444D01*
X50178413Y-29608443D01*
X50178412Y-29608443D01*
X49976243Y-29542754D01*
X49976241Y-29542753D01*
X49976240Y-29542753D01*
X49814957Y-29517208D01*
X49766287Y-29509500D01*
X49553713Y-29509500D01*
X49505042Y-29517208D01*
X49343760Y-29542753D01*
X49343757Y-29542754D01*
X49153019Y-29604729D01*
X49141585Y-29608444D01*
X48952179Y-29704951D01*
X48780213Y-29829890D01*
X48629890Y-29980213D01*
X48504949Y-30152182D01*
X48500484Y-30160946D01*
X48452509Y-30211742D01*
X48384688Y-30228536D01*
X48318553Y-30205998D01*
X48279516Y-30160946D01*
X48275050Y-30152182D01*
X48150109Y-29980213D01*
X47999786Y-29829890D01*
X47827820Y-29704951D01*
X47638414Y-29608444D01*
X47638413Y-29608443D01*
X47638412Y-29608443D01*
X47436243Y-29542754D01*
X47436241Y-29542753D01*
X47436240Y-29542753D01*
X47274957Y-29517208D01*
X47226287Y-29509500D01*
X47013713Y-29509500D01*
X46965042Y-29517208D01*
X46803760Y-29542753D01*
X46803757Y-29542754D01*
X46613019Y-29604729D01*
X46601585Y-29608444D01*
X46412179Y-29704951D01*
X46240213Y-29829890D01*
X46089890Y-29980213D01*
X45964949Y-30152182D01*
X45960484Y-30160946D01*
X45912509Y-30211742D01*
X45844688Y-30228536D01*
X45778553Y-30205998D01*
X45739516Y-30160946D01*
X45735050Y-30152182D01*
X45610109Y-29980213D01*
X45459786Y-29829890D01*
X45287820Y-29704951D01*
X45098414Y-29608444D01*
X45098413Y-29608443D01*
X45098412Y-29608443D01*
X44896243Y-29542754D01*
X44896241Y-29542753D01*
X44896240Y-29542753D01*
X44734957Y-29517208D01*
X44686287Y-29509500D01*
X44473713Y-29509500D01*
X44425042Y-29517208D01*
X44263760Y-29542753D01*
X44263757Y-29542754D01*
X44073019Y-29604729D01*
X44061585Y-29608444D01*
X43872179Y-29704951D01*
X43700213Y-29829890D01*
X43549890Y-29980213D01*
X43424949Y-30152182D01*
X43420484Y-30160946D01*
X43372509Y-30211742D01*
X43304688Y-30228536D01*
X43238553Y-30205998D01*
X43199516Y-30160946D01*
X43195050Y-30152182D01*
X43070109Y-29980213D01*
X42919786Y-29829890D01*
X42747820Y-29704951D01*
X42558414Y-29608444D01*
X42558413Y-29608443D01*
X42558412Y-29608443D01*
X42356243Y-29542754D01*
X42356241Y-29542753D01*
X42356240Y-29542753D01*
X42194957Y-29517208D01*
X42146287Y-29509500D01*
X41933713Y-29509500D01*
X41894202Y-29515757D01*
X41723759Y-29542753D01*
X41533018Y-29604729D01*
X41463177Y-29606724D01*
X41403344Y-29570644D01*
X41372516Y-29507943D01*
X41370700Y-29486798D01*
X41370700Y-14649896D01*
X41390385Y-14582857D01*
X41407014Y-14562220D01*
X46635478Y-9333755D01*
X46696799Y-9300272D01*
X46761473Y-9303506D01*
X46803757Y-9317246D01*
X47013713Y-9350500D01*
X47013714Y-9350500D01*
X47226286Y-9350500D01*
X47226287Y-9350500D01*
X47436243Y-9317246D01*
X47638412Y-9251557D01*
X47827816Y-9155051D01*
X47874700Y-9120988D01*
X47999786Y-9030109D01*
X47999788Y-9030106D01*
X47999792Y-9030104D01*
X48150104Y-8879792D01*
X48150106Y-8879788D01*
X48150109Y-8879786D01*
X48275048Y-8707820D01*
X48275047Y-8707820D01*
X48275051Y-8707816D01*
X48279514Y-8699054D01*
X48327488Y-8648259D01*
X48395308Y-8631463D01*
X48461444Y-8653999D01*
X48500486Y-8699056D01*
X48504951Y-8707820D01*
X48629890Y-8879786D01*
X48780213Y-9030109D01*
X48952179Y-9155048D01*
X48952181Y-9155049D01*
X48952184Y-9155051D01*
X49141588Y-9251557D01*
X49343757Y-9317246D01*
X49553713Y-9350500D01*
X49553714Y-9350500D01*
X49766286Y-9350500D01*
X49766287Y-9350500D01*
X49976243Y-9317246D01*
X50178412Y-9251557D01*
X50367816Y-9155051D01*
X50414700Y-9120988D01*
X50539786Y-9030109D01*
X50539788Y-9030106D01*
X50539792Y-9030104D01*
X50690104Y-8879792D01*
X50690106Y-8879788D01*
X50690109Y-8879786D01*
X50815048Y-8707820D01*
X50815047Y-8707820D01*
X50815051Y-8707816D01*
X50911557Y-8518412D01*
X50977246Y-8316243D01*
X51010500Y-8106287D01*
X51010500Y-7893713D01*
X50977246Y-7683757D01*
X50911557Y-7481588D01*
X50815051Y-7292184D01*
X50815049Y-7292181D01*
X50815048Y-7292179D01*
X50690109Y-7120213D01*
X50539786Y-6969890D01*
X50367815Y-6844948D01*
X50367814Y-6844947D01*
X50328205Y-6824765D01*
X50277409Y-6776791D01*
X50260500Y-6714281D01*
X50260500Y-4591797D01*
X50280185Y-4524758D01*
X50296819Y-4504116D01*
X50368715Y-4432220D01*
X50480520Y-4320416D01*
X50542825Y-4212498D01*
X50593391Y-4164284D01*
X50650212Y-4150499D01*
X50897871Y-4150499D01*
X50897872Y-4150499D01*
X50957483Y-4144091D01*
X51092331Y-4093796D01*
X51207546Y-4007546D01*
X51293796Y-3892331D01*
X51344091Y-3757483D01*
X51350500Y-3697873D01*
X51350500Y-3393713D01*
X57149500Y-3393713D01*
X57149500Y-3606287D01*
X57182754Y-3816243D01*
X57247816Y-4016483D01*
X57248444Y-4018414D01*
X57344951Y-4207820D01*
X57469890Y-4379786D01*
X57620213Y-4530109D01*
X57792179Y-4655048D01*
X57792181Y-4655049D01*
X57792184Y-4655051D01*
X57981588Y-4751557D01*
X58183757Y-4817246D01*
X58393713Y-4850500D01*
X58393714Y-4850500D01*
X58606286Y-4850500D01*
X58606287Y-4850500D01*
X58816243Y-4817246D01*
X59018412Y-4751557D01*
X59207816Y-4655051D01*
X59229789Y-4639086D01*
X59379786Y-4530109D01*
X59379788Y-4530106D01*
X59379792Y-4530104D01*
X59530104Y-4379792D01*
X59530106Y-4379788D01*
X59530109Y-4379786D01*
X59655048Y-4207820D01*
X59655047Y-4207820D01*
X59655051Y-4207816D01*
X59751557Y-4018412D01*
X59817246Y-3816243D01*
X59850500Y-3606287D01*
X59850500Y-3393713D01*
X59817246Y-3183757D01*
X59751557Y-2981588D01*
X59655051Y-2792184D01*
X59655049Y-2792181D01*
X59655048Y-2792179D01*
X59530109Y-2620213D01*
X59379786Y-2469890D01*
X59207820Y-2344951D01*
X59018414Y-2248444D01*
X59018413Y-2248443D01*
X59018412Y-2248443D01*
X58816243Y-2182754D01*
X58816241Y-2182753D01*
X58816240Y-2182753D01*
X58620442Y-2151742D01*
X58606287Y-2149500D01*
X58393713Y-2149500D01*
X58379558Y-2151742D01*
X58183760Y-2182753D01*
X57981585Y-2248444D01*
X57792179Y-2344951D01*
X57620213Y-2469890D01*
X57469890Y-2620213D01*
X57344951Y-2792179D01*
X57248444Y-2981585D01*
X57182753Y-3183760D01*
X57161426Y-3318414D01*
X57149500Y-3393713D01*
X51350500Y-3393713D01*
X51350499Y-2792184D01*
X51350499Y-1902129D01*
X51350498Y-1902123D01*
X51350497Y-1902116D01*
X51344091Y-1842517D01*
X51293796Y-1707669D01*
X51293795Y-1707668D01*
X51293793Y-1707664D01*
X51207547Y-1592455D01*
X51207544Y-1592452D01*
X51092335Y-1506206D01*
X51092328Y-1506202D01*
X50957482Y-1455908D01*
X50957483Y-1455908D01*
X50897883Y-1449501D01*
X50897881Y-1449500D01*
X50897873Y-1449500D01*
X50897864Y-1449500D01*
X49102129Y-1449500D01*
X49102123Y-1449501D01*
X49042516Y-1455908D01*
X48907671Y-1506202D01*
X48907664Y-1506206D01*
X48792455Y-1592452D01*
X48792452Y-1592455D01*
X48706206Y-1707664D01*
X48706202Y-1707671D01*
X48655908Y-1842517D01*
X48649501Y-1902116D01*
X48649501Y-1902123D01*
X48649500Y-1902135D01*
X48649500Y-3697870D01*
X48649501Y-3697876D01*
X48655908Y-3757483D01*
X48706202Y-3892328D01*
X48706206Y-3892335D01*
X48792452Y-4007544D01*
X48792455Y-4007547D01*
X48907664Y-4093793D01*
X48907673Y-4093798D01*
X48978831Y-4120338D01*
X48996555Y-4133606D01*
X49016701Y-4142806D01*
X49023984Y-4154138D01*
X49034765Y-4162209D01*
X49042502Y-4182953D01*
X49054476Y-4201584D01*
X49057627Y-4223502D01*
X49059183Y-4227673D01*
X49059499Y-4236519D01*
X49059499Y-4370757D01*
X49059499Y-4370759D01*
X49059500Y-4380753D01*
X49059500Y-6714281D01*
X49039815Y-6781320D01*
X48991795Y-6824765D01*
X48952185Y-6844947D01*
X48952184Y-6844948D01*
X48780213Y-6969890D01*
X48629890Y-7120213D01*
X48504949Y-7292182D01*
X48500484Y-7300946D01*
X48452509Y-7351742D01*
X48384688Y-7368536D01*
X48318553Y-7345998D01*
X48279516Y-7300946D01*
X48275050Y-7292182D01*
X48150109Y-7120213D01*
X47999786Y-6969890D01*
X47827820Y-6844951D01*
X47638414Y-6748444D01*
X47638413Y-6748443D01*
X47638412Y-6748443D01*
X47436243Y-6682754D01*
X47436241Y-6682753D01*
X47436240Y-6682753D01*
X47274957Y-6657208D01*
X47226287Y-6649500D01*
X47013713Y-6649500D01*
X46965042Y-6657208D01*
X46803760Y-6682753D01*
X46601585Y-6748444D01*
X46412179Y-6844951D01*
X46240213Y-6969890D01*
X46089890Y-7120213D01*
X45964949Y-7292182D01*
X45960484Y-7300946D01*
X45912509Y-7351742D01*
X45844688Y-7368536D01*
X45778553Y-7345998D01*
X45739516Y-7300946D01*
X45735050Y-7292182D01*
X45610109Y-7120213D01*
X45459786Y-6969890D01*
X45287820Y-6844951D01*
X45098414Y-6748444D01*
X45098413Y-6748443D01*
X45098412Y-6748443D01*
X44896243Y-6682754D01*
X44896241Y-6682753D01*
X44896240Y-6682753D01*
X44734957Y-6657208D01*
X44686287Y-6649500D01*
X44473713Y-6649500D01*
X44425042Y-6657208D01*
X44263760Y-6682753D01*
X44061585Y-6748444D01*
X43872179Y-6844951D01*
X43700213Y-6969890D01*
X43549890Y-7120213D01*
X43424949Y-7292182D01*
X43420484Y-7300946D01*
X43372509Y-7351742D01*
X43304688Y-7368536D01*
X43238553Y-7345998D01*
X43199516Y-7300946D01*
X43195050Y-7292182D01*
X43070109Y-7120213D01*
X42919786Y-6969890D01*
X42747820Y-6844951D01*
X42558414Y-6748444D01*
X42558413Y-6748443D01*
X42558412Y-6748443D01*
X42356243Y-6682754D01*
X42356241Y-6682753D01*
X42356240Y-6682753D01*
X42194957Y-6657208D01*
X42146287Y-6649500D01*
X41933713Y-6649500D01*
X41885042Y-6657208D01*
X41723760Y-6682753D01*
X41521585Y-6748444D01*
X41332179Y-6844951D01*
X41160213Y-6969890D01*
X41009890Y-7120213D01*
X40884949Y-7292182D01*
X40880484Y-7300946D01*
X40832509Y-7351742D01*
X40764688Y-7368536D01*
X40698553Y-7345998D01*
X40659516Y-7300946D01*
X40655050Y-7292182D01*
X40530109Y-7120213D01*
X40379786Y-6969890D01*
X40207820Y-6844951D01*
X40018414Y-6748444D01*
X40018413Y-6748443D01*
X40018412Y-6748443D01*
X39816243Y-6682754D01*
X39816241Y-6682753D01*
X39816240Y-6682753D01*
X39654957Y-6657208D01*
X39606287Y-6649500D01*
X39459097Y-6649500D01*
X39392058Y-6629815D01*
X39346303Y-6577011D01*
X39336359Y-6507853D01*
X39365384Y-6444297D01*
X39371416Y-6437819D01*
X40499751Y-5309484D01*
X41729527Y-4079707D01*
X41790848Y-4046224D01*
X41856668Y-4050931D01*
X41856954Y-4050051D01*
X41860507Y-4051205D01*
X41860540Y-4051208D01*
X41860658Y-4051254D01*
X41861583Y-4051554D01*
X41861588Y-4051557D01*
X42063757Y-4117246D01*
X42273713Y-4150500D01*
X42273714Y-4150500D01*
X42486286Y-4150500D01*
X42486287Y-4150500D01*
X42696243Y-4117246D01*
X42898412Y-4051557D01*
X43087816Y-3955051D01*
X43174138Y-3892335D01*
X43259786Y-3830109D01*
X43259788Y-3830106D01*
X43259792Y-3830104D01*
X43410104Y-3679792D01*
X43410106Y-3679788D01*
X43410109Y-3679786D01*
X43535048Y-3507820D01*
X43535047Y-3507820D01*
X43535051Y-3507816D01*
X43539514Y-3499054D01*
X43587488Y-3448259D01*
X43655308Y-3431463D01*
X43721444Y-3453999D01*
X43760486Y-3499056D01*
X43764951Y-3507820D01*
X43889890Y-3679786D01*
X44040213Y-3830109D01*
X44212179Y-3955048D01*
X44212181Y-3955049D01*
X44212184Y-3955051D01*
X44401588Y-4051557D01*
X44603757Y-4117246D01*
X44813713Y-4150500D01*
X44813714Y-4150500D01*
X45026286Y-4150500D01*
X45026287Y-4150500D01*
X45236243Y-4117246D01*
X45438412Y-4051557D01*
X45627816Y-3955051D01*
X45714138Y-3892335D01*
X45799786Y-3830109D01*
X45799788Y-3830106D01*
X45799792Y-3830104D01*
X45950104Y-3679792D01*
X45950106Y-3679788D01*
X45950109Y-3679786D01*
X46075048Y-3507820D01*
X46075047Y-3507820D01*
X46075051Y-3507816D01*
X46171557Y-3318412D01*
X46237246Y-3116243D01*
X46270500Y-2906287D01*
X46270500Y-2693713D01*
X46237246Y-2483757D01*
X46171557Y-2281588D01*
X46075051Y-2092184D01*
X46075049Y-2092181D01*
X46075048Y-2092179D01*
X45950109Y-1920213D01*
X45799786Y-1769890D01*
X45627820Y-1644951D01*
X45438414Y-1548444D01*
X45438413Y-1548443D01*
X45438412Y-1548443D01*
X45236243Y-1482754D01*
X45236241Y-1482753D01*
X45236240Y-1482753D01*
X45074957Y-1457208D01*
X45026287Y-1449500D01*
X44813713Y-1449500D01*
X44765042Y-1457208D01*
X44603760Y-1482753D01*
X44401585Y-1548444D01*
X44212179Y-1644951D01*
X44040213Y-1769890D01*
X43889890Y-1920213D01*
X43764949Y-2092182D01*
X43760484Y-2100946D01*
X43712509Y-2151742D01*
X43644688Y-2168536D01*
X43578553Y-2145998D01*
X43539516Y-2100946D01*
X43535050Y-2092182D01*
X43410109Y-1920213D01*
X43259786Y-1769890D01*
X43087820Y-1644951D01*
X42898414Y-1548444D01*
X42898413Y-1548443D01*
X42898412Y-1548443D01*
X42696243Y-1482754D01*
X42696241Y-1482753D01*
X42696240Y-1482753D01*
X42534957Y-1457208D01*
X42486287Y-1449500D01*
X42273713Y-1449500D01*
X42225042Y-1457208D01*
X42063760Y-1482753D01*
X41861585Y-1548444D01*
X41672179Y-1644951D01*
X41500213Y-1769890D01*
X41349890Y-1920213D01*
X41224951Y-2092179D01*
X41128444Y-2281585D01*
X41062753Y-2483760D01*
X41029500Y-2693713D01*
X41029500Y-2906292D01*
X41043540Y-2994935D01*
X41034586Y-3064228D01*
X41008748Y-3102014D01*
X37444522Y-6666241D01*
X37383199Y-6699726D01*
X37318523Y-6696491D01*
X37276245Y-6682754D01*
X37136272Y-6660584D01*
X37066287Y-6649500D01*
X36853713Y-6649500D01*
X36814202Y-6655757D01*
X36643759Y-6682753D01*
X36643755Y-6682754D01*
X36538017Y-6717110D01*
X36509898Y-6717913D01*
X36482053Y-6721917D01*
X36475441Y-6718897D01*
X36468176Y-6719105D01*
X36444086Y-6704578D01*
X36418497Y-6692892D01*
X36414567Y-6686777D01*
X36408343Y-6683024D01*
X36395930Y-6657777D01*
X36380723Y-6634114D01*
X36379246Y-6623841D01*
X36377516Y-6620323D01*
X36375700Y-6599179D01*
X36375700Y-6476596D01*
X36395385Y-6409557D01*
X36412014Y-6388920D01*
X38358506Y-4442427D01*
X38358511Y-4442424D01*
X38368714Y-4432220D01*
X38368716Y-4432220D01*
X38480520Y-4320416D01*
X38542825Y-4212498D01*
X38593391Y-4164284D01*
X38650212Y-4150499D01*
X38897871Y-4150499D01*
X38897872Y-4150499D01*
X38957483Y-4144091D01*
X39092331Y-4093796D01*
X39207546Y-4007546D01*
X39293796Y-3892331D01*
X39344091Y-3757483D01*
X39350500Y-3697873D01*
X39350499Y-1902128D01*
X39344091Y-1842517D01*
X39293796Y-1707669D01*
X39293795Y-1707668D01*
X39293793Y-1707664D01*
X39207547Y-1592455D01*
X39207544Y-1592452D01*
X39092335Y-1506206D01*
X39092328Y-1506202D01*
X38957482Y-1455908D01*
X38957483Y-1455908D01*
X38897883Y-1449501D01*
X38897881Y-1449500D01*
X38897873Y-1449500D01*
X38897864Y-1449500D01*
X37102129Y-1449500D01*
X37102123Y-1449501D01*
X37042516Y-1455908D01*
X36907671Y-1506202D01*
X36907664Y-1506206D01*
X36792455Y-1592452D01*
X36792452Y-1592455D01*
X36706206Y-1707664D01*
X36706202Y-1707671D01*
X36655908Y-1842517D01*
X36649501Y-1902116D01*
X36649501Y-1902123D01*
X36649500Y-1902135D01*
X36649500Y-3697870D01*
X36649501Y-3697876D01*
X36655908Y-3757483D01*
X36706202Y-3892328D01*
X36706206Y-3892335D01*
X36792451Y-4007543D01*
X36792452Y-4007544D01*
X36792454Y-4007546D01*
X36850872Y-4051277D01*
X36892741Y-4107209D01*
X36897725Y-4176900D01*
X36864240Y-4238223D01*
X35406486Y-5695978D01*
X35294681Y-5807782D01*
X35294679Y-5807785D01*
X35244561Y-5894594D01*
X35244559Y-5894596D01*
X35215625Y-5944709D01*
X35215624Y-5944710D01*
X35215623Y-5944715D01*
X35174699Y-6097443D01*
X35174699Y-6097445D01*
X35174699Y-6265546D01*
X35174700Y-6265559D01*
X35174700Y-6666487D01*
X35155015Y-6733526D01*
X35102211Y-6779281D01*
X35033053Y-6789225D01*
X34994406Y-6776972D01*
X34938417Y-6748445D01*
X34938414Y-6748444D01*
X34938412Y-6748443D01*
X34736243Y-6682754D01*
X34736241Y-6682753D01*
X34736240Y-6682753D01*
X34574957Y-6657208D01*
X34526287Y-6649500D01*
X34313713Y-6649500D01*
X34265042Y-6657208D01*
X34103760Y-6682753D01*
X33901585Y-6748444D01*
X33712179Y-6844951D01*
X33540213Y-6969890D01*
X33389890Y-7120213D01*
X33264949Y-7292182D01*
X33260484Y-7300946D01*
X33212509Y-7351742D01*
X33144688Y-7368536D01*
X33078553Y-7345998D01*
X33039516Y-7300946D01*
X33035050Y-7292182D01*
X32910109Y-7120213D01*
X32759786Y-6969890D01*
X32587820Y-6844951D01*
X32398414Y-6748444D01*
X32398413Y-6748443D01*
X32398412Y-6748443D01*
X32196243Y-6682754D01*
X32196241Y-6682753D01*
X32196240Y-6682753D01*
X32034957Y-6657208D01*
X31986287Y-6649500D01*
X31773713Y-6649500D01*
X31725042Y-6657208D01*
X31563760Y-6682753D01*
X31361585Y-6748444D01*
X31172179Y-6844951D01*
X31000213Y-6969890D01*
X30849890Y-7120213D01*
X30724949Y-7292182D01*
X30720484Y-7300946D01*
X30672509Y-7351742D01*
X30604688Y-7368536D01*
X30538553Y-7345998D01*
X30499516Y-7300946D01*
X30495050Y-7292182D01*
X30370109Y-7120213D01*
X30219786Y-6969890D01*
X30047820Y-6844951D01*
X29858414Y-6748444D01*
X29858413Y-6748443D01*
X29858412Y-6748443D01*
X29656243Y-6682754D01*
X29656241Y-6682753D01*
X29656240Y-6682753D01*
X29494957Y-6657208D01*
X29446287Y-6649500D01*
X29233713Y-6649500D01*
X29185042Y-6657208D01*
X29023760Y-6682753D01*
X28821585Y-6748444D01*
X28632179Y-6844951D01*
X28460213Y-6969890D01*
X28309890Y-7120213D01*
X28184949Y-7292182D01*
X28180484Y-7300946D01*
X28132509Y-7351742D01*
X28064688Y-7368536D01*
X27998553Y-7345998D01*
X27959516Y-7300946D01*
X27955050Y-7292182D01*
X27830109Y-7120213D01*
X27679786Y-6969890D01*
X27507820Y-6844951D01*
X27318414Y-6748444D01*
X27318413Y-6748443D01*
X27318412Y-6748443D01*
X27116243Y-6682754D01*
X27116241Y-6682753D01*
X27116240Y-6682753D01*
X26954957Y-6657208D01*
X26906287Y-6649500D01*
X26693713Y-6649500D01*
X26665006Y-6654046D01*
X26483757Y-6682753D01*
X26441473Y-6696492D01*
X26371632Y-6698486D01*
X26315476Y-6666241D01*
X24965790Y-5316555D01*
X24965788Y-5316552D01*
X24846917Y-5197681D01*
X24846916Y-5197680D01*
X24760104Y-5147560D01*
X24760104Y-5147559D01*
X24760100Y-5147558D01*
X24709985Y-5118623D01*
X24557257Y-5077699D01*
X24399143Y-5077699D01*
X24391547Y-5077699D01*
X24391531Y-5077700D01*
X23398297Y-5077700D01*
X23331258Y-5058015D01*
X23310616Y-5041381D01*
X22631416Y-4362181D01*
X22597931Y-4300858D01*
X22602915Y-4231166D01*
X22644787Y-4175233D01*
X22710251Y-4150816D01*
X22719097Y-4150500D01*
X22866286Y-4150500D01*
X22866287Y-4150500D01*
X23076243Y-4117246D01*
X23278412Y-4051557D01*
X23467816Y-3955051D01*
X23554138Y-3892335D01*
X23639786Y-3830109D01*
X23639788Y-3830106D01*
X23639792Y-3830104D01*
X23790104Y-3679792D01*
X23790106Y-3679788D01*
X23790109Y-3679786D01*
X23915048Y-3507820D01*
X23915047Y-3507820D01*
X23915051Y-3507816D01*
X23919514Y-3499054D01*
X23967488Y-3448259D01*
X24035308Y-3431463D01*
X24101444Y-3453999D01*
X24140486Y-3499056D01*
X24144951Y-3507820D01*
X24269890Y-3679786D01*
X24420213Y-3830109D01*
X24592179Y-3955048D01*
X24592181Y-3955049D01*
X24592184Y-3955051D01*
X24781588Y-4051557D01*
X24983757Y-4117246D01*
X25193713Y-4150500D01*
X25193714Y-4150500D01*
X25406286Y-4150500D01*
X25406287Y-4150500D01*
X25616243Y-4117246D01*
X25818412Y-4051557D01*
X26007816Y-3955051D01*
X26094138Y-3892335D01*
X26179786Y-3830109D01*
X26179788Y-3830106D01*
X26179792Y-3830104D01*
X26330104Y-3679792D01*
X26330106Y-3679788D01*
X26330109Y-3679786D01*
X26455048Y-3507820D01*
X26455047Y-3507820D01*
X26455051Y-3507816D01*
X26459514Y-3499054D01*
X26507488Y-3448259D01*
X26575308Y-3431463D01*
X26641444Y-3453999D01*
X26680486Y-3499056D01*
X26684951Y-3507820D01*
X26809890Y-3679786D01*
X26960213Y-3830109D01*
X27132179Y-3955048D01*
X27132181Y-3955049D01*
X27132184Y-3955051D01*
X27321588Y-4051557D01*
X27523757Y-4117246D01*
X27733713Y-4150500D01*
X27733714Y-4150500D01*
X27946286Y-4150500D01*
X27946287Y-4150500D01*
X28156243Y-4117246D01*
X28358412Y-4051557D01*
X28547816Y-3955051D01*
X28634138Y-3892335D01*
X28719786Y-3830109D01*
X28719788Y-3830106D01*
X28719792Y-3830104D01*
X28870104Y-3679792D01*
X28870106Y-3679788D01*
X28870109Y-3679786D01*
X28995048Y-3507820D01*
X28995047Y-3507820D01*
X28995051Y-3507816D01*
X28999514Y-3499054D01*
X29047488Y-3448259D01*
X29115308Y-3431463D01*
X29181444Y-3453999D01*
X29220486Y-3499056D01*
X29224951Y-3507820D01*
X29349890Y-3679786D01*
X29500213Y-3830109D01*
X29672179Y-3955048D01*
X29672181Y-3955049D01*
X29672184Y-3955051D01*
X29861588Y-4051557D01*
X30063757Y-4117246D01*
X30273713Y-4150500D01*
X30273714Y-4150500D01*
X30486286Y-4150500D01*
X30486287Y-4150500D01*
X30696243Y-4117246D01*
X30898412Y-4051557D01*
X31087816Y-3955051D01*
X31174138Y-3892335D01*
X31259786Y-3830109D01*
X31259788Y-3830106D01*
X31259792Y-3830104D01*
X31410104Y-3679792D01*
X31410106Y-3679788D01*
X31410109Y-3679786D01*
X31535048Y-3507820D01*
X31535047Y-3507820D01*
X31535051Y-3507816D01*
X31539514Y-3499054D01*
X31587488Y-3448259D01*
X31655308Y-3431463D01*
X31721444Y-3453999D01*
X31760486Y-3499056D01*
X31764951Y-3507820D01*
X31889890Y-3679786D01*
X32040213Y-3830109D01*
X32212179Y-3955048D01*
X32212181Y-3955049D01*
X32212184Y-3955051D01*
X32401588Y-4051557D01*
X32603757Y-4117246D01*
X32813713Y-4150500D01*
X32813714Y-4150500D01*
X33026286Y-4150500D01*
X33026287Y-4150500D01*
X33236243Y-4117246D01*
X33438412Y-4051557D01*
X33627816Y-3955051D01*
X33714138Y-3892335D01*
X33799786Y-3830109D01*
X33799788Y-3830106D01*
X33799792Y-3830104D01*
X33950104Y-3679792D01*
X33950106Y-3679788D01*
X33950109Y-3679786D01*
X34075048Y-3507820D01*
X34075047Y-3507820D01*
X34075051Y-3507816D01*
X34171557Y-3318412D01*
X34237246Y-3116243D01*
X34270500Y-2906287D01*
X34270500Y-2693713D01*
X34237246Y-2483757D01*
X34171557Y-2281588D01*
X34075051Y-2092184D01*
X34075049Y-2092181D01*
X34075048Y-2092179D01*
X33950109Y-1920213D01*
X33799786Y-1769890D01*
X33627820Y-1644951D01*
X33438414Y-1548444D01*
X33438413Y-1548443D01*
X33438412Y-1548443D01*
X33236243Y-1482754D01*
X33236241Y-1482753D01*
X33236240Y-1482753D01*
X33074957Y-1457208D01*
X33026287Y-1449500D01*
X32813713Y-1449500D01*
X32765042Y-1457208D01*
X32603760Y-1482753D01*
X32401585Y-1548444D01*
X32212179Y-1644951D01*
X32040213Y-1769890D01*
X31889890Y-1920213D01*
X31764949Y-2092182D01*
X31760484Y-2100946D01*
X31712509Y-2151742D01*
X31644688Y-2168536D01*
X31578553Y-2145998D01*
X31539516Y-2100946D01*
X31535050Y-2092182D01*
X31410109Y-1920213D01*
X31259786Y-1769890D01*
X31087820Y-1644951D01*
X30898414Y-1548444D01*
X30898413Y-1548443D01*
X30898412Y-1548443D01*
X30696243Y-1482754D01*
X30696241Y-1482753D01*
X30696240Y-1482753D01*
X30534957Y-1457208D01*
X30486287Y-1449500D01*
X30273713Y-1449500D01*
X30225042Y-1457208D01*
X30063760Y-1482753D01*
X29861585Y-1548444D01*
X29672179Y-1644951D01*
X29500213Y-1769890D01*
X29349890Y-1920213D01*
X29224949Y-2092182D01*
X29220484Y-2100946D01*
X29172509Y-2151742D01*
X29104688Y-2168536D01*
X29038553Y-2145998D01*
X28999516Y-2100946D01*
X28995050Y-2092182D01*
X28870109Y-1920213D01*
X28719786Y-1769890D01*
X28547820Y-1644951D01*
X28358414Y-1548444D01*
X28358413Y-1548443D01*
X28358412Y-1548443D01*
X28156243Y-1482754D01*
X28156241Y-1482753D01*
X28156240Y-1482753D01*
X27994957Y-1457208D01*
X27946287Y-1449500D01*
X27733713Y-1449500D01*
X27685042Y-1457208D01*
X27523760Y-1482753D01*
X27321585Y-1548444D01*
X27132179Y-1644951D01*
X26960213Y-1769890D01*
X26809890Y-1920213D01*
X26684949Y-2092182D01*
X26680484Y-2100946D01*
X26632509Y-2151742D01*
X26564688Y-2168536D01*
X26498553Y-2145998D01*
X26459516Y-2100946D01*
X26455050Y-2092182D01*
X26330109Y-1920213D01*
X26179786Y-1769890D01*
X26007820Y-1644951D01*
X25818414Y-1548444D01*
X25818413Y-1548443D01*
X25818412Y-1548443D01*
X25616243Y-1482754D01*
X25616241Y-1482753D01*
X25616240Y-1482753D01*
X25454957Y-1457208D01*
X25406287Y-1449500D01*
X25193713Y-1449500D01*
X25145042Y-1457208D01*
X24983760Y-1482753D01*
X24781585Y-1548444D01*
X24592179Y-1644951D01*
X24420213Y-1769890D01*
X24269890Y-1920213D01*
X24144949Y-2092182D01*
X24140484Y-2100946D01*
X24092509Y-2151742D01*
X24024688Y-2168536D01*
X23958553Y-2145998D01*
X23919516Y-2100946D01*
X23915050Y-2092182D01*
X23790109Y-1920213D01*
X23639786Y-1769890D01*
X23467820Y-1644951D01*
X23278414Y-1548444D01*
X23278413Y-1548443D01*
X23278412Y-1548443D01*
X23076243Y-1482754D01*
X23076241Y-1482753D01*
X23076240Y-1482753D01*
X22914957Y-1457208D01*
X22866287Y-1449500D01*
X22653713Y-1449500D01*
X22605042Y-1457208D01*
X22443760Y-1482753D01*
X22241585Y-1548444D01*
X22052179Y-1644951D01*
X21880213Y-1769890D01*
X21729890Y-1920213D01*
X21604949Y-2092182D01*
X21600484Y-2100946D01*
X21552509Y-2151742D01*
X21484688Y-2168536D01*
X21418553Y-2145998D01*
X21379516Y-2100946D01*
X21375050Y-2092182D01*
X21250109Y-1920213D01*
X21099786Y-1769890D01*
X20927820Y-1644951D01*
X20738414Y-1548444D01*
X20738413Y-1548443D01*
X20738412Y-1548443D01*
X20536243Y-1482754D01*
X20536241Y-1482753D01*
X20536240Y-1482753D01*
X20374957Y-1457208D01*
X20326287Y-1449500D01*
X20113713Y-1449500D01*
X20065042Y-1457208D01*
X19903760Y-1482753D01*
X19701585Y-1548444D01*
X19512179Y-1644951D01*
X19340213Y-1769890D01*
X19189890Y-1920213D01*
X19064951Y-2092179D01*
X18968444Y-2281585D01*
X18902753Y-2483760D01*
X18869500Y-2693713D01*
X18869500Y-2906286D01*
X18902753Y-3116239D01*
X18968444Y-3318414D01*
X19064951Y-3507820D01*
X19189890Y-3679786D01*
X19340213Y-3830109D01*
X19512179Y-3955048D01*
X19512181Y-3955049D01*
X19512184Y-3955051D01*
X19701588Y-4051557D01*
X19903757Y-4117246D01*
X20113713Y-4150500D01*
X20113714Y-4150500D01*
X20326286Y-4150500D01*
X20326287Y-4150500D01*
X20536243Y-4117246D01*
X20578523Y-4103507D01*
X20648362Y-4101511D01*
X20704522Y-4133757D01*
X22613339Y-6042574D01*
X22613349Y-6042585D01*
X22617679Y-6046915D01*
X22617680Y-6046916D01*
X22729484Y-6158720D01*
X22729486Y-6158721D01*
X22729490Y-6158724D01*
X22866409Y-6237773D01*
X22866416Y-6237777D01*
X22978219Y-6267734D01*
X23019142Y-6278700D01*
X23019143Y-6278700D01*
X24178103Y-6278700D01*
X24207543Y-6287344D01*
X24237530Y-6293868D01*
X24242545Y-6297622D01*
X24245142Y-6298385D01*
X24265784Y-6315019D01*
X24388584Y-6437819D01*
X24422069Y-6499142D01*
X24417085Y-6568834D01*
X24375213Y-6624767D01*
X24309749Y-6649184D01*
X24300903Y-6649500D01*
X24153713Y-6649500D01*
X24105042Y-6657208D01*
X23943760Y-6682753D01*
X23741585Y-6748444D01*
X23552179Y-6844951D01*
X23380213Y-6969890D01*
X23229890Y-7120213D01*
X23104949Y-7292182D01*
X23100484Y-7300946D01*
X23052509Y-7351742D01*
X22984688Y-7368536D01*
X22918553Y-7345998D01*
X22879516Y-7300946D01*
X22875050Y-7292182D01*
X22750109Y-7120213D01*
X22599786Y-6969890D01*
X22427820Y-6844951D01*
X22238414Y-6748444D01*
X22238413Y-6748443D01*
X22238412Y-6748443D01*
X22036243Y-6682754D01*
X22036241Y-6682753D01*
X22036240Y-6682753D01*
X21874957Y-6657208D01*
X21826287Y-6649500D01*
X21613713Y-6649500D01*
X21565042Y-6657208D01*
X21403760Y-6682753D01*
X21201585Y-6748444D01*
X21012179Y-6844951D01*
X20840213Y-6969890D01*
X20689890Y-7120213D01*
X20564949Y-7292182D01*
X20560484Y-7300946D01*
X20512509Y-7351742D01*
X20444688Y-7368536D01*
X20378553Y-7345998D01*
X20339516Y-7300946D01*
X20335050Y-7292182D01*
X20210109Y-7120213D01*
X20059786Y-6969890D01*
X19887820Y-6844951D01*
X19698414Y-6748444D01*
X19698413Y-6748443D01*
X19698412Y-6748443D01*
X19496243Y-6682754D01*
X19496241Y-6682753D01*
X19496240Y-6682753D01*
X19334957Y-6657208D01*
X19286287Y-6649500D01*
X19073713Y-6649500D01*
X19025042Y-6657208D01*
X18863760Y-6682753D01*
X18661585Y-6748444D01*
X18472179Y-6844951D01*
X18300213Y-6969890D01*
X18149890Y-7120213D01*
X18024949Y-7292182D01*
X18020484Y-7300946D01*
X17972509Y-7351742D01*
X17904688Y-7368536D01*
X17838553Y-7345998D01*
X17799516Y-7300946D01*
X17795050Y-7292182D01*
X17670109Y-7120213D01*
X17519786Y-6969890D01*
X17347820Y-6844951D01*
X17158414Y-6748444D01*
X17158413Y-6748443D01*
X17158412Y-6748443D01*
X16956243Y-6682754D01*
X16956241Y-6682753D01*
X16956240Y-6682753D01*
X16794957Y-6657208D01*
X16746287Y-6649500D01*
X16533713Y-6649500D01*
X16485042Y-6657208D01*
X16323760Y-6682753D01*
X16121585Y-6748444D01*
X15932179Y-6844951D01*
X15760213Y-6969890D01*
X15609890Y-7120213D01*
X15484949Y-7292182D01*
X15480484Y-7300946D01*
X15432509Y-7351742D01*
X15364688Y-7368536D01*
X15298553Y-7345998D01*
X15259516Y-7300946D01*
X15255050Y-7292182D01*
X15130109Y-7120213D01*
X14979786Y-6969890D01*
X14807820Y-6844951D01*
X14618414Y-6748444D01*
X14618413Y-6748443D01*
X14618412Y-6748443D01*
X14416243Y-6682754D01*
X14416241Y-6682753D01*
X14416240Y-6682753D01*
X14254957Y-6657208D01*
X14206287Y-6649500D01*
X13993713Y-6649500D01*
X13945042Y-6657208D01*
X13783760Y-6682753D01*
X13581585Y-6748444D01*
X13392179Y-6844951D01*
X13220213Y-6969890D01*
X13069890Y-7120213D01*
X12944949Y-7292182D01*
X12940484Y-7300946D01*
X12892509Y-7351742D01*
X12824688Y-7368536D01*
X12758553Y-7345998D01*
X12719516Y-7300946D01*
X12715050Y-7292182D01*
X12590109Y-7120213D01*
X12439786Y-6969890D01*
X12267820Y-6844951D01*
X12078414Y-6748444D01*
X12078413Y-6748443D01*
X12078412Y-6748443D01*
X11876243Y-6682754D01*
X11876241Y-6682753D01*
X11876240Y-6682753D01*
X11714957Y-6657208D01*
X11666287Y-6649500D01*
X11453713Y-6649500D01*
X11405042Y-6657208D01*
X11243760Y-6682753D01*
X11041585Y-6748444D01*
X10852179Y-6844951D01*
X10680213Y-6969890D01*
X10529890Y-7120213D01*
X10404949Y-7292182D01*
X10400484Y-7300946D01*
X10352509Y-7351742D01*
X10284688Y-7368536D01*
X10218553Y-7345998D01*
X10179516Y-7300946D01*
X10175050Y-7292182D01*
X10050109Y-7120213D01*
X9899786Y-6969890D01*
X9727820Y-6844951D01*
X9538414Y-6748444D01*
X9538413Y-6748443D01*
X9538412Y-6748443D01*
X9336243Y-6682754D01*
X9336241Y-6682753D01*
X9336240Y-6682753D01*
X9174957Y-6657208D01*
X9126287Y-6649500D01*
X8913713Y-6649500D01*
X8865042Y-6657208D01*
X8703760Y-6682753D01*
X8501585Y-6748444D01*
X8312179Y-6844951D01*
X8140213Y-6969890D01*
X7989890Y-7120213D01*
X7864951Y-7292179D01*
X7768444Y-7481585D01*
X7702753Y-7683760D01*
X7669500Y-7893713D01*
X300500Y-7893713D01*
X300500Y-3393713D01*
X2149500Y-3393713D01*
X2149500Y-3606287D01*
X2182754Y-3816243D01*
X2247816Y-4016483D01*
X2248444Y-4018414D01*
X2344951Y-4207820D01*
X2469890Y-4379786D01*
X2620213Y-4530109D01*
X2792179Y-4655048D01*
X2792181Y-4655049D01*
X2792184Y-4655051D01*
X2981588Y-4751557D01*
X3183757Y-4817246D01*
X3393713Y-4850500D01*
X3393714Y-4850500D01*
X3606286Y-4850500D01*
X3606287Y-4850500D01*
X3816243Y-4817246D01*
X4018412Y-4751557D01*
X4207816Y-4655051D01*
X4229789Y-4639086D01*
X4379786Y-4530109D01*
X4379788Y-4530106D01*
X4379792Y-4530104D01*
X4530104Y-4379792D01*
X4530106Y-4379788D01*
X4530109Y-4379786D01*
X4655048Y-4207820D01*
X4655047Y-4207820D01*
X4655051Y-4207816D01*
X4751557Y-4018412D01*
X4817246Y-3816243D01*
X4850500Y-3606287D01*
X4850500Y-3393713D01*
X4817246Y-3183757D01*
X4751557Y-2981588D01*
X4655051Y-2792184D01*
X4655049Y-2792181D01*
X4655048Y-2792179D01*
X4530109Y-2620213D01*
X4379786Y-2469890D01*
X4207820Y-2344951D01*
X4018414Y-2248444D01*
X4018413Y-2248443D01*
X4018412Y-2248443D01*
X3816243Y-2182754D01*
X3816241Y-2182753D01*
X3816240Y-2182753D01*
X3620442Y-2151742D01*
X3606287Y-2149500D01*
X3393713Y-2149500D01*
X3379558Y-2151742D01*
X3183760Y-2182753D01*
X2981585Y-2248444D01*
X2792179Y-2344951D01*
X2620213Y-2469890D01*
X2469890Y-2620213D01*
X2344951Y-2792179D01*
X2248444Y-2981585D01*
X2182753Y-3183760D01*
X2161426Y-3318414D01*
X2149500Y-3393713D01*
X300500Y-3393713D01*
X300500Y-424500D01*
X320185Y-357461D01*
X372989Y-311706D01*
X424500Y-300500D01*
X61575500Y-300500D01*
X61642539Y-320185D01*
G37*
%TD.AperFunction*%
%TD*%
M02*
